<?xml version="1.0" encoding="UTF-8" standalone="no"?>
<!DOCTYPE svg PUBLIC "-//W3C//DTD SVG 1.1//EN"
 "http://www.w3.org/Graphics/SVG/1.1/DTD/svg11.dtd">
<!-- Generated by graphviz version 2.43.0 (0)
 -->
<!-- Title: assignment_semantics.hpp Pages: 1 -->
<svg width="1467pt" height="390pt"
 viewBox="0.00 0.00 1466.94 390.00" xmlns="http://www.w3.org/2000/svg" xmlns:xlink="http://www.w3.org/1999/xlink">
<g id="graph0" class="graph" transform="scale(1 1) rotate(0) translate(4 386)">
<title>assignment_semantics.hpp</title>
<!-- Node1 -->
<g id="Node000001" class="node">
<title>Node1</title>
<g id="a_Node000001"><a xlink:title="Assignment&#45;semantic traits for async write buffers and proxies.">
<polygon fill="#999999" stroke="#666666" points="635.5,-382 485.5,-382 485.5,-363 635.5,-363 635.5,-382"/>
<text text-anchor="middle" x="560.5" y="-370" font-family="Helvetica,sans-Serif" font-size="10.00">assignment_semantics.hpp</text>
</a>
</g>
</g>
<!-- Node2 -->
<g id="Node000002" class="node">
<title>Node2</title>
<g id="a_Node000002"><a xlink:href="buffers_8hpp.html" target="_top" xlink:title="Awaitable gates for Async&lt;T&gt;: snapshot‐reads and in‐place writes.">
<polygon fill="white" stroke="#666666" points="596,-327 525,-327 525,-308 596,-308 596,-327"/>
<text text-anchor="middle" x="560.5" y="-315" font-family="Helvetica,sans-Serif" font-size="10.00">buffers.hpp</text>
</a>
</g>
</g>
<!-- Node1&#45;&gt;Node2 -->
<g id="edge1_Node000001_Node000002" class="edge">
<title>Node1&#45;&gt;Node2</title>
<g id="a_edge1_Node000001_Node000002"><a xlink:title=" ">
<path fill="none" stroke="#63b8ff" d="M560.5,-352.66C560.5,-343.93 560.5,-333.99 560.5,-327.09"/>
<polygon fill="#63b8ff" stroke="#63b8ff" points="557,-352.75 560.5,-362.75 564,-352.75 557,-352.75"/>
</a>
</g>
</g>
<!-- Node3 -->
<g id="Node000003" class="node">
<title>Node3</title>
<g id="a_Node000003"><a xlink:href="async_8hpp.html" target="_top" xlink:title="The Async&lt;T&gt; container: coroutine‐safe asynchronous read/write.">
<polygon fill="white" stroke="#666666" points="646.5,-272 580.5,-272 580.5,-253 646.5,-253 646.5,-272"/>
<text text-anchor="middle" x="613.5" y="-260" font-family="Helvetica,sans-Serif" font-size="10.00">async.hpp</text>
</a>
</g>
</g>
<!-- Node2&#45;&gt;Node3 -->
<g id="edge2_Node000002_Node000003" class="edge">
<title>Node2&#45;&gt;Node3</title>
<g id="a_edge2_Node000002_Node000003"><a xlink:title=" ">
<path fill="none" stroke="#63b8ff" d="M576.48,-300.52C585.82,-291.18 597.25,-279.75 604.91,-272.09"/>
<polygon fill="#63b8ff" stroke="#63b8ff" points="573.85,-298.2 569.25,-307.75 578.8,-303.15 573.85,-298.2"/>
</a>
</g>
</g>
<!-- Node11 -->
<g id="Node000011" class="node">
<title>Node11</title>
<g id="a_Node000011"><a xlink:href="async__impl_8hpp.html" target="_top" xlink:title="Inline implementation of Async&lt;T&gt; helpers and task await transforms.">
<polygon fill="white" stroke="#666666" points="1339,-79.5 1246,-79.5 1246,-60.5 1339,-60.5 1339,-79.5"/>
<text text-anchor="middle" x="1292.5" y="-67.5" font-family="Helvetica,sans-Serif" font-size="10.00">async_impl.hpp</text>
</a>
</g>
</g>
<!-- Node2&#45;&gt;Node11 -->
<g id="edge51_Node000002_Node000011" class="edge">
<title>Node2&#45;&gt;Node11</title>
<g id="a_edge51_Node000002_Node000011"><a xlink:title=" ">
<path fill="none" stroke="#63b8ff" d="M606.28,-314.89C779.97,-308.31 1391.31,-280.76 1447.5,-217 1497.36,-160.42 1369.33,-101.3 1315.26,-79.62"/>
<polygon fill="#63b8ff" stroke="#63b8ff" points="606.05,-311.4 596.19,-315.27 606.31,-318.39 606.05,-311.4"/>
</a>
</g>
</g>
<!-- Node15 -->
<g id="Node000015" class="node">
<title>Node15</title>
<g id="a_Node000015"><a xlink:href="async__tbb__reduction__example_8cpp.html" target="_top" xlink:title="Example of using uni20 coroutines with the TbbScheduler to parallelize a map–reduce computation.">
<polygon fill="white" stroke="#666666" points="1438,-217 1321,-217 1321,-187 1438,-187 1438,-217"/>
<text text-anchor="start" x="1329" y="-205" font-family="Helvetica,sans-Serif" font-size="10.00">async_tbb_reduction</text>
<text text-anchor="middle" x="1379.5" y="-194" font-family="Helvetica,sans-Serif" font-size="10.00">_example.cpp</text>
</a>
</g>
</g>
<!-- Node2&#45;&gt;Node15 -->
<g id="edge52_Node000002_Node000015" class="edge">
<title>Node2&#45;&gt;Node15</title>
<g id="a_edge52_Node000002_Node000015"><a xlink:title=" ">
<path fill="none" stroke="#63b8ff" d="M606.36,-311.3C723.35,-297.85 1042.35,-259.91 1306.5,-217 1311.21,-216.23 1316.09,-215.4 1320.98,-214.53"/>
<polygon fill="#63b8ff" stroke="#63b8ff" points="605.86,-307.84 596.32,-312.46 606.66,-314.79 605.86,-307.84"/>
</a>
</g>
</g>
<!-- Node18 -->
<g id="Node000018" class="node">
<title>Node18</title>
<g id="a_Node000018"><a xlink:href="awaiters_8hpp.html" target="_top" xlink:title="Utilities for awaiting on Async&lt;T&gt;: co_await overload, all(), try_await().">
<polygon fill="white" stroke="#666666" points="547.5,-211.5 467.5,-211.5 467.5,-192.5 547.5,-192.5 547.5,-211.5"/>
<text text-anchor="middle" x="507.5" y="-199.5" font-family="Helvetica,sans-Serif" font-size="10.00">awaiters.hpp</text>
</a>
</g>
</g>
<!-- Node2&#45;&gt;Node18 -->
<g id="edge53_Node000002_Node000018" class="edge">
<title>Node2&#45;&gt;Node18</title>
<g id="a_edge53_Node000002_Node000018"><a xlink:title=" ">
<path fill="none" stroke="#63b8ff" d="M552.17,-298.66C540.61,-273.91 520.17,-230.13 511.53,-211.63"/>
<polygon fill="#63b8ff" stroke="#63b8ff" points="549.11,-300.39 556.52,-307.97 555.46,-297.43 549.11,-300.39"/>
</a>
</g>
</g>
<!-- Node21 -->
<g id="Node000021" class="node">
<title>Node21</title>
<g id="a_Node000021"><a xlink:href="future__value_8hpp.html" target="_top" xlink:title="Write&#45;once async wrappers (FutureValue and Defer) built on Async&lt;T&gt;.">
<polygon fill="white" stroke="#666666" points="263,-211.5 164,-211.5 164,-192.5 263,-192.5 263,-211.5"/>
<text text-anchor="middle" x="213.5" y="-199.5" font-family="Helvetica,sans-Serif" font-size="10.00">future_value.hpp</text>
</a>
</g>
</g>
<!-- Node2&#45;&gt;Node21 -->
<g id="edge54_Node000002_Node000021" class="edge">
<title>Node2&#45;&gt;Node21</title>
<g id="a_edge54_Node000002_Node000021"><a xlink:title=" ">
<path fill="none" stroke="#63b8ff" d="M524.73,-304.8C454.81,-281.93 301.48,-231.78 239.88,-211.63"/>
<polygon fill="#63b8ff" stroke="#63b8ff" points="523.83,-308.19 534.42,-307.97 526,-301.53 523.83,-308.19"/>
</a>
</g>
</g>
<!-- Node22 -->
<g id="Node000022" class="node">
<title>Node22</title>
<g id="a_Node000022"><a xlink:href="reverse__value_8hpp.html" target="_top" xlink:title="Reverse&#45;mode gradient accumulation channel built on reverse epoch queues.">
<polygon fill="white" stroke="#666666" points="107,-211.5 0,-211.5 0,-192.5 107,-192.5 107,-211.5"/>
<text text-anchor="middle" x="53.5" y="-199.5" font-family="Helvetica,sans-Serif" font-size="10.00">reverse_value.hpp</text>
</a>
</g>
</g>
<!-- Node2&#45;&gt;Node22 -->
<g id="edge55_Node000002_Node000022" class="edge">
<title>Node2&#45;&gt;Node22</title>
<g id="a_edge55_Node000002_Node000022"><a xlink:title=" ">
<path fill="none" stroke="#63b8ff" d="M514.86,-306.28C415.9,-284.13 183.13,-232.02 91.51,-211.51"/>
<polygon fill="#63b8ff" stroke="#63b8ff" points="514.33,-309.75 524.85,-308.52 515.85,-302.92 514.33,-309.75"/>
</a>
</g>
</g>
<!-- Node4 -->
<g id="Node000004" class="node">
<title>Node4</title>
<g id="a_Node000004"><a xlink:href="ad__example_8cpp.html" target="_top" xlink:title=" ">
<polygon fill="white" stroke="#666666" points="662,-145.5 565,-145.5 565,-126.5 662,-126.5 662,-145.5"/>
<text text-anchor="middle" x="613.5" y="-133.5" font-family="Helvetica,sans-Serif" font-size="10.00">ad_example.cpp</text>
</a>
</g>
</g>
<!-- Node3&#45;&gt;Node4 -->
<g id="edge3_Node000003_Node000004" class="edge">
<title>Node3&#45;&gt;Node4</title>
<g id="a_edge3_Node000003_Node000004"><a xlink:title=" ">
<path fill="none" stroke="#63b8ff" d="M613.5,-242.74C613.5,-215.36 613.5,-165.58 613.5,-145.62"/>
<polygon fill="#63b8ff" stroke="#63b8ff" points="610,-242.94 613.5,-252.94 617,-242.94 610,-242.94"/>
</a>
</g>
</g>
<!-- Node5 -->
<g id="Node000005" class="node">
<title>Node5</title>
<g id="a_Node000005"><a xlink:href="async__buffer__semantics__example_8cpp.html" target="_top" xlink:title=" ">
<polygon fill="white" stroke="#666666" points="1188.5,-151 1054.5,-151 1054.5,-121 1188.5,-121 1188.5,-151"/>
<text text-anchor="start" x="1062.5" y="-139" font-family="Helvetica,sans-Serif" font-size="10.00">async_buffer_semantics</text>
<text text-anchor="middle" x="1121.5" y="-128" font-family="Helvetica,sans-Serif" font-size="10.00">_example.cpp</text>
</a>
</g>
</g>
<!-- Node3&#45;&gt;Node5 -->
<g id="edge4_Node000003_Node000005" class="edge">
<title>Node3&#45;&gt;Node5</title>
<g id="a_edge4_Node000003_Node000005"><a xlink:title=" ">
<path fill="none" stroke="#63b8ff" d="M656.5,-257.41C712.92,-251.45 814.71,-238.66 899.5,-217 968.37,-199.41 1045.86,-168.91 1088.65,-151.09"/>
<polygon fill="#63b8ff" stroke="#63b8ff" points="656.1,-253.93 646.51,-258.44 656.82,-260.89 656.1,-253.93"/>
</a>
</g>
</g>
<!-- Node6 -->
<g id="Node000006" class="node">
<title>Node6</title>
<g id="a_Node000006"><a xlink:href="async__example_8cpp.html" target="_top" xlink:title=" ">
<polygon fill="white" stroke="#666666" points="547,-145.5 434,-145.5 434,-126.5 547,-126.5 547,-145.5"/>
<text text-anchor="middle" x="490.5" y="-133.5" font-family="Helvetica,sans-Serif" font-size="10.00">async_example.cpp</text>
</a>
</g>
</g>
<!-- Node3&#45;&gt;Node6 -->
<g id="edge5_Node000003_Node000006" class="edge">
<title>Node3&#45;&gt;Node6</title>
<g id="a_edge5_Node000003_Node000006"><a xlink:title=" ">
<path fill="none" stroke="#63b8ff" d="M602.04,-243.88C591.3,-228.07 574.28,-204.7 556.5,-187 539.99,-170.57 517.95,-154.91 503.98,-145.63"/>
<polygon fill="#63b8ff" stroke="#63b8ff" points="599.41,-246.24 607.86,-252.63 605.23,-242.36 599.41,-246.24"/>
</a>
</g>
</g>
<!-- Node7 -->
<g id="Node000007" class="node">
<title>Node7</title>
<g id="a_Node000007"><a xlink:href="async__example2_8cpp.html" target="_top" xlink:title=" ">
<polygon fill="white" stroke="#666666" points="510,-79.5 391,-79.5 391,-60.5 510,-60.5 510,-79.5"/>
<text text-anchor="middle" x="450.5" y="-67.5" font-family="Helvetica,sans-Serif" font-size="10.00">async_example2.cpp</text>
</a>
</g>
</g>
<!-- Node3&#45;&gt;Node7 -->
<g id="edge6_Node000003_Node000007" class="edge">
<title>Node3&#45;&gt;Node7</title>
<g id="a_edge6_Node000003_Node000007"><a xlink:title=" ">
<path fill="none" stroke="#63b8ff" d="M570.31,-257.46C536.99,-252.49 491.22,-241.45 458.5,-217 421.2,-189.12 402.8,-165.51 416.5,-121 421.5,-104.75 433.79,-89.04 442.14,-79.7"/>
<polygon fill="#63b8ff" stroke="#63b8ff" points="569.84,-260.92 580.22,-258.81 570.79,-253.99 569.84,-260.92"/>
</a>
</g>
</g>
<!-- Node8 -->
<g id="Node000008" class="node">
<title>Node8</title>
<g id="a_Node000008"><a xlink:href="async__fib__example_8cpp.html" target="_top" xlink:title=" ">
<polygon fill="white" stroke="#666666" points="736,-79.5 605,-79.5 605,-60.5 736,-60.5 736,-79.5"/>
<text text-anchor="middle" x="670.5" y="-67.5" font-family="Helvetica,sans-Serif" font-size="10.00">async_fib_example.cpp</text>
</a>
</g>
</g>
<!-- Node3&#45;&gt;Node8 -->
<g id="edge7_Node000003_Node000008" class="edge">
<title>Node3&#45;&gt;Node8</title>
<g id="a_edge7_Node000003_Node000008"><a xlink:title=" ">
<path fill="none" stroke="#63b8ff" d="M625.55,-244.53C639.56,-223.67 661.85,-186.65 670.5,-151 676.66,-125.63 673.77,-94.38 671.8,-79.56"/>
<polygon fill="#63b8ff" stroke="#63b8ff" points="622.57,-242.69 619.78,-252.91 628.34,-246.66 622.57,-242.69"/>
</a>
</g>
</g>
<!-- Node9 -->
<g id="Node000009" class="node">
<title>Node9</title>
<g id="a_Node000009"><a xlink:href="async__kernel__shapes__example_8cpp.html" target="_top" xlink:title=" ">
<polygon fill="white" stroke="#666666" points="1066.5,-85 946.5,-85 946.5,-55 1066.5,-55 1066.5,-85"/>
<text text-anchor="start" x="954.5" y="-73" font-family="Helvetica,sans-Serif" font-size="10.00">async_kernel_shapes</text>
<text text-anchor="middle" x="1006.5" y="-62" font-family="Helvetica,sans-Serif" font-size="10.00">_example.cpp</text>
</a>
</g>
</g>
<!-- Node3&#45;&gt;Node9 -->
<g id="edge8_Node000003_Node000009" class="edge">
<title>Node3&#45;&gt;Node9</title>
<g id="a_edge8_Node000003_Node000009"><a xlink:title=" ">
<path fill="none" stroke="#63b8ff" d="M656.82,-260.06C761.94,-256.18 1028.08,-243.93 1112.5,-217 1167.91,-199.32 1196.55,-201.44 1225.5,-151 1261.12,-88.95 1143.16,-74.45 1066.71,-71.41"/>
<polygon fill="#63b8ff" stroke="#63b8ff" points="656.44,-256.57 646.58,-260.43 656.7,-263.57 656.44,-256.57"/>
</a>
</g>
</g>
<!-- Node10 -->
<g id="Node000010" class="node">
<title>Node10</title>
<g id="a_Node000010"><a xlink:href="async__ops_8hpp.html" target="_top" xlink:title="Concepts and helpers for composing Async expressions.">
<polygon fill="white" stroke="#666666" points="922,-145.5 833,-145.5 833,-126.5 922,-126.5 922,-145.5"/>
<text text-anchor="middle" x="877.5" y="-133.5" font-family="Helvetica,sans-Serif" font-size="10.00">async_ops.hpp</text>
</a>
</g>
</g>
<!-- Node3&#45;&gt;Node10 -->
<g id="edge9_Node000003_Node000010" class="edge">
<title>Node3&#45;&gt;Node10</title>
<g id="a_edge9_Node000003_Node000010"><a xlink:title=" ">
<path fill="none" stroke="#63b8ff" d="M656.71,-260.8C724.82,-258.68 852.33,-250.25 880.5,-217 897.75,-196.64 887.44,-161.82 881.2,-145.68"/>
<polygon fill="#63b8ff" stroke="#63b8ff" points="656.61,-257.3 646.71,-261.08 656.8,-264.3 656.61,-257.3"/>
</a>
</g>
</g>
<!-- Node12 -->
<g id="Node000012" class="node">
<title>Node12</title>
<g id="a_Node000012"><a xlink:href="async__ops__example_8cpp.html" target="_top" xlink:title=" ">
<polygon fill="white" stroke="#666666" points="928.5,-79.5 792.5,-79.5 792.5,-60.5 928.5,-60.5 928.5,-79.5"/>
<text text-anchor="middle" x="860.5" y="-67.5" font-family="Helvetica,sans-Serif" font-size="10.00">async_ops_example.cpp</text>
</a>
</g>
</g>
<!-- Node3&#45;&gt;Node12 -->
<g id="edge18_Node000003_Node000012" class="edge">
<title>Node3&#45;&gt;Node12</title>
<g id="a_edge18_Node000003_Node000012"><a xlink:title=" ">
<path fill="none" stroke="#63b8ff" d="M657.15,-260.43C781.34,-256.33 1131.95,-237.2 1197.5,-151 1304.3,-10.55 1512.08,-176.97 937.5,-85 927.17,-83.35 916.09,-81.42 905.64,-79.54"/>
<polygon fill="#63b8ff" stroke="#63b8ff" points="656.76,-256.94 646.88,-260.75 656.98,-263.93 656.76,-256.94"/>
</a>
</g>
</g>
<!-- Node13 -->
<g id="Node000013" class="node">
<title>Node13</title>
<g id="a_Node000013"><a xlink:href="future__example_8cpp.html" target="_top" xlink:title=" ">
<polygon fill="white" stroke="#666666" points="372.5,-79.5 258.5,-79.5 258.5,-60.5 372.5,-60.5 372.5,-79.5"/>
<text text-anchor="middle" x="315.5" y="-67.5" font-family="Helvetica,sans-Serif" font-size="10.00">future_example.cpp</text>
</a>
</g>
</g>
<!-- Node3&#45;&gt;Node13 -->
<g id="edge43_Node000003_Node000013" class="edge">
<title>Node3&#45;&gt;Node13</title>
<g id="a_edge43_Node000003_Node000013"><a xlink:title=" ">
<path fill="none" stroke="#63b8ff" d="M570.17,-258.31C496.83,-252.4 351.71,-238.37 305.5,-217 287.21,-208.54 288.18,-198.31 271.5,-187 242.22,-167.14 219.02,-181.15 200.5,-151 193.52,-139.64 193.19,-132.15 200.5,-121 215,-98.88 241.64,-86.49 265.63,-79.58"/>
<polygon fill="#63b8ff" stroke="#63b8ff" points="570.2,-261.82 580.45,-259.12 570.76,-254.84 570.2,-261.82"/>
</a>
</g>
</g>
<!-- Node3&#45;&gt;Node15 -->
<g id="edge19_Node000003_Node000015" class="edge">
<title>Node3&#45;&gt;Node15</title>
<g id="a_edge19_Node000003_Node000015"><a xlink:title=" ">
<path fill="none" stroke="#63b8ff" d="M657.14,-260.6C766.75,-257.91 1062.29,-248.13 1306.5,-217 1311.11,-216.41 1315.86,-215.71 1320.63,-214.95"/>
<polygon fill="#63b8ff" stroke="#63b8ff" points="656.73,-257.1 646.82,-260.84 656.9,-264.1 656.73,-257.1"/>
</a>
</g>
</g>
<!-- Node16 -->
<g id="Node000016" class="node">
<title>Node16</title>
<g id="a_Node000016"><a xlink:href="async__toys_8hpp.html" target="_top" xlink:title="Small async helper operations used in tests and examples.">
<polygon fill="white" stroke="#666666" points="301.5,-145.5 209.5,-145.5 209.5,-126.5 301.5,-126.5 301.5,-145.5"/>
<text text-anchor="middle" x="255.5" y="-133.5" font-family="Helvetica,sans-Serif" font-size="10.00">async_toys.hpp</text>
</a>
</g>
</g>
<!-- Node3&#45;&gt;Node16 -->
<g id="edge20_Node000003_Node000016" class="edge">
<title>Node3&#45;&gt;Node16</title>
<g id="a_edge20_Node000003_Node000016"><a xlink:title=" ">
<path fill="none" stroke="#63b8ff" d="M570.2,-260.77C516.94,-258.4 424.82,-249.45 353.5,-217 314.72,-199.35 278.44,-162.51 263.14,-145.7"/>
<polygon fill="#63b8ff" stroke="#63b8ff" points="570.19,-264.27 580.32,-261.16 570.46,-257.28 570.19,-264.27"/>
</a>
</g>
</g>
<!-- Node3&#45;&gt;Node18 -->
<g id="edge25_Node000003_Node000018" class="edge">
<title>Node3&#45;&gt;Node18</title>
<g id="a_edge25_Node000003_Node000018"><a xlink:title=" ">
<path fill="none" stroke="#63b8ff" d="M588.9,-247.92C568.64,-236.74 540.53,-221.23 523.2,-211.67"/>
<polygon fill="#63b8ff" stroke="#63b8ff" points="587.41,-251.1 597.86,-252.87 590.8,-244.97 587.41,-251.1"/>
</a>
</g>
</g>
<!-- Node19 -->
<g id="Node000019" class="node">
<title>Node19</title>
<g id="a_Node000019"><a xlink:href="bug_8cpp.html" target="_top" xlink:title=" ">
<polygon fill="white" stroke="#666666" points="735,-211.5 680,-211.5 680,-192.5 735,-192.5 735,-211.5"/>
<text text-anchor="middle" x="707.5" y="-199.5" font-family="Helvetica,sans-Serif" font-size="10.00">bug.cpp</text>
</a>
</g>
</g>
<!-- Node3&#45;&gt;Node19 -->
<g id="edge31_Node000003_Node000019" class="edge">
<title>Node3&#45;&gt;Node19</title>
<g id="a_edge31_Node000003_Node000019"><a xlink:title=" ">
<path fill="none" stroke="#63b8ff" d="M636.05,-247.47C653.95,-236.32 678.42,-221.1 693.57,-211.67"/>
<polygon fill="#63b8ff" stroke="#63b8ff" points="634.01,-244.61 627.37,-252.87 637.71,-250.56 634.01,-244.61"/>
</a>
</g>
</g>
<!-- Node20 -->
<g id="Node000020" class="node">
<title>Node20</title>
<g id="a_Node000020"><a xlink:href="debug__scheduler_8hpp.html" target="_top" xlink:title="Coroutine scheduler for AsyncTask.">
<polygon fill="white" stroke="#666666" points="872,-211.5 753,-211.5 753,-192.5 872,-192.5 872,-211.5"/>
<text text-anchor="middle" x="812.5" y="-199.5" font-family="Helvetica,sans-Serif" font-size="10.00">debug_scheduler.hpp</text>
</a>
</g>
</g>
<!-- Node3&#45;&gt;Node20 -->
<g id="edge32_Node000003_Node000020" class="edge">
<title>Node3&#45;&gt;Node20</title>
<g id="a_edge32_Node000003_Node000020"><a xlink:title=" ">
<path fill="none" stroke="#63b8ff" d="M652.25,-250.11C690.74,-238.79 748.88,-221.7 783.53,-211.52"/>
<polygon fill="#63b8ff" stroke="#63b8ff" points="651.04,-246.82 642.44,-252.99 653.02,-253.53 651.04,-246.82"/>
</a>
</g>
</g>
<!-- Node3&#45;&gt;Node21 -->
<g id="edge44_Node000003_Node000021" class="edge">
<title>Node3&#45;&gt;Node21</title>
<g id="a_edge44_Node000003_Node000021"><a xlink:title=" ">
<path fill="none" stroke="#63b8ff" d="M570.31,-256.95C506.18,-249.93 382.09,-235.33 277.5,-217 268.54,-215.43 258.93,-213.47 249.95,-211.53"/>
<polygon fill="#63b8ff" stroke="#63b8ff" points="570.13,-260.45 580.45,-258.05 570.89,-253.49 570.13,-260.45"/>
</a>
</g>
</g>
<!-- Node3&#45;&gt;Node22 -->
<g id="edge46_Node000003_Node000022" class="edge">
<title>Node3&#45;&gt;Node22</title>
<g id="a_edge46_Node000003_Node000022"><a xlink:title=" ">
<path fill="none" stroke="#63b8ff" d="M570.07,-259.22C484.08,-254.35 286.23,-241.33 121.5,-217 111.6,-215.54 100.98,-213.55 91.13,-211.54"/>
<polygon fill="#63b8ff" stroke="#63b8ff" points="570.05,-262.73 580.23,-259.79 570.45,-255.74 570.05,-262.73"/>
</a>
</g>
</g>
<!-- Node23 -->
<g id="Node000023" class="node">
<title>Node23</title>
<g id="a_Node000023"><a xlink:href="var_8hpp.html" target="_top" xlink:title=" ">
<polygon fill="white" stroke="#666666" points="115,-145.5 62,-145.5 62,-126.5 115,-126.5 115,-145.5"/>
<text text-anchor="middle" x="88.5" y="-133.5" font-family="Helvetica,sans-Serif" font-size="10.00">var.hpp</text>
</a>
</g>
</g>
<!-- Node3&#45;&gt;Node23 -->
<g id="edge50_Node000003_Node000023" class="edge">
<title>Node3&#45;&gt;Node23</title>
<g id="a_edge50_Node000003_Node000023"><a xlink:title=" ">
<path fill="none" stroke="#63b8ff" d="M570.16,-261.46C470.05,-260.72 225.84,-254.94 154.5,-217 123.5,-200.51 101.43,-162.73 92.68,-145.65"/>
<polygon fill="#63b8ff" stroke="#63b8ff" points="570.21,-264.96 580.24,-261.52 570.26,-257.96 570.21,-264.96"/>
</a>
</g>
</g>
<!-- Node10&#45;&gt;Node7 -->
<g id="edge10_Node000010_Node000007" class="edge">
<title>Node10&#45;&gt;Node7</title>
<g id="a_edge10_Node000010_Node000007"><a xlink:title=" ">
<path fill="none" stroke="#63b8ff" d="M822.57,-126.77C741.25,-114.58 589.58,-91.85 507.23,-79.5"/>
<polygon fill="#63b8ff" stroke="#63b8ff" points="822.2,-130.25 832.61,-128.27 823.24,-123.33 822.2,-130.25"/>
</a>
</g>
</g>
<!-- Node10&#45;&gt;Node8 -->
<g id="edge11_Node000010_Node000008" class="edge">
<title>Node10&#45;&gt;Node8</title>
<g id="a_edge11_Node000010_Node000008"><a xlink:title=" ">
<path fill="none" stroke="#63b8ff" d="M839.99,-123.4C799.17,-110.78 734.85,-90.89 698.3,-79.6"/>
<polygon fill="#63b8ff" stroke="#63b8ff" points="839,-126.76 849.58,-126.37 841.06,-120.07 839,-126.76"/>
</a>
</g>
</g>
<!-- Node10&#45;&gt;Node9 -->
<g id="edge14_Node000010_Node000009" class="edge">
<title>Node10&#45;&gt;Node9</title>
<g id="a_edge14_Node000010_Node000009"><a xlink:title=" ">
<path fill="none" stroke="#63b8ff" d="M904.13,-121.79C925.7,-111.09 956.01,-96.05 978.05,-85.12"/>
<polygon fill="#63b8ff" stroke="#63b8ff" points="902.3,-118.79 894.9,-126.37 905.41,-125.06 902.3,-118.79"/>
</a>
</g>
</g>
<!-- Node10&#45;&gt;Node11 -->
<g id="edge12_Node000010_Node000011" class="edge">
<title>Node10&#45;&gt;Node11</title>
<g id="a_edge12_Node000010_Node000011"><a xlink:title=" ">
<path fill="none" stroke="#63b8ff" d="M932.22,-126.56C1014.53,-113.87 1168.77,-90.08 1245.98,-78.17"/>
<polygon fill="#63b8ff" stroke="#63b8ff" points="931.66,-123.11 922.31,-128.09 932.72,-130.02 931.66,-123.11"/>
</a>
</g>
</g>
<!-- Node10&#45;&gt;Node12 -->
<g id="edge15_Node000010_Node000012" class="edge">
<title>Node10&#45;&gt;Node12</title>
<g id="a_edge15_Node000010_Node000012"><a xlink:title=" ">
<path fill="none" stroke="#63b8ff" d="M872.57,-116.45C869.38,-104.43 865.37,-89.32 862.87,-79.91"/>
<polygon fill="#63b8ff" stroke="#63b8ff" points="869.26,-117.6 875.21,-126.37 876.02,-115.81 869.26,-117.6"/>
</a>
</g>
</g>
<!-- Node10&#45;&gt;Node13 -->
<g id="edge16_Node000010_Node000013" class="edge">
<title>Node10&#45;&gt;Node13</title>
<g id="a_edge16_Node000010_Node000013"><a xlink:title=" ">
<path fill="none" stroke="#63b8ff" d="M822.63,-130.23C711.96,-120.48 465.38,-98.08 381.5,-85 372.01,-83.52 361.83,-81.55 352.37,-79.56"/>
<polygon fill="#63b8ff" stroke="#63b8ff" points="822.64,-133.74 832.91,-131.13 823.26,-126.77 822.64,-133.74"/>
</a>
</g>
</g>
<!-- Node14 -->
<g id="Node000014" class="node">
<title>Node14</title>
<g id="a_Node000014"><a xlink:href="gradient__solver_8cpp.html" target="_top" xlink:title=" ">
<polygon fill="white" stroke="#666666" points="539.5,-19 427.5,-19 427.5,0 539.5,0 539.5,-19"/>
<text text-anchor="middle" x="483.5" y="-7" font-family="Helvetica,sans-Serif" font-size="10.00">gradient_solver.cpp</text>
</a>
</g>
</g>
<!-- Node10&#45;&gt;Node14 -->
<g id="edge17_Node000010_Node000014" class="edge">
<title>Node10&#45;&gt;Node14</title>
<g id="a_edge17_Node000010_Node000014"><a xlink:title=" ">
<path fill="none" stroke="#63b8ff" d="M850.26,-122.02C831.12,-112.55 805.17,-98.96 783.5,-85 765.12,-73.16 764.54,-63.76 744.5,-55 677.96,-25.9 594.13,-15.77 539.71,-12.28"/>
<polygon fill="#63b8ff" stroke="#63b8ff" points="848.8,-125.21 859.33,-126.46 851.88,-118.92 848.8,-125.21"/>
</a>
</g>
</g>
<!-- Node11&#45;&gt;Node3 -->
<g id="edge13_Node000011_Node000003" class="edge">
<title>Node11&#45;&gt;Node3</title>
<g id="a_edge13_Node000011_Node000003"><a xlink:title=" ">
<path fill="none" stroke="#63b8ff" d="M1284.08,-89.02C1267.39,-122.23 1226.55,-191.97 1167.5,-217 1072.77,-257.15 751.44,-261.29 646.76,-261.55"/>
<polygon fill="#63b8ff" stroke="#63b8ff" points="1287.42,-90.15 1288.64,-79.63 1281.13,-87.09 1287.42,-90.15"/>
</a>
</g>
</g>
<!-- Node16&#45;&gt;Node7 -->
<g id="edge21_Node000016_Node000007" class="edge">
<title>Node16&#45;&gt;Node7</title>
<g id="a_edge21_Node000016_Node000007"><a xlink:title=" ">
<path fill="none" stroke="#63b8ff" d="M291.57,-123.16C330.06,-110.53 390.1,-90.82 424.31,-79.6"/>
<polygon fill="#63b8ff" stroke="#63b8ff" points="290.21,-119.92 281.8,-126.37 292.39,-126.58 290.21,-119.92"/>
</a>
</g>
</g>
<!-- Node16&#45;&gt;Node13 -->
<g id="edge22_Node000016_Node000013" class="edge">
<title>Node16&#45;&gt;Node13</title>
<g id="a_edge22_Node000016_Node000013"><a xlink:title=" ">
<path fill="none" stroke="#63b8ff" d="M270.52,-118.98C282.1,-106.62 297.7,-89.99 307.15,-79.91"/>
<polygon fill="#63b8ff" stroke="#63b8ff" points="267.88,-116.68 263.59,-126.37 272.98,-121.47 267.88,-116.68"/>
</a>
</g>
</g>
<!-- Node17 -->
<g id="Node000017" class="node">
<title>Node17</title>
<g id="a_Node000017"><a xlink:href="var__toys_8hpp.html" target="_top" xlink:title="Demonstration reverse&#45;mode helpers built on Var&lt;T&gt;.">
<polygon fill="white" stroke="#666666" points="240.5,-79.5 160.5,-79.5 160.5,-60.5 240.5,-60.5 240.5,-79.5"/>
<text text-anchor="middle" x="200.5" y="-67.5" font-family="Helvetica,sans-Serif" font-size="10.00">var_toys.hpp</text>
</a>
</g>
</g>
<!-- Node16&#45;&gt;Node17 -->
<g id="edge23_Node000016_Node000017" class="edge">
<title>Node16&#45;&gt;Node17</title>
<g id="a_edge23_Node000016_Node000017"><a xlink:title=" ">
<path fill="none" stroke="#63b8ff" d="M241.43,-118.62C230.84,-106.31 216.74,-89.89 208.15,-79.91"/>
<polygon fill="#63b8ff" stroke="#63b8ff" points="238.91,-121.07 248.08,-126.37 244.22,-116.5 238.91,-121.07"/>
</a>
</g>
</g>
<!-- Node17&#45;&gt;Node14 -->
<g id="edge24_Node000017_Node000014" class="edge">
<title>Node17&#45;&gt;Node14</title>
<g id="a_edge24_Node000017_Node000014"><a xlink:title=" ">
<path fill="none" stroke="#63b8ff" d="M238.41,-57.8C242.14,-56.81 245.89,-55.86 249.5,-55 311.46,-40.29 383.55,-27.17 431.17,-19.06"/>
<polygon fill="#63b8ff" stroke="#63b8ff" points="237.34,-54.47 228.63,-60.49 239.2,-61.22 237.34,-54.47"/>
</a>
</g>
</g>
<!-- Node18&#45;&gt;Node4 -->
<g id="edge26_Node000018_Node000004" class="edge">
<title>Node18&#45;&gt;Node4</title>
<g id="a_edge26_Node000018_Node000004"><a xlink:title=" ">
<path fill="none" stroke="#63b8ff" d="M530.37,-187.19C551.23,-174.59 581.42,-156.37 599.09,-145.7"/>
<polygon fill="#63b8ff" stroke="#63b8ff" points="528.55,-184.2 521.8,-192.37 532.17,-190.2 528.55,-184.2"/>
</a>
</g>
</g>
<!-- Node18&#45;&gt;Node6 -->
<g id="edge27_Node000018_Node000006" class="edge">
<title>Node18&#45;&gt;Node6</title>
<g id="a_edge27_Node000018_Node000006"><a xlink:title=" ">
<path fill="none" stroke="#63b8ff" d="M502.57,-182.45C499.38,-170.43 495.37,-155.32 492.87,-145.91"/>
<polygon fill="#63b8ff" stroke="#63b8ff" points="499.26,-183.6 505.21,-192.37 506.02,-181.81 499.26,-183.6"/>
</a>
</g>
</g>
<!-- Node18&#45;&gt;Node7 -->
<g id="edge28_Node000018_Node000007" class="edge">
<title>Node18&#45;&gt;Node7</title>
<g id="a_edge28_Node000018_Node000007"><a xlink:title=" ">
<path fill="none" stroke="#63b8ff" d="M470.44,-188.5C453.23,-180.62 434.41,-168.55 424.5,-151 410.99,-127.1 431.35,-95.16 443.11,-79.88"/>
<polygon fill="#63b8ff" stroke="#63b8ff" points="469.2,-191.78 479.77,-192.46 471.93,-185.33 469.2,-191.78"/>
</a>
</g>
</g>
<!-- Node18&#45;&gt;Node10 -->
<g id="edge29_Node000018_Node000010" class="edge">
<title>Node18&#45;&gt;Node10</title>
<g id="a_edge29_Node000018_Node000010"><a xlink:title=" ">
<path fill="none" stroke="#63b8ff" d="M558.08,-192.25C630.8,-179.67 763.74,-156.68 832.95,-144.71"/>
<polygon fill="#63b8ff" stroke="#63b8ff" points="557.06,-188.88 547.8,-194.03 558.25,-195.77 557.06,-188.88"/>
</a>
</g>
</g>
<!-- Node18&#45;&gt;Node13 -->
<g id="edge30_Node000018_Node000013" class="edge">
<title>Node18&#45;&gt;Node13</title>
<g id="a_edge30_Node000018_Node000013"><a xlink:title=" ">
<path fill="none" stroke="#63b8ff" d="M480.85,-187.86C462.34,-178.37 437.34,-164.84 416.5,-151 381.09,-127.49 342.61,-94.81 325.12,-79.52"/>
<polygon fill="#63b8ff" stroke="#63b8ff" points="479.39,-191.04 489.89,-192.43 482.55,-184.79 479.39,-191.04"/>
</a>
</g>
</g>
<!-- Node20&#45;&gt;Node4 -->
<g id="edge33_Node000020_Node000004" class="edge">
<title>Node20&#45;&gt;Node4</title>
<g id="a_edge33_Node000020_Node000004"><a xlink:title=" ">
<path fill="none" stroke="#63b8ff" d="M775.94,-189.24C736.67,-176.61 675.21,-156.85 640.23,-145.6"/>
<polygon fill="#63b8ff" stroke="#63b8ff" points="775.07,-192.64 785.66,-192.37 777.21,-185.98 775.07,-192.64"/>
</a>
</g>
</g>
<!-- Node20&#45;&gt;Node5 -->
<g id="edge34_Node000020_Node000005" class="edge">
<title>Node20&#45;&gt;Node5</title>
<g id="a_edge34_Node000020_Node000005"><a xlink:title=" ">
<path fill="none" stroke="#63b8ff" d="M863.89,-190.36C916.08,-179.55 997.14,-162.76 1054.37,-150.9"/>
<polygon fill="#63b8ff" stroke="#63b8ff" points="862.93,-186.98 853.85,-192.44 864.35,-193.83 862.93,-186.98"/>
</a>
</g>
</g>
<!-- Node20&#45;&gt;Node6 -->
<g id="edge35_Node000020_Node000006" class="edge">
<title>Node20&#45;&gt;Node6</title>
<g id="a_edge35_Node000020_Node000006"><a xlink:title=" ">
<path fill="none" stroke="#63b8ff" d="M761.05,-190.5C755.13,-189.31 749.19,-188.12 743.5,-187 660.03,-170.54 638.87,-167.96 555.5,-151 547.02,-149.27 537.92,-147.36 529.31,-145.51"/>
<polygon fill="#63b8ff" stroke="#63b8ff" points="760.42,-193.94 770.92,-192.49 761.81,-187.08 760.42,-193.94"/>
</a>
</g>
</g>
<!-- Node20&#45;&gt;Node7 -->
<g id="edge36_Node000020_Node000007" class="edge">
<title>Node20&#45;&gt;Node7</title>
<g id="a_edge36_Node000020_Node000007"><a xlink:title=" ">
<path fill="none" stroke="#63b8ff" d="M796.32,-185.33C776.4,-166.96 740.73,-137 704.5,-121 641.6,-93.22 563.16,-80.78 510.22,-75.28"/>
<polygon fill="#63b8ff" stroke="#63b8ff" points="794.17,-188.11 803.85,-192.41 798.97,-183.01 794.17,-188.11"/>
</a>
</g>
</g>
<!-- Node20&#45;&gt;Node8 -->
<g id="edge37_Node000020_Node000008" class="edge">
<title>Node20&#45;&gt;Node8</title>
<g id="a_edge37_Node000020_Node000008"><a xlink:title=" ">
<path fill="none" stroke="#63b8ff" d="M809.22,-182.4C805.21,-164.64 796.85,-138.12 780.5,-121 760.36,-99.91 729.66,-86.98 705.81,-79.57"/>
<polygon fill="#63b8ff" stroke="#63b8ff" points="805.82,-183.28 811.22,-192.39 812.69,-181.9 805.82,-183.28"/>
</a>
</g>
</g>
<!-- Node20&#45;&gt;Node9 -->
<g id="edge38_Node000020_Node000009" class="edge">
<title>Node20&#45;&gt;Node9</title>
<g id="a_edge38_Node000020_Node000009"><a xlink:title=" ">
<path fill="none" stroke="#63b8ff" d="M862.31,-189.73C889.1,-181.95 921.64,-169.6 946.5,-151 970.55,-133.01 989.5,-102.8 999.25,-85.1"/>
<polygon fill="#63b8ff" stroke="#63b8ff" points="861.06,-186.45 852.36,-192.49 862.93,-193.19 861.06,-186.45"/>
</a>
</g>
</g>
<!-- Node20&#45;&gt;Node10 -->
<g id="edge39_Node000020_Node000010" class="edge">
<title>Node20&#45;&gt;Node10</title>
<g id="a_edge39_Node000020_Node000010"><a xlink:title=" ">
<path fill="none" stroke="#63b8ff" d="M828.42,-185.33C841,-172.94 858.12,-156.09 868.46,-145.91"/>
<polygon fill="#63b8ff" stroke="#63b8ff" points="825.94,-182.86 821.27,-192.37 830.85,-187.85 825.94,-182.86"/>
</a>
</g>
</g>
<!-- Node20&#45;&gt;Node12 -->
<g id="edge40_Node000020_Node000012" class="edge">
<title>Node20&#45;&gt;Node12</title>
<g id="a_edge40_Node000020_Node000012"><a xlink:title=" ">
<path fill="none" stroke="#63b8ff" d="M874.62,-189.38C896.01,-182.08 917.77,-170.22 930.5,-151 937.86,-139.88 936.6,-132.86 930.5,-121 920.32,-101.21 898.27,-87.52 881.63,-79.53"/>
<polygon fill="#63b8ff" stroke="#63b8ff" points="873.35,-186.1 864.85,-192.42 875.43,-192.79 873.35,-186.1"/>
</a>
</g>
</g>
<!-- Node20&#45;&gt;Node13 -->
<g id="edge41_Node000020_Node000013" class="edge">
<title>Node20&#45;&gt;Node13</title>
<g id="a_edge41_Node000020_Node000013"><a xlink:title=" ">
<path fill="none" stroke="#63b8ff" d="M779.86,-188.79C757.74,-179.83 728.31,-166.54 704.5,-151 687.62,-139.98 688.87,-129.28 670.5,-121 552.5,-67.81 509.15,-106.45 381.5,-85 372.26,-83.45 362.35,-81.5 353.09,-79.55"/>
<polygon fill="#63b8ff" stroke="#63b8ff" points="778.57,-192.04 789.16,-192.47 781.15,-185.53 778.57,-192.04"/>
</a>
</g>
</g>
<!-- Node20&#45;&gt;Node14 -->
<g id="edge42_Node000020_Node000014" class="edge">
<title>Node20&#45;&gt;Node14</title>
<g id="a_edge42_Node000020_Node000014"><a xlink:title=" ">
<path fill="none" stroke="#63b8ff" d="M860.45,-189.97C893.4,-181.49 937.68,-168.29 974.5,-151 1030.56,-124.67 1117.62,-100.4 1075.5,-55 1039.51,-16.2 680.26,-11.02 539.57,-10.48"/>
<polygon fill="#63b8ff" stroke="#63b8ff" points="859.45,-186.61 850.6,-192.45 861.16,-193.4 859.45,-186.61"/>
</a>
</g>
</g>
<!-- Node21&#45;&gt;Node13 -->
<g id="edge45_Node000021_Node000013" class="edge">
<title>Node21&#45;&gt;Node13</title>
<g id="a_edge45_Node000021_Node000013"><a xlink:title=" ">
<path fill="none" stroke="#63b8ff" d="M194.23,-185.89C175.55,-169.38 152.12,-142.43 167.5,-121 180.07,-103.48 234.12,-88.44 273.27,-79.55"/>
<polygon fill="#63b8ff" stroke="#63b8ff" points="192.16,-188.73 202.07,-192.48 196.67,-183.37 192.16,-188.73"/>
</a>
</g>
</g>
<!-- Node22&#45;&gt;Node23 -->
<g id="edge47_Node000022_Node000023" class="edge">
<title>Node22&#45;&gt;Node23</title>
<g id="a_edge47_Node000022_Node000023"><a xlink:title=" ">
<path fill="none" stroke="#63b8ff" d="M63.04,-183.55C69.71,-171.36 78.33,-155.61 83.63,-145.91"/>
<polygon fill="#63b8ff" stroke="#63b8ff" points="59.95,-181.92 58.22,-192.37 66.09,-185.27 59.95,-181.92"/>
</a>
</g>
</g>
<!-- Node23&#45;&gt;Node14 -->
<g id="edge48_Node000023_Node000014" class="edge">
<title>Node23&#45;&gt;Node14</title>
<g id="a_edge48_Node000023_Node000014"><a xlink:title=" ">
<path fill="none" stroke="#63b8ff" d="M97.06,-117.44C107.25,-98.61 126.12,-69.48 151.5,-55 197.4,-28.81 345.47,-17.38 427.5,-12.95"/>
<polygon fill="#63b8ff" stroke="#63b8ff" points="93.89,-115.95 92.43,-126.45 100.12,-119.16 93.89,-115.95"/>
</a>
</g>
</g>
<!-- Node23&#45;&gt;Node17 -->
<g id="edge49_Node000023_Node000017" class="edge">
<title>Node23&#45;&gt;Node17</title>
<g id="a_edge49_Node000023_Node000017"><a xlink:title=" ">
<path fill="none" stroke="#63b8ff" d="M112.37,-121.36C134.42,-108.76 166.52,-90.42 185.28,-79.7"/>
<polygon fill="#63b8ff" stroke="#63b8ff" points="110.55,-118.37 103.6,-126.37 114.02,-124.45 110.55,-118.37"/>
</a>
</g>
</g>
</g>
</svg>
