<?xml version="1.0" encoding="UTF-8" standalone="no"?>
<!DOCTYPE svg PUBLIC "-//W3C//DTD SVG 1.1//EN"
 "http://www.w3.org/Graphics/SVG/1.1/DTD/svg11.dtd">
<!-- Generated by graphviz version 2.43.0 (0)
 -->
<!-- Title: async_impl.hpp Pages: 1 -->
<!--zoomable 335 -->

<svg id="main" version="1.1" xmlns="http://www.w3.org/2000/svg" xmlns:xlink="http://www.w3.org/1999/xlink" xml:space="preserve" onload="init(evt)">
<style type="text/css"><![CDATA[
.node, .edge {opacity: 0.7;}
.node.selected, .edge.selected {opacity: 1;}
.edge:hover path { stroke: red; }
.edge:hover polygon { stroke: red; fill: red; }
]]></style>

<defs>
  <circle id="rim" cx="0" cy="0" r="7"/>
  <circle id="rim2" cx="0" cy="0" r="3.5"/>
  <g id="zoomPlus">
    <use xlink:href="#rim" fill="#404040"><set attributeName="fill" to="#808080" begin="zoomplus.mouseover" end="zoomplus.mouseout"/></use>
    <path d="M-4,0h8M0,-4v8" fill="none" stroke="white" stroke-width="1.5" pointer-events="none"/>
  </g>
  <g id="zoomMin">
    <use xlink:href="#rim" fill="#404040"><set attributeName="fill" to="#808080" begin="zoomminus.mouseover" end="zoomminus.mouseout"/></use>
    <path d="M-4,0h8" fill="none" stroke="white" stroke-width="1.5" pointer-events="none"/>
  </g>
  <g id="arrowUp" transform="translate(30 24)">
    <use xlink:href="#rim"/>
    <path pointer-events="none" fill="none" stroke="white" stroke-width="1.5" d="M0,-3.0v7 M-2.5,-0.5L0,-3.0L2.5,-0.5"/>
  </g>
  <g id="arrowRight" transform="rotate(90) translate(36 -43)">
    <use xlink:href="#rim"/>
    <path pointer-events="none" fill="none" stroke="white" stroke-width="1.5" d="M0,-3.0v7 M-2.5,-0.5L0,-3.0L2.5,-0.5"/>
  </g>
  <g id="arrowDown" transform="rotate(180) translate(-30 -48)">
    <use xlink:href="#rim"/>
    <path pointer-events="none" fill="none" stroke="white" stroke-width="1.5" d="M0,-3.0v7 M-2.5,-0.5L0,-3.0L2.5,-0.5"/>
  </g>
  <g id="arrowLeft" transform="rotate(270) translate(-36 17)">
    <use xlink:href="#rim"/>
    <path pointer-events="none" fill="none" stroke="white" stroke-width="1.5" d="M0,-3.0v7 M-2.5,-0.5L0,-3.0L2.5,-0.5"/>
  </g>
  <g id="resetDef">
    <use xlink:href="#rim2" fill="#404040"><set attributeName="fill" to="#808080" begin="reset.mouseover" end="reset.mouseout"/></use>
  </g>
</defs>
<script type="application/ecmascript">
var viewWidth = 1259;
var viewHeight = 335;
var sectionId = 'dynsection-1';
</script>
<script type="application/ecmascript" xlink:href="svg.min.js"/>
<svg id="graph" class="graph">
<g id="viewport">
<title>async_impl.hpp</title>
<!-- Node1 -->
<g id="Node000001" class="node">
<title>Node1</title>
<g id="a_Node000001"><a xlink:title="Inline implementation of Async&lt;T&gt; helpers and task await transforms.">
<polygon fill="#999999" stroke="#666666" points="352.68,-327 259.68,-327 259.68,-308 352.68,-308 352.68,-327"/>
<text text-anchor="middle" x="306.18" y="-315" font-family="Helvetica,sans-Serif" font-size="10.00">async_impl.hpp</text>
</a>
</g>
</g>
<!-- Node2 -->
<g id="Node000002" class="node">
<title>Node2</title>
<g id="a_Node000002"><a xlink:href="async_8hpp.html" target="_top" xlink:title="The Async&lt;T&gt; container: coroutine‐safe asynchronous read/write.">
<polygon fill="white" stroke="#666666" points="687.18,-272 621.18,-272 621.18,-253 687.18,-253 687.18,-272"/>
<text text-anchor="middle" x="654.18" y="-260" font-family="Helvetica,sans-Serif" font-size="10.00">async.hpp</text>
</a>
</g>
</g>
<!-- Node1&#45;&gt;Node2 -->
<g id="edge1_Node000001_Node000002" class="edge">
<title>Node1&#45;&gt;Node2</title>
<g id="a_edge1_Node000001_Node000002"><a xlink:title=" ">
<path fill="none" stroke="#63b8ff" d="M362.73,-307.89C436,-296.73 561.37,-277.64 620.91,-268.57"/>
<polygon fill="#63b8ff" stroke="#63b8ff" points="362.11,-304.44 352.76,-309.41 363.17,-311.36 362.11,-304.44"/>
</a>
</g>
</g>
<!-- Node3 -->
<g id="Node000003" class="node">
<title>Node3</title>
<g id="a_Node000003"><a xlink:href="ad__example_8cpp.html" target="_top" xlink:title=" ">
<polygon fill="white" stroke="#666666" points="884.68,-145.5 787.68,-145.5 787.68,-126.5 884.68,-126.5 884.68,-145.5"/>
<text text-anchor="middle" x="836.18" y="-133.5" font-family="Helvetica,sans-Serif" font-size="10.00">ad_example.cpp</text>
</a>
</g>
</g>
<!-- Node2&#45;&gt;Node3 -->
<g id="edge2_Node000002_Node000003" class="edge">
<title>Node2&#45;&gt;Node3</title>
<g id="a_edge2_Node000002_Node000003"><a xlink:title=" ">
<path fill="none" stroke="#63b8ff" d="M697.68,-261.3C734.54,-258.73 786.19,-249.05 817.18,-217 836.24,-197.3 837.4,-162.15 836.79,-145.81"/>
<polygon fill="#63b8ff" stroke="#63b8ff" points="697.03,-257.83 687.24,-261.87 697.41,-264.82 697.03,-257.83"/>
</a>
</g>
</g>
<!-- Node4 -->
<g id="Node000004" class="node">
<title>Node4</title>
<g id="a_Node000004"><a xlink:href="async__buffer__semantics__example_8cpp.html" target="_top" xlink:title=" ">
<polygon fill="white" stroke="#666666" points="225.18,-151 91.18,-151 91.18,-121 225.18,-121 225.18,-151"/>
<text text-anchor="start" x="99.18" y="-139" font-family="Helvetica,sans-Serif" font-size="10.00">async_buffer_semantics</text>
<text text-anchor="middle" x="158.18" y="-128" font-family="Helvetica,sans-Serif" font-size="10.00">_example.cpp</text>
</a>
</g>
</g>
<!-- Node2&#45;&gt;Node4 -->
<g id="edge3_Node000002_Node000004" class="edge">
<title>Node2&#45;&gt;Node4</title>
<g id="a_edge3_Node000002_Node000004"><a xlink:title=" ">
<path fill="none" stroke="#63b8ff" d="M610.67,-259.92C546.83,-256.65 424.57,-246.72 325.18,-217 271.28,-200.88 213.04,-169.42 181.57,-151.12"/>
<polygon fill="#63b8ff" stroke="#63b8ff" points="610.62,-263.42 620.78,-260.41 610.96,-256.43 610.62,-263.42"/>
</a>
</g>
</g>
<!-- Node5 -->
<g id="Node000005" class="node">
<title>Node5</title>
<g id="a_Node000005"><a xlink:href="async__example_8cpp.html" target="_top" xlink:title=" ">
<polygon fill="white" stroke="#666666" points="692.68,-145.5 579.68,-145.5 579.68,-126.5 692.68,-126.5 692.68,-145.5"/>
<text text-anchor="middle" x="636.18" y="-133.5" font-family="Helvetica,sans-Serif" font-size="10.00">async_example.cpp</text>
</a>
</g>
</g>
<!-- Node2&#45;&gt;Node5 -->
<g id="edge4_Node000002_Node000005" class="edge">
<title>Node2&#45;&gt;Node5</title>
<g id="a_edge4_Node000002_Node000005"><a xlink:title=" ">
<path fill="none" stroke="#63b8ff" d="M650.62,-242.94C649.15,-234.97 647.48,-225.54 646.18,-217 642.26,-191.26 638.76,-160.69 637.14,-145.9"/>
<polygon fill="#63b8ff" stroke="#63b8ff" points="647.22,-243.81 652.51,-252.99 654.1,-242.52 647.22,-243.81"/>
</a>
</g>
</g>
<!-- Node6 -->
<g id="Node000006" class="node">
<title>Node6</title>
<g id="a_Node000006"><a xlink:href="async__example2_8cpp.html" target="_top" xlink:title=" ">
<polygon fill="white" stroke="#666666" points="656.68,-79.5 537.68,-79.5 537.68,-60.5 656.68,-60.5 656.68,-79.5"/>
<text text-anchor="middle" x="597.18" y="-67.5" font-family="Helvetica,sans-Serif" font-size="10.00">async_example2.cpp</text>
</a>
</g>
</g>
<!-- Node2&#45;&gt;Node6 -->
<g id="edge5_Node000002_Node000006" class="edge">
<title>Node2&#45;&gt;Node6</title>
<g id="a_edge5_Node000002_Node000006"><a xlink:title=" ">
<path fill="none" stroke="#63b8ff" d="M610.96,-260.6C488.03,-256.99 141.5,-239.02 82.18,-151 12.23,-47.21 -186.23,-159.06 490.18,-85 505.55,-83.32 522.12,-81.27 537.53,-79.26"/>
<polygon fill="#63b8ff" stroke="#63b8ff" points="611.03,-264.11 621.12,-260.88 611.22,-257.11 611.03,-264.11"/>
</a>
</g>
</g>
<!-- Node7 -->
<g id="Node000007" class="node">
<title>Node7</title>
<g id="a_Node000007"><a xlink:href="async__fib__example_8cpp.html" target="_top" xlink:title=" ">
<polygon fill="white" stroke="#666666" points="342.68,-79.5 211.68,-79.5 211.68,-60.5 342.68,-60.5 342.68,-79.5"/>
<text text-anchor="middle" x="277.18" y="-67.5" font-family="Helvetica,sans-Serif" font-size="10.00">async_fib_example.cpp</text>
</a>
</g>
</g>
<!-- Node2&#45;&gt;Node7 -->
<g id="edge6_Node000002_Node000007" class="edge">
<title>Node2&#45;&gt;Node7</title>
<g id="a_edge6_Node000002_Node000007"><a xlink:title=" ">
<path fill="none" stroke="#63b8ff" d="M610.64,-260.73C482.83,-258.12 114.89,-247.97 71.18,-217 34.82,-191.23 14.14,-155.64 42.18,-121 63.15,-95.11 149.46,-82.06 211.4,-75.91"/>
<polygon fill="#63b8ff" stroke="#63b8ff" points="610.77,-264.23 620.84,-260.93 610.91,-257.24 610.77,-264.23"/>
</a>
</g>
</g>
<!-- Node8 -->
<g id="Node000008" class="node">
<title>Node8</title>
<g id="a_Node000008"><a xlink:href="async__kernel__shapes__example_8cpp.html" target="_top" xlink:title=" ">
<polygon fill="white" stroke="#666666" points="481.18,-85 361.18,-85 361.18,-55 481.18,-55 481.18,-85"/>
<text text-anchor="start" x="369.18" y="-73" font-family="Helvetica,sans-Serif" font-size="10.00">async_kernel_shapes</text>
<text text-anchor="middle" x="421.18" y="-62" font-family="Helvetica,sans-Serif" font-size="10.00">_example.cpp</text>
</a>
</g>
</g>
<!-- Node2&#45;&gt;Node8 -->
<g id="edge7_Node000002_Node000008" class="edge">
<title>Node2&#45;&gt;Node8</title>
<g id="a_edge7_Node000002_Node000008"><a xlink:title=" ">
<path fill="none" stroke="#63b8ff" d="M610.99,-261.32C501.05,-260.3 213.19,-254.08 126.18,-217 85.34,-199.59 69.47,-191.46 51.18,-151 14.01,-68.77 183.84,-112.1 352.18,-85 355.08,-84.53 358.04,-84.03 361.03,-83.51"/>
<polygon fill="#63b8ff" stroke="#63b8ff" points="611.03,-264.82 621.06,-261.4 611.09,-257.82 611.03,-264.82"/>
</a>
</g>
</g>
<!-- Node9 -->
<g id="Node000009" class="node">
<title>Node9</title>
<g id="a_Node000009"><a xlink:href="async__ops_8hpp.html" target="_top" xlink:title="Concepts and helpers for composing Async expressions.">
<polygon fill="white" stroke="#666666" points="446.68,-145.5 357.68,-145.5 357.68,-126.5 446.68,-126.5 446.68,-145.5"/>
<text text-anchor="middle" x="402.18" y="-133.5" font-family="Helvetica,sans-Serif" font-size="10.00">async_ops.hpp</text>
</a>
</g>
</g>
<!-- Node2&#45;&gt;Node9 -->
<g id="edge8_Node000002_Node000009" class="edge">
<title>Node2&#45;&gt;Node9</title>
<g id="a_edge8_Node000002_Node000009"><a xlink:title=" ">
<path fill="none" stroke="#63b8ff" d="M611.1,-262.14C532.45,-262.29 370.45,-257.52 335.18,-217 312.94,-191.44 358.95,-160.54 385.36,-145.73"/>
<polygon fill="#63b8ff" stroke="#63b8ff" points="611.19,-265.64 621.17,-262.09 611.15,-258.64 611.19,-265.64"/>
</a>
</g>
</g>
<!-- Node10 -->
<g id="Node000010" class="node">
<title>Node10</title>
<g id="a_Node000010"><a xlink:href="async__ops__example_8cpp.html" target="_top" xlink:title=" ">
<polygon fill="white" stroke="#666666" points="811.18,-79.5 675.18,-79.5 675.18,-60.5 811.18,-60.5 811.18,-79.5"/>
<text text-anchor="middle" x="743.18" y="-67.5" font-family="Helvetica,sans-Serif" font-size="10.00">async_ops_example.cpp</text>
</a>
</g>
</g>
<!-- Node2&#45;&gt;Node10 -->
<g id="edge16_Node000002_Node000010" class="edge">
<title>Node2&#45;&gt;Node10</title>
<g id="a_edge16_Node000002_Node000010"><a xlink:title=" ">
<path fill="none" stroke="#63b8ff" d="M697.5,-258.64C736.75,-254.36 794.9,-243.67 838.18,-217 870.93,-196.82 880.93,-187.11 894.18,-151 898.78,-138.48 901.99,-131.81 894.18,-121 881.37,-103.26 826.54,-88.32 786.63,-79.51"/>
<polygon fill="#63b8ff" stroke="#63b8ff" points="697.06,-255.16 687.45,-259.64 697.75,-262.13 697.06,-255.16"/>
</a>
</g>
</g>
<!-- Node11 -->
<g id="Node000011" class="node">
<title>Node11</title>
<g id="a_Node000011"><a xlink:href="future__example_8cpp.html" target="_top" xlink:title=" ">
<polygon fill="white" stroke="#666666" points="943.18,-79.5 829.18,-79.5 829.18,-60.5 943.18,-60.5 943.18,-79.5"/>
<text text-anchor="middle" x="886.18" y="-67.5" font-family="Helvetica,sans-Serif" font-size="10.00">future_example.cpp</text>
</a>
</g>
</g>
<!-- Node2&#45;&gt;Node11 -->
<g id="edge41_Node000002_Node000011" class="edge">
<title>Node2&#45;&gt;Node11</title>
<g id="a_edge41_Node000002_Node000011"><a xlink:title=" ">
<path fill="none" stroke="#63b8ff" d="M697.37,-260.2C800.58,-256.65 1054.86,-245.11 1080.18,-217 1099.71,-195.33 1072.21,-133.68 1059.18,-121 1049.27,-111.35 970.36,-91.14 922.61,-79.59"/>
<polygon fill="#63b8ff" stroke="#63b8ff" points="697.17,-256.7 687.29,-260.54 697.4,-263.7 697.17,-256.7"/>
</a>
</g>
</g>
<!-- Node13 -->
<g id="Node000013" class="node">
<title>Node13</title>
<g id="a_Node000013"><a xlink:href="async__tbb__reduction__example_8cpp.html" target="_top" xlink:title="Example of using uni20 coroutines with the TbbScheduler to parallelize a map–reduce computation.">
<polygon fill="white" stroke="#666666" points="597.68,-217 480.68,-217 480.68,-187 597.68,-187 597.68,-217"/>
<text text-anchor="start" x="488.68" y="-205" font-family="Helvetica,sans-Serif" font-size="10.00">async_tbb_reduction</text>
<text text-anchor="middle" x="539.18" y="-194" font-family="Helvetica,sans-Serif" font-size="10.00">_example.cpp</text>
</a>
</g>
</g>
<!-- Node2&#45;&gt;Node13 -->
<g id="edge17_Node000002_Node000013" class="edge">
<title>Node2&#45;&gt;Node13</title>
<g id="a_edge17_Node000002_Node000013"><a xlink:title=" ">
<path fill="none" stroke="#63b8ff" d="M628.29,-248.33C610.03,-239.04 585.59,-226.61 566.93,-217.11"/>
<polygon fill="#63b8ff" stroke="#63b8ff" points="626.71,-251.45 637.21,-252.87 629.89,-245.21 626.71,-251.45"/>
</a>
</g>
</g>
<!-- Node14 -->
<g id="Node000014" class="node">
<title>Node14</title>
<g id="a_Node000014"><a xlink:href="async__toys_8hpp.html" target="_top" xlink:title="Small async helper operations used in tests and examples.">
<polygon fill="white" stroke="#666666" points="1033.18,-145.5 941.18,-145.5 941.18,-126.5 1033.18,-126.5 1033.18,-145.5"/>
<text text-anchor="middle" x="987.18" y="-133.5" font-family="Helvetica,sans-Serif" font-size="10.00">async_toys.hpp</text>
</a>
</g>
</g>
<!-- Node2&#45;&gt;Node14 -->
<g id="edge18_Node000002_Node000014" class="edge">
<title>Node2&#45;&gt;Node14</title>
<g id="a_edge18_Node000002_Node000014"><a xlink:title=" ">
<path fill="none" stroke="#63b8ff" d="M697.67,-257.83C762.83,-251.73 882.1,-238.05 919.18,-217 949.94,-199.54 973.13,-162.6 982.56,-145.73"/>
<polygon fill="#63b8ff" stroke="#63b8ff" points="696.96,-254.38 687.32,-258.78 697.6,-261.35 696.96,-254.38"/>
</a>
</g>
</g>
<!-- Node16 -->
<g id="Node000016" class="node">
<title>Node16</title>
<g id="a_Node000016"><a xlink:href="awaiters_8hpp.html" target="_top" xlink:title="Utilities for awaiting on Async&lt;T&gt;: co_await overload, all(), try_await().">
<polygon fill="white" stroke="#666666" points="808.18,-211.5 728.18,-211.5 728.18,-192.5 808.18,-192.5 808.18,-211.5"/>
<text text-anchor="middle" x="768.18" y="-199.5" font-family="Helvetica,sans-Serif" font-size="10.00">awaiters.hpp</text>
</a>
</g>
</g>
<!-- Node2&#45;&gt;Node16 -->
<g id="edge23_Node000002_Node000016" class="edge">
<title>Node2&#45;&gt;Node16</title>
<g id="a_edge23_Node000002_Node000016"><a xlink:title=" ">
<path fill="none" stroke="#63b8ff" d="M680.05,-248.23C701.88,-237.03 732.49,-221.32 751.29,-211.67"/>
<polygon fill="#63b8ff" stroke="#63b8ff" points="678.3,-245.19 671,-252.87 681.5,-251.42 678.3,-245.19"/>
</a>
</g>
</g>
<!-- Node17 -->
<g id="Node000017" class="node">
<title>Node17</title>
<g id="a_Node000017"><a xlink:href="bug_8cpp.html" target="_top" xlink:title=" ">
<polygon fill="white" stroke="#666666" points="709.68,-211.5 654.68,-211.5 654.68,-192.5 709.68,-192.5 709.68,-211.5"/>
<text text-anchor="middle" x="682.18" y="-199.5" font-family="Helvetica,sans-Serif" font-size="10.00">bug.cpp</text>
</a>
</g>
</g>
<!-- Node2&#45;&gt;Node17 -->
<g id="edge29_Node000002_Node000017" class="edge">
<title>Node2&#45;&gt;Node17</title>
<g id="a_edge29_Node000002_Node000017"><a xlink:title=" ">
<path fill="none" stroke="#63b8ff" d="M662.73,-243.65C667.8,-233.04 674.02,-220.06 678.03,-211.67"/>
<polygon fill="#63b8ff" stroke="#63b8ff" points="659.48,-242.34 658.31,-252.87 665.79,-245.36 659.48,-242.34"/>
</a>
</g>
</g>
<!-- Node18 -->
<g id="Node000018" class="node">
<title>Node18</title>
<g id="a_Node000018"><a xlink:href="debug__scheduler_8hpp.html" target="_top" xlink:title="Coroutine scheduler for AsyncTask.">
<polygon fill="white" stroke="#666666" points="462.68,-211.5 343.68,-211.5 343.68,-192.5 462.68,-192.5 462.68,-211.5"/>
<text text-anchor="middle" x="403.18" y="-199.5" font-family="Helvetica,sans-Serif" font-size="10.00">debug_scheduler.hpp</text>
</a>
</g>
</g>
<!-- Node2&#45;&gt;Node18 -->
<g id="edge30_Node000002_Node000018" class="edge">
<title>Node2&#45;&gt;Node18</title>
<g id="a_edge30_Node000002_Node000018"><a xlink:title=" ">
<path fill="none" stroke="#63b8ff" d="M611.29,-251.5C563.07,-240.26 485.58,-222.2 440,-211.58"/>
<polygon fill="#63b8ff" stroke="#63b8ff" points="610.58,-254.93 621.11,-253.79 612.17,-248.11 610.58,-254.93"/>
</a>
</g>
</g>
<!-- Node19 -->
<g id="Node000019" class="node">
<title>Node19</title>
<g id="a_Node000019"><a xlink:href="future__value_8hpp.html" target="_top" xlink:title="Write&#45;once async wrappers (FutureValue and Defer) built on Async&lt;T&gt;.">
<polygon fill="white" stroke="#666666" points="1070.68,-211.5 971.68,-211.5 971.68,-192.5 1070.68,-192.5 1070.68,-211.5"/>
<text text-anchor="middle" x="1021.18" y="-199.5" font-family="Helvetica,sans-Serif" font-size="10.00">future_value.hpp</text>
</a>
</g>
</g>
<!-- Node2&#45;&gt;Node19 -->
<g id="edge42_Node000002_Node000019" class="edge">
<title>Node2&#45;&gt;Node19</title>
<g id="a_edge42_Node000002_Node000019"><a xlink:title=" ">
<path fill="none" stroke="#63b8ff" d="M697.55,-256.09C756.51,-248.53 865.16,-233.8 957.18,-217 966.02,-215.39 975.5,-213.44 984.38,-211.51"/>
<polygon fill="#63b8ff" stroke="#63b8ff" points="696.96,-252.64 687.49,-257.38 697.85,-259.59 696.96,-252.64"/>
</a>
</g>
</g>
<!-- Node20 -->
<g id="Node000020" class="node">
<title>Node20</title>
<g id="a_Node000020"><a xlink:href="reverse__value_8hpp.html" target="_top" xlink:title="Reverse&#45;mode gradient accumulation channel built on reverse epoch queues.">
<polygon fill="white" stroke="#666666" points="1234.68,-211.5 1127.68,-211.5 1127.68,-192.5 1234.68,-192.5 1234.68,-211.5"/>
<text text-anchor="middle" x="1181.18" y="-199.5" font-family="Helvetica,sans-Serif" font-size="10.00">reverse_value.hpp</text>
</a>
</g>
</g>
<!-- Node2&#45;&gt;Node20 -->
<g id="edge44_Node000002_Node000020" class="edge">
<title>Node2&#45;&gt;Node20</title>
<g id="a_edge44_Node000002_Node000020"><a xlink:title=" ">
<path fill="none" stroke="#63b8ff" d="M697.86,-258.82C779.67,-253.46 961.47,-239.91 1113.18,-217 1122.96,-215.52 1133.45,-213.56 1143.19,-211.57"/>
<polygon fill="#63b8ff" stroke="#63b8ff" points="697.21,-255.35 687.45,-259.49 697.66,-262.34 697.21,-255.35"/>
</a>
</g>
</g>
<!-- Node21 -->
<g id="Node000021" class="node">
<title>Node21</title>
<g id="a_Node000021"><a xlink:href="var_8hpp.html" target="_top" xlink:title=" ">
<polygon fill="white" stroke="#666666" points="1194.68,-145.5 1141.68,-145.5 1141.68,-126.5 1194.68,-126.5 1194.68,-145.5"/>
<text text-anchor="middle" x="1168.18" y="-133.5" font-family="Helvetica,sans-Serif" font-size="10.00">var.hpp</text>
</a>
</g>
</g>
<!-- Node2&#45;&gt;Node21 -->
<g id="edge48_Node000002_Node000021" class="edge">
<title>Node2&#45;&gt;Node21</title>
<g id="a_edge48_Node000002_Node000021"><a xlink:title=" ">
<path fill="none" stroke="#63b8ff" d="M697.57,-261.54C827.57,-261.23 1207.2,-256.88 1244.18,-217 1268.54,-190.73 1216.76,-160.15 1187.08,-145.58"/>
<polygon fill="#63b8ff" stroke="#63b8ff" points="697.21,-258.05 687.22,-261.56 697.22,-265.05 697.21,-258.05"/>
</a>
</g>
</g>
<!-- Node9&#45;&gt;Node1 -->
<g id="edge11_Node000009_Node000001" class="edge">
<title>Node9&#45;&gt;Node1</title>
<g id="a_edge11_Node000009_Node000001"><a xlink:title=" ">
<path fill="none" stroke="#63b8ff" d="M370.28,-149.96C354.17,-158.17 335.83,-170.4 325.18,-187 300.03,-226.21 302.98,-285.67 305.15,-307.8"/>
<polygon fill="#63b8ff" stroke="#63b8ff" points="371.92,-153.05 379.43,-145.59 368.9,-146.74 371.92,-153.05"/>
</a>
</g>
</g>
<!-- Node9&#45;&gt;Node6 -->
<g id="edge9_Node000009_Node000006" class="edge">
<title>Node9&#45;&gt;Node6</title>
<g id="a_edge9_Node000009_Node000006"><a xlink:title=" ">
<path fill="none" stroke="#63b8ff" d="M438.25,-123.16C476.74,-110.53 536.78,-90.82 570.99,-79.6"/>
<polygon fill="#63b8ff" stroke="#63b8ff" points="436.89,-119.92 428.48,-126.37 439.07,-126.58 436.89,-119.92"/>
</a>
</g>
</g>
<!-- Node9&#45;&gt;Node7 -->
<g id="edge10_Node000009_Node000007" class="edge">
<title>Node9&#45;&gt;Node7</title>
<g id="a_edge10_Node000009_Node000007"><a xlink:title=" ">
<path fill="none" stroke="#63b8ff" d="M376.2,-121.69C351.57,-109.09 315.3,-90.51 294.17,-79.7"/>
<polygon fill="#63b8ff" stroke="#63b8ff" points="374.83,-124.93 385.33,-126.37 378.02,-118.7 374.83,-124.93"/>
</a>
</g>
</g>
<!-- Node9&#45;&gt;Node8 -->
<g id="edge12_Node000009_Node000008" class="edge">
<title>Node9&#45;&gt;Node8</title>
<g id="a_edge12_Node000009_Node000008"><a xlink:title=" ">
<path fill="none" stroke="#63b8ff" d="M407.63,-116.67C410.58,-106.72 414.17,-94.61 416.92,-85.36"/>
<polygon fill="#63b8ff" stroke="#63b8ff" points="404.24,-115.79 404.75,-126.37 410.95,-117.78 404.24,-115.79"/>
</a>
</g>
</g>
<!-- Node9&#45;&gt;Node10 -->
<g id="edge13_Node000009_Node000010" class="edge">
<title>Node9&#45;&gt;Node10</title>
<g id="a_edge13_Node000009_Node000010"><a xlink:title=" ">
<path fill="none" stroke="#63b8ff" d="M456.68,-124.77C523.47,-112.24 635.43,-91.22 697.78,-79.52"/>
<polygon fill="#63b8ff" stroke="#63b8ff" points="455.95,-121.35 446.76,-126.63 457.24,-128.23 455.95,-121.35"/>
</a>
</g>
</g>
<!-- Node9&#45;&gt;Node11 -->
<g id="edge14_Node000009_Node000011" class="edge">
<title>Node9&#45;&gt;Node11</title>
<g id="a_edge14_Node000009_Node000011"><a xlink:title=" ">
<path fill="none" stroke="#63b8ff" d="M457.07,-129.06C553.96,-118.46 751.57,-96.36 820.18,-85 829.54,-83.45 839.59,-81.48 848.95,-79.51"/>
<polygon fill="#63b8ff" stroke="#63b8ff" points="456.45,-125.6 446.89,-130.17 457.21,-132.56 456.45,-125.6"/>
</a>
</g>
</g>
<!-- Node12 -->
<g id="Node000012" class="node">
<title>Node12</title>
<g id="a_Node000012"><a xlink:href="gradient__solver_8cpp.html" target="_top" xlink:title=" ">
<polygon fill="white" stroke="#666666" points="811.18,-19 699.18,-19 699.18,0 811.18,0 811.18,-19"/>
<text text-anchor="middle" x="755.18" y="-7" font-family="Helvetica,sans-Serif" font-size="10.00">gradient_solver.cpp</text>
</a>
</g>
</g>
<!-- Node9&#45;&gt;Node12 -->
<g id="edge15_Node000009_Node000012" class="edge">
<title>Node9&#45;&gt;Node12</title>
<g id="a_edge15_Node000009_Node000012"><a xlink:title=" ">
<path fill="none" stroke="#63b8ff" d="M428.02,-121.55C445.86,-111.97 469.93,-98.45 490.18,-85 508.4,-72.9 509.26,-64.02 529.18,-55 583.83,-30.26 652.03,-19.24 699.14,-14.35"/>
<polygon fill="#63b8ff" stroke="#63b8ff" points="426,-118.66 418.81,-126.45 429.28,-124.84 426,-118.66"/>
</a>
</g>
</g>
<!-- Node14&#45;&gt;Node6 -->
<g id="edge19_Node000014_Node000006" class="edge">
<title>Node14&#45;&gt;Node6</title>
<g id="a_edge19_Node000014_Node000006"><a xlink:title=" ">
<path fill="none" stroke="#63b8ff" d="M930.97,-126.56C852.96,-114.79 715.86,-93.9 666.18,-85 656.92,-83.34 646.99,-81.41 637.62,-79.53"/>
<polygon fill="#63b8ff" stroke="#63b8ff" points="930.7,-130.06 941.11,-128.09 931.74,-123.14 930.7,-130.06"/>
</a>
</g>
</g>
<!-- Node14&#45;&gt;Node11 -->
<g id="edge20_Node000014_Node000011" class="edge">
<title>Node14&#45;&gt;Node11</title>
<g id="a_edge20_Node000014_Node000011"><a xlink:title=" ">
<path fill="none" stroke="#63b8ff" d="M964.85,-120.85C945,-108.27 916.6,-90.28 899.91,-79.7"/>
<polygon fill="#63b8ff" stroke="#63b8ff" points="963.24,-123.97 973.56,-126.37 966.99,-118.06 963.24,-123.97"/>
</a>
</g>
</g>
<!-- Node15 -->
<g id="Node000015" class="node">
<title>Node15</title>
<g id="a_Node000015"><a xlink:href="var__toys_8hpp.html" target="_top" xlink:title="Demonstration reverse&#45;mode helpers built on Var&lt;T&gt;.">
<polygon fill="white" stroke="#666666" points="1041.18,-79.5 961.18,-79.5 961.18,-60.5 1041.18,-60.5 1041.18,-79.5"/>
<text text-anchor="middle" x="1001.18" y="-67.5" font-family="Helvetica,sans-Serif" font-size="10.00">var_toys.hpp</text>
</a>
</g>
</g>
<!-- Node14&#45;&gt;Node15 -->
<g id="edge21_Node000014_Node000015" class="edge">
<title>Node14&#45;&gt;Node15</title>
<g id="a_edge21_Node000014_Node000015"><a xlink:title=" ">
<path fill="none" stroke="#63b8ff" d="M991.24,-116.45C993.87,-104.43 997.18,-89.32 999.24,-79.91"/>
<polygon fill="#63b8ff" stroke="#63b8ff" points="987.79,-115.85 989.07,-126.37 994.63,-117.35 987.79,-115.85"/>
</a>
</g>
</g>
<!-- Node15&#45;&gt;Node12 -->
<g id="edge22_Node000015_Node000012" class="edge">
<title>Node15&#45;&gt;Node12</title>
<g id="a_edge22_Node000015_Node000012"><a xlink:title=" ">
<path fill="none" stroke="#63b8ff" d="M962.5,-57.73C959.02,-56.78 955.54,-55.86 952.18,-55 898.51,-41.28 836.05,-27.55 796.09,-19.04"/>
<polygon fill="#63b8ff" stroke="#63b8ff" points="961.66,-61.13 972.24,-60.44 963.54,-54.39 961.66,-61.13"/>
</a>
</g>
</g>
<!-- Node16&#45;&gt;Node3 -->
<g id="edge24_Node000016_Node000003" class="edge">
<title>Node16&#45;&gt;Node3</title>
<g id="a_edge24_Node000016_Node000003"><a xlink:title=" ">
<path fill="none" stroke="#63b8ff" d="M784.83,-185.33C798,-172.94 815.91,-156.09 826.72,-145.91"/>
<polygon fill="#63b8ff" stroke="#63b8ff" points="782.24,-182.97 777.35,-192.37 787.03,-188.06 782.24,-182.97"/>
</a>
</g>
</g>
<!-- Node16&#45;&gt;Node5 -->
<g id="edge25_Node000016_Node000005" class="edge">
<title>Node16&#45;&gt;Node5</title>
<g id="a_edge25_Node000016_Node000005"><a xlink:title=" ">
<path fill="none" stroke="#63b8ff" d="M741.09,-187.86C715.08,-175.25 676.53,-156.56 654.13,-145.7"/>
<polygon fill="#63b8ff" stroke="#63b8ff" points="739.86,-191.16 750.38,-192.37 742.91,-184.86 739.86,-191.16"/>
</a>
</g>
</g>
<!-- Node16&#45;&gt;Node6 -->
<g id="edge26_Node000016_Node000006" class="edge">
<title>Node16&#45;&gt;Node6</title>
<g id="a_edge26_Node000016_Node000006"><a xlink:title=" ">
<path fill="none" stroke="#63b8ff" d="M757.32,-183.82C745.5,-166.22 725.18,-138.95 702.18,-121 677.83,-101.99 645.08,-87.85 622.67,-79.54"/>
<polygon fill="#63b8ff" stroke="#63b8ff" points="754.58,-186.03 762.98,-192.49 760.45,-182.2 754.58,-186.03"/>
</a>
</g>
</g>
<!-- Node16&#45;&gt;Node9 -->
<g id="edge27_Node000016_Node000009" class="edge">
<title>Node16&#45;&gt;Node9</title>
<g id="a_edge27_Node000016_Node000009"><a xlink:title=" ">
<path fill="none" stroke="#63b8ff" d="M730.93,-189.85C726.98,-188.82 723.01,-187.85 719.18,-187 623.02,-165.76 508.54,-150.02 446.87,-142.3"/>
<polygon fill="#63b8ff" stroke="#63b8ff" points="730.04,-193.23 740.61,-192.48 731.88,-186.48 730.04,-193.23"/>
</a>
</g>
</g>
<!-- Node16&#45;&gt;Node11 -->
<g id="edge28_Node000016_Node000011" class="edge">
<title>Node16&#45;&gt;Node11</title>
<g id="a_edge28_Node000016_Node000011"><a xlink:title=" ">
<path fill="none" stroke="#63b8ff" d="M765.98,-182.2C764.95,-164.69 766.15,-138.68 779.18,-121 795.18,-99.29 822.98,-86.7 846.23,-79.57"/>
<polygon fill="#63b8ff" stroke="#63b8ff" points="762.51,-182.66 766.88,-192.32 769.48,-182.05 762.51,-182.66"/>
</a>
</g>
</g>
<!-- Node18&#45;&gt;Node3 -->
<g id="edge31_Node000018_Node000003" class="edge">
<title>Node18&#45;&gt;Node3</title>
<g id="a_edge31_Node000018_Node000003"><a xlink:title=" ">
<path fill="none" stroke="#63b8ff" d="M452.92,-190.52C459.39,-189.27 465.94,-188.06 472.18,-187 584.59,-167.9 717.49,-151.09 787.46,-142.69"/>
<polygon fill="#63b8ff" stroke="#63b8ff" points="452.01,-187.13 442.87,-192.5 453.36,-194 452.01,-187.13"/>
</a>
</g>
</g>
<!-- Node18&#45;&gt;Node4 -->
<g id="edge32_Node000018_Node000004" class="edge">
<title>Node18&#45;&gt;Node4</title>
<g id="a_edge32_Node000018_Node000004"><a xlink:title=" ">
<path fill="none" stroke="#63b8ff" d="M360.65,-189.89C319.37,-179.1 256.57,-162.7 211.87,-151.02"/>
<polygon fill="#63b8ff" stroke="#63b8ff" points="359.84,-193.29 370.4,-192.44 361.61,-186.52 359.84,-193.29"/>
</a>
</g>
</g>
<!-- Node18&#45;&gt;Node5 -->
<g id="edge33_Node000018_Node000005" class="edge">
<title>Node18&#45;&gt;Node5</title>
<g id="a_edge33_Node000018_Node000005"><a xlink:title=" ">
<path fill="none" stroke="#63b8ff" d="M444.53,-189.64C490.43,-177.03 563.49,-156.97 604.89,-145.6"/>
<polygon fill="#63b8ff" stroke="#63b8ff" points="443.32,-186.34 434.61,-192.37 445.18,-193.09 443.32,-186.34"/>
</a>
</g>
</g>
<!-- Node18&#45;&gt;Node6 -->
<g id="edge34_Node000018_Node000006" class="edge">
<title>Node18&#45;&gt;Node6</title>
<g id="a_edge34_Node000018_Node000006"><a xlink:title=" ">
<path fill="none" stroke="#63b8ff" d="M419.7,-185.26C438.15,-168.17 469.35,-140.69 499.18,-121 524.85,-104.06 556.99,-88.65 577.32,-79.55"/>
<polygon fill="#63b8ff" stroke="#63b8ff" points="417.08,-182.92 412.18,-192.32 421.87,-188.03 417.08,-182.92"/>
</a>
</g>
</g>
<!-- Node18&#45;&gt;Node7 -->
<g id="edge35_Node000018_Node000007" class="edge">
<title>Node18&#45;&gt;Node7</title>
<g id="a_edge35_Node000018_Node000007"><a xlink:title=" ">
<path fill="none" stroke="#63b8ff" d="M382.21,-186.28C369.44,-176.87 353.16,-164.02 340.18,-151 316.73,-127.45 293.75,-95.35 283.19,-79.95"/>
<polygon fill="#63b8ff" stroke="#63b8ff" points="380.24,-189.18 390.4,-192.21 384.35,-183.51 380.24,-189.18"/>
</a>
</g>
</g>
<!-- Node18&#45;&gt;Node8 -->
<g id="edge36_Node000018_Node000008" class="edge">
<title>Node18&#45;&gt;Node8</title>
<g id="a_edge36_Node000018_Node000008"><a xlink:title=" ">
<path fill="none" stroke="#63b8ff" d="M380.06,-186.47C368.46,-177.76 355.54,-165.55 349.18,-151 343.85,-138.78 343,-132.81 349.18,-121 357.51,-105.09 373.45,-93.22 388.23,-85.05"/>
<polygon fill="#63b8ff" stroke="#63b8ff" points="378.36,-189.55 388.55,-192.43 382.38,-183.82 378.36,-189.55"/>
</a>
</g>
</g>
<!-- Node18&#45;&gt;Node9 -->
<g id="edge37_Node000018_Node000009" class="edge">
<title>Node18&#45;&gt;Node9</title>
<g id="a_edge37_Node000018_Node000009"><a xlink:title=" ">
<path fill="none" stroke="#63b8ff" d="M402.89,-182.08C402.7,-170.13 402.47,-155.22 402.32,-145.91"/>
<polygon fill="#63b8ff" stroke="#63b8ff" points="399.39,-182.42 403.05,-192.37 406.39,-182.32 399.39,-182.42"/>
</a>
</g>
</g>
<!-- Node18&#45;&gt;Node10 -->
<g id="edge38_Node000018_Node000010" class="edge">
<title>Node18&#45;&gt;Node10</title>
<g id="a_edge38_Node000018_Node000010"><a xlink:title=" ">
<path fill="none" stroke="#63b8ff" d="M428.56,-187.7C446.79,-177.96 471.81,-164.19 493.18,-151 513.33,-138.57 515.56,-130.61 537.18,-121 566.02,-108.18 648.67,-90.1 700.09,-79.56"/>
<polygon fill="#63b8ff" stroke="#63b8ff" points="426.89,-184.63 419.7,-192.41 430.17,-190.81 426.89,-184.63"/>
</a>
</g>
</g>
<!-- Node18&#45;&gt;Node11 -->
<g id="edge39_Node000018_Node000011" class="edge">
<title>Node18&#45;&gt;Node11</title>
<g id="a_edge39_Node000018_Node000011"><a xlink:title=" ">
<path fill="none" stroke="#63b8ff" d="M439.81,-189.12C465.54,-180.14 500.36,-166.71 529.18,-151 549.33,-140.02 549.9,-129.55 571.18,-121 674.94,-79.33 710.1,-104.61 820.18,-85 829.18,-83.4 838.82,-81.47 847.88,-79.57"/>
<polygon fill="#63b8ff" stroke="#63b8ff" points="438.41,-185.9 430.09,-192.45 440.68,-192.52 438.41,-185.9"/>
</a>
</g>
</g>
<!-- Node18&#45;&gt;Node12 -->
<g id="edge40_Node000018_Node000012" class="edge">
<title>Node18&#45;&gt;Node12</title>
<g id="a_edge40_Node000018_Node000012"><a xlink:title=" ">
<path fill="none" stroke="#63b8ff" d="M373.68,-188.4C322.69,-165.95 221.74,-118.26 203.18,-85 196.69,-73.36 194.14,-64.8 203.18,-55 236.31,-19.09 564.79,-12.15 698.75,-10.82"/>
<polygon fill="#63b8ff" stroke="#63b8ff" points="372.31,-191.63 382.88,-192.42 375.11,-185.21 372.31,-191.63"/>
</a>
</g>
</g>
<!-- Node19&#45;&gt;Node11 -->
<g id="edge43_Node000019_Node000011" class="edge">
<title>Node19&#45;&gt;Node11</title>
<g id="a_edge43_Node000019_Node000011"><a xlink:title=" ">
<path fill="none" stroke="#63b8ff" d="M1033.31,-183.89C1043.97,-166.56 1055.82,-139.69 1042.18,-121 1034.79,-110.86 963.44,-90.94 919.83,-79.54"/>
<polygon fill="#63b8ff" stroke="#63b8ff" points="1030.26,-182.16 1027.68,-192.43 1036.11,-186.01 1030.26,-182.16"/>
</a>
</g>
</g>
<!-- Node20&#45;&gt;Node21 -->
<g id="edge45_Node000020_Node000021" class="edge">
<title>Node20&#45;&gt;Node21</title>
<g id="a_edge45_Node000020_Node000021"><a xlink:title=" ">
<path fill="none" stroke="#63b8ff" d="M1177.42,-182.45C1174.97,-170.43 1171.9,-155.32 1169.99,-145.91"/>
<polygon fill="#63b8ff" stroke="#63b8ff" points="1174.01,-183.27 1179.43,-192.37 1180.87,-181.87 1174.01,-183.27"/>
</a>
</g>
</g>
<!-- Node21&#45;&gt;Node12 -->
<g id="edge46_Node000021_Node000012" class="edge">
<title>Node21&#45;&gt;Node12</title>
<g id="a_edge46_Node000021_Node000012"><a xlink:title=" ">
<path fill="none" stroke="#63b8ff" d="M1150.93,-119.58C1129.13,-101.02 1089.66,-70.44 1050.18,-55 971.07,-24.07 872.25,-14.5 811.45,-11.63"/>
<polygon fill="#63b8ff" stroke="#63b8ff" points="1148.79,-122.36 1158.64,-126.27 1153.38,-117.07 1148.79,-122.36"/>
</a>
</g>
</g>
<!-- Node21&#45;&gt;Node15 -->
<g id="edge47_Node000021_Node000015" class="edge">
<title>Node21&#45;&gt;Node15</title>
<g id="a_edge47_Node000021_Node000015"><a xlink:title=" ">
<path fill="none" stroke="#63b8ff" d="M1136.02,-122.68C1103.02,-110.03 1052.54,-90.68 1023.61,-79.6"/>
<polygon fill="#63b8ff" stroke="#63b8ff" points="1135.07,-126.06 1145.66,-126.37 1137.58,-119.52 1135.07,-126.06"/>
</a>
</g>
</g>
</g>
</svg>

<g id="navigator" transform="translate(0 0)" fill="#404254">
  <rect fill="#f2f5e9" fill-opacity="0.5" stroke="#606060" stroke-width=".5" x="0" y="0" width="60" height="60"/>
  <use id="zoomplus" xlink:href="#zoomPlus" x="17" y="9" onmousedown="handleZoom(evt,'in')"/>
  <use id="zoomminus" xlink:href="#zoomMin" x="42" y="9" onmousedown="handleZoom(evt,'out')"/>
  <use id="reset" xlink:href="#resetDef" x="30" y="36" onmousedown="handleReset()"/>
   <use id="arrowup" xlink:href="#arrowUp" x="0" y="0" onmousedown="handlePan(0,-1)"/>
  <use id="arrowright" xlink:href="#arrowRight" x="0" y="0" onmousedown="handlePan(1,0)"/>
  <use id="arrowdown" xlink:href="#arrowDown" x="0" y="0" onmousedown="handlePan(0,1)"/>
  <use id="arrowleft" xlink:href="#arrowLeft" x="0" y="0" onmousedown="handlePan(-1,0)"/>
</g>
<svg viewBox="0 0 15 15" width="100%" height="30px" preserveAspectRatio="xMaxYMin meet">
 <g id="arrow_out" transform="scale(0.3 0.3)">
  <a xlink:href="async__impl_8hpp__dep__incl_org.svg" target="_base">
   <rect id="button" ry="5" rx="5" y="6" x="6" height="38" width="38"
        fill="#f2f5e9" fill-opacity="0.5" stroke="#606060" stroke-width="1.0"/>
   <path id="arrow"
     d="M 11.500037,31.436501 C 11.940474,20.09759 22.043105,11.32322 32.158766,21.979434 L 37.068811,17.246167 C 37.068811,17.246167 37.088388,32 37.088388,32 L 22.160133,31.978069 C 22.160133,31.978069 26.997745,27.140456 26.997745,27.140456 C 18.528582,18.264221 13.291696,25.230495 11.500037,31.436501 z"
     style="fill:#404040;"/>
  </a>
 </g>
</svg>

<style type='text/css'>
<![CDATA[
[data-mouse-over-selected='false'] { opacity: 0.7; }
[data-mouse-over-selected='true']  { opacity: 1.0; }
]]>
</style>
<script type="application/ecmascript"><![CDATA[
document.addEventListener('DOMContentLoaded', (event) => {
  highlightEdges();
  highlightAdjacentNodes();
});
]]></script>
</svg>
