<?xml version="1.0" encoding="UTF-8" standalone="no"?>
<!DOCTYPE svg PUBLIC "-//W3C//DTD SVG 1.1//EN"
 "http://www.w3.org/Graphics/SVG/1.1/DTD/svg11.dtd">
<!-- Generated by graphviz version 2.43.0 (0)
 -->
<!-- Title: async_ops.hpp Pages: 1 -->
<svg width="1426pt" height="379pt"
 viewBox="0.00 0.00 1425.50 379.00" xmlns="http://www.w3.org/2000/svg" xmlns:xlink="http://www.w3.org/1999/xlink">
<g id="graph0" class="graph" transform="scale(1 1) rotate(0) translate(4 375)">
<title>async_ops.hpp</title>
<!-- Node1 -->
<g id="Node000001" class="node">
<title>Node1</title>
<g id="a_Node000001"><a xlink:title="Concepts and helpers for composing Async expressions.">
<polygon fill="#999999" stroke="#666666" points="928,-371 839,-371 839,-352 928,-352 928,-371"/>
<text text-anchor="middle" x="883.5" y="-359" font-family="Helvetica,sans-Serif" font-size="10.00">async_ops.hpp</text>
</a>
</g>
</g>
<!-- Node2 -->
<g id="Node000002" class="node">
<title>Node2</title>
<g id="a_Node000002"><a xlink:href="async__example2_8cpp.html" target="_top" xlink:title=" ">
<polygon fill="white" stroke="#666666" points="325,-134.5 206,-134.5 206,-115.5 325,-115.5 325,-134.5"/>
<text text-anchor="middle" x="265.5" y="-122.5" font-family="Helvetica,sans-Serif" font-size="10.00">async_example2.cpp</text>
</a>
</g>
</g>
<!-- Node1&#45;&gt;Node2 -->
<g id="edge1_Node000001_Node000002" class="edge">
<title>Node1&#45;&gt;Node2</title>
<g id="a_edge1_Node000001_Node000002"><a xlink:title=" ">
<path fill="none" stroke="#63b8ff" d="M828.71,-358.21C667.77,-350.22 202.01,-317.67 110.5,-206 78.88,-167.41 152.15,-145.36 208.41,-134.54"/>
<polygon fill="#63b8ff" stroke="#63b8ff" points="828.7,-361.71 838.86,-358.7 829.04,-354.72 828.7,-361.71"/>
</a>
</g>
</g>
<!-- Node3 -->
<g id="Node000003" class="node">
<title>Node3</title>
<g id="a_Node000003"><a xlink:href="async__fib__example_8cpp.html" target="_top" xlink:title=" ">
<polygon fill="white" stroke="#666666" points="131,-134.5 0,-134.5 0,-115.5 131,-115.5 131,-134.5"/>
<text text-anchor="middle" x="65.5" y="-122.5" font-family="Helvetica,sans-Serif" font-size="10.00">async_fib_example.cpp</text>
</a>
</g>
</g>
<!-- Node1&#45;&gt;Node3 -->
<g id="edge2_Node000001_Node000003" class="edge">
<title>Node1&#45;&gt;Node3</title>
<g id="a_edge2_Node000001_Node000003"><a xlink:title=" ">
<path fill="none" stroke="#63b8ff" d="M828.35,-360.47C727.1,-359.46 505.2,-352.78 322.5,-316 245.89,-300.58 222.23,-301.66 155.5,-261 125.71,-242.85 119.14,-234.83 99.5,-206 83.52,-182.55 72.68,-150.4 68.04,-134.97"/>
<polygon fill="#63b8ff" stroke="#63b8ff" points="828.61,-363.97 838.64,-360.56 828.67,-356.97 828.61,-363.97"/>
</a>
</g>
</g>
<!-- Node4 -->
<g id="Node000004" class="node">
<title>Node4</title>
<g id="a_Node000004"><a xlink:href="async__impl_8hpp.html" target="_top" xlink:title="Inline implementation of Async&lt;T&gt; helpers and task await transforms.">
<polygon fill="white" stroke="#666666" points="803,-316 710,-316 710,-297 803,-297 803,-316"/>
<text text-anchor="middle" x="756.5" y="-304" font-family="Helvetica,sans-Serif" font-size="10.00">async_impl.hpp</text>
</a>
</g>
</g>
<!-- Node1&#45;&gt;Node4 -->
<g id="edge3_Node000001_Node000004" class="edge">
<title>Node1&#45;&gt;Node4</title>
<g id="a_edge3_Node000001_Node000004"><a xlink:title=" ">
<path fill="none" stroke="#63b8ff" d="M853.62,-348.03C830.13,-338.23 798.03,-324.83 777.28,-316.17"/>
<polygon fill="#63b8ff" stroke="#63b8ff" points="852.52,-351.36 863.1,-351.98 855.21,-344.9 852.52,-351.36"/>
</a>
</g>
</g>
<!-- Node9 -->
<g id="Node000009" class="node">
<title>Node9</title>
<g id="a_Node000009"><a xlink:href="async__kernel__shapes__example_8cpp.html" target="_top" xlink:title=" ">
<polygon fill="white" stroke="#666666" points="1235.5,-140 1115.5,-140 1115.5,-110 1235.5,-110 1235.5,-140"/>
<text text-anchor="start" x="1123.5" y="-128" font-family="Helvetica,sans-Serif" font-size="10.00">async_kernel_shapes</text>
<text text-anchor="middle" x="1175.5" y="-117" font-family="Helvetica,sans-Serif" font-size="10.00">_example.cpp</text>
</a>
</g>
</g>
<!-- Node1&#45;&gt;Node9 -->
<g id="edge45_Node000001_Node000009" class="edge">
<title>Node1&#45;&gt;Node9</title>
<g id="a_edge45_Node000001_Node000009"><a xlink:title=" ">
<path fill="none" stroke="#63b8ff" d="M924.05,-348.8C984.07,-329.35 1095.88,-284.49 1155.5,-206 1170.31,-186.51 1174.26,-157.36 1175.25,-140.15"/>
<polygon fill="#63b8ff" stroke="#63b8ff" points="922.65,-345.58 914.17,-351.93 924.76,-352.25 922.65,-345.58"/>
</a>
</g>
</g>
<!-- Node10 -->
<g id="Node000010" class="node">
<title>Node10</title>
<g id="a_Node000010"><a xlink:href="async__ops__example_8cpp.html" target="_top" xlink:title=" ">
<polygon fill="white" stroke="#666666" points="1389.5,-134.5 1253.5,-134.5 1253.5,-115.5 1389.5,-115.5 1389.5,-134.5"/>
<text text-anchor="middle" x="1321.5" y="-122.5" font-family="Helvetica,sans-Serif" font-size="10.00">async_ops_example.cpp</text>
</a>
</g>
</g>
<!-- Node1&#45;&gt;Node10 -->
<g id="edge46_Node000001_Node000010" class="edge">
<title>Node1&#45;&gt;Node10</title>
<g id="a_edge46_Node000001_Node000010"><a xlink:title=" ">
<path fill="none" stroke="#63b8ff" d="M936.21,-349.58C967.11,-342.19 1006.44,-331.01 1039.5,-316 1155.61,-263.3 1276.54,-164.27 1311.5,-134.61"/>
<polygon fill="#63b8ff" stroke="#63b8ff" points="935.02,-346.27 926.08,-351.95 936.61,-353.09 935.02,-346.27"/>
</a>
</g>
</g>
<!-- Node13 -->
<g id="Node000013" class="node">
<title>Node13</title>
<g id="a_Node000013"><a xlink:href="future__example_8cpp.html" target="_top" xlink:title=" ">
<polygon fill="white" stroke="#666666" points="659.5,-134.5 545.5,-134.5 545.5,-115.5 659.5,-115.5 659.5,-134.5"/>
<text text-anchor="middle" x="602.5" y="-122.5" font-family="Helvetica,sans-Serif" font-size="10.00">future_example.cpp</text>
</a>
</g>
</g>
<!-- Node1&#45;&gt;Node13 -->
<g id="edge47_Node000001_Node000013" class="edge">
<title>Node1&#45;&gt;Node13</title>
<g id="a_edge47_Node000001_Node000013"><a xlink:title=" ">
<path fill="none" stroke="#63b8ff" d="M828.71,-353.74C791.35,-347.58 741.58,-336.22 701.5,-316 633.32,-281.6 601.89,-275.16 569.5,-206 557.52,-180.42 580.93,-149.27 594.22,-134.52"/>
<polygon fill="#63b8ff" stroke="#63b8ff" points="828.47,-357.25 838.89,-355.35 829.56,-350.33 828.47,-357.25"/>
</a>
</g>
</g>
<!-- Node15 -->
<g id="Node000015" class="node">
<title>Node15</title>
<g id="a_Node000015"><a xlink:href="gradient__solver_8cpp.html" target="_top" xlink:title=" ">
<polygon fill="white" stroke="#666666" points="914.5,-19 802.5,-19 802.5,0 914.5,0 914.5,-19"/>
<text text-anchor="middle" x="858.5" y="-7" font-family="Helvetica,sans-Serif" font-size="10.00">gradient_solver.cpp</text>
</a>
</g>
</g>
<!-- Node1&#45;&gt;Node15 -->
<g id="edge48_Node000001_Node000015" class="edge">
<title>Node1&#45;&gt;Node15</title>
<g id="a_edge48_Node000001_Node000015"><a xlink:title=" ">
<path fill="none" stroke="#63b8ff" d="M938.33,-360.89C1074.55,-360.4 1417.5,-349.52 1417.5,-252.5 1417.5,-252.5 1417.5,-252.5 1417.5,-124 1417.5,-22.12 1056.41,-10.69 914.66,-10.13"/>
<polygon fill="#63b8ff" stroke="#63b8ff" points="938.1,-357.39 928.11,-360.91 938.12,-364.39 938.1,-357.39"/>
</a>
</g>
</g>
<!-- Node5 -->
<g id="Node000005" class="node">
<title>Node5</title>
<g id="a_Node000005"><a xlink:href="async_8hpp.html" target="_top" xlink:title="The Async&lt;T&gt; container: coroutine‐safe asynchronous read/write.">
<polygon fill="white" stroke="#666666" points="781.5,-261 715.5,-261 715.5,-242 781.5,-242 781.5,-261"/>
<text text-anchor="middle" x="748.5" y="-249" font-family="Helvetica,sans-Serif" font-size="10.00">async.hpp</text>
</a>
</g>
</g>
<!-- Node4&#45;&gt;Node5 -->
<g id="edge4_Node000004_Node000005" class="edge">
<title>Node4&#45;&gt;Node5</title>
<g id="a_edge4_Node000004_Node000005"><a xlink:title=" ">
<path fill="none" stroke="#63b8ff" d="M753.66,-286.66C752.34,-277.93 750.84,-267.99 749.8,-261.09"/>
<polygon fill="#63b8ff" stroke="#63b8ff" points="750.23,-287.38 755.18,-296.75 757.15,-286.34 750.23,-287.38"/>
</a>
</g>
</g>
<!-- Node5&#45;&gt;Node1 -->
<g id="edge11_Node000005_Node000001" class="edge">
<title>Node5&#45;&gt;Node1</title>
<g id="a_edge11_Node000005_Node000001"><a xlink:title=" ">
<path fill="none" stroke="#63b8ff" d="M770.32,-266.71C782.92,-275.15 798.91,-286.27 812.5,-297 835.86,-315.45 861.47,-339.35 874.62,-351.91"/>
<polygon fill="#63b8ff" stroke="#63b8ff" points="772.1,-263.69 761.83,-261.08 768.23,-269.52 772.1,-263.69"/>
</a>
</g>
</g>
<!-- Node5&#45;&gt;Node2 -->
<g id="edge8_Node000005_Node000002" class="edge">
<title>Node5&#45;&gt;Node2</title>
<g id="a_edge8_Node000005_Node000002"><a xlink:title=" ">
<path fill="none" stroke="#63b8ff" d="M705.17,-250.75C569.9,-251.07 162.08,-248.49 122.5,-206 89.05,-170.09 165.61,-146.25 219.11,-134.52"/>
<polygon fill="#63b8ff" stroke="#63b8ff" points="705.19,-254.25 715.17,-250.72 705.16,-247.25 705.19,-254.25"/>
</a>
</g>
</g>
<!-- Node5&#45;&gt;Node3 -->
<g id="edge9_Node000005_Node000003" class="edge">
<title>Node5&#45;&gt;Node3</title>
<g id="a_edge9_Node000005_Node000003"><a xlink:title=" ">
<path fill="none" stroke="#63b8ff" d="M705.15,-249.84C569.71,-247.44 160.51,-237.64 110.5,-206 84.24,-189.39 71.88,-151.67 67.47,-134.63"/>
<polygon fill="#63b8ff" stroke="#63b8ff" points="705.11,-253.34 715.17,-250.01 705.23,-246.34 705.11,-253.34"/>
</a>
</g>
</g>
<!-- Node6 -->
<g id="Node000006" class="node">
<title>Node6</title>
<g id="a_Node000006"><a xlink:href="ad__example_8cpp.html" target="_top" xlink:title=" ">
<polygon fill="white" stroke="#666666" points="927,-134.5 830,-134.5 830,-115.5 927,-115.5 927,-134.5"/>
<text text-anchor="middle" x="878.5" y="-122.5" font-family="Helvetica,sans-Serif" font-size="10.00">ad_example.cpp</text>
</a>
</g>
</g>
<!-- Node5&#45;&gt;Node6 -->
<g id="edge5_Node000005_Node000006" class="edge">
<title>Node5&#45;&gt;Node6</title>
<g id="a_edge5_Node000005_Node000006"><a xlink:title=" ">
<path fill="none" stroke="#63b8ff" d="M785.52,-238.17C802.93,-230.94 823,-220.36 837.5,-206 858.79,-184.92 871.21,-150.46 876.09,-134.55"/>
<polygon fill="#63b8ff" stroke="#63b8ff" points="784.2,-234.93 776.17,-241.85 786.76,-241.45 784.2,-234.93"/>
</a>
</g>
</g>
<!-- Node7 -->
<g id="Node000007" class="node">
<title>Node7</title>
<g id="a_Node000007"><a xlink:href="async__buffer__semantics__example_8cpp.html" target="_top" xlink:title=" ">
<polygon fill="white" stroke="#666666" points="811.5,-140 677.5,-140 677.5,-110 811.5,-110 811.5,-140"/>
<text text-anchor="start" x="685.5" y="-128" font-family="Helvetica,sans-Serif" font-size="10.00">async_buffer_semantics</text>
<text text-anchor="middle" x="744.5" y="-117" font-family="Helvetica,sans-Serif" font-size="10.00">_example.cpp</text>
</a>
</g>
</g>
<!-- Node5&#45;&gt;Node7 -->
<g id="edge6_Node000005_Node000007" class="edge">
<title>Node5&#45;&gt;Node7</title>
<g id="a_edge6_Node000005_Node000007"><a xlink:title=" ">
<path fill="none" stroke="#63b8ff" d="M747.9,-231.91C747.1,-206.83 745.68,-162.72 744.95,-140.16"/>
<polygon fill="#63b8ff" stroke="#63b8ff" points="744.41,-232.06 748.23,-241.94 751.4,-231.84 744.41,-232.06"/>
</a>
</g>
</g>
<!-- Node8 -->
<g id="Node000008" class="node">
<title>Node8</title>
<g id="a_Node000008"><a xlink:href="async__example_8cpp.html" target="_top" xlink:title=" ">
<polygon fill="white" stroke="#666666" points="1097,-134.5 984,-134.5 984,-115.5 1097,-115.5 1097,-134.5"/>
<text text-anchor="middle" x="1040.5" y="-122.5" font-family="Helvetica,sans-Serif" font-size="10.00">async_example.cpp</text>
</a>
</g>
</g>
<!-- Node5&#45;&gt;Node8 -->
<g id="edge7_Node000005_Node000008" class="edge">
<title>Node5&#45;&gt;Node8</title>
<g id="a_edge7_Node000005_Node000008"><a xlink:title=" ">
<path fill="none" stroke="#63b8ff" d="M791.59,-248.37C883.17,-243.4 1090.58,-229.64 1111.5,-206 1134.51,-179.99 1086.02,-149.29 1058.21,-134.63"/>
<polygon fill="#63b8ff" stroke="#63b8ff" points="791.33,-244.88 781.53,-248.91 791.7,-251.87 791.33,-244.88"/>
</a>
</g>
</g>
<!-- Node5&#45;&gt;Node9 -->
<g id="edge10_Node000005_Node000009" class="edge">
<title>Node5&#45;&gt;Node9</title>
<g id="a_edge10_Node000005_Node000009"><a xlink:title=" ">
<path fill="none" stroke="#63b8ff" d="M791.67,-250.19C879.18,-248.8 1073.84,-241.66 1128.5,-206 1152.24,-190.51 1165.55,-158.51 1171.56,-140.02"/>
<polygon fill="#63b8ff" stroke="#63b8ff" points="791.49,-246.69 781.54,-250.33 791.59,-253.69 791.49,-246.69"/>
</a>
</g>
</g>
<!-- Node5&#45;&gt;Node10 -->
<g id="edge12_Node000005_Node000010" class="edge">
<title>Node5&#45;&gt;Node10</title>
<g id="a_edge12_Node000005_Node000010"><a xlink:title=" ">
<path fill="none" stroke="#63b8ff" d="M791.73,-250.54C867.1,-249.58 1026.77,-242.88 1155.5,-206 1215.47,-188.82 1280.4,-151.4 1307.93,-134.54"/>
<polygon fill="#63b8ff" stroke="#63b8ff" points="791.64,-247.05 781.67,-250.65 791.71,-254.04 791.64,-247.05"/>
</a>
</g>
</g>
<!-- Node11 -->
<g id="Node000011" class="node">
<title>Node11</title>
<g id="a_Node000011"><a xlink:href="async__tbb__reduction__example_8cpp.html" target="_top" xlink:title="Example of using uni20 coroutines with the TbbScheduler to parallelize a map–reduce computation.">
<polygon fill="white" stroke="#666666" points="359,-206 242,-206 242,-176 359,-176 359,-206"/>
<text text-anchor="start" x="250" y="-194" font-family="Helvetica,sans-Serif" font-size="10.00">async_tbb_reduction</text>
<text text-anchor="middle" x="300.5" y="-183" font-family="Helvetica,sans-Serif" font-size="10.00">_example.cpp</text>
</a>
</g>
</g>
<!-- Node5&#45;&gt;Node11 -->
<g id="edge13_Node000005_Node000011" class="edge">
<title>Node5&#45;&gt;Node11</title>
<g id="a_edge13_Node000005_Node000011"><a xlink:title=" ">
<path fill="none" stroke="#63b8ff" d="M705.18,-246.72C634.3,-240.24 489.26,-225.79 367.5,-206 364.8,-205.56 362.05,-205.09 359.27,-204.59"/>
<polygon fill="#63b8ff" stroke="#63b8ff" points="705.22,-250.23 715.49,-247.65 705.85,-243.26 705.22,-250.23"/>
</a>
</g>
</g>
<!-- Node12 -->
<g id="Node000012" class="node">
<title>Node12</title>
<g id="a_Node000012"><a xlink:href="async__toys_8hpp.html" target="_top" xlink:title="Small async helper operations used in tests and examples.">
<polygon fill="white" stroke="#666666" points="223.5,-200.5 131.5,-200.5 131.5,-181.5 223.5,-181.5 223.5,-200.5"/>
<text text-anchor="middle" x="177.5" y="-188.5" font-family="Helvetica,sans-Serif" font-size="10.00">async_toys.hpp</text>
</a>
</g>
</g>
<!-- Node5&#45;&gt;Node12 -->
<g id="edge14_Node000005_Node000012" class="edge">
<title>Node5&#45;&gt;Node12</title>
<g id="a_edge14_Node000005_Node000012"><a xlink:title=" ">
<path fill="none" stroke="#63b8ff" d="M705.1,-249.15C615.97,-245.85 406.08,-235.37 232.5,-206 224.24,-204.6 215.4,-202.59 207.28,-200.52"/>
<polygon fill="#63b8ff" stroke="#63b8ff" points="705.24,-252.66 715.36,-249.52 705.49,-245.66 705.24,-252.66"/>
</a>
</g>
</g>
<!-- Node5&#45;&gt;Node13 -->
<g id="edge37_Node000005_Node000013" class="edge">
<title>Node5&#45;&gt;Node13</title>
<g id="a_edge37_Node000005_Node000013"><a xlink:title=" ">
<path fill="none" stroke="#63b8ff" d="M736.9,-233.44C725.39,-217.34 706.61,-193.17 686.5,-176 665.98,-158.48 638.55,-143.43 620.7,-134.55"/>
<polygon fill="#63b8ff" stroke="#63b8ff" points="734.2,-235.68 742.79,-241.87 739.94,-231.67 734.2,-235.68"/>
</a>
</g>
</g>
<!-- Node16 -->
<g id="Node000016" class="node">
<title>Node16</title>
<g id="a_Node000016"><a xlink:href="awaiters_8hpp.html" target="_top" xlink:title="Utilities for awaiting on Async&lt;T&gt;: co_await overload, all(), try_await().">
<polygon fill="white" stroke="#666666" points="964.5,-200.5 884.5,-200.5 884.5,-181.5 964.5,-181.5 964.5,-200.5"/>
<text text-anchor="middle" x="924.5" y="-188.5" font-family="Helvetica,sans-Serif" font-size="10.00">awaiters.hpp</text>
</a>
</g>
</g>
<!-- Node5&#45;&gt;Node16 -->
<g id="edge19_Node000005_Node000016" class="edge">
<title>Node5&#45;&gt;Node16</title>
<g id="a_edge19_Node000005_Node000016"><a xlink:title=" ">
<path fill="none" stroke="#63b8ff" d="M783.65,-238.82C817.69,-227.5 868.49,-210.62 898.88,-200.52"/>
<polygon fill="#63b8ff" stroke="#63b8ff" points="782.48,-235.52 774.09,-241.99 784.69,-242.16 782.48,-235.52"/>
</a>
</g>
</g>
<!-- Node17 -->
<g id="Node000017" class="node">
<title>Node17</title>
<g id="a_Node000017"><a xlink:href="bug_8cpp.html" target="_top" xlink:title=" ">
<polygon fill="white" stroke="#666666" points="828,-200.5 773,-200.5 773,-181.5 828,-181.5 828,-200.5"/>
<text text-anchor="middle" x="800.5" y="-188.5" font-family="Helvetica,sans-Serif" font-size="10.00">bug.cpp</text>
</a>
</g>
</g>
<!-- Node5&#45;&gt;Node17 -->
<g id="edge25_Node000005_Node000017" class="edge">
<title>Node5&#45;&gt;Node17</title>
<g id="a_edge25_Node000005_Node000017"><a xlink:title=" ">
<path fill="none" stroke="#63b8ff" d="M762.93,-234.27C772.6,-223.39 784.95,-209.49 792.8,-200.67"/>
<polygon fill="#63b8ff" stroke="#63b8ff" points="760.2,-232.07 756.17,-241.87 765.43,-236.72 760.2,-232.07"/>
</a>
</g>
</g>
<!-- Node18 -->
<g id="Node000018" class="node">
<title>Node18</title>
<g id="a_Node000018"><a xlink:href="debug__scheduler_8hpp.html" target="_top" xlink:title="Coroutine scheduler for AsyncTask.">
<polygon fill="white" stroke="#666666" points="1102,-200.5 983,-200.5 983,-181.5 1102,-181.5 1102,-200.5"/>
<text text-anchor="middle" x="1042.5" y="-188.5" font-family="Helvetica,sans-Serif" font-size="10.00">debug_scheduler.hpp</text>
</a>
</g>
</g>
<!-- Node5&#45;&gt;Node18 -->
<g id="edge26_Node000005_Node000018" class="edge">
<title>Node5&#45;&gt;Node18</title>
<g id="a_edge26_Node000005_Node000018"><a xlink:title=" ">
<path fill="none" stroke="#63b8ff" d="M791.74,-242.01C837.05,-233.11 910.29,-218.66 973.5,-206 982.25,-204.25 991.62,-202.36 1000.54,-200.55"/>
<polygon fill="#63b8ff" stroke="#63b8ff" points="790.81,-238.63 781.68,-243.99 792.16,-245.5 790.81,-238.63"/>
</a>
</g>
</g>
<!-- Node19 -->
<g id="Node000019" class="node">
<title>Node19</title>
<g id="a_Node000019"><a xlink:href="future__value_8hpp.html" target="_top" xlink:title="Write&#45;once async wrappers (FutureValue and Defer) built on Async&lt;T&gt;.">
<polygon fill="white" stroke="#666666" points="678,-200.5 579,-200.5 579,-181.5 678,-181.5 678,-200.5"/>
<text text-anchor="middle" x="628.5" y="-188.5" font-family="Helvetica,sans-Serif" font-size="10.00">future_value.hpp</text>
</a>
</g>
</g>
<!-- Node5&#45;&gt;Node19 -->
<g id="edge38_Node000005_Node000019" class="edge">
<title>Node5&#45;&gt;Node19</title>
<g id="a_edge38_Node000005_Node000019"><a xlink:title=" ">
<path fill="none" stroke="#63b8ff" d="M721.8,-237.48C698.67,-226.21 665.89,-210.23 645.97,-200.52"/>
<polygon fill="#63b8ff" stroke="#63b8ff" points="720.53,-240.76 731.05,-241.99 723.6,-234.47 720.53,-240.76"/>
</a>
</g>
</g>
<!-- Node20 -->
<g id="Node000020" class="node">
<title>Node20</title>
<g id="a_Node000020"><a xlink:href="reverse__value_8hpp.html" target="_top" xlink:title="Reverse&#45;mode gradient accumulation channel built on reverse epoch queues.">
<polygon fill="white" stroke="#666666" points="484,-200.5 377,-200.5 377,-181.5 484,-181.5 484,-200.5"/>
<text text-anchor="middle" x="430.5" y="-188.5" font-family="Helvetica,sans-Serif" font-size="10.00">reverse_value.hpp</text>
</a>
</g>
</g>
<!-- Node5&#45;&gt;Node20 -->
<g id="edge40_Node000005_Node000020" class="edge">
<title>Node5&#45;&gt;Node20</title>
<g id="a_edge40_Node000005_Node000020"><a xlink:title=" ">
<path fill="none" stroke="#63b8ff" d="M705.51,-242.59C645.82,-231.61 538.28,-211.83 476.86,-200.53"/>
<polygon fill="#63b8ff" stroke="#63b8ff" points="704.9,-246.04 715.37,-244.41 706.17,-239.15 704.9,-246.04"/>
</a>
</g>
</g>
<!-- Node21 -->
<g id="Node000021" class="node">
<title>Node21</title>
<g id="a_Node000021"><a xlink:href="var_8hpp.html" target="_top" xlink:title=" ">
<polygon fill="white" stroke="#666666" points="527,-134.5 474,-134.5 474,-115.5 527,-115.5 527,-134.5"/>
<text text-anchor="middle" x="500.5" y="-122.5" font-family="Helvetica,sans-Serif" font-size="10.00">var.hpp</text>
</a>
</g>
</g>
<!-- Node5&#45;&gt;Node21 -->
<g id="edge44_Node000005_Node000021" class="edge">
<title>Node5&#45;&gt;Node21</title>
<g id="a_edge44_Node000005_Node000021"><a xlink:title=" ">
<path fill="none" stroke="#63b8ff" d="M705.23,-247.16C667.1,-242.56 611.26,-231.68 569.5,-206 539.19,-187.36 515.19,-151.03 505.35,-134.52"/>
<polygon fill="#63b8ff" stroke="#63b8ff" points="705.17,-250.67 715.49,-248.3 705.94,-243.72 705.17,-250.67"/>
</a>
</g>
</g>
<!-- Node12&#45;&gt;Node2 -->
<g id="edge15_Node000012_Node000002" class="edge">
<title>Node12&#45;&gt;Node2</title>
<g id="a_edge15_Node000012_Node000002"><a xlink:title=" ">
<path fill="none" stroke="#63b8ff" d="M197.67,-175.33C214.93,-162.78 239.19,-145.13 253.54,-134.7"/>
<polygon fill="#63b8ff" stroke="#63b8ff" points="195.4,-172.66 189.37,-181.37 199.51,-178.32 195.4,-172.66"/>
</a>
</g>
</g>
<!-- Node12&#45;&gt;Node13 -->
<g id="edge16_Node000012_Node000013" class="edge">
<title>Node12&#45;&gt;Node13</title>
<g id="a_edge16_Node000012_Node000013"><a xlink:title=" ">
<path fill="none" stroke="#63b8ff" d="M218.01,-179.05C222.87,-177.93 227.78,-176.88 232.5,-176 365.83,-151.22 401.66,-161.89 535.5,-140 545,-138.45 555.19,-136.47 564.69,-134.5"/>
<polygon fill="#63b8ff" stroke="#63b8ff" points="217.07,-175.68 208.18,-181.44 218.72,-182.48 217.07,-175.68"/>
</a>
</g>
</g>
<!-- Node14 -->
<g id="Node000014" class="node">
<title>Node14</title>
<g id="a_Node000014"><a xlink:href="var__toys_8hpp.html" target="_top" xlink:title="Demonstration reverse&#45;mode helpers built on Var&lt;T&gt;.">
<polygon fill="white" stroke="#666666" points="540.5,-74 460.5,-74 460.5,-55 540.5,-55 540.5,-74"/>
<text text-anchor="middle" x="500.5" y="-62" font-family="Helvetica,sans-Serif" font-size="10.00">var_toys.hpp</text>
</a>
</g>
</g>
<!-- Node12&#45;&gt;Node14 -->
<g id="edge17_Node000012_Node000014" class="edge">
<title>Node12&#45;&gt;Node14</title>
<g id="a_edge17_Node000012_Node000014"><a xlink:title=" ">
<path fill="none" stroke="#63b8ff" d="M176.41,-171.42C176.42,-153.04 179.59,-125.49 196.5,-110 234.31,-75.37 386.78,-67.66 460.37,-65.96"/>
<polygon fill="#63b8ff" stroke="#63b8ff" points="172.91,-171.6 176.71,-181.49 179.91,-171.39 172.91,-171.6"/>
</a>
</g>
</g>
<!-- Node14&#45;&gt;Node15 -->
<g id="edge18_Node000014_Node000015" class="edge">
<title>Node14&#45;&gt;Node15</title>
<g id="a_edge18_Node000014_Node000015"><a xlink:title=" ">
<path fill="none" stroke="#63b8ff" d="M550.71,-56.07C616.96,-46.26 733.22,-29.05 802.32,-18.82"/>
<polygon fill="#63b8ff" stroke="#63b8ff" points="549.9,-52.65 540.53,-57.57 550.93,-59.57 549.9,-52.65"/>
</a>
</g>
</g>
<!-- Node16&#45;&gt;Node1 -->
<g id="edge23_Node000016_Node000001" class="edge">
<title>Node16&#45;&gt;Node1</title>
<g id="a_edge23_Node000016_Node000001"><a xlink:title=" ">
<path fill="none" stroke="#63b8ff" d="M919.99,-210.54C911.17,-246.79 891.95,-325.78 885.59,-351.91"/>
<polygon fill="#63b8ff" stroke="#63b8ff" points="923.4,-211.32 922.37,-200.77 916.6,-209.66 923.4,-211.32"/>
</a>
</g>
</g>
<!-- Node16&#45;&gt;Node2 -->
<g id="edge22_Node000016_Node000002" class="edge">
<title>Node16&#45;&gt;Node2</title>
<g id="a_edge22_Node000016_Node000002"><a xlink:title=" ">
<path fill="none" stroke="#63b8ff" d="M874.4,-181.3C862.34,-179.39 849.48,-177.49 837.5,-176 739.56,-163.86 450.95,-140.59 325.2,-130.67"/>
<polygon fill="#63b8ff" stroke="#63b8ff" points="873.87,-184.76 884.3,-182.91 874.99,-177.85 873.87,-184.76"/>
</a>
</g>
</g>
<!-- Node16&#45;&gt;Node6 -->
<g id="edge20_Node000016_Node000006" class="edge">
<title>Node16&#45;&gt;Node6</title>
<g id="a_edge20_Node000016_Node000006"><a xlink:title=" ">
<path fill="none" stroke="#63b8ff" d="M912.22,-172.91C903.42,-160.68 891.94,-144.7 884.9,-134.91"/>
<polygon fill="#63b8ff" stroke="#63b8ff" points="909.62,-175.29 918.3,-181.37 915.3,-171.21 909.62,-175.29"/>
</a>
</g>
</g>
<!-- Node16&#45;&gt;Node8 -->
<g id="edge21_Node000016_Node000008" class="edge">
<title>Node16&#45;&gt;Node8</title>
<g id="a_edge21_Node000016_Node000008"><a xlink:title=" ">
<path fill="none" stroke="#63b8ff" d="M948.92,-176.53C971.77,-163.92 1005.22,-145.47 1024.73,-134.7"/>
<polygon fill="#63b8ff" stroke="#63b8ff" points="947.21,-173.47 940.14,-181.37 950.59,-179.6 947.21,-173.47"/>
</a>
</g>
</g>
<!-- Node16&#45;&gt;Node13 -->
<g id="edge24_Node000016_Node000013" class="edge">
<title>Node16&#45;&gt;Node13</title>
<g id="a_edge24_Node000016_Node000013"><a xlink:title=" ">
<path fill="none" stroke="#63b8ff" d="M874.21,-180.43C822.55,-170.53 739.84,-154.53 668.5,-140 660.01,-138.27 650.91,-136.37 642.27,-134.54"/>
<polygon fill="#63b8ff" stroke="#63b8ff" points="873.63,-183.88 884.11,-182.32 874.95,-177 873.63,-183.88"/>
</a>
</g>
</g>
<!-- Node18&#45;&gt;Node1 -->
<g id="edge33_Node000018_Node000001" class="edge">
<title>Node18&#45;&gt;Node1</title>
<g id="a_edge33_Node000018_Node000001"><a xlink:title=" ">
<path fill="none" stroke="#63b8ff" d="M1027.16,-208.26C994.03,-243.36 916.8,-325.21 891.6,-351.91"/>
<polygon fill="#63b8ff" stroke="#63b8ff" points="1029.9,-210.45 1034.22,-200.77 1024.81,-205.64 1029.9,-210.45"/>
</a>
</g>
</g>
<!-- Node18&#45;&gt;Node2 -->
<g id="edge30_Node000018_Node000002" class="edge">
<title>Node18&#45;&gt;Node2</title>
<g id="a_edge30_Node000018_Node000002"><a xlink:title=" ">
<path fill="none" stroke="#63b8ff" d="M994.79,-179.48C987.68,-178.16 980.42,-176.94 973.5,-176 971.49,-175.73 495.23,-142.18 325.06,-130.19"/>
<polygon fill="#63b8ff" stroke="#63b8ff" points="994.56,-183.01 1005.05,-181.48 995.9,-176.13 994.56,-183.01"/>
</a>
</g>
</g>
<!-- Node18&#45;&gt;Node3 -->
<g id="edge31_Node000018_Node000003" class="edge">
<title>Node18&#45;&gt;Node3</title>
<g id="a_edge31_Node000018_Node000003"><a xlink:title=" ">
<path fill="none" stroke="#63b8ff" d="M995.82,-179.52C988.39,-178.14 980.76,-176.9 973.5,-176 630.42,-133.5 541.2,-166.38 196.5,-140 175.18,-138.37 151.95,-136.06 131.06,-133.79"/>
<polygon fill="#63b8ff" stroke="#63b8ff" points="995.3,-182.98 1005.79,-181.46 996.64,-176.11 995.3,-182.98"/>
</a>
</g>
</g>
<!-- Node18&#45;&gt;Node6 -->
<g id="edge27_Node000018_Node000006" class="edge">
<title>Node18&#45;&gt;Node6</title>
<g id="a_edge27_Node000018_Node000006"><a xlink:title=" ">
<path fill="none" stroke="#63b8ff" d="M1010.92,-177.68C978.51,-165.03 928.93,-145.68 900.53,-134.6"/>
<polygon fill="#63b8ff" stroke="#63b8ff" points="1009.79,-180.99 1020.38,-181.37 1012.34,-174.47 1009.79,-180.99"/>
</a>
</g>
</g>
<!-- Node18&#45;&gt;Node7 -->
<g id="edge28_Node000018_Node000007" class="edge">
<title>Node18&#45;&gt;Node7</title>
<g id="a_edge28_Node000018_Node000007"><a xlink:title=" ">
<path fill="none" stroke="#63b8ff" d="M992.66,-179.3C942.49,-168.52 864.86,-151.85 809.8,-140.02"/>
<polygon fill="#63b8ff" stroke="#63b8ff" points="992.11,-182.76 1002.62,-181.44 993.58,-175.91 992.11,-182.76"/>
</a>
</g>
</g>
<!-- Node18&#45;&gt;Node8 -->
<g id="edge29_Node000018_Node000008" class="edge">
<title>Node18&#45;&gt;Node8</title>
<g id="a_edge29_Node000018_Node000008"><a xlink:title=" ">
<path fill="none" stroke="#63b8ff" d="M1041.91,-171.08C1041.54,-159.13 1041.07,-144.22 1040.78,-134.91"/>
<polygon fill="#63b8ff" stroke="#63b8ff" points="1038.42,-171.48 1042.23,-181.37 1045.42,-171.26 1038.42,-171.48"/>
</a>
</g>
</g>
<!-- Node18&#45;&gt;Node9 -->
<g id="edge32_Node000018_Node000009" class="edge">
<title>Node18&#45;&gt;Node9</title>
<g id="a_edge32_Node000018_Node000009"><a xlink:title=" ">
<path fill="none" stroke="#63b8ff" d="M1069.66,-176.93C1091.91,-166.22 1123.34,-151.1 1146.17,-140.12"/>
<polygon fill="#63b8ff" stroke="#63b8ff" points="1067.93,-173.88 1060.44,-181.37 1070.97,-180.19 1067.93,-173.88"/>
</a>
</g>
</g>
<!-- Node18&#45;&gt;Node10 -->
<g id="edge34_Node000018_Node000010" class="edge">
<title>Node18&#45;&gt;Node10</title>
<g id="a_edge34_Node000018_Node000010"><a xlink:title=" ">
<path fill="none" stroke="#63b8ff" d="M1089.67,-179.18C1144.6,-166.58 1234.18,-146.03 1284.38,-134.51"/>
<polygon fill="#63b8ff" stroke="#63b8ff" points="1088.8,-175.79 1079.84,-181.44 1090.37,-182.61 1088.8,-175.79"/>
</a>
</g>
</g>
<!-- Node18&#45;&gt;Node13 -->
<g id="edge35_Node000018_Node000013" class="edge">
<title>Node18&#45;&gt;Node13</title>
<g id="a_edge35_Node000018_Node000013"><a xlink:title=" ">
<path fill="none" stroke="#63b8ff" d="M993.03,-179.45C986.48,-178.2 979.84,-177.01 973.5,-176 838.72,-154.41 803.18,-162.19 668.5,-140 659.14,-138.46 649.09,-136.49 639.73,-134.52"/>
<polygon fill="#63b8ff" stroke="#63b8ff" points="992.71,-182.95 1003.19,-181.44 994.05,-176.08 992.71,-182.95"/>
</a>
</g>
</g>
<!-- Node18&#45;&gt;Node15 -->
<g id="edge36_Node000018_Node000015" class="edge">
<title>Node18&#45;&gt;Node15</title>
<g id="a_edge36_Node000018_Node000015"><a xlink:title=" ">
<path fill="none" stroke="#63b8ff" d="M1021.31,-175.79C1007.7,-166.28 989.94,-153.15 975.5,-140 929.8,-98.39 882.64,-40.86 865.36,-19.21"/>
<polygon fill="#63b8ff" stroke="#63b8ff" points="1019.36,-178.69 1029.58,-181.48 1023.32,-172.93 1019.36,-178.69"/>
</a>
</g>
</g>
<!-- Node19&#45;&gt;Node13 -->
<g id="edge39_Node000019_Node000013" class="edge">
<title>Node19&#45;&gt;Node13</title>
<g id="a_edge39_Node000019_Node000013"><a xlink:title=" ">
<path fill="none" stroke="#63b8ff" d="M621.11,-171.82C616.21,-159.74 609.98,-144.41 606.12,-134.91"/>
<polygon fill="#63b8ff" stroke="#63b8ff" points="617.99,-173.42 624.99,-181.37 624.47,-170.79 617.99,-173.42"/>
</a>
</g>
</g>
<!-- Node20&#45;&gt;Node21 -->
<g id="edge41_Node000020_Node000021" class="edge">
<title>Node20&#45;&gt;Node21</title>
<g id="a_edge41_Node000020_Node000021"><a xlink:title=" ">
<path fill="none" stroke="#63b8ff" d="M447.64,-174.33C461.19,-161.94 479.63,-145.09 490.76,-134.91"/>
<polygon fill="#63b8ff" stroke="#63b8ff" points="444.96,-172.04 439.94,-181.37 449.68,-177.2 444.96,-172.04"/>
</a>
</g>
</g>
<!-- Node21&#45;&gt;Node14 -->
<g id="edge43_Node000021_Node000014" class="edge">
<title>Node21&#45;&gt;Node14</title>
<g id="a_edge43_Node000021_Node000014"><a xlink:title=" ">
<path fill="none" stroke="#63b8ff" d="M500.5,-105.16C500.5,-94.74 500.5,-82.3 500.5,-74.17"/>
<polygon fill="#63b8ff" stroke="#63b8ff" points="497,-105.37 500.5,-115.37 504,-105.37 497,-105.37"/>
</a>
</g>
</g>
<!-- Node21&#45;&gt;Node15 -->
<g id="edge42_Node000021_Node000015" class="edge">
<title>Node21&#45;&gt;Node15</title>
<g id="a_edge42_Node000021_Node000015"><a xlink:title=" ">
<path fill="none" stroke="#63b8ff" d="M531.45,-111.8C533.15,-111.18 534.85,-110.58 536.5,-110 642.58,-73.03 770.67,-35.55 828.08,-19.12"/>
<polygon fill="#63b8ff" stroke="#63b8ff" points="529.86,-108.66 521.73,-115.46 532.32,-115.21 529.86,-108.66"/>
</a>
</g>
</g>
</g>
</svg>
