<?xml version="1.0" encoding="UTF-8" standalone="no"?>
<!DOCTYPE svg PUBLIC "-//W3C//DTD SVG 1.1//EN"
 "http://www.w3.org/Graphics/SVG/1.1/DTD/svg11.dtd">
<!-- Generated by graphviz version 2.43.0 (0)
 -->
<!-- Title: async_toys.hpp Pages: 1 -->
<svg width="374pt" height="137pt"
 viewBox="0.00 0.00 373.50 137.00" xmlns="http://www.w3.org/2000/svg" xmlns:xlink="http://www.w3.org/1999/xlink">
<g id="graph0" class="graph" transform="scale(1 1) rotate(0) translate(4 133)">
<title>async_toys.hpp</title>
<!-- Node1 -->
<g id="Node000001" class="node">
<title>Node1</title>
<g id="a_Node000001"><a xlink:title="Small async helper operations used in tests and examples.">
<polygon fill="#999999" stroke="#666666" points="240.5,-129 148.5,-129 148.5,-110 240.5,-110 240.5,-129"/>
<text text-anchor="middle" x="194.5" y="-117" font-family="Helvetica,sans-Serif" font-size="10.00">async_toys.hpp</text>
</a>
</g>
</g>
<!-- Node2 -->
<g id="Node000002" class="node">
<title>Node2</title>
<g id="a_Node000002"><a xlink:href="async__example2_8cpp.html" target="_top" xlink:title=" ">
<polygon fill="white" stroke="#666666" points="119,-74 0,-74 0,-55 119,-55 119,-74"/>
<text text-anchor="middle" x="59.5" y="-62" font-family="Helvetica,sans-Serif" font-size="10.00">async_example2.cpp</text>
</a>
</g>
</g>
<!-- Node1&#45;&gt;Node2 -->
<g id="edge1_Node000001_Node000002" class="edge">
<title>Node1&#45;&gt;Node2</title>
<g id="a_edge1_Node000001_Node000002"><a xlink:title=" ">
<path fill="none" stroke="#63b8ff" d="M163.4,-106.29C138.38,-96.47 103.84,-82.91 81.58,-74.17"/>
<polygon fill="#63b8ff" stroke="#63b8ff" points="162.22,-109.59 172.81,-109.98 164.78,-103.07 162.22,-109.59"/>
</a>
</g>
</g>
<!-- Node3 -->
<g id="Node000003" class="node">
<title>Node3</title>
<g id="a_Node000003"><a xlink:href="future__example_8cpp.html" target="_top" xlink:title=" ">
<polygon fill="white" stroke="#666666" points="251.5,-74 137.5,-74 137.5,-55 251.5,-55 251.5,-74"/>
<text text-anchor="middle" x="194.5" y="-62" font-family="Helvetica,sans-Serif" font-size="10.00">future_example.cpp</text>
</a>
</g>
</g>
<!-- Node1&#45;&gt;Node3 -->
<g id="edge2_Node000001_Node000003" class="edge">
<title>Node1&#45;&gt;Node3</title>
<g id="a_edge2_Node000001_Node000003"><a xlink:title=" ">
<path fill="none" stroke="#63b8ff" d="M194.5,-99.66C194.5,-90.93 194.5,-80.99 194.5,-74.09"/>
<polygon fill="#63b8ff" stroke="#63b8ff" points="191,-99.75 194.5,-109.75 198,-99.75 191,-99.75"/>
</a>
</g>
</g>
<!-- Node4 -->
<g id="Node000004" class="node">
<title>Node4</title>
<g id="a_Node000004"><a xlink:href="var__toys_8hpp.html" target="_top" xlink:title="Demonstration reverse&#45;mode helpers built on Var&lt;T&gt;.">
<polygon fill="white" stroke="#666666" points="349.5,-74 269.5,-74 269.5,-55 349.5,-55 349.5,-74"/>
<text text-anchor="middle" x="309.5" y="-62" font-family="Helvetica,sans-Serif" font-size="10.00">var_toys.hpp</text>
</a>
</g>
</g>
<!-- Node1&#45;&gt;Node4 -->
<g id="edge3_Node000001_Node000004" class="edge">
<title>Node1&#45;&gt;Node4</title>
<g id="a_edge3_Node000001_Node000004"><a xlink:title=" ">
<path fill="none" stroke="#63b8ff" d="M222.13,-105.77C243.34,-95.99 272.06,-82.75 290.69,-74.17"/>
<polygon fill="#63b8ff" stroke="#63b8ff" points="220.59,-102.62 212.98,-109.98 223.52,-108.98 220.59,-102.62"/>
</a>
</g>
</g>
<!-- Node5 -->
<g id="Node000005" class="node">
<title>Node5</title>
<g id="a_Node000005"><a xlink:href="gradient__solver_8cpp.html" target="_top" xlink:title=" ">
<polygon fill="white" stroke="#666666" points="365.5,-19 253.5,-19 253.5,0 365.5,0 365.5,-19"/>
<text text-anchor="middle" x="309.5" y="-7" font-family="Helvetica,sans-Serif" font-size="10.00">gradient_solver.cpp</text>
</a>
</g>
</g>
<!-- Node4&#45;&gt;Node5 -->
<g id="edge4_Node000004_Node000005" class="edge">
<title>Node4&#45;&gt;Node5</title>
<g id="a_edge4_Node000004_Node000005"><a xlink:title=" ">
<path fill="none" stroke="#63b8ff" d="M309.5,-44.66C309.5,-35.93 309.5,-25.99 309.5,-19.09"/>
<polygon fill="#63b8ff" stroke="#63b8ff" points="306,-44.75 309.5,-54.75 313,-44.75 306,-44.75"/>
</a>
</g>
</g>
</g>
</svg>
