<?xml version="1.0" encoding="UTF-8" standalone="no"?>
<!DOCTYPE svg PUBLIC "-//W3C//DTD SVG 1.1//EN"
 "http://www.w3.org/Graphics/SVG/1.1/DTD/svg11.dtd">
<!-- Generated by graphviz version 2.43.0 (0)
 -->
<!-- Title: async.hpp Pages: 1 -->
<!--zoomable 280 -->

<svg id="main" version="1.1" xmlns="http://www.w3.org/2000/svg" xmlns:xlink="http://www.w3.org/1999/xlink" xml:space="preserve" onload="init(evt)">
<style type="text/css"><![CDATA[
.node, .edge {opacity: 0.7;}
.node.selected, .edge.selected {opacity: 1;}
.edge:hover path { stroke: red; }
.edge:hover polygon { stroke: red; fill: red; }
]]></style>

<defs>
  <circle id="rim" cx="0" cy="0" r="7"/>
  <circle id="rim2" cx="0" cy="0" r="3.5"/>
  <g id="zoomPlus">
    <use xlink:href="#rim" fill="#404040"><set attributeName="fill" to="#808080" begin="zoomplus.mouseover" end="zoomplus.mouseout"/></use>
    <path d="M-4,0h8M0,-4v8" fill="none" stroke="white" stroke-width="1.5" pointer-events="none"/>
  </g>
  <g id="zoomMin">
    <use xlink:href="#rim" fill="#404040"><set attributeName="fill" to="#808080" begin="zoomminus.mouseover" end="zoomminus.mouseout"/></use>
    <path d="M-4,0h8" fill="none" stroke="white" stroke-width="1.5" pointer-events="none"/>
  </g>
  <g id="arrowUp" transform="translate(30 24)">
    <use xlink:href="#rim"/>
    <path pointer-events="none" fill="none" stroke="white" stroke-width="1.5" d="M0,-3.0v7 M-2.5,-0.5L0,-3.0L2.5,-0.5"/>
  </g>
  <g id="arrowRight" transform="rotate(90) translate(36 -43)">
    <use xlink:href="#rim"/>
    <path pointer-events="none" fill="none" stroke="white" stroke-width="1.5" d="M0,-3.0v7 M-2.5,-0.5L0,-3.0L2.5,-0.5"/>
  </g>
  <g id="arrowDown" transform="rotate(180) translate(-30 -48)">
    <use xlink:href="#rim"/>
    <path pointer-events="none" fill="none" stroke="white" stroke-width="1.5" d="M0,-3.0v7 M-2.5,-0.5L0,-3.0L2.5,-0.5"/>
  </g>
  <g id="arrowLeft" transform="rotate(270) translate(-36 17)">
    <use xlink:href="#rim"/>
    <path pointer-events="none" fill="none" stroke="white" stroke-width="1.5" d="M0,-3.0v7 M-2.5,-0.5L0,-3.0L2.5,-0.5"/>
  </g>
  <g id="resetDef">
    <use xlink:href="#rim2" fill="#404040"><set attributeName="fill" to="#808080" begin="reset.mouseover" end="reset.mouseout"/></use>
  </g>
</defs>
<script type="application/ecmascript">
var viewWidth = 1311;
var viewHeight = 280;
var sectionId = 'dynsection-1';
</script>
<script type="application/ecmascript" xlink:href="svg.min.js"/>
<svg id="graph" class="graph">
<g id="viewport">
<title>async.hpp</title>
<!-- Node1 -->
<g id="Node000001" class="node">
<title>Node1</title>
<g id="a_Node000001"><a xlink:title="The Async&lt;T&gt; container: coroutine‐safe asynchronous read/write.">
<polygon fill="#999999" stroke="#666666" points="747.42,-272 681.42,-272 681.42,-253 747.42,-253 747.42,-272"/>
<text text-anchor="middle" x="714.42" y="-260" font-family="Helvetica,sans-Serif" font-size="10.00">async.hpp</text>
</a>
</g>
</g>
<!-- Node2 -->
<g id="Node000002" class="node">
<title>Node2</title>
<g id="a_Node000002"><a xlink:href="ad__example_8cpp.html" target="_top" xlink:title=" ">
<polygon fill="white" stroke="#666666" points="758.92,-145.5 661.92,-145.5 661.92,-126.5 758.92,-126.5 758.92,-145.5"/>
<text text-anchor="middle" x="710.42" y="-133.5" font-family="Helvetica,sans-Serif" font-size="10.00">ad_example.cpp</text>
</a>
</g>
</g>
<!-- Node1&#45;&gt;Node2 -->
<g id="edge1_Node000001_Node000002" class="edge">
<title>Node1&#45;&gt;Node2</title>
<g id="a_edge1_Node000001_Node000002"><a xlink:title=" ">
<path fill="none" stroke="#63b8ff" d="M757.47,-256.25C782.08,-250.79 811.04,-239.67 826.42,-217 833.91,-205.97 833.75,-198.14 826.42,-187 811.48,-164.28 783.79,-151.84 759.22,-145.05"/>
<polygon fill="#63b8ff" stroke="#63b8ff" points="756.72,-252.83 747.59,-258.2 758.08,-259.7 756.72,-252.83"/>
</a>
</g>
</g>
<!-- Node3 -->
<g id="Node000003" class="node">
<title>Node3</title>
<g id="a_Node000003"><a xlink:href="async__buffer__semantics__example_8cpp.html" target="_top" xlink:title=" ">
<polygon fill="white" stroke="#666666" points="176.42,-151 42.42,-151 42.42,-121 176.42,-121 176.42,-151"/>
<text text-anchor="start" x="50.42" y="-139" font-family="Helvetica,sans-Serif" font-size="10.00">async_buffer_semantics</text>
<text text-anchor="middle" x="109.42" y="-128" font-family="Helvetica,sans-Serif" font-size="10.00">_example.cpp</text>
</a>
</g>
</g>
<!-- Node1&#45;&gt;Node3 -->
<g id="edge2_Node000001_Node000003" class="edge">
<title>Node1&#45;&gt;Node3</title>
<g id="a_edge2_Node000001_Node000003"><a xlink:title=" ">
<path fill="none" stroke="#63b8ff" d="M670.96,-261.49C592.82,-260.49 424.04,-253.8 287.42,-217 229.85,-201.49 167.3,-169.49 133.84,-151.01"/>
<polygon fill="#63b8ff" stroke="#63b8ff" points="671.34,-265 681.37,-261.6 671.41,-258 671.34,-265"/>
</a>
</g>
</g>
<!-- Node4 -->
<g id="Node000004" class="node">
<title>Node4</title>
<g id="a_Node000004"><a xlink:href="async__example_8cpp.html" target="_top" xlink:title=" ">
<polygon fill="white" stroke="#666666" points="643.92,-145.5 530.92,-145.5 530.92,-126.5 643.92,-126.5 643.92,-145.5"/>
<text text-anchor="middle" x="587.42" y="-133.5" font-family="Helvetica,sans-Serif" font-size="10.00">async_example.cpp</text>
</a>
</g>
</g>
<!-- Node1&#45;&gt;Node4 -->
<g id="edge3_Node000001_Node000004" class="edge">
<title>Node1&#45;&gt;Node4</title>
<g id="a_edge3_Node000001_Node000004"><a xlink:title=" ">
<path fill="none" stroke="#63b8ff" d="M671,-255.39C628.63,-248.42 568.52,-235.56 554.42,-217 537.15,-194.27 563.7,-161.21 578.53,-145.68"/>
<polygon fill="#63b8ff" stroke="#63b8ff" points="670.66,-258.88 681.09,-256.99 671.76,-251.96 670.66,-258.88"/>
</a>
</g>
</g>
<!-- Node5 -->
<g id="Node000005" class="node">
<title>Node5</title>
<g id="a_Node000005"><a xlink:href="async__example2_8cpp.html" target="_top" xlink:title=" ">
<polygon fill="white" stroke="#666666" points="837.92,-79.5 718.92,-79.5 718.92,-60.5 837.92,-60.5 837.92,-79.5"/>
<text text-anchor="middle" x="778.42" y="-67.5" font-family="Helvetica,sans-Serif" font-size="10.00">async_example2.cpp</text>
</a>
</g>
</g>
<!-- Node1&#45;&gt;Node5 -->
<g id="edge4_Node000001_Node000005" class="edge">
<title>Node1&#45;&gt;Node5</title>
<g id="a_edge4_Node000001_Node000005"><a xlink:title=" ">
<path fill="none" stroke="#63b8ff" d="M701.35,-244.57C690.71,-228.56 679.28,-204.46 691.42,-187 717.68,-149.25 762.17,-188.75 788.42,-151 803.69,-129.05 790.61,-95.32 782.98,-79.61"/>
<polygon fill="#63b8ff" stroke="#63b8ff" points="698.68,-246.85 707.34,-252.95 704.37,-242.77 698.68,-246.85"/>
</a>
</g>
</g>
<!-- Node6 -->
<g id="Node000006" class="node">
<title>Node6</title>
<g id="a_Node000006"><a xlink:href="async__fib__example_8cpp.html" target="_top" xlink:title=" ">
<polygon fill="white" stroke="#666666" points="613.92,-79.5 482.92,-79.5 482.92,-60.5 613.92,-60.5 613.92,-79.5"/>
<text text-anchor="middle" x="548.42" y="-67.5" font-family="Helvetica,sans-Serif" font-size="10.00">async_fib_example.cpp</text>
</a>
</g>
</g>
<!-- Node1&#45;&gt;Node6 -->
<g id="edge5_Node000001_Node000006" class="edge">
<title>Node1&#45;&gt;Node6</title>
<g id="a_edge5_Node000001_Node000006"><a xlink:title=" ">
<path fill="none" stroke="#63b8ff" d="M671.15,-262.09C532.76,-262.91 105.79,-256.72 33.42,-151 25.89,-140 24.39,-130.8 33.42,-121 66.66,-84.93 424.8,-91.51 473.42,-85 484.32,-83.54 496.03,-81.56 506.89,-79.54"/>
<polygon fill="#63b8ff" stroke="#63b8ff" points="671.39,-265.59 681.37,-262.02 671.34,-258.59 671.39,-265.59"/>
</a>
</g>
</g>
<!-- Node7 -->
<g id="Node000007" class="node">
<title>Node7</title>
<g id="a_Node000007"><a xlink:href="async__kernel__shapes__example_8cpp.html" target="_top" xlink:title=" ">
<polygon fill="white" stroke="#666666" points="310.42,-85 190.42,-85 190.42,-55 310.42,-55 310.42,-85"/>
<text text-anchor="start" x="198.42" y="-73" font-family="Helvetica,sans-Serif" font-size="10.00">async_kernel_shapes</text>
<text text-anchor="middle" x="250.42" y="-62" font-family="Helvetica,sans-Serif" font-size="10.00">_example.cpp</text>
</a>
</g>
</g>
<!-- Node1&#45;&gt;Node7 -->
<g id="edge6_Node000001_Node000007" class="edge">
<title>Node1&#45;&gt;Node7</title>
<g id="a_edge6_Node000001_Node000007"><a xlink:title=" ">
<path fill="none" stroke="#63b8ff" d="M670.95,-261.42C529.19,-260.78 86.53,-255.67 36.42,-217 1.77,-190.26 -13.13,-155.01 14.42,-121 36.18,-94.15 127.93,-81.14 190.41,-75.29"/>
<polygon fill="#63b8ff" stroke="#63b8ff" points="671,-264.92 681.02,-261.46 671.03,-257.92 671,-264.92"/>
</a>
</g>
</g>
<!-- Node8 -->
<g id="Node000008" class="node">
<title>Node8</title>
<g id="a_Node000008"><a xlink:href="async__ops_8hpp.html" target="_top" xlink:title="Concepts and helpers for composing Async expressions.">
<polygon fill="white" stroke="#666666" points="473.92,-145.5 384.92,-145.5 384.92,-126.5 473.92,-126.5 473.92,-145.5"/>
<text text-anchor="middle" x="429.42" y="-133.5" font-family="Helvetica,sans-Serif" font-size="10.00">async_ops.hpp</text>
</a>
</g>
</g>
<!-- Node1&#45;&gt;Node8 -->
<g id="edge7_Node000001_Node000008" class="edge">
<title>Node1&#45;&gt;Node8</title>
<g id="a_edge7_Node000001_Node000008"><a xlink:title=" ">
<path fill="none" stroke="#63b8ff" d="M671.33,-254.56C636.08,-247.88 585.53,-235.95 544.42,-217 501.79,-197.35 458.08,-161.86 439.14,-145.58"/>
<polygon fill="#63b8ff" stroke="#63b8ff" points="670.83,-258.03 681.3,-256.39 672.09,-251.14 670.83,-258.03"/>
</a>
</g>
</g>
<!-- Node10 -->
<g id="Node000010" class="node">
<title>Node10</title>
<g id="a_Node000010"><a xlink:href="async__ops__example_8cpp.html" target="_top" xlink:title=" ">
<polygon fill="white" stroke="#666666" points="464.42,-79.5 328.42,-79.5 328.42,-60.5 464.42,-60.5 464.42,-79.5"/>
<text text-anchor="middle" x="396.42" y="-67.5" font-family="Helvetica,sans-Serif" font-size="10.00">async_ops_example.cpp</text>
</a>
</g>
</g>
<!-- Node1&#45;&gt;Node10 -->
<g id="edge16_Node000001_Node000010" class="edge">
<title>Node1&#45;&gt;Node10</title>
<g id="a_edge16_Node000001_Node000010"><a xlink:title=" ">
<path fill="none" stroke="#63b8ff" d="M670.95,-260.45C535.95,-256.92 129.85,-244.12 77.42,-217 43.76,-199.59 36.17,-186.69 23.42,-151 18.94,-138.44 14.58,-130.98 23.42,-121 67.36,-71.4 253.91,-94.93 319.42,-85 330.04,-83.39 341.43,-81.44 352.12,-79.52"/>
<polygon fill="#63b8ff" stroke="#63b8ff" points="671.22,-263.96 681.31,-260.72 671.4,-256.96 671.22,-263.96"/>
</a>
</g>
</g>
<!-- Node11 -->
<g id="Node000011" class="node">
<title>Node11</title>
<g id="a_Node000011"><a xlink:href="future__example_8cpp.html" target="_top" xlink:title=" ">
<polygon fill="white" stroke="#666666" points="970.42,-79.5 856.42,-79.5 856.42,-60.5 970.42,-60.5 970.42,-79.5"/>
<text text-anchor="middle" x="913.42" y="-67.5" font-family="Helvetica,sans-Serif" font-size="10.00">future_example.cpp</text>
</a>
</g>
</g>
<!-- Node1&#45;&gt;Node11 -->
<g id="edge41_Node000001_Node000011" class="edge">
<title>Node1&#45;&gt;Node11</title>
<g id="a_edge41_Node000001_Node000011"><a xlink:title=" ">
<path fill="none" stroke="#63b8ff" d="M757.93,-259.77C824.05,-256.24 945.44,-245.9 976.42,-217 1008.06,-187.5 1013.28,-158.89 992.42,-121 981.15,-100.52 957.56,-87.26 939.08,-79.58"/>
<polygon fill="#63b8ff" stroke="#63b8ff" points="757.62,-256.28 747.81,-260.28 757.97,-263.27 757.62,-256.28"/>
</a>
</g>
</g>
<!-- Node13 -->
<g id="Node000013" class="node">
<title>Node13</title>
<g id="a_Node000013"><a xlink:href="async__tbb__reduction__example_8cpp.html" target="_top" xlink:title="Example of using uni20 coroutines with the TbbScheduler to parallelize a map–reduce computation.">
<polygon fill="white" stroke="#666666" points="816.92,-217 699.92,-217 699.92,-187 816.92,-187 816.92,-217"/>
<text text-anchor="start" x="707.92" y="-205" font-family="Helvetica,sans-Serif" font-size="10.00">async_tbb_reduction</text>
<text text-anchor="middle" x="758.42" y="-194" font-family="Helvetica,sans-Serif" font-size="10.00">_example.cpp</text>
</a>
</g>
</g>
<!-- Node1&#45;&gt;Node13 -->
<g id="edge17_Node000001_Node000013" class="edge">
<title>Node1&#45;&gt;Node13</title>
<g id="a_edge17_Node000001_Node000013"><a xlink:title=" ">
<path fill="none" stroke="#63b8ff" d="M727.13,-244.61C733.68,-235.89 741.58,-225.39 747.81,-217.11"/>
<polygon fill="#63b8ff" stroke="#63b8ff" points="724.13,-242.77 720.92,-252.87 729.72,-246.98 724.13,-242.77"/>
</a>
</g>
</g>
<!-- Node14 -->
<g id="Node000014" class="node">
<title>Node14</title>
<g id="a_Node000014"><a xlink:href="async__toys_8hpp.html" target="_top" xlink:title="Small async helper operations used in tests and examples.">
<polygon fill="white" stroke="#666666" points="983.42,-145.5 891.42,-145.5 891.42,-126.5 983.42,-126.5 983.42,-145.5"/>
<text text-anchor="middle" x="937.42" y="-133.5" font-family="Helvetica,sans-Serif" font-size="10.00">async_toys.hpp</text>
</a>
</g>
</g>
<!-- Node1&#45;&gt;Node14 -->
<g id="edge18_Node000001_Node000014" class="edge">
<title>Node1&#45;&gt;Node14</title>
<g id="a_edge18_Node000001_Node000014"><a xlink:title=" ">
<path fill="none" stroke="#63b8ff" d="M757.48,-250.8C783.14,-243.4 815.8,-232.15 842.42,-217 878.41,-196.53 913.85,-161.76 929.33,-145.66"/>
<polygon fill="#63b8ff" stroke="#63b8ff" points="756.35,-247.48 747.66,-253.54 758.23,-254.22 756.35,-247.48"/>
</a>
</g>
</g>
<!-- Node16 -->
<g id="Node000016" class="node">
<title>Node16</title>
<g id="a_Node000016"><a xlink:href="awaiters_8hpp.html" target="_top" xlink:title="Utilities for awaiting on Async&lt;T&gt;: co_await overload, all(), try_await().">
<polygon fill="white" stroke="#666666" points="643.42,-211.5 563.42,-211.5 563.42,-192.5 643.42,-192.5 643.42,-211.5"/>
<text text-anchor="middle" x="603.42" y="-199.5" font-family="Helvetica,sans-Serif" font-size="10.00">awaiters.hpp</text>
</a>
</g>
</g>
<!-- Node1&#45;&gt;Node16 -->
<g id="edge23_Node000001_Node000016" class="edge">
<title>Node1&#45;&gt;Node16</title>
<g id="a_edge23_Node000001_Node000016"><a xlink:title=" ">
<path fill="none" stroke="#63b8ff" d="M688.95,-248.08C667.72,-236.88 638.1,-221.27 619.87,-211.67"/>
<polygon fill="#63b8ff" stroke="#63b8ff" points="687.57,-251.3 698.05,-252.87 690.83,-245.11 687.57,-251.3"/>
</a>
</g>
</g>
<!-- Node17 -->
<g id="Node000017" class="node">
<title>Node17</title>
<g id="a_Node000017"><a xlink:href="bug_8cpp.html" target="_top" xlink:title=" ">
<polygon fill="white" stroke="#666666" points="966.92,-211.5 911.92,-211.5 911.92,-192.5 966.92,-192.5 966.92,-211.5"/>
<text text-anchor="middle" x="939.42" y="-199.5" font-family="Helvetica,sans-Serif" font-size="10.00">bug.cpp</text>
</a>
</g>
</g>
<!-- Node1&#45;&gt;Node17 -->
<g id="edge29_Node000001_Node000017" class="edge">
<title>Node1&#45;&gt;Node17</title>
<g id="a_edge29_Node000001_Node000017"><a xlink:title=" ">
<path fill="none" stroke="#63b8ff" d="M757.71,-252.04C794.96,-243.65 850.03,-230.63 897.42,-217 903.04,-215.38 909.02,-213.49 914.66,-211.64"/>
<polygon fill="#63b8ff" stroke="#63b8ff" points="756.7,-248.68 747.7,-254.28 758.22,-255.51 756.7,-248.68"/>
</a>
</g>
</g>
<!-- Node18 -->
<g id="Node000018" class="node">
<title>Node18</title>
<g id="a_Node000018"><a xlink:href="debug__scheduler_8hpp.html" target="_top" xlink:title="Coroutine scheduler for AsyncTask.">
<polygon fill="white" stroke="#666666" points="415.92,-211.5 296.92,-211.5 296.92,-192.5 415.92,-192.5 415.92,-211.5"/>
<text text-anchor="middle" x="356.42" y="-199.5" font-family="Helvetica,sans-Serif" font-size="10.00">debug_scheduler.hpp</text>
</a>
</g>
</g>
<!-- Node1&#45;&gt;Node18 -->
<g id="edge30_Node000001_Node000018" class="edge">
<title>Node1&#45;&gt;Node18</title>
<g id="a_edge30_Node000001_Node000018"><a xlink:title=" ">
<path fill="none" stroke="#63b8ff" d="M671.33,-254.46C605.37,-243.68 479.55,-223.12 408.55,-211.52"/>
<polygon fill="#63b8ff" stroke="#63b8ff" points="670.95,-257.94 681.39,-256.1 672.08,-251.03 670.95,-257.94"/>
</a>
</g>
</g>
<!-- Node19 -->
<g id="Node000019" class="node">
<title>Node19</title>
<g id="a_Node000019"><a xlink:href="future__value_8hpp.html" target="_top" xlink:title="Write&#45;once async wrappers (FutureValue and Defer) built on Async&lt;T&gt;.">
<polygon fill="white" stroke="#666666" points="1122.92,-211.5 1023.92,-211.5 1023.92,-192.5 1122.92,-192.5 1122.92,-211.5"/>
<text text-anchor="middle" x="1073.42" y="-199.5" font-family="Helvetica,sans-Serif" font-size="10.00">future_value.hpp</text>
</a>
</g>
</g>
<!-- Node1&#45;&gt;Node19 -->
<g id="edge42_Node000001_Node000019" class="edge">
<title>Node1&#45;&gt;Node19</title>
<g id="a_edge42_Node000001_Node000019"><a xlink:title=" ">
<path fill="none" stroke="#63b8ff" d="M757.93,-255.85C815.61,-248.14 920.48,-233.42 1009.42,-217 1018.15,-215.39 1027.5,-213.46 1036.28,-211.56"/>
<polygon fill="#63b8ff" stroke="#63b8ff" points="757.17,-252.42 747.72,-257.2 758.1,-259.36 757.17,-252.42"/>
</a>
</g>
</g>
<!-- Node20 -->
<g id="Node000020" class="node">
<title>Node20</title>
<g id="a_Node000020"><a xlink:href="reverse__value_8hpp.html" target="_top" xlink:title="Reverse&#45;mode gradient accumulation channel built on reverse epoch queues.">
<polygon fill="white" stroke="#666666" points="1286.92,-211.5 1179.92,-211.5 1179.92,-192.5 1286.92,-192.5 1286.92,-211.5"/>
<text text-anchor="middle" x="1233.42" y="-199.5" font-family="Helvetica,sans-Serif" font-size="10.00">reverse_value.hpp</text>
</a>
</g>
</g>
<!-- Node1&#45;&gt;Node20 -->
<g id="edge44_Node000001_Node000020" class="edge">
<title>Node1&#45;&gt;Node20</title>
<g id="a_edge44_Node000001_Node000020"><a xlink:title=" ">
<path fill="none" stroke="#63b8ff" d="M757.94,-258.73C838.61,-253.25 1016.72,-239.58 1165.42,-217 1175.2,-215.52 1185.68,-213.55 1195.43,-211.55"/>
<polygon fill="#63b8ff" stroke="#63b8ff" points="757.42,-255.26 747.67,-259.42 757.88,-262.24 757.42,-255.26"/>
</a>
</g>
</g>
<!-- Node21 -->
<g id="Node000021" class="node">
<title>Node21</title>
<g id="a_Node000021"><a xlink:href="var_8hpp.html" target="_top" xlink:title=" ">
<polygon fill="white" stroke="#666666" points="1251.92,-145.5 1198.92,-145.5 1198.92,-126.5 1251.92,-126.5 1251.92,-145.5"/>
<text text-anchor="middle" x="1225.42" y="-133.5" font-family="Helvetica,sans-Serif" font-size="10.00">var.hpp</text>
</a>
</g>
</g>
<!-- Node1&#45;&gt;Node21 -->
<g id="edge48_Node000001_Node000021" class="edge">
<title>Node1&#45;&gt;Node21</title>
<g id="a_edge48_Node000001_Node000021"><a xlink:title=" ">
<path fill="none" stroke="#63b8ff" d="M758.11,-261.5C887.19,-261.03 1260.04,-256.27 1296.42,-217 1320.15,-191.39 1270.74,-160.25 1242.81,-145.51"/>
<polygon fill="#63b8ff" stroke="#63b8ff" points="757.81,-258 747.82,-261.53 757.83,-265 757.81,-258"/>
</a>
</g>
</g>
<!-- Node8&#45;&gt;Node5 -->
<g id="edge8_Node000008_Node000005" class="edge">
<title>Node8&#45;&gt;Node5</title>
<g id="a_edge8_Node000008_Node000005"><a xlink:title=" ">
<path fill="none" stroke="#63b8ff" d="M473.72,-124.18C478.67,-123.06 483.65,-121.98 488.42,-121 569.63,-104.38 664.39,-88.74 722.91,-79.52"/>
<polygon fill="#63b8ff" stroke="#63b8ff" points="472.62,-120.84 463.66,-126.49 474.19,-127.66 472.62,-120.84"/>
</a>
</g>
</g>
<!-- Node8&#45;&gt;Node6 -->
<g id="edge9_Node000008_Node000006" class="edge">
<title>Node8&#45;&gt;Node6</title>
<g id="a_edge9_Node000008_Node000006"><a xlink:title=" ">
<path fill="none" stroke="#63b8ff" d="M454.47,-121.53C477.91,-108.92 512.23,-90.47 532.25,-79.7"/>
<polygon fill="#63b8ff" stroke="#63b8ff" points="452.62,-118.55 445.47,-126.37 455.94,-124.71 452.62,-118.55"/>
</a>
</g>
</g>
<!-- Node8&#45;&gt;Node7 -->
<g id="edge12_Node000008_Node000007" class="edge">
<title>Node8&#45;&gt;Node7</title>
<g id="a_edge12_Node000008_Node000007"><a xlink:title=" ">
<path fill="none" stroke="#63b8ff" d="M395.66,-122.93C365.59,-112.18 321.59,-96.44 289.9,-85.12"/>
<polygon fill="#63b8ff" stroke="#63b8ff" points="394.69,-126.3 405.28,-126.37 397.04,-119.71 394.69,-126.3"/>
</a>
</g>
</g>
<!-- Node9 -->
<g id="Node000009" class="node">
<title>Node9</title>
<g id="a_Node000009"><a xlink:href="async__impl_8hpp.html" target="_top" xlink:title="Inline implementation of Async&lt;T&gt; helpers and task await transforms.">
<polygon fill="white" stroke="#666666" points="1081.92,-79.5 988.92,-79.5 988.92,-60.5 1081.92,-60.5 1081.92,-79.5"/>
<text text-anchor="middle" x="1035.42" y="-67.5" font-family="Helvetica,sans-Serif" font-size="10.00">async_impl.hpp</text>
</a>
</g>
</g>
<!-- Node8&#45;&gt;Node9 -->
<g id="edge10_Node000008_Node000009" class="edge">
<title>Node8&#45;&gt;Node9</title>
<g id="a_edge10_Node000008_Node000009"><a xlink:title=" ">
<path fill="none" stroke="#63b8ff" d="M484.52,-126.05C496.97,-124.21 510.13,-122.41 522.42,-121 724.84,-97.82 778.34,-117.82 979.42,-85 987.83,-83.63 996.83,-81.62 1005.1,-79.56"/>
<polygon fill="#63b8ff" stroke="#63b8ff" points="483.64,-122.64 474.28,-127.59 484.69,-129.56 483.64,-122.64"/>
</a>
</g>
</g>
<!-- Node8&#45;&gt;Node10 -->
<g id="edge13_Node000008_Node000010" class="edge">
<title>Node8&#45;&gt;Node10</title>
<g id="a_edge13_Node000008_Node000010"><a xlink:title=" ">
<path fill="none" stroke="#63b8ff" d="M420.24,-117.18C413.98,-105.05 405.97,-89.51 401.02,-79.91"/>
<polygon fill="#63b8ff" stroke="#63b8ff" points="417.28,-119.08 424.97,-126.37 423.5,-115.88 417.28,-119.08"/>
</a>
</g>
</g>
<!-- Node8&#45;&gt;Node11 -->
<g id="edge14_Node000008_Node000011" class="edge">
<title>Node8&#45;&gt;Node11</title>
<g id="a_edge14_Node000008_Node000011"><a xlink:title=" ">
<path fill="none" stroke="#63b8ff" d="M471.86,-124.22C477.41,-123.02 483.04,-121.9 488.42,-121 646.56,-94.43 688.98,-109.67 847.42,-85 856.91,-83.52 867.1,-81.55 876.55,-79.56"/>
<polygon fill="#63b8ff" stroke="#63b8ff" points="471.01,-120.82 462.03,-126.44 472.56,-127.65 471.01,-120.82"/>
</a>
</g>
</g>
<!-- Node12 -->
<g id="Node000012" class="node">
<title>Node12</title>
<g id="a_Node000012"><a xlink:href="gradient__solver_8cpp.html" target="_top" xlink:title=" ">
<polygon fill="white" stroke="#666666" points="955.42,-19 843.42,-19 843.42,0 955.42,0 955.42,-19"/>
<text text-anchor="middle" x="899.42" y="-7" font-family="Helvetica,sans-Serif" font-size="10.00">gradient_solver.cpp</text>
</a>
</g>
</g>
<!-- Node8&#45;&gt;Node12 -->
<g id="edge15_Node000008_Node000012" class="edge">
<title>Node8&#45;&gt;Node12</title>
<g id="a_edge15_Node000008_Node000012"><a xlink:title=" ">
<path fill="none" stroke="#63b8ff" d="M473.69,-124.03C521.84,-112.01 595.67,-93.35 623.42,-85 662.59,-73.22 671.13,-66.37 710.42,-55 760.61,-40.48 819.31,-27.23 857.82,-19.03"/>
<polygon fill="#63b8ff" stroke="#63b8ff" points="472.68,-120.67 463.82,-126.49 474.37,-127.46 472.68,-120.67"/>
</a>
</g>
</g>
<!-- Node9&#45;&gt;Node1 -->
<g id="edge11_Node000009_Node000001" class="edge">
<title>Node9&#45;&gt;Node1</title>
<g id="a_edge11_Node000009_Node000001"><a xlink:title=" ">
<path fill="none" stroke="#63b8ff" d="M1057.56,-85.43C1096.96,-112.8 1171.61,-173.43 1132.42,-217 1106.81,-245.49 841.94,-257.18 747.58,-260.47"/>
<polygon fill="#63b8ff" stroke="#63b8ff" points="1059.08,-82.23 1048.84,-79.51 1055.15,-88.02 1059.08,-82.23"/>
</a>
</g>
</g>
<!-- Node14&#45;&gt;Node5 -->
<g id="edge19_Node000014_Node000005" class="edge">
<title>Node14&#45;&gt;Node5</title>
<g id="a_edge19_Node000014_Node000005"><a xlink:title=" ">
<path fill="none" stroke="#63b8ff" d="M906.4,-122.51C874.97,-109.86 827.2,-90.63 799.78,-79.6"/>
<polygon fill="#63b8ff" stroke="#63b8ff" points="905.4,-125.88 915.98,-126.37 908.01,-119.39 905.4,-125.88"/>
</a>
</g>
</g>
<!-- Node14&#45;&gt;Node11 -->
<g id="edge20_Node000014_Node000011" class="edge">
<title>Node14&#45;&gt;Node11</title>
<g id="a_edge20_Node000014_Node000011"><a xlink:title=" ">
<path fill="none" stroke="#63b8ff" d="M930.61,-116.82C926.08,-104.74 920.33,-89.41 916.76,-79.91"/>
<polygon fill="#63b8ff" stroke="#63b8ff" points="927.4,-118.23 934.19,-126.37 933.95,-115.78 927.4,-118.23"/>
</a>
</g>
</g>
<!-- Node15 -->
<g id="Node000015" class="node">
<title>Node15</title>
<g id="a_Node000015"><a xlink:href="var__toys_8hpp.html" target="_top" xlink:title="Demonstration reverse&#45;mode helpers built on Var&lt;T&gt;.">
<polygon fill="white" stroke="#666666" points="1180.42,-79.5 1100.42,-79.5 1100.42,-60.5 1180.42,-60.5 1180.42,-79.5"/>
<text text-anchor="middle" x="1140.42" y="-67.5" font-family="Helvetica,sans-Serif" font-size="10.00">var_toys.hpp</text>
</a>
</g>
</g>
<!-- Node14&#45;&gt;Node15 -->
<g id="edge21_Node000014_Node000015" class="edge">
<title>Node14&#45;&gt;Node15</title>
<g id="a_edge21_Node000014_Node000015"><a xlink:title=" ">
<path fill="none" stroke="#63b8ff" d="M974.46,-123.32C1014.51,-110.7 1077.4,-90.87 1113.16,-79.6"/>
<polygon fill="#63b8ff" stroke="#63b8ff" points="973.29,-120.02 964.8,-126.37 975.39,-126.7 973.29,-120.02"/>
</a>
</g>
</g>
<!-- Node15&#45;&gt;Node12 -->
<g id="edge22_Node000015_Node000012" class="edge">
<title>Node15&#45;&gt;Node12</title>
<g id="a_edge22_Node000015_Node000012"><a xlink:title=" ">
<path fill="none" stroke="#63b8ff" d="M1101.74,-57.75C1098.26,-56.8 1094.78,-55.87 1091.42,-55 1038.92,-41.42 977.83,-27.6 938.91,-19.04"/>
<polygon fill="#63b8ff" stroke="#63b8ff" points="1100.9,-61.15 1111.47,-60.47 1102.78,-54.41 1100.9,-61.15"/>
</a>
</g>
</g>
<!-- Node16&#45;&gt;Node2 -->
<g id="edge24_Node000016_Node000002" class="edge">
<title>Node16&#45;&gt;Node2</title>
<g id="a_edge24_Node000016_Node000002"><a xlink:title=" ">
<path fill="none" stroke="#63b8ff" d="M626.51,-187.19C647.57,-174.59 678.04,-156.37 695.88,-145.7"/>
<polygon fill="#63b8ff" stroke="#63b8ff" points="624.64,-184.23 617.85,-192.37 628.23,-190.24 624.64,-184.23"/>
</a>
</g>
</g>
<!-- Node16&#45;&gt;Node4 -->
<g id="edge25_Node000016_Node000004" class="edge">
<title>Node16&#45;&gt;Node4</title>
<g id="a_edge25_Node000016_Node000004"><a xlink:title=" ">
<path fill="none" stroke="#63b8ff" d="M598.79,-182.45C595.78,-170.43 592,-155.32 589.65,-145.91"/>
<polygon fill="#63b8ff" stroke="#63b8ff" points="595.44,-183.52 601.27,-192.37 602.24,-181.82 595.44,-183.52"/>
</a>
</g>
</g>
<!-- Node16&#45;&gt;Node5 -->
<g id="edge26_Node000016_Node000005" class="edge">
<title>Node16&#45;&gt;Node5</title>
<g id="a_edge26_Node000016_Node000005"><a xlink:title=" ">
<path fill="none" stroke="#63b8ff" d="M644.68,-189.71C692.19,-176.52 764.3,-155.89 768.42,-151 785.75,-130.45 782.71,-95.73 780.11,-79.65"/>
<polygon fill="#63b8ff" stroke="#63b8ff" points="643.65,-186.36 634.95,-192.4 645.52,-193.11 643.65,-186.36"/>
</a>
</g>
</g>
<!-- Node16&#45;&gt;Node8 -->
<g id="edge27_Node000016_Node000008" class="edge">
<title>Node16&#45;&gt;Node8</title>
<g id="a_edge27_Node000016_Node000008"><a xlink:title=" ">
<path fill="none" stroke="#63b8ff" d="M570.36,-188.84C535.99,-176.2 483.06,-156.73 452.8,-145.6"/>
<polygon fill="#63b8ff" stroke="#63b8ff" points="569.36,-192.2 579.96,-192.37 571.78,-185.63 569.36,-192.2"/>
</a>
</g>
</g>
<!-- Node16&#45;&gt;Node11 -->
<g id="edge28_Node000016_Node000011" class="edge">
<title>Node16&#45;&gt;Node11</title>
<g id="a_edge28_Node000016_Node000011"><a xlink:title=" ">
<path fill="none" stroke="#63b8ff" d="M653.42,-191.82C691.46,-183.81 744.58,-170.4 788.42,-151 833.66,-130.98 881.35,-95.99 902.37,-79.75"/>
<polygon fill="#63b8ff" stroke="#63b8ff" points="652.69,-188.39 643.6,-193.83 654.1,-195.25 652.69,-188.39"/>
</a>
</g>
</g>
<!-- Node18&#45;&gt;Node2 -->
<g id="edge31_Node000018_Node000002" class="edge">
<title>Node18&#45;&gt;Node2</title>
<g id="a_edge31_Node000018_Node000002"><a xlink:title=" ">
<path fill="none" stroke="#63b8ff" d="M424.88,-190.95C485.25,-181.74 575.49,-167.11 653.42,-151 661.21,-149.39 669.54,-147.46 677.36,-145.56"/>
<polygon fill="#63b8ff" stroke="#63b8ff" points="424.07,-187.53 414.71,-192.49 425.12,-194.45 424.07,-187.53"/>
</a>
</g>
</g>
<!-- Node18&#45;&gt;Node3 -->
<g id="edge32_Node000018_Node000003" class="edge">
<title>Node18&#45;&gt;Node3</title>
<g id="a_edge32_Node000018_Node000003"><a xlink:title=" ">
<path fill="none" stroke="#63b8ff" d="M313.54,-189.89C271.92,-179.1 208.62,-162.7 163.55,-151.02"/>
<polygon fill="#63b8ff" stroke="#63b8ff" points="312.81,-193.31 323.37,-192.44 314.57,-186.54 312.81,-193.31"/>
</a>
</g>
</g>
<!-- Node18&#45;&gt;Node4 -->
<g id="edge33_Node000018_Node000004" class="edge">
<title>Node18&#45;&gt;Node4</title>
<g id="a_edge33_Node000018_Node000004"><a xlink:title=" ">
<path fill="none" stroke="#63b8ff" d="M397.42,-189.64C442.92,-177.03 515.36,-156.97 556.4,-145.6"/>
<polygon fill="#63b8ff" stroke="#63b8ff" points="396.28,-186.33 387.58,-192.37 398.15,-193.07 396.28,-186.33"/>
</a>
</g>
</g>
<!-- Node18&#45;&gt;Node5 -->
<g id="edge34_Node000018_Node000005" class="edge">
<title>Node18&#45;&gt;Node5</title>
<g id="a_edge34_Node000018_Node000005"><a xlink:title=" ">
<path fill="none" stroke="#63b8ff" d="M355.26,-182.34C355.22,-163.91 358.34,-136.3 375.42,-121 388.06,-109.68 609.56,-87.11 718.67,-76.61"/>
<polygon fill="#63b8ff" stroke="#63b8ff" points="351.76,-182.57 355.6,-192.45 358.76,-182.34 351.76,-182.57"/>
</a>
</g>
</g>
<!-- Node18&#45;&gt;Node6 -->
<g id="edge35_Node000018_Node000006" class="edge">
<title>Node18&#45;&gt;Node6</title>
<g id="a_edge35_Node000018_Node000006"><a xlink:title=" ">
<path fill="none" stroke="#63b8ff" d="M346.19,-183.33C337.49,-165.72 328.44,-138.79 342.42,-121 347.58,-114.44 448.98,-92.05 507.55,-79.57"/>
<polygon fill="#63b8ff" stroke="#63b8ff" points="343.29,-185.33 351.1,-192.49 349.46,-182.02 343.29,-185.33"/>
</a>
</g>
</g>
<!-- Node18&#45;&gt;Node7 -->
<g id="edge36_Node000018_Node000007" class="edge">
<title>Node18&#45;&gt;Node7</title>
<g id="a_edge36_Node000018_Node000007"><a xlink:title=" ">
<path fill="none" stroke="#63b8ff" d="M335.88,-186.37C323.78,-177.11 308.69,-164.39 297.42,-151 279.9,-130.17 265.03,-101.98 256.95,-85.22"/>
<polygon fill="#63b8ff" stroke="#63b8ff" points="333.95,-189.3 344.07,-192.46 338.13,-183.68 333.95,-189.3"/>
</a>
</g>
</g>
<!-- Node18&#45;&gt;Node8 -->
<g id="edge37_Node000018_Node000008" class="edge">
<title>Node18&#45;&gt;Node8</title>
<g id="a_edge37_Node000018_Node000008"><a xlink:title=" ">
<path fill="none" stroke="#63b8ff" d="M373.9,-185.68C388.07,-173.26 407.54,-156.18 419.27,-145.91"/>
<polygon fill="#63b8ff" stroke="#63b8ff" points="371.48,-183.14 366.27,-192.37 376.1,-188.41 371.48,-183.14"/>
</a>
</g>
</g>
<!-- Node18&#45;&gt;Node10 -->
<g id="edge38_Node000018_Node000010" class="edge">
<title>Node18&#45;&gt;Node10</title>
<g id="a_edge38_Node000018_Node000010"><a xlink:title=" ">
<path fill="none" stroke="#63b8ff" d="M335.27,-186.11C315.4,-170.21 290.64,-144.17 304.42,-121 317.06,-99.75 342.23,-86.97 363.06,-79.65"/>
<polygon fill="#63b8ff" stroke="#63b8ff" points="333.28,-189 343.35,-192.27 337.52,-183.43 333.28,-189"/>
</a>
</g>
</g>
<!-- Node18&#45;&gt;Node11 -->
<g id="edge39_Node000018_Node000011" class="edge">
<title>Node18&#45;&gt;Node11</title>
<g id="a_edge39_Node000018_Node000011"><a xlink:title=" ">
<path fill="none" stroke="#63b8ff" d="M393.66,-189.16C419.39,-180.28 453.97,-166.94 482.42,-151 501.81,-140.14 501.76,-129.18 522.42,-121 657.55,-67.51 703.94,-108.11 847.42,-85 856.79,-83.49 866.84,-81.54 876.2,-79.57"/>
<polygon fill="#63b8ff" stroke="#63b8ff" points="392.27,-185.93 383.92,-192.45 394.51,-192.56 392.27,-185.93"/>
</a>
</g>
</g>
<!-- Node18&#45;&gt;Node12 -->
<g id="edge40_Node000018_Node000012" class="edge">
<title>Node18&#45;&gt;Node12</title>
<g id="a_edge40_Node000018_Node000012"><a xlink:title=" ">
<path fill="none" stroke="#63b8ff" d="M320.91,-189.14C255.88,-165.69 128.97,-110.81 181.42,-55 204.01,-30.97 678.24,-16.3 843.35,-11.9"/>
<polygon fill="#63b8ff" stroke="#63b8ff" points="319.81,-192.46 330.4,-192.5 322.14,-185.86 319.81,-192.46"/>
</a>
</g>
</g>
<!-- Node19&#45;&gt;Node11 -->
<g id="edge43_Node000019_Node000011" class="edge">
<title>Node19&#45;&gt;Node11</title>
<g id="a_edge43_Node000019_Node000011"><a xlink:title=" ">
<path fill="none" stroke="#63b8ff" d="M1066.49,-183.11C1058.81,-165.31 1044.88,-138.24 1025.42,-121 1002.47,-100.66 969.91,-87.38 945.8,-79.66"/>
<polygon fill="#63b8ff" stroke="#63b8ff" points="1063.26,-184.44 1070.29,-192.37 1069.73,-181.79 1063.26,-184.44"/>
</a>
</g>
</g>
<!-- Node20&#45;&gt;Node21 -->
<g id="edge45_Node000020_Node000021" class="edge">
<title>Node20&#45;&gt;Node21</title>
<g id="a_edge45_Node000020_Node000021"><a xlink:title=" ">
<path fill="none" stroke="#63b8ff" d="M1231.06,-182.08C1229.56,-170.13 1227.7,-155.22 1226.54,-145.91"/>
<polygon fill="#63b8ff" stroke="#63b8ff" points="1227.63,-182.88 1232.34,-192.37 1234.58,-182.01 1227.63,-182.88"/>
</a>
</g>
</g>
<!-- Node21&#45;&gt;Node12 -->
<g id="edge46_Node000021_Node000012" class="edge">
<title>Node21&#45;&gt;Node12</title>
<g id="a_edge46_Node000021_Node000012"><a xlink:title=" ">
<path fill="none" stroke="#63b8ff" d="M1222.33,-116.4C1218.2,-97.8 1208.99,-69.88 1189.42,-55 1153.64,-27.79 1029.35,-16.95 955.6,-12.84"/>
<polygon fill="#63b8ff" stroke="#63b8ff" points="1218.91,-117.19 1224.25,-126.34 1225.79,-115.86 1218.91,-117.19"/>
</a>
</g>
</g>
<!-- Node21&#45;&gt;Node15 -->
<g id="edge47_Node000021_Node000015" class="edge">
<title>Node21&#45;&gt;Node15</title>
<g id="a_edge47_Node000021_Node000015"><a xlink:title=" ">
<path fill="none" stroke="#63b8ff" d="M1205.95,-120.33C1189.27,-107.78 1165.83,-90.13 1151.98,-79.7"/>
<polygon fill="#63b8ff" stroke="#63b8ff" points="1203.87,-123.15 1213.96,-126.37 1208.08,-117.56 1203.87,-123.15"/>
</a>
</g>
</g>
</g>
</svg>

<g id="navigator" transform="translate(0 0)" fill="#404254">
  <rect fill="#f2f5e9" fill-opacity="0.5" stroke="#606060" stroke-width=".5" x="0" y="0" width="60" height="60"/>
  <use id="zoomplus" xlink:href="#zoomPlus" x="17" y="9" onmousedown="handleZoom(evt,'in')"/>
  <use id="zoomminus" xlink:href="#zoomMin" x="42" y="9" onmousedown="handleZoom(evt,'out')"/>
  <use id="reset" xlink:href="#resetDef" x="30" y="36" onmousedown="handleReset()"/>
   <use id="arrowup" xlink:href="#arrowUp" x="0" y="0" onmousedown="handlePan(0,-1)"/>
  <use id="arrowright" xlink:href="#arrowRight" x="0" y="0" onmousedown="handlePan(1,0)"/>
  <use id="arrowdown" xlink:href="#arrowDown" x="0" y="0" onmousedown="handlePan(0,1)"/>
  <use id="arrowleft" xlink:href="#arrowLeft" x="0" y="0" onmousedown="handlePan(-1,0)"/>
</g>
<svg viewBox="0 0 15 15" width="100%" height="30px" preserveAspectRatio="xMaxYMin meet">
 <g id="arrow_out" transform="scale(0.3 0.3)">
  <a xlink:href="async_8hpp__dep__incl_org.svg" target="_base">
   <rect id="button" ry="5" rx="5" y="6" x="6" height="38" width="38"
        fill="#f2f5e9" fill-opacity="0.5" stroke="#606060" stroke-width="1.0"/>
   <path id="arrow"
     d="M 11.500037,31.436501 C 11.940474,20.09759 22.043105,11.32322 32.158766,21.979434 L 37.068811,17.246167 C 37.068811,17.246167 37.088388,32 37.088388,32 L 22.160133,31.978069 C 22.160133,31.978069 26.997745,27.140456 26.997745,27.140456 C 18.528582,18.264221 13.291696,25.230495 11.500037,31.436501 z"
     style="fill:#404040;"/>
  </a>
 </g>
</svg>

<style type='text/css'>
<![CDATA[
[data-mouse-over-selected='false'] { opacity: 0.7; }
[data-mouse-over-selected='true']  { opacity: 1.0; }
]]>
</style>
<script type="application/ecmascript"><![CDATA[
document.addEventListener('DOMContentLoaded', (event) => {
  highlightEdges();
  highlightAdjacentNodes();
});
]]></script>
</svg>
