<?xml version="1.0" encoding="UTF-8" standalone="no"?>
<!DOCTYPE svg PUBLIC "-//W3C//DTD SVG 1.1//EN"
 "http://www.w3.org/Graphics/SVG/1.1/DTD/svg11.dtd">
<!-- Generated by graphviz version 2.43.0 (0)
 -->
<!-- Title: awaiters.hpp Pages: 1 -->
<svg width="1528pt" height="434pt"
 viewBox="0.00 0.00 1528.00 434.00" xmlns="http://www.w3.org/2000/svg" xmlns:xlink="http://www.w3.org/1999/xlink">
<g id="graph0" class="graph" transform="scale(1 1) rotate(0) translate(4 430)">
<title>awaiters.hpp</title>
<!-- Node1 -->
<g id="Node000001" class="node">
<title>Node1</title>
<g id="a_Node000001"><a xlink:title="Utilities for awaiting on Async&lt;T&gt;: co_await overload, all(), try_await().">
<polygon fill="#999999" stroke="#666666" points="1077,-426 997,-426 997,-407 1077,-407 1077,-426"/>
<text text-anchor="middle" x="1037" y="-414" font-family="Helvetica,sans-Serif" font-size="10.00">awaiters.hpp</text>
</a>
</g>
</g>
<!-- Node2 -->
<g id="Node000002" class="node">
<title>Node2</title>
<g id="a_Node000002"><a xlink:href="ad__example_8cpp.html" target="_top" xlink:title=" ">
<polygon fill="white" stroke="#666666" points="433.5,-134.5 336.5,-134.5 336.5,-115.5 433.5,-115.5 433.5,-134.5"/>
<text text-anchor="middle" x="385" y="-122.5" font-family="Helvetica,sans-Serif" font-size="10.00">ad_example.cpp</text>
</a>
</g>
</g>
<!-- Node1&#45;&gt;Node2 -->
<g id="edge1_Node000001_Node000002" class="edge">
<title>Node1&#45;&gt;Node2</title>
<g id="a_edge1_Node000001_Node000002"><a xlink:title=" ">
<path fill="none" stroke="#63b8ff" d="M986.95,-413.57C819.3,-406.46 288,-378.32 288,-307.5 288,-307.5 288,-307.5 288,-250.5 288,-197.07 344.28,-152.8 371.1,-134.74"/>
<polygon fill="#63b8ff" stroke="#63b8ff" points="986.86,-417.07 997,-413.99 987.15,-410.08 986.86,-417.07"/>
</a>
</g>
</g>
<!-- Node3 -->
<g id="Node000003" class="node">
<title>Node3</title>
<g id="a_Node000003"><a xlink:href="async__example_8cpp.html" target="_top" xlink:title=" ">
<polygon fill="white" stroke="#666666" points="179.5,-134.5 66.5,-134.5 66.5,-115.5 179.5,-115.5 179.5,-134.5"/>
<text text-anchor="middle" x="123" y="-122.5" font-family="Helvetica,sans-Serif" font-size="10.00">async_example.cpp</text>
</a>
</g>
</g>
<!-- Node1&#45;&gt;Node3 -->
<g id="edge2_Node000001_Node000003" class="edge">
<title>Node1&#45;&gt;Node3</title>
<g id="a_edge2_Node000001_Node000003"><a xlink:title=" ">
<path fill="none" stroke="#63b8ff" d="M986.68,-415.61C779.08,-415.39 0,-407.91 0,-307.5 0,-307.5 0,-307.5 0,-250.5 0,-192.16 69.19,-151.3 103.78,-134.51"/>
<polygon fill="#63b8ff" stroke="#63b8ff" points="986.98,-419.11 996.98,-415.61 986.99,-412.11 986.98,-419.11"/>
</a>
</g>
</g>
<!-- Node4 -->
<g id="Node000004" class="node">
<title>Node4</title>
<g id="a_Node000004"><a xlink:href="async__example2_8cpp.html" target="_top" xlink:title=" ">
<polygon fill="white" stroke="#666666" points="1199.5,-134.5 1080.5,-134.5 1080.5,-115.5 1199.5,-115.5 1199.5,-134.5"/>
<text text-anchor="middle" x="1140" y="-122.5" font-family="Helvetica,sans-Serif" font-size="10.00">async_example2.cpp</text>
</a>
</g>
</g>
<!-- Node1&#45;&gt;Node4 -->
<g id="edge3_Node000001_Node000004" class="edge">
<title>Node1&#45;&gt;Node4</title>
<g id="a_edge3_Node000001_Node000004"><a xlink:title=" ">
<path fill="none" stroke="#63b8ff" d="M1043.5,-397.22C1063.36,-341.4 1122.74,-174.51 1136.93,-134.63"/>
<polygon fill="#63b8ff" stroke="#63b8ff" points="1040.14,-396.24 1040.08,-406.84 1046.73,-398.59 1040.14,-396.24"/>
</a>
</g>
</g>
<!-- Node5 -->
<g id="Node000005" class="node">
<title>Node5</title>
<g id="a_Node000005"><a xlink:href="async__ops_8hpp.html" target="_top" xlink:title="Concepts and helpers for composing Async expressions.">
<polygon fill="white" stroke="#666666" points="825.5,-371 736.5,-371 736.5,-352 825.5,-352 825.5,-371"/>
<text text-anchor="middle" x="781" y="-359" font-family="Helvetica,sans-Serif" font-size="10.00">async_ops.hpp</text>
</a>
</g>
</g>
<!-- Node1&#45;&gt;Node5 -->
<g id="edge4_Node000001_Node000005" class="edge">
<title>Node1&#45;&gt;Node5</title>
<g id="a_edge4_Node000001_Node000005"><a xlink:title=" ">
<path fill="none" stroke="#63b8ff" d="M986.84,-405.12C938.8,-395.17 867.17,-380.34 822.32,-371.05"/>
<polygon fill="#63b8ff" stroke="#63b8ff" points="986.22,-408.56 996.72,-407.16 987.64,-401.71 986.22,-408.56"/>
</a>
</g>
</g>
<!-- Node14 -->
<g id="Node000014" class="node">
<title>Node14</title>
<g id="a_Node000014"><a xlink:href="future__example_8cpp.html" target="_top" xlink:title=" ">
<polygon fill="white" stroke="#666666" points="1415,-134.5 1301,-134.5 1301,-115.5 1415,-115.5 1415,-134.5"/>
<text text-anchor="middle" x="1358" y="-122.5" font-family="Helvetica,sans-Serif" font-size="10.00">future_example.cpp</text>
</a>
</g>
</g>
<!-- Node1&#45;&gt;Node14 -->
<g id="edge48_Node000001_Node000014" class="edge">
<title>Node1&#45;&gt;Node14</title>
<g id="a_edge48_Node000001_Node000014"><a xlink:title=" ">
<path fill="none" stroke="#63b8ff" d="M1087.71,-414.81C1211.67,-411.77 1520,-395.37 1520,-307.5 1520,-307.5 1520,-307.5 1520,-250.5 1520,-212.92 1507.92,-201.16 1480,-176 1456.45,-154.78 1422.67,-141.88 1396.63,-134.52"/>
<polygon fill="#63b8ff" stroke="#63b8ff" points="1087.27,-411.32 1077.35,-415.05 1087.43,-418.32 1087.27,-411.32"/>
</a>
</g>
</g>
<!-- Node5&#45;&gt;Node4 -->
<g id="edge5_Node000005_Node000004" class="edge">
<title>Node5&#45;&gt;Node4</title>
<g id="a_edge5_Node000005_Node000004"><a xlink:title=" ">
<path fill="none" stroke="#63b8ff" d="M830.69,-349.44C858.28,-342.15 892.65,-331.14 921,-316 1016.91,-264.8 1106.88,-164.74 1132.66,-134.72"/>
<polygon fill="#63b8ff" stroke="#63b8ff" points="829.68,-346.09 820.86,-351.96 831.42,-352.87 829.68,-346.09"/>
</a>
</g>
</g>
<!-- Node6 -->
<g id="Node000006" class="node">
<title>Node6</title>
<g id="a_Node000006"><a xlink:href="async__fib__example_8cpp.html" target="_top" xlink:title=" ">
<polygon fill="white" stroke="#666666" points="927.5,-134.5 796.5,-134.5 796.5,-115.5 927.5,-115.5 927.5,-134.5"/>
<text text-anchor="middle" x="862" y="-122.5" font-family="Helvetica,sans-Serif" font-size="10.00">async_fib_example.cpp</text>
</a>
</g>
</g>
<!-- Node5&#45;&gt;Node6 -->
<g id="edge6_Node000005_Node000006" class="edge">
<title>Node5&#45;&gt;Node6</title>
<g id="a_edge6_Node000005_Node000006"><a xlink:title=" ">
<path fill="none" stroke="#63b8ff" d="M818.06,-348.56C871.97,-328.85 969.58,-283.76 1006,-206 1011.66,-193.93 1013.73,-186.86 1006,-176 993.73,-158.75 940.55,-143.53 902.39,-134.54"/>
<polygon fill="#63b8ff" stroke="#63b8ff" points="816.77,-345.3 808.52,-351.95 819.12,-351.9 816.77,-345.3"/>
</a>
</g>
</g>
<!-- Node7 -->
<g id="Node000007" class="node">
<title>Node7</title>
<g id="a_Node000007"><a xlink:href="async__impl_8hpp.html" target="_top" xlink:title="Inline implementation of Async&lt;T&gt; helpers and task await transforms.">
<polygon fill="white" stroke="#666666" points="865.5,-316 772.5,-316 772.5,-297 865.5,-297 865.5,-316"/>
<text text-anchor="middle" x="819" y="-304" font-family="Helvetica,sans-Serif" font-size="10.00">async_impl.hpp</text>
</a>
</g>
</g>
<!-- Node5&#45;&gt;Node7 -->
<g id="edge7_Node000005_Node000007" class="edge">
<title>Node5&#45;&gt;Node7</title>
<g id="a_edge7_Node000005_Node000007"><a xlink:title=" ">
<path fill="none" stroke="#63b8ff" d="M793.27,-343.39C799.81,-334.27 807.57,-323.45 812.84,-316.09"/>
<polygon fill="#63b8ff" stroke="#63b8ff" points="790.26,-341.58 787.27,-351.75 795.95,-345.66 790.26,-341.58"/>
</a>
</g>
</g>
<!-- Node10 -->
<g id="Node000010" class="node">
<title>Node10</title>
<g id="a_Node000010"><a xlink:href="async__kernel__shapes__example_8cpp.html" target="_top" xlink:title=" ">
<polygon fill="white" stroke="#666666" points="318,-140 198,-140 198,-110 318,-110 318,-140"/>
<text text-anchor="start" x="206" y="-128" font-family="Helvetica,sans-Serif" font-size="10.00">async_kernel_shapes</text>
<text text-anchor="middle" x="258" y="-117" font-family="Helvetica,sans-Serif" font-size="10.00">_example.cpp</text>
</a>
</g>
</g>
<!-- Node5&#45;&gt;Node10 -->
<g id="edge44_Node000005_Node000010" class="edge">
<title>Node5&#45;&gt;Node10</title>
<g id="a_edge44_Node000005_Node000010"><a xlink:title=" ">
<path fill="none" stroke="#63b8ff" d="M726.29,-351.53C607.68,-330.91 332.77,-276.47 274,-206 258.4,-187.29 256.54,-157.61 257,-140.14"/>
<polygon fill="#63b8ff" stroke="#63b8ff" points="725.81,-354.99 736.26,-353.24 726.99,-348.1 725.81,-354.99"/>
</a>
</g>
</g>
<!-- Node11 -->
<g id="Node000011" class="node">
<title>Node11</title>
<g id="a_Node000011"><a xlink:href="async__ops__example_8cpp.html" target="_top" xlink:title=" ">
<polygon fill="white" stroke="#666666" points="588,-134.5 452,-134.5 452,-115.5 588,-115.5 588,-134.5"/>
<text text-anchor="middle" x="520" y="-122.5" font-family="Helvetica,sans-Serif" font-size="10.00">async_ops_example.cpp</text>
</a>
</g>
</g>
<!-- Node5&#45;&gt;Node11 -->
<g id="edge45_Node000005_Node000011" class="edge">
<title>Node5&#45;&gt;Node11</title>
<g id="a_edge45_Node000005_Node000011"><a xlink:title=" ">
<path fill="none" stroke="#63b8ff" d="M726.24,-353.1C649.06,-339.4 510.92,-302.12 450,-206 442.86,-194.74 443.9,-187.86 450,-176 460.18,-156.21 482.23,-142.52 498.87,-134.53"/>
<polygon fill="#63b8ff" stroke="#63b8ff" points="725.81,-356.58 736.26,-354.81 726.99,-349.68 725.81,-356.58"/>
</a>
</g>
</g>
<!-- Node5&#45;&gt;Node14 -->
<g id="edge46_Node000005_Node000014" class="edge">
<title>Node5&#45;&gt;Node14</title>
<g id="a_edge46_Node000005_Node000014"><a xlink:title=" ">
<path fill="none" stroke="#63b8ff" d="M836.13,-356.61C984.13,-344.9 1384.29,-304.54 1463,-206 1488.67,-173.86 1426.72,-147.46 1387.4,-134.55"/>
<polygon fill="#63b8ff" stroke="#63b8ff" points="835.62,-353.14 825.92,-357.4 836.16,-360.11 835.62,-353.14"/>
</a>
</g>
</g>
<!-- Node16 -->
<g id="Node000016" class="node">
<title>Node16</title>
<g id="a_Node000016"><a xlink:href="gradient__solver_8cpp.html" target="_top" xlink:title=" ">
<polygon fill="white" stroke="#666666" points="753,-19 641,-19 641,0 753,0 753,-19"/>
<text text-anchor="middle" x="697" y="-7" font-family="Helvetica,sans-Serif" font-size="10.00">gradient_solver.cpp</text>
</a>
</g>
</g>
<!-- Node5&#45;&gt;Node16 -->
<g id="edge47_Node000005_Node000016" class="edge">
<title>Node5&#45;&gt;Node16</title>
<g id="a_edge47_Node000005_Node000016"><a xlink:title=" ">
<path fill="none" stroke="#63b8ff" d="M726.4,-358.31C554.84,-350.72 38,-322.08 38,-252.5 38,-252.5 38,-252.5 38,-124 38,-63.05 481.45,-25.72 640.81,-14.27"/>
<polygon fill="#63b8ff" stroke="#63b8ff" points="726.33,-361.81 736.47,-358.75 726.63,-354.82 726.33,-361.81"/>
</a>
</g>
</g>
<!-- Node8 -->
<g id="Node000008" class="node">
<title>Node8</title>
<g id="a_Node000008"><a xlink:href="async_8hpp.html" target="_top" xlink:title="The Async&lt;T&gt; container: coroutine‐safe asynchronous read/write.">
<polygon fill="white" stroke="#666666" points="826,-261 760,-261 760,-242 826,-242 826,-261"/>
<text text-anchor="middle" x="793" y="-249" font-family="Helvetica,sans-Serif" font-size="10.00">async.hpp</text>
</a>
</g>
</g>
<!-- Node7&#45;&gt;Node8 -->
<g id="edge8_Node000007_Node000008" class="edge">
<title>Node7&#45;&gt;Node8</title>
<g id="a_edge8_Node000007_Node000008"><a xlink:title=" ">
<path fill="none" stroke="#63b8ff" d="M810.18,-287.53C805.8,-278.6 800.71,-268.22 797.21,-261.09"/>
<polygon fill="#63b8ff" stroke="#63b8ff" points="807.16,-289.31 814.71,-296.75 813.44,-286.23 807.16,-289.31"/>
</a>
</g>
</g>
<!-- Node8&#45;&gt;Node1 -->
<g id="edge23_Node000008_Node000001" class="edge">
<title>Node8&#45;&gt;Node1</title>
<g id="a_edge23_Node000008_Node000001"><a xlink:title=" ">
<path fill="none" stroke="#63b8ff" d="M819.44,-265.94C835.51,-274.38 856.27,-285.75 874,-297 933.67,-334.87 1000.66,-386.76 1026.27,-406.96"/>
<polygon fill="#63b8ff" stroke="#63b8ff" points="820.6,-262.6 810.11,-261.1 817.37,-268.81 820.6,-262.6"/>
</a>
</g>
</g>
<!-- Node8&#45;&gt;Node2 -->
<g id="edge9_Node000008_Node000002" class="edge">
<title>Node8&#45;&gt;Node2</title>
<g id="a_edge9_Node000008_Node000002"><a xlink:title=" ">
<path fill="none" stroke="#63b8ff" d="M749.6,-248.85C669.16,-245.14 500.5,-234.17 450,-206 419.52,-189 397.76,-151.48 389.12,-134.57"/>
<polygon fill="#63b8ff" stroke="#63b8ff" points="749.74,-252.36 759.89,-249.3 750.05,-245.36 749.74,-252.36"/>
</a>
</g>
</g>
<!-- Node8&#45;&gt;Node3 -->
<g id="edge11_Node000008_Node000003" class="edge">
<title>Node8&#45;&gt;Node3</title>
<g id="a_edge11_Node000008_Node000003"><a xlink:title=" ">
<path fill="none" stroke="#63b8ff" d="M749.4,-249.93C667.8,-248.05 486.91,-240.04 339,-206 263.2,-188.56 177.9,-151.44 141.28,-134.61"/>
<polygon fill="#63b8ff" stroke="#63b8ff" points="749.7,-253.44 759.77,-250.15 749.85,-246.44 749.7,-253.44"/>
</a>
</g>
</g>
<!-- Node8&#45;&gt;Node4 -->
<g id="edge12_Node000008_Node000004" class="edge">
<title>Node8&#45;&gt;Node4</title>
<g id="a_edge12_Node000008_Node000004"><a xlink:title=" ">
<path fill="none" stroke="#63b8ff" d="M836.43,-247.39C883.84,-242.8 961.24,-231.78 1023,-206 1067.05,-187.61 1111.53,-151.15 1130.49,-134.57"/>
<polygon fill="#63b8ff" stroke="#63b8ff" points="835.85,-243.93 826.21,-248.32 836.49,-250.9 835.85,-243.93"/>
</a>
</g>
</g>
<!-- Node8&#45;&gt;Node5 -->
<g id="edge15_Node000008_Node000005" class="edge">
<title>Node8&#45;&gt;Node5</title>
<g id="a_edge15_Node000008_Node000005"><a xlink:title=" ">
<path fill="none" stroke="#63b8ff" d="M778.31,-269.15C772.32,-277.02 766.09,-286.9 763,-297 757.04,-316.51 768.07,-339.59 775.35,-351.84"/>
<polygon fill="#63b8ff" stroke="#63b8ff" points="781.18,-271.16 784.79,-261.2 775.76,-266.74 781.18,-271.16"/>
</a>
</g>
</g>
<!-- Node8&#45;&gt;Node6 -->
<g id="edge13_Node000008_Node000006" class="edge">
<title>Node8&#45;&gt;Node6</title>
<g id="a_edge13_Node000008_Node000006"><a xlink:title=" ">
<path fill="none" stroke="#63b8ff" d="M749.8,-246.65C722.89,-241.76 690.22,-230.75 673,-206 665.39,-195.05 664.87,-186.57 673,-176 682.01,-164.3 766.08,-145.41 819.02,-134.5"/>
<polygon fill="#63b8ff" stroke="#63b8ff" points="749.36,-250.12 759.78,-248.24 750.46,-243.21 749.36,-250.12"/>
</a>
</g>
</g>
<!-- Node9 -->
<g id="Node000009" class="node">
<title>Node9</title>
<g id="a_Node000009"><a xlink:href="async__buffer__semantics__example_8cpp.html" target="_top" xlink:title=" ">
<polygon fill="white" stroke="#666666" points="778,-140 644,-140 644,-110 778,-110 778,-140"/>
<text text-anchor="start" x="652" y="-128" font-family="Helvetica,sans-Serif" font-size="10.00">async_buffer_semantics</text>
<text text-anchor="middle" x="711" y="-117" font-family="Helvetica,sans-Serif" font-size="10.00">_example.cpp</text>
</a>
</g>
</g>
<!-- Node8&#45;&gt;Node9 -->
<g id="edge10_Node000008_Node000009" class="edge">
<title>Node8&#45;&gt;Node9</title>
<g id="a_edge10_Node000008_Node000009"><a xlink:title=" ">
<path fill="none" stroke="#63b8ff" d="M749.68,-248.05C720.26,-243.85 683.31,-233.09 664,-206 648.29,-183.96 673.44,-156.4 692.59,-140.05"/>
<polygon fill="#63b8ff" stroke="#63b8ff" points="749.38,-251.53 759.73,-249.27 750.23,-244.59 749.38,-251.53"/>
</a>
</g>
</g>
<!-- Node8&#45;&gt;Node10 -->
<g id="edge14_Node000008_Node000010" class="edge">
<title>Node8&#45;&gt;Node10</title>
<g id="a_edge14_Node000008_Node000010"><a xlink:title=" ">
<path fill="none" stroke="#63b8ff" d="M749.48,-250.43C677.77,-249.21 530.97,-242.04 413,-206 362.32,-190.52 308.5,-158.82 279.51,-140.31"/>
<polygon fill="#63b8ff" stroke="#63b8ff" points="749.87,-253.94 759.91,-250.57 749.96,-246.94 749.87,-253.94"/>
</a>
</g>
</g>
<!-- Node8&#45;&gt;Node11 -->
<g id="edge16_Node000008_Node000011" class="edge">
<title>Node8&#45;&gt;Node11</title>
<g id="a_edge16_Node000008_Node000011"><a xlink:title=" ">
<path fill="none" stroke="#63b8ff" d="M749.77,-247.87C663.77,-242.2 477.89,-227.57 459,-206 437.37,-181.3 480.41,-149.73 504.8,-134.71"/>
<polygon fill="#63b8ff" stroke="#63b8ff" points="749.78,-251.38 759.98,-248.53 750.23,-244.4 749.78,-251.38"/>
</a>
</g>
</g>
<!-- Node12 -->
<g id="Node000012" class="node">
<title>Node12</title>
<g id="a_Node000012"><a xlink:href="async__tbb__reduction__example_8cpp.html" target="_top" xlink:title="Example of using uni20 coroutines with the TbbScheduler to parallelize a map–reduce computation.">
<polygon fill="white" stroke="#666666" points="799.5,-206 682.5,-206 682.5,-176 799.5,-176 799.5,-206"/>
<text text-anchor="start" x="690.5" y="-194" font-family="Helvetica,sans-Serif" font-size="10.00">async_tbb_reduction</text>
<text text-anchor="middle" x="741" y="-183" font-family="Helvetica,sans-Serif" font-size="10.00">_example.cpp</text>
</a>
</g>
</g>
<!-- Node8&#45;&gt;Node12 -->
<g id="edge17_Node000008_Node000012" class="edge">
<title>Node8&#45;&gt;Node12</title>
<g id="a_edge17_Node000008_Node000012"><a xlink:title=" ">
<path fill="none" stroke="#63b8ff" d="M778.47,-234.15C770.63,-225.34 761.06,-214.56 753.55,-206.11"/>
<polygon fill="#63b8ff" stroke="#63b8ff" points="776.07,-236.72 785.33,-241.87 781.3,-232.07 776.07,-236.72"/>
</a>
</g>
</g>
<!-- Node13 -->
<g id="Node000013" class="node">
<title>Node13</title>
<g id="a_Node000013"><a xlink:href="async__toys_8hpp.html" target="_top" xlink:title="Small async helper operations used in tests and examples.">
<polygon fill="white" stroke="#666666" points="1298,-200.5 1206,-200.5 1206,-181.5 1298,-181.5 1298,-200.5"/>
<text text-anchor="middle" x="1252" y="-188.5" font-family="Helvetica,sans-Serif" font-size="10.00">async_toys.hpp</text>
</a>
</g>
</g>
<!-- Node8&#45;&gt;Node13 -->
<g id="edge18_Node000008_Node000013" class="edge">
<title>Node8&#45;&gt;Node13</title>
<g id="a_edge18_Node000008_Node000013"><a xlink:title=" ">
<path fill="none" stroke="#63b8ff" d="M836,-245.02C922.44,-234 1116.58,-209.26 1205.69,-197.9"/>
<polygon fill="#63b8ff" stroke="#63b8ff" points="835.49,-241.56 826.01,-246.29 836.37,-248.5 835.49,-241.56"/>
</a>
</g>
</g>
<!-- Node8&#45;&gt;Node14 -->
<g id="edge36_Node000008_Node000014" class="edge">
<title>Node8&#45;&gt;Node14</title>
<g id="a_edge36_Node000008_Node000014"><a xlink:title=" ">
<path fill="none" stroke="#63b8ff" d="M836.28,-248.94C952.82,-244.43 1267.17,-230.14 1307,-206 1334.47,-189.35 1349.68,-151.65 1355.37,-134.63"/>
<polygon fill="#63b8ff" stroke="#63b8ff" points="836.14,-245.44 826.28,-249.32 836.41,-252.44 836.14,-245.44"/>
</a>
</g>
</g>
<!-- Node17 -->
<g id="Node000017" class="node">
<title>Node17</title>
<g id="a_Node000017"><a xlink:href="bug_8cpp.html" target="_top" xlink:title=" ">
<polygon fill="white" stroke="#666666" points="872.5,-200.5 817.5,-200.5 817.5,-181.5 872.5,-181.5 872.5,-200.5"/>
<text text-anchor="middle" x="845" y="-188.5" font-family="Helvetica,sans-Serif" font-size="10.00">bug.cpp</text>
</a>
</g>
</g>
<!-- Node8&#45;&gt;Node17 -->
<g id="edge24_Node000008_Node000017" class="edge">
<title>Node8&#45;&gt;Node17</title>
<g id="a_edge24_Node000008_Node000017"><a xlink:title=" ">
<path fill="none" stroke="#63b8ff" d="M807.43,-234.27C817.1,-223.39 829.45,-209.49 837.3,-200.67"/>
<polygon fill="#63b8ff" stroke="#63b8ff" points="804.7,-232.07 800.67,-241.87 809.93,-236.72 804.7,-232.07"/>
</a>
</g>
</g>
<!-- Node18 -->
<g id="Node000018" class="node">
<title>Node18</title>
<g id="a_Node000018"><a xlink:href="debug__scheduler_8hpp.html" target="_top" xlink:title="Coroutine scheduler for AsyncTask.">
<polygon fill="white" stroke="#666666" points="587.5,-200.5 468.5,-200.5 468.5,-181.5 587.5,-181.5 587.5,-200.5"/>
<text text-anchor="middle" x="528" y="-188.5" font-family="Helvetica,sans-Serif" font-size="10.00">debug_scheduler.hpp</text>
</a>
</g>
</g>
<!-- Node8&#45;&gt;Node18 -->
<g id="edge25_Node000008_Node000018" class="edge">
<title>Node8&#45;&gt;Node18</title>
<g id="a_edge25_Node000008_Node000018"><a xlink:title=" ">
<path fill="none" stroke="#63b8ff" d="M749.96,-241C699.15,-229.78 615.4,-211.29 566.61,-200.52"/>
<polygon fill="#63b8ff" stroke="#63b8ff" points="749.45,-244.47 759.97,-243.21 750.96,-237.64 749.45,-244.47"/>
</a>
</g>
</g>
<!-- Node19 -->
<g id="Node000019" class="node">
<title>Node19</title>
<g id="a_Node000019"><a xlink:href="future__value_8hpp.html" target="_top" xlink:title="Write&#45;once async wrappers (FutureValue and Defer) built on Async&lt;T&gt;.">
<polygon fill="white" stroke="#666666" points="1453.5,-200.5 1354.5,-200.5 1354.5,-181.5 1453.5,-181.5 1453.5,-200.5"/>
<text text-anchor="middle" x="1404" y="-188.5" font-family="Helvetica,sans-Serif" font-size="10.00">future_value.hpp</text>
</a>
</g>
</g>
<!-- Node8&#45;&gt;Node19 -->
<g id="edge37_Node000008_Node000019" class="edge">
<title>Node8&#45;&gt;Node19</title>
<g id="a_edge37_Node000008_Node000019"><a xlink:title=" ">
<path fill="none" stroke="#63b8ff" d="M836.29,-248.95C929.07,-245.21 1153.76,-233.82 1340,-206 1349.45,-204.59 1359.59,-202.6 1368.95,-200.56"/>
<polygon fill="#63b8ff" stroke="#63b8ff" points="836.02,-245.46 826.16,-249.35 836.29,-252.46 836.02,-245.46"/>
</a>
</g>
</g>
<!-- Node20 -->
<g id="Node000020" class="node">
<title>Node20</title>
<g id="a_Node000020"><a xlink:href="reverse__value_8hpp.html" target="_top" xlink:title="Reverse&#45;mode gradient accumulation channel built on reverse epoch queues.">
<polygon fill="white" stroke="#666666" points="997.5,-200.5 890.5,-200.5 890.5,-181.5 997.5,-181.5 997.5,-200.5"/>
<text text-anchor="middle" x="944" y="-188.5" font-family="Helvetica,sans-Serif" font-size="10.00">reverse_value.hpp</text>
</a>
</g>
</g>
<!-- Node8&#45;&gt;Node20 -->
<g id="edge39_Node000008_Node000020" class="edge">
<title>Node8&#45;&gt;Node20</title>
<g id="a_edge39_Node000008_Node000020"><a xlink:title=" ">
<path fill="none" stroke="#63b8ff" d="M824.29,-238.38C853.48,-227.07 896.28,-210.49 922.02,-200.52"/>
<polygon fill="#63b8ff" stroke="#63b8ff" points="823.02,-235.12 814.96,-241.99 825.55,-241.64 823.02,-235.12"/>
</a>
</g>
</g>
<!-- Node21 -->
<g id="Node000021" class="node">
<title>Node21</title>
<g id="a_Node000021"><a xlink:href="var_8hpp.html" target="_top" xlink:title=" ">
<polygon fill="white" stroke="#666666" points="998.5,-134.5 945.5,-134.5 945.5,-115.5 998.5,-115.5 998.5,-134.5"/>
<text text-anchor="middle" x="972" y="-122.5" font-family="Helvetica,sans-Serif" font-size="10.00">var.hpp</text>
</a>
</g>
</g>
<!-- Node8&#45;&gt;Node21 -->
<g id="edge43_Node000008_Node000021" class="edge">
<title>Node8&#45;&gt;Node21</title>
<g id="a_edge43_Node000008_Node000021"><a xlink:title=" ">
<path fill="none" stroke="#63b8ff" d="M836.22,-247.74C892.17,-243.16 985.03,-231.81 1006,-206 1024.18,-183.63 996.31,-150.11 980.98,-134.53"/>
<polygon fill="#63b8ff" stroke="#63b8ff" points="835.92,-244.25 826.23,-248.52 836.47,-251.23 835.92,-244.25"/>
</a>
</g>
</g>
<!-- Node13&#45;&gt;Node4 -->
<g id="edge19_Node000013_Node000004" class="edge">
<title>Node13&#45;&gt;Node4</title>
<g id="a_edge19_Node000013_Node000004"><a xlink:title=" ">
<path fill="none" stroke="#63b8ff" d="M1228.13,-176.36C1206.08,-163.76 1173.98,-145.42 1155.22,-134.7"/>
<polygon fill="#63b8ff" stroke="#63b8ff" points="1226.48,-179.45 1236.9,-181.37 1229.95,-173.37 1226.48,-179.45"/>
</a>
</g>
</g>
<!-- Node13&#45;&gt;Node14 -->
<g id="edge20_Node000013_Node000014" class="edge">
<title>Node13&#45;&gt;Node14</title>
<g id="a_edge20_Node000013_Node000014"><a xlink:title=" ">
<path fill="none" stroke="#63b8ff" d="M1274.87,-176.19C1295.73,-163.59 1325.92,-145.37 1343.59,-134.7"/>
<polygon fill="#63b8ff" stroke="#63b8ff" points="1273.05,-173.2 1266.3,-181.37 1276.67,-179.2 1273.05,-173.2"/>
</a>
</g>
</g>
<!-- Node15 -->
<g id="Node000015" class="node">
<title>Node15</title>
<g id="a_Node000015"><a xlink:href="var__toys_8hpp.html" target="_top" xlink:title="Demonstration reverse&#45;mode helpers built on Var&lt;T&gt;.">
<polygon fill="white" stroke="#666666" points="1012,-74 932,-74 932,-55 1012,-55 1012,-74"/>
<text text-anchor="middle" x="972" y="-62" font-family="Helvetica,sans-Serif" font-size="10.00">var_toys.hpp</text>
</a>
</g>
</g>
<!-- Node13&#45;&gt;Node15 -->
<g id="edge21_Node000013_Node000015" class="edge">
<title>Node13&#45;&gt;Node15</title>
<g id="a_edge21_Node000013_Node000015"><a xlink:title=" ">
<path fill="none" stroke="#63b8ff" d="M1246.99,-171.72C1240.91,-153.16 1228.81,-125.09 1208,-110 1177.28,-87.73 1070.96,-74.64 1012.06,-68.92"/>
<polygon fill="#63b8ff" stroke="#63b8ff" points="1243.66,-172.8 1249.89,-181.37 1250.36,-170.79 1243.66,-172.8"/>
</a>
</g>
</g>
<!-- Node15&#45;&gt;Node16 -->
<g id="edge22_Node000015_Node000016" class="edge">
<title>Node15&#45;&gt;Node16</title>
<g id="a_edge22_Node000015_Node000016"><a xlink:title=" ">
<path fill="none" stroke="#63b8ff" d="M921.8,-53.83C870.27,-43.89 790.84,-28.59 741.5,-19.08"/>
<polygon fill="#63b8ff" stroke="#63b8ff" points="921.24,-57.28 931.72,-55.74 922.56,-50.41 921.24,-57.28"/>
</a>
</g>
</g>
<!-- Node18&#45;&gt;Node2 -->
<g id="edge26_Node000018_Node000002" class="edge">
<title>Node18&#45;&gt;Node2</title>
<g id="a_edge26_Node000018_Node000002"><a xlink:title=" ">
<path fill="none" stroke="#63b8ff" d="M499.39,-177.19C471.2,-164.58 428.92,-145.66 404.44,-134.7"/>
<polygon fill="#63b8ff" stroke="#63b8ff" points="498.16,-180.48 508.71,-181.37 501.02,-174.09 498.16,-180.48"/>
</a>
</g>
</g>
<!-- Node18&#45;&gt;Node3 -->
<g id="edge28_Node000018_Node000003" class="edge">
<title>Node18&#45;&gt;Node3</title>
<g id="a_edge28_Node000018_Node000003"><a xlink:title=" ">
<path fill="none" stroke="#63b8ff" d="M458.15,-181C389.47,-171.84 281.73,-156.66 189,-140 180.01,-138.38 170.37,-136.45 161.31,-134.55"/>
<polygon fill="#63b8ff" stroke="#63b8ff" points="458.04,-184.51 468.42,-182.36 458.96,-177.57 458.04,-184.51"/>
</a>
</g>
</g>
<!-- Node18&#45;&gt;Node4 -->
<g id="edge29_Node000018_Node000004" class="edge">
<title>Node18&#45;&gt;Node4</title>
<g id="a_edge29_Node000018_Node000004"><a xlink:title=" ">
<path fill="none" stroke="#63b8ff" d="M597.9,-182.72C691.19,-173.01 861.53,-155.25 1007,-140 1031.01,-137.48 1057.47,-134.7 1080.41,-132.28"/>
<polygon fill="#63b8ff" stroke="#63b8ff" points="597.33,-179.26 587.74,-183.78 598.05,-186.23 597.33,-179.26"/>
</a>
</g>
</g>
<!-- Node18&#45;&gt;Node5 -->
<g id="edge32_Node000018_Node000005" class="edge">
<title>Node18&#45;&gt;Node5</title>
<g id="a_edge32_Node000018_Node000005"><a xlink:title=" ">
<path fill="none" stroke="#63b8ff" d="M549.45,-206.29C600.36,-240.19 727.25,-324.7 768.11,-351.91"/>
<polygon fill="#63b8ff" stroke="#63b8ff" points="551.13,-203.2 540.87,-200.57 547.25,-209.03 551.13,-203.2"/>
</a>
</g>
</g>
<!-- Node18&#45;&gt;Node6 -->
<g id="edge30_Node000018_Node000006" class="edge">
<title>Node18&#45;&gt;Node6</title>
<g id="a_edge30_Node000018_Node000006"><a xlink:title=" ">
<path fill="none" stroke="#63b8ff" d="M582.84,-179.49C648.44,-166.92 756.96,-146.13 817.57,-134.51"/>
<polygon fill="#63b8ff" stroke="#63b8ff" points="581.86,-176.12 572.7,-181.44 583.18,-182.99 581.86,-176.12"/>
</a>
</g>
</g>
<!-- Node18&#45;&gt;Node9 -->
<g id="edge27_Node000018_Node000009" class="edge">
<title>Node18&#45;&gt;Node9</title>
<g id="a_edge27_Node000018_Node000009"><a xlink:title=" ">
<path fill="none" stroke="#63b8ff" d="M562.52,-177.93C593.26,-167.18 638.25,-151.44 670.64,-140.12"/>
<polygon fill="#63b8ff" stroke="#63b8ff" points="560.96,-174.76 552.68,-181.37 563.28,-181.37 560.96,-174.76"/>
</a>
</g>
</g>
<!-- Node18&#45;&gt;Node10 -->
<g id="edge31_Node000018_Node000010" class="edge">
<title>Node18&#45;&gt;Node10</title>
<g id="a_edge31_Node000018_Node000010"><a xlink:title=" ">
<path fill="none" stroke="#63b8ff" d="M481.98,-179.09C436.51,-168.31 366.74,-151.78 317.17,-140.02"/>
<polygon fill="#63b8ff" stroke="#63b8ff" points="481.33,-182.53 491.87,-181.44 482.94,-175.72 481.33,-182.53"/>
</a>
</g>
</g>
<!-- Node18&#45;&gt;Node11 -->
<g id="edge33_Node000018_Node000011" class="edge">
<title>Node18&#45;&gt;Node11</title>
<g id="a_edge33_Node000018_Node000011"><a xlink:title=" ">
<path fill="none" stroke="#63b8ff" d="M525.64,-171.08C524.14,-159.13 522.28,-144.22 521.11,-134.91"/>
<polygon fill="#63b8ff" stroke="#63b8ff" points="522.21,-171.88 526.92,-181.37 529.15,-171.01 522.21,-171.88"/>
</a>
</g>
</g>
<!-- Node18&#45;&gt;Node14 -->
<g id="edge34_Node000018_Node000014" class="edge">
<title>Node18&#45;&gt;Node14</title>
<g id="a_edge34_Node000018_Node000014"><a xlink:title=" ">
<path fill="none" stroke="#63b8ff" d="M597.61,-182.86C621.5,-180.53 648.41,-178.01 673,-176 910.52,-156.55 970.45,-159.07 1208,-140 1238.63,-137.54 1272.75,-134.39 1300.69,-131.7"/>
<polygon fill="#63b8ff" stroke="#63b8ff" points="597.19,-179.39 587.58,-183.85 597.87,-186.36 597.19,-179.39"/>
</a>
</g>
</g>
<!-- Node18&#45;&gt;Node16 -->
<g id="edge35_Node000018_Node000016" class="edge">
<title>Node18&#45;&gt;Node16</title>
<g id="a_edge35_Node000018_Node000016"><a xlink:title=" ">
<path fill="none" stroke="#63b8ff" d="M550.73,-175.93C564.83,-166.64 582.89,-153.69 597,-140 638.8,-99.46 677.78,-40.8 691.65,-19.04"/>
<polygon fill="#63b8ff" stroke="#63b8ff" points="548.63,-173.12 542.12,-181.48 552.42,-179 548.63,-173.12"/>
</a>
</g>
</g>
<!-- Node19&#45;&gt;Node14 -->
<g id="edge38_Node000019_Node000014" class="edge">
<title>Node19&#45;&gt;Node14</title>
<g id="a_edge38_Node000019_Node000014"><a xlink:title=" ">
<path fill="none" stroke="#63b8ff" d="M1391.72,-172.91C1382.92,-160.68 1371.44,-144.7 1364.4,-134.91"/>
<polygon fill="#63b8ff" stroke="#63b8ff" points="1389.12,-175.29 1397.8,-181.37 1394.8,-171.21 1389.12,-175.29"/>
</a>
</g>
</g>
<!-- Node20&#45;&gt;Node21 -->
<g id="edge40_Node000020_Node000021" class="edge">
<title>Node20&#45;&gt;Node21</title>
<g id="a_edge40_Node000020_Node000021"><a xlink:title=" ">
<path fill="none" stroke="#63b8ff" d="M951.79,-172.18C957.1,-160.05 963.9,-144.51 968.1,-134.91"/>
<polygon fill="#63b8ff" stroke="#63b8ff" points="948.58,-170.8 947.78,-181.37 954.99,-173.61 948.58,-170.8"/>
</a>
</g>
</g>
<!-- Node21&#45;&gt;Node15 -->
<g id="edge42_Node000021_Node000015" class="edge">
<title>Node21&#45;&gt;Node15</title>
<g id="a_edge42_Node000021_Node000015"><a xlink:title=" ">
<path fill="none" stroke="#63b8ff" d="M972,-105.16C972,-94.74 972,-82.3 972,-74.17"/>
<polygon fill="#63b8ff" stroke="#63b8ff" points="968.5,-105.37 972,-115.37 975.5,-105.37 968.5,-105.37"/>
</a>
</g>
</g>
<!-- Node21&#45;&gt;Node16 -->
<g id="edge41_Node000021_Node000016" class="edge">
<title>Node21&#45;&gt;Node16</title>
<g id="a_edge41_Node000021_Node000016"><a xlink:title=" ">
<path fill="none" stroke="#63b8ff" d="M941.93,-111.59C885.76,-88.4 766.22,-39.07 717.91,-19.13"/>
<polygon fill="#63b8ff" stroke="#63b8ff" points="940.75,-114.89 951.33,-115.47 943.42,-108.42 940.75,-114.89"/>
</a>
</g>
</g>
</g>
</svg>
