<?xml version="1.0" encoding="UTF-8" standalone="no"?>
<!DOCTYPE svg PUBLIC "-//W3C//DTD SVG 1.1//EN"
 "http://www.w3.org/Graphics/SVG/1.1/DTD/svg11.dtd">
<!-- Generated by graphviz version 2.43.0 (0)
 -->
<!-- Title: backend_manifest.hpp Pages: 1 -->
<!--zoomable 434 -->

<svg id="main" version="1.1" xmlns="http://www.w3.org/2000/svg" xmlns:xlink="http://www.w3.org/1999/xlink" xml:space="preserve" onload="init(evt)">
<style type="text/css"><![CDATA[
.node, .edge {opacity: 0.7;}
.node.selected, .edge.selected {opacity: 1;}
.edge:hover path { stroke: red; }
.edge:hover polygon { stroke: red; fill: red; }
]]></style>

<defs>
  <circle id="rim" cx="0" cy="0" r="7"/>
  <circle id="rim2" cx="0" cy="0" r="3.5"/>
  <g id="zoomPlus">
    <use xlink:href="#rim" fill="#404040"><set attributeName="fill" to="#808080" begin="zoomplus.mouseover" end="zoomplus.mouseout"/></use>
    <path d="M-4,0h8M0,-4v8" fill="none" stroke="white" stroke-width="1.5" pointer-events="none"/>
  </g>
  <g id="zoomMin">
    <use xlink:href="#rim" fill="#404040"><set attributeName="fill" to="#808080" begin="zoomminus.mouseover" end="zoomminus.mouseout"/></use>
    <path d="M-4,0h8" fill="none" stroke="white" stroke-width="1.5" pointer-events="none"/>
  </g>
  <g id="arrowUp" transform="translate(30 24)">
    <use xlink:href="#rim"/>
    <path pointer-events="none" fill="none" stroke="white" stroke-width="1.5" d="M0,-3.0v7 M-2.5,-0.5L0,-3.0L2.5,-0.5"/>
  </g>
  <g id="arrowRight" transform="rotate(90) translate(36 -43)">
    <use xlink:href="#rim"/>
    <path pointer-events="none" fill="none" stroke="white" stroke-width="1.5" d="M0,-3.0v7 M-2.5,-0.5L0,-3.0L2.5,-0.5"/>
  </g>
  <g id="arrowDown" transform="rotate(180) translate(-30 -48)">
    <use xlink:href="#rim"/>
    <path pointer-events="none" fill="none" stroke="white" stroke-width="1.5" d="M0,-3.0v7 M-2.5,-0.5L0,-3.0L2.5,-0.5"/>
  </g>
  <g id="arrowLeft" transform="rotate(270) translate(-36 17)">
    <use xlink:href="#rim"/>
    <path pointer-events="none" fill="none" stroke="white" stroke-width="1.5" d="M0,-3.0v7 M-2.5,-0.5L0,-3.0L2.5,-0.5"/>
  </g>
  <g id="resetDef">
    <use xlink:href="#rim2" fill="#404040"><set attributeName="fill" to="#808080" begin="reset.mouseover" end="reset.mouseout"/></use>
  </g>
</defs>
<script type="application/ecmascript">
var viewWidth = 1741;
var viewHeight = 434;
var sectionId = 'dynsection-0';
</script>
<script type="application/ecmascript" xlink:href="svg.min.js"/>
<svg id="graph" class="graph">
<g id="viewport">
<title>backend_manifest.hpp</title>
<!-- Node1 -->
<g id="Node000001" class="node">
<title>Node1</title>
<g id="a_Node000001"><a xlink:title=" ">
<polygon fill="#999999" stroke="#666666" points="1349.89,-426 1222.89,-426 1222.89,-407 1349.89,-407 1349.89,-426"/>
<text text-anchor="middle" x="1286.39" y="-414" font-family="Helvetica,sans-Serif" font-size="10.00">backend_manifest.hpp</text>
</a>
</g>
</g>
<!-- Node2 -->
<g id="Node000002" class="node">
<title>Node2</title>
<g id="a_Node000002"><a xlink:href="linalg__cpu_8hpp.html" target="_top" xlink:title=" ">
<polygon fill="white" stroke="#666666" points="818.39,-371 696.39,-371 696.39,-341 818.39,-341 818.39,-371"/>
<text text-anchor="start" x="704.39" y="-359" font-family="Helvetica,sans-Serif" font-size="10.00">uni20/linalg/backends</text>
<text text-anchor="middle" x="757.39" y="-348" font-family="Helvetica,sans-Serif" font-size="10.00">/cpu/linalg_cpu.hpp</text>
</a>
</g>
</g>
<!-- Node1&#45;&gt;Node2 -->
<g id="edge1_Node000001_Node000002" class="edge">
<title>Node1&#45;&gt;Node2</title>
<g id="a_edge1_Node000001_Node000002"><a xlink:title=" ">
<path fill="none" stroke="#63b8ff" d="M1222.85,-408.47C1123.62,-397.5 932.51,-376.37 828.71,-364.89"/>
<polygon fill="#63b8ff" stroke="#63b8ff" points="828.96,-361.39 818.63,-363.77 828.19,-368.35 828.96,-361.39"/>
</a>
</g>
</g>
<!-- Node8 -->
<g id="Node000008" class="node">
<title>Node8</title>
<g id="a_Node000008"><a xlink:href="tags_2cpu_8hpp.html" target="_top" xlink:title="Tag for selecting CPU&#45;based Uni20 kernels.">
<polygon fill="white" stroke="#666666" points="1072.89,-74 963.89,-74 963.89,-55 1072.89,-55 1072.89,-74"/>
<text text-anchor="middle" x="1018.39" y="-62" font-family="Helvetica,sans-Serif" font-size="10.00">uni20/tags/cpu.hpp</text>
</a>
</g>
</g>
<!-- Node1&#45;&gt;Node8 -->
<g id="edge46_Node000001_Node000008" class="edge">
<title>Node1&#45;&gt;Node8</title>
<g id="a_edge46_Node000001_Node000008"><a xlink:title=" ">
<path fill="none" stroke="#63b8ff" d="M1222.77,-410.76C1163.2,-405.01 1079.95,-393.22 1056.39,-371 1031.53,-347.56 1037.39,-330.67 1037.39,-296.5 1037.39,-296.5 1037.39,-296.5 1037.39,-173.5 1037.39,-141.56 1029.23,-105.1 1023.61,-83.77"/>
<polygon fill="#63b8ff" stroke="#63b8ff" points="1026.97,-82.81 1020.95,-74.09 1020.22,-84.66 1026.97,-82.81"/>
</a>
</g>
</g>
<!-- Node27 -->
<g id="Node000027" class="node">
<title>Node27</title>
<g id="a_Node000027"><a xlink:href="linalg__cusolver_8hpp.html" target="_top" xlink:title=" ">
<polygon fill="white" stroke="#666666" points="1365.39,-371 1207.39,-371 1207.39,-341 1365.39,-341 1365.39,-371"/>
<text text-anchor="start" x="1215.39" y="-359" font-family="Helvetica,sans-Serif" font-size="10.00">uni20/linalg/backends</text>
<text text-anchor="middle" x="1286.39" y="-348" font-family="Helvetica,sans-Serif" font-size="10.00">/cusolver/linalg_cusolver.hpp</text>
</a>
</g>
</g>
<!-- Node1&#45;&gt;Node27 -->
<g id="edge42_Node000001_Node000027" class="edge">
<title>Node1&#45;&gt;Node27</title>
<g id="a_edge42_Node000001_Node000027"><a xlink:title=" ">
<path fill="none" stroke="#63b8ff" d="M1286.39,-406.87C1286.39,-400.11 1286.39,-390.35 1286.39,-381.26"/>
<polygon fill="#63b8ff" stroke="#63b8ff" points="1289.89,-381.11 1286.39,-371.11 1282.89,-381.11 1289.89,-381.11"/>
</a>
</g>
</g>
<!-- Node29 -->
<g id="Node000029" class="node">
<title>Node29</title>
<g id="a_Node000029"><a xlink:href="linalg__lapack_8hpp.html" target="_top" xlink:title=" ">
<polygon fill="white" stroke="#666666" points="1523.39,-371 1383.39,-371 1383.39,-341 1523.39,-341 1523.39,-371"/>
<text text-anchor="start" x="1391.39" y="-359" font-family="Helvetica,sans-Serif" font-size="10.00">uni20/linalg/backends</text>
<text text-anchor="middle" x="1453.39" y="-348" font-family="Helvetica,sans-Serif" font-size="10.00">/lapack/linalg_lapack.hpp</text>
</a>
</g>
</g>
<!-- Node1&#45;&gt;Node29 -->
<g id="edge44_Node000001_Node000029" class="edge">
<title>Node1&#45;&gt;Node29</title>
<g id="a_edge44_Node000001_Node000029"><a xlink:title=" ">
<path fill="none" stroke="#63b8ff" d="M1310.68,-406.99C1334.92,-398.5 1372.88,-385.2 1403.56,-374.45"/>
<polygon fill="#63b8ff" stroke="#63b8ff" points="1404.96,-377.67 1413.24,-371.06 1402.65,-371.07 1404.96,-377.67"/>
</a>
</g>
</g>
<!-- Node31 -->
<g id="Node000031" class="node">
<title>Node31</title>
<g id="a_Node000031"><a xlink:href="cusolver_8hpp.html" target="_top" xlink:title="Tag for selecting cuSOLVER&#45;backed kernels.">
<polygon fill="white" stroke="#666666" points="1673.39,-365.5 1541.39,-365.5 1541.39,-346.5 1673.39,-346.5 1673.39,-365.5"/>
<text text-anchor="middle" x="1607.39" y="-353.5" font-family="Helvetica,sans-Serif" font-size="10.00">uni20/tags/cusolver.hpp</text>
</a>
</g>
</g>
<!-- Node1&#45;&gt;Node31 -->
<g id="edge47_Node000001_Node000031" class="edge">
<title>Node1&#45;&gt;Node31</title>
<g id="a_edge47_Node000001_Node000031"><a xlink:title=" ">
<path fill="none" stroke="#63b8ff" d="M1334.03,-406.96C1383.59,-398.06 1463.45,-383.67 1532.39,-371 1538.63,-369.85 1545.16,-368.65 1551.66,-367.44"/>
<polygon fill="#63b8ff" stroke="#63b8ff" points="1552.6,-370.82 1561.79,-365.55 1551.32,-363.94 1552.6,-370.82"/>
</a>
</g>
</g>
<!-- Node34 -->
<g id="Node000034" class="node">
<title>Node34</title>
<g id="a_Node000034"><a xlink:href="lapack_8hpp.html" target="_top" xlink:title="Tag for selecting LAPACK&#45;backed kernels.">
<polygon fill="white" stroke="#666666" points="1189.39,-365.5 1065.39,-365.5 1065.39,-346.5 1189.39,-346.5 1189.39,-365.5"/>
<text text-anchor="middle" x="1127.39" y="-353.5" font-family="Helvetica,sans-Serif" font-size="10.00">uni20/tags/lapack.hpp</text>
</a>
</g>
</g>
<!-- Node1&#45;&gt;Node34 -->
<g id="edge50_Node000001_Node000034" class="edge">
<title>Node1&#45;&gt;Node34</title>
<g id="a_edge50_Node000001_Node000034"><a xlink:title=" ">
<path fill="none" stroke="#63b8ff" d="M1263.27,-406.99C1236.07,-396.99 1190.73,-380.3 1159.97,-368.99"/>
<polygon fill="#63b8ff" stroke="#63b8ff" points="1161.13,-365.68 1150.54,-365.52 1158.72,-372.25 1161.13,-365.68"/>
</a>
</g>
</g>
<!-- Node36 -->
<g id="Node000036" class="node">
<title>Node36</title>
<g id="a_Node000036"><a xlink:title=" ">
<polygon fill="#e0e0e0" stroke="#999999" points="1732.89,-365.5 1691.89,-365.5 1691.89,-346.5 1732.89,-346.5 1732.89,-365.5"/>
<text text-anchor="middle" x="1712.39" y="-353.5" font-family="Helvetica,sans-Serif" font-size="10.00">tuple</text>
</a>
</g>
</g>
<!-- Node1&#45;&gt;Node36 -->
<g id="edge53_Node000001_Node000036" class="edge">
<title>Node1&#45;&gt;Node36</title>
<g id="a_edge53_Node000001_Node000036"><a xlink:title=" ">
<path fill="none" stroke="#63b8ff" d="M1350.01,-414.66C1429.27,-412.19 1568.18,-403.13 1682.39,-371 1684.03,-370.54 1685.69,-370 1687.34,-369.4"/>
<polygon fill="#63b8ff" stroke="#63b8ff" points="1688.69,-372.63 1696.57,-365.55 1685.99,-366.17 1688.69,-372.63"/>
</a>
</g>
</g>
<!-- Node3 -->
<g id="Node000003" class="node">
<title>Node3</title>
<g id="a_Node000003"><a xlink:href="matrix__ops__cpu_8hpp.html" target="_top" xlink:title=" ">
<polygon fill="white" stroke="#666666" points="659.89,-305 544.89,-305 544.89,-286 659.89,-286 659.89,-305"/>
<text text-anchor="middle" x="602.39" y="-293" font-family="Helvetica,sans-Serif" font-size="10.00">matrix_ops_cpu.hpp</text>
</a>
</g>
</g>
<!-- Node2&#45;&gt;Node3 -->
<g id="edge2_Node000002_Node000003" class="edge">
<title>Node2&#45;&gt;Node3</title>
<g id="a_edge2_Node000002_Node000003"><a xlink:title=" ">
<path fill="none" stroke="#63b8ff" d="M720.27,-340.99C694.17,-331.14 659.61,-318.1 634.67,-308.68"/>
<polygon fill="#63b8ff" stroke="#63b8ff" points="635.87,-305.4 625.28,-305.14 633.4,-311.94 635.87,-305.4"/>
</a>
</g>
</g>
<!-- Node4 -->
<g id="Node000004" class="node">
<title>Node4</title>
<g id="a_Node000004"><a xlink:href="types_8hpp.html" target="_top" xlink:title=" ">
<polygon fill="white" stroke="#666666" points="195.89,-184 76.89,-184 76.89,-165 195.89,-165 195.89,-184"/>
<text text-anchor="middle" x="136.39" y="-172" font-family="Helvetica,sans-Serif" font-size="10.00">uni20/core/types.hpp</text>
</a>
</g>
</g>
<!-- Node3&#45;&gt;Node4 -->
<g id="edge3_Node000003_Node000004" class="edge">
<title>Node3&#45;&gt;Node4</title>
<g id="a_edge3_Node000003_Node000004"><a xlink:title=" ">
<path fill="none" stroke="#63b8ff" d="M557.96,-285.94C515.7,-277.57 450.45,-264.07 394.39,-250 315.07,-230.09 223.32,-202.49 173.41,-187.08"/>
<polygon fill="#63b8ff" stroke="#63b8ff" points="174.3,-183.69 163.71,-184.08 172.23,-190.38 174.3,-183.69"/>
</a>
</g>
</g>
<!-- Node6 -->
<g id="Node000006" class="node">
<title>Node6</title>
<g id="a_Node000006"><a xlink:title=" ">
<polygon fill="#e0e0e0" stroke="#999999" points="71.89,-129 12.89,-129 12.89,-110 71.89,-110 71.89,-129"/>
<text text-anchor="middle" x="42.39" y="-117" font-family="Helvetica,sans-Serif" font-size="10.00">complex</text>
</a>
</g>
</g>
<!-- Node3&#45;&gt;Node6 -->
<g id="edge38_Node000003_Node000006" class="edge">
<title>Node3&#45;&gt;Node6</title>
<g id="a_edge38_Node000003_Node000006"><a xlink:title=" ">
<path fill="none" stroke="#63b8ff" d="M544.48,-289.99C420.83,-279.2 136.64,-247.93 67.39,-184 54.75,-172.33 48.41,-153.47 45.29,-139.33"/>
<polygon fill="#63b8ff" stroke="#63b8ff" points="48.68,-138.43 43.41,-129.23 41.79,-139.7 48.68,-138.43"/>
</a>
</g>
</g>
<!-- Node3&#45;&gt;Node8 -->
<g id="edge7_Node000003_Node000008" class="edge">
<title>Node3&#45;&gt;Node8</title>
<g id="a_edge7_Node000003_Node000008"><a xlink:title=" ">
<path fill="none" stroke="#63b8ff" d="M652.19,-285.95C688.13,-278.81 737.35,-267.05 778.39,-250 875.04,-209.86 906.41,-203.02 980.39,-129 993.56,-115.82 1004.01,-97.19 1010.59,-83.52"/>
<polygon fill="#63b8ff" stroke="#63b8ff" points="1013.87,-84.75 1014.85,-74.2 1007.51,-81.84 1013.87,-84.75"/>
</a>
</g>
</g>
<!-- Node9 -->
<g id="Node000009" class="node">
<title>Node9</title>
<g id="a_Node000009"><a xlink:href="tensor__view_8hpp.html" target="_top" xlink:title="Tensor view abstractions and accessor factories built on std::mdspan.">
<polygon fill="white" stroke="#666666" points="514.89,-250 403.89,-250 403.89,-220 514.89,-220 514.89,-250"/>
<text text-anchor="start" x="411.89" y="-238" font-family="Helvetica,sans-Serif" font-size="10.00">uni20/tensor/tensor</text>
<text text-anchor="middle" x="459.39" y="-227" font-family="Helvetica,sans-Serif" font-size="10.00">_view.hpp</text>
</a>
</g>
</g>
<!-- Node3&#45;&gt;Node9 -->
<g id="edge8_Node000003_Node000009" class="edge">
<title>Node3&#45;&gt;Node9</title>
<g id="a_edge8_Node000003_Node000009"><a xlink:title=" ">
<path fill="none" stroke="#63b8ff" d="M581.6,-285.99C561.11,-277.61 529.17,-264.55 503.09,-253.87"/>
<polygon fill="#63b8ff" stroke="#63b8ff" points="504.35,-250.61 493.77,-250.06 501.7,-257.09 504.35,-250.61"/>
</a>
</g>
</g>
<!-- Node17 -->
<g id="Node000017" class="node">
<title>Node17</title>
<g id="a_Node000017"><a xlink:title=" ">
<polygon fill="#e0e0e0" stroke="#999999" points="816.89,-74 747.89,-74 747.89,-55 816.89,-55 816.89,-74"/>
<text text-anchor="middle" x="782.39" y="-62" font-family="Helvetica,sans-Serif" font-size="10.00">type_traits</text>
</a>
</g>
</g>
<!-- Node3&#45;&gt;Node17 -->
<g id="edge40_Node000003_Node000017" class="edge">
<title>Node3&#45;&gt;Node17</title>
<g id="a_edge40_Node000003_Node000017"><a xlink:title=" ">
<path fill="none" stroke="#63b8ff" d="M660.12,-291.3C692.03,-286.53 730.03,-275.4 754.39,-250 798.09,-204.44 791.49,-121.35 785.84,-84.26"/>
<polygon fill="#63b8ff" stroke="#63b8ff" points="789.28,-83.6 784.18,-74.31 782.38,-84.75 789.28,-83.6"/>
</a>
</g>
</g>
<!-- Node18 -->
<g id="Node000018" class="node">
<title>Node18</title>
<g id="a_Node000018"><a xlink:title=" ">
<polygon fill="#e0e0e0" stroke="#999999" points="237.89,-74 192.89,-74 192.89,-55 237.89,-55 237.89,-74"/>
<text text-anchor="middle" x="215.39" y="-62" font-family="Helvetica,sans-Serif" font-size="10.00">utility</text>
</a>
</g>
</g>
<!-- Node3&#45;&gt;Node18 -->
<g id="edge41_Node000003_Node000018" class="edge">
<title>Node3&#45;&gt;Node18</title>
<g id="a_edge41_Node000003_Node000018"><a xlink:title=" ">
<path fill="none" stroke="#63b8ff" d="M544.6,-292.9C436.98,-289.27 210.2,-278.42 137.39,-250 62.64,-220.82 31.18,-204.28 3.39,-129 0.47,-121.08 -1.93,-116.56 3.39,-110 25.62,-82.63 129.01,-71.48 182.75,-67.47"/>
<polygon fill="#63b8ff" stroke="#63b8ff" points="183.07,-70.96 192.8,-66.77 182.58,-63.98 183.07,-70.96"/>
</a>
</g>
</g>
<!-- Node24 -->
<g id="Node000024" class="node">
<title>Node24</title>
<g id="a_Node000024"><a xlink:title=" ">
<polygon fill="#e0e0e0" stroke="#999999" points="597.39,-244.5 533.39,-244.5 533.39,-225.5 597.39,-225.5 597.39,-244.5"/>
<text text-anchor="middle" x="565.39" y="-232.5" font-family="Helvetica,sans-Serif" font-size="10.00">algorithm</text>
</a>
</g>
</g>
<!-- Node3&#45;&gt;Node24 -->
<g id="edge36_Node000003_Node000024" class="edge">
<title>Node3&#45;&gt;Node24</title>
<g id="a_edge36_Node000003_Node000024"><a xlink:title=" ">
<path fill="none" stroke="#63b8ff" d="M596.93,-285.87C591.52,-277.31 583.08,-263.97 576.3,-253.24"/>
<polygon fill="#63b8ff" stroke="#63b8ff" points="579.18,-251.25 570.87,-244.67 573.26,-254.99 579.18,-251.25"/>
</a>
</g>
</g>
<!-- Node25 -->
<g id="Node000025" class="node">
<title>Node25</title>
<g id="a_Node000025"><a xlink:title=" ">
<polygon fill="#e0e0e0" stroke="#999999" points="662.89,-244.5 615.89,-244.5 615.89,-225.5 662.89,-225.5 662.89,-244.5"/>
<text text-anchor="middle" x="639.39" y="-232.5" font-family="Helvetica,sans-Serif" font-size="10.00">cmath</text>
</a>
</g>
</g>
<!-- Node3&#45;&gt;Node25 -->
<g id="edge37_Node000003_Node000025" class="edge">
<title>Node3&#45;&gt;Node25</title>
<g id="a_edge37_Node000003_Node000025"><a xlink:title=" ">
<path fill="none" stroke="#63b8ff" d="M607.85,-285.87C613.26,-277.31 621.7,-263.97 628.49,-253.24"/>
<polygon fill="#63b8ff" stroke="#63b8ff" points="631.52,-254.99 633.91,-244.67 625.61,-251.25 631.52,-254.99"/>
</a>
</g>
</g>
<!-- Node26 -->
<g id="Node000026" class="node">
<title>Node26</title>
<g id="a_Node000026"><a xlink:title=" ">
<polygon fill="#e0e0e0" stroke="#999999" points="745.89,-244.5 680.89,-244.5 680.89,-225.5 745.89,-225.5 745.89,-244.5"/>
<text text-anchor="middle" x="713.39" y="-232.5" font-family="Helvetica,sans-Serif" font-size="10.00">stdexcept</text>
</a>
</g>
</g>
<!-- Node3&#45;&gt;Node26 -->
<g id="edge39_Node000003_Node000026" class="edge">
<title>Node3&#45;&gt;Node26</title>
<g id="a_edge39_Node000003_Node000026"><a xlink:title=" ">
<path fill="none" stroke="#63b8ff" d="M618.77,-285.87C636.97,-276.28 666.59,-260.67 687.84,-249.47"/>
<polygon fill="#63b8ff" stroke="#63b8ff" points="689.73,-252.43 696.95,-244.67 686.47,-246.23 689.73,-252.43"/>
</a>
</g>
</g>
<!-- Node5 -->
<g id="Node000005" class="node">
<title>Node5</title>
<g id="a_Node000005"><a xlink:title=" ">
<polygon fill="#e0e0e0" stroke="#999999" points="186.89,-129 89.89,-129 89.89,-110 186.89,-110 186.89,-129"/>
<text text-anchor="middle" x="138.39" y="-117" font-family="Helvetica,sans-Serif" font-size="10.00">uni20/config.hpp</text>
</a>
</g>
</g>
<!-- Node4&#45;&gt;Node5 -->
<g id="edge4_Node000004_Node000005" class="edge">
<title>Node4&#45;&gt;Node5</title>
<g id="a_edge4_Node000004_Node000005"><a xlink:title=" ">
<path fill="none" stroke="#63b8ff" d="M136.72,-164.75C136.98,-157.8 137.36,-147.85 137.69,-139.13"/>
<polygon fill="#63b8ff" stroke="#63b8ff" points="141.19,-139.21 138.07,-129.09 134.19,-138.95 141.19,-139.21"/>
</a>
</g>
</g>
<!-- Node4&#45;&gt;Node6 -->
<g id="edge5_Node000004_Node000006" class="edge">
<title>Node4&#45;&gt;Node6</title>
<g id="a_edge5_Node000004_Node000006"><a xlink:title=" ">
<path fill="none" stroke="#63b8ff" d="M121.29,-164.98C106.58,-156.69 83.97,-143.94 66.72,-134.22"/>
<polygon fill="#63b8ff" stroke="#63b8ff" points="68.2,-131.03 57.77,-129.17 64.76,-137.13 68.2,-131.03"/>
</a>
</g>
</g>
<!-- Node7 -->
<g id="Node000007" class="node">
<title>Node7</title>
<g id="a_Node000007"><a xlink:title=" ">
<polygon fill="#e0e0e0" stroke="#999999" points="319.39,-74 259.39,-74 259.39,-55 319.39,-55 319.39,-74"/>
<text text-anchor="middle" x="289.39" y="-62" font-family="Helvetica,sans-Serif" font-size="10.00">concepts</text>
</a>
</g>
</g>
<!-- Node4&#45;&gt;Node7 -->
<g id="edge6_Node000004_Node000007" class="edge">
<title>Node4&#45;&gt;Node7</title>
<g id="a_edge6_Node000004_Node000007"><a xlink:title=" ">
<path fill="none" stroke="#63b8ff" d="M148.65,-164.84C174.84,-146.36 236.47,-102.86 268.79,-80.05"/>
<polygon fill="#63b8ff" stroke="#63b8ff" points="270.92,-82.82 277.07,-74.2 266.88,-77.1 270.92,-82.82"/>
</a>
</g>
</g>
<!-- Node9&#45;&gt;Node4 -->
<g id="edge13_Node000009_Node000004" class="edge">
<title>Node9&#45;&gt;Node4</title>
<g id="a_edge13_Node000009_Node000004"><a xlink:title=" ">
<path fill="none" stroke="#63b8ff" d="M403.87,-223.94C345.04,-213.29 252.63,-196.55 193.29,-185.81"/>
<polygon fill="#63b8ff" stroke="#63b8ff" points="193.8,-182.34 183.34,-184 192.55,-189.23 193.8,-182.34"/>
</a>
</g>
</g>
<!-- Node9&#45;&gt;Node7 -->
<g id="edge33_Node000009_Node000007" class="edge">
<title>Node9&#45;&gt;Node7</title>
<g id="a_edge33_Node000009_Node000007"><a xlink:title=" ">
<path fill="none" stroke="#63b8ff" d="M429,-219.99C395.37,-203.01 341.78,-171.32 310.39,-129 300.56,-115.74 295.17,-97.62 292.32,-84.13"/>
<polygon fill="#63b8ff" stroke="#63b8ff" points="295.73,-83.3 290.49,-74.1 288.84,-84.56 295.73,-83.3"/>
</a>
</g>
</g>
<!-- Node10 -->
<g id="Node000010" class="node">
<title>Node10</title>
<g id="a_Node000010"><a xlink:href="mdspan_8hpp.html" target="_top" xlink:title="Wrapper that exposes the mdspan reference implementation and a formatter bridge.">
<polygon fill="white" stroke="#666666" points="597.39,-74 445.39,-74 445.39,-55 597.39,-55 597.39,-74"/>
<text text-anchor="middle" x="521.39" y="-62" font-family="Helvetica,sans-Serif" font-size="10.00">uni20/common/mdspan.hpp</text>
</a>
</g>
</g>
<!-- Node9&#45;&gt;Node10 -->
<g id="edge9_Node000009_Node000010" class="edge">
<title>Node9&#45;&gt;Node10</title>
<g id="a_edge9_Node000009_Node000010"><a xlink:title=" ">
<path fill="none" stroke="#63b8ff" d="M464.57,-219.92C475.76,-189.52 502.18,-117.73 514.65,-83.83"/>
<polygon fill="#63b8ff" stroke="#63b8ff" points="518,-84.85 518.17,-74.25 511.43,-82.43 518,-84.85"/>
</a>
</g>
</g>
<!-- Node14 -->
<g id="Node000014" class="node">
<title>Node14</title>
<g id="a_Node000014"><a xlink:href="layout_8hpp.html" target="_top" xlink:title=" ">
<polygon fill="white" stroke="#666666" points="635.39,-129 567.39,-129 567.39,-110 635.39,-110 635.39,-129"/>
<text text-anchor="middle" x="601.39" y="-117" font-family="Helvetica,sans-Serif" font-size="10.00">layout.hpp</text>
</a>
</g>
</g>
<!-- Node9&#45;&gt;Node14 -->
<g id="edge14_Node000009_Node000014" class="edge">
<title>Node9&#45;&gt;Node14</title>
<g id="a_edge14_Node000009_Node000014"><a xlink:title=" ">
<path fill="none" stroke="#63b8ff" d="M468.52,-219.89C478.77,-204.85 496.6,-181.05 516.39,-165 532.51,-151.93 553.06,-141.05 569.92,-133.31"/>
<polygon fill="#63b8ff" stroke="#63b8ff" points="571.64,-136.38 579.36,-129.13 568.8,-129.98 571.64,-136.38"/>
</a>
</g>
</g>
<!-- Node15 -->
<g id="Node000015" class="node">
<title>Node15</title>
<g id="a_Node000015"><a xlink:title=" ">
<polygon fill="#e0e0e0" stroke="#999999" points="729.39,-74 687.39,-74 687.39,-55 729.39,-55 729.39,-74"/>
<text text-anchor="middle" x="708.39" y="-62" font-family="Helvetica,sans-Serif" font-size="10.00">array</text>
</a>
</g>
</g>
<!-- Node9&#45;&gt;Node15 -->
<g id="edge32_Node000009_Node000015" class="edge">
<title>Node9&#45;&gt;Node15</title>
<g id="a_edge32_Node000009_Node000015"><a xlink:title=" ">
<path fill="none" stroke="#63b8ff" d="M515.05,-221.94C518.21,-221.28 521.34,-220.63 524.39,-220 565.42,-211.59 682.76,-216.32 709.39,-184 732.75,-155.66 723.05,-109.23 715.03,-83.71"/>
<polygon fill="#63b8ff" stroke="#63b8ff" points="718.33,-82.52 711.8,-74.17 711.69,-84.77 718.33,-82.52"/>
</a>
</g>
</g>
<!-- Node9&#45;&gt;Node17 -->
<g id="edge34_Node000009_Node000017" class="edge">
<title>Node9&#45;&gt;Node17</title>
<g id="a_edge34_Node000009_Node000017"><a xlink:title=" ">
<path fill="none" stroke="#63b8ff" d="M515.03,-221.87C518.2,-221.23 521.33,-220.6 524.39,-220 614.74,-202.3 655.6,-240.37 728.39,-184 760.61,-159.05 774.23,-110.49 779.47,-83.93"/>
<polygon fill="#63b8ff" stroke="#63b8ff" points="782.92,-84.49 781.23,-74.03 776.03,-83.26 782.92,-84.49"/>
</a>
</g>
</g>
<!-- Node9&#45;&gt;Node18 -->
<g id="edge35_Node000009_Node000018" class="edge">
<title>Node9&#45;&gt;Node18</title>
<g id="a_edge35_Node000009_Node000018"><a xlink:title=" ">
<path fill="none" stroke="#63b8ff" d="M417.68,-219.97C394.79,-211.32 366.46,-199.01 343.39,-184 297.07,-153.86 251.75,-106.47 229.54,-81.75"/>
<polygon fill="#63b8ff" stroke="#63b8ff" points="231.93,-79.17 222.68,-74.01 226.69,-83.82 231.93,-79.17"/>
</a>
</g>
</g>
<!-- Node19 -->
<g id="Node000019" class="node">
<title>Node19</title>
<g id="a_Node000019"><a xlink:href="concepts_8hpp.html" target="_top" xlink:title="Mdspan concept and accessor extensions for Uni20.">
<polygon fill="white" stroke="#666666" points="472.89,-129 319.89,-129 319.89,-110 472.89,-110 472.89,-129"/>
<text text-anchor="middle" x="396.39" y="-117" font-family="Helvetica,sans-Serif" font-size="10.00">uni20/mdspan/concepts.hpp</text>
</a>
</g>
</g>
<!-- Node9&#45;&gt;Node19 -->
<g id="edge21_Node000009_Node000019" class="edge">
<title>Node9&#45;&gt;Node19</title>
<g id="a_edge21_Node000009_Node000019"><a xlink:title=" ">
<path fill="none" stroke="#63b8ff" d="M451.41,-219.63C439.88,-198.84 418.56,-160.44 406.12,-138.02"/>
<polygon fill="#63b8ff" stroke="#63b8ff" points="409.15,-136.27 401.24,-129.23 403.03,-139.67 409.15,-136.27"/>
</a>
</g>
</g>
<!-- Node21 -->
<g id="Node000021" class="node">
<title>Node21</title>
<g id="a_Node000021"><a xlink:href="vectorstorage_8hpp.html" target="_top" xlink:title=" ">
<polygon fill="white" stroke="#666666" points="700.89,-184 525.89,-184 525.89,-165 700.89,-165 700.89,-184"/>
<text text-anchor="middle" x="613.39" y="-172" font-family="Helvetica,sans-Serif" font-size="10.00">uni20/storage/vectorstorage.hpp</text>
</a>
</g>
</g>
<!-- Node9&#45;&gt;Node21 -->
<g id="edge26_Node000009_Node000021" class="edge">
<title>Node9&#45;&gt;Node21</title>
<g id="a_edge26_Node000009_Node000021"><a xlink:title=" ">
<path fill="none" stroke="#63b8ff" d="M496.28,-219.99C522.09,-210.18 556.24,-197.21 581,-187.81"/>
<polygon fill="#63b8ff" stroke="#63b8ff" points="582.54,-190.96 590.65,-184.14 580.06,-184.42 582.54,-190.96"/>
</a>
</g>
</g>
<!-- Node11 -->
<g id="Node000011" class="node">
<title>Node11</title>
<g id="a_Node000011"><a xlink:title=" ">
<polygon fill="#e0e0e0" stroke="#999999" points="449.89,-19 370.89,-19 370.89,0 449.89,0 449.89,-19"/>
<text text-anchor="middle" x="410.39" y="-7" font-family="Helvetica,sans-Serif" font-size="10.00">fmt/format.h</text>
</a>
</g>
</g>
<!-- Node10&#45;&gt;Node11 -->
<g id="edge10_Node000010_Node000011" class="edge">
<title>Node10&#45;&gt;Node11</title>
<g id="a_edge10_Node000010_Node000011"><a xlink:title=" ">
<path fill="none" stroke="#63b8ff" d="M503.56,-54.98C485.78,-46.5 458.25,-33.35 437.71,-23.54"/>
<polygon fill="#63b8ff" stroke="#63b8ff" points="439.08,-20.32 428.55,-19.17 436.07,-26.64 439.08,-20.32"/>
</a>
</g>
</g>
<!-- Node12 -->
<g id="Node000012" class="node">
<title>Node12</title>
<g id="a_Node000012"><a xlink:title=" ">
<polygon fill="#e0e0e0" stroke="#999999" points="655.39,-19 605.39,-19 605.39,0 655.39,0 655.39,-19"/>
<text text-anchor="middle" x="630.39" y="-7" font-family="Helvetica,sans-Serif" font-size="10.00">format</text>
</a>
</g>
</g>
<!-- Node10&#45;&gt;Node12 -->
<g id="edge11_Node000010_Node000012" class="edge">
<title>Node10&#45;&gt;Node12</title>
<g id="a_edge11_Node000010_Node000012"><a xlink:title=" ">
<path fill="none" stroke="#63b8ff" d="M538.9,-54.98C556.36,-46.5 583.4,-33.35 603.56,-23.54"/>
<polygon fill="#63b8ff" stroke="#63b8ff" points="605.1,-26.69 612.56,-19.17 602.04,-20.4 605.1,-26.69"/>
</a>
</g>
</g>
<!-- Node13 -->
<g id="Node000013" class="node">
<title>Node13</title>
<g id="a_Node000013"><a xlink:title=" ">
<polygon fill="#e0e0e0" stroke="#999999" points="586.89,-19 467.89,-19 467.89,0 586.89,0 586.89,-19"/>
<text text-anchor="middle" x="527.39" y="-7" font-family="Helvetica,sans-Serif" font-size="10.00">mdspan/mdspan.hpp</text>
</a>
</g>
</g>
<!-- Node10&#45;&gt;Node13 -->
<g id="edge12_Node000010_Node000013" class="edge">
<title>Node10&#45;&gt;Node13</title>
<g id="a_edge12_Node000010_Node000013"><a xlink:title=" ">
<path fill="none" stroke="#63b8ff" d="M522.38,-54.75C523.17,-47.8 524.3,-37.85 525.28,-29.13"/>
<polygon fill="#63b8ff" stroke="#63b8ff" points="528.77,-29.42 526.42,-19.09 521.82,-28.63 528.77,-29.42"/>
</a>
</g>
</g>
<!-- Node14&#45;&gt;Node7 -->
<g id="edge17_Node000014_Node000007" class="edge">
<title>Node14&#45;&gt;Node7</title>
<g id="a_edge17_Node000014_Node000007"><a xlink:title=" ">
<path fill="none" stroke="#63b8ff" d="M567.24,-113.53C517.27,-106.12 421.08,-91.38 329.58,-74.14"/>
<polygon fill="#63b8ff" stroke="#63b8ff" points="330.07,-70.67 319.59,-72.25 328.77,-77.55 330.07,-70.67"/>
</a>
</g>
</g>
<!-- Node14&#45;&gt;Node10 -->
<g id="edge15_Node000014_Node000010" class="edge">
<title>Node14&#45;&gt;Node10</title>
<g id="a_edge15_Node000014_Node000010"><a xlink:title=" ">
<path fill="none" stroke="#63b8ff" d="M588.54,-109.98C576.25,-101.84 557.49,-89.41 542.91,-79.76"/>
<polygon fill="#63b8ff" stroke="#63b8ff" points="544.75,-76.78 534.48,-74.17 540.88,-82.61 544.75,-76.78"/>
</a>
</g>
</g>
<!-- Node14&#45;&gt;Node15 -->
<g id="edge16_Node000014_Node000015" class="edge">
<title>Node14&#45;&gt;Node15</title>
<g id="a_edge16_Node000014_Node000015"><a xlink:title=" ">
<path fill="none" stroke="#63b8ff" d="M618.58,-109.98C635.64,-101.54 662.02,-88.47 681.79,-78.68"/>
<polygon fill="#63b8ff" stroke="#63b8ff" points="683.48,-81.75 690.89,-74.17 680.37,-75.47 683.48,-81.75"/>
</a>
</g>
</g>
<!-- Node16 -->
<g id="Node000016" class="node">
<title>Node16</title>
<g id="a_Node000016"><a xlink:title=" ">
<polygon fill="#e0e0e0" stroke="#999999" points="668.89,-74 615.89,-74 615.89,-55 668.89,-55 668.89,-74"/>
<text text-anchor="middle" x="642.39" y="-62" font-family="Helvetica,sans-Serif" font-size="10.00">cstddef</text>
</a>
</g>
</g>
<!-- Node14&#45;&gt;Node16 -->
<g id="edge18_Node000014_Node000016" class="edge">
<title>Node14&#45;&gt;Node16</title>
<g id="a_edge18_Node000014_Node000016"><a xlink:title=" ">
<path fill="none" stroke="#63b8ff" d="M608.16,-109.75C613.95,-102.26 622.45,-91.28 629.53,-82.13"/>
<polygon fill="#63b8ff" stroke="#63b8ff" points="632.4,-84.14 635.75,-74.09 626.86,-79.86 632.4,-84.14"/>
</a>
</g>
</g>
<!-- Node14&#45;&gt;Node17 -->
<g id="edge19_Node000014_Node000017" class="edge">
<title>Node14&#45;&gt;Node17</title>
<g id="a_edge19_Node000014_Node000017"><a xlink:title=" ">
<path fill="none" stroke="#63b8ff" d="M630.47,-109.98C660.99,-101.05 709.16,-86.94 743.06,-77.02"/>
<polygon fill="#63b8ff" stroke="#63b8ff" points="744.47,-80.25 753.08,-74.08 742.5,-73.53 744.47,-80.25"/>
</a>
</g>
</g>
<!-- Node14&#45;&gt;Node18 -->
<g id="edge20_Node000014_Node000018" class="edge">
<title>Node14&#45;&gt;Node18</title>
<g id="a_edge20_Node000014_Node000018"><a xlink:title=" ">
<path fill="none" stroke="#63b8ff" d="M567.31,-115.46C504.37,-109.56 365.77,-95.26 250.39,-74 249.5,-73.84 248.61,-73.66 247.7,-73.49"/>
<polygon fill="#63b8ff" stroke="#63b8ff" points="248.42,-70.06 237.91,-71.36 246.94,-76.9 248.42,-70.06"/>
</a>
</g>
</g>
<!-- Node19&#45;&gt;Node7 -->
<g id="edge24_Node000019_Node000007" class="edge">
<title>Node19&#45;&gt;Node7</title>
<g id="a_edge24_Node000019_Node000007"><a xlink:title=" ">
<path fill="none" stroke="#63b8ff" d="M379.2,-109.98C362.14,-101.54 335.76,-88.47 316,-78.68"/>
<polygon fill="#63b8ff" stroke="#63b8ff" points="317.41,-75.47 306.9,-74.17 314.3,-81.75 317.41,-75.47"/>
</a>
</g>
</g>
<!-- Node19&#45;&gt;Node10 -->
<g id="edge22_Node000019_Node000010" class="edge">
<title>Node19&#45;&gt;Node10</title>
<g id="a_edge22_Node000019_Node000010"><a xlink:title=" ">
<path fill="none" stroke="#63b8ff" d="M416.48,-109.98C436.77,-101.38 468.35,-87.99 491.56,-78.15"/>
<polygon fill="#63b8ff" stroke="#63b8ff" points="493.1,-81.3 500.94,-74.17 490.37,-74.85 493.1,-81.3"/>
</a>
</g>
</g>
<!-- Node19&#45;&gt;Node11 -->
<g id="edge25_Node000019_Node000011" class="edge">
<title>Node19&#45;&gt;Node11</title>
<g id="a_edge25_Node000019_Node000011"><a xlink:title=" ">
<path fill="none" stroke="#63b8ff" d="M397.54,-109.66C399.81,-92.17 404.91,-52.8 407.96,-29.27"/>
<polygon fill="#63b8ff" stroke="#63b8ff" points="411.46,-29.53 409.27,-19.16 404.51,-28.63 411.46,-29.53"/>
</a>
</g>
</g>
<!-- Node20 -->
<g id="Node000020" class="node">
<title>Node20</title>
<g id="a_Node000020"><a xlink:title=" ">
<polygon fill="#e0e0e0" stroke="#999999" points="389.39,-74 337.39,-74 337.39,-55 389.39,-55 389.39,-74"/>
<text text-anchor="middle" x="363.39" y="-62" font-family="Helvetica,sans-Serif" font-size="10.00">cassert</text>
</a>
</g>
</g>
<!-- Node19&#45;&gt;Node20 -->
<g id="edge23_Node000019_Node000020" class="edge">
<title>Node19&#45;&gt;Node20</title>
<g id="a_edge23_Node000019_Node000020"><a xlink:title=" ">
<path fill="none" stroke="#63b8ff" d="M390.94,-109.75C386.38,-102.42 379.72,-91.73 374.1,-82.7"/>
<polygon fill="#63b8ff" stroke="#63b8ff" points="377,-80.73 368.74,-74.09 371.05,-84.43 377,-80.73"/>
</a>
</g>
</g>
<!-- Node21&#45;&gt;Node10 -->
<g id="edge27_Node000021_Node000010" class="edge">
<title>Node21&#45;&gt;Node10</title>
<g id="a_edge27_Node000021_Node000010"><a xlink:title=" ">
<path fill="none" stroke="#63b8ff" d="M600.02,-164.77C588.11,-156.54 570.71,-143.36 558.39,-129 546.48,-115.11 536.3,-96.85 529.65,-83.48"/>
<polygon fill="#63b8ff" stroke="#63b8ff" points="532.76,-81.87 525.29,-74.36 526.45,-84.89 532.76,-81.87"/>
</a>
</g>
</g>
<!-- Node21&#45;&gt;Node14 -->
<g id="edge30_Node000021_Node000014" class="edge">
<title>Node21&#45;&gt;Node14</title>
<g id="a_edge30_Node000021_Node000014"><a xlink:title=" ">
<path fill="none" stroke="#63b8ff" d="M611.41,-164.75C609.82,-157.72 607.53,-147.62 605.55,-138.84"/>
<polygon fill="#63b8ff" stroke="#63b8ff" points="608.96,-138.07 603.34,-129.09 602.13,-139.62 608.96,-138.07"/>
</a>
</g>
</g>
<!-- Node22 -->
<g id="Node000022" class="node">
<title>Node22</title>
<g id="a_Node000022"><a xlink:href="kernel_2cpu_2cpu_8hpp.html" target="_top" xlink:title=" ">
<polygon fill="white" stroke="#666666" points="971.39,-129 833.39,-129 833.39,-110 971.39,-110 971.39,-129"/>
<text text-anchor="middle" x="902.39" y="-117" font-family="Helvetica,sans-Serif" font-size="10.00">uni20/kernel/cpu/cpu.hpp</text>
</a>
</g>
</g>
<!-- Node21&#45;&gt;Node22 -->
<g id="edge28_Node000021_Node000022" class="edge">
<title>Node21&#45;&gt;Node22</title>
<g id="a_edge28_Node000021_Node000022"><a xlink:title=" ">
<path fill="none" stroke="#63b8ff" d="M659.83,-164.98C710.34,-155.72 791.13,-140.9 845.44,-130.94"/>
<polygon fill="#63b8ff" stroke="#63b8ff" points="846.39,-134.33 855.6,-129.08 845.13,-127.44 846.39,-134.33"/>
</a>
</g>
</g>
<!-- Node23 -->
<g id="Node000023" class="node">
<title>Node23</title>
<g id="a_Node000023"><a xlink:title=" ">
<polygon fill="#e0e0e0" stroke="#999999" points="700.89,-129 653.89,-129 653.89,-110 700.89,-110 700.89,-129"/>
<text text-anchor="middle" x="677.39" y="-117" font-family="Helvetica,sans-Serif" font-size="10.00">vector</text>
</a>
</g>
</g>
<!-- Node21&#45;&gt;Node23 -->
<g id="edge31_Node000021_Node000023" class="edge">
<title>Node21&#45;&gt;Node23</title>
<g id="a_edge31_Node000021_Node000023"><a xlink:title=" ">
<path fill="none" stroke="#63b8ff" d="M623.67,-164.98C633.23,-157.07 647.67,-145.11 659.18,-135.58"/>
<polygon fill="#63b8ff" stroke="#63b8ff" points="661.45,-138.24 666.92,-129.17 656.99,-132.85 661.45,-138.24"/>
</a>
</g>
</g>
<!-- Node22&#45;&gt;Node8 -->
<g id="edge29_Node000022_Node000008" class="edge">
<title>Node22&#45;&gt;Node8</title>
<g id="a_edge29_Node000022_Node000008"><a xlink:title=" ">
<path fill="none" stroke="#63b8ff" d="M921.03,-109.98C939.69,-101.46 968.64,-88.23 990.13,-78.41"/>
<polygon fill="#63b8ff" stroke="#63b8ff" points="991.77,-81.51 999.42,-74.17 988.87,-75.14 991.77,-81.51"/>
</a>
</g>
</g>
<!-- Node28 -->
<g id="Node000028" class="node">
<title>Node28</title>
<g id="a_Node000028"><a xlink:href="matrix__ops__cusolver_8hpp.html" target="_top" xlink:title=" ">
<polygon fill="white" stroke="#666666" points="1355.39,-305 1217.39,-305 1217.39,-286 1355.39,-286 1355.39,-305"/>
<text text-anchor="middle" x="1286.39" y="-293" font-family="Helvetica,sans-Serif" font-size="10.00">matrix_ops_cusolver.hpp</text>
</a>
</g>
</g>
<!-- Node27&#45;&gt;Node28 -->
<g id="edge43_Node000027_Node000028" class="edge">
<title>Node27&#45;&gt;Node28</title>
<g id="a_edge43_Node000027_Node000028"><a xlink:title=" ">
<path fill="none" stroke="#63b8ff" d="M1286.39,-340.84C1286.39,-333.21 1286.39,-323.7 1286.39,-315.45"/>
<polygon fill="#63b8ff" stroke="#63b8ff" points="1289.89,-315.27 1286.39,-305.27 1282.89,-315.27 1289.89,-315.27"/>
</a>
</g>
</g>
<!-- Node30 -->
<g id="Node000030" class="node">
<title>Node30</title>
<g id="a_Node000030"><a xlink:href="matrix__ops__lapack_8hpp.html" target="_top" xlink:title=" ">
<polygon fill="white" stroke="#666666" points="1518.39,-305 1388.39,-305 1388.39,-286 1518.39,-286 1518.39,-305"/>
<text text-anchor="middle" x="1453.39" y="-293" font-family="Helvetica,sans-Serif" font-size="10.00">matrix_ops_lapack.hpp</text>
</a>
</g>
</g>
<!-- Node29&#45;&gt;Node30 -->
<g id="edge45_Node000029_Node000030" class="edge">
<title>Node29&#45;&gt;Node30</title>
<g id="a_edge45_Node000029_Node000030"><a xlink:title=" ">
<path fill="none" stroke="#63b8ff" d="M1453.39,-340.84C1453.39,-333.21 1453.39,-323.7 1453.39,-315.45"/>
<polygon fill="#63b8ff" stroke="#63b8ff" points="1456.89,-315.27 1453.39,-305.27 1449.89,-315.27 1456.89,-315.27"/>
</a>
</g>
</g>
<!-- Node32 -->
<g id="Node000032" class="node">
<title>Node32</title>
<g id="a_Node000032"><a xlink:href="cublas_8hpp.html" target="_top" xlink:title="Tag for selecting cuBLAS&#45;backed kernels.">
<polygon fill="white" stroke="#666666" points="1668.89,-305 1545.89,-305 1545.89,-286 1668.89,-286 1668.89,-305"/>
<text text-anchor="middle" x="1607.39" y="-293" font-family="Helvetica,sans-Serif" font-size="10.00">uni20/tags/cublas.hpp</text>
</a>
</g>
</g>
<!-- Node31&#45;&gt;Node32 -->
<g id="edge48_Node000031_Node000032" class="edge">
<title>Node31&#45;&gt;Node32</title>
<g id="a_edge48_Node000031_Node000032"><a xlink:title=" ">
<path fill="none" stroke="#63b8ff" d="M1607.39,-346.37C1607.39,-338.25 1607.39,-325.81 1607.39,-315.39"/>
<polygon fill="#63b8ff" stroke="#63b8ff" points="1610.89,-315.17 1607.39,-305.17 1603.89,-315.17 1610.89,-315.17"/>
</a>
</g>
</g>
<!-- Node33 -->
<g id="Node000033" class="node">
<title>Node33</title>
<g id="a_Node000033"><a xlink:href="cuda_8hpp.html" target="_top" xlink:title="Tag for selecting CUDA&#45;capable kernels.">
<polygon fill="white" stroke="#666666" points="1664.89,-244.5 1549.89,-244.5 1549.89,-225.5 1664.89,-225.5 1664.89,-244.5"/>
<text text-anchor="middle" x="1607.39" y="-232.5" font-family="Helvetica,sans-Serif" font-size="10.00">uni20/tags/cuda.hpp</text>
</a>
</g>
</g>
<!-- Node32&#45;&gt;Node33 -->
<g id="edge49_Node000032_Node000033" class="edge">
<title>Node32&#45;&gt;Node33</title>
<g id="a_edge49_Node000032_Node000033"><a xlink:title=" ">
<path fill="none" stroke="#63b8ff" d="M1607.39,-285.87C1607.39,-277.75 1607.39,-265.31 1607.39,-254.89"/>
<polygon fill="#63b8ff" stroke="#63b8ff" points="1610.89,-254.67 1607.39,-244.67 1603.89,-254.67 1610.89,-254.67"/>
</a>
</g>
</g>
<!-- Node35 -->
<g id="Node000035" class="node">
<title>Node35</title>
<g id="a_Node000035"><a xlink:href="tags_2blas_8hpp.html" target="_top" xlink:title="Tag for selecting BLAS&#45;backed kernels.">
<polygon fill="white" stroke="#666666" points="1179.39,-184 1067.39,-184 1067.39,-165 1179.39,-165 1179.39,-184"/>
<text text-anchor="middle" x="1123.39" y="-172" font-family="Helvetica,sans-Serif" font-size="10.00">uni20/tags/blas.hpp</text>
</a>
</g>
</g>
<!-- Node34&#45;&gt;Node35 -->
<g id="edge51_Node000034_Node000035" class="edge">
<title>Node34&#45;&gt;Node35</title>
<g id="a_edge51_Node000034_Node000035"><a xlink:title=" ">
<path fill="none" stroke="#63b8ff" d="M1127.2,-346.34C1126.59,-318.8 1124.67,-232.76 1123.81,-194.34"/>
<polygon fill="#63b8ff" stroke="#63b8ff" points="1127.31,-193.99 1123.58,-184.07 1120.31,-194.15 1127.31,-193.99"/>
</a>
</g>
</g>
<!-- Node35&#45;&gt;Node8 -->
<g id="edge52_Node000035_Node000008" class="edge">
<title>Node35&#45;&gt;Node8</title>
<g id="a_edge52_Node000035_Node000008"><a xlink:title=" ">
<path fill="none" stroke="#63b8ff" d="M1114.8,-164.66C1097.1,-146.46 1056.35,-104.55 1033.92,-81.47"/>
<polygon fill="#63b8ff" stroke="#63b8ff" points="1036.29,-78.89 1026.81,-74.16 1031.27,-83.77 1036.29,-78.89"/>
</a>
</g>
</g>
</g>
</svg>

<g id="navigator" transform="translate(0 0)" fill="#404254">
  <rect fill="#f2f5e9" fill-opacity="0.5" stroke="#606060" stroke-width=".5" x="0" y="0" width="60" height="60"/>
  <use id="zoomplus" xlink:href="#zoomPlus" x="17" y="9" onmousedown="handleZoom(evt,'in')"/>
  <use id="zoomminus" xlink:href="#zoomMin" x="42" y="9" onmousedown="handleZoom(evt,'out')"/>
  <use id="reset" xlink:href="#resetDef" x="30" y="36" onmousedown="handleReset()"/>
   <use id="arrowup" xlink:href="#arrowUp" x="0" y="0" onmousedown="handlePan(0,-1)"/>
  <use id="arrowright" xlink:href="#arrowRight" x="0" y="0" onmousedown="handlePan(1,0)"/>
  <use id="arrowdown" xlink:href="#arrowDown" x="0" y="0" onmousedown="handlePan(0,1)"/>
  <use id="arrowleft" xlink:href="#arrowLeft" x="0" y="0" onmousedown="handlePan(-1,0)"/>
</g>
<svg viewBox="0 0 15 15" width="100%" height="30px" preserveAspectRatio="xMaxYMin meet">
 <g id="arrow_out" transform="scale(0.3 0.3)">
  <a xlink:href="backend__manifest_8hpp__incl_org.svg" target="_base">
   <rect id="button" ry="5" rx="5" y="6" x="6" height="38" width="38"
        fill="#f2f5e9" fill-opacity="0.5" stroke="#606060" stroke-width="1.0"/>
   <path id="arrow"
     d="M 11.500037,31.436501 C 11.940474,20.09759 22.043105,11.32322 32.158766,21.979434 L 37.068811,17.246167 C 37.068811,17.246167 37.088388,32 37.088388,32 L 22.160133,31.978069 C 22.160133,31.978069 26.997745,27.140456 26.997745,27.140456 C 18.528582,18.264221 13.291696,25.230495 11.500037,31.436501 z"
     style="fill:#404040;"/>
  </a>
 </g>
</svg>

<style type='text/css'>
<![CDATA[
[data-mouse-over-selected='false'] { opacity: 0.7; }
[data-mouse-over-selected='true']  { opacity: 1.0; }
]]>
</style>
<script type="application/ecmascript"><![CDATA[
document.addEventListener('DOMContentLoaded', (event) => {
  highlightEdges();
  highlightAdjacentNodes();
});
]]></script>
</svg>
