<?xml version="1.0" encoding="UTF-8" standalone="no"?>
<!DOCTYPE svg PUBLIC "-//W3C//DTD SVG 1.1//EN"
 "http://www.w3.org/Graphics/SVG/1.1/DTD/svg11.dtd">
<!-- Generated by graphviz version 2.43.0 (0)
 -->
<!-- Title: blas_example.cpp Pages: 1 -->
<svg width="204pt" height="148pt"
 viewBox="0.00 0.00 203.50 148.00" xmlns="http://www.w3.org/2000/svg" xmlns:xlink="http://www.w3.org/1999/xlink">
<g id="graph0" class="graph" transform="scale(1 1) rotate(0) translate(4 144)">
<title>blas_example.cpp</title>
<!-- Node1 -->
<g id="Node000001" class="node">
<title>Node1</title>
<g id="a_Node000001"><a xlink:title=" ">
<polygon fill="#999999" stroke="#666666" points="160.5,-140 55.5,-140 55.5,-121 160.5,-121 160.5,-140"/>
<text text-anchor="middle" x="108" y="-128" font-family="Helvetica,sans-Serif" font-size="10.00">blas_example.cpp</text>
</a>
</g>
</g>
<!-- Node2 -->
<g id="Node000002" class="node">
<title>Node2</title>
<g id="a_Node000002"><a xlink:href="blas__vendor_8hpp.html" target="_top" xlink:title=" ">
<polygon fill="white" stroke="#666666" points="110,-85 0,-85 0,-55 110,-55 110,-85"/>
<text text-anchor="start" x="8" y="-73" font-family="Helvetica,sans-Serif" font-size="10.00">uni20/backend/blas</text>
<text text-anchor="middle" x="55" y="-62" font-family="Helvetica,sans-Serif" font-size="10.00">/blas_vendor.hpp</text>
</a>
</g>
</g>
<!-- Node1&#45;&gt;Node2 -->
<g id="edge1_Node000001_Node000002" class="edge">
<title>Node1&#45;&gt;Node2</title>
<g id="a_edge1_Node000001_Node000002"><a xlink:title=" ">
<path fill="none" stroke="#63b8ff" d="M100.18,-120.87C93.45,-113.44 83.46,-102.42 74.59,-92.62"/>
<polygon fill="#63b8ff" stroke="#63b8ff" points="77.1,-90.18 67.79,-85.11 71.91,-94.88 77.1,-90.18"/>
</a>
</g>
</g>
<!-- Node4 -->
<g id="Node000004" class="node">
<title>Node4</title>
<g id="a_Node000004"><a xlink:title=" ">
<polygon fill="#e0e0e0" stroke="#999999" points="195.5,-79.5 128.5,-79.5 128.5,-60.5 195.5,-60.5 195.5,-79.5"/>
<text text-anchor="middle" x="162" y="-67.5" font-family="Helvetica,sans-Serif" font-size="10.00">fmt/core.h</text>
</a>
</g>
</g>
<!-- Node1&#45;&gt;Node4 -->
<g id="edge3_Node000001_Node000004" class="edge">
<title>Node1&#45;&gt;Node4</title>
<g id="a_edge3_Node000001_Node000004"><a xlink:title=" ">
<path fill="none" stroke="#63b8ff" d="M115.97,-120.87C124.1,-112.05 136.93,-98.16 146.98,-87.27"/>
<polygon fill="#63b8ff" stroke="#63b8ff" points="149.79,-89.39 154,-79.67 144.64,-84.64 149.79,-89.39"/>
</a>
</g>
</g>
<!-- Node3 -->
<g id="Node000003" class="node">
<title>Node3</title>
<g id="a_Node000003"><a xlink:title=" ">
<polygon fill="#e0e0e0" stroke="#999999" points="77,-19 33,-19 33,0 77,0 77,-19"/>
<text text-anchor="middle" x="55" y="-7" font-family="Helvetica,sans-Serif" font-size="10.00">string</text>
</a>
</g>
</g>
<!-- Node2&#45;&gt;Node3 -->
<g id="edge2_Node000002_Node000003" class="edge">
<title>Node2&#45;&gt;Node3</title>
<g id="a_edge2_Node000002_Node000003"><a xlink:title=" ">
<path fill="none" stroke="#63b8ff" d="M55,-54.84C55,-47.21 55,-37.7 55,-29.45"/>
<polygon fill="#63b8ff" stroke="#63b8ff" points="58.5,-29.27 55,-19.27 51.5,-29.27 58.5,-29.27"/>
</a>
</g>
</g>
</g>
</svg>
