<?xml version="1.0" encoding="UTF-8" standalone="no"?>
<!DOCTYPE svg PUBLIC "-//W3C//DTD SVG 1.1//EN"
 "http://www.w3.org/Graphics/SVG/1.1/DTD/svg11.dtd">
<!-- Generated by graphviz version 2.43.0 (0)
 -->
<!-- Title: uni20::async::buffer_write_uninitialized Pages: 1 -->
<svg width="121pt" height="357pt"
 viewBox="0.00 0.00 121.00 357.00" xmlns="http://www.w3.org/2000/svg" xmlns:xlink="http://www.w3.org/1999/xlink">
<g id="graph0" class="graph" transform="scale(1 1) rotate(0) translate(4 353)">
<title>uni20::async::buffer_write_uninitialized</title>
<!-- Node1 -->
<g id="Node000001" class="node">
<title>Node1</title>
<g id="a_Node000001"><a xlink:title="Raised when a writer requests a mutable reference before construction.">
<polygon fill="#999999" stroke="#666666" points="113,-30 0,-30 0,0 113,0 113,-30"/>
<text text-anchor="start" x="8" y="-18" font-family="Helvetica,sans-Serif" font-size="10.00">uni20::async::buffer</text>
<text text-anchor="middle" x="56.5" y="-7" font-family="Helvetica,sans-Serif" font-size="10.00">_write_uninitialized</text>
</a>
</g>
</g>
<!-- Node2 -->
<g id="Node000002" class="node">
<title>Node2</title>
<g id="a_Node000002"><a xlink:href="classuni20_1_1async_1_1buffer__uninitialized.html" target="_top" xlink:title="Base class for access to a buffer without a constructed value.">
<polygon fill="white" stroke="#666666" points="113,-96 0,-96 0,-66 113,-66 113,-96"/>
<text text-anchor="start" x="8" y="-84" font-family="Helvetica,sans-Serif" font-size="10.00">uni20::async::buffer</text>
<text text-anchor="middle" x="56.5" y="-73" font-family="Helvetica,sans-Serif" font-size="10.00">_uninitialized</text>
</a>
</g>
</g>
<!-- Node2&#45;&gt;Node1 -->
<g id="edge1_Node000001_Node000002" class="edge">
<title>Node2&#45;&gt;Node1</title>
<g id="a_edge1_Node000001_Node000002"><a xlink:title=" ">
<path fill="none" stroke="#63b8ff" d="M56.5,-55.54C56.5,-46.96 56.5,-37.61 56.5,-30.16"/>
<polygon fill="#63b8ff" stroke="#63b8ff" points="53,-55.8 56.5,-65.8 60,-55.8 53,-55.8"/>
</a>
</g>
</g>
<!-- Node3 -->
<g id="Node000003" class="node">
<title>Node3</title>
<g id="a_Node000003"><a xlink:href="classuni20_1_1async_1_1buffer__error.html" target="_top" xlink:title="Base class for buffer&#45;related failures.">
<polygon fill="white" stroke="#666666" points="113,-162 0,-162 0,-132 113,-132 113,-162"/>
<text text-anchor="start" x="8" y="-150" font-family="Helvetica,sans-Serif" font-size="10.00">uni20::async::buffer</text>
<text text-anchor="middle" x="56.5" y="-139" font-family="Helvetica,sans-Serif" font-size="10.00">_error</text>
</a>
</g>
</g>
<!-- Node3&#45;&gt;Node2 -->
<g id="edge2_Node000002_Node000003" class="edge">
<title>Node3&#45;&gt;Node2</title>
<g id="a_edge2_Node000002_Node000003"><a xlink:title=" ">
<path fill="none" stroke="#63b8ff" d="M56.5,-121.54C56.5,-112.96 56.5,-103.61 56.5,-96.16"/>
<polygon fill="#63b8ff" stroke="#63b8ff" points="53,-121.8 56.5,-131.8 60,-121.8 53,-121.8"/>
</a>
</g>
</g>
<!-- Node4 -->
<g id="Node000004" class="node">
<title>Node4</title>
<g id="a_Node000004"><a xlink:href="classuni20_1_1async_1_1async__state__error.html" target="_top" xlink:title="Base class for invalid async state transitions or accesses.">
<polygon fill="white" stroke="#666666" points="113,-228 0,-228 0,-198 113,-198 113,-228"/>
<text text-anchor="start" x="8" y="-216" font-family="Helvetica,sans-Serif" font-size="10.00">uni20::async::async</text>
<text text-anchor="middle" x="56.5" y="-205" font-family="Helvetica,sans-Serif" font-size="10.00">_state_error</text>
</a>
</g>
</g>
<!-- Node4&#45;&gt;Node3 -->
<g id="edge3_Node000003_Node000004" class="edge">
<title>Node4&#45;&gt;Node3</title>
<g id="a_edge3_Node000003_Node000004"><a xlink:title=" ">
<path fill="none" stroke="#63b8ff" d="M56.5,-187.54C56.5,-178.96 56.5,-169.61 56.5,-162.16"/>
<polygon fill="#63b8ff" stroke="#63b8ff" points="53,-187.8 56.5,-197.8 60,-187.8 53,-187.8"/>
</a>
</g>
</g>
<!-- Node5 -->
<g id="Node000005" class="node">
<title>Node5</title>
<g id="a_Node000005"><a xlink:href="classuni20_1_1async_1_1async__error.html" target="_top" xlink:title="Base class for all async subsystem exceptions.">
<polygon fill="white" stroke="#666666" points="113,-294 0,-294 0,-264 113,-264 113,-294"/>
<text text-anchor="start" x="8" y="-282" font-family="Helvetica,sans-Serif" font-size="10.00">uni20::async::async</text>
<text text-anchor="middle" x="56.5" y="-271" font-family="Helvetica,sans-Serif" font-size="10.00">_error</text>
</a>
</g>
</g>
<!-- Node5&#45;&gt;Node4 -->
<g id="edge4_Node000004_Node000005" class="edge">
<title>Node5&#45;&gt;Node4</title>
<g id="a_edge4_Node000004_Node000005"><a xlink:title=" ">
<path fill="none" stroke="#63b8ff" d="M56.5,-253.54C56.5,-244.96 56.5,-235.61 56.5,-228.16"/>
<polygon fill="#63b8ff" stroke="#63b8ff" points="53,-253.8 56.5,-263.8 60,-253.8 53,-253.8"/>
</a>
</g>
</g>
<!-- Node6 -->
<g id="Node000006" class="node">
<title>Node6</title>
<g id="a_Node000006"><a xlink:title=" ">
<polygon fill="white" stroke="#666666" points="108.5,-349 4.5,-349 4.5,-330 108.5,-330 108.5,-349"/>
<text text-anchor="middle" x="56.5" y="-337" font-family="Helvetica,sans-Serif" font-size="10.00">std::runtime_error</text>
</a>
</g>
</g>
<!-- Node6&#45;&gt;Node5 -->
<g id="edge5_Node000005_Node000006" class="edge">
<title>Node6&#45;&gt;Node5</title>
<g id="a_edge5_Node000005_Node000006"><a xlink:title=" ">
<path fill="none" stroke="#63b8ff" d="M56.5,-319.65C56.5,-311.36 56.5,-301.78 56.5,-294.11"/>
<polygon fill="#63b8ff" stroke="#63b8ff" points="53,-319.87 56.5,-329.87 60,-319.87 53,-319.87"/>
</a>
</g>
</g>
</g>
</svg>
