<?xml version="1.0" encoding="UTF-8" standalone="no"?>
<!DOCTYPE svg PUBLIC "-//W3C//DTD SVG 1.1//EN"
 "http://www.w3.org/Graphics/SVG/1.1/DTD/svg11.dtd">
<!-- Generated by graphviz version 2.43.0 (0)
 -->
<!-- Title: uni20::async::async_cancellation Pages: 1 -->
<svg width="244pt" height="225pt"
 viewBox="0.00 0.00 244.00 225.00" xmlns="http://www.w3.org/2000/svg" xmlns:xlink="http://www.w3.org/1999/xlink">

<svg id="main" version="1.1" xmlns="http://www.w3.org/2000/svg" xmlns:xlink="http://www.w3.org/1999/xlink" xml:space="preserve" onload="init(evt)">
<style type="text/css"><![CDATA[
.node, .edge {opacity: 0.7;}
.node.selected, .edge.selected {opacity: 1;}
.edge:hover path { stroke: red; }
.edge:hover polygon { stroke: red; fill: red; }
]]></style>
<script type="application/ecmascript" xlink:href="svg.min.js"/>
<svg id="graph" class="graph">
<g id="graph0" class="graph" transform="scale(1 1) rotate(0) translate(4 221)">
<title>uni20::async::async_cancellation</title>
<!-- Node1 -->
<g id="Node000001" class="node">
<title>Node1</title>
<g id="a_Node000001"><a xlink:title="Base class for cancellation&#45;related async exceptions.">
<polygon fill="#999999" stroke="#666666" points="176,-96 63,-96 63,-66 176,-66 176,-96"/>
<text text-anchor="start" x="71" y="-84" font-family="Helvetica,sans-Serif" font-size="10.00">uni20::async::async</text>
<text text-anchor="middle" x="119.5" y="-73" font-family="Helvetica,sans-Serif" font-size="10.00">_cancellation</text>
</a>
</g>
</g>
<!-- Node4 -->
<g id="Node000004" class="node">
<title>Node4</title>
<g id="a_Node000004"><a xlink:href="classuni20_1_1async_1_1buffer__cancelled.html" target="_top" xlink:title="Raised when a buffer read path is cancelled intentionally.">
<polygon fill="white" stroke="#666666" points="113,-30 0,-30 0,0 113,0 113,-30"/>
<text text-anchor="start" x="8" y="-18" font-family="Helvetica,sans-Serif" font-size="10.00">uni20::async::buffer</text>
<text text-anchor="middle" x="56.5" y="-7" font-family="Helvetica,sans-Serif" font-size="10.00">_cancelled</text>
</a>
</g>
</g>
<!-- Node1&#45;&gt;Node4 -->
<g id="edge3_Node000001_Node000004" class="edge">
<title>Node1&#45;&gt;Node4</title>
<g id="a_edge3_Node000001_Node000004"><a xlink:title=" ">
<path fill="none" stroke="#63b8ff" d="M98.48,-58.65C89.25,-49.27 78.67,-38.53 70.44,-30.16"/>
<polygon fill="#63b8ff" stroke="#63b8ff" points="96.01,-61.13 105.52,-65.8 101,-56.21 96.01,-61.13"/>
</a>
</g>
</g>
<!-- Node5 -->
<g id="Node000005" class="node">
<title>Node5</title>
<g id="a_Node000005"><a xlink:href="classuni20_1_1async_1_1task__cancelled.html" target="_top" xlink:title="Raised when an AsyncTask is cancelled before completion.">
<polygon fill="white" stroke="#666666" points="236,-30 131,-30 131,0 236,0 236,-30"/>
<text text-anchor="start" x="139" y="-18" font-family="Helvetica,sans-Serif" font-size="10.00">uni20::async::task</text>
<text text-anchor="middle" x="183.5" y="-7" font-family="Helvetica,sans-Serif" font-size="10.00">_cancelled</text>
</a>
</g>
</g>
<!-- Node1&#45;&gt;Node5 -->
<g id="edge4_Node000001_Node000005" class="edge">
<title>Node1&#45;&gt;Node5</title>
<g id="a_edge4_Node000001_Node000005"><a xlink:title=" ">
<path fill="none" stroke="#63b8ff" d="M140.85,-58.65C150.23,-49.27 160.97,-38.53 169.34,-30.16"/>
<polygon fill="#63b8ff" stroke="#63b8ff" points="138.3,-56.25 133.7,-65.8 143.25,-61.2 138.3,-56.25"/>
</a>
</g>
</g>
<!-- Node2 -->
<g id="Node000002" class="node">
<title>Node2</title>
<g id="a_Node000002"><a xlink:href="classuni20_1_1async_1_1async__error.html" target="_top" xlink:title="Base class for all async subsystem exceptions.">
<polygon fill="white" stroke="#666666" points="176,-162 63,-162 63,-132 176,-132 176,-162"/>
<text text-anchor="start" x="71" y="-150" font-family="Helvetica,sans-Serif" font-size="10.00">uni20::async::async</text>
<text text-anchor="middle" x="119.5" y="-139" font-family="Helvetica,sans-Serif" font-size="10.00">_error</text>
</a>
</g>
</g>
<!-- Node2&#45;&gt;Node1 -->
<g id="edge1_Node000001_Node000002" class="edge">
<title>Node2&#45;&gt;Node1</title>
<g id="a_edge1_Node000001_Node000002"><a xlink:title=" ">
<path fill="none" stroke="#63b8ff" d="M119.5,-121.54C119.5,-112.96 119.5,-103.61 119.5,-96.16"/>
<polygon fill="#63b8ff" stroke="#63b8ff" points="116,-121.8 119.5,-131.8 123,-121.8 116,-121.8"/>
</a>
</g>
</g>
<!-- Node3 -->
<g id="Node000003" class="node">
<title>Node3</title>
<g id="a_Node000003"><a xlink:title=" ">
<polygon fill="white" stroke="#666666" points="171.5,-217 67.5,-217 67.5,-198 171.5,-198 171.5,-217"/>
<text text-anchor="middle" x="119.5" y="-205" font-family="Helvetica,sans-Serif" font-size="10.00">std::runtime_error</text>
</a>
</g>
</g>
<!-- Node3&#45;&gt;Node2 -->
<g id="edge2_Node000002_Node000003" class="edge">
<title>Node3&#45;&gt;Node2</title>
<g id="a_edge2_Node000002_Node000003"><a xlink:title=" ">
<path fill="none" stroke="#63b8ff" d="M119.5,-187.65C119.5,-179.36 119.5,-169.78 119.5,-162.11"/>
<polygon fill="#63b8ff" stroke="#63b8ff" points="116,-187.87 119.5,-197.87 123,-187.87 116,-187.87"/>
</a>
</g>
</g>
</g>
</svg>
</svg>

<style type='text/css'>
<![CDATA[
[data-mouse-over-selected='false'] { opacity: 0.7; }
[data-mouse-over-selected='true']  { opacity: 1.0; }
]]>
</style>
<script type="application/ecmascript"><![CDATA[
document.addEventListener('DOMContentLoaded', (event) => {
  highlightEdges();
  highlightAdjacentNodes();
});
]]></script>
</svg>
