<?xml version="1.0" encoding="UTF-8" standalone="no"?>
<!DOCTYPE svg PUBLIC "-//W3C//DTD SVG 1.1//EN"
 "http://www.w3.org/Graphics/SVG/1.1/DTD/svg11.dtd">
<!-- Generated by graphviz version 2.43.0 (0)
 -->
<!-- Title: uni20::async::async_state_error Pages: 1 -->
<!--zoomable 158 -->

<svg id="main" version="1.1" xmlns="http://www.w3.org/2000/svg" xmlns:xlink="http://www.w3.org/1999/xlink" xml:space="preserve" onload="init(evt)">
<style type="text/css"><![CDATA[
.node, .edge {opacity: 0.7;}
.node.selected, .edge.selected {opacity: 1;}
.edge:hover path { stroke: red; }
.edge:hover polygon { stroke: red; fill: red; }
]]></style>

<defs>
  <circle id="rim" cx="0" cy="0" r="7"/>
  <circle id="rim2" cx="0" cy="0" r="3.5"/>
  <g id="zoomPlus">
    <use xlink:href="#rim" fill="#404040"><set attributeName="fill" to="#808080" begin="zoomplus.mouseover" end="zoomplus.mouseout"/></use>
    <path d="M-4,0h8M0,-4v8" fill="none" stroke="white" stroke-width="1.5" pointer-events="none"/>
  </g>
  <g id="zoomMin">
    <use xlink:href="#rim" fill="#404040"><set attributeName="fill" to="#808080" begin="zoomminus.mouseover" end="zoomminus.mouseout"/></use>
    <path d="M-4,0h8" fill="none" stroke="white" stroke-width="1.5" pointer-events="none"/>
  </g>
  <g id="arrowUp" transform="translate(30 24)">
    <use xlink:href="#rim"/>
    <path pointer-events="none" fill="none" stroke="white" stroke-width="1.5" d="M0,-3.0v7 M-2.5,-0.5L0,-3.0L2.5,-0.5"/>
  </g>
  <g id="arrowRight" transform="rotate(90) translate(36 -43)">
    <use xlink:href="#rim"/>
    <path pointer-events="none" fill="none" stroke="white" stroke-width="1.5" d="M0,-3.0v7 M-2.5,-0.5L0,-3.0L2.5,-0.5"/>
  </g>
  <g id="arrowDown" transform="rotate(180) translate(-30 -48)">
    <use xlink:href="#rim"/>
    <path pointer-events="none" fill="none" stroke="white" stroke-width="1.5" d="M0,-3.0v7 M-2.5,-0.5L0,-3.0L2.5,-0.5"/>
  </g>
  <g id="arrowLeft" transform="rotate(270) translate(-36 17)">
    <use xlink:href="#rim"/>
    <path pointer-events="none" fill="none" stroke="white" stroke-width="1.5" d="M0,-3.0v7 M-2.5,-0.5L0,-3.0L2.5,-0.5"/>
  </g>
  <g id="resetDef">
    <use xlink:href="#rim2" fill="#404040"><set attributeName="fill" to="#808080" begin="reset.mouseover" end="reset.mouseout"/></use>
  </g>
</defs>
<script type="application/ecmascript">
var viewWidth = 858;
var viewHeight = 158;
var sectionId = 'dynsection-0';
</script>
<script type="application/ecmascript" xlink:href="svg.min.js"/>
<svg id="graph" class="graph">
<g id="viewport">
<title>uni20::async::async_state_error</title>
<!-- Node1 -->
<g id="Node000001" class="node">
<title>Node1</title>
<g id="a_Node000001"><a xlink:title="Base class for invalid async state transitions or accesses.">
<polygon fill="#999999" stroke="#666666" points="402,-102 289,-102 289,-72 402,-72 402,-102"/>
<text text-anchor="start" x="297" y="-90" font-family="Helvetica,sans-Serif" font-size="10.00">uni20::async::async</text>
<text text-anchor="middle" x="345.5" y="-79" font-family="Helvetica,sans-Serif" font-size="10.00">_state_error</text>
</a>
</g>
</g>
<!-- Node4 -->
<g id="Node000004" class="node">
<title>Node4</title>
<g id="a_Node000004"><a xlink:href="classuni20_1_1async_1_1async__storage__missing.html" target="_top" xlink:title="Thrown when Async storage metadata is missing unexpectedly.">
<polygon fill="white" stroke="#666666" points="551.5,-150 438.5,-150 438.5,-120 551.5,-120 551.5,-150"/>
<text text-anchor="start" x="446.5" y="-138" font-family="Helvetica,sans-Serif" font-size="10.00">uni20::async::async</text>
<text text-anchor="middle" x="495" y="-127" font-family="Helvetica,sans-Serif" font-size="10.00">_storage_missing</text>
</a>
</g>
</g>
<!-- Node1&#45;&gt;Node4 -->
<g id="edge3_Node000001_Node000004" class="edge">
<title>Node1&#45;&gt;Node4</title>
<g id="a_edge3_Node000001_Node000004"><a xlink:title=" ">
<path fill="none" stroke="#63b8ff" d="M402.45,-105.21C417.45,-110.09 433.5,-115.31 447.9,-120"/>
<polygon fill="#63b8ff" stroke="#63b8ff" points="403.36,-101.82 392.77,-102.06 401.19,-108.48 403.36,-101.82"/>
</a>
</g>
</g>
<!-- Node5 -->
<g id="Node000005" class="node">
<title>Node5</title>
<g id="a_Node000005"><a xlink:href="classuni20_1_1async_1_1async__value__uninitialized.html" target="_top" xlink:title="Thrown when an Async value is accessed before initialization.">
<polygon fill="white" stroke="#666666" points="552,-102 438,-102 438,-72 552,-72 552,-102"/>
<text text-anchor="start" x="446" y="-90" font-family="Helvetica,sans-Serif" font-size="10.00">uni20::async::async</text>
<text text-anchor="middle" x="495" y="-79" font-family="Helvetica,sans-Serif" font-size="10.00">_value_uninitialized</text>
</a>
</g>
</g>
<!-- Node1&#45;&gt;Node5 -->
<g id="edge4_Node000001_Node000005" class="edge">
<title>Node1&#45;&gt;Node5</title>
<g id="a_edge4_Node000001_Node000005"><a xlink:title=" ">
<path fill="none" stroke="#63b8ff" d="M412.44,-87C420.86,-87 429.42,-87 437.67,-87"/>
<polygon fill="#63b8ff" stroke="#63b8ff" points="412.26,-83.5 402.26,-87 412.26,-90.5 412.26,-83.5"/>
</a>
</g>
</g>
<!-- Node6 -->
<g id="Node000006" class="node">
<title>Node6</title>
<g id="a_Node000006"><a xlink:href="classuni20_1_1async_1_1buffer__error.html" target="_top" xlink:title="Base class for buffer&#45;related failures.">
<polygon fill="white" stroke="#666666" points="551.5,-54 438.5,-54 438.5,-24 551.5,-24 551.5,-54"/>
<text text-anchor="start" x="446.5" y="-42" font-family="Helvetica,sans-Serif" font-size="10.00">uni20::async::buffer</text>
<text text-anchor="middle" x="495" y="-31" font-family="Helvetica,sans-Serif" font-size="10.00">_error</text>
</a>
</g>
</g>
<!-- Node1&#45;&gt;Node6 -->
<g id="edge5_Node000001_Node000006" class="edge">
<title>Node1&#45;&gt;Node6</title>
<g id="a_edge5_Node000001_Node000006"><a xlink:title=" ">
<path fill="none" stroke="#63b8ff" d="M402.45,-68.79C417.45,-63.91 433.5,-58.69 447.9,-54"/>
<polygon fill="#63b8ff" stroke="#63b8ff" points="401.19,-65.52 392.77,-71.94 403.36,-72.18 401.19,-65.52"/>
</a>
</g>
</g>
<!-- Node2 -->
<g id="Node000002" class="node">
<title>Node2</title>
<g id="a_Node000002"><a xlink:href="classuni20_1_1async_1_1async__error.html" target="_top" xlink:title="Base class for all async subsystem exceptions.">
<polygon fill="white" stroke="#666666" points="253,-102 140,-102 140,-72 253,-72 253,-102"/>
<text text-anchor="start" x="148" y="-90" font-family="Helvetica,sans-Serif" font-size="10.00">uni20::async::async</text>
<text text-anchor="middle" x="196.5" y="-79" font-family="Helvetica,sans-Serif" font-size="10.00">_error</text>
</a>
</g>
</g>
<!-- Node2&#45;&gt;Node1 -->
<g id="edge1_Node000001_Node000002" class="edge">
<title>Node2&#45;&gt;Node1</title>
<g id="a_edge1_Node000001_Node000002"><a xlink:title=" ">
<path fill="none" stroke="#63b8ff" d="M263.08,-87C271.68,-87 280.43,-87 288.85,-87"/>
<polygon fill="#63b8ff" stroke="#63b8ff" points="263.07,-83.5 253.07,-87 263.07,-90.5 263.07,-83.5"/>
</a>
</g>
</g>
<!-- Node3 -->
<g id="Node000003" class="node">
<title>Node3</title>
<g id="a_Node000003"><a xlink:title=" ">
<polygon fill="white" stroke="#666666" points="104,-96.5 0,-96.5 0,-77.5 104,-77.5 104,-96.5"/>
<text text-anchor="middle" x="52" y="-84.5" font-family="Helvetica,sans-Serif" font-size="10.00">std::runtime_error</text>
</a>
</g>
</g>
<!-- Node3&#45;&gt;Node2 -->
<g id="edge2_Node000002_Node000003" class="edge">
<title>Node3&#45;&gt;Node2</title>
<g id="a_edge2_Node000002_Node000003"><a xlink:title=" ">
<path fill="none" stroke="#63b8ff" d="M114.32,-87C122.85,-87 131.57,-87 139.99,-87"/>
<polygon fill="#63b8ff" stroke="#63b8ff" points="114.04,-83.5 104.04,-87 114.04,-90.5 114.04,-83.5"/>
</a>
</g>
</g>
<!-- Node7 -->
<g id="Node000007" class="node">
<title>Node7</title>
<g id="a_Node000007"><a xlink:href="classuni20_1_1async_1_1buffer__uninitialized.html" target="_top" xlink:title="Base class for access to a buffer without a constructed value.">
<polygon fill="white" stroke="#666666" points="701,-54 588,-54 588,-24 701,-24 701,-54"/>
<text text-anchor="start" x="596" y="-42" font-family="Helvetica,sans-Serif" font-size="10.00">uni20::async::buffer</text>
<text text-anchor="middle" x="644.5" y="-31" font-family="Helvetica,sans-Serif" font-size="10.00">_uninitialized</text>
</a>
</g>
</g>
<!-- Node6&#45;&gt;Node7 -->
<g id="edge6_Node000006_Node000007" class="edge">
<title>Node6&#45;&gt;Node7</title>
<g id="a_edge6_Node000006_Node000007"><a xlink:title=" ">
<path fill="none" stroke="#63b8ff" d="M561.8,-39C570.43,-39 579.21,-39 587.66,-39"/>
<polygon fill="#63b8ff" stroke="#63b8ff" points="561.76,-35.5 551.76,-39 561.76,-42.5 561.76,-35.5"/>
</a>
</g>
</g>
<!-- Node8 -->
<g id="Node000008" class="node">
<title>Node8</title>
<g id="a_Node000008"><a xlink:href="classuni20_1_1async_1_1buffer__read__uninitialized.html" target="_top" xlink:title="Raised when a reader attempts to access an uninitialized buffer.">
<polygon fill="white" stroke="#666666" points="850,-78 737,-78 737,-48 850,-48 850,-78"/>
<text text-anchor="start" x="745" y="-66" font-family="Helvetica,sans-Serif" font-size="10.00">uni20::async::buffer</text>
<text text-anchor="middle" x="793.5" y="-55" font-family="Helvetica,sans-Serif" font-size="10.00">_read_uninitialized</text>
</a>
</g>
</g>
<!-- Node7&#45;&gt;Node8 -->
<g id="edge7_Node000007_Node000008" class="edge">
<title>Node7&#45;&gt;Node8</title>
<g id="a_edge7_Node000007_Node000008"><a xlink:title=" ">
<path fill="none" stroke="#63b8ff" d="M711.08,-49.71C719.68,-51.11 728.43,-52.54 736.85,-53.91"/>
<polygon fill="#63b8ff" stroke="#63b8ff" points="711.51,-46.23 701.07,-48.07 710.38,-53.14 711.51,-46.23"/>
</a>
</g>
</g>
<!-- Node9 -->
<g id="Node000009" class="node">
<title>Node9</title>
<g id="a_Node000009"><a xlink:href="classuni20_1_1async_1_1buffer__write__uninitialized.html" target="_top" xlink:title="Raised when a writer requests a mutable reference before construction.">
<polygon fill="white" stroke="#666666" points="850,-30 737,-30 737,0 850,0 850,-30"/>
<text text-anchor="start" x="745" y="-18" font-family="Helvetica,sans-Serif" font-size="10.00">uni20::async::buffer</text>
<text text-anchor="middle" x="793.5" y="-7" font-family="Helvetica,sans-Serif" font-size="10.00">_write_uninitialized</text>
</a>
</g>
</g>
<!-- Node7&#45;&gt;Node9 -->
<g id="edge8_Node000007_Node000009" class="edge">
<title>Node7&#45;&gt;Node9</title>
<g id="a_edge8_Node000007_Node000009"><a xlink:title=" ">
<path fill="none" stroke="#63b8ff" d="M711.08,-28.29C719.68,-26.89 728.43,-25.46 736.85,-24.09"/>
<polygon fill="#63b8ff" stroke="#63b8ff" points="710.38,-24.86 701.07,-29.93 711.51,-31.77 710.38,-24.86"/>
</a>
</g>
</g>
</g>
</svg>

<g id="navigator" transform="translate(0 0)" fill="#404254">
  <rect fill="#f2f5e9" fill-opacity="0.5" stroke="#606060" stroke-width=".5" x="0" y="0" width="60" height="60"/>
  <use id="zoomplus" xlink:href="#zoomPlus" x="17" y="9" onmousedown="handleZoom(evt,'in')"/>
  <use id="zoomminus" xlink:href="#zoomMin" x="42" y="9" onmousedown="handleZoom(evt,'out')"/>
  <use id="reset" xlink:href="#resetDef" x="30" y="36" onmousedown="handleReset()"/>
   <use id="arrowup" xlink:href="#arrowUp" x="0" y="0" onmousedown="handlePan(0,-1)"/>
  <use id="arrowright" xlink:href="#arrowRight" x="0" y="0" onmousedown="handlePan(1,0)"/>
  <use id="arrowdown" xlink:href="#arrowDown" x="0" y="0" onmousedown="handlePan(0,1)"/>
  <use id="arrowleft" xlink:href="#arrowLeft" x="0" y="0" onmousedown="handlePan(-1,0)"/>
</g>
<svg viewBox="0 0 15 15" width="100%" height="30px" preserveAspectRatio="xMaxYMin meet">
 <g id="arrow_out" transform="scale(0.3 0.3)">
  <a xlink:href="classuni20_1_1async_1_1async__state__error__inherit__graph_org.svg" target="_base">
   <rect id="button" ry="5" rx="5" y="6" x="6" height="38" width="38"
        fill="#f2f5e9" fill-opacity="0.5" stroke="#606060" stroke-width="1.0"/>
   <path id="arrow"
     d="M 11.500037,31.436501 C 11.940474,20.09759 22.043105,11.32322 32.158766,21.979434 L 37.068811,17.246167 C 37.068811,17.246167 37.088388,32 37.088388,32 L 22.160133,31.978069 C 22.160133,31.978069 26.997745,27.140456 26.997745,27.140456 C 18.528582,18.264221 13.291696,25.230495 11.500037,31.436501 z"
     style="fill:#404040;"/>
  </a>
 </g>
</svg>

<style type='text/css'>
<![CDATA[
[data-mouse-over-selected='false'] { opacity: 0.7; }
[data-mouse-over-selected='true']  { opacity: 1.0; }
]]>
</style>
<script type="application/ecmascript"><![CDATA[
document.addEventListener('DOMContentLoaded', (event) => {
  highlightEdges();
  highlightAdjacentNodes();
});
]]></script>
</svg>
