<?xml version="1.0" encoding="UTF-8" standalone="no"?>
<!DOCTYPE svg PUBLIC "-//W3C//DTD SVG 1.1//EN"
 "http://www.w3.org/Graphics/SVG/1.1/DTD/svg11.dtd">
<!-- Generated by graphviz version 2.43.0 (0)
 -->
<!-- Title: uni20::async::buffer_error Pages: 1 -->
<svg width="252pt" height="357pt"
 viewBox="0.00 0.00 252.00 357.00" xmlns="http://www.w3.org/2000/svg" xmlns:xlink="http://www.w3.org/1999/xlink">
<g id="graph0" class="graph" transform="scale(1 1) rotate(0) translate(4 353)">
<title>uni20::async::buffer_error</title>
<!-- Node1 -->
<g id="Node000001" class="node">
<title>Node1</title>
<g id="a_Node000001"><a xlink:title="Base class for buffer&#45;related failures.">
<polygon fill="#999999" stroke="#666666" points="178,-162 65,-162 65,-132 178,-132 178,-162"/>
<text text-anchor="start" x="73" y="-150" font-family="Helvetica,sans-Serif" font-size="10.00">uni20::async::buffer</text>
<text text-anchor="middle" x="121.5" y="-139" font-family="Helvetica,sans-Serif" font-size="10.00">_error</text>
</a>
</g>
</g>
<!-- Node5 -->
<g id="Node000005" class="node">
<title>Node5</title>
<g id="a_Node000005"><a xlink:href="classuni20_1_1async_1_1buffer__uninitialized.html" target="_top" xlink:title="Base class for access to a buffer without a constructed value.">
<polygon fill="white" stroke="#666666" points="178,-96 65,-96 65,-66 178,-66 178,-96"/>
<text text-anchor="start" x="73" y="-84" font-family="Helvetica,sans-Serif" font-size="10.00">uni20::async::buffer</text>
<text text-anchor="middle" x="121.5" y="-73" font-family="Helvetica,sans-Serif" font-size="10.00">_uninitialized</text>
</a>
</g>
</g>
<!-- Node1&#45;&gt;Node5 -->
<g id="edge4_Node000001_Node000005" class="edge">
<title>Node1&#45;&gt;Node5</title>
<g id="a_edge4_Node000001_Node000005"><a xlink:title=" ">
<path fill="none" stroke="#63b8ff" d="M121.5,-121.54C121.5,-112.96 121.5,-103.61 121.5,-96.16"/>
<polygon fill="#63b8ff" stroke="#63b8ff" points="118,-121.8 121.5,-131.8 125,-121.8 118,-121.8"/>
</a>
</g>
</g>
<!-- Node2 -->
<g id="Node000002" class="node">
<title>Node2</title>
<g id="a_Node000002"><a xlink:href="classuni20_1_1async_1_1async__state__error.html" target="_top" xlink:title="Base class for invalid async state transitions or accesses.">
<polygon fill="white" stroke="#666666" points="178,-228 65,-228 65,-198 178,-198 178,-228"/>
<text text-anchor="start" x="73" y="-216" font-family="Helvetica,sans-Serif" font-size="10.00">uni20::async::async</text>
<text text-anchor="middle" x="121.5" y="-205" font-family="Helvetica,sans-Serif" font-size="10.00">_state_error</text>
</a>
</g>
</g>
<!-- Node2&#45;&gt;Node1 -->
<g id="edge1_Node000001_Node000002" class="edge">
<title>Node2&#45;&gt;Node1</title>
<g id="a_edge1_Node000001_Node000002"><a xlink:title=" ">
<path fill="none" stroke="#63b8ff" d="M121.5,-187.54C121.5,-178.96 121.5,-169.61 121.5,-162.16"/>
<polygon fill="#63b8ff" stroke="#63b8ff" points="118,-187.8 121.5,-197.8 125,-187.8 118,-187.8"/>
</a>
</g>
</g>
<!-- Node3 -->
<g id="Node000003" class="node">
<title>Node3</title>
<g id="a_Node000003"><a xlink:href="classuni20_1_1async_1_1async__error.html" target="_top" xlink:title="Base class for all async subsystem exceptions.">
<polygon fill="white" stroke="#666666" points="178,-294 65,-294 65,-264 178,-264 178,-294"/>
<text text-anchor="start" x="73" y="-282" font-family="Helvetica,sans-Serif" font-size="10.00">uni20::async::async</text>
<text text-anchor="middle" x="121.5" y="-271" font-family="Helvetica,sans-Serif" font-size="10.00">_error</text>
</a>
</g>
</g>
<!-- Node3&#45;&gt;Node2 -->
<g id="edge2_Node000002_Node000003" class="edge">
<title>Node3&#45;&gt;Node2</title>
<g id="a_edge2_Node000002_Node000003"><a xlink:title=" ">
<path fill="none" stroke="#63b8ff" d="M121.5,-253.54C121.5,-244.96 121.5,-235.61 121.5,-228.16"/>
<polygon fill="#63b8ff" stroke="#63b8ff" points="118,-253.8 121.5,-263.8 125,-253.8 118,-253.8"/>
</a>
</g>
</g>
<!-- Node4 -->
<g id="Node000004" class="node">
<title>Node4</title>
<g id="a_Node000004"><a xlink:title=" ">
<polygon fill="white" stroke="#666666" points="173.5,-349 69.5,-349 69.5,-330 173.5,-330 173.5,-349"/>
<text text-anchor="middle" x="121.5" y="-337" font-family="Helvetica,sans-Serif" font-size="10.00">std::runtime_error</text>
</a>
</g>
</g>
<!-- Node4&#45;&gt;Node3 -->
<g id="edge3_Node000003_Node000004" class="edge">
<title>Node4&#45;&gt;Node3</title>
<g id="a_edge3_Node000003_Node000004"><a xlink:title=" ">
<path fill="none" stroke="#63b8ff" d="M121.5,-319.65C121.5,-311.36 121.5,-301.78 121.5,-294.11"/>
<polygon fill="#63b8ff" stroke="#63b8ff" points="118,-319.87 121.5,-329.87 125,-319.87 118,-319.87"/>
</a>
</g>
</g>
<!-- Node6 -->
<g id="Node000006" class="node">
<title>Node6</title>
<g id="a_Node000006"><a xlink:href="classuni20_1_1async_1_1buffer__read__uninitialized.html" target="_top" xlink:title="Raised when a reader attempts to access an uninitialized buffer.">
<polygon fill="white" stroke="#666666" points="113,-30 0,-30 0,0 113,0 113,-30"/>
<text text-anchor="start" x="8" y="-18" font-family="Helvetica,sans-Serif" font-size="10.00">uni20::async::buffer</text>
<text text-anchor="middle" x="56.5" y="-7" font-family="Helvetica,sans-Serif" font-size="10.00">_read_uninitialized</text>
</a>
</g>
</g>
<!-- Node5&#45;&gt;Node6 -->
<g id="edge5_Node000005_Node000006" class="edge">
<title>Node5&#45;&gt;Node6</title>
<g id="a_edge5_Node000005_Node000006"><a xlink:title=" ">
<path fill="none" stroke="#63b8ff" d="M99.81,-58.65C90.29,-49.27 79.38,-38.53 70.89,-30.16"/>
<polygon fill="#63b8ff" stroke="#63b8ff" points="97.49,-61.27 107.07,-65.8 102.4,-56.29 97.49,-61.27"/>
</a>
</g>
</g>
<!-- Node7 -->
<g id="Node000007" class="node">
<title>Node7</title>
<g id="a_Node000007"><a xlink:href="classuni20_1_1async_1_1buffer__write__uninitialized.html" target="_top" xlink:title="Raised when a writer requests a mutable reference before construction.">
<polygon fill="white" stroke="#666666" points="244,-30 131,-30 131,0 244,0 244,-30"/>
<text text-anchor="start" x="139" y="-18" font-family="Helvetica,sans-Serif" font-size="10.00">uni20::async::buffer</text>
<text text-anchor="middle" x="187.5" y="-7" font-family="Helvetica,sans-Serif" font-size="10.00">_write_uninitialized</text>
</a>
</g>
</g>
<!-- Node5&#45;&gt;Node7 -->
<g id="edge6_Node000005_Node000007" class="edge">
<title>Node5&#45;&gt;Node7</title>
<g id="a_edge6_Node000005_Node000007"><a xlink:title=" ">
<path fill="none" stroke="#63b8ff" d="M143.52,-58.65C153.19,-49.27 164.27,-38.53 172.89,-30.16"/>
<polygon fill="#63b8ff" stroke="#63b8ff" points="140.89,-56.32 136.15,-65.8 145.76,-61.35 140.89,-56.32"/>
</a>
</g>
</g>
</g>
</svg>
