<?xml version="1.0" encoding="UTF-8" standalone="no"?>
<!DOCTYPE svg PUBLIC "-//W3C//DTD SVG 1.1//EN"
 "http://www.w3.org/Graphics/SVG/1.1/DTD/svg11.dtd">
<!-- Generated by graphviz version 2.43.0 (0)
 -->
<!-- Title: uni20::async::async_error Pages: 1 -->
<svg width="858pt" height="254pt"
 viewBox="0.00 0.00 858.00 254.00" xmlns="http://www.w3.org/2000/svg" xmlns:xlink="http://www.w3.org/1999/xlink">
<g id="graph0" class="graph" transform="scale(1 1) rotate(0) translate(4 250)">
<title>uni20::async::async_error</title>
<!-- Node1 -->
<g id="Node000001" class="node">
<title>Node1</title>
<g id="a_Node000001"><a xlink:title="Base class for all async subsystem exceptions.">
<polygon fill="#999999" stroke="#666666" points="253,-150 140,-150 140,-120 253,-120 253,-150"/>
<text text-anchor="start" x="148" y="-138" font-family="Helvetica,sans-Serif" font-size="10.00">uni20::async::async</text>
<text text-anchor="middle" x="196.5" y="-127" font-family="Helvetica,sans-Serif" font-size="10.00">_error</text>
</a>
</g>
</g>
<!-- Node3 -->
<g id="Node000003" class="node">
<title>Node3</title>
<g id="a_Node000003"><a xlink:href="classuni20_1_1async_1_1async__cancellation.html" target="_top" xlink:title="Base class for cancellation&#45;related async exceptions.">
<polygon fill="white" stroke="#666666" points="402,-198 289,-198 289,-168 402,-168 402,-198"/>
<text text-anchor="start" x="297" y="-186" font-family="Helvetica,sans-Serif" font-size="10.00">uni20::async::async</text>
<text text-anchor="middle" x="345.5" y="-175" font-family="Helvetica,sans-Serif" font-size="10.00">_cancellation</text>
</a>
</g>
</g>
<!-- Node1&#45;&gt;Node3 -->
<g id="edge2_Node000001_Node000003" class="edge">
<title>Node1&#45;&gt;Node3</title>
<g id="a_edge2_Node000001_Node000003"><a xlink:title=" ">
<path fill="none" stroke="#63b8ff" d="M253.26,-153.21C268.21,-158.09 284.2,-163.31 298.56,-168"/>
<polygon fill="#63b8ff" stroke="#63b8ff" points="254.2,-149.83 243.61,-150.06 252.03,-156.49 254.2,-149.83"/>
</a>
</g>
</g>
<!-- Node6 -->
<g id="Node000006" class="node">
<title>Node6</title>
<g id="a_Node000006"><a xlink:href="classuni20_1_1async_1_1async__state__error.html" target="_top" xlink:title="Base class for invalid async state transitions or accesses.">
<polygon fill="white" stroke="#666666" points="402,-126 289,-126 289,-96 402,-96 402,-126"/>
<text text-anchor="start" x="297" y="-114" font-family="Helvetica,sans-Serif" font-size="10.00">uni20::async::async</text>
<text text-anchor="middle" x="345.5" y="-103" font-family="Helvetica,sans-Serif" font-size="10.00">_state_error</text>
</a>
</g>
</g>
<!-- Node1&#45;&gt;Node6 -->
<g id="edge5_Node000001_Node000006" class="edge">
<title>Node1&#45;&gt;Node6</title>
<g id="a_edge5_Node000001_Node000006"><a xlink:title=" ">
<path fill="none" stroke="#63b8ff" d="M263.08,-124.29C271.68,-122.89 280.43,-121.46 288.85,-120.09"/>
<polygon fill="#63b8ff" stroke="#63b8ff" points="262.38,-120.86 253.07,-125.93 263.51,-127.77 262.38,-120.86"/>
</a>
</g>
</g>
<!-- Node2 -->
<g id="Node000002" class="node">
<title>Node2</title>
<g id="a_Node000002"><a xlink:title=" ">
<polygon fill="white" stroke="#666666" points="104,-144.5 0,-144.5 0,-125.5 104,-125.5 104,-144.5"/>
<text text-anchor="middle" x="52" y="-132.5" font-family="Helvetica,sans-Serif" font-size="10.00">std::runtime_error</text>
</a>
</g>
</g>
<!-- Node2&#45;&gt;Node1 -->
<g id="edge1_Node000001_Node000002" class="edge">
<title>Node2&#45;&gt;Node1</title>
<g id="a_edge1_Node000001_Node000002"><a xlink:title=" ">
<path fill="none" stroke="#63b8ff" d="M114.32,-135C122.85,-135 131.57,-135 139.99,-135"/>
<polygon fill="#63b8ff" stroke="#63b8ff" points="114.04,-131.5 104.04,-135 114.04,-138.5 114.04,-131.5"/>
</a>
</g>
</g>
<!-- Node4 -->
<g id="Node000004" class="node">
<title>Node4</title>
<g id="a_Node000004"><a xlink:href="classuni20_1_1async_1_1buffer__cancelled.html" target="_top" xlink:title="Raised when a buffer read path is cancelled intentionally.">
<polygon fill="white" stroke="#666666" points="551.5,-246 438.5,-246 438.5,-216 551.5,-216 551.5,-246"/>
<text text-anchor="start" x="446.5" y="-234" font-family="Helvetica,sans-Serif" font-size="10.00">uni20::async::buffer</text>
<text text-anchor="middle" x="495" y="-223" font-family="Helvetica,sans-Serif" font-size="10.00">_cancelled</text>
</a>
</g>
</g>
<!-- Node3&#45;&gt;Node4 -->
<g id="edge3_Node000003_Node000004" class="edge">
<title>Node3&#45;&gt;Node4</title>
<g id="a_edge3_Node000003_Node000004"><a xlink:title=" ">
<path fill="none" stroke="#63b8ff" d="M402.45,-201.21C417.45,-206.09 433.5,-211.31 447.9,-216"/>
<polygon fill="#63b8ff" stroke="#63b8ff" points="403.36,-197.82 392.77,-198.06 401.19,-204.48 403.36,-197.82"/>
</a>
</g>
</g>
<!-- Node5 -->
<g id="Node000005" class="node">
<title>Node5</title>
<g id="a_Node000005"><a xlink:href="classuni20_1_1async_1_1task__cancelled.html" target="_top" xlink:title="Raised when an AsyncTask is cancelled before completion.">
<polygon fill="white" stroke="#666666" points="547.5,-198 442.5,-198 442.5,-168 547.5,-168 547.5,-198"/>
<text text-anchor="start" x="450.5" y="-186" font-family="Helvetica,sans-Serif" font-size="10.00">uni20::async::task</text>
<text text-anchor="middle" x="495" y="-175" font-family="Helvetica,sans-Serif" font-size="10.00">_cancelled</text>
</a>
</g>
</g>
<!-- Node3&#45;&gt;Node5 -->
<g id="edge4_Node000003_Node000005" class="edge">
<title>Node3&#45;&gt;Node5</title>
<g id="a_edge4_Node000003_Node000005"><a xlink:title=" ">
<path fill="none" stroke="#63b8ff" d="M412.49,-183C422.39,-183 432.49,-183 442.05,-183"/>
<polygon fill="#63b8ff" stroke="#63b8ff" points="412.26,-179.5 402.26,-183 412.26,-186.5 412.26,-179.5"/>
</a>
</g>
</g>
<!-- Node7 -->
<g id="Node000007" class="node">
<title>Node7</title>
<g id="a_Node000007"><a xlink:href="classuni20_1_1async_1_1async__storage__missing.html" target="_top" xlink:title="Thrown when Async storage metadata is missing unexpectedly.">
<polygon fill="white" stroke="#666666" points="551.5,-150 438.5,-150 438.5,-120 551.5,-120 551.5,-150"/>
<text text-anchor="start" x="446.5" y="-138" font-family="Helvetica,sans-Serif" font-size="10.00">uni20::async::async</text>
<text text-anchor="middle" x="495" y="-127" font-family="Helvetica,sans-Serif" font-size="10.00">_storage_missing</text>
</a>
</g>
</g>
<!-- Node6&#45;&gt;Node7 -->
<g id="edge6_Node000006_Node000007" class="edge">
<title>Node6&#45;&gt;Node7</title>
<g id="a_edge6_Node000006_Node000007"><a xlink:title=" ">
<path fill="none" stroke="#63b8ff" d="M412.3,-121.71C420.93,-123.11 429.71,-124.54 438.16,-125.91"/>
<polygon fill="#63b8ff" stroke="#63b8ff" points="412.7,-118.22 402.26,-120.07 411.57,-125.13 412.7,-118.22"/>
</a>
</g>
</g>
<!-- Node8 -->
<g id="Node000008" class="node">
<title>Node8</title>
<g id="a_Node000008"><a xlink:href="classuni20_1_1async_1_1async__value__uninitialized.html" target="_top" xlink:title="Thrown when an Async value is accessed before initialization.">
<polygon fill="white" stroke="#666666" points="552,-102 438,-102 438,-72 552,-72 552,-102"/>
<text text-anchor="start" x="446" y="-90" font-family="Helvetica,sans-Serif" font-size="10.00">uni20::async::async</text>
<text text-anchor="middle" x="495" y="-79" font-family="Helvetica,sans-Serif" font-size="10.00">_value_uninitialized</text>
</a>
</g>
</g>
<!-- Node6&#45;&gt;Node8 -->
<g id="edge7_Node000006_Node000008" class="edge">
<title>Node6&#45;&gt;Node8</title>
<g id="a_edge7_Node000006_Node000008"><a xlink:title=" ">
<path fill="none" stroke="#63b8ff" d="M412.16,-100.32C420.67,-98.93 429.33,-97.52 437.67,-96.17"/>
<polygon fill="#63b8ff" stroke="#63b8ff" points="411.57,-96.87 402.26,-101.93 412.7,-103.78 411.57,-96.87"/>
</a>
</g>
</g>
<!-- Node9 -->
<g id="Node000009" class="node">
<title>Node9</title>
<g id="a_Node000009"><a xlink:href="classuni20_1_1async_1_1buffer__error.html" target="_top" xlink:title="Base class for buffer&#45;related failures.">
<polygon fill="white" stroke="#666666" points="551.5,-54 438.5,-54 438.5,-24 551.5,-24 551.5,-54"/>
<text text-anchor="start" x="446.5" y="-42" font-family="Helvetica,sans-Serif" font-size="10.00">uni20::async::buffer</text>
<text text-anchor="middle" x="495" y="-31" font-family="Helvetica,sans-Serif" font-size="10.00">_error</text>
</a>
</g>
</g>
<!-- Node6&#45;&gt;Node9 -->
<g id="edge8_Node000006_Node000009" class="edge">
<title>Node6&#45;&gt;Node9</title>
<g id="a_edge8_Node000006_Node000009"><a xlink:title=" ">
<path fill="none" stroke="#63b8ff" d="M382.72,-91.16C399.4,-82.25 419.55,-71.78 438,-63 444.3,-60 451.08,-56.95 457.67,-54.08"/>
<polygon fill="#63b8ff" stroke="#63b8ff" points="380.99,-88.12 373.84,-95.94 384.31,-94.28 380.99,-88.12"/>
</a>
</g>
</g>
<!-- Node10 -->
<g id="Node000010" class="node">
<title>Node10</title>
<g id="a_Node000010"><a xlink:href="classuni20_1_1async_1_1buffer__uninitialized.html" target="_top" xlink:title="Base class for access to a buffer without a constructed value.">
<polygon fill="white" stroke="#666666" points="701,-54 588,-54 588,-24 701,-24 701,-54"/>
<text text-anchor="start" x="596" y="-42" font-family="Helvetica,sans-Serif" font-size="10.00">uni20::async::buffer</text>
<text text-anchor="middle" x="644.5" y="-31" font-family="Helvetica,sans-Serif" font-size="10.00">_uninitialized</text>
</a>
</g>
</g>
<!-- Node9&#45;&gt;Node10 -->
<g id="edge9_Node000009_Node000010" class="edge">
<title>Node9&#45;&gt;Node10</title>
<g id="a_edge9_Node000009_Node000010"><a xlink:title=" ">
<path fill="none" stroke="#63b8ff" d="M561.8,-39C570.43,-39 579.21,-39 587.66,-39"/>
<polygon fill="#63b8ff" stroke="#63b8ff" points="561.76,-35.5 551.76,-39 561.76,-42.5 561.76,-35.5"/>
</a>
</g>
</g>
<!-- Node11 -->
<g id="Node000011" class="node">
<title>Node11</title>
<g id="a_Node000011"><a xlink:href="classuni20_1_1async_1_1buffer__read__uninitialized.html" target="_top" xlink:title="Raised when a reader attempts to access an uninitialized buffer.">
<polygon fill="white" stroke="#666666" points="850,-78 737,-78 737,-48 850,-48 850,-78"/>
<text text-anchor="start" x="745" y="-66" font-family="Helvetica,sans-Serif" font-size="10.00">uni20::async::buffer</text>
<text text-anchor="middle" x="793.5" y="-55" font-family="Helvetica,sans-Serif" font-size="10.00">_read_uninitialized</text>
</a>
</g>
</g>
<!-- Node10&#45;&gt;Node11 -->
<g id="edge10_Node000010_Node000011" class="edge">
<title>Node10&#45;&gt;Node11</title>
<g id="a_edge10_Node000010_Node000011"><a xlink:title=" ">
<path fill="none" stroke="#63b8ff" d="M711.08,-49.71C719.68,-51.11 728.43,-52.54 736.85,-53.91"/>
<polygon fill="#63b8ff" stroke="#63b8ff" points="711.51,-46.23 701.07,-48.07 710.38,-53.14 711.51,-46.23"/>
</a>
</g>
</g>
<!-- Node12 -->
<g id="Node000012" class="node">
<title>Node12</title>
<g id="a_Node000012"><a xlink:href="classuni20_1_1async_1_1buffer__write__uninitialized.html" target="_top" xlink:title="Raised when a writer requests a mutable reference before construction.">
<polygon fill="white" stroke="#666666" points="850,-30 737,-30 737,0 850,0 850,-30"/>
<text text-anchor="start" x="745" y="-18" font-family="Helvetica,sans-Serif" font-size="10.00">uni20::async::buffer</text>
<text text-anchor="middle" x="793.5" y="-7" font-family="Helvetica,sans-Serif" font-size="10.00">_write_uninitialized</text>
</a>
</g>
</g>
<!-- Node10&#45;&gt;Node12 -->
<g id="edge11_Node000010_Node000012" class="edge">
<title>Node10&#45;&gt;Node12</title>
<g id="a_edge11_Node000010_Node000012"><a xlink:title=" ">
<path fill="none" stroke="#63b8ff" d="M711.08,-28.29C719.68,-26.89 728.43,-25.46 736.85,-24.09"/>
<polygon fill="#63b8ff" stroke="#63b8ff" points="710.38,-24.86 701.07,-29.93 711.51,-31.77 710.38,-24.86"/>
</a>
</g>
</g>
</g>
</svg>
