<?xml version="1.0" encoding="UTF-8" standalone="no"?>
<!DOCTYPE svg PUBLIC "-//W3C//DTD SVG 1.1//EN"
 "http://www.w3.org/Graphics/SVG/1.1/DTD/svg11.dtd">
<!-- Generated by graphviz version 2.43.0 (0)
 -->
<!-- Title: concepts.hpp Pages: 1 -->
<svg width="775pt" height="357pt"
 viewBox="0.00 0.00 775.00 357.00" xmlns="http://www.w3.org/2000/svg" xmlns:xlink="http://www.w3.org/1999/xlink">
<g id="graph0" class="graph" transform="scale(1 1) rotate(0) translate(4 353)">
<title>concepts.hpp</title>
<!-- Node1 -->
<g id="Node000001" class="node">
<title>Node1</title>
<g id="a_Node000001"><a xlink:title="Mdspan concept and accessor extensions for Uni20.">
<polygon fill="#999999" stroke="#666666" points="232,-349 151,-349 151,-330 232,-330 232,-349"/>
<text text-anchor="middle" x="191.5" y="-337" font-family="Helvetica,sans-Serif" font-size="10.00">concepts.hpp</text>
</a>
</g>
</g>
<!-- Node2 -->
<g id="Node000002" class="node">
<title>Node2</title>
<g id="a_Node000002"><a xlink:href="assign_8hpp.html" target="_top" xlink:title=" ">
<polygon fill="white" stroke="#666666" points="216,-184 147,-184 147,-165 216,-165 216,-184"/>
<text text-anchor="middle" x="181.5" y="-172" font-family="Helvetica,sans-Serif" font-size="10.00">assign.hpp</text>
</a>
</g>
</g>
<!-- Node1&#45;&gt;Node2 -->
<g id="edge1_Node000001_Node000002" class="edge">
<title>Node1&#45;&gt;Node2</title>
<g id="a_edge1_Node000001_Node000002"><a xlink:title=" ">
<path fill="none" stroke="#63b8ff" d="M190.33,-319.37C188.16,-284.03 183.6,-209.79 182.04,-184.31"/>
<polygon fill="#63b8ff" stroke="#63b8ff" points="186.86,-319.97 190.96,-329.74 193.84,-319.54 186.86,-319.97"/>
</a>
</g>
</g>
<!-- Node3 -->
<g id="Node000003" class="node">
<title>Node3</title>
<g id="a_Node000003"><a xlink:href="iteration__plan_8hpp.html" target="_top" xlink:title="Helpers for constructing merged iteration plans over strided tensors.">
<polygon fill="white" stroke="#666666" points="325,-239 220,-239 220,-220 325,-220 325,-239"/>
<text text-anchor="middle" x="272.5" y="-227" font-family="Helvetica,sans-Serif" font-size="10.00">iteration_plan.hpp</text>
</a>
</g>
</g>
<!-- Node1&#45;&gt;Node3 -->
<g id="edge2_Node000001_Node000003" class="edge">
<title>Node1&#45;&gt;Node3</title>
<g id="a_edge2_Node000001_Node000003"><a xlink:title=" ">
<path fill="none" stroke="#63b8ff" d="M204.34,-321.38C221.87,-298.01 252.65,-256.97 266.01,-239.16"/>
<polygon fill="#63b8ff" stroke="#63b8ff" points="201.33,-319.56 198.13,-329.66 206.93,-323.76 201.33,-319.56"/>
</a>
</g>
</g>
<!-- Node5 -->
<g id="Node000005" class="node">
<title>Node5</title>
<g id="a_Node000005"><a xlink:href="sum_8hpp.html" target="_top" xlink:title=" ">
<polygon fill="white" stroke="#666666" points="59,-129 0,-129 0,-110 59,-110 59,-129"/>
<text text-anchor="middle" x="29.5" y="-117" font-family="Helvetica,sans-Serif" font-size="10.00">sum.hpp</text>
</a>
</g>
</g>
<!-- Node1&#45;&gt;Node5 -->
<g id="edge11_Node000001_Node000005" class="edge">
<title>Node1&#45;&gt;Node5</title>
<g id="a_edge11_Node000001_Node000005"><a xlink:title=" ">
<path fill="none" stroke="#63b8ff" d="M140.75,-331.44C98.18,-324.36 42.18,-311.91 28.5,-294 -10.44,-243.01 16.11,-156.76 26.13,-129.22"/>
<polygon fill="#63b8ff" stroke="#63b8ff" points="140.28,-334.91 150.71,-333.04 141.39,-328 140.28,-334.91"/>
</a>
</g>
</g>
<!-- Node6 -->
<g id="Node000006" class="node">
<title>Node6</title>
<g id="a_Node000006"><a xlink:href="strides_8hpp.html" target="_top" xlink:title="Stride utilities for mdspan&#45;like tensors.">
<polygon fill="white" stroke="#666666" points="370,-294 299,-294 299,-275 370,-275 370,-294"/>
<text text-anchor="middle" x="334.5" y="-282" font-family="Helvetica,sans-Serif" font-size="10.00">strides.hpp</text>
</a>
</g>
</g>
<!-- Node1&#45;&gt;Node6 -->
<g id="edge6_Node000001_Node000006" class="edge">
<title>Node1&#45;&gt;Node6</title>
<g id="a_edge6_Node000001_Node000006"><a xlink:title=" ">
<path fill="none" stroke="#63b8ff" d="M224.09,-326.42C250.62,-316.59 287.43,-302.95 311.11,-294.17"/>
<polygon fill="#63b8ff" stroke="#63b8ff" points="222.64,-323.23 214.48,-329.98 225.07,-329.79 222.64,-323.23"/>
</a>
</g>
</g>
<!-- Node9 -->
<g id="Node000009" class="node">
<title>Node9</title>
<g id="a_Node000009"><a xlink:href="tensor__view_8hpp.html" target="_top" xlink:title="Tensor view abstractions and accessor factories built on std::mdspan.">
<polygon fill="white" stroke="#666666" points="573.5,-294 477.5,-294 477.5,-275 573.5,-275 573.5,-294"/>
<text text-anchor="middle" x="525.5" y="-282" font-family="Helvetica,sans-Serif" font-size="10.00">tensor_view.hpp</text>
</a>
</g>
</g>
<!-- Node1&#45;&gt;Node9 -->
<g id="edge12_Node000001_Node000009" class="edge">
<title>Node1&#45;&gt;Node9</title>
<g id="a_edge12_Node000001_Node000009"><a xlink:title=" ">
<path fill="none" stroke="#63b8ff" d="M242.35,-330.43C306.17,-320.3 414.82,-303.06 477.35,-293.14"/>
<polygon fill="#63b8ff" stroke="#63b8ff" points="241.45,-327.03 232.12,-332.05 242.55,-333.94 241.45,-327.03"/>
</a>
</g>
</g>
<!-- Node17 -->
<g id="Node000017" class="node">
<title>Node17</title>
<g id="a_Node000017"><a xlink:href="zip__layout_8hpp.html" target="_top" xlink:title="Additional layout helpers and policies for zipped mdspan views.">
<polygon fill="white" stroke="#666666" points="125.5,-294 37.5,-294 37.5,-275 125.5,-275 125.5,-294"/>
<text text-anchor="middle" x="81.5" y="-282" font-family="Helvetica,sans-Serif" font-size="10.00">zip_layout.hpp</text>
</a>
</g>
</g>
<!-- Node1&#45;&gt;Node17 -->
<g id="edge23_Node000001_Node000017" class="edge">
<title>Node1&#45;&gt;Node17</title>
<g id="a_edge23_Node000001_Node000017"><a xlink:title=" ">
<path fill="none" stroke="#63b8ff" d="M164.8,-325.63C144.53,-315.87 117.23,-302.71 99.49,-294.17"/>
<polygon fill="#63b8ff" stroke="#63b8ff" points="163.3,-328.8 173.83,-329.98 166.34,-322.49 163.3,-328.8"/>
</a>
</g>
</g>
<!-- Node18 -->
<g id="Node000018" class="node">
<title>Node18</title>
<g id="a_Node000018"><a xlink:href="zip__transform_8hpp.html" target="_top" xlink:title=" ">
<polygon fill="white" stroke="#666666" points="163,-239 58,-239 58,-220 163,-220 163,-239"/>
<text text-anchor="middle" x="110.5" y="-227" font-family="Helvetica,sans-Serif" font-size="10.00">zip_transform.hpp</text>
</a>
</g>
</g>
<!-- Node1&#45;&gt;Node18 -->
<g id="edge26_Node000001_Node000018" class="edge">
<title>Node1&#45;&gt;Node18</title>
<g id="a_edge26_Node000001_Node000018"><a xlink:title=" ">
<path fill="none" stroke="#63b8ff" d="M178.66,-321.38C161.13,-298.01 130.35,-256.97 116.99,-239.16"/>
<polygon fill="#63b8ff" stroke="#63b8ff" points="176.07,-323.76 184.87,-329.66 181.67,-319.56 176.07,-323.76"/>
</a>
</g>
</g>
<!-- Node3&#45;&gt;Node2 -->
<g id="edge5_Node000003_Node000002" class="edge">
<title>Node3&#45;&gt;Node2</title>
<g id="a_edge5_Node000003_Node000002"><a xlink:title=" ">
<path fill="none" stroke="#63b8ff" d="M248.8,-214.7C232.22,-205.04 210.59,-192.44 196.39,-184.17"/>
<polygon fill="#63b8ff" stroke="#63b8ff" points="247.48,-217.98 257.88,-219.98 251,-211.93 247.48,-217.98"/>
</a>
</g>
</g>
<!-- Node4 -->
<g id="Node000004" class="node">
<title>Node4</title>
<g id="a_Node000004"><a xlink:href="apply__unary_8hpp.html" target="_top" xlink:title=" ">
<polygon fill="white" stroke="#666666" points="330.5,-184 234.5,-184 234.5,-165 330.5,-165 330.5,-184"/>
<text text-anchor="middle" x="282.5" y="-172" font-family="Helvetica,sans-Serif" font-size="10.00">apply_unary.hpp</text>
</a>
</g>
</g>
<!-- Node3&#45;&gt;Node4 -->
<g id="edge3_Node000003_Node000004" class="edge">
<title>Node3&#45;&gt;Node4</title>
<g id="a_edge3_Node000003_Node000004"><a xlink:title=" ">
<path fill="none" stroke="#63b8ff" d="M276.05,-209.66C277.7,-200.93 279.58,-190.99 280.88,-184.09"/>
<polygon fill="#63b8ff" stroke="#63b8ff" points="272.57,-209.27 274.15,-219.75 279.44,-210.57 272.57,-209.27"/>
</a>
</g>
</g>
<!-- Node4&#45;&gt;Node5 -->
<g id="edge4_Node000004_Node000005" class="edge">
<title>Node4&#45;&gt;Node5</title>
<g id="a_edge4_Node000004_Node000005"><a xlink:title=" ">
<path fill="none" stroke="#63b8ff" d="M231.9,-162.9C180.25,-152.08 101.82,-135.65 59.35,-126.75"/>
<polygon fill="#63b8ff" stroke="#63b8ff" points="231.35,-166.36 241.85,-164.98 232.78,-159.51 231.35,-166.36"/>
</a>
</g>
</g>
<!-- Node6&#45;&gt;Node3 -->
<g id="edge10_Node000006_Node000003" class="edge">
<title>Node6&#45;&gt;Node3</title>
<g id="a_edge10_Node000006_Node000003"><a xlink:title=" ">
<path fill="none" stroke="#63b8ff" d="M316.75,-268.32C305.69,-258.87 291.87,-247.06 282.64,-239.17"/>
<polygon fill="#63b8ff" stroke="#63b8ff" points="314.66,-271.15 324.54,-274.98 319.21,-265.83 314.66,-271.15"/>
</a>
</g>
</g>
<!-- Node7 -->
<g id="Node000007" class="node">
<title>Node7</title>
<g id="a_Node000007"><a xlink:href="contract_8hpp.html" target="_top" xlink:title=" ">
<polygon fill="white" stroke="#666666" points="438,-184 361,-184 361,-165 438,-165 438,-184"/>
<text text-anchor="middle" x="399.5" y="-172" font-family="Helvetica,sans-Serif" font-size="10.00">contract.hpp</text>
</a>
</g>
</g>
<!-- Node6&#45;&gt;Node7 -->
<g id="edge7_Node000006_Node000007" class="edge">
<title>Node6&#45;&gt;Node7</title>
<g id="a_edge7_Node000006_Node000007"><a xlink:title=" ">
<path fill="none" stroke="#63b8ff" d="M344.99,-266.07C359.09,-242.64 383.62,-201.89 394.29,-184.16"/>
<polygon fill="#63b8ff" stroke="#63b8ff" points="341.98,-264.29 339.82,-274.66 347.97,-267.9 341.98,-264.29"/>
</a>
</g>
</g>
<!-- Node8 -->
<g id="Node000008" class="node">
<title>Node8</title>
<g id="a_Node000008"><a xlink:href="cpu_2contract_8hpp.html" target="_top" xlink:title=" ">
<polygon fill="white" stroke="#666666" points="459,-239 382,-239 382,-220 459,-220 459,-239"/>
<text text-anchor="middle" x="420.5" y="-227" font-family="Helvetica,sans-Serif" font-size="10.00">contract.hpp</text>
</a>
</g>
</g>
<!-- Node6&#45;&gt;Node8 -->
<g id="edge8_Node000006_Node000008" class="edge">
<title>Node6&#45;&gt;Node8</title>
<g id="a_edge8_Node000006_Node000008"><a xlink:title=" ">
<path fill="none" stroke="#63b8ff" d="M356.9,-269.7C372.57,-260.04 393.01,-247.44 406.43,-239.17"/>
<polygon fill="#63b8ff" stroke="#63b8ff" points="354.99,-266.76 348.32,-274.98 358.67,-272.72 354.99,-266.76"/>
</a>
</g>
</g>
<!-- Node8&#45;&gt;Node7 -->
<g id="edge9_Node000008_Node000007" class="edge">
<title>Node8&#45;&gt;Node7</title>
<g id="a_edge9_Node000008_Node000007"><a xlink:title=" ">
<path fill="none" stroke="#63b8ff" d="M413.26,-210.24C409.75,-201.37 405.7,-191.14 402.9,-184.09"/>
<polygon fill="#63b8ff" stroke="#63b8ff" points="410.09,-211.74 417.03,-219.75 416.6,-209.16 410.09,-211.74"/>
</a>
</g>
</g>
<!-- Node10 -->
<g id="Node000010" class="node">
<title>Node10</title>
<g id="a_Node000010"><a xlink:href="basic__tensor_8hpp.html" target="_top" xlink:title=" ">
<polygon fill="white" stroke="#666666" points="613.5,-239 515.5,-239 515.5,-220 613.5,-220 613.5,-239"/>
<text text-anchor="middle" x="564.5" y="-227" font-family="Helvetica,sans-Serif" font-size="10.00">basic_tensor.hpp</text>
</a>
</g>
</g>
<!-- Node9&#45;&gt;Node10 -->
<g id="edge13_Node000009_Node000010" class="edge">
<title>Node9&#45;&gt;Node10</title>
<g id="a_edge13_Node000009_Node000010"><a xlink:title=" ">
<path fill="none" stroke="#63b8ff" d="M537.88,-266.67C544.64,-257.5 552.71,-246.52 558.18,-239.09"/>
<polygon fill="#63b8ff" stroke="#63b8ff" points="535.05,-264.62 531.94,-274.75 540.69,-268.77 535.05,-264.62"/>
</a>
</g>
</g>
<!-- Node11 -->
<g id="Node000011" class="node">
<title>Node11</title>
<g id="a_Node000011"><a xlink:href="matrix__ops_8hpp.html" target="_top" xlink:title=" ">
<polygon fill="white" stroke="#666666" points="666.5,-74 574.5,-74 574.5,-55 666.5,-55 666.5,-74"/>
<text text-anchor="middle" x="620.5" y="-62" font-family="Helvetica,sans-Serif" font-size="10.00">matrix_ops.hpp</text>
</a>
</g>
</g>
<!-- Node9&#45;&gt;Node11 -->
<g id="edge17_Node000009_Node000011" class="edge">
<title>Node9&#45;&gt;Node11</title>
<g id="a_edge17_Node000009_Node000011"><a xlink:title=" ">
<path fill="none" stroke="#63b8ff" d="M516.07,-265.96C512.29,-257.97 508.39,-248.26 506.5,-239 499.91,-206.78 492.89,-194.94 506.5,-165 526.61,-120.76 577.19,-88.5 603.7,-74.01"/>
<polygon fill="#63b8ff" stroke="#63b8ff" points="512.99,-267.63 520.62,-274.98 519.24,-264.47 512.99,-267.63"/>
</a>
</g>
</g>
<!-- Node14 -->
<g id="Node000014" class="node">
<title>Node14</title>
<g id="a_Node000014"><a xlink:href="matrix__ops__cpu_8hpp.html" target="_top" xlink:title=" ">
<polygon fill="white" stroke="#666666" points="751,-239 636,-239 636,-220 751,-220 751,-239"/>
<text text-anchor="middle" x="693.5" y="-227" font-family="Helvetica,sans-Serif" font-size="10.00">matrix_ops_cpu.hpp</text>
</a>
</g>
</g>
<!-- Node9&#45;&gt;Node14 -->
<g id="edge18_Node000009_Node000014" class="edge">
<title>Node9&#45;&gt;Node14</title>
<g id="a_edge18_Node000009_Node000014"><a xlink:title=" ">
<path fill="none" stroke="#63b8ff" d="M562.18,-271.93C593.56,-262.03 638.01,-248.01 666.3,-239.08"/>
<polygon fill="#63b8ff" stroke="#63b8ff" points="560.98,-268.64 552.49,-274.98 563.08,-275.31 560.98,-268.64"/>
</a>
</g>
</g>
<!-- Node10&#45;&gt;Node11 -->
<g id="edge14_Node000010_Node000011" class="edge">
<title>Node10&#45;&gt;Node11</title>
<g id="a_edge14_Node000010_Node000011"><a xlink:title=" ">
<path fill="none" stroke="#63b8ff" d="M577.14,-211.38C582.53,-203.4 588.49,-193.56 592.5,-184 608.92,-144.81 616.82,-94.11 619.45,-74.13"/>
<polygon fill="#63b8ff" stroke="#63b8ff" points="574.12,-209.59 571.22,-219.78 579.84,-213.62 574.12,-209.59"/>
</a>
</g>
</g>
<!-- Node13 -->
<g id="Node000013" class="node">
<title>Node13</title>
<g id="a_Node000013"><a xlink:href="tensor_8hpp.html" target="_top" xlink:title=" ">
<polygon fill="white" stroke="#666666" points="583.5,-184 515.5,-184 515.5,-165 583.5,-165 583.5,-184"/>
<text text-anchor="middle" x="549.5" y="-172" font-family="Helvetica,sans-Serif" font-size="10.00">tensor.hpp</text>
</a>
</g>
</g>
<!-- Node10&#45;&gt;Node13 -->
<g id="edge16_Node000010_Node000013" class="edge">
<title>Node10&#45;&gt;Node13</title>
<g id="a_edge16_Node000010_Node000013"><a xlink:title=" ">
<path fill="none" stroke="#63b8ff" d="M559.25,-209.95C556.76,-201.15 553.9,-191.06 551.93,-184.09"/>
<polygon fill="#63b8ff" stroke="#63b8ff" points="555.93,-211.08 562.02,-219.75 562.67,-209.17 555.93,-211.08"/>
</a>
</g>
</g>
<!-- Node12 -->
<g id="Node000012" class="node">
<title>Node12</title>
<g id="a_Node000012"><a xlink:href="linalg_8hpp.html" target="_top" xlink:title=" ">
<polygon fill="white" stroke="#666666" points="690,-19 625,-19 625,0 690,0 690,-19"/>
<text text-anchor="middle" x="657.5" y="-7" font-family="Helvetica,sans-Serif" font-size="10.00">linalg.hpp</text>
</a>
</g>
</g>
<!-- Node11&#45;&gt;Node12 -->
<g id="edge15_Node000011_Node000012" class="edge">
<title>Node11&#45;&gt;Node12</title>
<g id="a_edge15_Node000011_Node000012"><a xlink:title=" ">
<path fill="none" stroke="#63b8ff" d="M632.45,-46.39C638.81,-37.27 646.37,-26.45 651.5,-19.09"/>
<polygon fill="#63b8ff" stroke="#63b8ff" points="629.46,-44.55 626.61,-54.75 635.2,-48.55 629.46,-44.55"/>
</a>
</g>
</g>
<!-- Node15 -->
<g id="Node000015" class="node">
<title>Node15</title>
<g id="a_Node000015"><a xlink:href="linalg__cpu_8hpp.html" target="_top" xlink:title=" ">
<polygon fill="white" stroke="#666666" points="740,-184 653,-184 653,-165 740,-165 740,-184"/>
<text text-anchor="middle" x="696.5" y="-172" font-family="Helvetica,sans-Serif" font-size="10.00">linalg_cpu.hpp</text>
</a>
</g>
</g>
<!-- Node14&#45;&gt;Node15 -->
<g id="edge19_Node000014_Node000015" class="edge">
<title>Node14&#45;&gt;Node15</title>
<g id="a_edge19_Node000014_Node000015"><a xlink:title=" ">
<path fill="none" stroke="#63b8ff" d="M694.57,-209.66C695.06,-200.93 695.62,-190.99 696.01,-184.09"/>
<polygon fill="#63b8ff" stroke="#63b8ff" points="691.07,-209.57 694,-219.75 698.06,-209.96 691.07,-209.57"/>
</a>
</g>
</g>
<!-- Node16 -->
<g id="Node000016" class="node">
<title>Node16</title>
<g id="a_Node000016"><a xlink:href="backend__manifest_8hpp.html" target="_top" xlink:title=" ">
<polygon fill="white" stroke="#666666" points="767,-129 640,-129 640,-110 767,-110 767,-129"/>
<text text-anchor="middle" x="703.5" y="-117" font-family="Helvetica,sans-Serif" font-size="10.00">backend_manifest.hpp</text>
</a>
</g>
</g>
<!-- Node15&#45;&gt;Node16 -->
<g id="edge20_Node000015_Node000016" class="edge">
<title>Node15&#45;&gt;Node16</title>
<g id="a_edge20_Node000015_Node000016"><a xlink:title=" ">
<path fill="none" stroke="#63b8ff" d="M698.99,-154.66C700.14,-145.93 701.45,-135.99 702.37,-129.09"/>
<polygon fill="#63b8ff" stroke="#63b8ff" points="695.5,-154.38 697.66,-164.75 702.44,-155.29 695.5,-154.38"/>
</a>
</g>
</g>
<!-- Node16&#45;&gt;Node11 -->
<g id="edge22_Node000016_Node000011" class="edge">
<title>Node16&#45;&gt;Node11</title>
<g id="a_edge22_Node000016_Node000011"><a xlink:title=" ">
<path fill="none" stroke="#63b8ff" d="M681.46,-104.42C666.39,-94.81 646.91,-82.37 634.08,-74.17"/>
<polygon fill="#63b8ff" stroke="#63b8ff" points="679.85,-107.55 690.16,-109.98 683.62,-101.65 679.85,-107.55"/>
</a>
</g>
</g>
<!-- Node16&#45;&gt;Node12 -->
<g id="edge21_Node000016_Node000012" class="edge">
<title>Node16&#45;&gt;Node12</title>
<g id="a_edge21_Node000016_Node000012"><a xlink:title=" ">
<path fill="none" stroke="#63b8ff" d="M695.81,-100.44C685.79,-76.92 668.67,-36.73 661.19,-19.16"/>
<polygon fill="#63b8ff" stroke="#63b8ff" points="692.6,-101.83 699.74,-109.66 699.04,-99.09 692.6,-101.83"/>
</a>
</g>
</g>
<!-- Node17&#45;&gt;Node5 -->
<g id="edge24_Node000017_Node000005" class="edge">
<title>Node17&#45;&gt;Node5</title>
<g id="a_edge24_Node000017_Node000005"><a xlink:title=" ">
<path fill="none" stroke="#63b8ff" d="M66.33,-267.06C59.83,-259.13 52.78,-249.16 48.5,-239 32.25,-200.4 29.8,-149.36 29.5,-129.21"/>
<polygon fill="#63b8ff" stroke="#63b8ff" points="63.8,-269.49 72.99,-274.76 69.1,-264.91 63.8,-269.49"/>
</a>
</g>
</g>
<!-- Node17&#45;&gt;Node18 -->
<g id="edge25_Node000017_Node000018" class="edge">
<title>Node17&#45;&gt;Node18</title>
<g id="a_edge25_Node000017_Node000018"><a xlink:title=" ">
<path fill="none" stroke="#63b8ff" d="M91.18,-265.82C96.1,-256.82 101.86,-246.29 105.8,-239.09"/>
<polygon fill="#63b8ff" stroke="#63b8ff" points="88.02,-264.3 86.29,-274.75 94.16,-267.66 88.02,-264.3"/>
</a>
</g>
</g>
</g>
</svg>
