<?xml version="1.0" encoding="UTF-8" standalone="no"?>
<!DOCTYPE svg PUBLIC "-//W3C//DTD SVG 1.1//EN"
 "http://www.w3.org/Graphics/SVG/1.1/DTD/svg11.dtd">
<!-- Generated by graphviz version 2.43.0 (0)
 -->
<!-- Title: debug_scheduler.hpp Pages: 1 -->
<!--zoomable 423 -->

<svg id="main" version="1.1" xmlns="http://www.w3.org/2000/svg" xmlns:xlink="http://www.w3.org/1999/xlink" xml:space="preserve" onload="init(evt)">
<style type="text/css"><![CDATA[
.node, .edge {opacity: 0.7;}
.node.selected, .edge.selected {opacity: 1;}
.edge:hover path { stroke: red; }
.edge:hover polygon { stroke: red; fill: red; }
]]></style>

<defs>
  <circle id="rim" cx="0" cy="0" r="7"/>
  <circle id="rim2" cx="0" cy="0" r="3.5"/>
  <g id="zoomPlus">
    <use xlink:href="#rim" fill="#404040"><set attributeName="fill" to="#808080" begin="zoomplus.mouseover" end="zoomplus.mouseout"/></use>
    <path d="M-4,0h8M0,-4v8" fill="none" stroke="white" stroke-width="1.5" pointer-events="none"/>
  </g>
  <g id="zoomMin">
    <use xlink:href="#rim" fill="#404040"><set attributeName="fill" to="#808080" begin="zoomminus.mouseover" end="zoomminus.mouseout"/></use>
    <path d="M-4,0h8" fill="none" stroke="white" stroke-width="1.5" pointer-events="none"/>
  </g>
  <g id="arrowUp" transform="translate(30 24)">
    <use xlink:href="#rim"/>
    <path pointer-events="none" fill="none" stroke="white" stroke-width="1.5" d="M0,-3.0v7 M-2.5,-0.5L0,-3.0L2.5,-0.5"/>
  </g>
  <g id="arrowRight" transform="rotate(90) translate(36 -43)">
    <use xlink:href="#rim"/>
    <path pointer-events="none" fill="none" stroke="white" stroke-width="1.5" d="M0,-3.0v7 M-2.5,-0.5L0,-3.0L2.5,-0.5"/>
  </g>
  <g id="arrowDown" transform="rotate(180) translate(-30 -48)">
    <use xlink:href="#rim"/>
    <path pointer-events="none" fill="none" stroke="white" stroke-width="1.5" d="M0,-3.0v7 M-2.5,-0.5L0,-3.0L2.5,-0.5"/>
  </g>
  <g id="arrowLeft" transform="rotate(270) translate(-36 17)">
    <use xlink:href="#rim"/>
    <path pointer-events="none" fill="none" stroke="white" stroke-width="1.5" d="M0,-3.0v7 M-2.5,-0.5L0,-3.0L2.5,-0.5"/>
  </g>
  <g id="resetDef">
    <use xlink:href="#rim2" fill="#404040"><set attributeName="fill" to="#808080" begin="reset.mouseover" end="reset.mouseout"/></use>
  </g>
</defs>
<script type="application/ecmascript">
var viewWidth = 1718;
var viewHeight = 423;
var sectionId = 'dynsection-1';
</script>
<script type="application/ecmascript" xlink:href="svg.min.js"/>
<svg id="graph" class="graph">
<g id="viewport">
<title>debug_scheduler.hpp</title>
<!-- Node1 -->
<g id="Node000001" class="node">
<title>Node1</title>
<g id="a_Node000001"><a xlink:title="Coroutine scheduler for AsyncTask.">
<polygon fill="#999999" stroke="#666666" points="1423.5,-415 1304.5,-415 1304.5,-396 1423.5,-396 1423.5,-415"/>
<text text-anchor="middle" x="1364" y="-403" font-family="Helvetica,sans-Serif" font-size="10.00">debug_scheduler.hpp</text>
</a>
</g>
</g>
<!-- Node2 -->
<g id="Node000002" class="node">
<title>Node2</title>
<g id="a_Node000002"><a xlink:href="ad__example_8cpp.html" target="_top" xlink:title=" ">
<polygon fill="white" stroke="#666666" points="1373.5,-129 1276.5,-129 1276.5,-110 1373.5,-110 1373.5,-129"/>
<text text-anchor="middle" x="1325" y="-117" font-family="Helvetica,sans-Serif" font-size="10.00">ad_example.cpp</text>
</a>
</g>
</g>
<!-- Node1&#45;&gt;Node2 -->
<g id="edge1_Node000001_Node000002" class="edge">
<title>Node1&#45;&gt;Node2</title>
<g id="a_edge1_Node000001_Node000002"><a xlink:title=" ">
<path fill="none" stroke="#63b8ff" d="M1433.73,-401.49C1507,-396.98 1616,-386 1648,-360 1671.41,-340.97 1672,-326.67 1672,-296.5 1672,-296.5 1672,-296.5 1672,-239.5 1672,-204.71 1674.65,-187.36 1648,-165 1607.4,-130.94 1453.38,-122.9 1373.59,-121.03"/>
<polygon fill="#63b8ff" stroke="#63b8ff" points="1433.41,-398 1423.64,-402.09 1433.83,-404.99 1433.41,-398"/>
</a>
</g>
</g>
<!-- Node3 -->
<g id="Node000003" class="node">
<title>Node3</title>
<g id="a_Node000003"><a xlink:href="async__buffer__semantics__example_8cpp.html" target="_top" xlink:title=" ">
<polygon fill="white" stroke="#666666" points="238,-195 104,-195 104,-165 238,-165 238,-195"/>
<text text-anchor="start" x="112" y="-183" font-family="Helvetica,sans-Serif" font-size="10.00">async_buffer_semantics</text>
<text text-anchor="middle" x="171" y="-172" font-family="Helvetica,sans-Serif" font-size="10.00">_example.cpp</text>
</a>
</g>
</g>
<!-- Node1&#45;&gt;Node3 -->
<g id="edge2_Node000001_Node000003" class="edge">
<title>Node1&#45;&gt;Node3</title>
<g id="a_edge2_Node000001_Node000003"><a xlink:title=" ">
<path fill="none" stroke="#63b8ff" d="M1294.1,-400.83C1203.76,-395.38 1041.81,-383.19 905,-360 642.48,-315.5 334.76,-229.02 218.6,-195.12"/>
<polygon fill="#63b8ff" stroke="#63b8ff" points="1294.04,-404.33 1304.23,-401.43 1294.45,-397.34 1294.04,-404.33"/>
</a>
</g>
</g>
<!-- Node4 -->
<g id="Node000004" class="node">
<title>Node4</title>
<g id="a_Node000004"><a xlink:href="async__example_8cpp.html" target="_top" xlink:title=" ">
<polygon fill="white" stroke="#666666" points="1258.5,-129 1145.5,-129 1145.5,-110 1258.5,-110 1258.5,-129"/>
<text text-anchor="middle" x="1202" y="-117" font-family="Helvetica,sans-Serif" font-size="10.00">async_example.cpp</text>
</a>
</g>
</g>
<!-- Node1&#45;&gt;Node4 -->
<g id="edge3_Node000001_Node000004" class="edge">
<title>Node1&#45;&gt;Node4</title>
<g id="a_edge3_Node000001_Node000004"><a xlink:title=" ">
<path fill="none" stroke="#63b8ff" d="M1433.87,-399.49C1496.95,-393.63 1583.77,-381.83 1610,-360 1633.19,-340.7 1634,-326.67 1634,-296.5 1634,-296.5 1634,-296.5 1634,-239.5 1634,-204.71 1637.01,-186.93 1610,-165 1550.67,-116.83 1343.9,-137.88 1268,-129 1264.9,-128.64 1261.72,-128.26 1258.52,-127.87"/>
<polygon fill="#63b8ff" stroke="#63b8ff" points="1433.22,-396.03 1423.57,-400.41 1433.84,-403.01 1433.22,-396.03"/>
</a>
</g>
</g>
<!-- Node5 -->
<g id="Node000005" class="node">
<title>Node5</title>
<g id="a_Node000005"><a xlink:href="async__example2_8cpp.html" target="_top" xlink:title=" ">
<polygon fill="white" stroke="#666666" points="1127.5,-129 1008.5,-129 1008.5,-110 1127.5,-110 1127.5,-129"/>
<text text-anchor="middle" x="1068" y="-117" font-family="Helvetica,sans-Serif" font-size="10.00">async_example2.cpp</text>
</a>
</g>
</g>
<!-- Node1&#45;&gt;Node5 -->
<g id="edge4_Node000001_Node000005" class="edge">
<title>Node1&#45;&gt;Node5</title>
<g id="a_edge4_Node000001_Node000005"><a xlink:title=" ">
<path fill="none" stroke="#63b8ff" d="M1434.05,-400.72C1502.35,-392.8 1596,-368.76 1596,-296.5 1596,-296.5 1596,-296.5 1596,-239.5 1596,-205.33 1603.11,-187.05 1577,-165 1539.53,-133.35 1185.8,-134 1137,-129 1134,-128.69 1130.92,-128.36 1127.82,-128.02"/>
<polygon fill="#63b8ff" stroke="#63b8ff" points="1433.32,-397.27 1423.75,-401.81 1434.06,-404.24 1433.32,-397.27"/>
</a>
</g>
</g>
<!-- Node6 -->
<g id="Node000006" class="node">
<title>Node6</title>
<g id="a_Node000006"><a xlink:href="async__fib__example_8cpp.html" target="_top" xlink:title=" ">
<polygon fill="white" stroke="#666666" points="1429.5,-189.5 1298.5,-189.5 1298.5,-170.5 1429.5,-170.5 1429.5,-189.5"/>
<text text-anchor="middle" x="1364" y="-177.5" font-family="Helvetica,sans-Serif" font-size="10.00">async_fib_example.cpp</text>
</a>
</g>
</g>
<!-- Node1&#45;&gt;Node6 -->
<g id="edge5_Node000001_Node000006" class="edge">
<title>Node1&#45;&gt;Node6</title>
<g id="a_edge5_Node000001_Node000006"><a xlink:title=" ">
<path fill="none" stroke="#63b8ff" d="M1364,-385.67C1364,-339.71 1364,-223.14 1364,-189.94"/>
<polygon fill="#63b8ff" stroke="#63b8ff" points="1360.5,-385.74 1364,-395.74 1367.5,-385.74 1360.5,-385.74"/>
</a>
</g>
</g>
<!-- Node7 -->
<g id="Node000007" class="node">
<title>Node7</title>
<g id="a_Node000007"><a xlink:href="async__kernel__shapes__example_8cpp.html" target="_top" xlink:title=" ">
<polygon fill="white" stroke="#666666" points="1568,-195 1448,-195 1448,-165 1568,-165 1568,-195"/>
<text text-anchor="start" x="1456" y="-183" font-family="Helvetica,sans-Serif" font-size="10.00">async_kernel_shapes</text>
<text text-anchor="middle" x="1508" y="-172" font-family="Helvetica,sans-Serif" font-size="10.00">_example.cpp</text>
</a>
</g>
</g>
<!-- Node1&#45;&gt;Node7 -->
<g id="edge6_Node000001_Node000007" class="edge">
<title>Node1&#45;&gt;Node7</title>
<g id="a_edge6_Node000001_Node000007"><a xlink:title=" ">
<path fill="none" stroke="#63b8ff" d="M1375.11,-387.26C1402.64,-344.53 1473.64,-234.33 1498.91,-195.12"/>
<polygon fill="#63b8ff" stroke="#63b8ff" points="1372.12,-385.44 1369.64,-395.74 1378,-389.23 1372.12,-385.44"/>
</a>
</g>
</g>
<!-- Node8 -->
<g id="Node000008" class="node">
<title>Node8</title>
<g id="a_Node000008"><a xlink:href="async__ops_8hpp.html" target="_top" xlink:title="Concepts and helpers for composing Async expressions.">
<polygon fill="white" stroke="#666666" points="1159.5,-360 1070.5,-360 1070.5,-341 1159.5,-341 1159.5,-360"/>
<text text-anchor="middle" x="1115" y="-348" font-family="Helvetica,sans-Serif" font-size="10.00">async_ops.hpp</text>
</a>
</g>
</g>
<!-- Node1&#45;&gt;Node8 -->
<g id="edge7_Node000001_Node000008" class="edge">
<title>Node1&#45;&gt;Node8</title>
<g id="a_edge7_Node000001_Node000008"><a xlink:title=" ">
<path fill="none" stroke="#63b8ff" d="M1314.1,-393.88C1267.43,-383.94 1198.61,-369.3 1155.32,-360.08"/>
<polygon fill="#63b8ff" stroke="#63b8ff" points="1313.48,-397.33 1323.99,-395.98 1314.94,-390.48 1313.48,-397.33"/>
</a>
</g>
</g>
<!-- Node11 -->
<g id="Node000011" class="node">
<title>Node11</title>
<g id="a_Node000011"><a xlink:href="async__ops__example_8cpp.html" target="_top" xlink:title=" ">
<polygon fill="white" stroke="#666666" points="392,-189.5 256,-189.5 256,-170.5 392,-170.5 392,-189.5"/>
<text text-anchor="middle" x="324" y="-177.5" font-family="Helvetica,sans-Serif" font-size="10.00">async_ops_example.cpp</text>
</a>
</g>
</g>
<!-- Node1&#45;&gt;Node11 -->
<g id="edge46_Node000001_Node000011" class="edge">
<title>Node1&#45;&gt;Node11</title>
<g id="a_edge46_Node000001_Node000011"><a xlink:title=" ">
<path fill="none" stroke="#63b8ff" d="M1294.31,-398.63C1220.74,-391.83 1101.6,-379.04 1000,-360 804.84,-323.43 758.74,-301.57 567,-250 489.5,-229.16 398.63,-202.85 353.1,-189.55"/>
<polygon fill="#63b8ff" stroke="#63b8ff" points="1294.1,-402.13 1304.38,-399.56 1294.74,-395.16 1294.1,-402.13"/>
</a>
</g>
</g>
<!-- Node14 -->
<g id="Node000014" class="node">
<title>Node14</title>
<g id="a_Node000014"><a xlink:href="future__example_8cpp.html" target="_top" xlink:title=" ">
<polygon fill="white" stroke="#666666" points="554,-129 440,-129 440,-110 554,-110 554,-129"/>
<text text-anchor="middle" x="497" y="-117" font-family="Helvetica,sans-Serif" font-size="10.00">future_example.cpp</text>
</a>
</g>
</g>
<!-- Node1&#45;&gt;Node14 -->
<g id="edge47_Node000001_Node000014" class="edge">
<title>Node1&#45;&gt;Node14</title>
<g id="a_edge47_Node000001_Node000014"><a xlink:title=" ">
<path fill="none" stroke="#63b8ff" d="M1293.67,-402.65C1014.56,-394.87 0,-362.06 0,-296.5 0,-296.5 0,-296.5 0,-239.5 0,-189.27 39,-185.19 85,-165 147.25,-137.67 342.15,-126.44 439.9,-122.43"/>
<polygon fill="#63b8ff" stroke="#63b8ff" points="1293.98,-406.16 1304.07,-402.94 1294.17,-399.17 1293.98,-406.16"/>
</a>
</g>
</g>
<!-- Node16 -->
<g id="Node000016" class="node">
<title>Node16</title>
<g id="a_Node000016"><a xlink:href="gradient__solver_8cpp.html" target="_top" xlink:title=" ">
<polygon fill="white" stroke="#666666" points="708,-19 596,-19 596,0 708,0 708,-19"/>
<text text-anchor="middle" x="652" y="-7" font-family="Helvetica,sans-Serif" font-size="10.00">gradient_solver.cpp</text>
</a>
</g>
</g>
<!-- Node1&#45;&gt;Node16 -->
<g id="edge48_Node000001_Node000016" class="edge">
<title>Node1&#45;&gt;Node16</title>
<g id="a_edge48_Node000001_Node000016"><a xlink:title=" ">
<path fill="none" stroke="#63b8ff" d="M1433.94,-401.07C1511.94,-396.09 1632.15,-384.61 1670,-360 1697.96,-341.82 1710,-329.85 1710,-296.5 1710,-296.5 1710,-296.5 1710,-118.5 1710,-16.84 926.86,-10.16 708.14,-10.28"/>
<polygon fill="#63b8ff" stroke="#63b8ff" points="1433.46,-397.59 1423.7,-401.7 1433.89,-404.58 1433.46,-397.59"/>
</a>
</g>
</g>
<!-- Node8&#45;&gt;Node5 -->
<g id="edge8_Node000008_Node000005" class="edge">
<title>Node8&#45;&gt;Node5</title>
<g id="a_edge8_Node000008_Node000005"><a xlink:title=" ">
<path fill="none" stroke="#63b8ff" d="M1111.17,-330.82C1101.55,-283.94 1076.67,-162.73 1069.79,-129.21"/>
<polygon fill="#63b8ff" stroke="#63b8ff" points="1107.78,-331.71 1113.21,-340.8 1114.63,-330.3 1107.78,-331.71"/>
</a>
</g>
</g>
<!-- Node8&#45;&gt;Node6 -->
<g id="edge9_Node000008_Node000006" class="edge">
<title>Node8&#45;&gt;Node6</title>
<g id="a_edge9_Node000008_Node000006"><a xlink:title=" ">
<path fill="none" stroke="#63b8ff" d="M1136.14,-335.19C1186.28,-301.27 1311.16,-216.76 1351.34,-189.57"/>
<polygon fill="#63b8ff" stroke="#63b8ff" points="1134.01,-332.41 1127.69,-340.91 1137.93,-338.21 1134.01,-332.41"/>
</a>
</g>
</g>
<!-- Node8&#45;&gt;Node7 -->
<g id="edge42_Node000008_Node000007" class="edge">
<title>Node8&#45;&gt;Node7</title>
<g id="a_edge42_Node000008_Node000007"><a xlink:title=" ">
<path fill="none" stroke="#63b8ff" d="M1144.39,-336.9C1216.14,-306.14 1399.87,-227.36 1475.12,-195.1"/>
<polygon fill="#63b8ff" stroke="#63b8ff" points="1142.84,-333.75 1135.03,-340.91 1145.6,-340.19 1142.84,-333.75"/>
</a>
</g>
</g>
<!-- Node9 -->
<g id="Node000009" class="node">
<title>Node9</title>
<g id="a_Node000009"><a xlink:href="async__impl_8hpp.html" target="_top" xlink:title="Inline implementation of Async&lt;T&gt; helpers and task await transforms.">
<polygon fill="white" stroke="#666666" points="1067.5,-305 974.5,-305 974.5,-286 1067.5,-286 1067.5,-305"/>
<text text-anchor="middle" x="1021" y="-293" font-family="Helvetica,sans-Serif" font-size="10.00">async_impl.hpp</text>
</a>
</g>
</g>
<!-- Node8&#45;&gt;Node9 -->
<g id="edge10_Node000008_Node000009" class="edge">
<title>Node8&#45;&gt;Node9</title>
<g id="a_edge10_Node000008_Node000009"><a xlink:title=" ">
<path fill="none" stroke="#63b8ff" d="M1091,-335.97C1073.81,-326.28 1051.19,-313.52 1036.38,-305.17"/>
<polygon fill="#63b8ff" stroke="#63b8ff" points="1089.47,-339.12 1099.9,-340.98 1092.91,-333.02 1089.47,-339.12"/>
</a>
</g>
</g>
<!-- Node8&#45;&gt;Node11 -->
<g id="edge43_Node000008_Node000011" class="edge">
<title>Node8&#45;&gt;Node11</title>
<g id="a_edge43_Node000008_Node000011"><a xlink:title=" ">
<path fill="none" stroke="#63b8ff" d="M1064.95,-338.84C919.16,-307.78 496.8,-217.81 364.28,-189.58"/>
<polygon fill="#63b8ff" stroke="#63b8ff" points="1064.45,-342.31 1074.96,-340.97 1065.91,-335.46 1064.45,-342.31"/>
</a>
</g>
</g>
<!-- Node8&#45;&gt;Node14 -->
<g id="edge44_Node000008_Node000014" class="edge">
<title>Node8&#45;&gt;Node14</title>
<g id="a_edge44_Node000008_Node000014"><a xlink:title=" ">
<path fill="none" stroke="#63b8ff" d="M1060.03,-350.1C866.52,-350.92 221.64,-342.4 95,-195 86.31,-184.89 86.11,-174.93 95,-165 117.57,-139.79 334.05,-127.32 439.64,-122.69"/>
<polygon fill="#63b8ff" stroke="#63b8ff" points="1060.27,-353.6 1070.25,-350.04 1060.23,-346.6 1060.27,-353.6"/>
</a>
</g>
</g>
<!-- Node8&#45;&gt;Node16 -->
<g id="edge45_Node000008_Node000016" class="edge">
<title>Node8&#45;&gt;Node16</title>
<g id="a_edge45_Node000008_Node000016"><a xlink:title=" ">
<path fill="none" stroke="#63b8ff" d="M1060.13,-349.82C840.68,-350.38 38,-345.33 38,-241.5 38,-241.5 38,-241.5 38,-118.5 38,-62.15 444.31,-26.01 595.88,-14.49"/>
<polygon fill="#63b8ff" stroke="#63b8ff" points="1060.44,-353.32 1070.43,-349.79 1060.42,-346.32 1060.44,-353.32"/>
</a>
</g>
</g>
<!-- Node10 -->
<g id="Node000010" class="node">
<title>Node10</title>
<g id="a_Node000010"><a xlink:href="async_8hpp.html" target="_top" xlink:title="The Async&lt;T&gt; container: coroutine‐safe asynchronous read/write.">
<polygon fill="white" stroke="#666666" points="994,-250 928,-250 928,-231 994,-231 994,-250"/>
<text text-anchor="middle" x="961" y="-238" font-family="Helvetica,sans-Serif" font-size="10.00">async.hpp</text>
</a>
</g>
</g>
<!-- Node9&#45;&gt;Node10 -->
<g id="edge11_Node000009_Node000010" class="edge">
<title>Node9&#45;&gt;Node10</title>
<g id="a_edge11_Node000009_Node000010"><a xlink:title=" ">
<path fill="none" stroke="#63b8ff" d="M1003.82,-279.32C993.12,-269.87 979.74,-258.06 970.82,-250.17"/>
<polygon fill="#63b8ff" stroke="#63b8ff" points="1001.55,-281.99 1011.36,-285.98 1006.18,-276.74 1001.55,-281.99"/>
</a>
</g>
</g>
<!-- Node10&#45;&gt;Node1 -->
<g id="edge33_Node000010_Node000001" class="edge">
<title>Node10&#45;&gt;Node1</title>
<g id="a_edge33_Node000010_Node000001"><a xlink:title=" ">
<path fill="none" stroke="#63b8ff" d="M957.73,-260.1C956.36,-273.57 956.67,-291.68 965,-305 991.28,-347.02 1015.13,-343.89 1062,-360 1143.07,-387.86 1242.26,-398.28 1304.3,-402.18"/>
<polygon fill="#63b8ff" stroke="#63b8ff" points="961.21,-260.47 959.14,-250.08 954.28,-259.49 961.21,-260.47"/>
</a>
</g>
</g>
<!-- Node10&#45;&gt;Node2 -->
<g id="edge12_Node000010_Node000002" class="edge">
<title>Node10&#45;&gt;Node2</title>
<g id="a_edge12_Node000010_Node000002"><a xlink:title=" ">
<path fill="none" stroke="#63b8ff" d="M1004.5,-236.17C1074.54,-230.26 1208.73,-216.5 1251,-195 1282.2,-179.13 1308.22,-145.16 1319.29,-129.17"/>
<polygon fill="#63b8ff" stroke="#63b8ff" points="1003.92,-232.71 994.24,-237.02 1004.5,-239.69 1003.92,-232.71"/>
</a>
</g>
</g>
<!-- Node10&#45;&gt;Node3 -->
<g id="edge13_Node000010_Node000003" class="edge">
<title>Node10&#45;&gt;Node3</title>
<g id="a_edge13_Node000010_Node000003"><a xlink:title=" ">
<path fill="none" stroke="#63b8ff" d="M917.58,-238.61C805.94,-235.91 499.87,-226.06 247,-195 244.07,-194.64 241.08,-194.24 238.07,-193.81"/>
<polygon fill="#63b8ff" stroke="#63b8ff" points="917.69,-242.11 927.77,-238.84 917.86,-235.11 917.69,-242.11"/>
</a>
</g>
</g>
<!-- Node10&#45;&gt;Node4 -->
<g id="edge14_Node000010_Node000004" class="edge">
<title>Node10&#45;&gt;Node4</title>
<g id="a_edge14_Node000010_Node000004"><a xlink:title=" ">
<path fill="none" stroke="#63b8ff" d="M990.71,-226.9C1010.73,-218.26 1037.65,-206.35 1061,-195 1107.32,-172.49 1160.76,-143.36 1186.53,-129.12"/>
<polygon fill="#63b8ff" stroke="#63b8ff" points="989.29,-223.7 981.49,-230.86 992.06,-230.13 989.29,-223.7"/>
</a>
</g>
</g>
<!-- Node10&#45;&gt;Node5 -->
<g id="edge15_Node000010_Node000005" class="edge">
<title>Node10&#45;&gt;Node5</title>
<g id="a_edge15_Node000010_Node000005"><a xlink:title=" ">
<path fill="none" stroke="#63b8ff" d="M993.43,-226.72C1008.64,-219.36 1026.02,-208.81 1038,-195 1055.18,-175.2 1063.31,-144.3 1066.41,-129.29"/>
<polygon fill="#63b8ff" stroke="#63b8ff" points="991.95,-223.55 984.3,-230.89 994.85,-229.92 991.95,-223.55"/>
</a>
</g>
</g>
<!-- Node10&#45;&gt;Node6 -->
<g id="edge16_Node000010_Node000006" class="edge">
<title>Node10&#45;&gt;Node6</title>
<g id="a_edge16_Node000010_Node000006"><a xlink:title=" ">
<path fill="none" stroke="#63b8ff" d="M1004.27,-234.05C1066.3,-226.11 1184.08,-210.62 1284,-195 1294.73,-193.32 1306.24,-191.39 1317.09,-189.5"/>
<polygon fill="#63b8ff" stroke="#63b8ff" points="1003.55,-230.61 994.07,-235.35 1004.43,-237.55 1003.55,-230.61"/>
</a>
</g>
</g>
<!-- Node10&#45;&gt;Node7 -->
<g id="edge17_Node000010_Node000007" class="edge">
<title>Node10&#45;&gt;Node7</title>
<g id="a_edge17_Node000010_Node000007"><a xlink:title=" ">
<path fill="none" stroke="#63b8ff" d="M1004.38,-237.03C1088.53,-231.88 1279.67,-218.51 1439,-195 1441.9,-194.57 1444.87,-194.1 1447.86,-193.6"/>
<polygon fill="#63b8ff" stroke="#63b8ff" points="1003.95,-233.55 994.18,-237.64 1004.37,-240.53 1003.95,-233.55"/>
</a>
</g>
</g>
<!-- Node10&#45;&gt;Node8 -->
<g id="edge18_Node000010_Node000008" class="edge">
<title>Node10&#45;&gt;Node8</title>
<g id="a_edge18_Node000010_Node000008"><a xlink:title=" ">
<path fill="none" stroke="#63b8ff" d="M1004.13,-251.01C1027.34,-257.78 1055.37,-268.81 1076,-286 1094.29,-301.24 1106.44,-327.38 1111.82,-340.87"/>
<polygon fill="#63b8ff" stroke="#63b8ff" points="1004.74,-247.55 994.17,-248.27 1002.89,-254.29 1004.74,-247.55"/>
</a>
</g>
</g>
<!-- Node10&#45;&gt;Node11 -->
<g id="edge19_Node000010_Node000011" class="edge">
<title>Node10&#45;&gt;Node11</title>
<g id="a_edge19_Node000010_Node000011"><a xlink:title=" ">
<path fill="none" stroke="#63b8ff" d="M917.73,-237.55C823.5,-232.97 592.79,-219.99 401,-195 389.82,-193.54 377.79,-191.56 366.65,-189.54"/>
<polygon fill="#63b8ff" stroke="#63b8ff" points="917.59,-241.04 927.74,-238.03 917.92,-234.05 917.59,-241.04"/>
</a>
</g>
</g>
<!-- Node12 -->
<g id="Node000012" class="node">
<title>Node12</title>
<g id="a_Node000012"><a xlink:href="async__tbb__reduction__example_8cpp.html" target="_top" xlink:title="Example of using uni20 coroutines with the TbbScheduler to parallelize a map–reduce computation.">
<polygon fill="white" stroke="#666666" points="831.5,-195 714.5,-195 714.5,-165 831.5,-165 831.5,-195"/>
<text text-anchor="start" x="722.5" y="-183" font-family="Helvetica,sans-Serif" font-size="10.00">async_tbb_reduction</text>
<text text-anchor="middle" x="773" y="-172" font-family="Helvetica,sans-Serif" font-size="10.00">_example.cpp</text>
</a>
</g>
</g>
<!-- Node10&#45;&gt;Node12 -->
<g id="edge20_Node000010_Node000012" class="edge">
<title>Node10&#45;&gt;Node12</title>
<g id="a_edge20_Node000010_Node000012"><a xlink:title=" ">
<path fill="none" stroke="#63b8ff" d="M923.89,-227.95C893.56,-218.51 850.54,-205.13 818.2,-195.06"/>
<polygon fill="#63b8ff" stroke="#63b8ff" points="923.07,-231.36 933.66,-230.99 925.15,-224.68 923.07,-231.36"/>
</a>
</g>
</g>
<!-- Node13 -->
<g id="Node000013" class="node">
<title>Node13</title>
<g id="a_Node000013"><a xlink:href="async__toys_8hpp.html" target="_top" xlink:title="Small async helper operations used in tests and examples.">
<polygon fill="white" stroke="#666666" points="658,-189.5 566,-189.5 566,-170.5 658,-170.5 658,-189.5"/>
<text text-anchor="middle" x="612" y="-177.5" font-family="Helvetica,sans-Serif" font-size="10.00">async_toys.hpp</text>
</a>
</g>
</g>
<!-- Node10&#45;&gt;Node13 -->
<g id="edge21_Node000010_Node000013" class="edge">
<title>Node10&#45;&gt;Node13</title>
<g id="a_edge21_Node000010_Node000013"><a xlink:title=" ">
<path fill="none" stroke="#63b8ff" d="M917.89,-233.91C861.26,-226.33 758.8,-211.78 672,-195 663.7,-193.4 654.81,-191.45 646.49,-189.52"/>
<polygon fill="#63b8ff" stroke="#63b8ff" points="917.54,-237.39 927.92,-235.24 918.47,-230.46 917.54,-237.39"/>
</a>
</g>
</g>
<!-- Node10&#45;&gt;Node14 -->
<g id="edge34_Node000010_Node000014" class="edge">
<title>Node10&#45;&gt;Node14</title>
<g id="a_edge34_Node000010_Node000014"><a xlink:title=" ">
<path fill="none" stroke="#63b8ff" d="M917.5,-238.85C826.25,-236.82 618.24,-228.55 557,-195 529.04,-179.68 509.27,-145.43 501.13,-129.27"/>
<polygon fill="#63b8ff" stroke="#63b8ff" points="917.7,-242.35 927.77,-239.06 917.85,-235.36 917.7,-242.35"/>
</a>
</g>
</g>
<!-- Node17 -->
<g id="Node000017" class="node">
<title>Node17</title>
<g id="a_Node000017"><a xlink:href="awaiters_8hpp.html" target="_top" xlink:title="Utilities for awaiting on Async&lt;T&gt;: co_await overload, all(), try_await().">
<polygon fill="white" stroke="#666666" points="1242,-189.5 1162,-189.5 1162,-170.5 1242,-170.5 1242,-189.5"/>
<text text-anchor="middle" x="1202" y="-177.5" font-family="Helvetica,sans-Serif" font-size="10.00">awaiters.hpp</text>
</a>
</g>
</g>
<!-- Node10&#45;&gt;Node17 -->
<g id="edge26_Node000010_Node000017" class="edge">
<title>Node10&#45;&gt;Node17</title>
<g id="a_edge26_Node000010_Node000017"><a xlink:title=" ">
<path fill="none" stroke="#63b8ff" d="M1003.76,-229.12C1050.16,-217.86 1123.39,-200.08 1166.66,-189.58"/>
<polygon fill="#63b8ff" stroke="#63b8ff" points="1002.9,-225.73 994,-231.49 1004.55,-232.53 1002.9,-225.73"/>
</a>
</g>
</g>
<!-- Node18 -->
<g id="Node000018" class="node">
<title>Node18</title>
<g id="a_Node000018"><a xlink:href="bug_8cpp.html" target="_top" xlink:title=" ">
<polygon fill="white" stroke="#666666" points="904.5,-189.5 849.5,-189.5 849.5,-170.5 904.5,-170.5 904.5,-189.5"/>
<text text-anchor="middle" x="877" y="-177.5" font-family="Helvetica,sans-Serif" font-size="10.00">bug.cpp</text>
</a>
</g>
</g>
<!-- Node10&#45;&gt;Node18 -->
<g id="edge32_Node000010_Node000018" class="edge">
<title>Node10&#45;&gt;Node18</title>
<g id="a_edge32_Node000010_Node000018"><a xlink:title=" ">
<path fill="none" stroke="#63b8ff" d="M939.96,-224.85C924.05,-213.77 902.74,-198.93 889.45,-189.67"/>
<polygon fill="#63b8ff" stroke="#63b8ff" points="938.4,-228.03 948.61,-230.87 942.4,-222.28 938.4,-228.03"/>
</a>
</g>
</g>
<!-- Node19 -->
<g id="Node000019" class="node">
<title>Node19</title>
<g id="a_Node000019"><a xlink:href="future__value_8hpp.html" target="_top" xlink:title="Write&#45;once async wrappers (FutureValue and Defer) built on Async&lt;T&gt;.">
<polygon fill="white" stroke="#666666" points="509.5,-189.5 410.5,-189.5 410.5,-170.5 509.5,-170.5 509.5,-189.5"/>
<text text-anchor="middle" x="460" y="-177.5" font-family="Helvetica,sans-Serif" font-size="10.00">future_value.hpp</text>
</a>
</g>
</g>
<!-- Node10&#45;&gt;Node19 -->
<g id="edge35_Node000010_Node000019" class="edge">
<title>Node10&#45;&gt;Node19</title>
<g id="a_edge35_Node000010_Node000019"><a xlink:title=" ">
<path fill="none" stroke="#63b8ff" d="M917.93,-236.75C839.3,-231.36 667.42,-217.91 524,-195 514.79,-193.53 504.91,-191.56 495.74,-189.57"/>
<polygon fill="#63b8ff" stroke="#63b8ff" points="917.73,-240.24 927.94,-237.42 918.2,-233.26 917.73,-240.24"/>
</a>
</g>
</g>
<!-- Node20 -->
<g id="Node000020" class="node">
<title>Node20</title>
<g id="a_Node000020"><a xlink:href="reverse__value_8hpp.html" target="_top" xlink:title="Reverse&#45;mode gradient accumulation channel built on reverse epoch queues.">
<polygon fill="white" stroke="#666666" points="1029.5,-189.5 922.5,-189.5 922.5,-170.5 1029.5,-170.5 1029.5,-189.5"/>
<text text-anchor="middle" x="976" y="-177.5" font-family="Helvetica,sans-Serif" font-size="10.00">reverse_value.hpp</text>
</a>
</g>
</g>
<!-- Node10&#45;&gt;Node20 -->
<g id="edge37_Node000010_Node000020" class="edge">
<title>Node10&#45;&gt;Node20</title>
<g id="a_edge37_Node000010_Node000020"><a xlink:title=" ">
<path fill="none" stroke="#63b8ff" d="M965.75,-220.99C968.43,-210.51 971.67,-197.89 973.78,-189.67"/>
<polygon fill="#63b8ff" stroke="#63b8ff" points="962.31,-220.31 963.21,-230.87 969.09,-222.05 962.31,-220.31"/>
</a>
</g>
</g>
<!-- Node21 -->
<g id="Node000021" class="node">
<title>Node21</title>
<g id="a_Node000021"><a xlink:href="var_8hpp.html" target="_top" xlink:title=" ">
<polygon fill="white" stroke="#666666" points="712.5,-129 659.5,-129 659.5,-110 712.5,-110 712.5,-129"/>
<text text-anchor="middle" x="686" y="-117" font-family="Helvetica,sans-Serif" font-size="10.00">var.hpp</text>
</a>
</g>
</g>
<!-- Node10&#45;&gt;Node21 -->
<g id="edge41_Node000010_Node000021" class="edge">
<title>Node10&#45;&gt;Node21</title>
<g id="a_edge41_Node000010_Node000021"><a xlink:title=" ">
<path fill="none" stroke="#63b8ff" d="M917.62,-237.54C852.87,-233.71 735.27,-223.01 705,-195 686.29,-177.69 684.92,-144.74 685.43,-129.12"/>
<polygon fill="#63b8ff" stroke="#63b8ff" points="917.74,-241.05 927.92,-238.11 918.14,-234.06 917.74,-241.05"/>
</a>
</g>
</g>
<!-- Node13&#45;&gt;Node5 -->
<g id="edge22_Node000013_Node000005" class="edge">
<title>Node13&#45;&gt;Node5</title>
<g id="a_edge22_Node000013_Node000005"><a xlink:title=" ">
<path fill="none" stroke="#63b8ff" d="M668.31,-170.27C680.4,-168.47 693.12,-166.62 705,-165 811.63,-150.44 936.19,-135.65 1008.2,-127.32"/>
<polygon fill="#63b8ff" stroke="#63b8ff" points="667.69,-166.82 658.32,-171.77 668.73,-173.75 667.69,-166.82"/>
</a>
</g>
</g>
<!-- Node13&#45;&gt;Node14 -->
<g id="edge23_Node000013_Node000014" class="edge">
<title>Node13&#45;&gt;Node14</title>
<g id="a_edge23_Node000013_Node000014"><a xlink:title=" ">
<path fill="none" stroke="#63b8ff" d="M585.91,-165.73C563.89,-154.53 533.01,-138.82 514.04,-129.17"/>
<polygon fill="#63b8ff" stroke="#63b8ff" points="584.53,-168.95 595.03,-170.37 587.71,-162.71 584.53,-168.95"/>
</a>
</g>
</g>
<!-- Node15 -->
<g id="Node000015" class="node">
<title>Node15</title>
<g id="a_Node000015"><a xlink:href="var__toys_8hpp.html" target="_top" xlink:title="Demonstration reverse&#45;mode helpers built on Var&lt;T&gt;.">
<polygon fill="white" stroke="#666666" points="658,-74 578,-74 578,-55 658,-55 658,-74"/>
<text text-anchor="middle" x="618" y="-62" font-family="Helvetica,sans-Serif" font-size="10.00">var_toys.hpp</text>
</a>
</g>
</g>
<!-- Node13&#45;&gt;Node15 -->
<g id="edge24_Node000013_Node000015" class="edge">
<title>Node13&#45;&gt;Node15</title>
<g id="a_edge24_Node000013_Node000015"><a xlink:title=" ">
<path fill="none" stroke="#63b8ff" d="M613,-160.15C614.31,-135.24 616.58,-92.38 617.54,-74.13"/>
<polygon fill="#63b8ff" stroke="#63b8ff" points="609.48,-160.3 612.45,-170.47 616.47,-160.67 609.48,-160.3"/>
</a>
</g>
</g>
<!-- Node15&#45;&gt;Node16 -->
<g id="edge25_Node000015_Node000016" class="edge">
<title>Node15&#45;&gt;Node16</title>
<g id="a_edge25_Node000015_Node000016"><a xlink:title=" ">
<path fill="none" stroke="#63b8ff" d="M629.16,-46.1C634.97,-37.04 641.82,-26.37 646.49,-19.09"/>
<polygon fill="#63b8ff" stroke="#63b8ff" points="626.07,-44.44 623.61,-54.75 631.96,-48.22 626.07,-44.44"/>
</a>
</g>
</g>
<!-- Node17&#45;&gt;Node2 -->
<g id="edge27_Node000017_Node000002" class="edge">
<title>Node17&#45;&gt;Node2</title>
<g id="a_edge27_Node000017_Node000002"><a xlink:title=" ">
<path fill="none" stroke="#63b8ff" d="M1229.05,-166.13C1252.78,-154.85 1286.59,-138.77 1307.09,-129.02"/>
<polygon fill="#63b8ff" stroke="#63b8ff" points="1227.41,-163.04 1219.89,-170.49 1230.42,-169.36 1227.41,-163.04"/>
</a>
</g>
</g>
<!-- Node17&#45;&gt;Node4 -->
<g id="edge28_Node000017_Node000004" class="edge">
<title>Node17&#45;&gt;Node4</title>
<g id="a_edge28_Node000017_Node000004"><a xlink:title=" ">
<path fill="none" stroke="#63b8ff" d="M1202,-160.16C1202,-149.74 1202,-137.3 1202,-129.17"/>
<polygon fill="#63b8ff" stroke="#63b8ff" points="1198.5,-160.37 1202,-170.37 1205.5,-160.37 1198.5,-160.37"/>
</a>
</g>
</g>
<!-- Node17&#45;&gt;Node5 -->
<g id="edge29_Node000017_Node000005" class="edge">
<title>Node17&#45;&gt;Node5</title>
<g id="a_edge29_Node000017_Node000005"><a xlink:title=" ">
<path fill="none" stroke="#63b8ff" d="M1173.21,-166.43C1147.34,-155.14 1110.05,-138.86 1087.51,-129.02"/>
<polygon fill="#63b8ff" stroke="#63b8ff" points="1171.95,-169.7 1182.52,-170.49 1174.75,-163.28 1171.95,-169.7"/>
</a>
</g>
</g>
<!-- Node17&#45;&gt;Node8 -->
<g id="edge30_Node000017_Node000008" class="edge">
<title>Node17&#45;&gt;Node8</title>
<g id="a_edge30_Node000017_Node000008"><a xlink:title=" ">
<path fill="none" stroke="#63b8ff" d="M1195.53,-199.3C1186.45,-224.05 1168.69,-269.24 1148,-305 1140.39,-318.15 1129.6,-332.02 1122.46,-340.71"/>
<polygon fill="#63b8ff" stroke="#63b8ff" points="1198.88,-200.34 1198.98,-189.74 1192.29,-197.96 1198.88,-200.34"/>
</a>
</g>
</g>
<!-- Node17&#45;&gt;Node14 -->
<g id="edge31_Node000017_Node000014" class="edge">
<title>Node17&#45;&gt;Node14</title>
<g id="a_edge31_Node000017_Node000014"><a xlink:title=" ">
<path fill="none" stroke="#63b8ff" d="M1151.76,-174.67C1119.3,-171.88 1076.16,-168.2 1038,-165 861.68,-150.22 653,-133.19 554.26,-125.15"/>
<polygon fill="#63b8ff" stroke="#63b8ff" points="1151.64,-178.17 1161.9,-175.54 1152.24,-171.2 1151.64,-178.17"/>
</a>
</g>
</g>
<!-- Node19&#45;&gt;Node14 -->
<g id="edge36_Node000019_Node000014" class="edge">
<title>Node19&#45;&gt;Node14</title>
<g id="a_edge36_Node000019_Node000014"><a xlink:title=" ">
<path fill="none" stroke="#63b8ff" d="M470.88,-161.8C477.66,-151.08 486.1,-137.73 491.52,-129.17"/>
<polygon fill="#63b8ff" stroke="#63b8ff" points="467.85,-160.05 465.46,-170.37 473.76,-163.79 467.85,-160.05"/>
</a>
</g>
</g>
<!-- Node20&#45;&gt;Node21 -->
<g id="edge38_Node000020_Node000021" class="edge">
<title>Node20&#45;&gt;Node21</title>
<g id="a_edge38_Node000020_Node000021"><a xlink:title=" ">
<path fill="none" stroke="#63b8ff" d="M928.45,-168.3C923.24,-167.17 918.01,-166.05 913,-165 840.67,-149.88 755.05,-133.5 712.6,-125.49"/>
<polygon fill="#63b8ff" stroke="#63b8ff" points="927.87,-171.76 938.39,-170.48 929.37,-164.92 927.87,-171.76"/>
</a>
</g>
</g>
<!-- Node21&#45;&gt;Node15 -->
<g id="edge40_Node000021_Node000015" class="edge">
<title>Node21&#45;&gt;Node15</title>
<g id="a_edge40_Node000021_Node000015"><a xlink:title=" ">
<path fill="none" stroke="#63b8ff" d="M666.88,-103.6C654.7,-94.11 639.34,-82.13 629.12,-74.17"/>
<polygon fill="#63b8ff" stroke="#63b8ff" points="665.04,-106.6 675.07,-109.98 669.34,-101.08 665.04,-106.6"/>
</a>
</g>
</g>
<!-- Node21&#45;&gt;Node16 -->
<g id="edge39_Node000021_Node000016" class="edge">
<title>Node21&#45;&gt;Node16</title>
<g id="a_edge39_Node000021_Node000016"><a xlink:title=" ">
<path fill="none" stroke="#63b8ff" d="M680.65,-100.02C676.93,-87.32 671.8,-70.1 667,-55 663,-42.41 658.05,-27.94 654.96,-19"/>
<polygon fill="#63b8ff" stroke="#63b8ff" points="677.36,-101.22 683.51,-109.84 684.08,-99.26 677.36,-101.22"/>
</a>
</g>
</g>
</g>
</svg>

<g id="navigator" transform="translate(0 0)" fill="#404254">
  <rect fill="#f2f5e9" fill-opacity="0.5" stroke="#606060" stroke-width=".5" x="0" y="0" width="60" height="60"/>
  <use id="zoomplus" xlink:href="#zoomPlus" x="17" y="9" onmousedown="handleZoom(evt,'in')"/>
  <use id="zoomminus" xlink:href="#zoomMin" x="42" y="9" onmousedown="handleZoom(evt,'out')"/>
  <use id="reset" xlink:href="#resetDef" x="30" y="36" onmousedown="handleReset()"/>
   <use id="arrowup" xlink:href="#arrowUp" x="0" y="0" onmousedown="handlePan(0,-1)"/>
  <use id="arrowright" xlink:href="#arrowRight" x="0" y="0" onmousedown="handlePan(1,0)"/>
  <use id="arrowdown" xlink:href="#arrowDown" x="0" y="0" onmousedown="handlePan(0,1)"/>
  <use id="arrowleft" xlink:href="#arrowLeft" x="0" y="0" onmousedown="handlePan(-1,0)"/>
</g>
<svg viewBox="0 0 15 15" width="100%" height="30px" preserveAspectRatio="xMaxYMin meet">
 <g id="arrow_out" transform="scale(0.3 0.3)">
  <a xlink:href="debug__scheduler_8hpp__dep__incl_org.svg" target="_base">
   <rect id="button" ry="5" rx="5" y="6" x="6" height="38" width="38"
        fill="#f2f5e9" fill-opacity="0.5" stroke="#606060" stroke-width="1.0"/>
   <path id="arrow"
     d="M 11.500037,31.436501 C 11.940474,20.09759 22.043105,11.32322 32.158766,21.979434 L 37.068811,17.246167 C 37.068811,17.246167 37.088388,32 37.088388,32 L 22.160133,31.978069 C 22.160133,31.978069 26.997745,27.140456 26.997745,27.140456 C 18.528582,18.264221 13.291696,25.230495 11.500037,31.436501 z"
     style="fill:#404040;"/>
  </a>
 </g>
</svg>

<style type='text/css'>
<![CDATA[
[data-mouse-over-selected='false'] { opacity: 0.7; }
[data-mouse-over-selected='true']  { opacity: 1.0; }
]]>
</style>
<script type="application/ecmascript"><![CDATA[
document.addEventListener('DOMContentLoaded', (event) => {
  highlightEdges();
  highlightAdjacentNodes();
});
]]></script>
</svg>
