<?xml version="1.0" encoding="UTF-8" standalone="no"?>
<!DOCTYPE svg PUBLIC "-//W3C//DTD SVG 1.1//EN"
 "http://www.w3.org/Graphics/SVG/1.1/DTD/svg11.dtd">
<!-- Generated by graphviz version 2.43.0 (0)
 -->
<!-- Title: uni20 Pages: 1 -->
<svg width="452pt" height="369pt"
 viewBox="0.00 0.00 452.00 369.00" xmlns="http://www.w3.org/2000/svg" xmlns:xlink="http://www.w3.org/1999/xlink">
<g id="graph0" class="graph" transform="scale(1 1) rotate(0) translate(4 365)">
<title>uni20</title>
<g id="clust1" class="cluster">
<title>clusterdir_68267d1309a1af8e8297ef4c3efbcdba</title>
<g id="a_clust1"><a xlink:href="dir_68267d1309a1af8e8297ef4c3efbcdba.html" target="_top" xlink:title="src">
<polygon fill="#edf0f7" stroke="#404040" stroke-dasharray="5,2" points="8,-8 8,-353 436,-353 436,-8 8,-8"/>
<text text-anchor="middle" x="222" y="-341" font-family="Helvetica,sans-Serif" font-size="10.00">src</text>
</a>
</g>
</g>
<g id="clust2" class="cluster">
<title>clusterdir_6b2d6a429a67c7d5a6201ab98fb58a00</title>
<g id="a_clust2"><a xlink:href="dir_6b2d6a429a67c7d5a6201ab98fb58a00.html" target="_top">
<polygon fill="#edf0f7" stroke="#404040" stroke-width="2" points="16,-16 16,-326 428,-326 428,-16 16,-16"/>
</a>
</g>
</g>
<!-- dir_6b2d6a429a67c7d5a6201ab98fb58a00 -->
<g id="node1" class="node">
<title>dir_6b2d6a429a67c7d5a6201ab98fb58a00</title>
<text text-anchor="middle" x="376" y="-306" font-family="Helvetica,sans-Serif" font-size="10.00">uni20</text>
</g>
<!-- dir_c15308e82db84724b2054134acfc71b3 -->
<g id="node2" class="node">
<title>dir_c15308e82db84724b2054134acfc71b3</title>
<g id="a_node2"><a xlink:href="dir_c15308e82db84724b2054134acfc71b3.html" target="_top" xlink:title="async">
<polygon fill="#a2b4d6" stroke="#404040" points="359.5,-153 314.5,-153 314.5,-134 359.5,-134 359.5,-153"/>
<text text-anchor="middle" x="337" y="-141" font-family="Helvetica,sans-Serif" font-size="10.00">async</text>
</a>
</g>
</g>
<!-- dir_a84bf0270426bb9b5ffb5c9016f39fa5 -->
<g id="node4" class="node">
<title>dir_a84bf0270426bb9b5ffb5c9016f39fa5</title>
<g id="a_node4"><a xlink:href="dir_a84bf0270426bb9b5ffb5c9016f39fa5.html" target="_top" xlink:title="common">
<polygon fill="#a2b4d6" stroke="#404040" points="238.5,-98 179.5,-98 179.5,-79 238.5,-79 238.5,-98"/>
<text text-anchor="middle" x="209" y="-86" font-family="Helvetica,sans-Serif" font-size="10.00">common</text>
</a>
</g>
</g>
<!-- dir_c15308e82db84724b2054134acfc71b3&#45;&gt;dir_a84bf0270426bb9b5ffb5c9016f39fa5 -->
<g id="edge2" class="edge">
<title>dir_c15308e82db84724b2054134acfc71b3&#45;&gt;dir_a84bf0270426bb9b5ffb5c9016f39fa5</title>
<g id="a_edge2"><a xlink:href="dir_000002_000007.html" target="_top">
<path fill="none" stroke="#63b8ff" d="M316.43,-133.98C295.57,-125.34 263.03,-111.87 239.23,-102.02"/>
<polygon fill="#63b8ff" stroke="#63b8ff" points="240.52,-98.76 229.94,-98.17 237.84,-105.23 240.52,-98.76"/>
</a>
</g>
<g id="a_edge2&#45;headlabel"><a xlink:href="dir_000002_000007.html" target="_top" xlink:title="7">
<text text-anchor="middle" x="244.93" y="-95.01" font-family="Helvetica,sans-Serif" font-size="10.00" fill="#63b8ff">7</text>
</a>
</g>
</g>
<!-- dir_6177e6abdd7cca43de0ab94841650211 -->
<g id="node5" class="node">
<title>dir_6177e6abdd7cca43de0ab94841650211</title>
<g id="a_node5"><a xlink:href="dir_6177e6abdd7cca43de0ab94841650211.html" target="_top" xlink:title="core">
<polygon fill="#a2b4d6" stroke="#404040" points="316,-43 278,-43 278,-24 316,-24 316,-43"/>
<text text-anchor="middle" x="297" y="-31" font-family="Helvetica,sans-Serif" font-size="10.00">core</text>
</a>
</g>
</g>
<!-- dir_c15308e82db84724b2054134acfc71b3&#45;&gt;dir_6177e6abdd7cca43de0ab94841650211 -->
<g id="edge1" class="edge">
<title>dir_c15308e82db84724b2054134acfc71b3&#45;&gt;dir_6177e6abdd7cca43de0ab94841650211</title>
<g id="a_edge1"><a xlink:href="dir_000002_000008.html" target="_top">
<path fill="none" stroke="#63b8ff" d="M327.71,-133.97C319.36,-125.68 307.58,-112.28 302,-98 296.4,-83.66 295.41,-66.14 295.67,-53.13"/>
<polygon fill="#63b8ff" stroke="#63b8ff" points="299.17,-53.22 296.14,-43.06 292.18,-52.89 299.17,-53.22"/>
</a>
</g>
<g id="a_edge1&#45;headlabel"><a xlink:href="dir_000002_000008.html" target="_top" xlink:title="2">
<text text-anchor="middle" x="301.84" y="-54.44" font-family="Helvetica,sans-Serif" font-size="10.00" fill="#63b8ff">2</text>
</a>
</g>
</g>
<!-- dir_a8f184f3bdd68d4605d40e42331db75b -->
<g id="node3" class="node">
<title>dir_a8f184f3bdd68d4605d40e42331db75b</title>
<g id="a_node3"><a xlink:href="dir_a8f184f3bdd68d4605d40e42331db75b.html" target="_top" xlink:title="backend">
<polygon fill="#a2b4d6" stroke="#404040" points="141.5,-153 84.5,-153 84.5,-134 141.5,-134 141.5,-153"/>
<text text-anchor="middle" x="113" y="-141" font-family="Helvetica,sans-Serif" font-size="10.00">backend</text>
</a>
</g>
</g>
<!-- dir_a8f184f3bdd68d4605d40e42331db75b&#45;&gt;dir_a84bf0270426bb9b5ffb5c9016f39fa5 -->
<g id="edge3" class="edge">
<title>dir_a8f184f3bdd68d4605d40e42331db75b&#45;&gt;dir_a84bf0270426bb9b5ffb5c9016f39fa5</title>
<g id="a_edge3"><a xlink:href="dir_000003_000007.html" target="_top">
<path fill="none" stroke="#63b8ff" d="M128.42,-133.98C143.45,-125.69 166.54,-112.94 184.16,-103.22"/>
<polygon fill="#63b8ff" stroke="#63b8ff" points="186.23,-106.07 193.3,-98.17 182.85,-99.94 186.23,-106.07"/>
</a>
</g>
<g id="a_edge3&#45;headlabel"><a xlink:href="dir_000003_000007.html" target="_top" xlink:title="1">
<text text-anchor="middle" x="184.46" y="-107.79" font-family="Helvetica,sans-Serif" font-size="10.00" fill="#63b8ff">1</text>
</a>
</g>
</g>
<!-- dir_3e5ffa48a1325bc882a7d929f6adf956 -->
<g id="node12" class="node">
<title>dir_3e5ffa48a1325bc882a7d929f6adf956</title>
<g id="a_node12"><a xlink:href="dir_3e5ffa48a1325bc882a7d929f6adf956.html" target="_top" xlink:title="tags">
<polygon fill="#a2b4d6" stroke="#404040" points="84,-98 46,-98 46,-79 84,-79 84,-98"/>
<text text-anchor="middle" x="65" y="-86" font-family="Helvetica,sans-Serif" font-size="10.00">tags</text>
</a>
</g>
</g>
<!-- dir_a8f184f3bdd68d4605d40e42331db75b&#45;&gt;dir_3e5ffa48a1325bc882a7d929f6adf956 -->
<g id="edge4" class="edge">
<title>dir_a8f184f3bdd68d4605d40e42331db75b&#45;&gt;dir_3e5ffa48a1325bc882a7d929f6adf956</title>
<g id="a_edge4"><a xlink:href="dir_000003_000026.html" target="_top">
<path fill="none" stroke="#63b8ff" d="M105.07,-133.75C98.15,-126.11 87.93,-114.82 79.55,-105.56"/>
<polygon fill="#63b8ff" stroke="#63b8ff" points="82.09,-103.15 72.78,-98.09 76.9,-107.85 82.09,-103.15"/>
</a>
</g>
<g id="a_edge4&#45;headlabel"><a xlink:href="dir_000003_000026.html" target="_top" xlink:title="1">
<text text-anchor="middle" x="86.6" y="-101.41" font-family="Helvetica,sans-Serif" font-size="10.00" fill="#63b8ff">1</text>
</a>
</g>
</g>
<!-- dir_a84bf0270426bb9b5ffb5c9016f39fa5&#45;&gt;dir_6177e6abdd7cca43de0ab94841650211 -->
<g id="edge5" class="edge">
<title>dir_a84bf0270426bb9b5ffb5c9016f39fa5&#45;&gt;dir_6177e6abdd7cca43de0ab94841650211</title>
<g id="a_edge5"><a xlink:href="dir_000007_000008.html" target="_top">
<path fill="none" stroke="#63b8ff" d="M223.14,-78.98C236.79,-70.77 257.69,-58.18 273.78,-48.49"/>
<polygon fill="#63b8ff" stroke="#63b8ff" points="275.84,-51.33 282.6,-43.17 272.23,-45.33 275.84,-51.33"/>
</a>
</g>
<g id="a_edge5&#45;headlabel"><a xlink:href="dir_000007_000008.html" target="_top" xlink:title="2">
<text text-anchor="middle" x="274.23" y="-53.11" font-family="Helvetica,sans-Serif" font-size="10.00" fill="#63b8ff">2</text>
</a>
</g>
</g>
<!-- dir_9496463c5be3d700ee5694c7c80ac6d5 -->
<g id="node6" class="node">
<title>dir_9496463c5be3d700ee5694c7c80ac6d5</title>
<g id="a_node6"><a xlink:href="dir_9496463c5be3d700ee5694c7c80ac6d5.html" target="_top" xlink:title="expokit">
<polygon fill="#a2b4d6" stroke="#404040" points="379.5,-98 326.5,-98 326.5,-79 379.5,-79 379.5,-98"/>
<text text-anchor="middle" x="353" y="-86" font-family="Helvetica,sans-Serif" font-size="10.00">expokit</text>
</a>
</g>
</g>
<!-- dir_9496463c5be3d700ee5694c7c80ac6d5&#45;&gt;dir_6177e6abdd7cca43de0ab94841650211 -->
<g id="edge6" class="edge">
<title>dir_9496463c5be3d700ee5694c7c80ac6d5&#45;&gt;dir_6177e6abdd7cca43de0ab94841650211</title>
<g id="a_edge6"><a xlink:href="dir_000015_000008.html" target="_top">
<path fill="none" stroke="#63b8ff" d="M344,-78.98C335.81,-71.23 323.49,-59.58 313.53,-50.14"/>
<polygon fill="#63b8ff" stroke="#63b8ff" points="315.83,-47.5 306.16,-43.17 311.02,-52.59 315.83,-47.5"/>
</a>
</g>
<g id="a_edge6&#45;headlabel"><a xlink:href="dir_000015_000008.html" target="_top" xlink:title="1">
<text text-anchor="middle" x="320.39" y="-45.41" font-family="Helvetica,sans-Serif" font-size="10.00" fill="#63b8ff">1</text>
</a>
</g>
</g>
<!-- dir_0c962fd8ee21e5e6eb35e5fe620d04de -->
<g id="node7" class="node">
<title>dir_0c962fd8ee21e5e6eb35e5fe620d04de</title>
<g id="a_node7"><a xlink:href="dir_0c962fd8ee21e5e6eb35e5fe620d04de.html" target="_top" xlink:title="kernel">
<polygon fill="#a2b4d6" stroke="#404040" points="149.5,-208 102.5,-208 102.5,-189 149.5,-189 149.5,-208"/>
<text text-anchor="middle" x="126" y="-196" font-family="Helvetica,sans-Serif" font-size="10.00">kernel</text>
</a>
</g>
</g>
<!-- dir_0c962fd8ee21e5e6eb35e5fe620d04de&#45;&gt;dir_a8f184f3bdd68d4605d40e42331db75b -->
<g id="edge10" class="edge">
<title>dir_0c962fd8ee21e5e6eb35e5fe620d04de&#45;&gt;dir_a8f184f3bdd68d4605d40e42331db75b</title>
<g id="a_edge10"><a xlink:href="dir_000016_000003.html" target="_top">
<path fill="none" stroke="#63b8ff" d="M123.85,-188.75C122.13,-181.72 119.65,-171.62 117.5,-162.84"/>
<polygon fill="#63b8ff" stroke="#63b8ff" points="120.89,-161.97 115.11,-153.09 114.09,-163.63 120.89,-161.97"/>
</a>
</g>
<g id="a_edge10&#45;headlabel"><a xlink:href="dir_000016_000003.html" target="_top" xlink:title="1">
<text text-anchor="middle" x="124.5" y="-162.28" font-family="Helvetica,sans-Serif" font-size="10.00" fill="#63b8ff">1</text>
</a>
</g>
</g>
<!-- dir_0c962fd8ee21e5e6eb35e5fe620d04de&#45;&gt;dir_a84bf0270426bb9b5ffb5c9016f39fa5 -->
<g id="edge9" class="edge">
<title>dir_0c962fd8ee21e5e6eb35e5fe620d04de&#45;&gt;dir_a84bf0270426bb9b5ffb5c9016f39fa5</title>
<g id="a_edge9"><a xlink:href="dir_000016_000007.html" target="_top">
<path fill="none" stroke="#63b8ff" d="M132.79,-188.66C146.6,-170.69 178.15,-129.64 196.02,-106.38"/>
<polygon fill="#63b8ff" stroke="#63b8ff" points="199.03,-108.22 202.35,-98.16 193.48,-103.95 199.03,-108.22"/>
</a>
</g>
<g id="a_edge9&#45;headlabel"><a xlink:href="dir_000016_000007.html" target="_top" xlink:title="2">
<text text-anchor="middle" x="199.09" y="-110.3" font-family="Helvetica,sans-Serif" font-size="10.00" fill="#63b8ff">2</text>
</a>
</g>
</g>
<!-- dir_0c962fd8ee21e5e6eb35e5fe620d04de&#45;&gt;dir_6177e6abdd7cca43de0ab94841650211 -->
<g id="edge8" class="edge">
<title>dir_0c962fd8ee21e5e6eb35e5fe620d04de&#45;&gt;dir_6177e6abdd7cca43de0ab94841650211</title>
<g id="a_edge8"><a xlink:href="dir_000016_000008.html" target="_top">
<path fill="none" stroke="#63b8ff" d="M110.82,-188.92C77.54,-169.04 3.66,-118.53 37,-79 66.24,-44.32 205.93,-36.67 267.61,-34.98"/>
<polygon fill="#63b8ff" stroke="#63b8ff" points="267.92,-38.47 277.84,-34.73 267.75,-31.47 267.92,-38.47"/>
</a>
</g>
<g id="a_edge8&#45;headlabel"><a xlink:href="dir_000016_000008.html" target="_top" xlink:title="2">
<text text-anchor="middle" x="264.4" y="-38.9" font-family="Helvetica,sans-Serif" font-size="10.00" fill="#63b8ff">2</text>
</a>
</g>
</g>
<!-- dir_c6357fc1756dc2c2b1966f79e2cdbc2b -->
<g id="node10" class="node">
<title>dir_c6357fc1756dc2c2b1966f79e2cdbc2b</title>
<g id="a_node10"><a xlink:href="dir_c6357fc1756dc2c2b1966f79e2cdbc2b.html" target="_top" xlink:title="mdspan">
<polygon fill="#a2b4d6" stroke="#404040" points="276,-153 220,-153 220,-134 276,-134 276,-153"/>
<text text-anchor="middle" x="248" y="-141" font-family="Helvetica,sans-Serif" font-size="10.00">mdspan</text>
</a>
</g>
</g>
<!-- dir_0c962fd8ee21e5e6eb35e5fe620d04de&#45;&gt;dir_c6357fc1756dc2c2b1966f79e2cdbc2b -->
<g id="edge11" class="edge">
<title>dir_0c962fd8ee21e5e6eb35e5fe620d04de&#45;&gt;dir_c6357fc1756dc2c2b1966f79e2cdbc2b</title>
<g id="a_edge11"><a xlink:href="dir_000016_000020.html" target="_top">
<path fill="none" stroke="#63b8ff" d="M145.6,-188.98C165.32,-180.42 195.95,-167.11 218.58,-157.28"/>
<polygon fill="#63b8ff" stroke="#63b8ff" points="220.26,-160.37 228.04,-153.17 217.48,-153.94 220.26,-160.37"/>
</a>
</g>
<g id="a_edge11&#45;headlabel"><a xlink:href="dir_000016_000020.html" target="_top" xlink:title="2">
<text text-anchor="middle" x="218.1" y="-161.9" font-family="Helvetica,sans-Serif" font-size="10.00" fill="#63b8ff">2</text>
</a>
</g>
</g>
<!-- dir_0c962fd8ee21e5e6eb35e5fe620d04de&#45;&gt;dir_3e5ffa48a1325bc882a7d929f6adf956 -->
<g id="edge7" class="edge">
<title>dir_0c962fd8ee21e5e6eb35e5fe620d04de&#45;&gt;dir_3e5ffa48a1325bc882a7d929f6adf956</title>
<g id="a_edge7"><a xlink:href="dir_000016_000026.html" target="_top">
<path fill="none" stroke="#63b8ff" d="M111.74,-188.77C100.18,-180.89 84.47,-168.23 76,-153 68.43,-139.39 65.84,-121.8 65.05,-108.59"/>
<polygon fill="#63b8ff" stroke="#63b8ff" points="68.54,-108.2 64.74,-98.31 61.55,-108.41 68.54,-108.2"/>
</a>
</g>
<g id="a_edge7&#45;headlabel"><a xlink:href="dir_000016_000026.html" target="_top" xlink:title="2">
<text text-anchor="middle" x="71.49" y="-109.21" font-family="Helvetica,sans-Serif" font-size="10.00" fill="#63b8ff">2</text>
</a>
</g>
</g>
<!-- dir_4f7bc897f29d8a72ab66d6f733428925 -->
<g id="node8" class="node">
<title>dir_4f7bc897f29d8a72ab66d6f733428925</title>
<g id="a_node8"><a xlink:href="dir_4f7bc897f29d8a72ab66d6f733428925.html" target="_top" xlink:title="level1">
<polygon fill="#a2b4d6" stroke="#404040" points="250.5,-208 203.5,-208 203.5,-189 250.5,-189 250.5,-208"/>
<text text-anchor="middle" x="227" y="-196" font-family="Helvetica,sans-Serif" font-size="10.00">level1</text>
</a>
</g>
</g>
<!-- dir_4f7bc897f29d8a72ab66d6f733428925&#45;&gt;dir_a84bf0270426bb9b5ffb5c9016f39fa5 -->
<g id="edge13" class="edge">
<title>dir_4f7bc897f29d8a72ab66d6f733428925&#45;&gt;dir_a84bf0270426bb9b5ffb5c9016f39fa5</title>
<g id="a_edge13"><a xlink:href="dir_000018_000007.html" target="_top">
<path fill="none" stroke="#63b8ff" d="M222.97,-188.86C219.09,-180.06 213.46,-165.9 211,-153 208.19,-138.23 207.8,-121.19 208.06,-108.49"/>
<polygon fill="#63b8ff" stroke="#63b8ff" points="211.56,-108.34 208.42,-98.22 204.57,-108.09 211.56,-108.34"/>
</a>
</g>
<g id="a_edge13&#45;headlabel"><a xlink:href="dir_000018_000007.html" target="_top" xlink:title="4">
<text text-anchor="middle" x="214.27" y="-109.53" font-family="Helvetica,sans-Serif" font-size="10.00" fill="#63b8ff">4</text>
</a>
</g>
</g>
<!-- dir_4f7bc897f29d8a72ab66d6f733428925&#45;&gt;dir_6177e6abdd7cca43de0ab94841650211 -->
<g id="edge12" class="edge">
<title>dir_4f7bc897f29d8a72ab66d6f733428925&#45;&gt;dir_6177e6abdd7cca43de0ab94841650211</title>
<g id="a_edge12"><a xlink:href="dir_000018_000008.html" target="_top">
<path fill="none" stroke="#63b8ff" d="M250.66,-190.87C290.11,-179.71 365.4,-157.91 369,-153 393.99,-118.98 325.22,-107.74 318,-98 308.17,-84.74 302.78,-66.62 299.93,-53.13"/>
<polygon fill="#63b8ff" stroke="#63b8ff" points="303.34,-52.3 298.1,-43.09 296.45,-53.56 303.34,-52.3"/>
</a>
</g>
<g id="a_edge12&#45;headlabel"><a xlink:href="dir_000018_000008.html" target="_top" xlink:title="2">
<text text-anchor="middle" x="306.78" y="-52.82" font-family="Helvetica,sans-Serif" font-size="10.00" fill="#63b8ff">2</text>
</a>
</g>
</g>
<!-- dir_4f7bc897f29d8a72ab66d6f733428925&#45;&gt;dir_c6357fc1756dc2c2b1966f79e2cdbc2b -->
<g id="edge14" class="edge">
<title>dir_4f7bc897f29d8a72ab66d6f733428925&#45;&gt;dir_c6357fc1756dc2c2b1966f79e2cdbc2b</title>
<g id="a_edge14"><a xlink:href="dir_000018_000020.html" target="_top">
<path fill="none" stroke="#63b8ff" d="M230.47,-188.75C233.28,-181.65 237.34,-171.4 240.85,-162.56"/>
<polygon fill="#63b8ff" stroke="#63b8ff" points="244.17,-163.68 244.6,-153.09 237.66,-161.1 244.17,-163.68"/>
</a>
</g>
<g id="a_edge14&#45;headlabel"><a xlink:href="dir_000018_000020.html" target="_top" xlink:title="7">
<text text-anchor="middle" x="245.48" y="-165.56" font-family="Helvetica,sans-Serif" font-size="10.00" fill="#63b8ff">7</text>
</a>
</g>
</g>
<!-- dir_0d771c2be5d80590180887ce5c6ed059 -->
<g id="node9" class="node">
<title>dir_0d771c2be5d80590180887ce5c6ed059</title>
<g id="a_node9"><a xlink:href="dir_0d771c2be5d80590180887ce5c6ed059.html" target="_top" xlink:title="linalg">
<polygon fill="#a2b4d6" stroke="#404040" points="290,-318 246,-318 246,-299 290,-299 290,-318"/>
<text text-anchor="middle" x="268" y="-306" font-family="Helvetica,sans-Serif" font-size="10.00">linalg</text>
</a>
</g>
</g>
<!-- dir_0d771c2be5d80590180887ce5c6ed059&#45;&gt;dir_6177e6abdd7cca43de0ab94841650211 -->
<g id="edge17" class="edge">
<title>dir_0d771c2be5d80590180887ce5c6ed059&#45;&gt;dir_6177e6abdd7cca43de0ab94841650211</title>
<g id="a_edge17"><a xlink:href="dir_000019_000008.html" target="_top">
<path fill="none" stroke="#63b8ff" d="M290.28,-302.57C332.28,-291.81 419,-262.03 419,-199.5 419,-199.5 419,-199.5 419,-142.5 419,-112.33 415.63,-101.01 395,-79 376.47,-59.23 347.48,-47.57 325.83,-41.19"/>
<polygon fill="#63b8ff" stroke="#63b8ff" points="326.74,-37.81 316.17,-38.54 324.89,-44.56 326.74,-37.81"/>
</a>
</g>
<g id="a_edge17&#45;headlabel"><a xlink:href="dir_000019_000008.html" target="_top" xlink:title="2">
<text text-anchor="middle" x="330.96" y="-33.52" font-family="Helvetica,sans-Serif" font-size="10.00" fill="#63b8ff">2</text>
</a>
</g>
</g>
<!-- dir_658742696999059171b98f2e4ad14b31 -->
<g id="node11" class="node">
<title>dir_658742696999059171b98f2e4ad14b31</title>
<g id="a_node11"><a xlink:href="dir_658742696999059171b98f2e4ad14b31.html" target="_top" xlink:title="storage">
<polygon fill="#a2b4d6" stroke="#404040" points="272.5,-263 219.5,-263 219.5,-244 272.5,-244 272.5,-263"/>
<text text-anchor="middle" x="246" y="-251" font-family="Helvetica,sans-Serif" font-size="10.00">storage</text>
</a>
</g>
</g>
<!-- dir_0d771c2be5d80590180887ce5c6ed059&#45;&gt;dir_658742696999059171b98f2e4ad14b31 -->
<g id="edge18" class="edge">
<title>dir_0d771c2be5d80590180887ce5c6ed059&#45;&gt;dir_658742696999059171b98f2e4ad14b31</title>
<g id="a_edge18"><a xlink:href="dir_000019_000025.html" target="_top">
<path fill="none" stroke="#63b8ff" d="M264.37,-298.75C261.42,-291.65 257.17,-281.4 253.49,-272.56"/>
<polygon fill="#63b8ff" stroke="#63b8ff" points="256.63,-270.98 249.57,-263.09 250.17,-273.67 256.63,-270.98"/>
</a>
</g>
<g id="a_edge18&#45;headlabel"><a xlink:href="dir_000019_000025.html" target="_top" xlink:title="1">
<text text-anchor="middle" x="260.63" y="-270.71" font-family="Helvetica,sans-Serif" font-size="10.00" fill="#63b8ff">1</text>
</a>
</g>
</g>
<!-- dir_0d771c2be5d80590180887ce5c6ed059&#45;&gt;dir_3e5ffa48a1325bc882a7d929f6adf956 -->
<g id="edge16" class="edge">
<title>dir_0d771c2be5d80590180887ce5c6ed059&#45;&gt;dir_3e5ffa48a1325bc882a7d929f6adf956</title>
<g id="a_edge16"><a xlink:href="dir_000019_000026.html" target="_top">
<path fill="none" stroke="#63b8ff" d="M245.89,-299.58C210.07,-285.81 138.86,-254.42 94,-208 74.8,-188.13 71.64,-179.82 65,-153 61.39,-138.42 61.62,-121.36 62.63,-108.6"/>
<polygon fill="#63b8ff" stroke="#63b8ff" points="66.15,-108.59 63.69,-98.29 59.19,-107.88 66.15,-108.59"/>
</a>
</g>
<g id="a_edge16&#45;headlabel"><a xlink:href="dir_000019_000026.html" target="_top" xlink:title="4">
<text text-anchor="middle" x="68.61" y="-109.96" font-family="Helvetica,sans-Serif" font-size="10.00" fill="#63b8ff">4</text>
</a>
</g>
</g>
<!-- dir_3108c82f9a46a1503195562eda976440 -->
<g id="node13" class="node">
<title>dir_3108c82f9a46a1503195562eda976440</title>
<g id="a_node13"><a xlink:href="dir_3108c82f9a46a1503195562eda976440.html" target="_top" xlink:title="tensor">
<polygon fill="#a2b4d6" stroke="#404040" points="315.5,-208 268.5,-208 268.5,-189 315.5,-189 315.5,-208"/>
<text text-anchor="middle" x="292" y="-196" font-family="Helvetica,sans-Serif" font-size="10.00">tensor</text>
</a>
</g>
</g>
<!-- dir_0d771c2be5d80590180887ce5c6ed059&#45;&gt;dir_3108c82f9a46a1503195562eda976440 -->
<g id="edge15" class="edge">
<title>dir_0d771c2be5d80590180887ce5c6ed059&#45;&gt;dir_3108c82f9a46a1503195562eda976440</title>
<g id="a_edge15"><a xlink:href="dir_000019_000027.html" target="_top">
<path fill="none" stroke="#63b8ff" d="M271.18,-298.74C274.31,-289.84 279.04,-275.62 282,-263 285.47,-248.19 288.08,-231.16 289.76,-218.46"/>
<polygon fill="#63b8ff" stroke="#63b8ff" points="293.28,-218.56 291.04,-208.21 286.33,-217.7 293.28,-218.56"/>
</a>
</g>
<g id="a_edge15&#45;headlabel"><a xlink:href="dir_000019_000027.html" target="_top" xlink:title="3">
<text text-anchor="middle" x="295.65" y="-219.98" font-family="Helvetica,sans-Serif" font-size="10.00" fill="#63b8ff">3</text>
</a>
</g>
</g>
<!-- dir_c6357fc1756dc2c2b1966f79e2cdbc2b&#45;&gt;dir_a84bf0270426bb9b5ffb5c9016f39fa5 -->
<g id="edge20" class="edge">
<title>dir_c6357fc1756dc2c2b1966f79e2cdbc2b&#45;&gt;dir_a84bf0270426bb9b5ffb5c9016f39fa5</title>
<g id="a_edge20"><a xlink:href="dir_000020_000007.html" target="_top">
<path fill="none" stroke="#63b8ff" d="M241.56,-133.75C236.11,-126.34 228.14,-115.5 221.44,-106.41"/>
<polygon fill="#63b8ff" stroke="#63b8ff" points="224.07,-104.07 215.32,-98.09 218.43,-108.22 224.07,-104.07"/>
</a>
</g>
<g id="a_edge20&#45;headlabel"><a xlink:href="dir_000020_000007.html" target="_top" xlink:title="7">
<text text-anchor="middle" x="228.48" y="-102.78" font-family="Helvetica,sans-Serif" font-size="10.00" fill="#63b8ff">7</text>
</a>
</g>
</g>
<!-- dir_c6357fc1756dc2c2b1966f79e2cdbc2b&#45;&gt;dir_6177e6abdd7cca43de0ab94841650211 -->
<g id="edge19" class="edge">
<title>dir_c6357fc1756dc2c2b1966f79e2cdbc2b&#45;&gt;dir_6177e6abdd7cca43de0ab94841650211</title>
<g id="a_edge19"><a xlink:href="dir_000020_000008.html" target="_top">
<path fill="none" stroke="#63b8ff" d="M252.01,-133.66C260.05,-115.93 278.3,-75.73 288.92,-52.32"/>
<polygon fill="#63b8ff" stroke="#63b8ff" points="292.13,-53.71 293.07,-43.16 285.75,-50.82 292.13,-53.71"/>
</a>
</g>
<g id="a_edge19&#45;headlabel"><a xlink:href="dir_000020_000008.html" target="_top" xlink:title="1">
<text text-anchor="middle" x="293.23" y="-55.66" font-family="Helvetica,sans-Serif" font-size="10.00" fill="#63b8ff">1</text>
</a>
</g>
</g>
<!-- dir_658742696999059171b98f2e4ad14b31&#45;&gt;dir_a84bf0270426bb9b5ffb5c9016f39fa5 -->
<g id="edge23" class="edge">
<title>dir_658742696999059171b98f2e4ad14b31&#45;&gt;dir_a84bf0270426bb9b5ffb5c9016f39fa5</title>
<g id="a_edge23"><a xlink:href="dir_000025_000007.html" target="_top">
<path fill="none" stroke="#63b8ff" d="M230.27,-243.88C218.12,-236.23 202.2,-223.83 195,-208 179.98,-174.96 192.07,-131.66 201.2,-107.6"/>
<polygon fill="#63b8ff" stroke="#63b8ff" points="204.58,-108.59 205.08,-98.01 198.09,-105.97 204.58,-108.59"/>
</a>
</g>
<g id="a_edge23&#45;headlabel"><a xlink:href="dir_000025_000007.html" target="_top" xlink:title="1">
<text text-anchor="middle" x="205.86" y="-110.49" font-family="Helvetica,sans-Serif" font-size="10.00" fill="#63b8ff">1</text>
</a>
</g>
</g>
<!-- dir_658742696999059171b98f2e4ad14b31&#45;&gt;dir_0c962fd8ee21e5e6eb35e5fe620d04de -->
<g id="edge21" class="edge">
<title>dir_658742696999059171b98f2e4ad14b31&#45;&gt;dir_0c962fd8ee21e5e6eb35e5fe620d04de</title>
<g id="a_edge21"><a xlink:href="dir_000025_000016.html" target="_top">
<path fill="none" stroke="#63b8ff" d="M226.72,-243.98C207.33,-235.42 177.19,-222.11 154.93,-212.28"/>
<polygon fill="#63b8ff" stroke="#63b8ff" points="156.19,-209.01 145.63,-208.17 153.36,-215.41 156.19,-209.01"/>
</a>
</g>
<g id="a_edge21&#45;headlabel"><a xlink:href="dir_000025_000016.html" target="_top" xlink:title="1">
<text text-anchor="middle" x="160.63" y="-205.36" font-family="Helvetica,sans-Serif" font-size="10.00" fill="#63b8ff">1</text>
</a>
</g>
</g>
<!-- dir_658742696999059171b98f2e4ad14b31&#45;&gt;dir_3108c82f9a46a1503195562eda976440 -->
<g id="edge22" class="edge">
<title>dir_658742696999059171b98f2e4ad14b31&#45;&gt;dir_3108c82f9a46a1503195562eda976440</title>
<g id="a_edge22"><a xlink:href="dir_000025_000027.html" target="_top">
<path fill="none" stroke="#63b8ff" d="M248.43,-243.75C253.47,-236.03 263.04,-224.6 272.07,-215.28"/>
<polygon fill="#63b8ff" stroke="#63b8ff" points="274.72,-217.59 279.41,-208.09 269.82,-212.59 274.72,-217.59"/>
</a>
</g>
<g id="a_edge22&#45;headlabel"><a xlink:href="dir_000025_000027.html" target="_top" xlink:title="1">
<text text-anchor="middle" x="274.14" y="-219.63" font-family="Helvetica,sans-Serif" font-size="10.00" fill="#63b8ff">1</text>
</a>
</g>
</g>
<!-- dir_3108c82f9a46a1503195562eda976440&#45;&gt;dir_a84bf0270426bb9b5ffb5c9016f39fa5 -->
<g id="edge26" class="edge">
<title>dir_3108c82f9a46a1503195562eda976440&#45;&gt;dir_a84bf0270426bb9b5ffb5c9016f39fa5</title>
<g id="a_edge26"><a xlink:href="dir_000027_000007.html" target="_top">
<path fill="none" stroke="#63b8ff" d="M293.34,-188.89C294.89,-175.89 295.99,-150.93 285,-134 275.65,-119.58 259.86,-109.25 245.09,-102.19"/>
<polygon fill="#63b8ff" stroke="#63b8ff" points="246.17,-98.84 235.61,-98.02 243.35,-105.25 246.17,-98.84"/>
</a>
</g>
<g id="a_edge26&#45;headlabel"><a xlink:href="dir_000027_000007.html" target="_top" xlink:title="2">
<text text-anchor="middle" x="250.61" y="-95.19" font-family="Helvetica,sans-Serif" font-size="10.00" fill="#63b8ff">2</text>
</a>
</g>
</g>
<!-- dir_3108c82f9a46a1503195562eda976440&#45;&gt;dir_6177e6abdd7cca43de0ab94841650211 -->
<g id="edge24" class="edge">
<title>dir_3108c82f9a46a1503195562eda976440&#45;&gt;dir_6177e6abdd7cca43de0ab94841650211</title>
<g id="a_edge24"><a xlink:href="dir_000027_000008.html" target="_top">
<path fill="none" stroke="#63b8ff" d="M315.52,-192.96C337.14,-187.45 368.15,-175.9 384,-153 397.97,-132.82 387.89,-122.52 389,-98 389.38,-89.56 393.49,-86.15 389,-79 375.31,-57.17 347.54,-45.79 326.08,-40.02"/>
<polygon fill="#63b8ff" stroke="#63b8ff" points="326.68,-36.57 316.13,-37.62 325.03,-43.37 326.68,-36.57"/>
</a>
</g>
<g id="a_edge24&#45;headlabel"><a xlink:href="dir_000027_000008.html" target="_top" xlink:title="1">
<text text-anchor="middle" x="330.84" y="-32.15" font-family="Helvetica,sans-Serif" font-size="10.00" fill="#63b8ff">1</text>
</a>
</g>
</g>
<!-- dir_3108c82f9a46a1503195562eda976440&#45;&gt;dir_c6357fc1756dc2c2b1966f79e2cdbc2b -->
<g id="edge27" class="edge">
<title>dir_3108c82f9a46a1503195562eda976440&#45;&gt;dir_c6357fc1756dc2c2b1966f79e2cdbc2b</title>
<g id="a_edge27"><a xlink:href="dir_000027_000020.html" target="_top">
<path fill="none" stroke="#63b8ff" d="M284.73,-188.75C278.46,-181.18 269.21,-170.05 261.57,-160.84"/>
<polygon fill="#63b8ff" stroke="#63b8ff" points="264.21,-158.55 255.13,-153.09 258.83,-163.02 264.21,-158.55"/>
</a>
</g>
<g id="a_edge27&#45;headlabel"><a xlink:href="dir_000027_000020.html" target="_top" xlink:title="1">
<text text-anchor="middle" x="268.69" y="-157" font-family="Helvetica,sans-Serif" font-size="10.00" fill="#63b8ff">1</text>
</a>
</g>
</g>
<!-- dir_3108c82f9a46a1503195562eda976440&#45;&gt;dir_658742696999059171b98f2e4ad14b31 -->
<g id="edge25" class="edge">
<title>dir_3108c82f9a46a1503195562eda976440&#45;&gt;dir_658742696999059171b98f2e4ad14b31</title>
<g id="a_edge25"><a xlink:href="dir_000027_000025.html" target="_top">
<path fill="none" stroke="#63b8ff" d="M289.62,-208.17C284.59,-215.9 274.96,-227.41 265.89,-236.76"/>
<polygon fill="#63b8ff" stroke="#63b8ff" points="263.21,-234.49 258.51,-243.98 268.1,-239.49 263.21,-234.49"/>
</a>
</g>
<g id="a_edge25&#45;headlabel"><a xlink:href="dir_000027_000025.html" target="_top" xlink:title="1">
<text text-anchor="middle" x="263.79" y="-227.45" font-family="Helvetica,sans-Serif" font-size="10.00" fill="#63b8ff">1</text>
</a>
</g>
</g>
</g>
</svg>
