<?xml version="1.0" encoding="UTF-8" standalone="no"?>
<!DOCTYPE svg PUBLIC "-//W3C//DTD SVG 1.1//EN"
 "http://www.w3.org/Graphics/SVG/1.1/DTD/svg11.dtd">
<!-- Generated by graphviz version 2.43.0 (0)
 -->
<!-- Title: kernel Pages: 1 -->
<svg width="291pt" height="196pt"
 viewBox="0.00 0.00 291.00 196.00" xmlns="http://www.w3.org/2000/svg" xmlns:xlink="http://www.w3.org/1999/xlink">
<g id="graph0" class="graph" transform="scale(1 1) rotate(0) translate(4 192)">
<title>kernel</title>
<g id="clust1" class="cluster">
<title>clusterdir_6b2d6a429a67c7d5a6201ab98fb58a00</title>
<g id="a_clust1"><a xlink:href="dir_6b2d6a429a67c7d5a6201ab98fb58a00.html" target="_top" xlink:title="uni20">
<polygon fill="#edf0f7" stroke="#7f7f7f" stroke-dasharray="5,2" points="8,-8 8,-180 275,-180 275,-8 8,-8"/>
<text text-anchor="middle" x="141.5" y="-168" font-family="Helvetica,sans-Serif" font-size="10.00">uni20</text>
</a>
</g>
</g>
<g id="clust2" class="cluster">
<title>clusterdir_0c962fd8ee21e5e6eb35e5fe620d04de</title>
<g id="a_clust2"><a xlink:href="dir_0c962fd8ee21e5e6eb35e5fe620d04de.html" target="_top">
<polygon fill="#edf0f7" stroke="#404040" stroke-width="2" points="82,-63 82,-153 201,-153 201,-63 82,-63"/>
</a>
</g>
</g>
<!-- dir_3e5ffa48a1325bc882a7d929f6adf956 -->
<g id="node1" class="node">
<title>dir_3e5ffa48a1325bc882a7d929f6adf956</title>
<g id="a_node1"><a xlink:href="dir_3e5ffa48a1325bc882a7d929f6adf956.html" target="_top" xlink:title="tags">
<polygon fill="#a2b4d6" stroke="#404040" points="206,-35 168,-35 168,-16 206,-16 206,-35"/>
<text text-anchor="middle" x="187" y="-23" font-family="Helvetica,sans-Serif" font-size="10.00">tags</text>
</a>
</g>
</g>
<!-- dir_6177e6abdd7cca43de0ab94841650211 -->
<g id="node2" class="node">
<title>dir_6177e6abdd7cca43de0ab94841650211</title>
<g id="a_node2"><a xlink:href="dir_6177e6abdd7cca43de0ab94841650211.html" target="_top" xlink:title="core">
<polygon fill="#a2b4d6" stroke="#404040" points="74,-90 36,-90 36,-71 74,-71 74,-90"/>
<text text-anchor="middle" x="55" y="-78" font-family="Helvetica,sans-Serif" font-size="10.00">core</text>
</a>
</g>
</g>
<!-- dir_a84bf0270426bb9b5ffb5c9016f39fa5 -->
<g id="node3" class="node">
<title>dir_a84bf0270426bb9b5ffb5c9016f39fa5</title>
<g id="a_node3"><a xlink:href="dir_a84bf0270426bb9b5ffb5c9016f39fa5.html" target="_top" xlink:title="common">
<polygon fill="#a2b4d6" stroke="#404040" points="75.5,-35 16.5,-35 16.5,-16 75.5,-16 75.5,-35"/>
<text text-anchor="middle" x="46" y="-23" font-family="Helvetica,sans-Serif" font-size="10.00">common</text>
</a>
</g>
</g>
<!-- dir_a8f184f3bdd68d4605d40e42331db75b -->
<g id="node4" class="node">
<title>dir_a8f184f3bdd68d4605d40e42331db75b</title>
<g id="a_node4"><a xlink:href="dir_a8f184f3bdd68d4605d40e42331db75b.html" target="_top" xlink:title="backend">
<polygon fill="#a2b4d6" stroke="red" points="266.5,-90 209.5,-90 209.5,-71 266.5,-71 266.5,-90"/>
<text text-anchor="middle" x="238" y="-78" font-family="Helvetica,sans-Serif" font-size="10.00">backend</text>
</a>
</g>
</g>
<!-- dir_c6357fc1756dc2c2b1966f79e2cdbc2b -->
<g id="node5" class="node">
<title>dir_c6357fc1756dc2c2b1966f79e2cdbc2b</title>
<g id="a_node5"><a xlink:href="dir_c6357fc1756dc2c2b1966f79e2cdbc2b.html" target="_top" xlink:title="mdspan">
<polygon fill="#a2b4d6" stroke="#404040" points="150,-35 94,-35 94,-16 150,-16 150,-35"/>
<text text-anchor="middle" x="122" y="-23" font-family="Helvetica,sans-Serif" font-size="10.00">mdspan</text>
</a>
</g>
</g>
<!-- dir_0c962fd8ee21e5e6eb35e5fe620d04de -->
<g id="node6" class="node">
<title>dir_0c962fd8ee21e5e6eb35e5fe620d04de</title>
<text text-anchor="middle" x="114" y="-133" font-family="Helvetica,sans-Serif" font-size="10.00">kernel</text>
</g>
<!-- dir_0c962fd8ee21e5e6eb35e5fe620d04de&#45;&gt;dir_6177e6abdd7cca43de0ab94841650211 -->
<g id="edge1" class="edge">
<title>dir_0c962fd8ee21e5e6eb35e5fe620d04de&#45;&gt;dir_6177e6abdd7cca43de0ab94841650211</title>
<g id="a_edge1"><a xlink:href="dir_000016_000008.html" target="_top">
<path fill="none" stroke="#63b8ff" d="M104.52,-125.98C95.8,-118.15 82.66,-106.34 72.1,-96.86"/>
<polygon fill="#63b8ff" stroke="#63b8ff" points="74.43,-94.25 64.65,-90.17 69.75,-99.46 74.43,-94.25"/>
</a>
</g>
<g id="a_edge1&#45;headlabel"><a xlink:href="dir_000016_000008.html" target="_top" xlink:title="2">
<text text-anchor="middle" x="79" y="-92.04" font-family="Helvetica,sans-Serif" font-size="10.00" fill="#63b8ff">2</text>
</a>
</g>
</g>
<!-- dir_0c962fd8ee21e5e6eb35e5fe620d04de&#45;&gt;dir_a84bf0270426bb9b5ffb5c9016f39fa5 -->
<g id="edge2" class="edge">
<title>dir_0c962fd8ee21e5e6eb35e5fe620d04de&#45;&gt;dir_a84bf0270426bb9b5ffb5c9016f39fa5</title>
<g id="a_edge2"><a xlink:href="dir_000016_000007.html" target="_top">
<path fill="none" stroke="#63b8ff" d="M90.47,-129.66C69.72,-124.01 40.72,-112.43 27,-90 18.3,-75.78 25.53,-57.32 33.44,-43.98"/>
<polygon fill="#63b8ff" stroke="#63b8ff" points="36.58,-45.58 39.11,-35.29 30.72,-41.76 36.58,-45.58"/>
</a>
</g>
<g id="a_edge2&#45;headlabel"><a xlink:href="dir_000016_000007.html" target="_top" xlink:title="2">
<text text-anchor="middle" x="36.99" y="-47.64" font-family="Helvetica,sans-Serif" font-size="10.00" fill="#63b8ff">2</text>
</a>
</g>
</g>
<!-- dir_0c962fd8ee21e5e6eb35e5fe620d04de&#45;&gt;dir_c6357fc1756dc2c2b1966f79e2cdbc2b -->
<g id="edge3" class="edge">
<title>dir_0c962fd8ee21e5e6eb35e5fe620d04de&#45;&gt;dir_c6357fc1756dc2c2b1966f79e2cdbc2b</title>
<g id="a_edge3"><a xlink:href="dir_000016_000020.html" target="_top">
<path fill="none" stroke="#63b8ff" d="M120.89,-125.93C127.27,-117.4 136.31,-103.65 140,-90 143.14,-78.42 142.72,-74.69 140,-63 138.48,-56.48 135.62,-49.78 132.61,-43.93"/>
<polygon fill="#63b8ff" stroke="#63b8ff" points="135.59,-42.08 127.64,-35.07 129.48,-45.5 135.59,-42.08"/>
</a>
</g>
<g id="a_edge3&#45;headlabel"><a xlink:href="dir_000016_000020.html" target="_top" xlink:title="2">
<text text-anchor="middle" x="139.82" y="-41.32" font-family="Helvetica,sans-Serif" font-size="10.00" fill="#63b8ff">2</text>
</a>
</g>
</g>
<!-- dir_ed56e632fe828d43534bcd4d47ab9118 -->
<g id="node8" class="node">
<title>dir_ed56e632fe828d43534bcd4d47ab9118</title>
<g id="a_node8"><a xlink:href="dir_ed56e632fe828d43534bcd4d47ab9118.html" target="_top" xlink:title="cpu">
<polygon fill="#a2b4d6" stroke="#404040" points="131,-90 97,-90 97,-71 131,-71 131,-90"/>
<text text-anchor="middle" x="114" y="-78" font-family="Helvetica,sans-Serif" font-size="10.00">cpu</text>
</a>
</g>
</g>
<!-- dir_0c962fd8ee21e5e6eb35e5fe620d04de&#45;&gt;dir_ed56e632fe828d43534bcd4d47ab9118 -->
<g id="edge4" class="edge">
<title>dir_0c962fd8ee21e5e6eb35e5fe620d04de&#45;&gt;dir_ed56e632fe828d43534bcd4d47ab9118</title>
<g id="a_edge4"><a xlink:href="dir_000016_000009.html" target="_top">
<path fill="none" stroke="#63b8ff" d="M114,-125.75C114,-118.8 114,-108.85 114,-100.13"/>
<polygon fill="#63b8ff" stroke="#63b8ff" points="117.5,-100.09 114,-90.09 110.5,-100.09 117.5,-100.09"/>
</a>
</g>
<g id="a_edge4&#45;headlabel"><a xlink:href="dir_000016_000009.html" target="_top" xlink:title="2">
<text text-anchor="middle" x="120.34" y="-101.18" font-family="Helvetica,sans-Serif" font-size="10.00" fill="#63b8ff">2</text>
</a>
</g>
</g>
<!-- dir_73ed8d8d8c46bbb376b74271eac642d2 -->
<g id="node7" class="node">
<title>dir_73ed8d8d8c46bbb376b74271eac642d2</title>
<g id="a_node7"><a xlink:href="dir_73ed8d8d8c46bbb376b74271eac642d2.html" target="_top" xlink:title="blas">
<polygon fill="#a2b4d6" stroke="#404040" points="192.5,-145 155.5,-145 155.5,-126 192.5,-126 192.5,-145"/>
<text text-anchor="middle" x="174" y="-133" font-family="Helvetica,sans-Serif" font-size="10.00">blas</text>
</a>
</g>
</g>
<!-- dir_73ed8d8d8c46bbb376b74271eac642d2&#45;&gt;dir_3e5ffa48a1325bc882a7d929f6adf956 -->
<g id="edge5" class="edge">
<title>dir_73ed8d8d8c46bbb376b74271eac642d2&#45;&gt;dir_3e5ffa48a1325bc882a7d929f6adf956</title>
<g id="a_edge5"><a xlink:href="dir_000006_000026.html" target="_top">
<path fill="none" stroke="#63b8ff" d="M175.06,-125.66C177.17,-108.17 181.91,-68.8 184.74,-45.27"/>
<polygon fill="#63b8ff" stroke="#63b8ff" points="188.24,-45.51 185.96,-35.16 181.29,-44.67 188.24,-45.51"/>
</a>
</g>
<g id="a_edge5&#45;headlabel"><a xlink:href="dir_000006_000026.html" target="_top" xlink:title="1">
<text text-anchor="middle" x="190.63" y="-46.91" font-family="Helvetica,sans-Serif" font-size="10.00" fill="#63b8ff">1</text>
</a>
</g>
</g>
<!-- dir_73ed8d8d8c46bbb376b74271eac642d2&#45;&gt;dir_6177e6abdd7cca43de0ab94841650211 -->
<g id="edge6" class="edge">
<title>dir_73ed8d8d8c46bbb376b74271eac642d2&#45;&gt;dir_6177e6abdd7cca43de0ab94841650211</title>
<g id="a_edge6"><a xlink:href="dir_000006_000008.html" target="_top">
<path fill="none" stroke="#63b8ff" d="M155.41,-126.22C136.16,-117.65 105.85,-104.15 83.56,-94.22"/>
<polygon fill="#63b8ff" stroke="#63b8ff" points="84.81,-90.95 74.25,-90.07 81.96,-97.34 84.81,-90.95"/>
</a>
</g>
<g id="a_edge6&#45;headlabel"><a xlink:href="dir_000006_000008.html" target="_top" xlink:title="1">
<text text-anchor="middle" x="89.25" y="-87.31" font-family="Helvetica,sans-Serif" font-size="10.00" fill="#63b8ff">1</text>
</a>
</g>
</g>
<!-- dir_73ed8d8d8c46bbb376b74271eac642d2&#45;&gt;dir_a8f184f3bdd68d4605d40e42331db75b -->
<g id="edge7" class="edge">
<title>dir_73ed8d8d8c46bbb376b74271eac642d2&#45;&gt;dir_a8f184f3bdd68d4605d40e42331db75b</title>
<g id="a_edge7"><a xlink:href="dir_000006_000003.html" target="_top">
<path fill="none" stroke="#63b8ff" d="M184.28,-125.98C193.84,-118.07 208.28,-106.11 219.78,-96.58"/>
<polygon fill="#63b8ff" stroke="#63b8ff" points="222.06,-99.24 227.53,-90.17 217.6,-93.85 222.06,-99.24"/>
</a>
</g>
<g id="a_edge7&#45;headlabel"><a xlink:href="dir_000006_000003.html" target="_top" xlink:title="1">
<text text-anchor="middle" x="221.1" y="-101.22" font-family="Helvetica,sans-Serif" font-size="10.00" fill="#63b8ff">1</text>
</a>
</g>
</g>
<!-- dir_73ed8d8d8c46bbb376b74271eac642d2&#45;&gt;dir_ed56e632fe828d43534bcd4d47ab9118 -->
<g id="edge8" class="edge">
<title>dir_73ed8d8d8c46bbb376b74271eac642d2&#45;&gt;dir_ed56e632fe828d43534bcd4d47ab9118</title>
<g id="a_edge8"><a xlink:href="dir_000006_000009.html" target="_top">
<path fill="none" stroke="#63b8ff" d="M164.36,-125.98C155.49,-118.15 142.13,-106.34 131.39,-96.86"/>
<polygon fill="#63b8ff" stroke="#63b8ff" points="133.63,-94.17 123.82,-90.17 128.99,-99.41 133.63,-94.17"/>
</a>
</g>
<g id="a_edge8&#45;headlabel"><a xlink:href="dir_000006_000009.html" target="_top" xlink:title="1">
<text text-anchor="middle" x="138.2" y="-91.92" font-family="Helvetica,sans-Serif" font-size="10.00" fill="#63b8ff">1</text>
</a>
</g>
</g>
<!-- dir_ed56e632fe828d43534bcd4d47ab9118&#45;&gt;dir_3e5ffa48a1325bc882a7d929f6adf956 -->
<g id="edge9" class="edge">
<title>dir_ed56e632fe828d43534bcd4d47ab9118&#45;&gt;dir_3e5ffa48a1325bc882a7d929f6adf956</title>
<g id="a_edge9"><a xlink:href="dir_000009_000026.html" target="_top">
<path fill="none" stroke="#63b8ff" d="M124.6,-70.99C127.9,-68.39 131.58,-65.54 135,-63 145.06,-55.52 156.44,-47.49 165.99,-40.87"/>
<polygon fill="#63b8ff" stroke="#63b8ff" points="168.22,-43.58 174.47,-35.02 164.25,-37.81 168.22,-43.58"/>
</a>
</g>
<g id="a_edge9&#45;headlabel"><a xlink:href="dir_000009_000026.html" target="_top" xlink:title="1">
<text text-anchor="middle" x="166.88" y="-45.45" font-family="Helvetica,sans-Serif" font-size="10.00" fill="#63b8ff">1</text>
</a>
</g>
</g>
<!-- dir_ed56e632fe828d43534bcd4d47ab9118&#45;&gt;dir_a84bf0270426bb9b5ffb5c9016f39fa5 -->
<g id="edge10" class="edge">
<title>dir_ed56e632fe828d43534bcd4d47ab9118&#45;&gt;dir_a84bf0270426bb9b5ffb5c9016f39fa5</title>
<g id="a_edge10"><a xlink:href="dir_000009_000007.html" target="_top">
<path fill="none" stroke="#63b8ff" d="M102.89,-70.75C99.7,-68.25 96.22,-65.51 93,-63 83.94,-55.92 73.87,-48.09 65.38,-41.51"/>
<polygon fill="#63b8ff" stroke="#63b8ff" points="67.27,-38.55 57.22,-35.18 62.98,-44.08 67.27,-38.55"/>
</a>
</g>
<g id="a_edge10&#45;headlabel"><a xlink:href="dir_000009_000007.html" target="_top" xlink:title="1">
<text text-anchor="middle" x="71.85" y="-36" font-family="Helvetica,sans-Serif" font-size="10.00" fill="#63b8ff">1</text>
</a>
</g>
</g>
<!-- dir_ed56e632fe828d43534bcd4d47ab9118&#45;&gt;dir_c6357fc1756dc2c2b1966f79e2cdbc2b -->
<g id="edge11" class="edge">
<title>dir_ed56e632fe828d43534bcd4d47ab9118&#45;&gt;dir_c6357fc1756dc2c2b1966f79e2cdbc2b</title>
<g id="a_edge11"><a xlink:href="dir_000009_000020.html" target="_top">
<path fill="none" stroke="#63b8ff" d="M115.32,-70.75C116.37,-63.8 117.87,-53.85 119.19,-45.13"/>
<polygon fill="#63b8ff" stroke="#63b8ff" points="122.67,-45.5 120.7,-35.09 115.75,-44.45 122.67,-45.5"/>
</a>
</g>
<g id="a_edge11&#45;headlabel"><a xlink:href="dir_000009_000020.html" target="_top" xlink:title="1">
<text text-anchor="middle" x="124.94" y="-46.98" font-family="Helvetica,sans-Serif" font-size="10.00" fill="#63b8ff">1</text>
</a>
</g>
</g>
</g>
</svg>
