<?xml version="1.0" encoding="UTF-8" standalone="no"?>
<!DOCTYPE svg PUBLIC "-//W3C//DTD SVG 1.1//EN"
 "http://www.w3.org/Graphics/SVG/1.1/DTD/svg11.dtd">
<!-- Generated by graphviz version 2.43.0 (0)
 -->
<!-- Title: backends Pages: 1 -->
<svg width="314pt" height="125pt"
 viewBox="0.00 0.00 314.00 125.00" xmlns="http://www.w3.org/2000/svg" xmlns:xlink="http://www.w3.org/1999/xlink">
<g id="graph0" class="graph" transform="scale(1 1) rotate(0) translate(4 121)">
<title>backends</title>
<g id="clust1" class="cluster">
<title>clusterdir_0d771c2be5d80590180887ce5c6ed059</title>
<g id="a_clust1"><a xlink:href="dir_0d771c2be5d80590180887ce5c6ed059.html" target="_top" xlink:title="linalg">
<polygon fill="#edf0f7" stroke="#7f7f7f" stroke-dasharray="5,2" points="8,-39 8,-109 298,-109 298,-39 8,-39"/>
<text text-anchor="middle" x="153" y="-97" font-family="Helvetica,sans-Serif" font-size="10.00">linalg</text>
</a>
</g>
</g>
<g id="clust2" class="cluster">
<title>clusterdir_7f16b429ae88dc0d00bf86786fd87715</title>
<g id="a_clust2"><a xlink:href="dir_7f16b429ae88dc0d00bf86786fd87715.html" target="_top">
<polygon fill="#edf0f7" stroke="#404040" stroke-width="2" points="16,-47 16,-82 290,-82 290,-47 16,-47"/>
</a>
</g>
</g>
<!-- dir_7f16b429ae88dc0d00bf86786fd87715 -->
<g id="node1" class="node">
<title>dir_7f16b429ae88dc0d00bf86786fd87715</title>
<text text-anchor="middle" x="251" y="-62" font-family="Helvetica,sans-Serif" font-size="10.00">backends</text>
</g>
<!-- dir_f6c924f322a788405979c3c7e6798879 -->
<g id="node2" class="node">
<title>dir_f6c924f322a788405979c3c7e6798879</title>
<g id="a_node2"><a xlink:href="dir_f6c924f322a788405979c3c7e6798879.html" target="_top" xlink:title="cpu">
<polygon fill="#a2b4d6" stroke="#404040" points="202,-74 168,-74 168,-55 202,-55 202,-74"/>
<text text-anchor="middle" x="185" y="-62" font-family="Helvetica,sans-Serif" font-size="10.00">cpu</text>
</a>
</g>
</g>
<!-- dir_6177e6abdd7cca43de0ab94841650211 -->
<g id="node5" class="node">
<title>dir_6177e6abdd7cca43de0ab94841650211</title>
<g id="a_node5"><a xlink:href="dir_6177e6abdd7cca43de0ab94841650211.html" target="_top" xlink:title="core">
<polygon fill="#edf0f7" stroke="#7f7f7f" points="148,-19 110,-19 110,0 148,0 148,-19"/>
<text text-anchor="middle" x="129" y="-7" font-family="Helvetica,sans-Serif" font-size="10.00">core</text>
</a>
</g>
</g>
<!-- dir_f6c924f322a788405979c3c7e6798879&#45;&gt;dir_6177e6abdd7cca43de0ab94841650211 -->
<g id="edge3" class="edge">
<title>dir_f6c924f322a788405979c3c7e6798879&#45;&gt;dir_6177e6abdd7cca43de0ab94841650211</title>
<g id="a_edge3"><a xlink:href="dir_000010_000008.html" target="_top">
<path fill="none" stroke="#63b8ff" d="M176,-54.98C167.81,-47.23 155.49,-35.58 145.53,-26.14"/>
<polygon fill="#63b8ff" stroke="#63b8ff" points="147.83,-23.5 138.16,-19.17 143.02,-28.59 147.83,-23.5"/>
</a>
</g>
<g id="a_edge3&#45;headlabel"><a xlink:href="dir_000010_000008.html" target="_top" xlink:title="1">
<text text-anchor="middle" x="152.39" y="-21.41" font-family="Helvetica,sans-Serif" font-size="10.00" fill="#63b8ff">1</text>
</a>
</g>
</g>
<!-- dir_3e5ffa48a1325bc882a7d929f6adf956 -->
<g id="node6" class="node">
<title>dir_3e5ffa48a1325bc882a7d929f6adf956</title>
<g id="a_node6"><a xlink:href="dir_3e5ffa48a1325bc882a7d929f6adf956.html" target="_top" xlink:title="tags">
<polygon fill="#edf0f7" stroke="#7f7f7f" points="204,-19 166,-19 166,0 204,0 204,-19"/>
<text text-anchor="middle" x="185" y="-7" font-family="Helvetica,sans-Serif" font-size="10.00">tags</text>
</a>
</g>
</g>
<!-- dir_f6c924f322a788405979c3c7e6798879&#45;&gt;dir_3e5ffa48a1325bc882a7d929f6adf956 -->
<g id="edge2" class="edge">
<title>dir_f6c924f322a788405979c3c7e6798879&#45;&gt;dir_3e5ffa48a1325bc882a7d929f6adf956</title>
<g id="a_edge2"><a xlink:href="dir_000010_000026.html" target="_top">
<path fill="none" stroke="#63b8ff" d="M185,-54.75C185,-47.8 185,-37.85 185,-29.13"/>
<polygon fill="#63b8ff" stroke="#63b8ff" points="188.5,-29.09 185,-19.09 181.5,-29.09 188.5,-29.09"/>
</a>
</g>
<g id="a_edge2&#45;headlabel"><a xlink:href="dir_000010_000026.html" target="_top" xlink:title="1">
<text text-anchor="middle" x="191.34" y="-30.18" font-family="Helvetica,sans-Serif" font-size="10.00" fill="#63b8ff">1</text>
</a>
</g>
</g>
<!-- dir_3108c82f9a46a1503195562eda976440 -->
<g id="node7" class="node">
<title>dir_3108c82f9a46a1503195562eda976440</title>
<g id="a_node7"><a xlink:href="dir_3108c82f9a46a1503195562eda976440.html" target="_top" xlink:title="tensor">
<polygon fill="#edf0f7" stroke="#7f7f7f" points="269.5,-19 222.5,-19 222.5,0 269.5,0 269.5,-19"/>
<text text-anchor="middle" x="246" y="-7" font-family="Helvetica,sans-Serif" font-size="10.00">tensor</text>
</a>
</g>
</g>
<!-- dir_f6c924f322a788405979c3c7e6798879&#45;&gt;dir_3108c82f9a46a1503195562eda976440 -->
<g id="edge1" class="edge">
<title>dir_f6c924f322a788405979c3c7e6798879&#45;&gt;dir_3108c82f9a46a1503195562eda976440</title>
<g id="a_edge1"><a xlink:href="dir_000010_000027.html" target="_top">
<path fill="none" stroke="#63b8ff" d="M194,-54.72C198.93,-49.98 205.22,-44.07 211,-39 216.18,-34.46 221.93,-29.67 227.25,-25.35"/>
<polygon fill="#63b8ff" stroke="#63b8ff" points="229.51,-28.03 235.11,-19.03 225.12,-22.57 229.51,-28.03"/>
</a>
</g>
<g id="a_edge1&#45;headlabel"><a xlink:href="dir_000010_000027.html" target="_top" xlink:title="1">
<text text-anchor="middle" x="228.49" y="-29.99" font-family="Helvetica,sans-Serif" font-size="10.00" fill="#63b8ff">1</text>
</a>
</g>
</g>
<!-- dir_8968b3c4643eb7f0f58e918b55031d19 -->
<g id="node3" class="node">
<title>dir_8968b3c4643eb7f0f58e918b55031d19</title>
<g id="a_node3"><a xlink:href="dir_8968b3c4643eb7f0f58e918b55031d19.html" target="_top" xlink:title="cusolver">
<polygon fill="#a2b4d6" stroke="#404040" points="150,-74 92,-74 92,-55 150,-55 150,-74"/>
<text text-anchor="middle" x="121" y="-62" font-family="Helvetica,sans-Serif" font-size="10.00">cusolver</text>
</a>
</g>
</g>
<!-- dir_9bd04cb1e0d9eac9a628d56be60990c2 -->
<g id="node4" class="node">
<title>dir_9bd04cb1e0d9eac9a628d56be60990c2</title>
<g id="a_node4"><a xlink:href="dir_9bd04cb1e0d9eac9a628d56be60990c2.html" target="_top" xlink:title="lapack">
<polygon fill="#a2b4d6" stroke="#404040" points="73.5,-74 24.5,-74 24.5,-55 73.5,-55 73.5,-74"/>
<text text-anchor="middle" x="49" y="-62" font-family="Helvetica,sans-Serif" font-size="10.00">lapack</text>
</a>
</g>
</g>
</g>
</svg>
