<?xml version="1.0" encoding="UTF-8" standalone="no"?>
<!DOCTYPE svg PUBLIC "-//W3C//DTD SVG 1.1//EN"
 "http://www.w3.org/Graphics/SVG/1.1/DTD/svg11.dtd">
<!-- Generated by graphviz version 2.43.0 (0)
 -->
<!-- Title: epoch_queue.hpp Pages: 1 -->
<svg width="1299pt" height="335pt"
 viewBox="0.00 0.00 1298.50 335.00" xmlns="http://www.w3.org/2000/svg" xmlns:xlink="http://www.w3.org/1999/xlink">
<g id="graph0" class="graph" transform="scale(1 1) rotate(0) translate(4 331)">
<title>epoch_queue.hpp</title>
<!-- Node1 -->
<g id="Node000001" class="node">
<title>Node1</title>
<g id="a_Node000001"><a xlink:title="FIFO queue enforcing writer→readers→next&#45;writer ordering.">
<polygon fill="#999999" stroke="#666666" points="854,-327 752,-327 752,-308 854,-308 854,-327"/>
<text text-anchor="middle" x="803" y="-315" font-family="Helvetica,sans-Serif" font-size="10.00">epoch_queue.hpp</text>
</a>
</g>
</g>
<!-- Node2 -->
<g id="Node000002" class="node">
<title>Node2</title>
<g id="a_Node000002"><a xlink:href="async_8hpp.html" target="_top" xlink:title="The Async&lt;T&gt; container: coroutine‐safe asynchronous read/write.">
<polygon fill="white" stroke="#666666" points="806,-272 740,-272 740,-253 806,-253 806,-272"/>
<text text-anchor="middle" x="773" y="-260" font-family="Helvetica,sans-Serif" font-size="10.00">async.hpp</text>
</a>
</g>
</g>
<!-- Node1&#45;&gt;Node2 -->
<g id="edge1_Node000001_Node000002" class="edge">
<title>Node1&#45;&gt;Node2</title>
<g id="a_edge1_Node000001_Node000002"><a xlink:title=" ">
<path fill="none" stroke="#63b8ff" d="M792.99,-298.82C787.9,-289.82 781.94,-279.29 777.86,-272.09"/>
<polygon fill="#63b8ff" stroke="#63b8ff" points="790.07,-300.77 798.05,-307.75 796.17,-297.32 790.07,-300.77"/>
</a>
</g>
</g>
<!-- Node21 -->
<g id="Node000021" class="node">
<title>Node21</title>
<g id="a_Node000021"><a xlink:href="reverse__value_8hpp.html" target="_top" xlink:title="Reverse&#45;mode gradient accumulation channel built on reverse epoch queues.">
<polygon fill="white" stroke="#666666" points="1290.5,-211.5 1183.5,-211.5 1183.5,-192.5 1290.5,-192.5 1290.5,-211.5"/>
<text text-anchor="middle" x="1237" y="-199.5" font-family="Helvetica,sans-Serif" font-size="10.00">reverse_value.hpp</text>
</a>
</g>
</g>
<!-- Node1&#45;&gt;Node21 -->
<g id="edge50_Node000001_Node000021" class="edge">
<title>Node1&#45;&gt;Node21</title>
<g id="a_edge50_Node000001_Node000021"><a xlink:title=" ">
<path fill="none" stroke="#63b8ff" d="M845.36,-305.42C931.77,-282.82 1126.75,-231.83 1204.3,-211.55"/>
<polygon fill="#63b8ff" stroke="#63b8ff" points="844.41,-302.05 835.62,-307.97 846.18,-308.82 844.41,-302.05"/>
</a>
</g>
</g>
<!-- Node3 -->
<g id="Node000003" class="node">
<title>Node3</title>
<g id="a_Node000003"><a xlink:href="ad__example_8cpp.html" target="_top" xlink:title=" ">
<polygon fill="white" stroke="#666666" points="818.5,-145.5 721.5,-145.5 721.5,-126.5 818.5,-126.5 818.5,-145.5"/>
<text text-anchor="middle" x="770" y="-133.5" font-family="Helvetica,sans-Serif" font-size="10.00">ad_example.cpp</text>
</a>
</g>
</g>
<!-- Node2&#45;&gt;Node3 -->
<g id="edge2_Node000002_Node000003" class="edge">
<title>Node2&#45;&gt;Node3</title>
<g id="a_edge2_Node000002_Node000003"><a xlink:title=" ">
<path fill="none" stroke="#63b8ff" d="M772.55,-242.74C771.89,-215.36 770.69,-165.58 770.21,-145.62"/>
<polygon fill="#63b8ff" stroke="#63b8ff" points="769.05,-243.03 772.79,-252.94 776.05,-242.86 769.05,-243.03"/>
</a>
</g>
</g>
<!-- Node4 -->
<g id="Node000004" class="node">
<title>Node4</title>
<g id="a_Node000004"><a xlink:href="async__buffer__semantics__example_8cpp.html" target="_top" xlink:title=" ">
<polygon fill="white" stroke="#666666" points="198,-151 64,-151 64,-121 198,-121 198,-151"/>
<text text-anchor="start" x="72" y="-139" font-family="Helvetica,sans-Serif" font-size="10.00">async_buffer_semantics</text>
<text text-anchor="middle" x="131" y="-128" font-family="Helvetica,sans-Serif" font-size="10.00">_example.cpp</text>
</a>
</g>
</g>
<!-- Node2&#45;&gt;Node4 -->
<g id="edge3_Node000002_Node000004" class="edge">
<title>Node2&#45;&gt;Node4</title>
<g id="a_edge3_Node000002_Node000004"><a xlink:title=" ">
<path fill="none" stroke="#63b8ff" d="M729.65,-262.14C646.15,-262.32 457.82,-257.7 306,-217 249.21,-201.78 187.79,-169.67 154.95,-151.1"/>
<polygon fill="#63b8ff" stroke="#63b8ff" points="729.8,-265.63 739.78,-262.09 729.76,-258.63 729.8,-265.63"/>
</a>
</g>
</g>
<!-- Node5 -->
<g id="Node000005" class="node">
<title>Node5</title>
<g id="a_Node000005"><a xlink:href="async__example_8cpp.html" target="_top" xlink:title=" ">
<polygon fill="white" stroke="#666666" points="519.5,-145.5 406.5,-145.5 406.5,-126.5 519.5,-126.5 519.5,-145.5"/>
<text text-anchor="middle" x="463" y="-133.5" font-family="Helvetica,sans-Serif" font-size="10.00">async_example.cpp</text>
</a>
</g>
</g>
<!-- Node2&#45;&gt;Node5 -->
<g id="edge4_Node000002_Node000005" class="edge">
<title>Node2&#45;&gt;Node5</title>
<g id="a_edge4_Node000002_Node000005"><a xlink:title=" ">
<path fill="none" stroke="#63b8ff" d="M729.76,-258.59C664.55,-253.48 544.92,-241.08 510,-217 484.27,-199.26 470.55,-162.47 465.41,-145.68"/>
<polygon fill="#63b8ff" stroke="#63b8ff" points="729.5,-262.08 739.74,-259.35 730.03,-255.1 729.5,-262.08"/>
</a>
</g>
</g>
<!-- Node6 -->
<g id="Node000006" class="node">
<title>Node6</title>
<g id="a_Node000006"><a xlink:href="async__example2_8cpp.html" target="_top" xlink:title=" ">
<polygon fill="white" stroke="#666666" points="721.5,-79.5 602.5,-79.5 602.5,-60.5 721.5,-60.5 721.5,-79.5"/>
<text text-anchor="middle" x="662" y="-67.5" font-family="Helvetica,sans-Serif" font-size="10.00">async_example2.cpp</text>
</a>
</g>
</g>
<!-- Node2&#45;&gt;Node6 -->
<g id="edge5_Node000002_Node000006" class="edge">
<title>Node2&#45;&gt;Node6</title>
<g id="a_edge5_Node000002_Node000006"><a xlink:title=" ">
<path fill="none" stroke="#63b8ff" d="M788.96,-245.21C814.13,-217.52 857.31,-160.44 828,-121 820.12,-110.4 745.03,-90.84 698.58,-79.58"/>
<polygon fill="#63b8ff" stroke="#63b8ff" points="786.12,-243.13 781.83,-252.81 791.22,-247.92 786.12,-243.13"/>
</a>
</g>
</g>
<!-- Node7 -->
<g id="Node000007" class="node">
<title>Node7</title>
<g id="a_Node000007"><a xlink:href="async__fib__example_8cpp.html" target="_top" xlink:title=" ">
<polygon fill="white" stroke="#666666" points="461.5,-79.5 330.5,-79.5 330.5,-60.5 461.5,-60.5 461.5,-79.5"/>
<text text-anchor="middle" x="396" y="-67.5" font-family="Helvetica,sans-Serif" font-size="10.00">async_fib_example.cpp</text>
</a>
</g>
</g>
<!-- Node2&#45;&gt;Node7 -->
<g id="edge6_Node000002_Node000007" class="edge">
<title>Node2&#45;&gt;Node7</title>
<g id="a_edge6_Node000002_Node000007"><a xlink:title=" ">
<path fill="none" stroke="#63b8ff" d="M729.46,-262.23C635.73,-262.89 408.38,-259.51 224,-217 145.43,-198.88 100.48,-217.59 55,-151 47.48,-139.99 46.28,-131.09 55,-121 59.49,-115.81 232.75,-92.37 330.52,-79.51"/>
<polygon fill="#63b8ff" stroke="#63b8ff" points="729.72,-265.73 739.69,-262.14 729.66,-258.73 729.72,-265.73"/>
</a>
</g>
</g>
<!-- Node8 -->
<g id="Node000008" class="node">
<title>Node8</title>
<g id="a_Node000008"><a xlink:href="async__kernel__shapes__example_8cpp.html" target="_top" xlink:title=" ">
<polygon fill="white" stroke="#666666" points="120,-85 0,-85 0,-55 120,-55 120,-85"/>
<text text-anchor="start" x="8" y="-73" font-family="Helvetica,sans-Serif" font-size="10.00">async_kernel_shapes</text>
<text text-anchor="middle" x="60" y="-62" font-family="Helvetica,sans-Serif" font-size="10.00">_example.cpp</text>
</a>
</g>
</g>
<!-- Node2&#45;&gt;Node8 -->
<g id="edge7_Node000002_Node000008" class="edge">
<title>Node2&#45;&gt;Node8</title>
<g id="a_edge7_Node000002_Node000008"><a xlink:title=" ">
<path fill="none" stroke="#63b8ff" d="M729.83,-261.78C581.56,-262.37 99.36,-260.84 47,-217 13.84,-189.23 19.76,-162.77 31,-121 34.49,-108.01 42.28,-94.92 48.9,-85.4"/>
<polygon fill="#63b8ff" stroke="#63b8ff" points="729.93,-265.28 739.92,-261.74 729.9,-258.28 729.93,-265.28"/>
</a>
</g>
</g>
<!-- Node9 -->
<g id="Node000009" class="node">
<title>Node9</title>
<g id="a_Node000009"><a xlink:href="async__ops_8hpp.html" target="_top" xlink:title="Concepts and helpers for composing Async expressions.">
<polygon fill="white" stroke="#666666" points="626.5,-145.5 537.5,-145.5 537.5,-126.5 626.5,-126.5 626.5,-145.5"/>
<text text-anchor="middle" x="582" y="-133.5" font-family="Helvetica,sans-Serif" font-size="10.00">async_ops.hpp</text>
</a>
</g>
</g>
<!-- Node2&#45;&gt;Node9 -->
<g id="edge8_Node000002_Node000009" class="edge">
<title>Node2&#45;&gt;Node9</title>
<g id="a_edge8_Node000002_Node000009"><a xlink:title=" ">
<path fill="none" stroke="#63b8ff" d="M729.23,-260.32C664.02,-257.55 546.21,-248.22 520,-217 498.76,-191.7 542.15,-160.41 566.7,-145.58"/>
<polygon fill="#63b8ff" stroke="#63b8ff" points="729.47,-263.84 739.6,-260.73 729.75,-256.84 729.47,-263.84"/>
</a>
</g>
</g>
<!-- Node11 -->
<g id="Node000011" class="node">
<title>Node11</title>
<g id="a_Node000011"><a xlink:href="async__ops__example_8cpp.html" target="_top" xlink:title=" ">
<polygon fill="white" stroke="#666666" points="274,-79.5 138,-79.5 138,-60.5 274,-60.5 274,-79.5"/>
<text text-anchor="middle" x="206" y="-67.5" font-family="Helvetica,sans-Serif" font-size="10.00">async_ops_example.cpp</text>
</a>
</g>
</g>
<!-- Node2&#45;&gt;Node11 -->
<g id="edge17_Node000002_Node000011" class="edge">
<title>Node2&#45;&gt;Node11</title>
<g id="a_edge17_Node000002_Node000011"><a xlink:title=" ">
<path fill="none" stroke="#63b8ff" d="M729.84,-260.95C588.02,-258.84 142.17,-249.65 87,-217 46.92,-193.28 17.38,-158.5 45,-121 58.54,-102.62 115.36,-88.07 157.69,-79.51"/>
<polygon fill="#63b8ff" stroke="#63b8ff" points="729.86,-264.45 739.91,-261.1 729.96,-257.45 729.86,-264.45"/>
</a>
</g>
</g>
<!-- Node12 -->
<g id="Node000012" class="node">
<title>Node12</title>
<g id="a_Node000012"><a xlink:href="future__example_8cpp.html" target="_top" xlink:title=" ">
<polygon fill="white" stroke="#666666" points="965,-79.5 851,-79.5 851,-60.5 965,-60.5 965,-79.5"/>
<text text-anchor="middle" x="908" y="-67.5" font-family="Helvetica,sans-Serif" font-size="10.00">future_example.cpp</text>
</a>
</g>
</g>
<!-- Node2&#45;&gt;Node12 -->
<g id="edge42_Node000002_Node000012" class="edge">
<title>Node2&#45;&gt;Node12</title>
<g id="a_edge42_Node000002_Node000012"><a xlink:title=" ">
<path fill="none" stroke="#63b8ff" d="M816.31,-258.7C900.53,-252.81 1079.74,-237.93 1098,-217 1120.9,-190.75 1080,-130.83 1069,-121 1051.1,-105.01 990.06,-88.99 948.5,-79.54"/>
<polygon fill="#63b8ff" stroke="#63b8ff" points="816.02,-255.21 806.29,-259.39 816.5,-262.19 816.02,-255.21"/>
</a>
</g>
</g>
<!-- Node14 -->
<g id="Node000014" class="node">
<title>Node14</title>
<g id="a_Node000014"><a xlink:href="async__tbb__reduction__example_8cpp.html" target="_top" xlink:title="Example of using uni20 coroutines with the TbbScheduler to parallelize a map–reduce computation.">
<polygon fill="white" stroke="#666666" points="744.5,-217 627.5,-217 627.5,-187 744.5,-187 744.5,-217"/>
<text text-anchor="start" x="635.5" y="-205" font-family="Helvetica,sans-Serif" font-size="10.00">async_tbb_reduction</text>
<text text-anchor="middle" x="686" y="-194" font-family="Helvetica,sans-Serif" font-size="10.00">_example.cpp</text>
</a>
</g>
</g>
<!-- Node2&#45;&gt;Node14 -->
<g id="edge18_Node000002_Node000014" class="edge">
<title>Node2&#45;&gt;Node14</title>
<g id="a_edge18_Node000002_Node000014"><a xlink:title=" ">
<path fill="none" stroke="#63b8ff" d="M751.48,-247.03C737.91,-237.9 720.46,-226.17 706.99,-217.11"/>
<polygon fill="#63b8ff" stroke="#63b8ff" points="749.91,-250.19 760.16,-252.87 753.82,-244.38 749.91,-250.19"/>
</a>
</g>
</g>
<!-- Node15 -->
<g id="Node000015" class="node">
<title>Node15</title>
<g id="a_Node000015"><a xlink:href="async__toys_8hpp.html" target="_top" xlink:title="Small async helper operations used in tests and examples.">
<polygon fill="white" stroke="#666666" points="1043,-145.5 951,-145.5 951,-126.5 1043,-126.5 1043,-145.5"/>
<text text-anchor="middle" x="997" y="-133.5" font-family="Helvetica,sans-Serif" font-size="10.00">async_toys.hpp</text>
</a>
</g>
</g>
<!-- Node2&#45;&gt;Node15 -->
<g id="edge19_Node000002_Node000015" class="edge">
<title>Node2&#45;&gt;Node15</title>
<g id="a_edge19_Node000002_Node000015"><a xlink:title=" ">
<path fill="none" stroke="#63b8ff" d="M816.07,-257.59C851.16,-252.68 900.67,-241.65 937,-217 964.73,-198.19 984.75,-162.27 992.93,-145.73"/>
<polygon fill="#63b8ff" stroke="#63b8ff" points="815.6,-254.12 806.13,-258.88 816.49,-261.07 815.6,-254.12"/>
</a>
</g>
</g>
<!-- Node17 -->
<g id="Node000017" class="node">
<title>Node17</title>
<g id="a_Node000017"><a xlink:href="awaiters_8hpp.html" target="_top" xlink:title="Utilities for awaiting on Async&lt;T&gt;: co_await overload, all(), try_await().">
<polygon fill="white" stroke="#666666" points="609,-211.5 529,-211.5 529,-192.5 609,-192.5 609,-211.5"/>
<text text-anchor="middle" x="569" y="-199.5" font-family="Helvetica,sans-Serif" font-size="10.00">awaiters.hpp</text>
</a>
</g>
</g>
<!-- Node2&#45;&gt;Node17 -->
<g id="edge24_Node000002_Node000017" class="edge">
<title>Node2&#45;&gt;Node17</title>
<g id="a_edge24_Node000002_Node000017"><a xlink:title=" ">
<path fill="none" stroke="#63b8ff" d="M733.52,-250.18C694.07,-238.87 634.3,-221.72 598.7,-211.52"/>
<polygon fill="#63b8ff" stroke="#63b8ff" points="732.76,-253.6 743.34,-252.99 734.69,-246.87 732.76,-253.6"/>
</a>
</g>
</g>
<!-- Node18 -->
<g id="Node000018" class="node">
<title>Node18</title>
<g id="a_Node000018"><a xlink:href="bug_8cpp.html" target="_top" xlink:title=" ">
<polygon fill="white" stroke="#666666" points="894.5,-211.5 839.5,-211.5 839.5,-192.5 894.5,-192.5 894.5,-211.5"/>
<text text-anchor="middle" x="867" y="-199.5" font-family="Helvetica,sans-Serif" font-size="10.00">bug.cpp</text>
</a>
</g>
</g>
<!-- Node2&#45;&gt;Node18 -->
<g id="edge30_Node000002_Node000018" class="edge">
<title>Node2&#45;&gt;Node18</title>
<g id="a_edge30_Node000002_Node000018"><a xlink:title=" ">
<path fill="none" stroke="#63b8ff" d="M795.55,-247.47C813.45,-236.32 837.92,-221.1 853.07,-211.67"/>
<polygon fill="#63b8ff" stroke="#63b8ff" points="793.51,-244.61 786.87,-252.87 797.21,-250.56 793.51,-244.61"/>
</a>
</g>
</g>
<!-- Node19 -->
<g id="Node000019" class="node">
<title>Node19</title>
<g id="a_Node000019"><a xlink:href="debug__scheduler_8hpp.html" target="_top" xlink:title="Coroutine scheduler for AsyncTask.">
<polygon fill="white" stroke="#666666" points="434.5,-211.5 315.5,-211.5 315.5,-192.5 434.5,-192.5 434.5,-211.5"/>
<text text-anchor="middle" x="375" y="-199.5" font-family="Helvetica,sans-Serif" font-size="10.00">debug_scheduler.hpp</text>
</a>
</g>
</g>
<!-- Node2&#45;&gt;Node19 -->
<g id="edge31_Node000002_Node000019" class="edge">
<title>Node2&#45;&gt;Node19</title>
<g id="a_edge31_Node000002_Node000019"><a xlink:title=" ">
<path fill="none" stroke="#63b8ff" d="M729.57,-256.24C667.3,-248.54 549.12,-233.34 449,-217 438.93,-215.36 428.13,-213.42 417.98,-211.51"/>
<polygon fill="#63b8ff" stroke="#63b8ff" points="729.45,-259.75 739.8,-257.5 730.3,-252.81 729.45,-259.75"/>
</a>
</g>
</g>
<!-- Node20 -->
<g id="Node000020" class="node">
<title>Node20</title>
<g id="a_Node000020"><a xlink:href="future__value_8hpp.html" target="_top" xlink:title="Write&#45;once async wrappers (FutureValue and Defer) built on Async&lt;T&gt;.">
<polygon fill="white" stroke="#666666" points="1088.5,-211.5 989.5,-211.5 989.5,-192.5 1088.5,-192.5 1088.5,-211.5"/>
<text text-anchor="middle" x="1039" y="-199.5" font-family="Helvetica,sans-Serif" font-size="10.00">future_value.hpp</text>
</a>
</g>
</g>
<!-- Node2&#45;&gt;Node20 -->
<g id="edge43_Node000002_Node000020" class="edge">
<title>Node2&#45;&gt;Node20</title>
<g id="a_edge43_Node000002_Node000020"><a xlink:title=" ">
<path fill="none" stroke="#63b8ff" d="M816.2,-252C867.2,-240.78 951.27,-222.29 1000.25,-211.52"/>
<polygon fill="#63b8ff" stroke="#63b8ff" points="815.17,-248.64 806.15,-254.21 816.67,-255.48 815.17,-248.64"/>
</a>
</g>
</g>
<!-- Node2&#45;&gt;Node21 -->
<g id="edge45_Node000002_Node000021" class="edge">
<title>Node2&#45;&gt;Node21</title>
<g id="a_edge45_Node000002_Node000021"><a xlink:title=" ">
<path fill="none" stroke="#63b8ff" d="M816.45,-257.92C889.52,-251.62 1041.52,-237.24 1169,-217 1178.64,-215.47 1188.99,-213.51 1198.63,-211.54"/>
<polygon fill="#63b8ff" stroke="#63b8ff" points="815.92,-254.46 806.25,-258.79 816.52,-261.43 815.92,-254.46"/>
</a>
</g>
</g>
<!-- Node22 -->
<g id="Node000022" class="node">
<title>Node22</title>
<g id="a_Node000022"><a xlink:href="var_8hpp.html" target="_top" xlink:title=" ">
<polygon fill="white" stroke="#666666" points="1198.5,-145.5 1145.5,-145.5 1145.5,-126.5 1198.5,-126.5 1198.5,-145.5"/>
<text text-anchor="middle" x="1172" y="-133.5" font-family="Helvetica,sans-Serif" font-size="10.00">var.hpp</text>
</a>
</g>
</g>
<!-- Node2&#45;&gt;Node22 -->
<g id="edge49_Node000002_Node000022" class="edge">
<title>Node2&#45;&gt;Node22</title>
<g id="a_edge49_Node000002_Node000022"><a xlink:title=" ">
<path fill="none" stroke="#63b8ff" d="M816.5,-261.07C900.49,-259.46 1081.11,-251.9 1131,-217 1155.81,-199.64 1166.56,-162.65 1170.32,-145.75"/>
<polygon fill="#63b8ff" stroke="#63b8ff" points="816.21,-257.58 806.27,-261.25 816.33,-264.58 816.21,-257.58"/>
</a>
</g>
</g>
<!-- Node9&#45;&gt;Node6 -->
<g id="edge9_Node000009_Node000006" class="edge">
<title>Node9&#45;&gt;Node6</title>
<g id="a_edge9_Node000009_Node000006"><a xlink:title=" ">
<path fill="none" stroke="#63b8ff" d="M600.77,-119.99C616.43,-107.46 638.2,-90.04 651.13,-79.7"/>
<polygon fill="#63b8ff" stroke="#63b8ff" points="598.41,-117.39 592.79,-126.37 602.78,-122.85 598.41,-117.39"/>
</a>
</g>
</g>
<!-- Node9&#45;&gt;Node7 -->
<g id="edge10_Node000009_Node000007" class="edge">
<title>Node9&#45;&gt;Node7</title>
<g id="a_edge10_Node000009_Node000007"><a xlink:title=" ">
<path fill="none" stroke="#63b8ff" d="M547.13,-123C510.4,-110.36 453.47,-90.78 420.98,-79.6"/>
<polygon fill="#63b8ff" stroke="#63b8ff" points="546.32,-126.42 556.92,-126.37 548.6,-119.81 546.32,-126.42"/>
</a>
</g>
</g>
<!-- Node9&#45;&gt;Node8 -->
<g id="edge13_Node000009_Node000008" class="edge">
<title>Node9&#45;&gt;Node8</title>
<g id="a_edge13_Node000009_Node000008"><a xlink:title=" ">
<path fill="none" stroke="#63b8ff" d="M543.52,-124.03C538.66,-122.88 533.73,-121.83 529,-121 353.2,-90.1 305.62,-110.79 129,-85 126.1,-84.58 123.13,-84.11 120.14,-83.61"/>
<polygon fill="#63b8ff" stroke="#63b8ff" points="542.76,-127.45 553.31,-126.48 544.46,-120.66 542.76,-127.45"/>
</a>
</g>
</g>
<!-- Node10 -->
<g id="Node000010" class="node">
<title>Node10</title>
<g id="a_Node000010"><a xlink:href="async__impl_8hpp.html" target="_top" xlink:title="Inline implementation of Async&lt;T&gt; helpers and task await transforms.">
<polygon fill="white" stroke="#666666" points="832.5,-79.5 739.5,-79.5 739.5,-60.5 832.5,-60.5 832.5,-79.5"/>
<text text-anchor="middle" x="786" y="-67.5" font-family="Helvetica,sans-Serif" font-size="10.00">async_impl.hpp</text>
</a>
</g>
</g>
<!-- Node9&#45;&gt;Node10 -->
<g id="edge11_Node000009_Node000010" class="edge">
<title>Node9&#45;&gt;Node10</title>
<g id="a_edge11_Node000009_Node000010"><a xlink:title=" ">
<path fill="none" stroke="#63b8ff" d="M619.22,-123.32C659.46,-110.7 722.66,-90.87 758.6,-79.6"/>
<polygon fill="#63b8ff" stroke="#63b8ff" points="618.01,-120.04 609.51,-126.37 620.1,-126.71 618.01,-120.04"/>
</a>
</g>
</g>
<!-- Node9&#45;&gt;Node11 -->
<g id="edge14_Node000009_Node000011" class="edge">
<title>Node9&#45;&gt;Node11</title>
<g id="a_edge14_Node000009_Node000011"><a xlink:title=" ">
<path fill="none" stroke="#63b8ff" d="M541.88,-123.93C537.55,-122.88 533.19,-121.88 529,-121 441.65,-102.76 339.74,-88.06 274.12,-79.44"/>
<polygon fill="#63b8ff" stroke="#63b8ff" points="541.31,-127.4 551.86,-126.45 543.02,-120.61 541.31,-127.4"/>
</a>
</g>
</g>
<!-- Node9&#45;&gt;Node12 -->
<g id="edge15_Node000009_Node000012" class="edge">
<title>Node9&#45;&gt;Node12</title>
<g id="a_edge15_Node000009_Node000012"><a xlink:title=" ">
<path fill="none" stroke="#63b8ff" d="M636.81,-124.77C689.47,-114.87 771.25,-99.31 842,-85 850.5,-83.28 859.59,-81.39 868.24,-79.56"/>
<polygon fill="#63b8ff" stroke="#63b8ff" points="635.86,-121.39 626.68,-126.68 637.15,-128.27 635.86,-121.39"/>
</a>
</g>
</g>
<!-- Node13 -->
<g id="Node000013" class="node">
<title>Node13</title>
<g id="a_Node000013"><a xlink:href="gradient__solver_8cpp.html" target="_top" xlink:title=" ">
<polygon fill="white" stroke="#666666" points="854,-19 742,-19 742,0 854,0 854,-19"/>
<text text-anchor="middle" x="798" y="-7" font-family="Helvetica,sans-Serif" font-size="10.00">gradient_solver.cpp</text>
</a>
</g>
</g>
<!-- Node9&#45;&gt;Node13 -->
<g id="edge16_Node000009_Node000013" class="edge">
<title>Node9&#45;&gt;Node13</title>
<g id="a_edge16_Node000009_Node000013"><a xlink:title=" ">
<path fill="none" stroke="#63b8ff" d="M579.27,-116.01C577.81,-97.96 578.81,-71.22 594,-55 613.82,-33.83 688.55,-21.74 741.81,-15.65"/>
<polygon fill="#63b8ff" stroke="#63b8ff" points="575.82,-116.65 580.42,-126.19 582.77,-115.86 575.82,-116.65"/>
</a>
</g>
</g>
<!-- Node10&#45;&gt;Node2 -->
<g id="edge12_Node000010_Node000002" class="edge">
<title>Node10&#45;&gt;Node2</title>
<g id="a_edge12_Node000010_Node000002"><a xlink:title=" ">
<path fill="none" stroke="#63b8ff" d="M823.02,-82.76C852.28,-92.85 889.69,-107.81 899,-121 913.63,-141.72 914.11,-202.89 904,-217 881.9,-247.85 837.18,-257.57 806.18,-260.49"/>
<polygon fill="#63b8ff" stroke="#63b8ff" points="824.05,-79.42 813.46,-79.53 821.82,-86.05 824.05,-79.42"/>
</a>
</g>
</g>
<!-- Node15&#45;&gt;Node6 -->
<g id="edge20_Node000015_Node000006" class="edge">
<title>Node15&#45;&gt;Node6</title>
<g id="a_edge20_Node000015_Node000006"><a xlink:title=" ">
<path fill="none" stroke="#63b8ff" d="M940.8,-124.68C886.93,-114.73 803.35,-99.14 731,-85 722.12,-83.27 712.61,-81.36 703.58,-79.54"/>
<polygon fill="#63b8ff" stroke="#63b8ff" points="940.36,-128.16 950.83,-126.53 941.63,-121.27 940.36,-128.16"/>
</a>
</g>
</g>
<!-- Node15&#45;&gt;Node12 -->
<g id="edge21_Node000015_Node000012" class="edge">
<title>Node15&#45;&gt;Node12</title>
<g id="a_edge21_Node000015_Node000012"><a xlink:title=" ">
<path fill="none" stroke="#63b8ff" d="M976.61,-120.33C959.15,-107.78 934.61,-90.13 920.1,-79.7"/>
<polygon fill="#63b8ff" stroke="#63b8ff" points="974.83,-123.37 985,-126.37 978.92,-117.69 974.83,-123.37"/>
</a>
</g>
</g>
<!-- Node16 -->
<g id="Node000016" class="node">
<title>Node16</title>
<g id="a_Node000016"><a xlink:href="var__toys_8hpp.html" target="_top" xlink:title="Demonstration reverse&#45;mode helpers built on Var&lt;T&gt;.">
<polygon fill="white" stroke="#666666" points="1063,-79.5 983,-79.5 983,-60.5 1063,-60.5 1063,-79.5"/>
<text text-anchor="middle" x="1023" y="-67.5" font-family="Helvetica,sans-Serif" font-size="10.00">var_toys.hpp</text>
</a>
</g>
</g>
<!-- Node15&#45;&gt;Node16 -->
<g id="edge22_Node000015_Node000016" class="edge">
<title>Node15&#45;&gt;Node16</title>
<g id="a_edge22_Node000015_Node000016"><a xlink:title=" ">
<path fill="none" stroke="#63b8ff" d="M1004.39,-116.82C1009.29,-104.74 1015.52,-89.41 1019.38,-79.91"/>
<polygon fill="#63b8ff" stroke="#63b8ff" points="1001.03,-115.79 1000.51,-126.37 1007.51,-118.42 1001.03,-115.79"/>
</a>
</g>
</g>
<!-- Node16&#45;&gt;Node13 -->
<g id="edge23_Node000016_Node000013" class="edge">
<title>Node16&#45;&gt;Node13</title>
<g id="a_edge23_Node000016_Node000013"><a xlink:title=" ">
<path fill="none" stroke="#63b8ff" d="M983.85,-57.7C980.52,-56.77 977.2,-55.86 974,-55 925.31,-41.89 868.73,-27.79 833.14,-19.05"/>
<polygon fill="#63b8ff" stroke="#63b8ff" points="983.19,-61.15 993.76,-60.49 985.08,-54.41 983.19,-61.15"/>
</a>
</g>
</g>
<!-- Node17&#45;&gt;Node3 -->
<g id="edge25_Node000017_Node000003" class="edge">
<title>Node17&#45;&gt;Node3</title>
<g id="a_edge25_Node000017_Node000003"><a xlink:title=" ">
<path fill="none" stroke="#63b8ff" d="M605.67,-189.32C645.32,-176.7 707.59,-156.87 743,-145.6"/>
<polygon fill="#63b8ff" stroke="#63b8ff" points="604.57,-186 596.11,-192.37 606.7,-192.67 604.57,-186"/>
</a>
</g>
</g>
<!-- Node17&#45;&gt;Node5 -->
<g id="edge26_Node000017_Node000005" class="edge">
<title>Node17&#45;&gt;Node5</title>
<g id="a_edge26_Node000017_Node000005"><a xlink:title=" ">
<path fill="none" stroke="#63b8ff" d="M546.13,-187.19C525.27,-174.59 495.08,-156.37 477.41,-145.7"/>
<polygon fill="#63b8ff" stroke="#63b8ff" points="544.33,-190.2 554.7,-192.37 547.95,-184.2 544.33,-190.2"/>
</a>
</g>
</g>
<!-- Node17&#45;&gt;Node6 -->
<g id="edge27_Node000017_Node000006" class="edge">
<title>Node17&#45;&gt;Node6</title>
<g id="a_edge27_Node000017_Node000006"><a xlink:title=" ">
<path fill="none" stroke="#63b8ff" d="M594.39,-187.32C608.43,-178.59 625.18,-166.1 636,-151 652.17,-128.45 658.66,-95.3 660.93,-79.71"/>
<polygon fill="#63b8ff" stroke="#63b8ff" points="592.47,-184.39 585.64,-192.5 596.03,-190.41 592.47,-184.39"/>
</a>
</g>
</g>
<!-- Node17&#45;&gt;Node9 -->
<g id="edge28_Node000017_Node000009" class="edge">
<title>Node17&#45;&gt;Node9</title>
<g id="a_edge28_Node000017_Node000009"><a xlink:title=" ">
<path fill="none" stroke="#63b8ff" d="M572.77,-182.45C575.21,-170.43 578.28,-155.32 580.19,-145.91"/>
<polygon fill="#63b8ff" stroke="#63b8ff" points="569.31,-181.87 570.75,-192.37 576.17,-183.27 569.31,-181.87"/>
</a>
</g>
</g>
<!-- Node17&#45;&gt;Node12 -->
<g id="edge29_Node000017_Node000012" class="edge">
<title>Node17&#45;&gt;Node12</title>
<g id="a_edge29_Node000017_Node000012"><a xlink:title=" ">
<path fill="none" stroke="#63b8ff" d="M607.18,-189.88C611.16,-188.85 615.15,-187.87 619,-187 710.95,-166.27 744.31,-194.36 828,-151 861.83,-133.47 890.33,-96.57 902.15,-79.72"/>
<polygon fill="#63b8ff" stroke="#63b8ff" points="606.18,-186.52 597.43,-192.5 607.99,-193.28 606.18,-186.52"/>
</a>
</g>
</g>
<!-- Node19&#45;&gt;Node3 -->
<g id="edge32_Node000019_Node000003" class="edge">
<title>Node19&#45;&gt;Node3</title>
<g id="a_edge32_Node000019_Node000003"><a xlink:title=" ">
<path fill="none" stroke="#63b8ff" d="M444.65,-191.94C511.99,-182.84 616.79,-167.79 707,-151 715.59,-149.4 724.8,-147.48 733.44,-145.57"/>
<polygon fill="#63b8ff" stroke="#63b8ff" points="444.03,-188.49 434.58,-193.29 444.96,-195.43 444.03,-188.49"/>
</a>
</g>
</g>
<!-- Node19&#45;&gt;Node4 -->
<g id="edge33_Node000019_Node000004" class="edge">
<title>Node19&#45;&gt;Node4</title>
<g id="a_edge33_Node000019_Node000004"><a xlink:title=" ">
<path fill="none" stroke="#63b8ff" d="M332.64,-189.89C291.52,-179.1 228.99,-162.7 184.47,-151.02"/>
<polygon fill="#63b8ff" stroke="#63b8ff" points="331.79,-193.28 342.35,-192.44 333.56,-186.51 331.79,-193.28"/>
</a>
</g>
</g>
<!-- Node19&#45;&gt;Node5 -->
<g id="edge34_Node000019_Node000005" class="edge">
<title>Node19&#45;&gt;Node5</title>
<g id="a_edge34_Node000019_Node000005"><a xlink:title=" ">
<path fill="none" stroke="#63b8ff" d="M395.17,-186.33C412.43,-173.78 436.69,-156.13 451.04,-145.7"/>
<polygon fill="#63b8ff" stroke="#63b8ff" points="392.9,-183.66 386.87,-192.37 397.01,-189.32 392.9,-183.66"/>
</a>
</g>
</g>
<!-- Node19&#45;&gt;Node6 -->
<g id="edge35_Node000019_Node000006" class="edge">
<title>Node19&#45;&gt;Node6</title>
<g id="a_edge35_Node000019_Node000006"><a xlink:title=" ">
<path fill="none" stroke="#63b8ff" d="M374.81,-182.22C375.7,-163.9 380.07,-136.6 397,-121 426.27,-94.04 533.52,-80.83 602.28,-75.01"/>
<polygon fill="#63b8ff" stroke="#63b8ff" points="371.31,-182.21 374.63,-192.27 378.31,-182.34 371.31,-182.21"/>
</a>
</g>
</g>
<!-- Node19&#45;&gt;Node7 -->
<g id="edge36_Node000019_Node000007" class="edge">
<title>Node19&#45;&gt;Node7</title>
<g id="a_edge36_Node000019_Node000007"><a xlink:title=" ">
<path fill="none" stroke="#63b8ff" d="M368.14,-182.49C363.07,-166.06 357.99,-141.55 364,-121 368.69,-104.98 380.26,-89.21 388.12,-79.79"/>
<polygon fill="#63b8ff" stroke="#63b8ff" points="364.98,-184.08 371.52,-192.42 371.61,-181.83 364.98,-184.08"/>
</a>
</g>
</g>
<!-- Node19&#45;&gt;Node8 -->
<g id="edge37_Node000019_Node000008" class="edge">
<title>Node19&#45;&gt;Node8</title>
<g id="a_edge37_Node000019_Node000008"><a xlink:title=" ">
<path fill="none" stroke="#63b8ff" d="M339.55,-189.01C314.24,-179.91 279.74,-166.36 251,-151 230.13,-139.84 228.18,-131.57 207,-121 176.85,-105.95 141.1,-93.67 112.4,-85.05"/>
<polygon fill="#63b8ff" stroke="#63b8ff" points="338.51,-192.36 349.1,-192.4 340.84,-185.76 338.51,-192.36"/>
</a>
</g>
</g>
<!-- Node19&#45;&gt;Node9 -->
<g id="edge38_Node000019_Node000009" class="edge">
<title>Node19&#45;&gt;Node9</title>
<g id="a_edge38_Node000019_Node000009"><a xlink:title=" ">
<path fill="none" stroke="#63b8ff" d="M412.51,-189.4C453.33,-176.78 517.65,-156.89 554.2,-145.6"/>
<polygon fill="#63b8ff" stroke="#63b8ff" points="411.44,-186.07 402.92,-192.37 413.5,-192.76 411.44,-186.07"/>
</a>
</g>
</g>
<!-- Node19&#45;&gt;Node11 -->
<g id="edge39_Node000019_Node000011" class="edge">
<title>Node19&#45;&gt;Node11</title>
<g id="a_edge39_Node000019_Node000011"><a xlink:title=" ">
<path fill="none" stroke="#63b8ff" d="M347.97,-187.73C330.22,-178.48 306.88,-165.27 288,-151 257.86,-128.21 227.29,-95.18 213.53,-79.67"/>
<polygon fill="#63b8ff" stroke="#63b8ff" points="346.7,-191.01 357.19,-192.44 349.88,-184.77 346.7,-191.01"/>
</a>
</g>
</g>
<!-- Node19&#45;&gt;Node12 -->
<g id="edge40_Node000019_Node000012" class="edge">
<title>Node19&#45;&gt;Node12</title>
<g id="a_edge40_Node000019_Node000012"><a xlink:title=" ">
<path fill="none" stroke="#63b8ff" d="M444.53,-191.22C497.59,-182.9 572.17,-169.38 636,-151 671.29,-140.84 678.04,-132.25 713,-121 766.4,-103.82 829.49,-88.53 869.13,-79.51"/>
<polygon fill="#63b8ff" stroke="#63b8ff" points="443.9,-187.77 434.55,-192.76 444.97,-194.69 443.9,-187.77"/>
</a>
</g>
</g>
<!-- Node19&#45;&gt;Node13 -->
<g id="edge41_Node000019_Node000013" class="edge">
<title>Node19&#45;&gt;Node13</title>
<g id="a_edge41_Node000019_Node000013"><a xlink:title=" ">
<path fill="none" stroke="#63b8ff" d="M359.28,-184.56C333.02,-155.14 286.38,-93 321,-55 348.87,-24.41 621.64,-14.49 741.73,-11.59"/>
<polygon fill="#63b8ff" stroke="#63b8ff" points="357.02,-187.27 366.36,-192.27 362.17,-182.54 357.02,-187.27"/>
</a>
</g>
</g>
<!-- Node20&#45;&gt;Node12 -->
<g id="edge44_Node000020_Node000012" class="edge">
<title>Node20&#45;&gt;Node12</title>
<g id="a_edge44_Node000020_Node000012"><a xlink:title=" ">
<path fill="none" stroke="#63b8ff" d="M1048.67,-183.32C1056.74,-165.9 1065.02,-139.31 1052,-121 1039.73,-103.75 986.55,-88.53 948.39,-79.54"/>
<polygon fill="#63b8ff" stroke="#63b8ff" points="1045.48,-181.88 1044.1,-192.38 1051.73,-185.03 1045.48,-181.88"/>
</a>
</g>
</g>
<!-- Node21&#45;&gt;Node22 -->
<g id="edge46_Node000021_Node000022" class="edge">
<title>Node21&#45;&gt;Node22</title>
<g id="a_edge46_Node000021_Node000022"><a xlink:title=" ">
<path fill="none" stroke="#63b8ff" d="M1221.08,-185.33C1208.5,-172.94 1191.38,-156.09 1181.04,-145.91"/>
<polygon fill="#63b8ff" stroke="#63b8ff" points="1218.65,-187.85 1228.23,-192.37 1223.56,-182.86 1218.65,-187.85"/>
</a>
</g>
</g>
<!-- Node22&#45;&gt;Node13 -->
<g id="edge47_Node000022_Node000013" class="edge">
<title>Node22&#45;&gt;Node13</title>
<g id="a_edge47_Node000022_Node000013"><a xlink:title=" ">
<path fill="none" stroke="#63b8ff" d="M1157.1,-118.84C1138.92,-100.23 1106.34,-70.25 1072,-55 1001.2,-23.56 911.27,-14.06 854.16,-11.34"/>
<polygon fill="#63b8ff" stroke="#63b8ff" points="1154.75,-121.45 1164.18,-126.28 1159.82,-116.62 1154.75,-121.45"/>
</a>
</g>
</g>
<!-- Node22&#45;&gt;Node16 -->
<g id="edge48_Node000022_Node000016" class="edge">
<title>Node22&#45;&gt;Node16</title>
<g id="a_edge48_Node000022_Node000016"><a xlink:title=" ">
<path fill="none" stroke="#63b8ff" d="M1142.57,-122.36C1113.21,-109.75 1068.88,-90.71 1043.25,-79.7"/>
<polygon fill="#63b8ff" stroke="#63b8ff" points="1141.34,-125.64 1151.91,-126.37 1144.1,-119.21 1141.34,-125.64"/>
</a>
</g>
</g>
</g>
</svg>
