<?xml version="1.0" encoding="UTF-8" standalone="no"?>
<!DOCTYPE svg PUBLIC "-//W3C//DTD SVG 1.1//EN"
 "http://www.w3.org/Graphics/SVG/1.1/DTD/svg11.dtd">
<!-- Generated by graphviz version 2.43.0 (0)
 -->
<!-- Title: epoch_context.hpp Pages: 1 -->
<svg width="1577pt" height="390pt"
 viewBox="0.00 0.00 1577.17 390.00" xmlns="http://www.w3.org/2000/svg" xmlns:xlink="http://www.w3.org/1999/xlink">
<g id="graph0" class="graph" transform="scale(1 1) rotate(0) translate(4 386)">
<title>epoch_context.hpp</title>
<!-- Node1 -->
<g id="Node000001" class="node">
<title>Node1</title>
<g id="a_Node000001"><a xlink:title="Manages one “generation” of write/read ordering in an Async&lt;T&gt;">
<polygon fill="#999999" stroke="#666666" points="737.17,-382 628.17,-382 628.17,-363 737.17,-363 737.17,-382"/>
<text text-anchor="middle" x="682.67" y="-370" font-family="Helvetica,sans-Serif" font-size="10.00">epoch_context.hpp</text>
</a>
</g>
</g>
<!-- Node2 -->
<g id="Node000002" class="node">
<title>Node2</title>
<g id="a_Node000002"><a xlink:href="buffers_8hpp.html" target="_top" xlink:title="Awaitable gates for Async&lt;T&gt;: snapshot‐reads and in‐place writes.">
<polygon fill="white" stroke="#666666" points="562.17,-327 491.17,-327 491.17,-308 562.17,-308 562.17,-327"/>
<text text-anchor="middle" x="526.67" y="-315" font-family="Helvetica,sans-Serif" font-size="10.00">buffers.hpp</text>
</a>
</g>
</g>
<!-- Node1&#45;&gt;Node2 -->
<g id="edge1_Node000001_Node000002" class="edge">
<title>Node1&#45;&gt;Node2</title>
<g id="a_edge1_Node000001_Node000002"><a xlink:title=" ">
<path fill="none" stroke="#63b8ff" d="M647.85,-359.67C618.75,-349.79 577.97,-335.93 551.93,-327.08"/>
<polygon fill="#63b8ff" stroke="#63b8ff" points="647.01,-363.08 657.6,-362.98 649.26,-356.45 647.01,-363.08"/>
</a>
</g>
</g>
<!-- Node24 -->
<g id="Node000024" class="node">
<title>Node24</title>
<g id="a_Node000024"><a xlink:href="epoch__queue_8hpp.html" target="_top" xlink:title="FIFO queue enforcing writer→readers→next&#45;writer ordering.">
<polygon fill="white" stroke="#666666" points="733.67,-327 631.67,-327 631.67,-308 733.67,-308 733.67,-327"/>
<text text-anchor="middle" x="682.67" y="-315" font-family="Helvetica,sans-Serif" font-size="10.00">epoch_queue.hpp</text>
</a>
</g>
</g>
<!-- Node1&#45;&gt;Node24 -->
<g id="edge56_Node000001_Node000024" class="edge">
<title>Node1&#45;&gt;Node24</title>
<g id="a_edge56_Node000001_Node000024"><a xlink:title=" ">
<path fill="none" stroke="#63b8ff" d="M682.67,-352.66C682.67,-343.93 682.67,-333.99 682.67,-327.09"/>
<polygon fill="#63b8ff" stroke="#63b8ff" points="679.17,-352.75 682.67,-362.75 686.17,-352.75 679.17,-352.75"/>
</a>
</g>
</g>
<!-- Node25 -->
<g id="Node000025" class="node">
<title>Node25</title>
<g id="a_Node000025"><a xlink:href="task__registry__debug_8cpp.html" target="_top" xlink:title=" ">
<polygon fill="white" stroke="#666666" points="887.67,-327 751.67,-327 751.67,-308 887.67,-308 887.67,-327"/>
<text text-anchor="middle" x="819.67" y="-315" font-family="Helvetica,sans-Serif" font-size="10.00">task_registry_debug.cpp</text>
</a>
</g>
</g>
<!-- Node1&#45;&gt;Node25 -->
<g id="edge59_Node000001_Node000025" class="edge">
<title>Node1&#45;&gt;Node25</title>
<g id="a_edge59_Node000001_Node000025"><a xlink:title=" ">
<path fill="none" stroke="#63b8ff" d="M714.23,-359.29C739.62,-349.47 774.67,-335.91 797.26,-327.17"/>
<polygon fill="#63b8ff" stroke="#63b8ff" points="712.74,-356.11 704.68,-362.98 715.27,-362.64 712.74,-356.11"/>
</a>
</g>
</g>
<!-- Node3 -->
<g id="Node000003" class="node">
<title>Node3</title>
<g id="a_Node000003"><a xlink:href="async_8hpp.html" target="_top" xlink:title="The Async&lt;T&gt; container: coroutine‐safe asynchronous read/write.">
<polygon fill="white" stroke="#666666" points="715.67,-272 649.67,-272 649.67,-253 715.67,-253 715.67,-272"/>
<text text-anchor="middle" x="682.67" y="-260" font-family="Helvetica,sans-Serif" font-size="10.00">async.hpp</text>
</a>
</g>
</g>
<!-- Node2&#45;&gt;Node3 -->
<g id="edge2_Node000002_Node000003" class="edge">
<title>Node2&#45;&gt;Node3</title>
<g id="a_edge2_Node000002_Node000003"><a xlink:title=" ">
<path fill="none" stroke="#63b8ff" d="M561.49,-304.67C590.58,-294.79 631.37,-280.93 657.41,-272.08"/>
<polygon fill="#63b8ff" stroke="#63b8ff" points="560.07,-301.45 551.73,-307.98 562.33,-308.08 560.07,-301.45"/>
</a>
</g>
</g>
<!-- Node11 -->
<g id="Node000011" class="node">
<title>Node11</title>
<g id="a_Node000011"><a xlink:href="async__impl_8hpp.html" target="_top" xlink:title="Inline implementation of Async&lt;T&gt; helpers and task await transforms.">
<polygon fill="white" stroke="#666666" points="293.17,-79.5 200.17,-79.5 200.17,-60.5 293.17,-60.5 293.17,-79.5"/>
<text text-anchor="middle" x="246.67" y="-67.5" font-family="Helvetica,sans-Serif" font-size="10.00">async_impl.hpp</text>
</a>
</g>
</g>
<!-- Node2&#45;&gt;Node11 -->
<g id="edge51_Node000002_Node000011" class="edge">
<title>Node2&#45;&gt;Node11</title>
<g id="a_edge51_Node000002_Node000011"><a xlink:title=" ">
<path fill="none" stroke="#63b8ff" d="M480.79,-314.82C366.06,-309.55 71.71,-289.12 12.67,-217 -46.56,-144.66 120.68,-97.74 203.38,-79.54"/>
<polygon fill="#63b8ff" stroke="#63b8ff" points="480.85,-318.32 490.99,-315.27 481.16,-311.33 480.85,-318.32"/>
</a>
</g>
</g>
<!-- Node15 -->
<g id="Node000015" class="node">
<title>Node15</title>
<g id="a_Node000015"><a xlink:href="async__tbb__reduction__example_8cpp.html" target="_top" xlink:title="Example of using uni20 coroutines with the TbbScheduler to parallelize a map–reduce computation.">
<polygon fill="white" stroke="#666666" points="139.17,-217 22.17,-217 22.17,-187 139.17,-187 139.17,-217"/>
<text text-anchor="start" x="30.17" y="-205" font-family="Helvetica,sans-Serif" font-size="10.00">async_tbb_reduction</text>
<text text-anchor="middle" x="80.67" y="-194" font-family="Helvetica,sans-Serif" font-size="10.00">_example.cpp</text>
</a>
</g>
</g>
<!-- Node2&#45;&gt;Node15 -->
<g id="edge52_Node000002_Node000015" class="edge">
<title>Node2&#45;&gt;Node15</title>
<g id="a_edge52_Node000002_Node000015"><a xlink:title=" ">
<path fill="none" stroke="#63b8ff" d="M483.21,-305.44C401.68,-284.69 225.89,-239.96 136.02,-217.09"/>
<polygon fill="#63b8ff" stroke="#63b8ff" points="482.59,-308.89 493.15,-307.97 484.32,-302.11 482.59,-308.89"/>
</a>
</g>
</g>
<!-- Node18 -->
<g id="Node000018" class="node">
<title>Node18</title>
<g id="a_Node000018"><a xlink:href="awaiters_8hpp.html" target="_top" xlink:title="Utilities for awaiting on Async&lt;T&gt;: co_await overload, all(), try_await().">
<polygon fill="white" stroke="#666666" points="566.67,-211.5 486.67,-211.5 486.67,-192.5 566.67,-192.5 566.67,-211.5"/>
<text text-anchor="middle" x="526.67" y="-199.5" font-family="Helvetica,sans-Serif" font-size="10.00">awaiters.hpp</text>
</a>
</g>
</g>
<!-- Node2&#45;&gt;Node18 -->
<g id="edge53_Node000002_Node000018" class="edge">
<title>Node2&#45;&gt;Node18</title>
<g id="a_edge53_Node000002_Node000018"><a xlink:title=" ">
<path fill="none" stroke="#63b8ff" d="M526.67,-297.65C526.67,-272.74 526.67,-229.88 526.67,-211.63"/>
<polygon fill="#63b8ff" stroke="#63b8ff" points="523.17,-297.97 526.67,-307.97 530.17,-297.97 523.17,-297.97"/>
</a>
</g>
</g>
<!-- Node21 -->
<g id="Node000021" class="node">
<title>Node21</title>
<g id="a_Node000021"><a xlink:href="future__value_8hpp.html" target="_top" xlink:title="Write&#45;once async wrappers (FutureValue and Defer) built on Async&lt;T&gt;.">
<polygon fill="white" stroke="#666666" points="256.17,-211.5 157.17,-211.5 157.17,-192.5 256.17,-192.5 256.17,-211.5"/>
<text text-anchor="middle" x="206.67" y="-199.5" font-family="Helvetica,sans-Serif" font-size="10.00">future_value.hpp</text>
</a>
</g>
</g>
<!-- Node2&#45;&gt;Node21 -->
<g id="edge54_Node000002_Node000021" class="edge">
<title>Node2&#45;&gt;Node21</title>
<g id="a_edge54_Node000002_Node000021"><a xlink:title=" ">
<path fill="none" stroke="#63b8ff" d="M492.88,-304.52C428.04,-281.52 287.57,-231.69 231,-211.63"/>
<polygon fill="#63b8ff" stroke="#63b8ff" points="492.02,-307.92 502.62,-307.97 494.36,-301.33 492.02,-307.92"/>
</a>
</g>
</g>
<!-- Node22 -->
<g id="Node000022" class="node">
<title>Node22</title>
<g id="a_Node000022"><a xlink:href="reverse__value_8hpp.html" target="_top" xlink:title="Reverse&#45;mode gradient accumulation channel built on reverse epoch queues.">
<polygon fill="white" stroke="#666666" points="1569.17,-211.5 1462.17,-211.5 1462.17,-192.5 1569.17,-192.5 1569.17,-211.5"/>
<text text-anchor="middle" x="1515.67" y="-199.5" font-family="Helvetica,sans-Serif" font-size="10.00">reverse_value.hpp</text>
</a>
</g>
</g>
<!-- Node2&#45;&gt;Node22 -->
<g id="edge55_Node000002_Node000022" class="edge">
<title>Node2&#45;&gt;Node22</title>
<g id="a_edge55_Node000002_Node000022"><a xlink:title=" ">
<path fill="none" stroke="#63b8ff" d="M572.4,-311.67C744.74,-293.44 1349.56,-229.23 1435.67,-217 1446.84,-215.41 1458.84,-213.45 1470.06,-211.5"/>
<polygon fill="#63b8ff" stroke="#63b8ff" points="571.96,-308.2 562.39,-312.73 572.7,-315.16 571.96,-308.2"/>
</a>
</g>
</g>
<!-- Node4 -->
<g id="Node000004" class="node">
<title>Node4</title>
<g id="a_Node000004"><a xlink:href="ad__example_8cpp.html" target="_top" xlink:title=" ">
<polygon fill="white" stroke="#666666" points="693.17,-145.5 596.17,-145.5 596.17,-126.5 693.17,-126.5 693.17,-145.5"/>
<text text-anchor="middle" x="644.67" y="-133.5" font-family="Helvetica,sans-Serif" font-size="10.00">ad_example.cpp</text>
</a>
</g>
</g>
<!-- Node3&#45;&gt;Node4 -->
<g id="edge3_Node000003_Node000004" class="edge">
<title>Node3&#45;&gt;Node4</title>
<g id="a_edge3_Node000003_Node000004"><a xlink:title=" ">
<path fill="none" stroke="#63b8ff" d="M676.85,-243.2C674.31,-235.17 671.32,-225.62 668.67,-217 660.75,-191.22 651.67,-160.67 647.29,-145.89"/>
<polygon fill="#63b8ff" stroke="#63b8ff" points="673.59,-244.5 679.95,-252.98 680.26,-242.39 673.59,-244.5"/>
</a>
</g>
</g>
<!-- Node5 -->
<g id="Node000005" class="node">
<title>Node5</title>
<g id="a_Node000005"><a xlink:href="async__buffer__semantics__example_8cpp.html" target="_top" xlink:title=" ">
<polygon fill="white" stroke="#666666" points="1291.67,-151 1157.67,-151 1157.67,-121 1291.67,-121 1291.67,-151"/>
<text text-anchor="start" x="1165.67" y="-139" font-family="Helvetica,sans-Serif" font-size="10.00">async_buffer_semantics</text>
<text text-anchor="middle" x="1224.67" y="-128" font-family="Helvetica,sans-Serif" font-size="10.00">_example.cpp</text>
</a>
</g>
</g>
<!-- Node3&#45;&gt;Node5 -->
<g id="edge4_Node000003_Node000005" class="edge">
<title>Node3&#45;&gt;Node5</title>
<g id="a_edge4_Node000003_Node000005"><a xlink:title=" ">
<path fill="none" stroke="#63b8ff" d="M726.19,-255.95C779.65,-248.76 872.93,-234.98 951.67,-217 1034.48,-198.09 1129.25,-168.48 1182.53,-151.08"/>
<polygon fill="#63b8ff" stroke="#63b8ff" points="725.5,-252.51 716.05,-257.3 726.42,-259.45 725.5,-252.51"/>
</a>
</g>
</g>
<!-- Node6 -->
<g id="Node000006" class="node">
<title>Node6</title>
<g id="a_Node000006"><a xlink:href="async__example_8cpp.html" target="_top" xlink:title=" ">
<polygon fill="white" stroke="#666666" points="578.17,-145.5 465.17,-145.5 465.17,-126.5 578.17,-126.5 578.17,-145.5"/>
<text text-anchor="middle" x="521.67" y="-133.5" font-family="Helvetica,sans-Serif" font-size="10.00">async_example.cpp</text>
</a>
</g>
</g>
<!-- Node3&#45;&gt;Node6 -->
<g id="edge5_Node000003_Node000006" class="edge">
<title>Node3&#45;&gt;Node6</title>
<g id="a_edge5_Node000003_Node000006"><a xlink:title=" ">
<path fill="none" stroke="#63b8ff" d="M663.4,-246.6C629.42,-220.33 559.89,-166.56 532.81,-145.62"/>
<polygon fill="#63b8ff" stroke="#63b8ff" points="661.55,-249.59 671.6,-252.94 665.83,-244.06 661.55,-249.59"/>
</a>
</g>
</g>
<!-- Node7 -->
<g id="Node000007" class="node">
<title>Node7</title>
<g id="a_Node000007"><a xlink:href="async__example2_8cpp.html" target="_top" xlink:title=" ">
<polygon fill="white" stroke="#666666" points="901.17,-79.5 782.17,-79.5 782.17,-60.5 901.17,-60.5 901.17,-79.5"/>
<text text-anchor="middle" x="841.67" y="-67.5" font-family="Helvetica,sans-Serif" font-size="10.00">async_example2.cpp</text>
</a>
</g>
</g>
<!-- Node3&#45;&gt;Node7 -->
<g id="edge6_Node000003_Node000007" class="edge">
<title>Node3&#45;&gt;Node7</title>
<g id="a_edge6_Node000003_Node000007"><a xlink:title=" ">
<path fill="none" stroke="#63b8ff" d="M726.06,-260.83C854.66,-257.82 1229.22,-241.32 1300.67,-151 1308.94,-140.54 1309.65,-130.85 1300.67,-121 1271.34,-88.85 953.72,-91.34 910.67,-85 900.63,-83.52 889.85,-81.53 879.86,-79.52"/>
<polygon fill="#63b8ff" stroke="#63b8ff" points="725.73,-257.34 715.81,-261.05 725.88,-264.33 725.73,-257.34"/>
</a>
</g>
</g>
<!-- Node8 -->
<g id="Node000008" class="node">
<title>Node8</title>
<g id="a_Node000008"><a xlink:href="async__fib__example_8cpp.html" target="_top" xlink:title=" ">
<polygon fill="white" stroke="#666666" points="1189.17,-79.5 1058.17,-79.5 1058.17,-60.5 1189.17,-60.5 1189.17,-79.5"/>
<text text-anchor="middle" x="1123.67" y="-67.5" font-family="Helvetica,sans-Serif" font-size="10.00">async_fib_example.cpp</text>
</a>
</g>
</g>
<!-- Node3&#45;&gt;Node8 -->
<g id="edge7_Node000003_Node000008" class="edge">
<title>Node3&#45;&gt;Node8</title>
<g id="a_edge7_Node000003_Node000008"><a xlink:title=" ">
<path fill="none" stroke="#63b8ff" d="M725.89,-259.93C852.83,-255.06 1218.75,-239.25 1267.67,-217 1315.03,-195.46 1366.94,-161.81 1334.67,-121 1329.37,-114.3 1225.52,-91.97 1165.53,-79.54"/>
<polygon fill="#63b8ff" stroke="#63b8ff" points="725.62,-256.43 715.76,-260.31 725.89,-263.43 725.62,-256.43"/>
</a>
</g>
</g>
<!-- Node9 -->
<g id="Node000009" class="node">
<title>Node9</title>
<g id="a_Node000009"><a xlink:href="async__kernel__shapes__example_8cpp.html" target="_top" xlink:title=" ">
<polygon fill="white" stroke="#666666" points="1039.67,-85 919.67,-85 919.67,-55 1039.67,-55 1039.67,-85"/>
<text text-anchor="start" x="927.67" y="-73" font-family="Helvetica,sans-Serif" font-size="10.00">async_kernel_shapes</text>
<text text-anchor="middle" x="979.67" y="-62" font-family="Helvetica,sans-Serif" font-size="10.00">_example.cpp</text>
</a>
</g>
</g>
<!-- Node3&#45;&gt;Node9 -->
<g id="edge8_Node000003_Node000009" class="edge">
<title>Node3&#45;&gt;Node9</title>
<g id="a_edge8_Node000003_Node000009"><a xlink:title=" ">
<path fill="none" stroke="#63b8ff" d="M725.85,-260.69C836.52,-258.17 1127.91,-248.64 1218.67,-217 1268.6,-199.59 1292.72,-197.62 1317.67,-151 1357.34,-76.86 1222.02,-113.78 1049.67,-85 1046.49,-84.47 1043.23,-83.9 1039.95,-83.31"/>
<polygon fill="#63b8ff" stroke="#63b8ff" points="725.64,-257.19 715.72,-260.91 725.8,-264.19 725.64,-257.19"/>
</a>
</g>
</g>
<!-- Node10 -->
<g id="Node000010" class="node">
<title>Node10</title>
<g id="a_Node000010"><a xlink:href="async__ops_8hpp.html" target="_top" xlink:title="Concepts and helpers for composing Async expressions.">
<polygon fill="white" stroke="#666666" points="839.17,-145.5 750.17,-145.5 750.17,-126.5 839.17,-126.5 839.17,-145.5"/>
<text text-anchor="middle" x="794.67" y="-133.5" font-family="Helvetica,sans-Serif" font-size="10.00">async_ops.hpp</text>
</a>
</g>
</g>
<!-- Node3&#45;&gt;Node10 -->
<g id="edge9_Node000003_Node000010" class="edge">
<title>Node3&#45;&gt;Node10</title>
<g id="a_edge9_Node000003_Node000010"><a xlink:title=" ">
<path fill="none" stroke="#63b8ff" d="M725.79,-249.95C743.63,-243.11 763.06,-232.63 775.67,-217 792.88,-195.67 794.96,-161.33 794.93,-145.5"/>
<polygon fill="#63b8ff" stroke="#63b8ff" points="724.35,-246.75 716.09,-253.38 726.69,-253.34 724.35,-246.75"/>
</a>
</g>
</g>
<!-- Node12 -->
<g id="Node000012" class="node">
<title>Node12</title>
<g id="a_Node000012"><a xlink:href="async__ops__example_8cpp.html" target="_top" xlink:title=" ">
<polygon fill="white" stroke="#666666" points="725.67,-79.5 589.67,-79.5 589.67,-60.5 725.67,-60.5 725.67,-79.5"/>
<text text-anchor="middle" x="657.67" y="-67.5" font-family="Helvetica,sans-Serif" font-size="10.00">async_ops_example.cpp</text>
</a>
</g>
</g>
<!-- Node3&#45;&gt;Node12 -->
<g id="edge18_Node000003_Node000012" class="edge">
<title>Node3&#45;&gt;Node12</title>
<g id="a_edge18_Node000003_Node000012"><a xlink:title=" ">
<path fill="none" stroke="#63b8ff" d="M639.31,-256.63C586.77,-249.97 502.24,-236.57 477.67,-217 452.32,-196.81 453.73,-182.63 446.67,-151 443.76,-137.99 438.4,-131.46 446.67,-121 464.33,-98.67 534.77,-85.27 589.47,-78.05"/>
<polygon fill="#63b8ff" stroke="#63b8ff" points="639.01,-260.12 649.36,-257.87 639.86,-253.17 639.01,-260.12"/>
</a>
</g>
</g>
<!-- Node13 -->
<g id="Node000013" class="node">
<title>Node13</title>
<g id="a_Node000013"><a xlink:href="future__example_8cpp.html" target="_top" xlink:title=" ">
<polygon fill="white" stroke="#666666" points="513.67,-79.5 399.67,-79.5 399.67,-60.5 513.67,-60.5 513.67,-79.5"/>
<text text-anchor="middle" x="456.67" y="-67.5" font-family="Helvetica,sans-Serif" font-size="10.00">future_example.cpp</text>
</a>
</g>
</g>
<!-- Node3&#45;&gt;Node13 -->
<g id="edge43_Node000003_Node000013" class="edge">
<title>Node3&#45;&gt;Node13</title>
<g id="a_edge43_Node000003_Node000013"><a xlink:title=" ">
<path fill="none" stroke="#63b8ff" d="M639.16,-258.85C579.48,-254.3 476.65,-242.86 450.67,-217 420.15,-186.63 429.89,-163.35 437.67,-121 440.45,-105.84 447.61,-89.32 452.31,-79.57"/>
<polygon fill="#63b8ff" stroke="#63b8ff" points="639.18,-262.36 649.41,-259.6 639.69,-255.38 639.18,-262.36"/>
</a>
</g>
</g>
<!-- Node3&#45;&gt;Node15 -->
<g id="edge19_Node000003_Node000015" class="edge">
<title>Node3&#45;&gt;Node15</title>
<g id="a_edge19_Node000003_Node000015"><a xlink:title=" ">
<path fill="none" stroke="#63b8ff" d="M639.4,-259.71C548.13,-255.53 329.32,-243.43 147.67,-217 144.96,-216.61 142.2,-216.17 139.42,-215.7"/>
<polygon fill="#63b8ff" stroke="#63b8ff" points="639.49,-263.22 649.63,-260.17 639.8,-256.22 639.49,-263.22"/>
</a>
</g>
</g>
<!-- Node16 -->
<g id="Node000016" class="node">
<title>Node16</title>
<g id="a_Node000016"><a xlink:href="async__toys_8hpp.html" target="_top" xlink:title="Small async helper operations used in tests and examples.">
<polygon fill="white" stroke="#666666" points="987.67,-145.5 895.67,-145.5 895.67,-126.5 987.67,-126.5 987.67,-145.5"/>
<text text-anchor="middle" x="941.67" y="-133.5" font-family="Helvetica,sans-Serif" font-size="10.00">async_toys.hpp</text>
</a>
</g>
</g>
<!-- Node3&#45;&gt;Node16 -->
<g id="edge20_Node000003_Node000016" class="edge">
<title>Node3&#45;&gt;Node16</title>
<g id="a_edge20_Node000003_Node000016"><a xlink:title=" ">
<path fill="none" stroke="#63b8ff" d="M682.52,-242.32C683.47,-225.37 687.65,-201.2 702.67,-187 716.59,-173.84 830,-154.34 895.46,-144.01"/>
<polygon fill="#63b8ff" stroke="#63b8ff" points="679.01,-242.61 682.28,-252.68 686.01,-242.77 679.01,-242.61"/>
</a>
</g>
</g>
<!-- Node3&#45;&gt;Node18 -->
<g id="edge25_Node000003_Node000018" class="edge">
<title>Node3&#45;&gt;Node18</title>
<g id="a_edge25_Node000003_Node000018"><a xlink:title=" ">
<path fill="none" stroke="#63b8ff" d="M650.34,-249.38C620.18,-238.07 575.96,-221.49 549.38,-211.52"/>
<polygon fill="#63b8ff" stroke="#63b8ff" points="649.39,-252.76 659.98,-252.99 651.85,-246.21 649.39,-252.76"/>
</a>
</g>
</g>
<!-- Node19 -->
<g id="Node000019" class="node">
<title>Node19</title>
<g id="a_Node000019"><a xlink:href="bug_8cpp.html" target="_top" xlink:title=" ">
<polygon fill="white" stroke="#666666" points="766.17,-211.5 711.17,-211.5 711.17,-192.5 766.17,-192.5 766.17,-211.5"/>
<text text-anchor="middle" x="738.67" y="-199.5" font-family="Helvetica,sans-Serif" font-size="10.00">bug.cpp</text>
</a>
</g>
</g>
<!-- Node3&#45;&gt;Node19 -->
<g id="edge31_Node000003_Node000019" class="edge">
<title>Node3&#45;&gt;Node19</title>
<g id="a_edge31_Node000003_Node000019"><a xlink:title=" ">
<path fill="none" stroke="#63b8ff" d="M697.9,-245.59C708.35,-234.67 721.84,-220.58 730.37,-211.67"/>
<polygon fill="#63b8ff" stroke="#63b8ff" points="695.32,-243.22 690.93,-252.87 700.37,-248.06 695.32,-243.22"/>
</a>
</g>
</g>
<!-- Node20 -->
<g id="Node000020" class="node">
<title>Node20</title>
<g id="a_Node000020"><a xlink:href="debug__scheduler_8hpp.html" target="_top" xlink:title="Coroutine scheduler for AsyncTask.">
<polygon fill="white" stroke="#666666" points="942.17,-211.5 823.17,-211.5 823.17,-192.5 942.17,-192.5 942.17,-211.5"/>
<text text-anchor="middle" x="882.67" y="-199.5" font-family="Helvetica,sans-Serif" font-size="10.00">debug_scheduler.hpp</text>
</a>
</g>
</g>
<!-- Node3&#45;&gt;Node20 -->
<g id="edge32_Node000003_Node000020" class="edge">
<title>Node3&#45;&gt;Node20</title>
<g id="a_edge32_Node000003_Node000020"><a xlink:title=" ">
<path fill="none" stroke="#63b8ff" d="M721.62,-250.11C760.3,-238.79 818.73,-221.7 853.55,-211.52"/>
<polygon fill="#63b8ff" stroke="#63b8ff" points="720.36,-246.83 711.75,-252.99 722.33,-253.55 720.36,-246.83"/>
</a>
</g>
</g>
<!-- Node3&#45;&gt;Node21 -->
<g id="edge44_Node000003_Node000021" class="edge">
<title>Node3&#45;&gt;Node21</title>
<g id="a_edge44_Node000003_Node000021"><a xlink:title=" ">
<path fill="none" stroke="#63b8ff" d="M639.63,-258.39C564.44,-252.61 404.44,-238.79 270.67,-217 261.46,-215.5 251.59,-213.53 242.42,-211.53"/>
<polygon fill="#63b8ff" stroke="#63b8ff" points="639.42,-261.88 649.66,-259.15 639.95,-254.9 639.42,-261.88"/>
</a>
</g>
</g>
<!-- Node3&#45;&gt;Node22 -->
<g id="edge46_Node000003_Node000022" class="edge">
<title>Node3&#45;&gt;Node22</title>
<g id="a_edge46_Node000003_Node000022"><a xlink:title=" ">
<path fill="none" stroke="#63b8ff" d="M726.36,-261.17C843.63,-259.81 1174.9,-252.82 1447.67,-217 1457.95,-215.65 1468.99,-213.63 1479.13,-211.54"/>
<polygon fill="#63b8ff" stroke="#63b8ff" points="725.97,-257.67 716.01,-261.28 726.05,-264.67 725.97,-257.67"/>
</a>
</g>
</g>
<!-- Node23 -->
<g id="Node000023" class="node">
<title>Node23</title>
<g id="a_Node000023"><a xlink:href="var_8hpp.html" target="_top" xlink:title=" ">
<polygon fill="white" stroke="#666666" points="1477.17,-145.5 1424.17,-145.5 1424.17,-126.5 1477.17,-126.5 1477.17,-145.5"/>
<text text-anchor="middle" x="1450.67" y="-133.5" font-family="Helvetica,sans-Serif" font-size="10.00">var.hpp</text>
</a>
</g>
</g>
<!-- Node3&#45;&gt;Node23 -->
<g id="edge50_Node000003_Node000023" class="edge">
<title>Node3&#45;&gt;Node23</title>
<g id="a_edge50_Node000003_Node000023"><a xlink:title=" ">
<path fill="none" stroke="#63b8ff" d="M726.06,-260.03C878.37,-254.7 1380.96,-235.78 1409.67,-217 1435.14,-200.34 1445.59,-162.64 1449.13,-145.62"/>
<polygon fill="#63b8ff" stroke="#63b8ff" points="725.58,-256.54 715.71,-260.39 725.83,-263.54 725.58,-256.54"/>
</a>
</g>
</g>
<!-- Node10&#45;&gt;Node7 -->
<g id="edge10_Node000010_Node000007" class="edge">
<title>Node10&#45;&gt;Node7</title>
<g id="a_edge10_Node000010_Node000007"><a xlink:title=" ">
<path fill="none" stroke="#63b8ff" d="M806.96,-118.27C815.97,-105.99 827.86,-89.8 835.13,-79.91"/>
<polygon fill="#63b8ff" stroke="#63b8ff" points="804.1,-116.24 801.01,-126.37 809.75,-120.38 804.1,-116.24"/>
</a>
</g>
</g>
<!-- Node10&#45;&gt;Node8 -->
<g id="edge11_Node000010_Node000008" class="edge">
<title>Node10&#45;&gt;Node8</title>
<g id="a_edge11_Node000010_Node000008"><a xlink:title=" ">
<path fill="none" stroke="#63b8ff" d="M848.69,-124.49C913.3,-111.92 1020.2,-91.13 1079.9,-79.51"/>
<polygon fill="#63b8ff" stroke="#63b8ff" points="847.84,-121.09 838.7,-126.44 849.18,-127.96 847.84,-121.09"/>
</a>
</g>
</g>
<!-- Node10&#45;&gt;Node9 -->
<g id="edge14_Node000010_Node000009" class="edge">
<title>Node10&#45;&gt;Node9</title>
<g id="a_edge14_Node000010_Node000009"><a xlink:title=" ">
<path fill="none" stroke="#63b8ff" d="M829.16,-123.07C860.24,-112.31 905.98,-96.49 938.86,-85.12"/>
<polygon fill="#63b8ff" stroke="#63b8ff" points="827.92,-119.79 819.62,-126.37 830.21,-126.41 827.92,-119.79"/>
</a>
</g>
</g>
<!-- Node10&#45;&gt;Node11 -->
<g id="edge12_Node000010_Node000011" class="edge">
<title>Node10&#45;&gt;Node11</title>
<g id="a_edge12_Node000010_Node000011"><a xlink:title=" ">
<path fill="none" stroke="#63b8ff" d="M739.75,-126.26C727.55,-124.42 714.68,-122.57 702.67,-121 553.42,-101.47 376,-83.52 293.35,-75.47"/>
<polygon fill="#63b8ff" stroke="#63b8ff" points="739.39,-129.74 749.8,-127.79 740.44,-122.82 739.39,-129.74"/>
</a>
</g>
</g>
<!-- Node10&#45;&gt;Node12 -->
<g id="edge15_Node000010_Node000012" class="edge">
<title>Node10&#45;&gt;Node12</title>
<g id="a_edge15_Node000010_Node000012"><a xlink:title=" ">
<path fill="none" stroke="#63b8ff" d="M766.9,-122.03C739.9,-109.42 699.65,-90.61 676.29,-79.7"/>
<polygon fill="#63b8ff" stroke="#63b8ff" points="765.65,-125.31 776.19,-126.37 768.61,-118.97 765.65,-125.31"/>
</a>
</g>
</g>
<!-- Node10&#45;&gt;Node13 -->
<g id="edge16_Node000010_Node000013" class="edge">
<title>Node10&#45;&gt;Node13</title>
<g id="a_edge16_Node000010_Node000013"><a xlink:title=" ">
<path fill="none" stroke="#63b8ff" d="M750.18,-124.16C745.29,-123.06 740.38,-121.98 735.67,-121 657.14,-104.66 565.5,-88.86 509.29,-79.53"/>
<polygon fill="#63b8ff" stroke="#63b8ff" points="749.58,-127.62 760.11,-126.46 751.15,-120.8 749.58,-127.62"/>
</a>
</g>
</g>
<!-- Node14 -->
<g id="Node000014" class="node">
<title>Node14</title>
<g id="a_Node000014"><a xlink:href="gradient__solver_8cpp.html" target="_top" xlink:title=" ">
<polygon fill="white" stroke="#666666" points="1337.67,-19 1225.67,-19 1225.67,0 1337.67,0 1337.67,-19"/>
<text text-anchor="middle" x="1281.67" y="-7" font-family="Helvetica,sans-Serif" font-size="10.00">gradient_solver.cpp</text>
</a>
</g>
</g>
<!-- Node10&#45;&gt;Node14 -->
<g id="edge17_Node000010_Node000014" class="edge">
<title>Node10&#45;&gt;Node14</title>
<g id="a_edge17_Node000010_Node000014"><a xlink:title=" ">
<path fill="none" stroke="#63b8ff" d="M782.21,-117.99C770.77,-100.14 757.81,-72.31 773.67,-55 803.72,-22.2 1099.75,-13.47 1225.56,-11.24"/>
<polygon fill="#63b8ff" stroke="#63b8ff" points="779.36,-120.03 787.89,-126.31 785.14,-116.08 779.36,-120.03"/>
</a>
</g>
</g>
<!-- Node11&#45;&gt;Node3 -->
<g id="edge13_Node000011_Node000003" class="edge">
<title>Node11&#45;&gt;Node3</title>
<g id="a_edge13_Node000011_Node000003"><a xlink:title=" ">
<path fill="none" stroke="#63b8ff" d="M261.32,-87.39C289.96,-118.27 356.75,-184.84 427.67,-217 501.95,-250.69 599.08,-258.98 649.32,-260.95"/>
<polygon fill="#63b8ff" stroke="#63b8ff" points="263.62,-84.71 254.29,-79.69 258.45,-89.43 263.62,-84.71"/>
</a>
</g>
</g>
<!-- Node16&#45;&gt;Node7 -->
<g id="edge21_Node000016_Node000007" class="edge">
<title>Node16&#45;&gt;Node7</title>
<g id="a_edge21_Node000016_Node000007"><a xlink:title=" ">
<path fill="none" stroke="#63b8ff" d="M919.56,-120.85C899.9,-108.27 871.79,-90.28 855.26,-79.7"/>
<polygon fill="#63b8ff" stroke="#63b8ff" points="917.87,-123.93 928.18,-126.37 921.65,-118.03 917.87,-123.93"/>
</a>
</g>
</g>
<!-- Node16&#45;&gt;Node13 -->
<g id="edge22_Node000016_Node000013" class="edge">
<title>Node16&#45;&gt;Node13</title>
<g id="a_edge22_Node000016_Node000013"><a xlink:title=" ">
<path fill="none" stroke="#63b8ff" d="M885.36,-126.31C873.26,-124.51 860.54,-122.65 848.67,-121 729.75,-104.47 590.23,-87.17 513.85,-77.88"/>
<polygon fill="#63b8ff" stroke="#63b8ff" points="884.93,-129.79 895.34,-127.82 885.97,-122.87 884.93,-129.79"/>
</a>
</g>
</g>
<!-- Node17 -->
<g id="Node000017" class="node">
<title>Node17</title>
<g id="a_Node000017"><a xlink:href="var__toys_8hpp.html" target="_top" xlink:title="Demonstration reverse&#45;mode helpers built on Var&lt;T&gt;.">
<polygon fill="white" stroke="#666666" points="1287.67,-79.5 1207.67,-79.5 1207.67,-60.5 1287.67,-60.5 1287.67,-79.5"/>
<text text-anchor="middle" x="1247.67" y="-67.5" font-family="Helvetica,sans-Serif" font-size="10.00">var_toys.hpp</text>
</a>
</g>
</g>
<!-- Node16&#45;&gt;Node17 -->
<g id="edge23_Node000016_Node000017" class="edge">
<title>Node16&#45;&gt;Node17</title>
<g id="a_edge23_Node000016_Node000017"><a xlink:title=" ">
<path fill="none" stroke="#63b8ff" d="M997.96,-125.49C1050.23,-116.32 1130.08,-101.44 1198.67,-85 1205.38,-83.39 1212.55,-81.46 1219.28,-79.56"/>
<polygon fill="#63b8ff" stroke="#63b8ff" points="997.14,-122.08 987.89,-127.25 998.34,-128.98 997.14,-122.08"/>
</a>
</g>
</g>
<!-- Node17&#45;&gt;Node14 -->
<g id="edge24_Node000017_Node000014" class="edge">
<title>Node17&#45;&gt;Node14</title>
<g id="a_edge24_Node000017_Node000014"><a xlink:title=" ">
<path fill="none" stroke="#63b8ff" d="M1257.85,-51.48C1264.05,-40.81 1271.7,-27.65 1276.63,-19.17"/>
<polygon fill="#63b8ff" stroke="#63b8ff" points="1254.68,-49.96 1252.68,-60.37 1260.74,-53.48 1254.68,-49.96"/>
</a>
</g>
</g>
<!-- Node18&#45;&gt;Node4 -->
<g id="edge26_Node000018_Node000004" class="edge">
<title>Node18&#45;&gt;Node4</title>
<g id="a_edge26_Node000018_Node000004"><a xlink:title=" ">
<path fill="none" stroke="#63b8ff" d="M551.51,-187.53C574.75,-174.92 608.78,-156.47 628.63,-145.7"/>
<polygon fill="#63b8ff" stroke="#63b8ff" points="549.7,-184.52 542.58,-192.37 553.04,-190.68 549.7,-184.52"/>
</a>
</g>
</g>
<!-- Node18&#45;&gt;Node6 -->
<g id="edge27_Node000018_Node000006" class="edge">
<title>Node18&#45;&gt;Node6</title>
<g id="a_edge27_Node000018_Node000006"><a xlink:title=" ">
<path fill="none" stroke="#63b8ff" d="M525.19,-182.08C524.26,-170.13 523.09,-155.22 522.36,-145.91"/>
<polygon fill="#63b8ff" stroke="#63b8ff" points="521.72,-182.67 525.99,-192.37 528.7,-182.13 521.72,-182.67"/>
</a>
</g>
</g>
<!-- Node18&#45;&gt;Node7 -->
<g id="edge28_Node000018_Node000007" class="edge">
<title>Node18&#45;&gt;Node7</title>
<g id="a_edge28_Node000018_Node000007"><a xlink:title=" ">
<path fill="none" stroke="#63b8ff" d="M500.29,-187.4C472.75,-171.47 436.2,-144.29 456.67,-121 497.79,-74.21 672.9,-93.04 734.67,-85 749.99,-83 766.56,-80.84 781.96,-78.83"/>
<polygon fill="#63b8ff" stroke="#63b8ff" points="498.75,-190.55 509.19,-192.35 502.15,-184.43 498.75,-190.55"/>
</a>
</g>
</g>
<!-- Node18&#45;&gt;Node10 -->
<g id="edge29_Node000018_Node000010" class="edge">
<title>Node18&#45;&gt;Node10</title>
<g id="a_edge29_Node000018_Node000010"><a xlink:title=" ">
<path fill="none" stroke="#63b8ff" d="M572.31,-190.1C625.1,-177.49 710.89,-157.01 759.01,-145.51"/>
<polygon fill="#63b8ff" stroke="#63b8ff" points="571.45,-186.71 562.53,-192.44 573.07,-193.52 571.45,-186.71"/>
</a>
</g>
</g>
<!-- Node18&#45;&gt;Node13 -->
<g id="edge30_Node000018_Node000013" class="edge">
<title>Node18&#45;&gt;Node13</title>
<g id="a_edge30_Node000018_Node000013"><a xlink:title=" ">
<path fill="none" stroke="#63b8ff" d="M476.9,-189.58C456.43,-182.17 434.73,-170.18 422.67,-151 407.57,-126.98 432.98,-95.1 447.55,-79.85"/>
<polygon fill="#63b8ff" stroke="#63b8ff" points="475.89,-192.94 486.49,-192.77 478.1,-186.29 475.89,-192.94"/>
</a>
</g>
</g>
<!-- Node20&#45;&gt;Node4 -->
<g id="edge33_Node000020_Node000004" class="edge">
<title>Node20&#45;&gt;Node4</title>
<g id="a_edge33_Node000020_Node000004"><a xlink:title=" ">
<path fill="none" stroke="#63b8ff" d="M840.73,-189.72C793.86,-177.12 719.01,-156.99 676.64,-145.6"/>
<polygon fill="#63b8ff" stroke="#63b8ff" points="840,-193.15 850.57,-192.37 841.82,-186.39 840,-193.15"/>
</a>
</g>
</g>
<!-- Node20&#45;&gt;Node5 -->
<g id="edge34_Node000020_Node000005" class="edge">
<title>Node20&#45;&gt;Node5</title>
<g id="a_edge34_Node000020_Node000005"><a xlink:title=" ">
<path fill="none" stroke="#63b8ff" d="M938.46,-190.56C998.33,-179.35 1093.44,-161.56 1157.4,-149.59"/>
<polygon fill="#63b8ff" stroke="#63b8ff" points="937.62,-187.16 928.44,-192.44 938.91,-194.04 937.62,-187.16"/>
</a>
</g>
</g>
<!-- Node20&#45;&gt;Node6 -->
<g id="edge35_Node000020_Node000006" class="edge">
<title>Node20&#45;&gt;Node6</title>
<g id="a_edge35_Node000020_Node000006"><a xlink:title=" ">
<path fill="none" stroke="#63b8ff" d="M818.39,-190.89C758.54,-181.28 666.89,-166.11 587.67,-151 578.92,-149.33 569.55,-147.42 560.7,-145.56"/>
<polygon fill="#63b8ff" stroke="#63b8ff" points="818.02,-194.37 828.45,-192.5 819.13,-187.46 818.02,-194.37"/>
</a>
</g>
</g>
<!-- Node20&#45;&gt;Node7 -->
<g id="edge36_Node000020_Node000007" class="edge">
<title>Node20&#45;&gt;Node7</title>
<g id="a_edge36_Node000020_Node000007"><a xlink:title=" ">
<path fill="none" stroke="#63b8ff" d="M926.46,-189.48C967.64,-176.43 1019.79,-152.76 996.67,-121 989.32,-110.91 918.43,-90.97 875.1,-79.55"/>
<polygon fill="#63b8ff" stroke="#63b8ff" points="925.35,-186.16 916.81,-192.42 927.39,-192.86 925.35,-186.16"/>
</a>
</g>
</g>
<!-- Node20&#45;&gt;Node8 -->
<g id="edge37_Node000020_Node000008" class="edge">
<title>Node20&#45;&gt;Node8</title>
<g id="a_edge37_Node000020_Node000008"><a xlink:title=" ">
<path fill="none" stroke="#63b8ff" d="M929.04,-189.86C958.7,-181.61 997.35,-168.72 1028.67,-151 1064.7,-130.61 1100.12,-95.81 1115.58,-79.68"/>
<polygon fill="#63b8ff" stroke="#63b8ff" points="928.09,-186.49 919.35,-192.48 929.91,-193.25 928.09,-186.49"/>
</a>
</g>
</g>
<!-- Node20&#45;&gt;Node9 -->
<g id="edge38_Node000020_Node000009" class="edge">
<title>Node20&#45;&gt;Node9</title>
<g id="a_edge38_Node000020_Node000009"><a xlink:title=" ">
<path fill="none" stroke="#63b8ff" d="M952.08,-190.55C975.26,-183.38 998.71,-171.32 1012.67,-151 1027.04,-130.07 1008.06,-101.91 993.49,-85.19"/>
<polygon fill="#63b8ff" stroke="#63b8ff" points="950.88,-187.25 942.2,-193.33 952.77,-193.99 950.88,-187.25"/>
</a>
</g>
</g>
<!-- Node20&#45;&gt;Node10 -->
<g id="edge39_Node000020_Node000010" class="edge">
<title>Node20&#45;&gt;Node10</title>
<g id="a_edge39_Node000020_Node000010"><a xlink:title=" ">
<path fill="none" stroke="#63b8ff" d="M862.5,-186.33C845.24,-173.78 820.97,-156.13 806.63,-145.7"/>
<polygon fill="#63b8ff" stroke="#63b8ff" points="860.65,-189.32 870.8,-192.37 864.77,-183.66 860.65,-189.32"/>
</a>
</g>
</g>
<!-- Node20&#45;&gt;Node12 -->
<g id="edge40_Node000020_Node000012" class="edge">
<title>Node20&#45;&gt;Node12</title>
<g id="a_edge40_Node000020_Node000012"><a xlink:title=" ">
<path fill="none" stroke="#63b8ff" d="M879.54,-182C875.54,-163.75 866.83,-136.69 848.67,-121 828.11,-103.24 759.79,-88.31 710.73,-79.51"/>
<polygon fill="#63b8ff" stroke="#63b8ff" points="876.15,-182.89 881.47,-192.05 883.02,-181.57 876.15,-182.89"/>
</a>
</g>
</g>
<!-- Node20&#45;&gt;Node13 -->
<g id="edge41_Node000020_Node000013" class="edge">
<title>Node20&#45;&gt;Node13</title>
<g id="a_edge41_Node000020_Node000013"><a xlink:title=" ">
<path fill="none" stroke="#63b8ff" d="M839.77,-189.63C811.03,-181.1 772.89,-167.99 741.67,-151 722.46,-140.55 722.56,-130.08 702.67,-121 669.66,-105.94 575.53,-89.32 513.74,-79.54"/>
<polygon fill="#63b8ff" stroke="#63b8ff" points="838.93,-193.03 849.51,-192.45 840.88,-186.31 838.93,-193.03"/>
</a>
</g>
</g>
<!-- Node20&#45;&gt;Node14 -->
<g id="edge42_Node000020_Node000014" class="edge">
<title>Node20&#45;&gt;Node14</title>
<g id="a_edge42_Node000020_Node000014"><a xlink:title=" ">
<path fill="none" stroke="#63b8ff" d="M925.88,-189.84C962.49,-180.18 1016.27,-165.52 1062.67,-151 1101.3,-138.91 1109.84,-132.46 1148.67,-121 1213.59,-101.83 1254.84,-138.23 1296.67,-85 1311.99,-65.5 1296.72,-34.46 1287.52,-19.35"/>
<polygon fill="#63b8ff" stroke="#63b8ff" points="924.81,-186.5 916.03,-192.42 926.59,-193.27 924.81,-186.5"/>
</a>
</g>
</g>
<!-- Node21&#45;&gt;Node13 -->
<g id="edge45_Node000021_Node000013" class="edge">
<title>Node21&#45;&gt;Node13</title>
<g id="a_edge45_Node000021_Node000013"><a xlink:title=" ">
<path fill="none" stroke="#63b8ff" d="M223.01,-185.27C242.17,-167.55 275.55,-138.9 308.67,-121 344.7,-101.53 389.71,-87.63 420.58,-79.51"/>
<polygon fill="#63b8ff" stroke="#63b8ff" points="220.37,-182.95 215.48,-192.35 225.16,-188.05 220.37,-182.95"/>
</a>
</g>
</g>
<!-- Node22&#45;&gt;Node23 -->
<g id="edge47_Node000022_Node000023" class="edge">
<title>Node22&#45;&gt;Node23</title>
<g id="a_edge47_Node000022_Node000023"><a xlink:title=" ">
<path fill="none" stroke="#63b8ff" d="M1499.75,-185.33C1487.17,-172.94 1470.05,-156.09 1459.71,-145.91"/>
<polygon fill="#63b8ff" stroke="#63b8ff" points="1497.32,-187.85 1506.9,-192.37 1502.23,-182.86 1497.32,-187.85"/>
</a>
</g>
</g>
<!-- Node23&#45;&gt;Node14 -->
<g id="edge48_Node000023_Node000014" class="edge">
<title>Node23&#45;&gt;Node14</title>
<g id="a_edge48_Node000023_Node000014"><a xlink:title=" ">
<path fill="none" stroke="#63b8ff" d="M1430.9,-120.43C1395.4,-94.28 1321.91,-40.15 1293.36,-19.12"/>
<polygon fill="#63b8ff" stroke="#63b8ff" points="1428.92,-123.33 1439.05,-126.44 1433.08,-117.69 1428.92,-123.33"/>
</a>
</g>
</g>
<!-- Node23&#45;&gt;Node17 -->
<g id="edge49_Node000023_Node000017" class="edge">
<title>Node23&#45;&gt;Node17</title>
<g id="a_edge49_Node000023_Node000017"><a xlink:title=" ">
<path fill="none" stroke="#63b8ff" d="M1416.26,-123.17C1414.03,-122.43 1411.82,-121.7 1409.67,-121 1363.06,-105.85 1308.55,-89.26 1276.13,-79.51"/>
<polygon fill="#63b8ff" stroke="#63b8ff" points="1415.4,-126.57 1425.99,-126.44 1417.63,-119.94 1415.4,-126.57"/>
</a>
</g>
</g>
<!-- Node24&#45;&gt;Node3 -->
<g id="edge57_Node000024_Node000003" class="edge">
<title>Node24&#45;&gt;Node3</title>
<g id="a_edge57_Node000024_Node000003"><a xlink:title=" ">
<path fill="none" stroke="#63b8ff" d="M682.67,-297.66C682.67,-288.93 682.67,-278.99 682.67,-272.09"/>
<polygon fill="#63b8ff" stroke="#63b8ff" points="679.17,-297.75 682.67,-307.75 686.17,-297.75 679.17,-297.75"/>
</a>
</g>
</g>
<!-- Node24&#45;&gt;Node22 -->
<g id="edge58_Node000024_Node000022" class="edge">
<title>Node24&#45;&gt;Node22</title>
<g id="a_edge58_Node000024_Node000022"><a xlink:title=" ">
<path fill="none" stroke="#63b8ff" d="M743.75,-307.93C913.73,-288.28 958.89,-294.4 1124.67,-272 1252.58,-254.72 1402.56,-225.8 1473.89,-211.52"/>
<polygon fill="#63b8ff" stroke="#63b8ff" points="743.24,-304.47 733.71,-309.1 744.05,-311.42 743.24,-304.47"/>
</a>
</g>
</g>
</g>
</svg>
