<?xml version="1.0" encoding="UTF-8" standalone="no"?>
<!DOCTYPE svg PUBLIC "-//W3C//DTD SVG 1.1//EN"
 "http://www.w3.org/Graphics/SVG/1.1/DTD/svg11.dtd">
<!-- Generated by graphviz version 2.43.0 (0)
 -->
<!-- Title: expokitf.h Pages: 1 -->
<svg width="679pt" height="247pt"
 viewBox="0.00 0.00 679.13 247.00" xmlns="http://www.w3.org/2000/svg" xmlns:xlink="http://www.w3.org/1999/xlink">
<g id="graph0" class="graph" transform="scale(1 1) rotate(0) translate(4 243)">
<title>expokitf.h</title>
<!-- Node1 -->
<g id="Node000001" class="node">
<title>Node1</title>
<g id="a_Node000001"><a xlink:title=" ">
<polygon fill="#999999" stroke="#666666" points="166.13,-239 101.13,-239 101.13,-220 166.13,-220 166.13,-239"/>
<text text-anchor="middle" x="133.63" y="-227" font-family="Helvetica,sans-Serif" font-size="10.00">expokitf.h</text>
</a>
</g>
</g>
<!-- Node2 -->
<g id="Node000002" class="node">
<title>Node2</title>
<g id="a_Node000002"><a xlink:title=" ">
<polygon fill="#e0e0e0" stroke="#999999" points="130.13,-19 71.13,-19 71.13,0 130.13,0 130.13,-19"/>
<text text-anchor="middle" x="100.63" y="-7" font-family="Helvetica,sans-Serif" font-size="10.00">complex</text>
</a>
</g>
</g>
<!-- Node1&#45;&gt;Node2 -->
<g id="edge1_Node000001_Node000002" class="edge">
<title>Node1&#45;&gt;Node2</title>
<g id="a_edge1_Node000001_Node000002"><a xlink:title=" ">
<path fill="none" stroke="#63b8ff" d="M100.88,-220.14C80.7,-213.43 55.7,-202.08 39.63,-184 5.36,-145.45 10.96,-124.9 2.63,-74 1.26,-65.67 -1.95,-62.1 2.63,-55 15.56,-34.93 39.99,-23.81 61.23,-17.7"/>
<polygon fill="#63b8ff" stroke="#63b8ff" points="62.21,-21.06 71.01,-15.16 60.46,-14.29 62.21,-21.06"/>
</a>
</g>
</g>
<!-- Node3 -->
<g id="Node000003" class="node">
<title>Node3</title>
<g id="a_Node000003"><a xlink:href="scalar__concepts_8hpp.html" target="_top" xlink:title=" ">
<polygon fill="white" stroke="#666666" points="218.63,-184 48.63,-184 48.63,-165 218.63,-165 218.63,-184"/>
<text text-anchor="middle" x="133.63" y="-172" font-family="Helvetica,sans-Serif" font-size="10.00">uni20/core/scalar_concepts.hpp</text>
</a>
</g>
</g>
<!-- Node1&#45;&gt;Node3 -->
<g id="edge2_Node000001_Node000003" class="edge">
<title>Node1&#45;&gt;Node3</title>
<g id="a_edge2_Node000001_Node000003"><a xlink:title=" ">
<path fill="none" stroke="#63b8ff" d="M133.63,-219.75C133.63,-212.8 133.63,-202.85 133.63,-194.13"/>
<polygon fill="#63b8ff" stroke="#63b8ff" points="137.13,-194.09 133.63,-184.09 130.13,-194.09 137.13,-194.09"/>
</a>
</g>
</g>
<!-- Node9 -->
<g id="Node000009" class="node">
<title>Node9</title>
<g id="a_Node000009"><a xlink:href="matrix_8hpp.html" target="_top" xlink:title=" ">
<polygon fill="white" stroke="#666666" points="469.63,-184 329.63,-184 329.63,-165 469.63,-165 469.63,-184"/>
<text text-anchor="middle" x="399.63" y="-172" font-family="Helvetica,sans-Serif" font-size="10.00">uni20/expokit/matrix.hpp</text>
</a>
</g>
</g>
<!-- Node1&#45;&gt;Node9 -->
<g id="edge11_Node000001_Node000009" class="edge">
<title>Node1&#45;&gt;Node9</title>
<g id="a_edge11_Node000001_Node000009"><a xlink:title=" ">
<path fill="none" stroke="#63b8ff" d="M166.24,-222C211.21,-213.04 292.77,-196.79 346.57,-186.07"/>
<polygon fill="#63b8ff" stroke="#63b8ff" points="347.49,-189.46 356.61,-184.07 346.12,-182.59 347.49,-189.46"/>
</a>
</g>
</g>
<!-- Node4 -->
<g id="Node000004" class="node">
<title>Node4</title>
<g id="a_Node000004"><a xlink:href="scalar__traits_8hpp.html" target="_top" xlink:title=" ">
<polygon fill="white" stroke="#666666" points="150.63,-129 52.63,-129 52.63,-110 150.63,-110 150.63,-129"/>
<text text-anchor="middle" x="101.63" y="-117" font-family="Helvetica,sans-Serif" font-size="10.00">scalar_traits.hpp</text>
</a>
</g>
</g>
<!-- Node3&#45;&gt;Node4 -->
<g id="edge3_Node000003_Node000004" class="edge">
<title>Node3&#45;&gt;Node4</title>
<g id="a_edge3_Node000003_Node000004"><a xlink:title=" ">
<path fill="none" stroke="#63b8ff" d="M128.34,-164.75C123.92,-157.42 117.46,-146.73 112.01,-137.7"/>
<polygon fill="#63b8ff" stroke="#63b8ff" points="114.98,-135.84 106.81,-129.09 108.99,-139.46 114.98,-135.84"/>
</a>
</g>
</g>
<!-- Node5 -->
<g id="Node000005" class="node">
<title>Node5</title>
<g id="a_Node000005"><a xlink:href="types_8hpp.html" target="_top" xlink:title=" ">
<polygon fill="white" stroke="#666666" points="203.13,-74 138.13,-74 138.13,-55 203.13,-55 203.13,-74"/>
<text text-anchor="middle" x="170.63" y="-62" font-family="Helvetica,sans-Serif" font-size="10.00">types.hpp</text>
</a>
</g>
</g>
<!-- Node3&#45;&gt;Node5 -->
<g id="edge10_Node000003_Node000005" class="edge">
<title>Node3&#45;&gt;Node5</title>
<g id="a_edge10_Node000003_Node000005"><a xlink:title=" ">
<path fill="none" stroke="#63b8ff" d="M140.01,-164.77C146.01,-156.12 154.78,-142.28 159.63,-129 164.91,-114.53 167.69,-97.26 169.14,-84.38"/>
<polygon fill="#63b8ff" stroke="#63b8ff" points="172.63,-84.67 170.09,-74.38 165.66,-84.01 172.63,-84.67"/>
</a>
</g>
</g>
<!-- Node4&#45;&gt;Node2 -->
<g id="edge8_Node000004_Node000002" class="edge">
<title>Node4&#45;&gt;Node2</title>
<g id="a_edge8_Node000004_Node000002"><a xlink:title=" ">
<path fill="none" stroke="#63b8ff" d="M101.55,-109.66C101.38,-92.17 101.02,-52.8 100.8,-29.27"/>
<polygon fill="#63b8ff" stroke="#63b8ff" points="104.3,-29.13 100.71,-19.16 97.3,-29.19 104.3,-29.13"/>
</a>
</g>
</g>
<!-- Node4&#45;&gt;Node5 -->
<g id="edge4_Node000004_Node000005" class="edge">
<title>Node4&#45;&gt;Node5</title>
<g id="a_edge4_Node000004_Node000005"><a xlink:title=" ">
<path fill="none" stroke="#63b8ff" d="M112.71,-109.98C123.11,-102 138.89,-89.88 151.35,-80.31"/>
<polygon fill="#63b8ff" stroke="#63b8ff" points="153.54,-83.04 159.34,-74.17 149.28,-77.49 153.54,-83.04"/>
</a>
</g>
</g>
<!-- Node8 -->
<g id="Node000008" class="node">
<title>Node8</title>
<g id="a_Node000008"><a xlink:title=" ">
<polygon fill="#e0e0e0" stroke="#999999" points="81.13,-74 12.13,-74 12.13,-55 81.13,-55 81.13,-74"/>
<text text-anchor="middle" x="46.63" y="-62" font-family="Helvetica,sans-Serif" font-size="10.00">type_traits</text>
</a>
</g>
</g>
<!-- Node4&#45;&gt;Node8 -->
<g id="edge9_Node000004_Node000008" class="edge">
<title>Node4&#45;&gt;Node8</title>
<g id="a_edge9_Node000004_Node000008"><a xlink:title=" ">
<path fill="none" stroke="#63b8ff" d="M92.55,-109.75C84.54,-102.03 72.67,-90.6 63.01,-81.28"/>
<polygon fill="#63b8ff" stroke="#63b8ff" points="65.17,-78.51 55.54,-74.09 60.31,-83.55 65.17,-78.51"/>
</a>
</g>
</g>
<!-- Node5&#45;&gt;Node2 -->
<g id="edge6_Node000005_Node000002" class="edge">
<title>Node5&#45;&gt;Node2</title>
<g id="a_edge6_Node000005_Node000002"><a xlink:title=" ">
<path fill="none" stroke="#63b8ff" d="M159.38,-54.98C148.83,-47 132.83,-34.88 120.19,-25.31"/>
<polygon fill="#63b8ff" stroke="#63b8ff" points="122.16,-22.42 112.08,-19.17 117.94,-28 122.16,-22.42"/>
</a>
</g>
</g>
<!-- Node6 -->
<g id="Node000006" class="node">
<title>Node6</title>
<g id="a_Node000006"><a xlink:title=" ">
<polygon fill="#e0e0e0" stroke="#999999" points="324.13,-19 227.13,-19 227.13,0 324.13,0 324.13,-19"/>
<text text-anchor="middle" x="275.63" y="-7" font-family="Helvetica,sans-Serif" font-size="10.00">uni20/config.hpp</text>
</a>
</g>
</g>
<!-- Node5&#45;&gt;Node6 -->
<g id="edge5_Node000005_Node000006" class="edge">
<title>Node5&#45;&gt;Node6</title>
<g id="a_edge5_Node000005_Node000006"><a xlink:title=" ">
<path fill="none" stroke="#63b8ff" d="M187.5,-54.98C204.24,-46.54 230.13,-33.47 249.52,-23.68"/>
<polygon fill="#63b8ff" stroke="#63b8ff" points="251.1,-26.8 258.45,-19.17 247.95,-20.55 251.1,-26.8"/>
</a>
</g>
</g>
<!-- Node7 -->
<g id="Node000007" class="node">
<title>Node7</title>
<g id="a_Node000007"><a xlink:title=" ">
<polygon fill="#e0e0e0" stroke="#999999" points="208.63,-19 148.63,-19 148.63,0 208.63,0 208.63,-19"/>
<text text-anchor="middle" x="178.63" y="-7" font-family="Helvetica,sans-Serif" font-size="10.00">concepts</text>
</a>
</g>
</g>
<!-- Node5&#45;&gt;Node7 -->
<g id="edge7_Node000005_Node000007" class="edge">
<title>Node5&#45;&gt;Node7</title>
<g id="a_edge7_Node000005_Node000007"><a xlink:title=" ">
<path fill="none" stroke="#63b8ff" d="M171.95,-54.75C173,-47.8 174.5,-37.85 175.81,-29.13"/>
<polygon fill="#63b8ff" stroke="#63b8ff" points="179.3,-29.5 177.33,-19.09 172.38,-28.45 179.3,-29.5"/>
</a>
</g>
</g>
<!-- Node9&#45;&gt;Node2 -->
<g id="edge14_Node000009_Node000002" class="edge">
<title>Node9&#45;&gt;Node2</title>
<g id="a_edge14_Node000009_Node000002"><a xlink:title=" ">
<path fill="none" stroke="#63b8ff" d="M331.9,-164.99C304.31,-158.72 273.57,-147.86 250.63,-129 221.91,-105.39 239.24,-79.89 211.63,-55 200.3,-44.79 165.4,-31.64 137.72,-22.28"/>
<polygon fill="#63b8ff" stroke="#63b8ff" points="138.5,-18.86 127.91,-19.02 136.3,-25.5 138.5,-18.86"/>
</a>
</g>
</g>
<!-- Node10 -->
<g id="Node000010" class="node">
<title>Node10</title>
<g id="a_Node000010"><a xlink:title=" ">
<polygon fill="#e0e0e0" stroke="#999999" points="323.63,-129 259.63,-129 259.63,-110 323.63,-110 323.63,-129"/>
<text text-anchor="middle" x="291.63" y="-117" font-family="Helvetica,sans-Serif" font-size="10.00">algorithm</text>
</a>
</g>
</g>
<!-- Node9&#45;&gt;Node10 -->
<g id="edge12_Node000009_Node000010" class="edge">
<title>Node9&#45;&gt;Node10</title>
<g id="a_edge12_Node000009_Node000010"><a xlink:title=" ">
<path fill="none" stroke="#63b8ff" d="M382.28,-164.98C365.06,-156.54 338.43,-143.47 318.48,-133.68"/>
<polygon fill="#63b8ff" stroke="#63b8ff" points="319.81,-130.43 309.3,-129.17 316.73,-136.72 319.81,-130.43"/>
</a>
</g>
</g>
<!-- Node11 -->
<g id="Node000011" class="node">
<title>Node11</title>
<g id="a_Node000011"><a xlink:title=" ">
<polygon fill="#e0e0e0" stroke="#999999" points="389.13,-129 342.13,-129 342.13,-110 389.13,-110 389.13,-129"/>
<text text-anchor="middle" x="365.63" y="-117" font-family="Helvetica,sans-Serif" font-size="10.00">cmath</text>
</a>
</g>
</g>
<!-- Node9&#45;&gt;Node11 -->
<g id="edge13_Node000009_Node000011" class="edge">
<title>Node9&#45;&gt;Node11</title>
<g id="a_edge13_Node000009_Node000011"><a xlink:title=" ">
<path fill="none" stroke="#63b8ff" d="M394.01,-164.75C389.31,-157.42 382.45,-146.73 376.66,-137.7"/>
<polygon fill="#63b8ff" stroke="#63b8ff" points="379.48,-135.62 371.14,-129.09 373.59,-139.4 379.48,-135.62"/>
</a>
</g>
</g>
<!-- Node12 -->
<g id="Node000012" class="node">
<title>Node12</title>
<g id="a_Node000012"><a xlink:title=" ">
<polygon fill="#e0e0e0" stroke="#999999" points="460.13,-129 407.13,-129 407.13,-110 460.13,-110 460.13,-129"/>
<text text-anchor="middle" x="433.63" y="-117" font-family="Helvetica,sans-Serif" font-size="10.00">cstddef</text>
</a>
</g>
</g>
<!-- Node9&#45;&gt;Node12 -->
<g id="edge15_Node000009_Node000012" class="edge">
<title>Node9&#45;&gt;Node12</title>
<g id="a_edge15_Node000009_Node000012"><a xlink:title=" ">
<path fill="none" stroke="#63b8ff" d="M405.24,-164.75C409.95,-157.42 416.8,-146.73 422.6,-137.7"/>
<polygon fill="#63b8ff" stroke="#63b8ff" points="425.66,-139.4 428.12,-129.09 419.77,-135.62 425.66,-139.4"/>
</a>
</g>
</g>
<!-- Node13 -->
<g id="Node000013" class="node">
<title>Node13</title>
<g id="a_Node000013"><a xlink:title=" ">
<polygon fill="#e0e0e0" stroke="#999999" points="543.13,-129 478.13,-129 478.13,-110 543.13,-110 543.13,-129"/>
<text text-anchor="middle" x="510.63" y="-117" font-family="Helvetica,sans-Serif" font-size="10.00">stdexcept</text>
</a>
</g>
</g>
<!-- Node9&#45;&gt;Node13 -->
<g id="edge16_Node000009_Node000013" class="edge">
<title>Node9&#45;&gt;Node13</title>
<g id="a_edge16_Node000009_Node000013"><a xlink:title=" ">
<path fill="none" stroke="#63b8ff" d="M417.46,-164.98C435.24,-156.5 462.77,-143.35 483.31,-133.54"/>
<polygon fill="#63b8ff" stroke="#63b8ff" points="484.95,-136.64 492.47,-129.17 481.94,-130.32 484.95,-136.64"/>
</a>
</g>
</g>
<!-- Node14 -->
<g id="Node000014" class="node">
<title>Node14</title>
<g id="a_Node000014"><a xlink:title=" ">
<polygon fill="#e0e0e0" stroke="#999999" points="606.13,-129 561.13,-129 561.13,-110 606.13,-110 606.13,-129"/>
<text text-anchor="middle" x="583.63" y="-117" font-family="Helvetica,sans-Serif" font-size="10.00">utility</text>
</a>
</g>
</g>
<!-- Node9&#45;&gt;Node14 -->
<g id="edge17_Node000009_Node000014" class="edge">
<title>Node9&#45;&gt;Node14</title>
<g id="a_edge17_Node000009_Node000014"><a xlink:title=" ">
<path fill="none" stroke="#63b8ff" d="M429.19,-164.98C462.52,-155.39 516.54,-139.82 551.06,-129.88"/>
<polygon fill="#63b8ff" stroke="#63b8ff" points="552.46,-133.12 561.1,-126.99 550.52,-126.39 552.46,-133.12"/>
</a>
</g>
</g>
<!-- Node15 -->
<g id="Node000015" class="node">
<title>Node15</title>
<g id="a_Node000015"><a xlink:title=" ">
<polygon fill="#e0e0e0" stroke="#999999" points="671.13,-129 624.13,-129 624.13,-110 671.13,-110 671.13,-129"/>
<text text-anchor="middle" x="647.63" y="-117" font-family="Helvetica,sans-Serif" font-size="10.00">vector</text>
</a>
</g>
</g>
<!-- Node9&#45;&gt;Node15 -->
<g id="edge18_Node000009_Node000015" class="edge">
<title>Node9&#45;&gt;Node15</title>
<g id="a_edge18_Node000009_Node000015"><a xlink:title=" ">
<path fill="none" stroke="#63b8ff" d="M444.88,-164.95C486.56,-156.9 550.33,-144.15 614.08,-129.27"/>
<polygon fill="#63b8ff" stroke="#63b8ff" points="614.97,-132.66 623.9,-126.96 613.36,-125.84 614.97,-132.66"/>
</a>
</g>
</g>
</g>
</svg>
