<?xml version="1.0" encoding="UTF-8" standalone="no"?>
<!DOCTYPE svg PUBLIC "-//W3C//DTD SVG 1.1//EN"
 "http://www.w3.org/Graphics/SVG/1.1/DTD/svg11.dtd">
<!-- Generated by graphviz version 2.43.0 (0)
 -->
<!-- Title: floating_eq.hpp Pages: 1 -->
<svg width="577pt" height="247pt"
 viewBox="0.00 0.00 577.00 247.00" xmlns="http://www.w3.org/2000/svg" xmlns:xlink="http://www.w3.org/1999/xlink">
<g id="graph0" class="graph" transform="scale(1 1) rotate(0) translate(4 243)">
<title>floating_eq.hpp</title>
<!-- Node1 -->
<g id="Node000001" class="node">
<title>Node1</title>
<g id="a_Node000001"><a xlink:title=" ">
<polygon fill="#999999" stroke="#666666" points="383,-239 291,-239 291,-220 383,-220 383,-239"/>
<text text-anchor="middle" x="337" y="-227" font-family="Helvetica,sans-Serif" font-size="10.00">floating_eq.hpp</text>
</a>
</g>
</g>
<!-- Node2 -->
<g id="Node000002" class="node">
<title>Node2</title>
<g id="a_Node000002"><a xlink:href="scalar__concepts_8hpp.html" target="_top" xlink:title=" ">
<polygon fill="white" stroke="#666666" points="212,-184 42,-184 42,-165 212,-165 212,-184"/>
<text text-anchor="middle" x="127" y="-172" font-family="Helvetica,sans-Serif" font-size="10.00">uni20/core/scalar_concepts.hpp</text>
</a>
</g>
</g>
<!-- Node1&#45;&gt;Node2 -->
<g id="edge1_Node000001_Node000002" class="edge">
<title>Node1&#45;&gt;Node2</title>
<g id="a_edge1_Node000001_Node000002"><a xlink:title=" ">
<path fill="none" stroke="#63b8ff" d="M303.26,-219.98C267.32,-210.91 210.28,-196.52 170.87,-186.57"/>
<polygon fill="#63b8ff" stroke="#63b8ff" points="171.56,-183.14 161,-184.08 169.84,-189.92 171.56,-183.14"/>
</a>
</g>
</g>
<!-- Node3 -->
<g id="Node000003" class="node">
<title>Node3</title>
<g id="a_Node000003"><a xlink:href="scalar__traits_8hpp.html" target="_top" xlink:title=" ">
<polygon fill="white" stroke="#666666" points="250,-129 152,-129 152,-110 250,-110 250,-129"/>
<text text-anchor="middle" x="201" y="-117" font-family="Helvetica,sans-Serif" font-size="10.00">scalar_traits.hpp</text>
</a>
</g>
</g>
<!-- Node1&#45;&gt;Node3 -->
<g id="edge10_Node000001_Node000003" class="edge">
<title>Node1&#45;&gt;Node3</title>
<g id="a_edge10_Node000001_Node000003"><a xlink:title=" ">
<path fill="none" stroke="#63b8ff" d="M320.31,-219.84C305.01,-211.56 282.06,-198.26 264,-184 245.83,-169.65 227.46,-150.49 215.28,-136.97"/>
<polygon fill="#63b8ff" stroke="#63b8ff" points="217.81,-134.55 208.56,-129.39 212.57,-139.19 217.81,-134.55"/>
</a>
</g>
</g>
<!-- Node6 -->
<g id="Node000006" class="node">
<title>Node6</title>
<g id="a_Node000006"><a xlink:title=" ">
<polygon fill="#e0e0e0" stroke="#999999" points="252.5,-19 193.5,-19 193.5,0 252.5,0 252.5,-19"/>
<text text-anchor="middle" x="223" y="-7" font-family="Helvetica,sans-Serif" font-size="10.00">complex</text>
</a>
</g>
</g>
<!-- Node1&#45;&gt;Node6 -->
<g id="edge13_Node000001_Node000006" class="edge">
<title>Node1&#45;&gt;Node6</title>
<g id="a_edge13_Node000001_Node000006"><a xlink:title=" ">
<path fill="none" stroke="#63b8ff" d="M335.93,-219.97C331.88,-188.91 316.8,-82.27 297,-55 286.81,-40.97 270.73,-30.53 256.15,-23.31"/>
<polygon fill="#63b8ff" stroke="#63b8ff" points="257.41,-20.03 246.86,-19.02 254.47,-26.39 257.41,-20.03"/>
</a>
</g>
</g>
<!-- Node8 -->
<g id="Node000008" class="node">
<title>Node8</title>
<g id="a_Node000008"><a xlink:title=" ">
<polygon fill="#e0e0e0" stroke="#999999" points="287.5,-74 218.5,-74 218.5,-55 287.5,-55 287.5,-74"/>
<text text-anchor="middle" x="253" y="-62" font-family="Helvetica,sans-Serif" font-size="10.00">type_traits</text>
</a>
</g>
</g>
<!-- Node1&#45;&gt;Node8 -->
<g id="edge16_Node000001_Node000008" class="edge">
<title>Node1&#45;&gt;Node8</title>
<g id="a_edge16_Node000001_Node000008"><a xlink:title=" ">
<path fill="none" stroke="#63b8ff" d="M328.99,-219.82C321.34,-211.21 309.84,-197.4 302,-184 282.41,-150.51 266.78,-107.69 258.8,-83.77"/>
<polygon fill="#63b8ff" stroke="#63b8ff" points="262.11,-82.63 255.68,-74.21 255.46,-84.8 262.11,-82.63"/>
</a>
</g>
</g>
<!-- Node9 -->
<g id="Node000009" class="node">
<title>Node9</title>
<g id="a_Node000009"><a xlink:title=" ">
<polygon fill="#e0e0e0" stroke="#999999" points="373.5,-184 344.5,-184 344.5,-165 373.5,-165 373.5,-184"/>
<text text-anchor="middle" x="359" y="-172" font-family="Helvetica,sans-Serif" font-size="10.00">bit</text>
</a>
</g>
</g>
<!-- Node1&#45;&gt;Node9 -->
<g id="edge11_Node000001_Node000009" class="edge">
<title>Node1&#45;&gt;Node9</title>
<g id="a_edge11_Node000001_Node000009"><a xlink:title=" ">
<path fill="none" stroke="#63b8ff" d="M340.63,-219.75C343.58,-212.65 347.83,-202.4 351.51,-193.56"/>
<polygon fill="#63b8ff" stroke="#63b8ff" points="354.83,-194.67 355.43,-184.09 348.37,-191.98 354.83,-194.67"/>
</a>
</g>
</g>
<!-- Node10 -->
<g id="Node000010" class="node">
<title>Node10</title>
<g id="a_Node000010"><a xlink:title=" ">
<polygon fill="#e0e0e0" stroke="#999999" points="438.5,-184 391.5,-184 391.5,-165 438.5,-165 438.5,-184"/>
<text text-anchor="middle" x="415" y="-172" font-family="Helvetica,sans-Serif" font-size="10.00">cmath</text>
</a>
</g>
</g>
<!-- Node1&#45;&gt;Node10 -->
<g id="edge12_Node000001_Node000010" class="edge">
<title>Node1&#45;&gt;Node10</title>
<g id="a_edge12_Node000001_Node000010"><a xlink:title=" ">
<path fill="none" stroke="#63b8ff" d="M349.53,-219.98C361.4,-211.92 379.46,-199.65 393.61,-190.03"/>
<polygon fill="#63b8ff" stroke="#63b8ff" points="395.94,-192.69 402.24,-184.17 392,-186.9 395.94,-192.69"/>
</a>
</g>
</g>
<!-- Node11 -->
<g id="Node000011" class="node">
<title>Node11</title>
<g id="a_Node000011"><a xlink:title=" ">
<polygon fill="#e0e0e0" stroke="#999999" points="507,-184 457,-184 457,-165 507,-165 507,-184"/>
<text text-anchor="middle" x="482" y="-172" font-family="Helvetica,sans-Serif" font-size="10.00">cstdint</text>
</a>
</g>
</g>
<!-- Node1&#45;&gt;Node11 -->
<g id="edge14_Node000001_Node000011" class="edge">
<title>Node1&#45;&gt;Node11</title>
<g id="a_edge14_Node000001_Node000011"><a xlink:title=" ">
<path fill="none" stroke="#63b8ff" d="M360.3,-219.98C384.25,-211.23 421.78,-197.51 448.83,-187.62"/>
<polygon fill="#63b8ff" stroke="#63b8ff" points="450.09,-190.89 458.28,-184.17 447.69,-184.32 450.09,-190.89"/>
</a>
</g>
</g>
<!-- Node12 -->
<g id="Node000012" class="node">
<title>Node12</title>
<g id="a_Node000012"><a xlink:title=" ">
<polygon fill="#e0e0e0" stroke="#999999" points="569,-184 525,-184 525,-165 569,-165 569,-184"/>
<text text-anchor="middle" x="547" y="-172" font-family="Helvetica,sans-Serif" font-size="10.00">limits</text>
</a>
</g>
</g>
<!-- Node1&#45;&gt;Node12 -->
<g id="edge15_Node000001_Node000012" class="edge">
<title>Node1&#45;&gt;Node12</title>
<g id="a_edge15_Node000001_Node000012"><a xlink:title=" ">
<path fill="none" stroke="#63b8ff" d="M372.39,-219.97C406.49,-211.69 459.8,-198.59 514.75,-184.28"/>
<polygon fill="#63b8ff" stroke="#63b8ff" points="515.88,-187.61 524.67,-181.69 514.11,-180.83 515.88,-187.61"/>
</a>
</g>
</g>
<!-- Node2&#45;&gt;Node3 -->
<g id="edge2_Node000002_Node000003" class="edge">
<title>Node2&#45;&gt;Node3</title>
<g id="a_edge2_Node000002_Node000003"><a xlink:title=" ">
<path fill="none" stroke="#63b8ff" d="M138.89,-164.98C150.15,-156.92 167.29,-144.65 180.71,-135.03"/>
<polygon fill="#63b8ff" stroke="#63b8ff" points="182.8,-137.84 188.89,-129.17 178.73,-132.15 182.8,-137.84"/>
</a>
</g>
</g>
<!-- Node4 -->
<g id="Node000004" class="node">
<title>Node4</title>
<g id="a_Node000004"><a xlink:href="types_8hpp.html" target="_top" xlink:title=" ">
<polygon fill="white" stroke="#666666" points="159.5,-74 94.5,-74 94.5,-55 159.5,-55 159.5,-74"/>
<text text-anchor="middle" x="127" y="-62" font-family="Helvetica,sans-Serif" font-size="10.00">types.hpp</text>
</a>
</g>
</g>
<!-- Node2&#45;&gt;Node4 -->
<g id="edge9_Node000002_Node000004" class="edge">
<title>Node2&#45;&gt;Node4</title>
<g id="a_edge9_Node000002_Node000004"><a xlink:title=" ">
<path fill="none" stroke="#63b8ff" d="M127,-164.66C127,-147.17 127,-107.8 127,-84.27"/>
<polygon fill="#63b8ff" stroke="#63b8ff" points="130.5,-84.16 127,-74.16 123.5,-84.16 130.5,-84.16"/>
</a>
</g>
</g>
<!-- Node3&#45;&gt;Node4 -->
<g id="edge3_Node000003_Node000004" class="edge">
<title>Node3&#45;&gt;Node4</title>
<g id="a_edge3_Node000003_Node000004"><a xlink:title=" ">
<path fill="none" stroke="#63b8ff" d="M189.11,-109.98C177.85,-101.92 160.71,-89.65 147.29,-80.03"/>
<polygon fill="#63b8ff" stroke="#63b8ff" points="149.27,-77.15 139.11,-74.17 145.2,-82.84 149.27,-77.15"/>
</a>
</g>
</g>
<!-- Node3&#45;&gt;Node6 -->
<g id="edge7_Node000003_Node000006" class="edge">
<title>Node3&#45;&gt;Node6</title>
<g id="a_edge7_Node000003_Node000006"><a xlink:title=" ">
<path fill="none" stroke="#63b8ff" d="M201.6,-109.79C202.56,-97.47 204.78,-74.32 209,-55 210.9,-46.3 213.75,-36.86 216.39,-28.92"/>
<polygon fill="#63b8ff" stroke="#63b8ff" points="219.78,-29.83 219.74,-19.24 213.16,-27.55 219.78,-29.83"/>
</a>
</g>
</g>
<!-- Node3&#45;&gt;Node8 -->
<g id="edge8_Node000003_Node000008" class="edge">
<title>Node3&#45;&gt;Node8</title>
<g id="a_edge8_Node000003_Node000008"><a xlink:title=" ">
<path fill="none" stroke="#63b8ff" d="M209.59,-109.75C217.16,-102.03 228.38,-90.6 237.51,-81.28"/>
<polygon fill="#63b8ff" stroke="#63b8ff" points="240.07,-83.68 244.57,-74.09 235.07,-78.78 240.07,-83.68"/>
</a>
</g>
</g>
<!-- Node5 -->
<g id="Node000005" class="node">
<title>Node5</title>
<g id="a_Node000005"><a xlink:title=" ">
<polygon fill="#e0e0e0" stroke="#999999" points="175.5,-19 78.5,-19 78.5,0 175.5,0 175.5,-19"/>
<text text-anchor="middle" x="127" y="-7" font-family="Helvetica,sans-Serif" font-size="10.00">uni20/config.hpp</text>
</a>
</g>
</g>
<!-- Node4&#45;&gt;Node5 -->
<g id="edge4_Node000004_Node000005" class="edge">
<title>Node4&#45;&gt;Node5</title>
<g id="a_edge4_Node000004_Node000005"><a xlink:title=" ">
<path fill="none" stroke="#63b8ff" d="M127,-54.75C127,-47.8 127,-37.85 127,-29.13"/>
<polygon fill="#63b8ff" stroke="#63b8ff" points="130.5,-29.09 127,-19.09 123.5,-29.09 130.5,-29.09"/>
</a>
</g>
</g>
<!-- Node4&#45;&gt;Node6 -->
<g id="edge5_Node000004_Node000006" class="edge">
<title>Node4&#45;&gt;Node6</title>
<g id="a_edge5_Node000004_Node000006"><a xlink:title=" ">
<path fill="none" stroke="#63b8ff" d="M142.42,-54.98C157.45,-46.69 180.54,-33.94 198.16,-24.22"/>
<polygon fill="#63b8ff" stroke="#63b8ff" points="200.23,-27.07 207.3,-19.17 196.85,-20.94 200.23,-27.07"/>
</a>
</g>
</g>
<!-- Node7 -->
<g id="Node000007" class="node">
<title>Node7</title>
<g id="a_Node000007"><a xlink:title=" ">
<polygon fill="#e0e0e0" stroke="#999999" points="60,-19 0,-19 0,0 60,0 60,-19"/>
<text text-anchor="middle" x="30" y="-7" font-family="Helvetica,sans-Serif" font-size="10.00">concepts</text>
</a>
</g>
</g>
<!-- Node4&#45;&gt;Node7 -->
<g id="edge6_Node000004_Node000007" class="edge">
<title>Node4&#45;&gt;Node7</title>
<g id="a_edge6_Node000004_Node000007"><a xlink:title=" ">
<path fill="none" stroke="#63b8ff" d="M111.42,-54.98C96.23,-46.69 72.9,-33.94 55.1,-24.22"/>
<polygon fill="#63b8ff" stroke="#63b8ff" points="56.32,-20.89 45.87,-19.17 52.97,-27.04 56.32,-20.89"/>
</a>
</g>
</g>
</g>
</svg>
