<?xml version="1.0" encoding="UTF-8" standalone="no"?>
<!DOCTYPE svg PUBLIC "-//W3C//DTD SVG 1.1//EN"
 "http://www.w3.org/Graphics/SVG/1.1/DTD/svg11.dtd">
<!-- Generated by graphviz version 2.43.0 (0)
 -->
<!-- Title: Tensor kernel dispatch Pages: 1 -->
<svg width="478pt" height="64pt"
 viewBox="0.00 0.00 478.00 64.00" xmlns="http://www.w3.org/2000/svg" xmlns:xlink="http://www.w3.org/1999/xlink">

<svg id="main" version="1.1" xmlns="http://www.w3.org/2000/svg" xmlns:xlink="http://www.w3.org/1999/xlink" xml:space="preserve" onload="init(evt)">
<style type="text/css"><![CDATA[
.node, .edge {opacity: 0.7;}
.node.selected, .edge.selected {opacity: 1;}
.edge:hover path { stroke: red; }
.edge:hover polygon { stroke: red; fill: red; }
]]></style>
<script type="application/ecmascript" xlink:href="svg.min.js"/>
<svg id="graph" class="graph">
<g id="graph0" class="graph" transform="scale(1 1) rotate(0) translate(4 60)">
<title>Tensor kernel dispatch</title>
<!-- Node1 -->
<g id="Node000001" class="node">
<title>Node1</title>
<g id="a_Node000001"><a xlink:title="Front&#45;end dispatchers that route tensor contractions to backend kernels.">
<polygon fill="#999999" stroke="#666666" points="310,-37 185,-37 185,-18 310,-18 310,-37"/>
<text text-anchor="middle" x="247.5" y="-25" font-family="Helvetica,sans-Serif" font-size="10.00">Tensor kernel dispatch</text>
</a>
</g>
</g>
<!-- Node3 -->
<g id="Node000003" class="node">
<title>Node3</title>
<g id="a_Node000003"><a xlink:href="group__kernel__blas.html" target="_top" xlink:title="Tag types for kernels implemented on top of BLAS libraries.">
<polygon fill="white" stroke="#666666" points="470,-56 346,-56 346,-37 470,-37 470,-56"/>
<text text-anchor="middle" x="408" y="-44" font-family="Helvetica,sans-Serif" font-size="10.00">BLAS kernel backends</text>
</a>
</g>
</g>
<!-- Node1&#45;&gt;Node3 -->
<g id="edge2" class="edge">
<title>Node1&#45;&gt;Node3</title>
<path fill="none" stroke="black" d="M320.24,-36.1C328.83,-37.13 337.54,-38.17 345.96,-39.18"/>
<polygon fill="black" stroke="black" points="320.58,-32.62 310.23,-34.9 319.75,-39.57 320.58,-32.62"/>
</g>
<!-- Node4 -->
<g id="Node000004" class="node">
<title>Node4</title>
<g id="a_Node000004"><a xlink:href="group__kernel__cpu.html" target="_top" xlink:title="Tag types and helpers specific to CPU tensor kernels.">
<polygon fill="white" stroke="#666666" points="467.5,-19 348.5,-19 348.5,0 467.5,0 467.5,-19"/>
<text text-anchor="middle" x="408" y="-7" font-family="Helvetica,sans-Serif" font-size="10.00">CPU kernel backends</text>
</a>
</g>
</g>
<!-- Node1&#45;&gt;Node4 -->
<g id="edge3" class="edge">
<title>Node1&#45;&gt;Node4</title>
<path fill="none" stroke="black" d="M320.31,-19.34C329.68,-18.28 339.18,-17.2 348.29,-16.17"/>
<polygon fill="black" stroke="black" points="319.78,-15.88 310.23,-20.49 320.57,-22.84 319.78,-15.88"/>
</g>
<!-- Node2 -->
<g id="Node000002" class="node">
<title>Node2</title>
<g id="a_Node000002"><a xlink:href="group__kernel__ops.html" target="_top" xlink:title="High&#45;level operations that dispatch to specialised tensor kernels.">
<polygon fill="white" stroke="#666666" points="149,-37 0,-37 0,-18 149,-18 149,-37"/>
<text text-anchor="middle" x="74.5" y="-25" font-family="Helvetica,sans-Serif" font-size="10.00">Tensor operation interfaces</text>
</a>
</g>
</g>
<!-- Node2&#45;&gt;Node1 -->
<g id="edge1" class="edge">
<title>Node2&#45;&gt;Node1</title>
<path fill="none" stroke="black" d="M159.15,-27.5C167.81,-27.5 176.5,-27.5 184.86,-27.5"/>
<polygon fill="black" stroke="black" points="159.01,-24 149.01,-27.5 159.01,-31 159.01,-24"/>
</g>
</g>
</svg>
</svg>

<style type='text/css'>
<![CDATA[
[data-mouse-over-selected='false'] { opacity: 0.7; }
[data-mouse-over-selected='true']  { opacity: 1.0; }
]]>
</style>
<script type="application/ecmascript"><![CDATA[
document.addEventListener('DOMContentLoaded', (event) => {
  highlightEdges();
  highlightAdjacentNodes();
});
]]></script>
</svg>
