<?xml version="1.0" encoding="UTF-8" standalone="no"?>
<!DOCTYPE svg PUBLIC "-//W3C//DTD SVG 1.1//EN"
 "http://www.w3.org/Graphics/SVG/1.1/DTD/svg11.dtd">
<!-- Generated by graphviz version 2.43.0 (0)
 -->
<!-- Title: BLAS backend integration Pages: 1 -->
<svg width="474pt" height="64pt"
 viewBox="0.00 0.00 474.00 64.00" xmlns="http://www.w3.org/2000/svg" xmlns:xlink="http://www.w3.org/1999/xlink">
<g id="graph0" class="graph" transform="scale(1 1) rotate(0) translate(4 60)">
<title>BLAS backend integration</title>
<!-- Node2 -->
<g id="Node000002" class="node">
<title>Node2</title>
<g id="a_Node000002"><a xlink:href="group__backend.html" target="_top" xlink:title="Facilities that coordinate concrete compute backends with instrumentation hooks.">
<polygon fill="white" stroke="#666666" points="114,-37 0,-37 0,-18 114,-18 114,-37"/>
<text text-anchor="middle" x="57" y="-25" font-family="Helvetica,sans-Serif" font-size="10.00">Backend subsystem</text>
</a>
</g>
</g>
<!-- Node1 -->
<g id="Node000001" class="node">
<title>Node1</title>
<g id="a_Node000001"><a xlink:title="Glue that binds Uni20 abstractions to BLAS vendor implementations.">
<polygon fill="#999999" stroke="#666666" points="292,-37 150,-37 150,-18 292,-18 292,-37"/>
<text text-anchor="middle" x="221" y="-25" font-family="Helvetica,sans-Serif" font-size="10.00">BLAS backend integration</text>
</a>
</g>
</g>
<!-- Node2&#45;&gt;Node1 -->
<g id="edge1" class="edge">
<title>Node2&#45;&gt;Node1</title>
<path fill="none" stroke="black" d="M124.35,-27.5C132.78,-27.5 141.42,-27.5 149.91,-27.5"/>
<polygon fill="black" stroke="black" points="124.21,-24 114.21,-27.5 124.21,-31 124.21,-24"/>
</g>
<!-- Node3 -->
<g id="Node000003" class="node">
<title>Node3</title>
<g id="a_Node000003"><a xlink:href="group__backend__blas__mkl.html" target="_top" xlink:title="Tag types and helpers for integrating Intel MKL with Uni20 BLAS abstractions.">
<polygon fill="white" stroke="#666666" points="464,-56 330,-56 330,-37 464,-37 464,-56"/>
<text text-anchor="middle" x="397" y="-44" font-family="Helvetica,sans-Serif" font-size="10.00">Intel MKL BLAS backend</text>
</a>
</g>
</g>
<!-- Node1&#45;&gt;Node3 -->
<g id="edge2" class="edge">
<title>Node1&#45;&gt;Node3</title>
<path fill="none" stroke="black" d="M302.04,-36.24C311.32,-37.25 320.72,-38.28 329.79,-39.27"/>
<polygon fill="black" stroke="black" points="302.34,-32.75 292.02,-35.15 301.58,-39.71 302.34,-32.75"/>
</g>
<!-- Node4 -->
<g id="Node000004" class="node">
<title>Node4</title>
<g id="a_Node000004"><a xlink:href="group__backend__blas__reference.html" target="_top" xlink:title="Header&#45;only wrappers that provide a portable BLAS fallback implementation.">
<polygon fill="white" stroke="#666666" points="466,-19 328,-19 328,0 466,0 466,-19"/>
<text text-anchor="middle" x="397" y="-7" font-family="Helvetica,sans-Serif" font-size="10.00">Reference BLAS backend</text>
</a>
</g>
</g>
<!-- Node1&#45;&gt;Node4 -->
<g id="edge3" class="edge">
<title>Node1&#45;&gt;Node4</title>
<path fill="none" stroke="black" d="M302.06,-19.22C310.67,-18.33 319.37,-17.43 327.82,-16.55"/>
<polygon fill="black" stroke="black" points="301.61,-15.75 292.02,-20.26 302.33,-22.71 301.61,-15.75"/>
</g>
</g>
</svg>
