<?xml version="1.0" encoding="UTF-8" standalone="no"?>
<!DOCTYPE svg PUBLIC "-//W3C//DTD SVG 1.1//EN"
 "http://www.w3.org/Graphics/SVG/1.1/DTD/svg11.dtd">
<!-- Generated by graphviz version 2.43.0 (0)
 -->
<!-- Title: Backend subsystem Pages: 1 -->
<svg width="323pt" height="150pt"
 viewBox="0.00 0.00 323.00 149.50" xmlns="http://www.w3.org/2000/svg" xmlns:xlink="http://www.w3.org/1999/xlink">
<g id="graph0" class="graph" transform="scale(1 1) rotate(0) translate(4 145.5)">
<title>Backend subsystem</title>
<!-- Node1 -->
<g id="Node000001" class="node">
<title>Node1</title>
<g id="a_Node000001"><a xlink:title="Facilities that coordinate concrete compute backends with instrumentation hooks.">
<polygon fill="#999999" stroke="#666666" points="114,-85.5 0,-85.5 0,-66.5 114,-66.5 114,-85.5"/>
<text text-anchor="middle" x="57" y="-73.5" font-family="Helvetica,sans-Serif" font-size="10.00">Backend subsystem</text>
</a>
</g>
</g>
<!-- Node4 -->
<g id="Node000004" class="node">
<title>Node4</title>
<g id="a_Node000004"><a xlink:href="group__backend__blas.html" target="_top" xlink:title="Glue that binds Uni20 abstractions to BLAS vendor implementations.">
<polygon fill="white" stroke="#666666" points="303.5,-141.5 161.5,-141.5 161.5,-122.5 303.5,-122.5 303.5,-141.5"/>
<text text-anchor="middle" x="232.5" y="-129.5" font-family="Helvetica,sans-Serif" font-size="10.00">BLAS backend integration</text>
</a>
</g>
</g>
<!-- Node1&#45;&gt;Node4 -->
<g id="edge3" class="edge">
<title>Node1&#45;&gt;Node4</title>
<path fill="none" stroke="black" d="M87.72,-89.82C105.5,-97.7 128.72,-107.31 150,-114 160.09,-117.17 171.05,-120 181.57,-122.42"/>
<polygon fill="black" stroke="black" points="89,-86.56 78.45,-85.65 86.13,-92.95 89,-86.56"/>
</g>
<!-- Node2 -->
<g id="Node000002" class="node">
<title>Node2</title>
<g id="a_Node000002"><a xlink:href="group__backend__cuda.html" target="_top" xlink:title="Glue that binds Uni20 abstractions to CUDA runtime facilities.">
<polygon fill="white" stroke="#666666" points="305,-104.5 160,-104.5 160,-85.5 305,-85.5 305,-104.5"/>
<text text-anchor="middle" x="232.5" y="-92.5" font-family="Helvetica,sans-Serif" font-size="10.00">CUDA backend integration</text>
</a>
</g>
</g>
<!-- Node1&#45;&gt;Node2 -->
<g id="edge1" class="edge">
<title>Node1&#45;&gt;Node2</title>
<path fill="none" stroke="black" d="M124.4,-83.27C136.03,-84.54 148.17,-85.87 159.94,-87.16"/>
<polygon fill="black" stroke="black" points="124.65,-79.78 114.33,-82.17 123.89,-86.74 124.65,-79.78"/>
</g>
<!-- Node3 -->
<g id="Node000003" class="node">
<title>Node3</title>
<g id="a_Node000003"><a xlink:href="group__backend__cusolver.html" target="_top" xlink:title="Helpers that adapt cuSOLVER handles and status codes to Uni20 abstractions.">
<polygon fill="white" stroke="#666666" points="315,-67.5 150,-67.5 150,-48.5 315,-48.5 315,-67.5"/>
<text text-anchor="middle" x="232.5" y="-55.5" font-family="Helvetica,sans-Serif" font-size="10.00">cuSOLVER backend integration</text>
</a>
</g>
</g>
<!-- Node1&#45;&gt;Node3 -->
<g id="edge2" class="edge">
<title>Node1&#45;&gt;Node3</title>
<path fill="none" stroke="black" d="M124.38,-69.11C132.74,-68.25 141.37,-67.35 149.93,-66.46"/>
<polygon fill="black" stroke="black" points="123.92,-65.64 114.33,-70.16 124.64,-72.61 123.92,-65.64"/>
</g>
<!-- Node5 -->
<g id="Node000005" class="node">
<title>Node5</title>
<g id="a_Node000005"><a xlink:href="group__internal.html" target="_top" xlink:title="Internal macros and helpers that support backend integrations without being part of the public API su...">
<polygon fill="white" stroke="#666666" points="302,-30 163,-30 163,0 302,0 302,-30"/>
<text text-anchor="start" x="171" y="-18" font-family="Helvetica,sans-Serif" font-size="10.00">Backend implementation</text>
<text text-anchor="middle" x="232.5" y="-7" font-family="Helvetica,sans-Serif" font-size="10.00"> details</text>
</a>
</g>
</g>
<!-- Node1&#45;&gt;Node5 -->
<g id="edge4" class="edge">
<title>Node1&#45;&gt;Node5</title>
<path fill="none" stroke="black" d="M90.61,-62.55C108.1,-55.51 130.1,-46.94 150,-40 159.78,-36.59 170.31,-33.18 180.44,-30.02"/>
<polygon fill="black" stroke="black" points="88.84,-59.49 80.88,-66.49 91.47,-65.98 88.84,-59.49"/>
</g>
</g>
</svg>
