<?xml version="1.0" encoding="UTF-8" standalone="no"?>
<!DOCTYPE svg PUBLIC "-//W3C//DTD SVG 1.1//EN"
 "http://www.w3.org/Graphics/SVG/1.1/DTD/svg11.dtd">
<!-- Generated by graphviz version 2.43.0 (0)
 -->
<!-- Title: Graphical Class Hierarchy Pages: 1 -->
<svg width="362pt" height="64pt"
 viewBox="0.00 0.00 362.00 64.00" xmlns="http://www.w3.org/2000/svg" xmlns:xlink="http://www.w3.org/1999/xlink">
<g id="graph0" class="graph" transform="scale(1 1) rotate(0) translate(4 60)">
<title>Graphical Class Hierarchy</title>
<!-- Node0 -->
<g id="Node000000" class="node">
<title>Node0</title>
<g id="a_Node000000"><a xlink:href="structuni20_1_1cpu__tag.html" target="_top" xlink:title="Tag selecting CPU&#45;based tensor and linear&#45;algebra kernels.">
<polygon fill="white" stroke="#666666" points="88,-37 0,-37 0,-18 88,-18 88,-37"/>
<text text-anchor="middle" x="44" y="-25" font-family="Helvetica,sans-Serif" font-size="10.00">uni20::cpu_tag</text>
</a>
</g>
</g>
<!-- Node1 -->
<g id="Node000001" class="node">
<title>Node1</title>
<g id="a_Node000001"><a xlink:href="structuni20_1_1blas__tag.html" target="_top" xlink:title="Tag selecting BLAS&#45;backed kernels layered on CPU primitives.">
<polygon fill="white" stroke="#666666" points="215,-37 124,-37 124,-18 215,-18 215,-37"/>
<text text-anchor="middle" x="169.5" y="-25" font-family="Helvetica,sans-Serif" font-size="10.00">uni20::blas_tag</text>
</a>
</g>
</g>
<!-- Node0&#45;&gt;Node1 -->
<g id="edge34_Node000000_Node000001" class="edge">
<title>Node0&#45;&gt;Node1</title>
<g id="a_edge34_Node000000_Node000001"><a xlink:title=" ">
<path fill="none" stroke="#63b8ff" d="M98.4,-27.5C106.89,-27.5 115.6,-27.5 123.86,-27.5"/>
<polygon fill="#63b8ff" stroke="#63b8ff" points="98.19,-24 88.19,-27.5 98.19,-31 98.19,-24"/>
</a>
</g>
</g>
<!-- Node2 -->
<g id="Node000002" class="node">
<title>Node2</title>
<g id="a_Node000002"><a xlink:href="structuni20_1_1lapack__tag.html" target="_top" xlink:title="Tag selecting LAPACK&#45;backed kernels layered on BLAS primitives.">
<polygon fill="white" stroke="#666666" points="354,-56 251,-56 251,-37 354,-37 354,-56"/>
<text text-anchor="middle" x="302.5" y="-44" font-family="Helvetica,sans-Serif" font-size="10.00">uni20::lapack_tag</text>
</a>
</g>
</g>
<!-- Node1&#45;&gt;Node2 -->
<g id="edge35_Node000001_Node000002" class="edge">
<title>Node1&#45;&gt;Node2</title>
<g id="a_edge35_Node000001_Node000002"><a xlink:title=" ">
<path fill="none" stroke="#63b8ff" d="M225.31,-35.45C233.72,-36.67 242.37,-37.92 250.68,-39.13"/>
<polygon fill="#63b8ff" stroke="#63b8ff" points="225.62,-31.96 215.22,-33.99 224.61,-38.88 225.62,-31.96"/>
</a>
</g>
</g>
<!-- Node3 -->
<g id="Node000003" class="node">
<title>Node3</title>
<g id="a_Node000003"><a xlink:href="structuni20_1_1mkl__tag.html" target="_top" xlink:title="Tag type that selects the Intel MKL&#45;backed BLAS implementation.">
<polygon fill="white" stroke="#666666" points="347,-19 258,-19 258,0 347,0 347,-19"/>
<text text-anchor="middle" x="302.5" y="-7" font-family="Helvetica,sans-Serif" font-size="10.00">uni20::mkl_tag</text>
</a>
</g>
</g>
<!-- Node1&#45;&gt;Node3 -->
<g id="edge36_Node000001_Node000003" class="edge">
<title>Node1&#45;&gt;Node3</title>
<g id="a_edge36_Node000001_Node000003"><a xlink:title=" ">
<path fill="none" stroke="#63b8ff" d="M225.43,-19.95C236.26,-18.46 247.48,-16.92 257.87,-15.49"/>
<polygon fill="#63b8ff" stroke="#63b8ff" points="224.65,-16.53 215.22,-21.36 225.6,-23.46 224.65,-16.53"/>
</a>
</g>
</g>
</g>
</svg>
