<?xml version="1.0" encoding="UTF-8" standalone="no"?>
<!DOCTYPE svg PUBLIC "-//W3C//DTD SVG 1.1//EN"
 "http://www.w3.org/Graphics/SVG/1.1/DTD/svg11.dtd">
<!-- Generated by graphviz version 2.43.0 (0)
 -->
<!-- Title: Graphical Class Hierarchy Pages: 1 -->
<svg width="388pt" height="27pt"
 viewBox="0.00 0.00 388.00 27.00" xmlns="http://www.w3.org/2000/svg" xmlns:xlink="http://www.w3.org/1999/xlink">
<g id="graph0" class="graph" transform="scale(1 1) rotate(0) translate(4 23)">
<title>Graphical Class Hierarchy</title>
<!-- Node0 -->
<g id="Node000000" class="node">
<title>Node0</title>
<g id="a_Node000000"><a xlink:href="structuni20_1_1cuda__tag.html" target="_top" xlink:title="Tag selecting CUDA&#45;capable kernels.">
<polygon fill="white" stroke="#666666" points="94,-19 0,-19 0,0 94,0 94,-19"/>
<text text-anchor="middle" x="47" y="-7" font-family="Helvetica,sans-Serif" font-size="10.00">uni20::cuda_tag</text>
</a>
</g>
</g>
<!-- Node1 -->
<g id="Node000001" class="node">
<title>Node1</title>
<g id="a_Node000001"><a xlink:href="structuni20_1_1cublas__tag.html" target="_top" xlink:title="Tag selecting cuBLAS&#45;backed CUDA kernels.">
<polygon fill="white" stroke="#666666" points="232,-19 130,-19 130,0 232,0 232,-19"/>
<text text-anchor="middle" x="181" y="-7" font-family="Helvetica,sans-Serif" font-size="10.00">uni20::cublas_tag</text>
</a>
</g>
</g>
<!-- Node0&#45;&gt;Node1 -->
<g id="edge37_Node000000_Node000001" class="edge">
<title>Node0&#45;&gt;Node1</title>
<g id="a_edge37_Node000000_Node000001"><a xlink:title=" ">
<path fill="none" stroke="#63b8ff" d="M104.28,-9.5C112.69,-9.5 121.31,-9.5 129.58,-9.5"/>
<polygon fill="#63b8ff" stroke="#63b8ff" points="104.17,-6 94.17,-9.5 104.17,-13 104.17,-6"/>
</a>
</g>
</g>
<!-- Node2 -->
<g id="Node000002" class="node">
<title>Node2</title>
<g id="a_Node000002"><a xlink:href="structuni20_1_1cusolver__tag.html" target="_top" xlink:title="Tag selecting cuSOLVER&#45;backed CUDA kernels.">
<polygon fill="white" stroke="#666666" points="380,-19 268,-19 268,0 380,0 380,-19"/>
<text text-anchor="middle" x="324" y="-7" font-family="Helvetica,sans-Serif" font-size="10.00">uni20::cusolver_tag</text>
</a>
</g>
</g>
<!-- Node1&#45;&gt;Node2 -->
<g id="edge38_Node000001_Node000002" class="edge">
<title>Node1&#45;&gt;Node2</title>
<g id="a_edge38_Node000001_Node000002"><a xlink:title=" ">
<path fill="none" stroke="#63b8ff" d="M242.3,-9.5C250.76,-9.5 259.42,-9.5 267.78,-9.5"/>
<polygon fill="#63b8ff" stroke="#63b8ff" points="242.11,-6 232.11,-9.5 242.11,-13 242.11,-6"/>
</a>
</g>
</g>
</g>
</svg>
