<?xml version="1.0" encoding="UTF-8" standalone="no"?>
<!DOCTYPE svg PUBLIC "-//W3C//DTD SVG 1.1//EN"
 "http://www.w3.org/Graphics/SVG/1.1/DTD/svg11.dtd">
<!-- Generated by graphviz version 2.43.0 (0)
 -->
<!-- Title: Graphical Class Hierarchy Pages: 1 -->
<svg width="248pt" height="64pt"
 viewBox="0.00 0.00 248.00 64.00" xmlns="http://www.w3.org/2000/svg" xmlns:xlink="http://www.w3.org/1999/xlink">
<g id="graph0" class="graph" transform="scale(1 1) rotate(0) translate(4 60)">
<title>Graphical Class Hierarchy</title>
<!-- Node0 -->
<g id="Node000000" class="node">
<title>Node0</title>
<g id="a_Node000000"><a xlink:title=" ">
<polygon fill="#e0e0e0" stroke="#999999" points="50.5,-56 11.5,-56 11.5,-37 50.5,-37 50.5,-56"/>
<text text-anchor="middle" x="31" y="-44" font-family="Helvetica,sans-Serif" font-size="10.00">Func</text>
</a>
</g>
</g>
<!-- Node1 -->
<g id="Node000001" class="node">
<title>Node1</title>
<g id="a_Node000001"><a xlink:href="structuni20_1_1TransformAccessor.html" target="_top" xlink:title="An mdspan accessor that applies an N‑ary functor to N child spans, with maximal empty‑base optimizati...">
<polygon fill="white" stroke="#666666" points="240,-42.5 98,-42.5 98,-12.5 240,-12.5 240,-42.5"/>
<text text-anchor="start" x="106" y="-30.5" font-family="Helvetica,sans-Serif" font-size="10.00">uni20::TransformAccessor</text>
<text text-anchor="middle" x="169" y="-19.5" font-family="Helvetica,sans-Serif" font-size="10.00">&lt; Func, Spans &gt;</text>
</a>
</g>
</g>
<!-- Node0&#45;&gt;Node1 -->
<g id="edge3_Node000000_Node000001" class="edge">
<title>Node0&#45;&gt;Node1</title>
<g id="a_edge3_Node000000_Node000001"><a xlink:title=" ">
<path fill="none" stroke="#8b1a1a" d="M60.78,-42.48C71.69,-40.96 84.64,-39.15 97.71,-37.32"/>
<polygon fill="#8b1a1a" stroke="#8b1a1a" points="60.04,-39.05 50.63,-43.9 61.01,-45.98 60.04,-39.05"/>
</a>
</g>
</g>
<!-- Node2 -->
<g id="Node000002" class="node">
<title>Node2</title>
<g id="a_Node000002"><a xlink:title=" ">
<polygon fill="#e0e0e0" stroke="#999999" points="62,-19 0,-19 0,0 62,0 62,-19"/>
<text text-anchor="middle" x="31" y="-7" font-family="Helvetica,sans-Serif" font-size="10.00">std::tuple</text>
</a>
</g>
</g>
<!-- Node2&#45;&gt;Node1 -->
<g id="edge4_Node000002_Node000001" class="edge">
<title>Node2&#45;&gt;Node1</title>
<g id="a_edge4_Node000002_Node000001"><a xlink:title=" ">
<path fill="none" stroke="#8b1a1a" d="M72.37,-14.84C80.42,-15.91 89.11,-17.06 97.83,-18.21"/>
<polygon fill="#8b1a1a" stroke="#8b1a1a" points="72.56,-11.34 62.18,-13.49 71.64,-18.28 72.56,-11.34"/>
</a>
</g>
</g>
</g>
</svg>
