<?xml version="1.0" encoding="UTF-8" standalone="no"?>
<!DOCTYPE svg PUBLIC "-//W3C//DTD SVG 1.1//EN"
 "http://www.w3.org/Graphics/SVG/1.1/DTD/svg11.dtd">
<!-- Generated by graphviz version 2.43.0 (0)
 -->
<!-- Title: Graphical Class Hierarchy Pages: 1 -->
<svg width="294pt" height="150pt"
 viewBox="0.00 0.00 294.00 149.50" xmlns="http://www.w3.org/2000/svg" xmlns:xlink="http://www.w3.org/1999/xlink">
<g id="graph0" class="graph" transform="scale(1 1) rotate(0) translate(4 145.5)">
<title>Graphical Class Hierarchy</title>
<!-- Node0 -->
<g id="Node000000" class="node">
<title>Node0</title>
<g id="a_Node000000"><a xlink:title=" ">
<polygon fill="#e0e0e0" stroke="#999999" points="89,-74 0,-74 0,-55 89,-55 89,-74"/>
<text text-anchor="middle" x="44.5" y="-62" font-family="Helvetica,sans-Serif" font-size="10.00">std::false_type</text>
</a>
</g>
</g>
<!-- Node1 -->
<g id="Node000001" class="node">
<title>Node1</title>
<g id="a_Node000001"><a xlink:href="structhas__stream__extractor.html" target="_top" xlink:title=" ">
<polygon fill="white" stroke="#666666" points="267,-141.5 144,-141.5 144,-111.5 267,-111.5 267,-141.5"/>
<text text-anchor="start" x="152" y="-129.5" font-family="Helvetica,sans-Serif" font-size="10.00">has_stream_extractor</text>
<text text-anchor="middle" x="205.5" y="-118.5" font-family="Helvetica,sans-Serif" font-size="10.00">&lt; T, typename &gt;</text>
</a>
</g>
</g>
<!-- Node0&#45;&gt;Node1 -->
<g id="edge6_Node000000_Node000001" class="edge">
<title>Node0&#45;&gt;Node1</title>
<g id="a_edge6_Node000000_Node000001"><a xlink:title=" ">
<path fill="none" stroke="#63b8ff" d="M72.75,-78.8C87.89,-86.42 107.21,-95.61 125,-102.5 133.2,-105.68 142.01,-108.7 150.67,-111.47"/>
<polygon fill="#63b8ff" stroke="#63b8ff" points="73.96,-75.49 63.47,-74.06 70.78,-81.72 73.96,-75.49"/>
</a>
</g>
</g>
<!-- Node2 -->
<g id="Node000002" class="node">
<title>Node2</title>
<g id="a_Node000002"><a xlink:href="structuni20_1_1is__complex__t.html" target="_top" xlink:title="Trait to detect whether a type is a complex scalar type.">
<polygon fill="white" stroke="#666666" points="277,-93 134,-93 134,-74 277,-74 277,-93"/>
<text text-anchor="middle" x="205.5" y="-81" font-family="Helvetica,sans-Serif" font-size="10.00">uni20::is_complex_t&lt; T &gt;</text>
</a>
</g>
</g>
<!-- Node0&#45;&gt;Node2 -->
<g id="edge7_Node000000_Node000002" class="edge">
<title>Node0&#45;&gt;Node2</title>
<g id="a_edge7_Node000000_Node000002"><a xlink:title=" ">
<path fill="none" stroke="#63b8ff" d="M99.33,-70.93C110.44,-72.26 122.3,-73.68 133.9,-75.06"/>
<polygon fill="#63b8ff" stroke="#63b8ff" points="99.71,-67.45 89.37,-69.74 98.88,-74.4 99.71,-67.45"/>
</a>
</g>
</g>
<!-- Node3 -->
<g id="Node000003" class="node">
<title>Node3</title>
<g id="a_Node000003"><a xlink:href="structuni20_1_1is__real__t.html" target="_top" xlink:title="Trait to detect whether a type is a real&#45;valued scalar.">
<polygon fill="white" stroke="#666666" points="265,-56 146,-56 146,-37 265,-37 265,-56"/>
<text text-anchor="middle" x="205.5" y="-44" font-family="Helvetica,sans-Serif" font-size="10.00">uni20::is_real_t&lt; T &gt;</text>
</a>
</g>
</g>
<!-- Node0&#45;&gt;Node3 -->
<g id="edge8_Node000000_Node000003" class="edge">
<title>Node0&#45;&gt;Node3</title>
<g id="a_edge8_Node000000_Node000003"><a xlink:title=" ">
<path fill="none" stroke="#63b8ff" d="M99.47,-58.39C114.41,-56.7 130.7,-54.86 145.89,-53.14"/>
<polygon fill="#63b8ff" stroke="#63b8ff" points="98.91,-54.93 89.37,-59.53 99.7,-61.89 98.91,-54.93"/>
</a>
</g>
</g>
<!-- Node4 -->
<g id="Node000004" class="node">
<title>Node4</title>
<g id="a_Node000004"><a xlink:href="structuni20_1_1is__sum__accessor.html" target="_top" xlink:title="Trait to detect SumAccessor instantiations.">
<polygon fill="white" stroke="#666666" points="286,-19 125,-19 125,0 286,0 286,-19"/>
<text text-anchor="middle" x="205.5" y="-7" font-family="Helvetica,sans-Serif" font-size="10.00">uni20::is_sum_accessor&lt; T &gt;</text>
</a>
</g>
</g>
<!-- Node0&#45;&gt;Node4 -->
<g id="edge9_Node000000_Node000004" class="edge">
<title>Node0&#45;&gt;Node4</title>
<g id="a_edge9_Node000000_Node000004"><a xlink:title=" ">
<path fill="none" stroke="#63b8ff" d="M73.28,-50.34C88.31,-43.09 107.36,-34.54 125,-28.5 135.47,-24.91 146.94,-21.75 157.83,-19.08"/>
<polygon fill="#63b8ff" stroke="#63b8ff" points="71.48,-47.33 64.04,-54.88 74.56,-53.61 71.48,-47.33"/>
</a>
</g>
</g>
</g>
</svg>
