<?xml version="1.0" encoding="UTF-8" standalone="no"?>
<!DOCTYPE svg PUBLIC "-//W3C//DTD SVG 1.1//EN"
 "http://www.w3.org/Graphics/SVG/1.1/DTD/svg11.dtd">
<!-- Generated by graphviz version 2.43.0 (0)
 -->
<!-- Title: Graphical Class Hierarchy Pages: 1 -->
<svg width="293pt" height="209pt"
 viewBox="0.00 0.00 293.00 209.00" xmlns="http://www.w3.org/2000/svg" xmlns:xlink="http://www.w3.org/1999/xlink">
<g id="graph0" class="graph" transform="scale(1 1) rotate(0) translate(4 205)">
<title>Graphical Class Hierarchy</title>
<!-- Node0 -->
<g id="Node000000" class="node">
<title>Node0</title>
<g id="a_Node000000"><a xlink:title=" ">
<polygon fill="#e0e0e0" stroke="#999999" points="84,-115.5 0,-115.5 0,-96.5 84,-96.5 84,-115.5"/>
<text text-anchor="middle" x="42" y="-103.5" font-family="Helvetica,sans-Serif" font-size="10.00">std::true_type</text>
</a>
</g>
</g>
<!-- Node1 -->
<g id="Node000001" class="node">
<title>Node1</title>
<g id="a_Node000001"><a xlink:href="structuni20_1_1is__complex__t_3_01std_1_1complex_3_01T_01_4_01_4.html" target="_top" xlink:title=" ">
<polygon fill="white" stroke="#666666" points="268,-201 137,-201 137,-171 268,-171 268,-201"/>
<text text-anchor="start" x="145" y="-189" font-family="Helvetica,sans-Serif" font-size="10.00">uni20::is_complex_t</text>
<text text-anchor="middle" x="202.5" y="-178" font-family="Helvetica,sans-Serif" font-size="10.00">&lt; std::complex&lt; T &gt; &gt;</text>
</a>
</g>
</g>
<!-- Node0&#45;&gt;Node1 -->
<g id="edge23_Node000000_Node000001" class="edge">
<title>Node0&#45;&gt;Node1</title>
<g id="a_edge23_Node000000_Node000001"><a xlink:title=" ">
<path fill="none" stroke="#63b8ff" d="M61.61,-122.37C76.51,-134.75 98.43,-151.38 120,-162 126.75,-165.32 134.04,-168.28 141.4,-170.87"/>
<polygon fill="#63b8ff" stroke="#63b8ff" points="63.58,-119.45 53.7,-115.64 59.05,-124.79 63.58,-119.45"/>
</a>
</g>
</g>
<!-- Node2 -->
<g id="Node000002" class="node">
<title>Node2</title>
<g id="a_Node000002"><a xlink:href="structuni20_1_1is__real__t_3_01double_01_4.html" target="_top" xlink:title=" ">
<polygon fill="white" stroke="#666666" points="275.5,-152.5 129.5,-152.5 129.5,-133.5 275.5,-133.5 275.5,-152.5"/>
<text text-anchor="middle" x="202.5" y="-140.5" font-family="Helvetica,sans-Serif" font-size="10.00">uni20::is_real_t&lt; double &gt;</text>
</a>
</g>
</g>
<!-- Node0&#45;&gt;Node2 -->
<g id="edge24_Node000000_Node000002" class="edge">
<title>Node0&#45;&gt;Node2</title>
<g id="a_edge24_Node000000_Node000002"><a xlink:title=" ">
<path fill="none" stroke="#63b8ff" d="M90.81,-117.99C100.46,-120.36 110.55,-122.79 120,-125 132.13,-127.84 145.31,-130.8 157.47,-133.48"/>
<polygon fill="#63b8ff" stroke="#63b8ff" points="91.49,-114.55 80.95,-115.56 89.82,-121.35 91.49,-114.55"/>
</a>
</g>
</g>
<!-- Node3 -->
<g id="Node000003" class="node">
<title>Node3</title>
<g id="a_Node000003"><a xlink:href="structuni20_1_1is__real__t_3_01float_01_4.html" target="_top" xlink:title=" ">
<polygon fill="white" stroke="#666666" points="270,-115.5 135,-115.5 135,-96.5 270,-96.5 270,-115.5"/>
<text text-anchor="middle" x="202.5" y="-103.5" font-family="Helvetica,sans-Serif" font-size="10.00">uni20::is_real_t&lt; float &gt;</text>
</a>
</g>
</g>
<!-- Node0&#45;&gt;Node3 -->
<g id="edge25_Node000000_Node000003" class="edge">
<title>Node0&#45;&gt;Node3</title>
<g id="a_edge25_Node000000_Node000003"><a xlink:title=" ">
<path fill="none" stroke="#63b8ff" d="M94.35,-106C107.31,-106 121.41,-106 135,-106"/>
<polygon fill="#63b8ff" stroke="#63b8ff" points="94.23,-102.5 84.23,-106 94.23,-109.5 94.23,-102.5"/>
</a>
</g>
</g>
<!-- Node4 -->
<g id="Node000004" class="node">
<title>Node4</title>
<g id="a_Node000004"><a xlink:href="structuni20_1_1is__real__t_3_01long_01double_01_4.html" target="_top" xlink:title=" ">
<polygon fill="white" stroke="#666666" points="264,-78 141,-78 141,-48 264,-48 264,-78"/>
<text text-anchor="start" x="149" y="-66" font-family="Helvetica,sans-Serif" font-size="10.00">uni20::is_real_t&lt; long</text>
<text text-anchor="middle" x="202.5" y="-55" font-family="Helvetica,sans-Serif" font-size="10.00"> double &gt;</text>
</a>
</g>
</g>
<!-- Node0&#45;&gt;Node4 -->
<g id="edge26_Node000000_Node000004" class="edge">
<title>Node0&#45;&gt;Node4</title>
<g id="a_edge26_Node000000_Node000004"><a xlink:title=" ">
<path fill="none" stroke="#63b8ff" d="M87.91,-93.82C106.03,-88.9 127.13,-83.18 146.19,-78.01"/>
<polygon fill="#63b8ff" stroke="#63b8ff" points="86.91,-90.46 78.18,-96.46 88.74,-97.22 86.91,-90.46"/>
</a>
</g>
</g>
<!-- Node5 -->
<g id="Node000005" class="node">
<title>Node5</title>
<g id="a_Node000005"><a xlink:href="structuni20_1_1is__sum__accessor_3_01SumAccessor_3_01Spans_8_8_8_01_4_01_4.html" target="_top" xlink:title="Specialization for SumAccessor instantiations.">
<polygon fill="white" stroke="#666666" points="285,-30 120,-30 120,0 285,0 285,-30"/>
<text text-anchor="start" x="128" y="-18" font-family="Helvetica,sans-Serif" font-size="10.00">uni20::is_sum_accessor</text>
<text text-anchor="middle" x="202.5" y="-7" font-family="Helvetica,sans-Serif" font-size="10.00">&lt; SumAccessor&lt; Spans... &gt; &gt;</text>
</a>
</g>
</g>
<!-- Node0&#45;&gt;Node5 -->
<g id="edge27_Node000000_Node000005" class="edge">
<title>Node0&#45;&gt;Node5</title>
<g id="a_edge27_Node000000_Node000005"><a xlink:title=" ">
<path fill="none" stroke="#63b8ff" d="M58.66,-88.68C73.19,-73.57 96.14,-52.08 120,-39 126.21,-35.6 132.96,-32.63 139.82,-30.05"/>
<polygon fill="#63b8ff" stroke="#63b8ff" points="55.78,-86.64 51.49,-96.33 60.88,-91.42 55.78,-86.64"/>
</a>
</g>
</g>
</g>
</svg>
