<?xml version="1.0" encoding="UTF-8" standalone="no"?>
<!DOCTYPE svg PUBLIC "-//W3C//DTD SVG 1.1//EN"
 "http://www.w3.org/Graphics/SVG/1.1/DTD/svg11.dtd">
<!-- Generated by graphviz version 2.43.0 (0)
 -->
<!-- Title: Graphical Class Hierarchy Pages: 1 -->
<svg width="358pt" height="101pt"
 viewBox="0.00 0.00 358.00 101.00" xmlns="http://www.w3.org/2000/svg" xmlns:xlink="http://www.w3.org/1999/xlink">
<g id="graph0" class="graph" transform="scale(1 1) rotate(0) translate(4 97)">
<title>Graphical Class Hierarchy</title>
<!-- Node0 -->
<g id="Node000000" class="node">
<title>Node0</title>
<g id="a_Node000000"><a xlink:href="classuni20_1_1async_1_1IScheduler.html" target="_top" xlink:title="Minimal abstract interface for scheduling coroutine handles.">
<polygon fill="white" stroke="#666666" points="135,-56 0,-56 0,-37 135,-37 135,-56"/>
<text text-anchor="middle" x="67.5" y="-44" font-family="Helvetica,sans-Serif" font-size="10.00">uni20::async::IScheduler</text>
</a>
</g>
</g>
<!-- Node1 -->
<g id="Node000001" class="node">
<title>Node1</title>
<g id="a_Node000001"><a xlink:href="classuni20_1_1async_1_1DebugScheduler.html" target="_top" xlink:title="Simple FIFO scheduler.">
<polygon fill="white" stroke="#666666" points="342.5,-93 178.5,-93 178.5,-74 342.5,-74 342.5,-93"/>
<text text-anchor="middle" x="260.5" y="-81" font-family="Helvetica,sans-Serif" font-size="10.00">uni20::async::DebugScheduler</text>
</a>
</g>
</g>
<!-- Node0&#45;&gt;Node1 -->
<g id="edge31_Node000000_Node000001" class="edge">
<title>Node0&#45;&gt;Node1</title>
<g id="a_edge31_Node000000_Node000001"><a xlink:title=" ">
<path fill="none" stroke="#63b8ff" d="M127.6,-57.95C154.07,-63.08 184.93,-69.06 210.15,-73.94"/>
<polygon fill="#63b8ff" stroke="#63b8ff" points="128.17,-54.49 117.69,-56.03 126.84,-61.37 128.17,-54.49"/>
</a>
</g>
</g>
<!-- Node2 -->
<g id="Node000002" class="node">
<title>Node2</title>
<g id="a_Node000002"><a xlink:href="classuni20_1_1async_1_1TbbNumaScheduler.html" target="_top" xlink:title="NUMA&#45;aware scheduler that balances work across per&#45;node TBB arenas.">
<polygon fill="white" stroke="#666666" points="350,-56 171,-56 171,-37 350,-37 350,-56"/>
<text text-anchor="middle" x="260.5" y="-44" font-family="Helvetica,sans-Serif" font-size="10.00">uni20::async::TbbNumaScheduler</text>
</a>
</g>
</g>
<!-- Node0&#45;&gt;Node2 -->
<g id="edge32_Node000000_Node000002" class="edge">
<title>Node0&#45;&gt;Node2</title>
<g id="a_edge32_Node000000_Node000002"><a xlink:title=" ">
<path fill="none" stroke="#63b8ff" d="M145.16,-46.5C153.56,-46.5 162.16,-46.5 170.69,-46.5"/>
<polygon fill="#63b8ff" stroke="#63b8ff" points="145.03,-43 135.03,-46.5 145.03,-50 145.03,-43"/>
</a>
</g>
</g>
<!-- Node3 -->
<g id="Node000003" class="node">
<title>Node3</title>
<g id="a_Node000003"><a xlink:href="classuni20_1_1async_1_1TbbScheduler.html" target="_top" xlink:title="Scheduler backend that uses Intel oneTBB to resume coroutines.">
<polygon fill="white" stroke="#666666" points="335.5,-19 185.5,-19 185.5,0 335.5,0 335.5,-19"/>
<text text-anchor="middle" x="260.5" y="-7" font-family="Helvetica,sans-Serif" font-size="10.00">uni20::async::TbbScheduler</text>
</a>
</g>
</g>
<!-- Node0&#45;&gt;Node3 -->
<g id="edge33_Node000000_Node000003" class="edge">
<title>Node0&#45;&gt;Node3</title>
<g id="a_edge33_Node000000_Node000003"><a xlink:title=" ">
<path fill="none" stroke="#63b8ff" d="M127.6,-35.05C154.07,-29.92 184.93,-23.94 210.15,-19.06"/>
<polygon fill="#63b8ff" stroke="#63b8ff" points="126.84,-31.63 117.69,-36.97 128.17,-38.51 126.84,-31.63"/>
</a>
</g>
</g>
</g>
</svg>
