<?xml version="1.0" encoding="UTF-8" standalone="no"?>
<!DOCTYPE svg PUBLIC "-//W3C//DTD SVG 1.1//EN"
 "http://www.w3.org/Graphics/SVG/1.1/DTD/svg11.dtd">
<!-- Generated by graphviz version 2.43.0 (0)
 -->
<!-- Title: backend_blas.hpp Pages: 1 -->
<svg width="276pt" height="192pt"
 viewBox="0.00 0.00 276.00 192.00" xmlns="http://www.w3.org/2000/svg" xmlns:xlink="http://www.w3.org/1999/xlink">

<svg id="main" version="1.1" xmlns="http://www.w3.org/2000/svg" xmlns:xlink="http://www.w3.org/1999/xlink" xml:space="preserve" onload="init(evt)">
<style type="text/css"><![CDATA[
.node, .edge {opacity: 0.7;}
.node.selected, .edge.selected {opacity: 1;}
.edge:hover path { stroke: red; }
.edge:hover polygon { stroke: red; fill: red; }
]]></style>
<script type="application/ecmascript" xlink:href="svg.min.js"/>
<svg id="graph" class="graph">
<g id="graph0" class="graph" transform="scale(1 1) rotate(0) translate(4 188)">
<title>backend_blas.hpp</title>
<!-- Node1 -->
<g id="Node000001" class="node">
<title>Node1</title>
<g id="a_Node000001"><a xlink:title=" ">
<polygon fill="#999999" stroke="#666666" points="192,-184 88,-184 88,-165 192,-165 192,-184"/>
<text text-anchor="middle" x="140" y="-172" font-family="Helvetica,sans-Serif" font-size="10.00">backend_blas.hpp</text>
</a>
</g>
</g>
<!-- Node2 -->
<g id="Node000002" class="node">
<title>Node2</title>
<g id="a_Node000002"><a xlink:href="kernel_2blas_2blas_8hpp.html" target="_top" xlink:title=" ">
<polygon fill="white" stroke="#666666" points="212,-129 68,-129 68,-110 212,-110 212,-129"/>
<text text-anchor="middle" x="140" y="-117" font-family="Helvetica,sans-Serif" font-size="10.00">uni20/kernel/blas/blas.hpp</text>
</a>
</g>
</g>
<!-- Node1&#45;&gt;Node2 -->
<g id="edge1_Node000001_Node000002" class="edge">
<title>Node1&#45;&gt;Node2</title>
<g id="a_edge1_Node000001_Node000002"><a xlink:title=" ">
<path fill="none" stroke="#63b8ff" d="M140,-164.75C140,-157.8 140,-147.85 140,-139.13"/>
<polygon fill="#63b8ff" stroke="#63b8ff" points="143.5,-139.09 140,-129.09 136.5,-139.09 143.5,-139.09"/>
</a>
</g>
</g>
<!-- Node3 -->
<g id="Node000003" class="node">
<title>Node3</title>
<g id="a_Node000003"><a xlink:href="kernel_2cpu_2cpu_8hpp.html" target="_top" xlink:title=" ">
<polygon fill="white" stroke="#666666" points="138,-74 0,-74 0,-55 138,-55 138,-74"/>
<text text-anchor="middle" x="69" y="-62" font-family="Helvetica,sans-Serif" font-size="10.00">uni20/kernel/cpu/cpu.hpp</text>
</a>
</g>
</g>
<!-- Node2&#45;&gt;Node3 -->
<g id="edge2_Node000002_Node000003" class="edge">
<title>Node2&#45;&gt;Node3</title>
<g id="a_edge2_Node000002_Node000003"><a xlink:title=" ">
<path fill="none" stroke="#63b8ff" d="M128.59,-109.98C117.89,-102 101.66,-89.88 88.84,-80.31"/>
<polygon fill="#63b8ff" stroke="#63b8ff" points="90.72,-77.35 80.61,-74.17 86.53,-82.96 90.72,-77.35"/>
</a>
</g>
</g>
<!-- Node5 -->
<g id="Node000005" class="node">
<title>Node5</title>
<g id="a_Node000005"><a xlink:href="tags_2blas_8hpp.html" target="_top" xlink:title="Tag for selecting BLAS&#45;backed kernels.">
<polygon fill="white" stroke="#666666" points="268,-74 156,-74 156,-55 268,-55 268,-74"/>
<text text-anchor="middle" x="212" y="-62" font-family="Helvetica,sans-Serif" font-size="10.00">uni20/tags/blas.hpp</text>
</a>
</g>
</g>
<!-- Node2&#45;&gt;Node5 -->
<g id="edge4_Node000002_Node000005" class="edge">
<title>Node2&#45;&gt;Node5</title>
<g id="a_edge4_Node000002_Node000005"><a xlink:title=" ">
<path fill="none" stroke="#63b8ff" d="M151.57,-109.98C162.42,-102 178.88,-89.88 191.88,-80.31"/>
<polygon fill="#63b8ff" stroke="#63b8ff" points="194.24,-82.92 200.22,-74.17 190.09,-77.28 194.24,-82.92"/>
</a>
</g>
</g>
<!-- Node4 -->
<g id="Node000004" class="node">
<title>Node4</title>
<g id="a_Node000004"><a xlink:href="tags_2cpu_8hpp.html" target="_top" xlink:title="Tag for selecting CPU&#45;based Uni20 kernels.">
<polygon fill="white" stroke="#666666" points="194.5,-19 85.5,-19 85.5,0 194.5,0 194.5,-19"/>
<text text-anchor="middle" x="140" y="-7" font-family="Helvetica,sans-Serif" font-size="10.00">uni20/tags/cpu.hpp</text>
</a>
</g>
</g>
<!-- Node3&#45;&gt;Node4 -->
<g id="edge3_Node000003_Node000004" class="edge">
<title>Node3&#45;&gt;Node4</title>
<g id="a_edge3_Node000003_Node000004"><a xlink:title=" ">
<path fill="none" stroke="#63b8ff" d="M80.41,-54.98C91.11,-47 107.34,-34.88 120.16,-25.31"/>
<polygon fill="#63b8ff" stroke="#63b8ff" points="122.47,-27.96 128.39,-19.17 118.28,-22.35 122.47,-27.96"/>
</a>
</g>
</g>
<!-- Node5&#45;&gt;Node4 -->
<g id="edge5_Node000005_Node000004" class="edge">
<title>Node5&#45;&gt;Node4</title>
<g id="a_edge5_Node000005_Node000004"><a xlink:title=" ">
<path fill="none" stroke="#63b8ff" d="M200.43,-54.98C189.58,-47 173.12,-34.88 160.12,-25.31"/>
<polygon fill="#63b8ff" stroke="#63b8ff" points="161.91,-22.28 151.78,-19.17 157.76,-27.92 161.91,-22.28"/>
</a>
</g>
</g>
</g>
</svg>
</svg>

<style type='text/css'>
<![CDATA[
[data-mouse-over-selected='false'] { opacity: 0.7; }
[data-mouse-over-selected='true']  { opacity: 1.0; }
]]>
</style>
<script type="application/ecmascript"><![CDATA[
document.addEventListener('DOMContentLoaded', (event) => {
  highlightEdges();
  highlightAdjacentNodes();
});
]]></script>
</svg>
