<?xml version="1.0" encoding="UTF-8" standalone="no"?>
<!DOCTYPE svg PUBLIC "-//W3C//DTD SVG 1.1//EN"
 "http://www.w3.org/Graphics/SVG/1.1/DTD/svg11.dtd">
<!-- Generated by graphviz version 2.43.0 (0)
 -->
<!-- Title: cpu.hpp Pages: 1 -->
<svg width="648pt" height="412pt"
 viewBox="0.00 0.00 647.50 412.00" xmlns="http://www.w3.org/2000/svg" xmlns:xlink="http://www.w3.org/1999/xlink">
<g id="graph0" class="graph" transform="scale(1 1) rotate(0) translate(4 408)">
<title>cpu.hpp</title>
<!-- Node1 -->
<g id="Node000001" class="node">
<title>Node1</title>
<g id="a_Node000001"><a xlink:title=" ">
<polygon fill="#999999" stroke="#666666" points="278.5,-404 223.5,-404 223.5,-385 278.5,-385 278.5,-404"/>
<text text-anchor="middle" x="251" y="-392" font-family="Helvetica,sans-Serif" font-size="10.00">cpu.hpp</text>
</a>
</g>
</g>
<!-- Node2 -->
<g id="Node000002" class="node">
<title>Node2</title>
<g id="a_Node000002"><a xlink:href="kernel_2blas_2blas_8hpp.html" target="_top" xlink:title=" ">
<polygon fill="white" stroke="#666666" points="190,-349 132,-349 132,-330 190,-330 190,-349"/>
<text text-anchor="middle" x="161" y="-337" font-family="Helvetica,sans-Serif" font-size="10.00">blas.hpp</text>
</a>
</g>
</g>
<!-- Node1&#45;&gt;Node2 -->
<g id="edge1_Node000001_Node000002" class="edge">
<title>Node1&#45;&gt;Node2</title>
<g id="a_edge1_Node000001_Node000002"><a xlink:title=" ">
<path fill="none" stroke="#63b8ff" d="M227.56,-379.7C211.16,-370.04 189.77,-357.44 175.72,-349.17"/>
<polygon fill="#63b8ff" stroke="#63b8ff" points="226.15,-382.93 236.54,-384.98 229.7,-376.89 226.15,-382.93"/>
</a>
</g>
</g>
<!-- Node5 -->
<g id="Node000005" class="node">
<title>Node5</title>
<g id="a_Node000005"><a xlink:href="cpu_2contract_8hpp.html" target="_top" xlink:title=" ">
<polygon fill="white" stroke="#666666" points="289.5,-349 212.5,-349 212.5,-330 289.5,-330 289.5,-349"/>
<text text-anchor="middle" x="251" y="-337" font-family="Helvetica,sans-Serif" font-size="10.00">contract.hpp</text>
</a>
</g>
</g>
<!-- Node1&#45;&gt;Node5 -->
<g id="edge4_Node000001_Node000005" class="edge">
<title>Node1&#45;&gt;Node5</title>
<g id="a_edge4_Node000001_Node000005"><a xlink:title=" ">
<path fill="none" stroke="#63b8ff" d="M251,-374.66C251,-365.93 251,-355.99 251,-349.09"/>
<polygon fill="#63b8ff" stroke="#63b8ff" points="247.5,-374.75 251,-384.75 254.5,-374.75 247.5,-374.75"/>
</a>
</g>
</g>
<!-- Node7 -->
<g id="Node000007" class="node">
<title>Node7</title>
<g id="a_Node000007"><a xlink:href="vectorstorage_8hpp.html" target="_top" xlink:title=" ">
<polygon fill="white" stroke="#666666" points="412.5,-349 307.5,-349 307.5,-330 412.5,-330 412.5,-349"/>
<text text-anchor="middle" x="360" y="-337" font-family="Helvetica,sans-Serif" font-size="10.00">vectorstorage.hpp</text>
</a>
</g>
</g>
<!-- Node1&#45;&gt;Node7 -->
<g id="edge6_Node000001_Node000007" class="edge">
<title>Node1&#45;&gt;Node7</title>
<g id="a_edge6_Node000001_Node000007"><a xlink:title=" ">
<path fill="none" stroke="#63b8ff" d="M277.73,-380.5C297.79,-370.75 324.68,-357.68 342.17,-349.17"/>
<polygon fill="#63b8ff" stroke="#63b8ff" points="275.98,-377.46 268.51,-384.98 279.04,-383.76 275.98,-377.46"/>
</a>
</g>
</g>
<!-- Node3 -->
<g id="Node000003" class="node">
<title>Node3</title>
<g id="a_Node000003"><a xlink:href="kernel_2blas_2backend__blas_8hpp.html" target="_top" xlink:title=" ">
<polygon fill="white" stroke="#666666" points="104,-294 0,-294 0,-275 104,-275 104,-294"/>
<text text-anchor="middle" x="52" y="-282" font-family="Helvetica,sans-Serif" font-size="10.00">backend_blas.hpp</text>
</a>
</g>
</g>
<!-- Node2&#45;&gt;Node3 -->
<g id="edge2_Node000002_Node000003" class="edge">
<title>Node2&#45;&gt;Node3</title>
<g id="a_edge2_Node000002_Node000003"><a xlink:title=" ">
<path fill="none" stroke="#63b8ff" d="M134.27,-325.5C114.21,-315.75 87.32,-302.68 69.83,-294.17"/>
<polygon fill="#63b8ff" stroke="#63b8ff" points="132.96,-328.76 143.49,-329.98 136.02,-322.46 132.96,-328.76"/>
</a>
</g>
</g>
<!-- Node4 -->
<g id="Node000004" class="node">
<title>Node4</title>
<g id="a_Node000004"><a xlink:href="blas_2contract_8hpp.html" target="_top" xlink:title=" ">
<polygon fill="white" stroke="#666666" points="199.5,-294 122.5,-294 122.5,-275 199.5,-275 199.5,-294"/>
<text text-anchor="middle" x="161" y="-282" font-family="Helvetica,sans-Serif" font-size="10.00">contract.hpp</text>
</a>
</g>
</g>
<!-- Node2&#45;&gt;Node4 -->
<g id="edge3_Node000002_Node000004" class="edge">
<title>Node2&#45;&gt;Node4</title>
<g id="a_edge3_Node000002_Node000004"><a xlink:title=" ">
<path fill="none" stroke="#63b8ff" d="M161,-319.66C161,-310.93 161,-300.99 161,-294.09"/>
<polygon fill="#63b8ff" stroke="#63b8ff" points="157.5,-319.75 161,-329.75 164.5,-319.75 157.5,-319.75"/>
</a>
</g>
</g>
<!-- Node6 -->
<g id="Node000006" class="node">
<title>Node6</title>
<g id="a_Node000006"><a xlink:href="contract_8hpp.html" target="_top" xlink:title=" ">
<polygon fill="white" stroke="#666666" points="294.5,-294 217.5,-294 217.5,-275 294.5,-275 294.5,-294"/>
<text text-anchor="middle" x="256" y="-282" font-family="Helvetica,sans-Serif" font-size="10.00">contract.hpp</text>
</a>
</g>
</g>
<!-- Node5&#45;&gt;Node6 -->
<g id="edge5_Node000005_Node000006" class="edge">
<title>Node5&#45;&gt;Node6</title>
<g id="a_edge5_Node000005_Node000006"><a xlink:title=" ">
<path fill="none" stroke="#63b8ff" d="M252.78,-319.66C253.6,-310.93 254.54,-300.99 255.19,-294.09"/>
<polygon fill="#63b8ff" stroke="#63b8ff" points="249.28,-319.46 251.83,-329.75 256.25,-320.12 249.28,-319.46"/>
</a>
</g>
</g>
<!-- Node8 -->
<g id="Node000008" class="node">
<title>Node8</title>
<g id="a_Node000008"><a xlink:href="matrix__ops_8hpp.html" target="_top" xlink:title=" ">
<polygon fill="white" stroke="#666666" points="464,-74 372,-74 372,-55 464,-55 464,-74"/>
<text text-anchor="middle" x="418" y="-62" font-family="Helvetica,sans-Serif" font-size="10.00">matrix_ops.hpp</text>
</a>
</g>
</g>
<!-- Node7&#45;&gt;Node8 -->
<g id="edge7_Node000007_Node000008" class="edge">
<title>Node7&#45;&gt;Node8</title>
<g id="a_edge7_Node000007_Node000008"><a xlink:title=" ">
<path fill="none" stroke="#63b8ff" d="M355.06,-320.22C349.73,-298.86 342,-262.39 342,-230.5 342,-230.5 342,-230.5 342,-173.5 342,-129.48 384.75,-90.74 406.12,-74.12"/>
<polygon fill="#63b8ff" stroke="#63b8ff" points="351.67,-321.1 357.57,-329.9 358.45,-319.34 351.67,-321.1"/>
</a>
</g>
</g>
<!-- Node10 -->
<g id="Node000010" class="node">
<title>Node10</title>
<g id="a_Node000010"><a xlink:href="tensor__view_8hpp.html" target="_top" xlink:title="Tensor view abstractions and accessor factories built on std::mdspan.">
<polygon fill="white" stroke="#666666" points="485,-294 389,-294 389,-275 485,-275 485,-294"/>
<text text-anchor="middle" x="437" y="-282" font-family="Helvetica,sans-Serif" font-size="10.00">tensor_view.hpp</text>
</a>
</g>
</g>
<!-- Node7&#45;&gt;Node10 -->
<g id="edge9_Node000007_Node000010" class="edge">
<title>Node7&#45;&gt;Node10</title>
<g id="a_edge9_Node000007_Node000010"><a xlink:title=" ">
<path fill="none" stroke="#63b8ff" d="M380.85,-324.15C394.76,-314.57 412.61,-302.29 424.4,-294.17"/>
<polygon fill="#63b8ff" stroke="#63b8ff" points="378.62,-321.43 372.37,-329.98 382.59,-327.2 378.62,-321.43"/>
</a>
</g>
</g>
<!-- Node9 -->
<g id="Node000009" class="node">
<title>Node9</title>
<g id="a_Node000009"><a xlink:href="linalg_8hpp.html" target="_top" xlink:title=" ">
<polygon fill="white" stroke="#666666" points="487.5,-19 422.5,-19 422.5,0 487.5,0 487.5,-19"/>
<text text-anchor="middle" x="455" y="-7" font-family="Helvetica,sans-Serif" font-size="10.00">linalg.hpp</text>
</a>
</g>
</g>
<!-- Node8&#45;&gt;Node9 -->
<g id="edge8_Node000008_Node000009" class="edge">
<title>Node8&#45;&gt;Node9</title>
<g id="a_edge8_Node000008_Node000009"><a xlink:title=" ">
<path fill="none" stroke="#63b8ff" d="M429.95,-46.39C436.31,-37.27 443.87,-26.45 449,-19.09"/>
<polygon fill="#63b8ff" stroke="#63b8ff" points="426.96,-44.55 424.11,-54.75 432.7,-48.55 426.96,-44.55"/>
</a>
</g>
</g>
<!-- Node10&#45;&gt;Node8 -->
<g id="edge13_Node000010_Node000008" class="edge">
<title>Node10&#45;&gt;Node8</title>
<g id="a_edge13_Node000010_Node000008"><a xlink:title=" ">
<path fill="none" stroke="#63b8ff" d="M418.9,-267.95C411.19,-260.14 403.06,-250.01 399,-239 376.87,-179.01 404.13,-100.05 414.39,-74.14"/>
<polygon fill="#63b8ff" stroke="#63b8ff" points="416.61,-270.61 426.29,-274.93 421.42,-265.52 416.61,-270.61"/>
</a>
</g>
</g>
<!-- Node11 -->
<g id="Node000011" class="node">
<title>Node11</title>
<g id="a_Node000011"><a xlink:href="basic__tensor_8hpp.html" target="_top" xlink:title=" ">
<polygon fill="white" stroke="#666666" points="506,-239 408,-239 408,-220 506,-220 506,-239"/>
<text text-anchor="middle" x="457" y="-227" font-family="Helvetica,sans-Serif" font-size="10.00">basic_tensor.hpp</text>
</a>
</g>
</g>
<!-- Node10&#45;&gt;Node11 -->
<g id="edge10_Node000010_Node000011" class="edge">
<title>Node10&#45;&gt;Node11</title>
<g id="a_edge10_Node000010_Node000011"><a xlink:title=" ">
<path fill="none" stroke="#63b8ff" d="M443.89,-265.24C447.24,-256.37 451.1,-246.14 453.76,-239.09"/>
<polygon fill="#63b8ff" stroke="#63b8ff" points="440.56,-264.16 440.3,-274.75 447.11,-266.63 440.56,-264.16"/>
</a>
</g>
</g>
<!-- Node13 -->
<g id="Node000013" class="node">
<title>Node13</title>
<g id="a_Node000013"><a xlink:href="matrix__ops__cpu_8hpp.html" target="_top" xlink:title=" ">
<polygon fill="white" stroke="#666666" points="639.5,-239 524.5,-239 524.5,-220 639.5,-220 639.5,-239"/>
<text text-anchor="middle" x="582" y="-227" font-family="Helvetica,sans-Serif" font-size="10.00">matrix_ops_cpu.hpp</text>
</a>
</g>
</g>
<!-- Node10&#45;&gt;Node13 -->
<g id="edge14_Node000010_Node000013" class="edge">
<title>Node10&#45;&gt;Node13</title>
<g id="a_edge14_Node000010_Node000013"><a xlink:title=" ">
<path fill="none" stroke="#63b8ff" d="M469.69,-271.55C496.62,-261.71 534.16,-247.98 558.28,-239.17"/>
<polygon fill="#63b8ff" stroke="#63b8ff" points="468.49,-268.26 460.3,-274.98 470.89,-274.84 468.49,-268.26"/>
</a>
</g>
</g>
<!-- Node11&#45;&gt;Node8 -->
<g id="edge11_Node000011_Node000008" class="edge">
<title>Node11&#45;&gt;Node8</title>
<g id="a_edge11_Node000011_Node000008"><a xlink:title=" ">
<path fill="none" stroke="#63b8ff" d="M447.77,-210.83C443.92,-202.83 439.73,-193.13 437,-184 425,-143.88 420.13,-93.71 418.59,-74"/>
<polygon fill="#63b8ff" stroke="#63b8ff" points="444.7,-212.53 452.31,-219.9 450.96,-209.39 444.7,-212.53"/>
</a>
</g>
</g>
<!-- Node12 -->
<g id="Node000012" class="node">
<title>Node12</title>
<g id="a_Node000012"><a xlink:href="tensor_8hpp.html" target="_top" xlink:title=" ">
<polygon fill="white" stroke="#666666" points="514,-184 446,-184 446,-165 514,-165 514,-184"/>
<text text-anchor="middle" x="480" y="-172" font-family="Helvetica,sans-Serif" font-size="10.00">tensor.hpp</text>
</a>
</g>
</g>
<!-- Node11&#45;&gt;Node12 -->
<g id="edge12_Node000011_Node000012" class="edge">
<title>Node11&#45;&gt;Node12</title>
<g id="a_edge12_Node000011_Node000012"><a xlink:title=" ">
<path fill="none" stroke="#63b8ff" d="M464.8,-210.53C468.68,-201.6 473.18,-191.22 476.27,-184.09"/>
<polygon fill="#63b8ff" stroke="#63b8ff" points="461.57,-209.18 460.8,-219.75 467.99,-211.97 461.57,-209.18"/>
</a>
</g>
</g>
<!-- Node14 -->
<g id="Node000014" class="node">
<title>Node14</title>
<g id="a_Node000014"><a xlink:href="linalg__cpu_8hpp.html" target="_top" xlink:title=" ">
<polygon fill="white" stroke="#666666" points="622.5,-184 535.5,-184 535.5,-165 622.5,-165 622.5,-184"/>
<text text-anchor="middle" x="579" y="-172" font-family="Helvetica,sans-Serif" font-size="10.00">linalg_cpu.hpp</text>
</a>
</g>
</g>
<!-- Node13&#45;&gt;Node14 -->
<g id="edge15_Node000013_Node000014" class="edge">
<title>Node13&#45;&gt;Node14</title>
<g id="a_edge15_Node000013_Node000014"><a xlink:title=" ">
<path fill="none" stroke="#63b8ff" d="M580.93,-209.66C580.44,-200.93 579.88,-190.99 579.49,-184.09"/>
<polygon fill="#63b8ff" stroke="#63b8ff" points="577.44,-209.96 581.5,-219.75 584.43,-209.57 577.44,-209.96"/>
</a>
</g>
</g>
<!-- Node15 -->
<g id="Node000015" class="node">
<title>Node15</title>
<g id="a_Node000015"><a xlink:href="backend__manifest_8hpp.html" target="_top" xlink:title=" ">
<polygon fill="white" stroke="#666666" points="573.5,-129 446.5,-129 446.5,-110 573.5,-110 573.5,-129"/>
<text text-anchor="middle" x="510" y="-117" font-family="Helvetica,sans-Serif" font-size="10.00">backend_manifest.hpp</text>
</a>
</g>
</g>
<!-- Node14&#45;&gt;Node15 -->
<g id="edge16_Node000014_Node000015" class="edge">
<title>Node14&#45;&gt;Node15</title>
<g id="a_edge16_Node000014_Node000015"><a xlink:title=" ">
<path fill="none" stroke="#63b8ff" d="M559.96,-158.88C547.54,-149.34 531.76,-137.21 521.29,-129.17"/>
<polygon fill="#63b8ff" stroke="#63b8ff" points="557.85,-161.67 567.91,-164.98 562.12,-156.12 557.85,-161.67"/>
</a>
</g>
</g>
<!-- Node15&#45;&gt;Node8 -->
<g id="edge18_Node000015_Node000008" class="edge">
<title>Node15&#45;&gt;Node8</title>
<g id="a_edge18_Node000015_Node000008"><a xlink:title=" ">
<path fill="none" stroke="#63b8ff" d="M486.51,-104.97C469.69,-95.28 447.55,-82.52 433.05,-74.17"/>
<polygon fill="#63b8ff" stroke="#63b8ff" points="484.81,-108.03 495.22,-109.98 488.3,-101.96 484.81,-108.03"/>
</a>
</g>
</g>
<!-- Node15&#45;&gt;Node9 -->
<g id="edge17_Node000015_Node000009" class="edge">
<title>Node15&#45;&gt;Node9</title>
<g id="a_edge17_Node000015_Node000009"><a xlink:title=" ">
<path fill="none" stroke="#63b8ff" d="M500.8,-100.44C488.83,-76.92 468.36,-36.73 459.41,-19.16"/>
<polygon fill="#63b8ff" stroke="#63b8ff" points="497.84,-102.34 505.5,-109.66 504.08,-99.16 497.84,-102.34"/>
</a>
</g>
</g>
</g>
</svg>
