<?xml version="1.0" encoding="UTF-8" standalone="no"?>
<!DOCTYPE svg PUBLIC "-//W3C//DTD SVG 1.1//EN"
 "http://www.w3.org/Graphics/SVG/1.1/DTD/svg11.dtd">
<!-- Generated by graphviz version 2.43.0 (0)
 -->
<!-- Title: lapack.hpp Pages: 1 -->
<svg width="120pt" height="137pt"
 viewBox="0.00 0.00 120.00 137.00" xmlns="http://www.w3.org/2000/svg" xmlns:xlink="http://www.w3.org/1999/xlink">
<g id="graph0" class="graph" transform="scale(1 1) rotate(0) translate(4 133)">
<title>lapack.hpp</title>
<!-- Node1 -->
<g id="Node000001" class="node">
<title>Node1</title>
<g id="a_Node000001"><a xlink:title="Tag for selecting LAPACK&#45;backed kernels.">
<polygon fill="#999999" stroke="#666666" points="91,-129 21,-129 21,-110 91,-110 91,-129"/>
<text text-anchor="middle" x="56" y="-117" font-family="Helvetica,sans-Serif" font-size="10.00">lapack.hpp</text>
</a>
</g>
</g>
<!-- Node2 -->
<g id="Node000002" class="node">
<title>Node2</title>
<g id="a_Node000002"><a xlink:href="tags_2blas_8hpp.html" target="_top" xlink:title="Tag for selecting BLAS&#45;backed kernels.">
<polygon fill="white" stroke="#666666" points="112,-74 0,-74 0,-55 112,-55 112,-74"/>
<text text-anchor="middle" x="56" y="-62" font-family="Helvetica,sans-Serif" font-size="10.00">uni20/tags/blas.hpp</text>
</a>
</g>
</g>
<!-- Node1&#45;&gt;Node2 -->
<g id="edge1_Node000001_Node000002" class="edge">
<title>Node1&#45;&gt;Node2</title>
<g id="a_edge1_Node000001_Node000002"><a xlink:title=" ">
<path fill="none" stroke="#63b8ff" d="M56,-109.75C56,-102.8 56,-92.85 56,-84.13"/>
<polygon fill="#63b8ff" stroke="#63b8ff" points="59.5,-84.09 56,-74.09 52.5,-84.09 59.5,-84.09"/>
</a>
</g>
</g>
<!-- Node3 -->
<g id="Node000003" class="node">
<title>Node3</title>
<g id="a_Node000003"><a xlink:href="tags_2cpu_8hpp.html" target="_top" xlink:title="Tag for selecting CPU&#45;based Uni20 kernels.">
<polygon fill="white" stroke="#666666" points="110.5,-19 1.5,-19 1.5,0 110.5,0 110.5,-19"/>
<text text-anchor="middle" x="56" y="-7" font-family="Helvetica,sans-Serif" font-size="10.00">uni20/tags/cpu.hpp</text>
</a>
</g>
</g>
<!-- Node2&#45;&gt;Node3 -->
<g id="edge2_Node000002_Node000003" class="edge">
<title>Node2&#45;&gt;Node3</title>
<g id="a_edge2_Node000002_Node000003"><a xlink:title=" ">
<path fill="none" stroke="#63b8ff" d="M56,-54.75C56,-47.8 56,-37.85 56,-29.13"/>
<polygon fill="#63b8ff" stroke="#63b8ff" points="59.5,-29.09 56,-19.09 52.5,-29.09 59.5,-29.09"/>
</a>
</g>
</g>
</g>
</svg>
