<?xml version="1.0" encoding="UTF-8" standalone="no"?>
<!DOCTYPE svg PUBLIC "-//W3C//DTD SVG 1.1//EN"
 "http://www.w3.org/Graphics/SVG/1.1/DTD/svg11.dtd">
<!-- Generated by graphviz version 2.43.0 (0)
 -->
<!-- Title: layout.hpp Pages: 1 -->
<svg width="374pt" height="412pt"
 viewBox="0.00 0.00 374.00 412.00" xmlns="http://www.w3.org/2000/svg" xmlns:xlink="http://www.w3.org/1999/xlink">
<g id="graph0" class="graph" transform="scale(1 1) rotate(0) translate(4 408)">
<title>layout.hpp</title>
<!-- Node1 -->
<g id="Node000001" class="node">
<title>Node1</title>
<g id="a_Node000001"><a xlink:title=" ">
<polygon fill="#999999" stroke="#666666" points="266.5,-404 198.5,-404 198.5,-385 266.5,-385 266.5,-404"/>
<text text-anchor="middle" x="232.5" y="-392" font-family="Helvetica,sans-Serif" font-size="10.00">layout.hpp</text>
</a>
</g>
</g>
<!-- Node2 -->
<g id="Node000002" class="node">
<title>Node2</title>
<g id="a_Node000002"><a xlink:href="basic__tensor_8hpp.html" target="_top" xlink:title=" ">
<polygon fill="white" stroke="#666666" points="281.5,-239 183.5,-239 183.5,-220 281.5,-220 281.5,-239"/>
<text text-anchor="middle" x="232.5" y="-227" font-family="Helvetica,sans-Serif" font-size="10.00">basic_tensor.hpp</text>
</a>
</g>
</g>
<!-- Node1&#45;&gt;Node2 -->
<g id="edge1_Node000001_Node000002" class="edge">
<title>Node1&#45;&gt;Node2</title>
<g id="a_edge1_Node000001_Node000002"><a xlink:title=" ">
<path fill="none" stroke="#63b8ff" d="M232.5,-374.37C232.5,-339.03 232.5,-264.79 232.5,-239.31"/>
<polygon fill="#63b8ff" stroke="#63b8ff" points="229,-374.74 232.5,-384.74 236,-374.74 229,-374.74"/>
</a>
</g>
</g>
<!-- Node6 -->
<g id="Node000006" class="node">
<title>Node6</title>
<g id="a_Node000006"><a xlink:href="tensor__view_8hpp.html" target="_top" xlink:title="Tensor view abstractions and accessor factories built on std::mdspan.">
<polygon fill="white" stroke="#666666" points="204.5,-294 108.5,-294 108.5,-275 204.5,-275 204.5,-294"/>
<text text-anchor="middle" x="156.5" y="-282" font-family="Helvetica,sans-Serif" font-size="10.00">tensor_view.hpp</text>
</a>
</g>
</g>
<!-- Node1&#45;&gt;Node6 -->
<g id="edge5_Node000001_Node000006" class="edge">
<title>Node1&#45;&gt;Node6</title>
<g id="a_edge5_Node000001_Node000006"><a xlink:title=" ">
<path fill="none" stroke="#63b8ff" d="M220.45,-376.38C204,-353.01 175.13,-311.97 162.59,-294.16"/>
<polygon fill="#63b8ff" stroke="#63b8ff" points="217.66,-378.5 226.28,-384.66 223.39,-374.47 217.66,-378.5"/>
</a>
</g>
</g>
<!-- Node10 -->
<g id="Node000010" class="node">
<title>Node10</title>
<g id="a_Node000010"><a xlink:href="vectorstorage_8hpp.html" target="_top" xlink:title=" ">
<polygon fill="white" stroke="#666666" points="366,-349 261,-349 261,-330 366,-330 366,-349"/>
<text text-anchor="middle" x="313.5" y="-337" font-family="Helvetica,sans-Serif" font-size="10.00">vectorstorage.hpp</text>
</a>
</g>
</g>
<!-- Node1&#45;&gt;Node10 -->
<g id="edge13_Node000001_Node000010" class="edge">
<title>Node1&#45;&gt;Node10</title>
<g id="a_edge13_Node000001_Node000010"><a xlink:title=" ">
<path fill="none" stroke="#63b8ff" d="M254.01,-379.42C268.71,-369.81 287.72,-357.37 300.25,-349.17"/>
<polygon fill="#63b8ff" stroke="#63b8ff" points="251.97,-376.58 245.51,-384.98 255.8,-382.44 251.97,-376.58"/>
</a>
</g>
</g>
<!-- Node3 -->
<g id="Node000003" class="node">
<title>Node3</title>
<g id="a_Node000003"><a xlink:href="matrix__ops_8hpp.html" target="_top" xlink:title=" ">
<polygon fill="white" stroke="#666666" points="201.5,-74 109.5,-74 109.5,-55 201.5,-55 201.5,-74"/>
<text text-anchor="middle" x="155.5" y="-62" font-family="Helvetica,sans-Serif" font-size="10.00">matrix_ops.hpp</text>
</a>
</g>
</g>
<!-- Node2&#45;&gt;Node3 -->
<g id="edge2_Node000002_Node000003" class="edge">
<title>Node2&#45;&gt;Node3</title>
<g id="a_edge2_Node000002_Node000003"><a xlink:title=" ">
<path fill="none" stroke="#63b8ff" d="M247.7,-211.99C257.55,-199.2 267.38,-181.01 260.5,-165 242.05,-122.09 194.98,-89.01 170.62,-74.12"/>
<polygon fill="#63b8ff" stroke="#63b8ff" points="244.81,-209.98 241.07,-219.89 250.18,-214.48 244.81,-209.98"/>
</a>
</g>
</g>
<!-- Node5 -->
<g id="Node000005" class="node">
<title>Node5</title>
<g id="a_Node000005"><a xlink:href="tensor_8hpp.html" target="_top" xlink:title=" ">
<polygon fill="white" stroke="#666666" points="251.5,-184 183.5,-184 183.5,-165 251.5,-165 251.5,-184"/>
<text text-anchor="middle" x="217.5" y="-172" font-family="Helvetica,sans-Serif" font-size="10.00">tensor.hpp</text>
</a>
</g>
</g>
<!-- Node2&#45;&gt;Node5 -->
<g id="edge4_Node000002_Node000005" class="edge">
<title>Node2&#45;&gt;Node5</title>
<g id="a_edge4_Node000002_Node000005"><a xlink:title=" ">
<path fill="none" stroke="#63b8ff" d="M227.25,-209.95C224.76,-201.15 221.9,-191.06 219.93,-184.09"/>
<polygon fill="#63b8ff" stroke="#63b8ff" points="223.93,-211.08 230.02,-219.75 230.67,-209.17 223.93,-211.08"/>
</a>
</g>
</g>
<!-- Node4 -->
<g id="Node000004" class="node">
<title>Node4</title>
<g id="a_Node000004"><a xlink:href="linalg_8hpp.html" target="_top" xlink:title=" ">
<polygon fill="white" stroke="#666666" points="142,-19 77,-19 77,0 142,0 142,-19"/>
<text text-anchor="middle" x="109.5" y="-7" font-family="Helvetica,sans-Serif" font-size="10.00">linalg.hpp</text>
</a>
</g>
</g>
<!-- Node3&#45;&gt;Node4 -->
<g id="edge3_Node000003_Node000004" class="edge">
<title>Node3&#45;&gt;Node4</title>
<g id="a_edge3_Node000003_Node000004"><a xlink:title=" ">
<path fill="none" stroke="#63b8ff" d="M141.14,-46.96C133.13,-37.72 123.47,-26.6 116.95,-19.09"/>
<polygon fill="#63b8ff" stroke="#63b8ff" points="138.71,-49.49 147.9,-54.75 143.99,-44.9 138.71,-49.49"/>
</a>
</g>
</g>
<!-- Node6&#45;&gt;Node2 -->
<g id="edge6_Node000006_Node000002" class="edge">
<title>Node6&#45;&gt;Node2</title>
<g id="a_edge6_Node000006_Node000002"><a xlink:title=" ">
<path fill="none" stroke="#63b8ff" d="M177.08,-269.15C190.81,-259.57 208.43,-247.29 220.07,-239.17"/>
<polygon fill="#63b8ff" stroke="#63b8ff" points="174.91,-266.39 168.71,-274.98 178.92,-272.14 174.91,-266.39"/>
</a>
</g>
</g>
<!-- Node6&#45;&gt;Node3 -->
<g id="edge7_Node000006_Node000003" class="edge">
<title>Node6&#45;&gt;Node3</title>
<g id="a_edge7_Node000006_Node000003"><a xlink:title=" ">
<path fill="none" stroke="#63b8ff" d="M156.41,-264.85C156.21,-219.82 155.69,-106.53 155.54,-74.22"/>
<polygon fill="#63b8ff" stroke="#63b8ff" points="152.91,-264.97 156.46,-274.95 159.91,-264.94 152.91,-264.97"/>
</a>
</g>
</g>
<!-- Node7 -->
<g id="Node000007" class="node">
<title>Node7</title>
<g id="a_Node000007"><a xlink:href="matrix__ops__cpu_8hpp.html" target="_top" xlink:title=" ">
<polygon fill="white" stroke="#666666" points="126,-239 11,-239 11,-220 126,-220 126,-239"/>
<text text-anchor="middle" x="68.5" y="-227" font-family="Helvetica,sans-Serif" font-size="10.00">matrix_ops_cpu.hpp</text>
</a>
</g>
</g>
<!-- Node6&#45;&gt;Node7 -->
<g id="edge8_Node000006_Node000007" class="edge">
<title>Node6&#45;&gt;Node7</title>
<g id="a_edge8_Node000006_Node000007"><a xlink:title=" ">
<path fill="none" stroke="#63b8ff" d="M133.58,-269.7C117.55,-260.04 96.63,-247.44 82.9,-239.17"/>
<polygon fill="#63b8ff" stroke="#63b8ff" points="131.99,-272.82 142.36,-274.98 135.6,-266.83 131.99,-272.82"/>
</a>
</g>
</g>
<!-- Node8 -->
<g id="Node000008" class="node">
<title>Node8</title>
<g id="a_Node000008"><a xlink:href="linalg__cpu_8hpp.html" target="_top" xlink:title=" ">
<polygon fill="white" stroke="#666666" points="110,-184 23,-184 23,-165 110,-165 110,-184"/>
<text text-anchor="middle" x="66.5" y="-172" font-family="Helvetica,sans-Serif" font-size="10.00">linalg_cpu.hpp</text>
</a>
</g>
</g>
<!-- Node7&#45;&gt;Node8 -->
<g id="edge9_Node000007_Node000008" class="edge">
<title>Node7&#45;&gt;Node8</title>
<g id="a_edge9_Node000007_Node000008"><a xlink:title=" ">
<path fill="none" stroke="#63b8ff" d="M67.79,-209.66C67.46,-200.93 67.08,-190.99 66.82,-184.09"/>
<polygon fill="#63b8ff" stroke="#63b8ff" points="64.3,-209.89 68.17,-219.75 71.29,-209.62 64.3,-209.89"/>
</a>
</g>
</g>
<!-- Node9 -->
<g id="Node000009" class="node">
<title>Node9</title>
<g id="a_Node000009"><a xlink:href="backend__manifest_8hpp.html" target="_top" xlink:title=" ">
<polygon fill="white" stroke="#666666" points="127,-129 0,-129 0,-110 127,-110 127,-129"/>
<text text-anchor="middle" x="63.5" y="-117" font-family="Helvetica,sans-Serif" font-size="10.00">backend_manifest.hpp</text>
</a>
</g>
</g>
<!-- Node8&#45;&gt;Node9 -->
<g id="edge10_Node000008_Node000009" class="edge">
<title>Node8&#45;&gt;Node9</title>
<g id="a_edge10_Node000008_Node000009"><a xlink:title=" ">
<path fill="none" stroke="#63b8ff" d="M65.43,-154.66C64.94,-145.93 64.38,-135.99 63.99,-129.09"/>
<polygon fill="#63b8ff" stroke="#63b8ff" points="61.94,-154.96 66,-164.75 68.93,-154.57 61.94,-154.96"/>
</a>
</g>
</g>
<!-- Node9&#45;&gt;Node3 -->
<g id="edge12_Node000009_Node000003" class="edge">
<title>Node9&#45;&gt;Node3</title>
<g id="a_edge12_Node000009_Node000003"><a xlink:title=" ">
<path fill="none" stroke="#63b8ff" d="M86.99,-104.97C103.81,-95.28 125.95,-82.52 140.45,-74.17"/>
<polygon fill="#63b8ff" stroke="#63b8ff" points="85.2,-101.96 78.28,-109.98 88.69,-108.03 85.2,-101.96"/>
</a>
</g>
</g>
<!-- Node9&#45;&gt;Node4 -->
<g id="edge11_Node000009_Node000004" class="edge">
<title>Node9&#45;&gt;Node4</title>
<g id="a_edge11_Node000009_Node000004"><a xlink:title=" ">
<path fill="none" stroke="#63b8ff" d="M71.19,-100.44C81.21,-76.92 98.33,-36.73 105.81,-19.16"/>
<polygon fill="#63b8ff" stroke="#63b8ff" points="67.96,-99.09 67.26,-109.66 74.4,-101.83 67.96,-99.09"/>
</a>
</g>
</g>
<!-- Node10&#45;&gt;Node3 -->
<g id="edge14_Node000010_Node000003" class="edge">
<title>Node10&#45;&gt;Node3</title>
<g id="a_edge14_Node000010_Node000003"><a xlink:title=" ">
<path fill="none" stroke="#63b8ff" d="M314.61,-319.77C315.8,-298.24 317.5,-261.83 317.5,-230.5 317.5,-230.5 317.5,-230.5 317.5,-173.5 317.5,-115.53 244.8,-86.76 196.8,-74.08"/>
<polygon fill="#63b8ff" stroke="#63b8ff" points="311.12,-319.64 314.04,-329.82 318.1,-320.04 311.12,-319.64"/>
</a>
</g>
</g>
<!-- Node10&#45;&gt;Node6 -->
<g id="edge15_Node000010_Node000006" class="edge">
<title>Node10&#45;&gt;Node6</title>
<g id="a_edge15_Node000010_Node000006"><a xlink:title=" ">
<path fill="none" stroke="#63b8ff" d="M278.45,-326.67C249.18,-316.79 208.13,-302.93 181.92,-294.08"/>
<polygon fill="#63b8ff" stroke="#63b8ff" points="277.68,-330.1 288.28,-329.98 279.92,-323.47 277.68,-330.1"/>
</a>
</g>
</g>
</g>
</svg>
