<?xml version="1.0" encoding="UTF-8" standalone="no"?>
<!DOCTYPE svg PUBLIC "-//W3C//DTD SVG 1.1//EN"
 "http://www.w3.org/Graphics/SVG/1.1/DTD/svg11.dtd">
<!-- Generated by graphviz version 2.43.0 (0)
 -->
<!-- Title: linalg.hpp Pages: 1 -->
<svg width="2022pt" height="566pt"
 viewBox="0.00 0.00 2021.50 566.00" xmlns="http://www.w3.org/2000/svg" xmlns:xlink="http://www.w3.org/1999/xlink">
<g id="graph0" class="graph" transform="scale(1 1) rotate(0) translate(4 562)">
<title>linalg.hpp</title>
<!-- Node1 -->
<g id="Node000001" class="node">
<title>Node1</title>
<g id="a_Node000001"><a xlink:title=" ">
<polygon fill="#999999" stroke="#666666" points="690.5,-558 625.5,-558 625.5,-539 690.5,-539 690.5,-558"/>
<text text-anchor="middle" x="658" y="-546" font-family="Helvetica,sans-Serif" font-size="10.00">linalg.hpp</text>
</a>
</g>
</g>
<!-- Node2 -->
<g id="Node000002" class="node">
<title>Node2</title>
<g id="a_Node000002"><a xlink:href="backend__manifest_8hpp.html" target="_top" xlink:title=" ">
<polygon fill="white" stroke="#666666" points="1471.5,-437 1344.5,-437 1344.5,-418 1471.5,-418 1471.5,-437"/>
<text text-anchor="middle" x="1408" y="-425" font-family="Helvetica,sans-Serif" font-size="10.00">backend_manifest.hpp</text>
</a>
</g>
</g>
<!-- Node1&#45;&gt;Node2 -->
<g id="edge1_Node000001_Node000002" class="edge">
<title>Node1&#45;&gt;Node2</title>
<g id="a_edge1_Node000001_Node000002"><a xlink:title=" ">
<path fill="none" stroke="#63b8ff" d="M690.71,-542.31C805.36,-524.12 1190.38,-463.03 1343.96,-438.66"/>
<polygon fill="#63b8ff" stroke="#63b8ff" points="1344.85,-442.06 1354.17,-437.04 1343.75,-435.15 1344.85,-442.06"/>
</a>
</g>
</g>
<!-- Node38 -->
<g id="Node000038" class="node">
<title>Node38</title>
<g id="a_Node000038"><a xlink:href="matrix__ops_8hpp.html" target="_top" xlink:title=" ">
<polygon fill="white" stroke="#666666" points="676.5,-503 547.5,-503 547.5,-473 676.5,-473 676.5,-503"/>
<text text-anchor="start" x="555.5" y="-491" font-family="Helvetica,sans-Serif" font-size="10.00">uni20/linalg/ops/matrix</text>
<text text-anchor="middle" x="612" y="-480" font-family="Helvetica,sans-Serif" font-size="10.00">_ops.hpp</text>
</a>
</g>
</g>
<!-- Node1&#45;&gt;Node38 -->
<g id="edge55_Node000001_Node000038" class="edge">
<title>Node1&#45;&gt;Node38</title>
<g id="a_edge55_Node000001_Node000038"><a xlink:title=" ">
<path fill="none" stroke="#63b8ff" d="M651.21,-538.87C645.49,-531.59 637.05,-520.85 629.46,-511.2"/>
<polygon fill="#63b8ff" stroke="#63b8ff" points="632.03,-508.81 623.1,-503.11 626.53,-513.14 632.03,-508.81"/>
</a>
</g>
</g>
<!-- Node3 -->
<g id="Node000003" class="node">
<title>Node3</title>
<g id="a_Node000003"><a xlink:href="linalg__cpu_8hpp.html" target="_top" xlink:title=" ">
<polygon fill="white" stroke="#666666" points="1217,-382 1095,-382 1095,-352 1217,-352 1217,-382"/>
<text text-anchor="start" x="1103" y="-370" font-family="Helvetica,sans-Serif" font-size="10.00">uni20/linalg/backends</text>
<text text-anchor="middle" x="1156" y="-359" font-family="Helvetica,sans-Serif" font-size="10.00">/cpu/linalg_cpu.hpp</text>
</a>
</g>
</g>
<!-- Node2&#45;&gt;Node3 -->
<g id="edge2_Node000002_Node000003" class="edge">
<title>Node2&#45;&gt;Node3</title>
<g id="a_edge2_Node000002_Node000003"><a xlink:title=" ">
<path fill="none" stroke="#63b8ff" d="M1371.36,-417.99C1333.51,-409.21 1273.49,-395.27 1226.42,-384.35"/>
<polygon fill="#63b8ff" stroke="#63b8ff" points="1227.12,-380.92 1216.58,-382.06 1225.53,-387.73 1227.12,-380.92"/>
</a>
</g>
</g>
<!-- Node9 -->
<g id="Node000009" class="node">
<title>Node9</title>
<g id="a_Node000009"><a xlink:href="tags_2cpu_8hpp.html" target="_top" xlink:title="Tag for selecting CPU&#45;based Uni20 kernels.">
<polygon fill="white" stroke="#666666" points="1355.5,-74 1246.5,-74 1246.5,-55 1355.5,-55 1355.5,-74"/>
<text text-anchor="middle" x="1301" y="-62" font-family="Helvetica,sans-Serif" font-size="10.00">uni20/tags/cpu.hpp</text>
</a>
</g>
</g>
<!-- Node2&#45;&gt;Node9 -->
<g id="edge47_Node000002_Node000009" class="edge">
<title>Node2&#45;&gt;Node9</title>
<g id="a_edge47_Node000002_Node000009"><a xlink:title=" ">
<path fill="none" stroke="#63b8ff" d="M1384.16,-417.98C1368.07,-410.93 1347.85,-399.23 1337,-382 1305.5,-331.99 1301.5,-144.84 1301.04,-84.43"/>
<polygon fill="#63b8ff" stroke="#63b8ff" points="1304.54,-84.1 1300.99,-74.12 1297.54,-84.13 1304.54,-84.1"/>
</a>
</g>
</g>
<!-- Node28 -->
<g id="Node000028" class="node">
<title>Node28</title>
<g id="a_Node000028"><a xlink:href="linalg__cusolver_8hpp.html" target="_top" xlink:title=" ">
<polygon fill="white" stroke="#666666" points="1646,-382 1488,-382 1488,-352 1646,-352 1646,-382"/>
<text text-anchor="start" x="1496" y="-370" font-family="Helvetica,sans-Serif" font-size="10.00">uni20/linalg/backends</text>
<text text-anchor="middle" x="1567" y="-359" font-family="Helvetica,sans-Serif" font-size="10.00">/cusolver/linalg_cusolver.hpp</text>
</a>
</g>
</g>
<!-- Node2&#45;&gt;Node28 -->
<g id="edge43_Node000002_Node000028" class="edge">
<title>Node2&#45;&gt;Node28</title>
<g id="a_edge43_Node000002_Node000028"><a xlink:title=" ">
<path fill="none" stroke="#63b8ff" d="M1431.12,-417.99C1454.1,-409.54 1490.04,-396.32 1519.18,-385.59"/>
<polygon fill="#63b8ff" stroke="#63b8ff" points="1520.6,-388.8 1528.77,-382.06 1518.18,-382.23 1520.6,-388.8"/>
</a>
</g>
</g>
<!-- Node30 -->
<g id="Node000030" class="node">
<title>Node30</title>
<g id="a_Node000030"><a xlink:href="linalg__lapack_8hpp.html" target="_top" xlink:title=" ">
<polygon fill="white" stroke="#666666" points="1804,-382 1664,-382 1664,-352 1804,-352 1804,-382"/>
<text text-anchor="start" x="1672" y="-370" font-family="Helvetica,sans-Serif" font-size="10.00">uni20/linalg/backends</text>
<text text-anchor="middle" x="1734" y="-359" font-family="Helvetica,sans-Serif" font-size="10.00">/lapack/linalg_lapack.hpp</text>
</a>
</g>
</g>
<!-- Node2&#45;&gt;Node30 -->
<g id="edge45_Node000002_Node000030" class="edge">
<title>Node2&#45;&gt;Node30</title>
<g id="a_edge45_Node000002_Node000030"><a xlink:title=" ">
<path fill="none" stroke="#63b8ff" d="M1455.4,-417.99C1507.34,-408.67 1591.55,-393.56 1653.81,-382.39"/>
<polygon fill="#63b8ff" stroke="#63b8ff" points="1654.77,-385.77 1663.99,-380.56 1653.53,-378.88 1654.77,-385.77"/>
</a>
</g>
</g>
<!-- Node32 -->
<g id="Node000032" class="node">
<title>Node32</title>
<g id="a_Node000032"><a xlink:href="cusolver_8hpp.html" target="_top" xlink:title="Tag for selecting cuSOLVER&#45;backed kernels.">
<polygon fill="white" stroke="#666666" points="1954,-376.5 1822,-376.5 1822,-357.5 1954,-357.5 1954,-376.5"/>
<text text-anchor="middle" x="1888" y="-364.5" font-family="Helvetica,sans-Serif" font-size="10.00">uni20/tags/cusolver.hpp</text>
</a>
</g>
</g>
<!-- Node2&#45;&gt;Node32 -->
<g id="edge48_Node000002_Node000032" class="edge">
<title>Node2&#45;&gt;Node32</title>
<g id="a_edge48_Node000002_Node000032"><a xlink:title=" ">
<path fill="none" stroke="#63b8ff" d="M1471.67,-420.99C1551.61,-413.74 1692.82,-399.79 1813,-382 1820.21,-380.93 1827.78,-379.68 1835.23,-378.37"/>
<polygon fill="#63b8ff" stroke="#63b8ff" points="1836.04,-381.78 1845.26,-376.55 1834.8,-374.89 1836.04,-381.78"/>
</a>
</g>
</g>
<!-- Node35 -->
<g id="Node000035" class="node">
<title>Node35</title>
<g id="a_Node000035"><a xlink:href="lapack_8hpp.html" target="_top" xlink:title="Tag for selecting LAPACK&#45;backed kernels.">
<polygon fill="white" stroke="#666666" points="1470,-376.5 1346,-376.5 1346,-357.5 1470,-357.5 1470,-376.5"/>
<text text-anchor="middle" x="1408" y="-364.5" font-family="Helvetica,sans-Serif" font-size="10.00">uni20/tags/lapack.hpp</text>
</a>
</g>
</g>
<!-- Node2&#45;&gt;Node35 -->
<g id="edge51_Node000002_Node000035" class="edge">
<title>Node2&#45;&gt;Node35</title>
<g id="a_edge51_Node000002_Node000035"><a xlink:title=" ">
<path fill="none" stroke="#63b8ff" d="M1408,-417.87C1408,-409.75 1408,-397.31 1408,-386.89"/>
<polygon fill="#63b8ff" stroke="#63b8ff" points="1411.5,-386.67 1408,-376.67 1404.5,-386.67 1411.5,-386.67"/>
</a>
</g>
</g>
<!-- Node37 -->
<g id="Node000037" class="node">
<title>Node37</title>
<g id="a_Node000037"><a xlink:title=" ">
<polygon fill="#e0e0e0" stroke="#999999" points="2013.5,-376.5 1972.5,-376.5 1972.5,-357.5 2013.5,-357.5 2013.5,-376.5"/>
<text text-anchor="middle" x="1993" y="-364.5" font-family="Helvetica,sans-Serif" font-size="10.00">tuple</text>
</a>
</g>
</g>
<!-- Node2&#45;&gt;Node37 -->
<g id="edge54_Node000002_Node000037" class="edge">
<title>Node2&#45;&gt;Node37</title>
<g id="a_edge54_Node000002_Node000037"><a xlink:title=" ">
<path fill="none" stroke="#63b8ff" d="M1471.51,-424.24C1596.85,-419.33 1871.76,-406.11 1963,-382 1964.68,-381.56 1966.38,-381.02 1968.08,-380.42"/>
<polygon fill="#63b8ff" stroke="#63b8ff" points="1969.62,-383.57 1977.52,-376.51 1966.94,-377.11 1969.62,-383.57"/>
</a>
</g>
</g>
<!-- Node4 -->
<g id="Node000004" class="node">
<title>Node4</title>
<g id="a_Node000004"><a xlink:href="matrix__ops__cpu_8hpp.html" target="_top" xlink:title=" ">
<polygon fill="white" stroke="#666666" points="1115.5,-310.5 1000.5,-310.5 1000.5,-291.5 1115.5,-291.5 1115.5,-310.5"/>
<text text-anchor="middle" x="1058" y="-298.5" font-family="Helvetica,sans-Serif" font-size="10.00">matrix_ops_cpu.hpp</text>
</a>
</g>
</g>
<!-- Node3&#45;&gt;Node4 -->
<g id="edge3_Node000003_Node000004" class="edge">
<title>Node3&#45;&gt;Node4</title>
<g id="a_edge3_Node000003_Node000004"><a xlink:title=" ">
<path fill="none" stroke="#63b8ff" d="M1134.25,-351.8C1118.13,-341.27 1096.24,-326.97 1080.05,-316.4"/>
<polygon fill="#63b8ff" stroke="#63b8ff" points="1081.54,-313.2 1071.26,-310.66 1077.72,-319.06 1081.54,-313.2"/>
</a>
</g>
</g>
<!-- Node5 -->
<g id="Node000005" class="node">
<title>Node5</title>
<g id="a_Node000005"><a xlink:href="types_8hpp.html" target="_top" xlink:title=" ">
<polygon fill="white" stroke="#666666" points="1067.5,-184 948.5,-184 948.5,-165 1067.5,-165 1067.5,-184"/>
<text text-anchor="middle" x="1008" y="-172" font-family="Helvetica,sans-Serif" font-size="10.00">uni20/core/types.hpp</text>
</a>
</g>
</g>
<!-- Node4&#45;&gt;Node5 -->
<g id="edge4_Node000004_Node000005" class="edge">
<title>Node4&#45;&gt;Node5</title>
<g id="a_edge4_Node000004_Node000005"><a xlink:title=" ">
<path fill="none" stroke="#63b8ff" d="M1054.56,-291.44C1046.5,-271.36 1026.22,-220.87 1015.28,-193.62"/>
<polygon fill="#63b8ff" stroke="#63b8ff" points="1018.44,-192.09 1011.46,-184.12 1011.94,-194.7 1018.44,-192.09"/>
</a>
</g>
</g>
<!-- Node7 -->
<g id="Node000007" class="node">
<title>Node7</title>
<g id="a_Node000007"><a xlink:title=" ">
<polygon fill="#e0e0e0" stroke="#999999" points="1253.5,-129 1194.5,-129 1194.5,-110 1253.5,-110 1253.5,-129"/>
<text text-anchor="middle" x="1224" y="-117" font-family="Helvetica,sans-Serif" font-size="10.00">complex</text>
</a>
</g>
</g>
<!-- Node4&#45;&gt;Node7 -->
<g id="edge39_Node000004_Node000007" class="edge">
<title>Node4&#45;&gt;Node7</title>
<g id="a_edge39_Node000004_Node000007"><a xlink:title=" ">
<path fill="none" stroke="#63b8ff" d="M1064.12,-291.26C1074.82,-276.18 1097.89,-244.54 1120,-220 1148.5,-188.37 1185.13,-154.77 1206.45,-135.83"/>
<polygon fill="#63b8ff" stroke="#63b8ff" points="1208.89,-138.34 1214.07,-129.1 1204.26,-133.1 1208.89,-138.34"/>
</a>
</g>
</g>
<!-- Node4&#45;&gt;Node9 -->
<g id="edge8_Node000004_Node000009" class="edge">
<title>Node4&#45;&gt;Node9</title>
<g id="a_edge8_Node000004_Node000009"><a xlink:title=" ">
<path fill="none" stroke="#63b8ff" d="M1069.14,-291.34C1081.67,-281.52 1102.57,-264.93 1120,-250 1135.05,-237.11 1138.06,-233.02 1153,-220 1200.58,-178.54 1220.72,-176.74 1262,-129 1274.14,-114.96 1284.92,-96.72 1292.05,-83.39"/>
<polygon fill="#63b8ff" stroke="#63b8ff" points="1295.26,-84.8 1296.76,-74.31 1289.05,-81.58 1295.26,-84.8"/>
</a>
</g>
</g>
<!-- Node10 -->
<g id="Node000010" class="node">
<title>Node10</title>
<g id="a_Node000010"><a xlink:href="tensor__view_8hpp.html" target="_top" xlink:title="Tensor view abstractions and accessor factories built on std::mdspan.">
<polygon fill="white" stroke="#666666" points="667.5,-250 556.5,-250 556.5,-220 667.5,-220 667.5,-250"/>
<text text-anchor="start" x="564.5" y="-238" font-family="Helvetica,sans-Serif" font-size="10.00">uni20/tensor/tensor</text>
<text text-anchor="middle" x="612" y="-227" font-family="Helvetica,sans-Serif" font-size="10.00">_view.hpp</text>
</a>
</g>
</g>
<!-- Node4&#45;&gt;Node10 -->
<g id="edge9_Node000004_Node000010" class="edge">
<title>Node4&#45;&gt;Node10</title>
<g id="a_edge9_Node000004_Node000010"><a xlink:title=" ">
<path fill="none" stroke="#63b8ff" d="M1000.15,-291.7C917.17,-279.79 764.78,-257.92 677.67,-245.42"/>
<polygon fill="#63b8ff" stroke="#63b8ff" points="678.04,-241.94 667.64,-243.98 677.04,-248.87 678.04,-241.94"/>
</a>
</g>
</g>
<!-- Node18 -->
<g id="Node000018" class="node">
<title>Node18</title>
<g id="a_Node000018"><a xlink:title=" ">
<polygon fill="#e0e0e0" stroke="#999999" points="110.5,-74 41.5,-74 41.5,-55 110.5,-55 110.5,-74"/>
<text text-anchor="middle" x="76" y="-62" font-family="Helvetica,sans-Serif" font-size="10.00">type_traits</text>
</a>
</g>
</g>
<!-- Node4&#45;&gt;Node18 -->
<g id="edge41_Node000004_Node000018" class="edge">
<title>Node4&#45;&gt;Node18</title>
<g id="a_edge41_Node000004_Node000018"><a xlink:title=" ">
<path fill="none" stroke="#63b8ff" d="M1000.14,-297.17C905.02,-291.9 709.9,-278.4 547,-250 429.13,-229.45 399.27,-222.57 286,-184 227.77,-164.17 212.04,-160.14 159,-129 134.75,-114.76 109.44,-94.49 93.24,-80.71"/>
<polygon fill="#63b8ff" stroke="#63b8ff" points="95.51,-78.05 85.66,-74.16 90.94,-83.34 95.51,-78.05"/>
</a>
</g>
</g>
<!-- Node19 -->
<g id="Node000019" class="node">
<title>Node19</title>
<g id="a_Node000019"><a xlink:title=" ">
<polygon fill="#e0e0e0" stroke="#999999" points="388.5,-74 343.5,-74 343.5,-55 388.5,-55 388.5,-74"/>
<text text-anchor="middle" x="366" y="-62" font-family="Helvetica,sans-Serif" font-size="10.00">utility</text>
</a>
</g>
</g>
<!-- Node4&#45;&gt;Node19 -->
<g id="edge42_Node000004_Node000019" class="edge">
<title>Node4&#45;&gt;Node19</title>
<g id="a_edge42_Node000004_Node000019"><a xlink:title=" ">
<path fill="none" stroke="#63b8ff" d="M1049.46,-291.39C1032.79,-275.07 994.11,-239.5 955,-220 853.25,-169.27 506.7,-94.72 398.53,-72.19"/>
<polygon fill="#63b8ff" stroke="#63b8ff" points="399.03,-68.72 388.53,-70.11 397.61,-75.57 399.03,-68.72"/>
</a>
</g>
</g>
<!-- Node25 -->
<g id="Node000025" class="node">
<title>Node25</title>
<g id="a_Node000025"><a xlink:title=" ">
<polygon fill="#e0e0e0" stroke="#999999" points="1226,-244.5 1162,-244.5 1162,-225.5 1226,-225.5 1226,-244.5"/>
<text text-anchor="middle" x="1194" y="-232.5" font-family="Helvetica,sans-Serif" font-size="10.00">algorithm</text>
</a>
</g>
</g>
<!-- Node4&#45;&gt;Node25 -->
<g id="edge37_Node000004_Node000025" class="edge">
<title>Node4&#45;&gt;Node25</title>
<g id="a_edge37_Node000004_Node000025"><a xlink:title=" ">
<path fill="none" stroke="#63b8ff" d="M1076.34,-291.37C1099.46,-280.49 1139.41,-261.69 1166.27,-249.05"/>
<polygon fill="#63b8ff" stroke="#63b8ff" points="1167.96,-252.12 1175.51,-244.7 1164.98,-245.79 1167.96,-252.12"/>
</a>
</g>
</g>
<!-- Node26 -->
<g id="Node000026" class="node">
<title>Node26</title>
<g id="a_Node000026"><a xlink:title=" ">
<polygon fill="#e0e0e0" stroke="#999999" points="1291.5,-244.5 1244.5,-244.5 1244.5,-225.5 1291.5,-225.5 1291.5,-244.5"/>
<text text-anchor="middle" x="1268" y="-232.5" font-family="Helvetica,sans-Serif" font-size="10.00">cmath</text>
</a>
</g>
</g>
<!-- Node4&#45;&gt;Node26 -->
<g id="edge38_Node000004_Node000026" class="edge">
<title>Node4&#45;&gt;Node26</title>
<g id="a_edge38_Node000004_Node000026"><a xlink:title=" ">
<path fill="none" stroke="#63b8ff" d="M1093.33,-291.42C1129.36,-282.34 1186.65,-267.01 1235,-250 1236.43,-249.5 1237.89,-248.96 1239.35,-248.41"/>
<polygon fill="#63b8ff" stroke="#63b8ff" points="1240.98,-251.52 1248.97,-244.56 1238.38,-245.03 1240.98,-251.52"/>
</a>
</g>
</g>
<!-- Node27 -->
<g id="Node000027" class="node">
<title>Node27</title>
<g id="a_Node000027"><a xlink:title=" ">
<polygon fill="#e0e0e0" stroke="#999999" points="946.5,-244.5 881.5,-244.5 881.5,-225.5 946.5,-225.5 946.5,-244.5"/>
<text text-anchor="middle" x="914" y="-232.5" font-family="Helvetica,sans-Serif" font-size="10.00">stdexcept</text>
</a>
</g>
</g>
<!-- Node4&#45;&gt;Node27 -->
<g id="edge40_Node000004_Node000027" class="edge">
<title>Node4&#45;&gt;Node27</title>
<g id="a_edge40_Node000004_Node000027"><a xlink:title=" ">
<path fill="none" stroke="#63b8ff" d="M1038.58,-291.37C1013.99,-280.44 971.43,-261.52 942.99,-248.88"/>
<polygon fill="#63b8ff" stroke="#63b8ff" points="944.13,-245.56 933.57,-244.7 941.29,-251.96 944.13,-245.56"/>
</a>
</g>
</g>
<!-- Node6 -->
<g id="Node000006" class="node">
<title>Node6</title>
<g id="a_Node000006"><a xlink:title=" ">
<polygon fill="#e0e0e0" stroke="#999999" points="1137.5,-129 1040.5,-129 1040.5,-110 1137.5,-110 1137.5,-129"/>
<text text-anchor="middle" x="1089" y="-117" font-family="Helvetica,sans-Serif" font-size="10.00">uni20/config.hpp</text>
</a>
</g>
</g>
<!-- Node5&#45;&gt;Node6 -->
<g id="edge5_Node000005_Node000006" class="edge">
<title>Node5&#45;&gt;Node6</title>
<g id="a_edge5_Node000005_Node000006"><a xlink:title=" ">
<path fill="none" stroke="#63b8ff" d="M1021.01,-164.98C1033.46,-156.84 1052.46,-144.41 1067.21,-134.76"/>
<polygon fill="#63b8ff" stroke="#63b8ff" points="1069.3,-137.57 1075.75,-129.17 1065.46,-131.72 1069.3,-137.57"/>
</a>
</g>
</g>
<!-- Node5&#45;&gt;Node7 -->
<g id="edge6_Node000005_Node000007" class="edge">
<title>Node5&#45;&gt;Node7</title>
<g id="a_edge6_Node000005_Node000007"><a xlink:title=" ">
<path fill="none" stroke="#63b8ff" d="M1042.7,-164.98C1081.4,-155.49 1143.87,-140.16 1184.44,-130.21"/>
<polygon fill="#63b8ff" stroke="#63b8ff" points="1185.37,-133.58 1194.25,-127.8 1183.7,-126.78 1185.37,-133.58"/>
</a>
</g>
</g>
<!-- Node8 -->
<g id="Node000008" class="node">
<title>Node8</title>
<g id="a_Node000008"><a xlink:title=" ">
<polygon fill="#e0e0e0" stroke="#999999" points="781,-74 721,-74 721,-55 781,-55 781,-74"/>
<text text-anchor="middle" x="751" y="-62" font-family="Helvetica,sans-Serif" font-size="10.00">concepts</text>
</a>
</g>
</g>
<!-- Node5&#45;&gt;Node8 -->
<g id="edge7_Node000005_Node000008" class="edge">
<title>Node5&#45;&gt;Node8</title>
<g id="a_edge7_Node000005_Node000008"><a xlink:title=" ">
<path fill="none" stroke="#63b8ff" d="M1067.74,-165.96C1116.54,-157.44 1173.33,-140.58 1146,-110 1122.62,-83.84 887.09,-71.16 791.25,-67.05"/>
<polygon fill="#63b8ff" stroke="#63b8ff" points="791.21,-63.55 781.08,-66.63 790.92,-70.54 791.21,-63.55"/>
</a>
</g>
</g>
<!-- Node10&#45;&gt;Node5 -->
<g id="edge14_Node000010_Node000005" class="edge">
<title>Node10&#45;&gt;Node5</title>
<g id="a_edge14_Node000010_Node000005"><a xlink:title=" ">
<path fill="none" stroke="#63b8ff" d="M667.9,-225.74C739.51,-215.16 863.56,-196.84 940.4,-185.49"/>
<polygon fill="#63b8ff" stroke="#63b8ff" points="941.08,-188.92 950.46,-184 940.06,-182 941.08,-188.92"/>
</a>
</g>
</g>
<!-- Node10&#45;&gt;Node8 -->
<g id="edge34_Node000010_Node000008" class="edge">
<title>Node10&#45;&gt;Node8</title>
<g id="a_edge34_Node000010_Node000008"><a xlink:title=" ">
<path fill="none" stroke="#63b8ff" d="M621.89,-219.62C628.26,-209.89 636.38,-196.57 642,-184 656.07,-152.56 642.88,-136.4 665,-110 677.27,-95.35 695.61,-84.94 712.2,-77.88"/>
<polygon fill="#63b8ff" stroke="#63b8ff" points="713.7,-81.05 721.7,-74.11 711.12,-74.55 713.7,-81.05"/>
</a>
</g>
</g>
<!-- Node11 -->
<g id="Node000011" class="node">
<title>Node11</title>
<g id="a_Node000011"><a xlink:href="mdspan_8hpp.html" target="_top" xlink:title="Wrapper that exposes the mdspan reference implementation and a formatter bridge.">
<polygon fill="white" stroke="#666666" points="633,-74 481,-74 481,-55 633,-55 633,-74"/>
<text text-anchor="middle" x="557" y="-62" font-family="Helvetica,sans-Serif" font-size="10.00">uni20/common/mdspan.hpp</text>
</a>
</g>
</g>
<!-- Node10&#45;&gt;Node11 -->
<g id="edge10_Node000010_Node000011" class="edge">
<title>Node10&#45;&gt;Node11</title>
<g id="a_edge10_Node000010_Node000011"><a xlink:title=" ">
<path fill="none" stroke="#63b8ff" d="M619.36,-219.88C625.74,-205.66 632.95,-183.28 626,-165 618.39,-144.99 606.56,-146.33 594,-129 583.26,-114.18 572.94,-96.03 565.94,-82.94"/>
<polygon fill="#63b8ff" stroke="#63b8ff" points="569.02,-81.28 561.28,-74.05 562.82,-84.53 569.02,-81.28"/>
</a>
</g>
</g>
<!-- Node15 -->
<g id="Node000015" class="node">
<title>Node15</title>
<g id="a_Node000015"><a xlink:href="layout_8hpp.html" target="_top" xlink:title=" ">
<polygon fill="white" stroke="#666666" points="400,-129 332,-129 332,-110 400,-110 400,-129"/>
<text text-anchor="middle" x="366" y="-117" font-family="Helvetica,sans-Serif" font-size="10.00">layout.hpp</text>
</a>
</g>
</g>
<!-- Node10&#45;&gt;Node15 -->
<g id="edge15_Node000010_Node000015" class="edge">
<title>Node10&#45;&gt;Node15</title>
<g id="a_edge15_Node000010_Node000015"><a xlink:title=" ">
<path fill="none" stroke="#63b8ff" d="M556.28,-233.41C509.81,-230.21 444.12,-219.1 399,-184 384.62,-172.82 375.89,-153.61 371.05,-139.24"/>
<polygon fill="#63b8ff" stroke="#63b8ff" points="374.32,-137.97 368.08,-129.41 367.62,-140 374.32,-137.97"/>
</a>
</g>
</g>
<!-- Node16 -->
<g id="Node000016" class="node">
<title>Node16</title>
<g id="a_Node000016"><a xlink:title=" ">
<polygon fill="#e0e0e0" stroke="#999999" points="249,-74 207,-74 207,-55 249,-55 249,-74"/>
<text text-anchor="middle" x="228" y="-62" font-family="Helvetica,sans-Serif" font-size="10.00">array</text>
</a>
</g>
</g>
<!-- Node10&#45;&gt;Node16 -->
<g id="edge33_Node000010_Node000016" class="edge">
<title>Node10&#45;&gt;Node16</title>
<g id="a_edge33_Node000010_Node000016"><a xlink:title=" ">
<path fill="none" stroke="#63b8ff" d="M556.07,-229.17C507.4,-223.32 435.94,-210.69 379,-184 323.19,-157.83 269.19,-107.61 243.53,-81.76"/>
<polygon fill="#63b8ff" stroke="#63b8ff" points="245.72,-78.99 236.23,-74.28 240.71,-83.88 245.72,-78.99"/>
</a>
</g>
</g>
<!-- Node10&#45;&gt;Node18 -->
<g id="edge35_Node000010_Node000018" class="edge">
<title>Node10&#45;&gt;Node18</title>
<g id="a_edge35_Node000010_Node000018"><a xlink:title=" ">
<path fill="none" stroke="#63b8ff" d="M556.48,-227.54C501.44,-220.24 415.14,-206.37 343,-184 250.3,-155.25 146.97,-103.26 100.72,-78.84"/>
<polygon fill="#63b8ff" stroke="#63b8ff" points="102.22,-75.67 91.75,-74.07 98.93,-81.85 102.22,-75.67"/>
</a>
</g>
</g>
<!-- Node10&#45;&gt;Node19 -->
<g id="edge36_Node000010_Node000019" class="edge">
<title>Node10&#45;&gt;Node19</title>
<g id="a_edge36_Node000010_Node000019"><a xlink:title=" ">
<path fill="none" stroke="#63b8ff" d="M611.29,-219.97C609.83,-204.77 605.39,-180.63 592,-165 541.2,-105.7 448.29,-80.42 398.9,-70.76"/>
<polygon fill="#63b8ff" stroke="#63b8ff" points="399.24,-67.26 388.76,-68.88 397.96,-74.15 399.24,-67.26"/>
</a>
</g>
</g>
<!-- Node20 -->
<g id="Node000020" class="node">
<title>Node20</title>
<g id="a_Node000020"><a xlink:href="concepts_8hpp.html" target="_top" xlink:title="Mdspan concept and accessor extensions for Uni20.">
<polygon fill="white" stroke="#666666" points="827.5,-129 674.5,-129 674.5,-110 827.5,-110 827.5,-129"/>
<text text-anchor="middle" x="751" y="-117" font-family="Helvetica,sans-Serif" font-size="10.00">uni20/mdspan/concepts.hpp</text>
</a>
</g>
</g>
<!-- Node10&#45;&gt;Node20 -->
<g id="edge22_Node000010_Node000020" class="edge">
<title>Node10&#45;&gt;Node20</title>
<g id="a_edge22_Node000010_Node000020"><a xlink:title=" ">
<path fill="none" stroke="#63b8ff" d="M644.42,-219.98C662.51,-211.22 684.79,-198.8 702,-184 717.61,-170.57 731.54,-151.47 740.52,-137.73"/>
<polygon fill="#63b8ff" stroke="#63b8ff" points="743.52,-139.53 745.9,-129.21 737.6,-135.79 743.52,-139.53"/>
</a>
</g>
</g>
<!-- Node22 -->
<g id="Node000022" class="node">
<title>Node22</title>
<g id="a_Node000022"><a xlink:href="vectorstorage_8hpp.html" target="_top" xlink:title=" ">
<polygon fill="white" stroke="#666666" points="583.5,-184 408.5,-184 408.5,-165 583.5,-165 583.5,-184"/>
<text text-anchor="middle" x="496" y="-172" font-family="Helvetica,sans-Serif" font-size="10.00">uni20/storage/vectorstorage.hpp</text>
</a>
</g>
</g>
<!-- Node10&#45;&gt;Node22 -->
<g id="edge27_Node000010_Node000022" class="edge">
<title>Node10&#45;&gt;Node22</title>
<g id="a_edge27_Node000010_Node000022"><a xlink:title=" ">
<path fill="none" stroke="#63b8ff" d="M584.22,-219.99C565.38,-210.49 540.65,-198.02 522.16,-188.69"/>
<polygon fill="#63b8ff" stroke="#63b8ff" points="523.64,-185.52 513.13,-184.14 520.48,-191.77 523.64,-185.52"/>
</a>
</g>
</g>
<!-- Node12 -->
<g id="Node000012" class="node">
<title>Node12</title>
<g id="a_Node000012"><a xlink:title=" ">
<polygon fill="#e0e0e0" stroke="#999999" points="814.5,-19 735.5,-19 735.5,0 814.5,0 814.5,-19"/>
<text text-anchor="middle" x="775" y="-7" font-family="Helvetica,sans-Serif" font-size="10.00">fmt/format.h</text>
</a>
</g>
</g>
<!-- Node11&#45;&gt;Node12 -->
<g id="edge11_Node000011_Node000012" class="edge">
<title>Node11&#45;&gt;Node12</title>
<g id="a_edge11_Node000011_Node000012"><a xlink:title=" ">
<path fill="none" stroke="#63b8ff" d="M592.03,-54.98C629.5,-45.87 689.05,-31.4 729.98,-21.45"/>
<polygon fill="#63b8ff" stroke="#63b8ff" points="730.81,-24.85 739.7,-19.08 729.16,-18.04 730.81,-24.85"/>
</a>
</g>
</g>
<!-- Node13 -->
<g id="Node000013" class="node">
<title>Node13</title>
<g id="a_Node000013"><a xlink:title=" ">
<polygon fill="#e0e0e0" stroke="#999999" points="513,-19 463,-19 463,0 513,0 513,-19"/>
<text text-anchor="middle" x="488" y="-7" font-family="Helvetica,sans-Serif" font-size="10.00">format</text>
</a>
</g>
</g>
<!-- Node11&#45;&gt;Node13 -->
<g id="edge12_Node000011_Node000013" class="edge">
<title>Node11&#45;&gt;Node13</title>
<g id="a_edge12_Node000011_Node000013"><a xlink:title=" ">
<path fill="none" stroke="#63b8ff" d="M545.91,-54.98C535.51,-47 519.74,-34.88 507.28,-25.31"/>
<polygon fill="#63b8ff" stroke="#63b8ff" points="509.35,-22.49 499.29,-19.17 505.09,-28.04 509.35,-22.49"/>
</a>
</g>
</g>
<!-- Node14 -->
<g id="Node000014" class="node">
<title>Node14</title>
<g id="a_Node000014"><a xlink:title=" ">
<polygon fill="#e0e0e0" stroke="#999999" points="650.5,-19 531.5,-19 531.5,0 650.5,0 650.5,-19"/>
<text text-anchor="middle" x="591" y="-7" font-family="Helvetica,sans-Serif" font-size="10.00">mdspan/mdspan.hpp</text>
</a>
</g>
</g>
<!-- Node11&#45;&gt;Node14 -->
<g id="edge13_Node000011_Node000014" class="edge">
<title>Node11&#45;&gt;Node14</title>
<g id="a_edge13_Node000011_Node000014"><a xlink:title=" ">
<path fill="none" stroke="#63b8ff" d="M562.61,-54.75C567.32,-47.42 574.17,-36.73 579.97,-27.7"/>
<polygon fill="#63b8ff" stroke="#63b8ff" points="583.04,-29.4 585.49,-19.09 577.14,-25.62 583.04,-29.4"/>
</a>
</g>
</g>
<!-- Node15&#45;&gt;Node8 -->
<g id="edge18_Node000015_Node000008" class="edge">
<title>Node15&#45;&gt;Node8</title>
<g id="a_edge18_Node000015_Node000008"><a xlink:title=" ">
<path fill="none" stroke="#63b8ff" d="M400.23,-111.49C403.19,-110.96 406.14,-110.45 409,-110 539.68,-89.35 576.48,-96.11 710.57,-74.09"/>
<polygon fill="#63b8ff" stroke="#63b8ff" points="711.53,-77.47 720.82,-72.38 710.38,-70.57 711.53,-77.47"/>
</a>
</g>
</g>
<!-- Node15&#45;&gt;Node11 -->
<g id="edge16_Node000015_Node000011" class="edge">
<title>Node15&#45;&gt;Node11</title>
<g id="a_edge16_Node000015_Node000011"><a xlink:title=" ">
<path fill="none" stroke="#63b8ff" d="M396.69,-109.98C429.17,-100.97 480.6,-86.7 516.41,-76.76"/>
<polygon fill="#63b8ff" stroke="#63b8ff" points="517.37,-80.13 526.07,-74.08 515.5,-73.38 517.37,-80.13"/>
</a>
</g>
</g>
<!-- Node15&#45;&gt;Node16 -->
<g id="edge17_Node000015_Node000016" class="edge">
<title>Node15&#45;&gt;Node16</title>
<g id="a_edge17_Node000015_Node000016"><a xlink:title=" ">
<path fill="none" stroke="#63b8ff" d="M343.83,-109.98C320.82,-101.15 284.67,-87.27 258.88,-77.36"/>
<polygon fill="#63b8ff" stroke="#63b8ff" points="259.8,-73.96 249.21,-73.65 257.29,-80.5 259.8,-73.96"/>
</a>
</g>
</g>
<!-- Node17 -->
<g id="Node000017" class="node">
<title>Node17</title>
<g id="a_Node000017"><a xlink:title=" ">
<polygon fill="#e0e0e0" stroke="#999999" points="184.5,-74 131.5,-74 131.5,-55 184.5,-55 184.5,-74"/>
<text text-anchor="middle" x="158" y="-62" font-family="Helvetica,sans-Serif" font-size="10.00">cstddef</text>
</a>
</g>
</g>
<!-- Node15&#45;&gt;Node17 -->
<g id="edge19_Node000015_Node000017" class="edge">
<title>Node15&#45;&gt;Node17</title>
<g id="a_edge19_Node000015_Node000017"><a xlink:title=" ">
<path fill="none" stroke="#63b8ff" d="M332.58,-109.98C294.84,-100.37 233.62,-84.77 194.62,-74.83"/>
<polygon fill="#63b8ff" stroke="#63b8ff" points="195.28,-71.39 184.72,-72.31 193.55,-78.17 195.28,-71.39"/>
</a>
</g>
</g>
<!-- Node15&#45;&gt;Node18 -->
<g id="edge20_Node000015_Node000018" class="edge">
<title>Node15&#45;&gt;Node18</title>
<g id="a_edge20_Node000015_Node000018"><a xlink:title=" ">
<path fill="none" stroke="#63b8ff" d="M331.65,-112.26C284.41,-103.68 196.75,-87.72 122,-74 121.54,-73.92 121.08,-73.83 120.61,-73.75"/>
<polygon fill="#63b8ff" stroke="#63b8ff" points="121.13,-70.28 110.66,-71.91 119.86,-77.17 121.13,-70.28"/>
</a>
</g>
</g>
<!-- Node15&#45;&gt;Node19 -->
<g id="edge21_Node000015_Node000019" class="edge">
<title>Node15&#45;&gt;Node19</title>
<g id="a_edge21_Node000015_Node000019"><a xlink:title=" ">
<path fill="none" stroke="#63b8ff" d="M366,-109.75C366,-102.8 366,-92.85 366,-84.13"/>
<polygon fill="#63b8ff" stroke="#63b8ff" points="369.5,-84.09 366,-74.09 362.5,-84.09 369.5,-84.09"/>
</a>
</g>
</g>
<!-- Node20&#45;&gt;Node8 -->
<g id="edge25_Node000020_Node000008" class="edge">
<title>Node20&#45;&gt;Node8</title>
<g id="a_edge25_Node000020_Node000008"><a xlink:title=" ">
<path fill="none" stroke="#63b8ff" d="M751,-109.75C751,-102.8 751,-92.85 751,-84.13"/>
<polygon fill="#63b8ff" stroke="#63b8ff" points="754.5,-84.09 751,-74.09 747.5,-84.09 754.5,-84.09"/>
</a>
</g>
</g>
<!-- Node20&#45;&gt;Node11 -->
<g id="edge23_Node000020_Node000011" class="edge">
<title>Node20&#45;&gt;Node11</title>
<g id="a_edge23_Node000020_Node000011"><a xlink:title=" ">
<path fill="none" stroke="#63b8ff" d="M719.83,-109.98C686.84,-100.97 634.6,-86.7 598.23,-76.76"/>
<polygon fill="#63b8ff" stroke="#63b8ff" points="598.98,-73.34 588.41,-74.08 597.14,-80.09 598.98,-73.34"/>
</a>
</g>
</g>
<!-- Node20&#45;&gt;Node12 -->
<g id="edge26_Node000020_Node000012" class="edge">
<title>Node20&#45;&gt;Node12</title>
<g id="a_edge26_Node000020_Node000012"><a xlink:title=" ">
<path fill="none" stroke="#63b8ff" d="M761.99,-109.99C771.45,-101.9 784.43,-88.81 790,-74 795.6,-59.11 790.54,-41.44 784.83,-28.53"/>
<polygon fill="#63b8ff" stroke="#63b8ff" points="787.86,-26.76 780.31,-19.34 781.58,-29.85 787.86,-26.76"/>
</a>
</g>
</g>
<!-- Node21 -->
<g id="Node000021" class="node">
<title>Node21</title>
<g id="a_Node000021"><a xlink:title=" ">
<polygon fill="#e0e0e0" stroke="#999999" points="703,-74 651,-74 651,-55 703,-55 703,-74"/>
<text text-anchor="middle" x="677" y="-62" font-family="Helvetica,sans-Serif" font-size="10.00">cassert</text>
</a>
</g>
</g>
<!-- Node20&#45;&gt;Node21 -->
<g id="edge24_Node000020_Node000021" class="edge">
<title>Node20&#45;&gt;Node21</title>
<g id="a_edge24_Node000020_Node000021"><a xlink:title=" ">
<path fill="none" stroke="#63b8ff" d="M739.11,-109.98C727.85,-101.92 710.71,-89.65 697.29,-80.03"/>
<polygon fill="#63b8ff" stroke="#63b8ff" points="699.27,-77.15 689.11,-74.17 695.2,-82.84 699.27,-77.15"/>
</a>
</g>
</g>
<!-- Node22&#45;&gt;Node11 -->
<g id="edge28_Node000022_Node000011" class="edge">
<title>Node22&#45;&gt;Node11</title>
<g id="a_edge28_Node000022_Node000011"><a xlink:title=" ">
<path fill="none" stroke="#63b8ff" d="M500.99,-164.66C511.05,-146.85 533.92,-106.37 547.11,-83.01"/>
<polygon fill="#63b8ff" stroke="#63b8ff" points="550.24,-84.59 552.11,-74.16 544.14,-81.14 550.24,-84.59"/>
</a>
</g>
</g>
<!-- Node22&#45;&gt;Node15 -->
<g id="edge31_Node000022_Node000015" class="edge">
<title>Node22&#45;&gt;Node15</title>
<g id="a_edge31_Node000022_Node000015"><a xlink:title=" ">
<path fill="none" stroke="#63b8ff" d="M475.11,-164.98C453.92,-156.34 420.87,-142.87 396.7,-133.02"/>
<polygon fill="#63b8ff" stroke="#63b8ff" points="397.85,-129.7 387.27,-129.17 395.21,-136.19 397.85,-129.7"/>
</a>
</g>
</g>
<!-- Node23 -->
<g id="Node000023" class="node">
<title>Node23</title>
<g id="a_Node000023"><a xlink:href="kernel_2cpu_2cpu_8hpp.html" target="_top" xlink:title=" ">
<polygon fill="white" stroke="#666666" points="1022,-129 884,-129 884,-110 1022,-110 1022,-129"/>
<text text-anchor="middle" x="953" y="-117" font-family="Helvetica,sans-Serif" font-size="10.00">uni20/kernel/cpu/cpu.hpp</text>
</a>
</g>
</g>
<!-- Node22&#45;&gt;Node23 -->
<g id="edge29_Node000022_Node000023" class="edge">
<title>Node22&#45;&gt;Node23</title>
<g id="a_edge29_Node000022_Node000023"><a xlink:title=" ">
<path fill="none" stroke="#63b8ff" d="M569.42,-164.98C652.71,-155.33 788.03,-139.63 873.68,-129.7"/>
<polygon fill="#63b8ff" stroke="#63b8ff" points="874.34,-133.15 883.87,-128.52 873.54,-126.19 874.34,-133.15"/>
</a>
</g>
</g>
<!-- Node24 -->
<g id="Node000024" class="node">
<title>Node24</title>
<g id="a_Node000024"><a xlink:title=" ">
<polygon fill="#e0e0e0" stroke="#999999" points="465.5,-129 418.5,-129 418.5,-110 465.5,-110 465.5,-129"/>
<text text-anchor="middle" x="442" y="-117" font-family="Helvetica,sans-Serif" font-size="10.00">vector</text>
</a>
</g>
</g>
<!-- Node22&#45;&gt;Node24 -->
<g id="edge32_Node000022_Node000024" class="edge">
<title>Node22&#45;&gt;Node24</title>
<g id="a_edge32_Node000022_Node000024"><a xlink:title=" ">
<path fill="none" stroke="#63b8ff" d="M487.08,-164.75C479.22,-157.03 467.57,-145.6 458.08,-136.28"/>
<polygon fill="#63b8ff" stroke="#63b8ff" points="460.34,-133.6 450.75,-129.09 455.44,-138.59 460.34,-133.6"/>
</a>
</g>
</g>
<!-- Node23&#45;&gt;Node9 -->
<g id="edge30_Node000023_Node000009" class="edge">
<title>Node23&#45;&gt;Node9</title>
<g id="a_edge30_Node000023_Node000009"><a xlink:title=" ">
<path fill="none" stroke="#63b8ff" d="M1008.91,-109.98C1070.92,-100.54 1170.81,-85.33 1236.19,-75.37"/>
<polygon fill="#63b8ff" stroke="#63b8ff" points="1237.01,-78.79 1246.37,-73.82 1235.96,-71.87 1237.01,-78.79"/>
</a>
</g>
</g>
<!-- Node29 -->
<g id="Node000029" class="node">
<title>Node29</title>
<g id="a_Node000029"><a xlink:href="matrix__ops__cusolver_8hpp.html" target="_top" xlink:title=" ">
<polygon fill="white" stroke="#666666" points="1636,-310.5 1498,-310.5 1498,-291.5 1636,-291.5 1636,-310.5"/>
<text text-anchor="middle" x="1567" y="-298.5" font-family="Helvetica,sans-Serif" font-size="10.00">matrix_ops_cusolver.hpp</text>
</a>
</g>
</g>
<!-- Node28&#45;&gt;Node29 -->
<g id="edge44_Node000028_Node000029" class="edge">
<title>Node28&#45;&gt;Node29</title>
<g id="a_edge44_Node000028_Node000029"><a xlink:title=" ">
<path fill="none" stroke="#63b8ff" d="M1567,-351.8C1567,-342.7 1567,-330.79 1567,-320.9"/>
<polygon fill="#63b8ff" stroke="#63b8ff" points="1570.5,-320.84 1567,-310.84 1563.5,-320.84 1570.5,-320.84"/>
</a>
</g>
</g>
<!-- Node31 -->
<g id="Node000031" class="node">
<title>Node31</title>
<g id="a_Node000031"><a xlink:href="matrix__ops__lapack_8hpp.html" target="_top" xlink:title=" ">
<polygon fill="white" stroke="#666666" points="1799,-310.5 1669,-310.5 1669,-291.5 1799,-291.5 1799,-310.5"/>
<text text-anchor="middle" x="1734" y="-298.5" font-family="Helvetica,sans-Serif" font-size="10.00">matrix_ops_lapack.hpp</text>
</a>
</g>
</g>
<!-- Node30&#45;&gt;Node31 -->
<g id="edge46_Node000030_Node000031" class="edge">
<title>Node30&#45;&gt;Node31</title>
<g id="a_edge46_Node000030_Node000031"><a xlink:title=" ">
<path fill="none" stroke="#63b8ff" d="M1734,-351.8C1734,-342.7 1734,-330.79 1734,-320.9"/>
<polygon fill="#63b8ff" stroke="#63b8ff" points="1737.5,-320.84 1734,-310.84 1730.5,-320.84 1737.5,-320.84"/>
</a>
</g>
</g>
<!-- Node33 -->
<g id="Node000033" class="node">
<title>Node33</title>
<g id="a_Node000033"><a xlink:href="cublas_8hpp.html" target="_top" xlink:title="Tag for selecting cuBLAS&#45;backed kernels.">
<polygon fill="white" stroke="#666666" points="1949.5,-310.5 1826.5,-310.5 1826.5,-291.5 1949.5,-291.5 1949.5,-310.5"/>
<text text-anchor="middle" x="1888" y="-298.5" font-family="Helvetica,sans-Serif" font-size="10.00">uni20/tags/cublas.hpp</text>
</a>
</g>
</g>
<!-- Node32&#45;&gt;Node33 -->
<g id="edge49_Node000032_Node000033" class="edge">
<title>Node32&#45;&gt;Node33</title>
<g id="a_edge49_Node000032_Node000033"><a xlink:title=" ">
<path fill="none" stroke="#63b8ff" d="M1888,-357.37C1888,-348.16 1888,-333.29 1888,-321.27"/>
<polygon fill="#63b8ff" stroke="#63b8ff" points="1891.5,-320.91 1888,-310.91 1884.5,-320.91 1891.5,-320.91"/>
</a>
</g>
</g>
<!-- Node34 -->
<g id="Node000034" class="node">
<title>Node34</title>
<g id="a_Node000034"><a xlink:href="cuda_8hpp.html" target="_top" xlink:title="Tag for selecting CUDA&#45;capable kernels.">
<polygon fill="white" stroke="#666666" points="1945.5,-244.5 1830.5,-244.5 1830.5,-225.5 1945.5,-225.5 1945.5,-244.5"/>
<text text-anchor="middle" x="1888" y="-232.5" font-family="Helvetica,sans-Serif" font-size="10.00">uni20/tags/cuda.hpp</text>
</a>
</g>
</g>
<!-- Node33&#45;&gt;Node34 -->
<g id="edge50_Node000033_Node000034" class="edge">
<title>Node33&#45;&gt;Node34</title>
<g id="a_edge50_Node000033_Node000034"><a xlink:title=" ">
<path fill="none" stroke="#63b8ff" d="M1888,-291.37C1888,-282.16 1888,-267.29 1888,-255.27"/>
<polygon fill="#63b8ff" stroke="#63b8ff" points="1891.5,-254.91 1888,-244.91 1884.5,-254.91 1891.5,-254.91"/>
</a>
</g>
</g>
<!-- Node36 -->
<g id="Node000036" class="node">
<title>Node36</title>
<g id="a_Node000036"><a xlink:href="tags_2blas_8hpp.html" target="_top" xlink:title="Tag for selecting BLAS&#45;backed kernels.">
<polygon fill="white" stroke="#666666" points="1463,-184 1351,-184 1351,-165 1463,-165 1463,-184"/>
<text text-anchor="middle" x="1407" y="-172" font-family="Helvetica,sans-Serif" font-size="10.00">uni20/tags/blas.hpp</text>
</a>
</g>
</g>
<!-- Node35&#45;&gt;Node36 -->
<g id="edge52_Node000035_Node000036" class="edge">
<title>Node35&#45;&gt;Node36</title>
<g id="a_edge52_Node000035_Node000036"><a xlink:title=" ">
<path fill="none" stroke="#63b8ff" d="M1407.95,-357.32C1407.8,-328.37 1407.31,-234.7 1407.1,-194.32"/>
<polygon fill="#63b8ff" stroke="#63b8ff" points="1410.6,-194.21 1407.05,-184.23 1403.6,-194.25 1410.6,-194.21"/>
</a>
</g>
</g>
<!-- Node36&#45;&gt;Node9 -->
<g id="edge53_Node000036_Node000009" class="edge">
<title>Node36&#45;&gt;Node9</title>
<g id="a_edge53_Node000036_Node000009"><a xlink:title=" ">
<path fill="none" stroke="#63b8ff" d="M1398.33,-164.66C1380.46,-146.46 1339.32,-104.55 1316.67,-81.47"/>
<polygon fill="#63b8ff" stroke="#63b8ff" points="1319,-78.84 1309.5,-74.16 1314,-83.75 1319,-78.84"/>
</a>
</g>
</g>
<!-- Node38&#45;&gt;Node2 -->
<g id="edge57_Node000038_Node000002" class="edge">
<title>Node38&#45;&gt;Node2</title>
<g id="a_edge57_Node000038_Node000002"><a xlink:title=" ">
<path fill="none" stroke="#63b8ff" d="M676.8,-482.24C823.3,-471.47 1179.23,-445.31 1334.04,-433.94"/>
<polygon fill="#63b8ff" stroke="#63b8ff" points="1334.67,-437.4 1344.39,-433.17 1334.16,-430.42 1334.67,-437.4"/>
</a>
</g>
</g>
<!-- Node38&#45;&gt;Node5 -->
<g id="edge56_Node000038_Node000005" class="edge">
<title>Node38&#45;&gt;Node5</title>
<g id="a_edge56_Node000038_Node000005"><a xlink:title=" ">
<path fill="none" stroke="#63b8ff" d="M676.58,-482.43C747.97,-473.46 853,-446.86 853,-368 853,-368 853,-368 853,-300 853,-263.46 847.25,-246.89 872,-220 889.22,-201.28 914.43,-190.42 938.47,-184.12"/>
<polygon fill="#63b8ff" stroke="#63b8ff" points="939.41,-187.5 948.32,-181.77 937.78,-180.69 939.41,-187.5"/>
</a>
</g>
</g>
<!-- Node38&#45;&gt;Node10 -->
<g id="edge67_Node000038_Node000010" class="edge">
<title>Node38&#45;&gt;Node10</title>
<g id="a_edge67_Node000038_Node000010"><a xlink:title=" ">
<path fill="none" stroke="#63b8ff" d="M612,-472.79C612,-431.63 612,-312 612,-260.29"/>
<polygon fill="#63b8ff" stroke="#63b8ff" points="615.5,-260.06 612,-250.06 608.5,-260.06 615.5,-260.06"/>
</a>
</g>
</g>
<!-- Node38&#45;&gt;Node18 -->
<g id="edge69_Node000038_Node000018" class="edge">
<title>Node38&#45;&gt;Node18</title>
<g id="a_edge69_Node000038_Node000018"><a xlink:title=" ">
<path fill="none" stroke="#63b8ff" d="M547.37,-487.93C390.06,-488.45 0,-478.61 0,-368 0,-368 0,-368 0,-173.5 0,-134.47 33.61,-99.58 56.13,-80.6"/>
<polygon fill="#63b8ff" stroke="#63b8ff" points="58.56,-83.14 64.12,-74.12 54.15,-77.7 58.56,-83.14"/>
</a>
</g>
</g>
<!-- Node38&#45;&gt;Node19 -->
<g id="edge70_Node000038_Node000019" class="edge">
<title>Node38&#45;&gt;Node19</title>
<g id="a_edge70_Node000038_Node000019"><a xlink:title=" ">
<path fill="none" stroke="#63b8ff" d="M547.33,-478.24C447.18,-462.84 266,-426.84 266,-368 266,-368 266,-368 266,-234 266,-169.95 320.1,-108.96 348.72,-81.18"/>
<polygon fill="#63b8ff" stroke="#63b8ff" points="351.18,-83.67 356.05,-74.25 346.37,-78.58 351.18,-83.67"/>
</a>
</g>
</g>
<!-- Node38&#45;&gt;Node22 -->
<g id="edge58_Node000038_Node000022" class="edge">
<title>Node38&#45;&gt;Node22</title>
<g id="a_edge58_Node000038_Node000022"><a xlink:title=" ">
<path fill="none" stroke="#63b8ff" d="M588.3,-472.98C558.73,-453.49 512,-415.23 512,-368 512,-368 512,-368 512,-300 512,-262.19 504.65,-218.43 499.91,-194.17"/>
<polygon fill="#63b8ff" stroke="#63b8ff" points="503.31,-193.31 497.9,-184.21 496.45,-194.7 503.31,-193.31"/>
</a>
</g>
</g>
<!-- Node38&#45;&gt;Node27 -->
<g id="edge68_Node000038_Node000027" class="edge">
<title>Node38&#45;&gt;Node27</title>
<g id="a_edge68_Node000038_Node000027"><a xlink:title=" ">
<path fill="none" stroke="#63b8ff" d="M676.51,-482.25C742.91,-476.02 840.33,-462.72 867,-437 917.94,-387.86 918.26,-294.91 915.74,-254.99"/>
<polygon fill="#63b8ff" stroke="#63b8ff" points="919.21,-254.52 914.96,-244.81 912.23,-255.05 919.21,-254.52"/>
</a>
</g>
</g>
<!-- Node39 -->
<g id="Node000039" class="node">
<title>Node39</title>
<g id="a_Node000039"><a xlink:href="basic__tensor_8hpp.html" target="_top" xlink:title=" ">
<polygon fill="white" stroke="#666666" points="238,-316 132,-316 132,-286 238,-286 238,-316"/>
<text text-anchor="start" x="140" y="-304" font-family="Helvetica,sans-Serif" font-size="10.00">uni20/tensor/basic</text>
<text text-anchor="middle" x="185" y="-293" font-family="Helvetica,sans-Serif" font-size="10.00">_tensor.hpp</text>
</a>
</g>
</g>
<!-- Node38&#45;&gt;Node39 -->
<g id="edge59_Node000038_Node000039" class="edge">
<title>Node38&#45;&gt;Node39</title>
<g id="a_edge59_Node000038_Node000039"><a xlink:title=" ">
<path fill="none" stroke="#63b8ff" d="M547.46,-485.15C456.9,-481.39 298.02,-470.14 252,-437 214.96,-410.33 197.29,-357.33 189.79,-326.26"/>
<polygon fill="#63b8ff" stroke="#63b8ff" points="193.15,-325.25 187.55,-316.26 186.32,-326.79 193.15,-325.25"/>
</a>
</g>
</g>
<!-- Node39&#45;&gt;Node8 -->
<g id="edge63_Node000039_Node000008" class="edge">
<title>Node39&#45;&gt;Node8</title>
<g id="a_edge63_Node000039_Node000008"><a xlink:title=" ">
<path fill="none" stroke="#63b8ff" d="M238.28,-298.19C348.4,-293.87 597.35,-280.91 676,-250 758.98,-217.39 796.29,-208.82 836,-129 848.04,-104.81 818.36,-87.49 790.83,-77.11"/>
<polygon fill="#63b8ff" stroke="#63b8ff" points="791.85,-73.76 781.26,-73.73 789.52,-80.36 791.85,-73.76"/>
</a>
</g>
</g>
<!-- Node39&#45;&gt;Node10 -->
<g id="edge61_Node000039_Node000010" class="edge">
<title>Node39&#45;&gt;Node10</title>
<g id="a_edge61_Node000039_Node000010"><a xlink:title=" ">
<path fill="none" stroke="#63b8ff" d="M238.22,-292.02C316.31,-280.32 461.82,-258.51 546.41,-245.83"/>
<polygon fill="#63b8ff" stroke="#63b8ff" points="547.05,-249.27 556.42,-244.33 546.01,-242.35 547.05,-249.27"/>
</a>
</g>
</g>
<!-- Node39&#45;&gt;Node15 -->
<g id="edge60_Node000039_Node000015" class="edge">
<title>Node39&#45;&gt;Node15</title>
<g id="a_edge60_Node000039_Node000015"><a xlink:title=" ">
<path fill="none" stroke="#63b8ff" d="M199.2,-285.91C232.38,-253.01 314.8,-171.28 349.83,-136.54"/>
<polygon fill="#63b8ff" stroke="#63b8ff" points="352.66,-138.66 357.29,-129.13 347.73,-133.69 352.66,-138.66"/>
</a>
</g>
</g>
<!-- Node39&#45;&gt;Node16 -->
<g id="edge62_Node000039_Node000016" class="edge">
<title>Node39&#45;&gt;Node16</title>
<g id="a_edge62_Node000039_Node000016"><a xlink:title=" ">
<path fill="none" stroke="#63b8ff" d="M181.3,-285.96C175.36,-261.15 165.41,-208.11 176,-165 183.63,-133.91 202.88,-101.75 215.69,-82.7"/>
<polygon fill="#63b8ff" stroke="#63b8ff" points="218.74,-84.45 221.55,-74.23 212.98,-80.47 218.74,-84.45"/>
</a>
</g>
</g>
<!-- Node39&#45;&gt;Node17 -->
<g id="edge64_Node000039_Node000017" class="edge">
<title>Node39&#45;&gt;Node17</title>
<g id="a_edge64_Node000039_Node000017"><a xlink:title=" ">
<path fill="none" stroke="#63b8ff" d="M165.71,-285.63C155.37,-276.68 143.62,-264.18 138,-250 115.3,-192.7 137.69,-118.01 150.46,-83.92"/>
<polygon fill="#63b8ff" stroke="#63b8ff" points="153.82,-84.94 154.2,-74.35 147.3,-82.39 153.82,-84.94"/>
</a>
</g>
</g>
<!-- Node39&#45;&gt;Node18 -->
<g id="edge65_Node000039_Node000018" class="edge">
<title>Node39&#45;&gt;Node18</title>
<g id="a_edge65_Node000039_Node000018"><a xlink:title=" ">
<path fill="none" stroke="#63b8ff" d="M165.09,-285.81C153.06,-276.55 137.98,-263.69 127,-250 88.8,-202.38 76.89,-188.2 62,-129 58.17,-113.78 62.63,-96.35 67.51,-83.61"/>
<polygon fill="#63b8ff" stroke="#63b8ff" points="70.83,-84.74 71.53,-74.17 64.39,-82 70.83,-84.74"/>
</a>
</g>
</g>
<!-- Node39&#45;&gt;Node19 -->
<g id="edge66_Node000039_Node000019" class="edge">
<title>Node39&#45;&gt;Node19</title>
<g id="a_edge66_Node000039_Node000019"><a xlink:title=" ">
<path fill="none" stroke="#63b8ff" d="M189.77,-285.98C201.86,-252.15 236.58,-164.77 290,-110 302.87,-96.8 320.48,-86.16 335.51,-78.6"/>
<polygon fill="#63b8ff" stroke="#63b8ff" points="337.43,-81.56 344.93,-74.08 334.4,-75.25 337.43,-81.56"/>
</a>
</g>
</g>
</g>
</svg>
