<?xml version="1.0" encoding="UTF-8" standalone="no"?>
<!DOCTYPE svg PUBLIC "-//W3C//DTD SVG 1.1//EN"
 "http://www.w3.org/Graphics/SVG/1.1/DTD/svg11.dtd">
<!-- Generated by graphviz version 2.43.0 (0)
 -->
<!-- Title: matrix_ops_cusolver.hpp Pages: 1 -->
<svg width="160pt" height="247pt"
 viewBox="0.00 0.00 160.00 247.00" xmlns="http://www.w3.org/2000/svg" xmlns:xlink="http://www.w3.org/1999/xlink">

<svg id="main" version="1.1" xmlns="http://www.w3.org/2000/svg" xmlns:xlink="http://www.w3.org/1999/xlink" xml:space="preserve" onload="init(evt)">
<style type="text/css"><![CDATA[
.node, .edge {opacity: 0.7;}
.node.selected, .edge.selected {opacity: 1;}
.edge:hover path { stroke: red; }
.edge:hover polygon { stroke: red; fill: red; }
]]></style>
<script type="application/ecmascript" xlink:href="svg.min.js"/>
<svg id="graph" class="graph">
<g id="graph0" class="graph" transform="scale(1 1) rotate(0) translate(4 243)">
<title>matrix_ops_cusolver.hpp</title>
<!-- Node1 -->
<g id="Node000001" class="node">
<title>Node1</title>
<g id="a_Node000001"><a xlink:title=" ">
<polygon fill="#999999" stroke="#666666" points="138,-239 0,-239 0,-220 138,-220 138,-239"/>
<text text-anchor="middle" x="69" y="-227" font-family="Helvetica,sans-Serif" font-size="10.00">matrix_ops_cusolver.hpp</text>
</a>
</g>
</g>
<!-- Node2 -->
<g id="Node000002" class="node">
<title>Node2</title>
<g id="a_Node000002"><a xlink:href="linalg__cusolver_8hpp.html" target="_top" xlink:title=" ">
<polygon fill="white" stroke="#666666" points="124,-184 14,-184 14,-165 124,-165 124,-184"/>
<text text-anchor="middle" x="69" y="-172" font-family="Helvetica,sans-Serif" font-size="10.00">linalg_cusolver.hpp</text>
</a>
</g>
</g>
<!-- Node1&#45;&gt;Node2 -->
<g id="edge1_Node000001_Node000002" class="edge">
<title>Node1&#45;&gt;Node2</title>
<g id="a_edge1_Node000001_Node000002"><a xlink:title=" ">
<path fill="none" stroke="#63b8ff" d="M69,-209.66C69,-200.93 69,-190.99 69,-184.09"/>
<polygon fill="#63b8ff" stroke="#63b8ff" points="65.5,-209.75 69,-219.75 72.5,-209.75 65.5,-209.75"/>
</a>
</g>
</g>
<!-- Node3 -->
<g id="Node000003" class="node">
<title>Node3</title>
<g id="a_Node000003"><a xlink:href="backend__manifest_8hpp.html" target="_top" xlink:title=" ">
<polygon fill="white" stroke="#666666" points="132.5,-129 5.5,-129 5.5,-110 132.5,-110 132.5,-129"/>
<text text-anchor="middle" x="69" y="-117" font-family="Helvetica,sans-Serif" font-size="10.00">backend_manifest.hpp</text>
</a>
</g>
</g>
<!-- Node2&#45;&gt;Node3 -->
<g id="edge2_Node000002_Node000003" class="edge">
<title>Node2&#45;&gt;Node3</title>
<g id="a_edge2_Node000002_Node000003"><a xlink:title=" ">
<path fill="none" stroke="#63b8ff" d="M69,-154.66C69,-145.93 69,-135.99 69,-129.09"/>
<polygon fill="#63b8ff" stroke="#63b8ff" points="65.5,-154.75 69,-164.75 72.5,-154.75 65.5,-154.75"/>
</a>
</g>
</g>
<!-- Node4 -->
<g id="Node000004" class="node">
<title>Node4</title>
<g id="a_Node000004"><a xlink:href="linalg_8hpp.html" target="_top" xlink:title=" ">
<polygon fill="white" stroke="#666666" points="101.5,-19 36.5,-19 36.5,0 101.5,0 101.5,-19"/>
<text text-anchor="middle" x="69" y="-7" font-family="Helvetica,sans-Serif" font-size="10.00">linalg.hpp</text>
</a>
</g>
</g>
<!-- Node3&#45;&gt;Node4 -->
<g id="edge3_Node000003_Node000004" class="edge">
<title>Node3&#45;&gt;Node4</title>
<g id="a_edge3_Node000003_Node000004"><a xlink:title=" ">
<path fill="none" stroke="#63b8ff" d="M59.43,-101.02C53.64,-88.37 47.93,-70.8 51,-55 53.55,-41.91 59.94,-27.8 64.38,-19.06"/>
<polygon fill="#63b8ff" stroke="#63b8ff" points="56.31,-102.61 63.92,-109.98 62.57,-99.47 56.31,-102.61"/>
</a>
</g>
</g>
<!-- Node5 -->
<g id="Node000005" class="node">
<title>Node5</title>
<g id="a_Node000005"><a xlink:href="matrix__ops_8hpp.html" target="_top" xlink:title=" ">
<polygon fill="white" stroke="#666666" points="152,-74 60,-74 60,-55 152,-55 152,-74"/>
<text text-anchor="middle" x="106" y="-62" font-family="Helvetica,sans-Serif" font-size="10.00">matrix_ops.hpp</text>
</a>
</g>
</g>
<!-- Node3&#45;&gt;Node5 -->
<g id="edge4_Node000003_Node000005" class="edge">
<title>Node3&#45;&gt;Node5</title>
<g id="a_edge4_Node000003_Node000005"><a xlink:title=" ">
<path fill="none" stroke="#63b8ff" d="M80.95,-101.39C87.31,-92.27 94.87,-81.45 100,-74.09"/>
<polygon fill="#63b8ff" stroke="#63b8ff" points="77.96,-99.55 75.11,-109.75 83.7,-103.55 77.96,-99.55"/>
</a>
</g>
</g>
<!-- Node5&#45;&gt;Node4 -->
<g id="edge5_Node000005_Node000004" class="edge">
<title>Node5&#45;&gt;Node4</title>
<g id="a_edge5_Node000005_Node000004"><a xlink:title=" ">
<path fill="none" stroke="#63b8ff" d="M94.05,-46.39C87.69,-37.27 80.13,-26.45 75,-19.09"/>
<polygon fill="#63b8ff" stroke="#63b8ff" points="91.3,-48.55 99.89,-54.75 97.04,-44.55 91.3,-48.55"/>
</a>
</g>
</g>
</g>
</svg>
</svg>

<style type='text/css'>
<![CDATA[
[data-mouse-over-selected='false'] { opacity: 0.7; }
[data-mouse-over-selected='true']  { opacity: 1.0; }
]]>
</style>
<script type="application/ecmascript"><![CDATA[
document.addEventListener('DOMContentLoaded', (event) => {
  highlightEdges();
  highlightAdjacentNodes();
});
]]></script>
</svg>
