<?xml version="1.0" encoding="UTF-8" standalone="no"?>
<!DOCTYPE svg PUBLIC "-//W3C//DTD SVG 1.1//EN"
 "http://www.w3.org/Graphics/SVG/1.1/DTD/svg11.dtd">
<!-- Generated by graphviz version 2.43.0 (0)
 -->
<!-- Title: matrix.hpp Pages: 1 -->
<svg width="264pt" height="137pt"
 viewBox="0.00 0.00 264.00 137.00" xmlns="http://www.w3.org/2000/svg" xmlns:xlink="http://www.w3.org/1999/xlink">
<g id="graph0" class="graph" transform="scale(1 1) rotate(0) translate(4 133)">
<title>matrix.hpp</title>
<!-- Node1 -->
<g id="Node000001" class="node">
<title>Node1</title>
<g id="a_Node000001"><a xlink:title=" ">
<polygon fill="#999999" stroke="#666666" points="136.5,-129 66.5,-129 66.5,-110 136.5,-110 136.5,-129"/>
<text text-anchor="middle" x="101.5" y="-117" font-family="Helvetica,sans-Serif" font-size="10.00">matrix.hpp</text>
</a>
</g>
</g>
<!-- Node2 -->
<g id="Node000002" class="node">
<title>Node2</title>
<g id="a_Node000002"><a xlink:href="adaptive__exponential_8cpp.html" target="_top" xlink:title=" ">
<polygon fill="white" stroke="#666666" points="143,-19 0,-19 0,0 143,0 143,-19"/>
<text text-anchor="middle" x="71.5" y="-7" font-family="Helvetica,sans-Serif" font-size="10.00">adaptive_exponential.cpp</text>
</a>
</g>
</g>
<!-- Node1&#45;&gt;Node2 -->
<g id="edge1_Node000001_Node000002" class="edge">
<title>Node1&#45;&gt;Node2</title>
<g id="a_edge1_Node000001_Node000002"><a xlink:title=" ">
<path fill="none" stroke="#63b8ff" d="M96.31,-99.8C89.75,-76.2 78.74,-36.58 73.91,-19.16"/>
<polygon fill="#63b8ff" stroke="#63b8ff" points="93,-100.96 99.04,-109.66 99.74,-99.09 93,-100.96"/>
</a>
</g>
</g>
<!-- Node3 -->
<g id="Node000003" class="node">
<title>Node3</title>
<g id="a_Node000003"><a xlink:href="expokitf_8h.html" target="_top" xlink:title=" ">
<polygon fill="white" stroke="#666666" points="165,-74 100,-74 100,-55 165,-55 165,-74"/>
<text text-anchor="middle" x="132.5" y="-62" font-family="Helvetica,sans-Serif" font-size="10.00">expokitf.h</text>
</a>
</g>
</g>
<!-- Node1&#45;&gt;Node3 -->
<g id="edge2_Node000001_Node000003" class="edge">
<title>Node1&#45;&gt;Node3</title>
<g id="a_edge2_Node000001_Node000003"><a xlink:title=" ">
<path fill="none" stroke="#63b8ff" d="M111.68,-101.1C116.97,-92.04 123.22,-81.37 127.48,-74.09"/>
<polygon fill="#63b8ff" stroke="#63b8ff" points="108.65,-99.35 106.62,-109.75 114.69,-102.88 108.65,-99.35"/>
</a>
</g>
</g>
<!-- Node3&#45;&gt;Node2 -->
<g id="edge3_Node000003_Node000002" class="edge">
<title>Node3&#45;&gt;Node2</title>
<g id="a_edge3_Node000003_Node000002"><a xlink:title=" ">
<path fill="none" stroke="#63b8ff" d="M115.03,-48.32C104.16,-38.87 90.56,-27.06 81.48,-19.17"/>
<polygon fill="#63b8ff" stroke="#63b8ff" points="112.85,-51.07 122.7,-54.98 117.45,-45.78 112.85,-51.07"/>
</a>
</g>
</g>
<!-- Node4 -->
<g id="Node000004" class="node">
<title>Node4</title>
<g id="a_Node000004"><a xlink:href="exponential_8cpp.html" target="_top" xlink:title=" ">
<polygon fill="white" stroke="#666666" points="256,-19 161,-19 161,0 256,0 256,-19"/>
<text text-anchor="middle" x="208.5" y="-7" font-family="Helvetica,sans-Serif" font-size="10.00">exponential.cpp</text>
</a>
</g>
</g>
<!-- Node3&#45;&gt;Node4 -->
<g id="edge4_Node000003_Node000004" class="edge">
<title>Node3&#45;&gt;Node4</title>
<g id="a_edge4_Node000003_Node000004"><a xlink:title=" ">
<path fill="none" stroke="#63b8ff" d="M153.08,-49.15C166.81,-39.57 184.43,-27.29 196.07,-19.17"/>
<polygon fill="#63b8ff" stroke="#63b8ff" points="150.91,-46.39 144.71,-54.98 154.92,-52.14 150.91,-46.39"/>
</a>
</g>
</g>
</g>
</svg>
