<?xml version="1.0" encoding="UTF-8" standalone="no"?>
<!DOCTYPE svg PUBLIC "-//W3C//DTD SVG 1.1//EN"
 "http://www.w3.org/Graphics/SVG/1.1/DTD/svg11.dtd">
<!-- Generated by graphviz version 2.43.0 (0)
 -->
<!-- Title: matrix_ops_cpu.hpp Pages: 1 -->
<!--zoomable 313 -->

<svg id="main" version="1.1" xmlns="http://www.w3.org/2000/svg" xmlns:xlink="http://www.w3.org/1999/xlink" xml:space="preserve" onload="init(evt)">
<style type="text/css"><![CDATA[
.node, .edge {opacity: 0.7;}
.node.selected, .edge.selected {opacity: 1;}
.edge:hover path { stroke: red; }
.edge:hover polygon { stroke: red; fill: red; }
]]></style>

<defs>
  <circle id="rim" cx="0" cy="0" r="7"/>
  <circle id="rim2" cx="0" cy="0" r="3.5"/>
  <g id="zoomPlus">
    <use xlink:href="#rim" fill="#404040"><set attributeName="fill" to="#808080" begin="zoomplus.mouseover" end="zoomplus.mouseout"/></use>
    <path d="M-4,0h8M0,-4v8" fill="none" stroke="white" stroke-width="1.5" pointer-events="none"/>
  </g>
  <g id="zoomMin">
    <use xlink:href="#rim" fill="#404040"><set attributeName="fill" to="#808080" begin="zoomminus.mouseover" end="zoomminus.mouseout"/></use>
    <path d="M-4,0h8" fill="none" stroke="white" stroke-width="1.5" pointer-events="none"/>
  </g>
  <g id="arrowUp" transform="translate(30 24)">
    <use xlink:href="#rim"/>
    <path pointer-events="none" fill="none" stroke="white" stroke-width="1.5" d="M0,-3.0v7 M-2.5,-0.5L0,-3.0L2.5,-0.5"/>
  </g>
  <g id="arrowRight" transform="rotate(90) translate(36 -43)">
    <use xlink:href="#rim"/>
    <path pointer-events="none" fill="none" stroke="white" stroke-width="1.5" d="M0,-3.0v7 M-2.5,-0.5L0,-3.0L2.5,-0.5"/>
  </g>
  <g id="arrowDown" transform="rotate(180) translate(-30 -48)">
    <use xlink:href="#rim"/>
    <path pointer-events="none" fill="none" stroke="white" stroke-width="1.5" d="M0,-3.0v7 M-2.5,-0.5L0,-3.0L2.5,-0.5"/>
  </g>
  <g id="arrowLeft" transform="rotate(270) translate(-36 17)">
    <use xlink:href="#rim"/>
    <path pointer-events="none" fill="none" stroke="white" stroke-width="1.5" d="M0,-3.0v7 M-2.5,-0.5L0,-3.0L2.5,-0.5"/>
  </g>
  <g id="resetDef">
    <use xlink:href="#rim2" fill="#404040"><set attributeName="fill" to="#808080" begin="reset.mouseover" end="reset.mouseout"/></use>
  </g>
</defs>
<script type="application/ecmascript">
var viewWidth = 1315;
var viewHeight = 313;
var sectionId = 'dynsection-0';
</script>
<script type="application/ecmascript" xlink:href="svg.min.js"/>
<svg id="graph" class="graph">
<g id="viewport">
<title>matrix_ops_cpu.hpp</title>
<!-- Node1 -->
<g id="Node000001" class="node">
<title>Node1</title>
<g id="a_Node000001"><a xlink:title=" ">
<polygon fill="#999999" stroke="#666666" points="1086,-305 971,-305 971,-286 1086,-286 1086,-305"/>
<text text-anchor="middle" x="1028.5" y="-293" font-family="Helvetica,sans-Serif" font-size="10.00">matrix_ops_cpu.hpp</text>
</a>
</g>
</g>
<!-- Node2 -->
<g id="Node000002" class="node">
<title>Node2</title>
<g id="a_Node000002"><a xlink:href="types_8hpp.html" target="_top" xlink:title=" ">
<polygon fill="white" stroke="#666666" points="212,-184 93,-184 93,-165 212,-165 212,-184"/>
<text text-anchor="middle" x="152.5" y="-172" font-family="Helvetica,sans-Serif" font-size="10.00">uni20/core/types.hpp</text>
</a>
</g>
</g>
<!-- Node1&#45;&gt;Node2 -->
<g id="edge1_Node000001_Node000002" class="edge">
<title>Node1&#45;&gt;Node2</title>
<g id="a_edge1_Node000001_Node000002"><a xlink:title=" ">
<path fill="none" stroke="#63b8ff" d="M970.71,-293.47C865.13,-290.84 634.27,-281.66 442.5,-250 349.8,-234.69 243.43,-203.86 188.91,-187.06"/>
<polygon fill="#63b8ff" stroke="#63b8ff" points="189.94,-183.71 179.35,-184.09 187.86,-190.4 189.94,-183.71"/>
</a>
</g>
</g>
<!-- Node4 -->
<g id="Node000004" class="node">
<title>Node4</title>
<g id="a_Node000004"><a xlink:title=" ">
<polygon fill="#e0e0e0" stroke="#999999" points="59,-129 0,-129 0,-110 59,-110 59,-129"/>
<text text-anchor="middle" x="29.5" y="-117" font-family="Helvetica,sans-Serif" font-size="10.00">complex</text>
</a>
</g>
</g>
<!-- Node1&#45;&gt;Node4 -->
<g id="edge36_Node000001_Node000004" class="edge">
<title>Node1&#45;&gt;Node4</title>
<g id="a_edge36_Node000001_Node000004"><a xlink:title=" ">
<path fill="none" stroke="#63b8ff" d="M970.89,-292.69C822.61,-287.76 430.54,-272.9 302.5,-250 202.43,-232.1 168.57,-239.66 83.5,-184 65.22,-172.04 49.73,-152.11 40.08,-137.76"/>
<polygon fill="#63b8ff" stroke="#63b8ff" points="42.98,-135.8 34.62,-129.28 37.1,-139.59 42.98,-135.8"/>
</a>
</g>
</g>
<!-- Node6 -->
<g id="Node000006" class="node">
<title>Node6</title>
<g id="a_Node000006"><a xlink:href="tags_2cpu_8hpp.html" target="_top" xlink:title="Tag for selecting CPU&#45;based Uni20 kernels.">
<polygon fill="white" stroke="#666666" points="1053,-74 944,-74 944,-55 1053,-55 1053,-74"/>
<text text-anchor="middle" x="998.5" y="-62" font-family="Helvetica,sans-Serif" font-size="10.00">uni20/tags/cpu.hpp</text>
</a>
</g>
</g>
<!-- Node1&#45;&gt;Node6 -->
<g id="edge5_Node000001_Node000006" class="edge">
<title>Node1&#45;&gt;Node6</title>
<g id="a_edge5_Node000001_Node000006"><a xlink:title=" ">
<path fill="none" stroke="#63b8ff" d="M1031.75,-285.99C1041.54,-258.99 1068.51,-173.29 1042.5,-110 1037.69,-98.31 1028.17,-88.05 1019.2,-80.34"/>
<polygon fill="#63b8ff" stroke="#63b8ff" points="1021.27,-77.51 1011.28,-74 1016.9,-82.98 1021.27,-77.51"/>
</a>
</g>
</g>
<!-- Node7 -->
<g id="Node000007" class="node">
<title>Node7</title>
<g id="a_Node000007"><a xlink:href="tensor__view_8hpp.html" target="_top" xlink:title="Tensor view abstractions and accessor factories built on std::mdspan.">
<polygon fill="white" stroke="#666666" points="563,-250 452,-250 452,-220 563,-220 563,-250"/>
<text text-anchor="start" x="460" y="-238" font-family="Helvetica,sans-Serif" font-size="10.00">uni20/tensor/tensor</text>
<text text-anchor="middle" x="507.5" y="-227" font-family="Helvetica,sans-Serif" font-size="10.00">_view.hpp</text>
</a>
</g>
</g>
<!-- Node1&#45;&gt;Node7 -->
<g id="edge6_Node000001_Node000007" class="edge">
<title>Node1&#45;&gt;Node7</title>
<g id="a_edge6_Node000001_Node000007"><a xlink:title=" ">
<path fill="none" stroke="#63b8ff" d="M970.75,-288.02C873.06,-277.05 675.82,-254.9 573.08,-243.36"/>
<polygon fill="#63b8ff" stroke="#63b8ff" points="573.46,-239.88 563.14,-242.25 572.68,-246.84 573.46,-239.88"/>
</a>
</g>
</g>
<!-- Node15 -->
<g id="Node000015" class="node">
<title>Node15</title>
<g id="a_Node000015"><a xlink:title=" ">
<polygon fill="#e0e0e0" stroke="#999999" points="781,-74 712,-74 712,-55 781,-55 781,-74"/>
<text text-anchor="middle" x="746.5" y="-62" font-family="Helvetica,sans-Serif" font-size="10.00">type_traits</text>
</a>
</g>
</g>
<!-- Node1&#45;&gt;Node15 -->
<g id="edge38_Node000001_Node000015" class="edge">
<title>Node1&#45;&gt;Node15</title>
<g id="a_edge38_Node000001_Node000015"><a xlink:title=" ">
<path fill="none" stroke="#63b8ff" d="M1017.79,-285.8C975.48,-251.44 819.62,-124.87 765.31,-80.77"/>
<polygon fill="#63b8ff" stroke="#63b8ff" points="767.19,-77.79 757.22,-74.21 762.78,-83.23 767.19,-77.79"/>
</a>
</g>
</g>
<!-- Node16 -->
<g id="Node000016" class="node">
<title>Node16</title>
<g id="a_Node000016"><a xlink:title=" ">
<polygon fill="#e0e0e0" stroke="#999999" points="844,-74 799,-74 799,-55 844,-55 844,-74"/>
<text text-anchor="middle" x="821.5" y="-62" font-family="Helvetica,sans-Serif" font-size="10.00">utility</text>
</a>
</g>
</g>
<!-- Node1&#45;&gt;Node16 -->
<g id="edge39_Node000001_Node000016" class="edge">
<title>Node1&#45;&gt;Node16</title>
<g id="a_edge39_Node000001_Node000016"><a xlink:title=" ">
<path fill="none" stroke="#63b8ff" d="M1030.71,-285.82C1037.53,-256.8 1055.18,-162.03 1009.5,-110 989.3,-86.99 902.26,-74.16 854.02,-68.7"/>
<polygon fill="#63b8ff" stroke="#63b8ff" points="854.39,-65.22 844.07,-67.62 853.63,-72.18 854.39,-65.22"/>
</a>
</g>
</g>
<!-- Node22 -->
<g id="Node000022" class="node">
<title>Node22</title>
<g id="a_Node000022"><a xlink:title=" ">
<polygon fill="#e0e0e0" stroke="#999999" points="1158.5,-244.5 1094.5,-244.5 1094.5,-225.5 1158.5,-225.5 1158.5,-244.5"/>
<text text-anchor="middle" x="1126.5" y="-232.5" font-family="Helvetica,sans-Serif" font-size="10.00">algorithm</text>
</a>
</g>
</g>
<!-- Node1&#45;&gt;Node22 -->
<g id="edge34_Node000001_Node000022" class="edge">
<title>Node1&#45;&gt;Node22</title>
<g id="a_edge34_Node000001_Node000022"><a xlink:title=" ">
<path fill="none" stroke="#63b8ff" d="M1042.96,-285.87C1058.81,-276.41 1084.47,-261.09 1103.18,-249.92"/>
<polygon fill="#63b8ff" stroke="#63b8ff" points="1105.19,-252.8 1111.98,-244.67 1101.6,-246.79 1105.19,-252.8"/>
</a>
</g>
</g>
<!-- Node23 -->
<g id="Node000023" class="node">
<title>Node23</title>
<g id="a_Node000023"><a xlink:title=" ">
<polygon fill="#e0e0e0" stroke="#999999" points="1224,-244.5 1177,-244.5 1177,-225.5 1224,-225.5 1224,-244.5"/>
<text text-anchor="middle" x="1200.5" y="-232.5" font-family="Helvetica,sans-Serif" font-size="10.00">cmath</text>
</a>
</g>
</g>
<!-- Node1&#45;&gt;Node23 -->
<g id="edge35_Node000001_Node000023" class="edge">
<title>Node1&#45;&gt;Node23</title>
<g id="a_edge35_Node000001_Node000023"><a xlink:title=" ">
<path fill="none" stroke="#63b8ff" d="M1057.78,-285.98C1086.1,-277.53 1130.09,-263.89 1167.5,-250 1168.89,-249.49 1170.3,-248.95 1171.72,-248.39"/>
<polygon fill="#63b8ff" stroke="#63b8ff" points="1173.13,-251.6 1181.07,-244.59 1170.49,-245.11 1173.13,-251.6"/>
</a>
</g>
</g>
<!-- Node24 -->
<g id="Node000024" class="node">
<title>Node24</title>
<g id="a_Node000024"><a xlink:title=" ">
<polygon fill="#e0e0e0" stroke="#999999" points="1307,-244.5 1242,-244.5 1242,-225.5 1307,-225.5 1307,-244.5"/>
<text text-anchor="middle" x="1274.5" y="-232.5" font-family="Helvetica,sans-Serif" font-size="10.00">stdexcept</text>
</a>
</g>
</g>
<!-- Node1&#45;&gt;Node24 -->
<g id="edge37_Node000001_Node000024" class="edge">
<title>Node1&#45;&gt;Node24</title>
<g id="a_edge37_Node000001_Node000024"><a xlink:title=" ">
<path fill="none" stroke="#63b8ff" d="M1074.21,-285.98C1115.78,-277.89 1178.67,-264.8 1232.5,-250 1235.12,-249.28 1237.82,-248.49 1240.52,-247.67"/>
<polygon fill="#63b8ff" stroke="#63b8ff" points="1241.74,-250.95 1250.21,-244.59 1239.61,-244.28 1241.74,-250.95"/>
</a>
</g>
</g>
<!-- Node3 -->
<g id="Node000003" class="node">
<title>Node3</title>
<g id="a_Node000003"><a xlink:title=" ">
<polygon fill="#e0e0e0" stroke="#999999" points="174,-129 77,-129 77,-110 174,-110 174,-129"/>
<text text-anchor="middle" x="125.5" y="-117" font-family="Helvetica,sans-Serif" font-size="10.00">uni20/config.hpp</text>
</a>
</g>
</g>
<!-- Node2&#45;&gt;Node3 -->
<g id="edge2_Node000002_Node000003" class="edge">
<title>Node2&#45;&gt;Node3</title>
<g id="a_edge2_Node000002_Node000003"><a xlink:title=" ">
<path fill="none" stroke="#63b8ff" d="M148.04,-164.75C144.38,-157.57 139.09,-147.18 134.55,-138.27"/>
<polygon fill="#63b8ff" stroke="#63b8ff" points="137.53,-136.41 129.88,-129.09 131.3,-139.59 137.53,-136.41"/>
</a>
</g>
</g>
<!-- Node2&#45;&gt;Node4 -->
<g id="edge3_Node000002_Node000004" class="edge">
<title>Node2&#45;&gt;Node4</title>
<g id="a_edge3_Node000002_Node000004"><a xlink:title=" ">
<path fill="none" stroke="#63b8ff" d="M132.74,-164.98C112.77,-156.38 81.7,-142.99 58.85,-133.15"/>
<polygon fill="#63b8ff" stroke="#63b8ff" points="60.19,-129.91 49.62,-129.17 57.42,-136.34 60.19,-129.91"/>
</a>
</g>
</g>
<!-- Node5 -->
<g id="Node000005" class="node">
<title>Node5</title>
<g id="a_Node000005"><a xlink:title=" ">
<polygon fill="#e0e0e0" stroke="#999999" points="270.5,-74 210.5,-74 210.5,-55 270.5,-55 270.5,-74"/>
<text text-anchor="middle" x="240.5" y="-62" font-family="Helvetica,sans-Serif" font-size="10.00">concepts</text>
</a>
</g>
</g>
<!-- Node2&#45;&gt;Node5 -->
<g id="edge4_Node000002_Node000005" class="edge">
<title>Node2&#45;&gt;Node5</title>
<g id="a_edge4_Node000002_Node000005"><a xlink:title=" ">
<path fill="none" stroke="#63b8ff" d="M159.7,-164.66C174.41,-146.61 208.09,-105.28 226.99,-82.08"/>
<polygon fill="#63b8ff" stroke="#63b8ff" points="229.84,-84.12 233.45,-74.16 224.41,-79.7 229.84,-84.12"/>
</a>
</g>
</g>
<!-- Node7&#45;&gt;Node2 -->
<g id="edge11_Node000007_Node000002" class="edge">
<title>Node7&#45;&gt;Node2</title>
<g id="a_edge11_Node000007_Node000002"><a xlink:title=" ">
<path fill="none" stroke="#63b8ff" d="M451.64,-224.8C387.1,-214.16 281.22,-196.71 214.27,-185.68"/>
<polygon fill="#63b8ff" stroke="#63b8ff" points="214.72,-182.21 204.28,-184.03 213.58,-189.11 214.72,-182.21"/>
</a>
</g>
</g>
<!-- Node7&#45;&gt;Node5 -->
<g id="edge31_Node000007_Node000005" class="edge">
<title>Node7&#45;&gt;Node5</title>
<g id="a_edge31_Node000007_Node000005"><a xlink:title=" ">
<path fill="none" stroke="#63b8ff" d="M451.93,-224.69C395.66,-212.39 309.96,-185.33 259.5,-129 248.46,-116.68 243.83,-98.17 241.89,-84.31"/>
<polygon fill="#63b8ff" stroke="#63b8ff" points="245.33,-83.58 240.81,-74 238.37,-84.31 245.33,-83.58"/>
</a>
</g>
</g>
<!-- Node8 -->
<g id="Node000008" class="node">
<title>Node8</title>
<g id="a_Node000008"><a xlink:href="mdspan_8hpp.html" target="_top" xlink:title="Wrapper that exposes the mdspan reference implementation and a formatter bridge.">
<polygon fill="white" stroke="#666666" points="549.5,-74 397.5,-74 397.5,-55 549.5,-55 549.5,-74"/>
<text text-anchor="middle" x="473.5" y="-62" font-family="Helvetica,sans-Serif" font-size="10.00">uni20/common/mdspan.hpp</text>
</a>
</g>
</g>
<!-- Node7&#45;&gt;Node8 -->
<g id="edge7_Node000007_Node000008" class="edge">
<title>Node7&#45;&gt;Node8</title>
<g id="a_edge7_Node000007_Node000008"><a xlink:title=" ">
<path fill="none" stroke="#63b8ff" d="M494.93,-219.84C487.42,-210.41 478.56,-197.33 474.5,-184 464.14,-150.01 467.3,-107.94 470.46,-84.17"/>
<polygon fill="#63b8ff" stroke="#63b8ff" points="473.95,-84.49 471.95,-74.08 467.03,-83.46 473.95,-84.49"/>
</a>
</g>
</g>
<!-- Node12 -->
<g id="Node000012" class="node">
<title>Node12</title>
<g id="a_Node000012"><a xlink:href="layout_8hpp.html" target="_top" xlink:title=" ">
<polygon fill="white" stroke="#666666" points="622.5,-129 554.5,-129 554.5,-110 622.5,-110 622.5,-129"/>
<text text-anchor="middle" x="588.5" y="-117" font-family="Helvetica,sans-Serif" font-size="10.00">layout.hpp</text>
</a>
</g>
</g>
<!-- Node7&#45;&gt;Node12 -->
<g id="edge12_Node000007_Node000012" class="edge">
<title>Node7&#45;&gt;Node12</title>
<g id="a_edge12_Node000007_Node000012"><a xlink:title=" ">
<path fill="none" stroke="#63b8ff" d="M513.91,-219.86C520.77,-205.44 532.42,-182.72 545.5,-165 553.14,-154.65 563.04,-144.25 571.41,-136.11"/>
<polygon fill="#63b8ff" stroke="#63b8ff" points="573.99,-138.48 578.85,-129.07 569.18,-133.4 573.99,-138.48"/>
</a>
</g>
</g>
<!-- Node13 -->
<g id="Node000013" class="node">
<title>Node13</title>
<g id="a_Node000013"><a xlink:title=" ">
<polygon fill="#e0e0e0" stroke="#999999" points="609.5,-74 567.5,-74 567.5,-55 609.5,-55 609.5,-74"/>
<text text-anchor="middle" x="588.5" y="-62" font-family="Helvetica,sans-Serif" font-size="10.00">array</text>
</a>
</g>
</g>
<!-- Node7&#45;&gt;Node13 -->
<g id="edge30_Node000007_Node000013" class="edge">
<title>Node7&#45;&gt;Node13</title>
<g id="a_edge30_Node000007_Node000013"><a xlink:title=" ">
<path fill="none" stroke="#63b8ff" d="M509.63,-219.74C513.69,-195.72 524.11,-146.27 545.5,-110 551.87,-99.2 561.37,-89 569.82,-81.1"/>
<polygon fill="#63b8ff" stroke="#63b8ff" points="572.33,-83.54 577.46,-74.28 567.67,-78.32 572.33,-83.54"/>
</a>
</g>
</g>
<!-- Node7&#45;&gt;Node15 -->
<g id="edge32_Node000007_Node000015" class="edge">
<title>Node7&#45;&gt;Node15</title>
<g id="a_edge32_Node000007_Node000015"><a xlink:title=" ">
<path fill="none" stroke="#63b8ff" d="M563.18,-229.53C624.07,-223.38 716.03,-210 738.5,-184 762.45,-156.27 757.01,-109.94 751.44,-84.19"/>
<polygon fill="#63b8ff" stroke="#63b8ff" points="754.78,-83.15 749.05,-74.24 747.98,-84.78 754.78,-83.15"/>
</a>
</g>
</g>
<!-- Node7&#45;&gt;Node16 -->
<g id="edge33_Node000007_Node000016" class="edge">
<title>Node7&#45;&gt;Node16</title>
<g id="a_edge33_Node000007_Node000016"><a xlink:title=" ">
<path fill="none" stroke="#63b8ff" d="M563.19,-228.49C627.45,-221.19 728.19,-206.54 758.5,-184 792.2,-158.94 809.68,-110.42 817.07,-83.9"/>
<polygon fill="#63b8ff" stroke="#63b8ff" points="820.51,-84.58 819.64,-74.02 813.73,-82.82 820.51,-84.58"/>
</a>
</g>
</g>
<!-- Node17 -->
<g id="Node000017" class="node">
<title>Node17</title>
<g id="a_Node000017"><a xlink:href="concepts_8hpp.html" target="_top" xlink:title="Mdspan concept and accessor extensions for Uni20.">
<polygon fill="white" stroke="#666666" points="422,-129 269,-129 269,-110 422,-110 422,-129"/>
<text text-anchor="middle" x="345.5" y="-117" font-family="Helvetica,sans-Serif" font-size="10.00">uni20/mdspan/concepts.hpp</text>
</a>
</g>
</g>
<!-- Node7&#45;&gt;Node17 -->
<g id="edge19_Node000007_Node000017" class="edge">
<title>Node7&#45;&gt;Node17</title>
<g id="a_edge19_Node000007_Node000017"><a xlink:title=" ">
<path fill="none" stroke="#63b8ff" d="M487.31,-219.85C456.43,-198.22 397.77,-157.12 366.44,-135.17"/>
<polygon fill="#63b8ff" stroke="#63b8ff" points="368.22,-132.14 358.02,-129.27 364.2,-137.88 368.22,-132.14"/>
</a>
</g>
</g>
<!-- Node19 -->
<g id="Node000019" class="node">
<title>Node19</title>
<g id="a_Node000019"><a xlink:href="vectorstorage_8hpp.html" target="_top" xlink:title=" ">
<polygon fill="white" stroke="#666666" points="730,-184 555,-184 555,-165 730,-165 730,-184"/>
<text text-anchor="middle" x="642.5" y="-172" font-family="Helvetica,sans-Serif" font-size="10.00">uni20/storage/vectorstorage.hpp</text>
</a>
</g>
</g>
<!-- Node7&#45;&gt;Node19 -->
<g id="edge24_Node000007_Node000019" class="edge">
<title>Node7&#45;&gt;Node19</title>
<g id="a_edge24_Node000007_Node000019"><a xlink:title=" ">
<path fill="none" stroke="#63b8ff" d="M539.84,-219.99C562.16,-210.31 591.6,-197.56 613.23,-188.18"/>
<polygon fill="#63b8ff" stroke="#63b8ff" points="614.78,-191.33 622.56,-184.14 612,-184.9 614.78,-191.33"/>
</a>
</g>
</g>
<!-- Node9 -->
<g id="Node000009" class="node">
<title>Node9</title>
<g id="a_Node000009"><a xlink:title=" ">
<polygon fill="#e0e0e0" stroke="#999999" points="402,-19 323,-19 323,0 402,0 402,-19"/>
<text text-anchor="middle" x="362.5" y="-7" font-family="Helvetica,sans-Serif" font-size="10.00">fmt/format.h</text>
</a>
</g>
</g>
<!-- Node8&#45;&gt;Node9 -->
<g id="edge8_Node000008_Node000009" class="edge">
<title>Node8&#45;&gt;Node9</title>
<g id="a_edge8_Node000008_Node000009"><a xlink:title=" ">
<path fill="none" stroke="#63b8ff" d="M455.67,-54.98C437.89,-46.5 410.35,-33.35 389.82,-23.54"/>
<polygon fill="#63b8ff" stroke="#63b8ff" points="391.19,-20.32 380.66,-19.17 388.17,-26.64 391.19,-20.32"/>
</a>
</g>
</g>
<!-- Node10 -->
<g id="Node000010" class="node">
<title>Node10</title>
<g id="a_Node000010"><a xlink:title=" ">
<polygon fill="#e0e0e0" stroke="#999999" points="607.5,-19 557.5,-19 557.5,0 607.5,0 607.5,-19"/>
<text text-anchor="middle" x="582.5" y="-7" font-family="Helvetica,sans-Serif" font-size="10.00">format</text>
</a>
</g>
</g>
<!-- Node8&#45;&gt;Node10 -->
<g id="edge9_Node000008_Node000010" class="edge">
<title>Node8&#45;&gt;Node10</title>
<g id="a_edge9_Node000008_Node000010"><a xlink:title=" ">
<path fill="none" stroke="#63b8ff" d="M491.01,-54.98C508.47,-46.5 535.51,-33.35 555.67,-23.54"/>
<polygon fill="#63b8ff" stroke="#63b8ff" points="557.21,-26.69 564.67,-19.17 554.14,-20.4 557.21,-26.69"/>
</a>
</g>
</g>
<!-- Node11 -->
<g id="Node000011" class="node">
<title>Node11</title>
<g id="a_Node000011"><a xlink:title=" ">
<polygon fill="#e0e0e0" stroke="#999999" points="539,-19 420,-19 420,0 539,0 539,-19"/>
<text text-anchor="middle" x="479.5" y="-7" font-family="Helvetica,sans-Serif" font-size="10.00">mdspan/mdspan.hpp</text>
</a>
</g>
</g>
<!-- Node8&#45;&gt;Node11 -->
<g id="edge10_Node000008_Node000011" class="edge">
<title>Node8&#45;&gt;Node11</title>
<g id="a_edge10_Node000008_Node000011"><a xlink:title=" ">
<path fill="none" stroke="#63b8ff" d="M474.49,-54.75C475.28,-47.8 476.4,-37.85 477.39,-29.13"/>
<polygon fill="#63b8ff" stroke="#63b8ff" points="480.88,-29.42 478.53,-19.09 473.92,-28.63 480.88,-29.42"/>
</a>
</g>
</g>
<!-- Node12&#45;&gt;Node5 -->
<g id="edge15_Node000012_Node000005" class="edge">
<title>Node12&#45;&gt;Node5</title>
<g id="a_edge15_Node000012_Node000005"><a xlink:title=" ">
<path fill="none" stroke="#63b8ff" d="M554.08,-114.36C498.66,-107.52 386.03,-92.88 280.84,-74.13"/>
<polygon fill="#63b8ff" stroke="#63b8ff" points="281.15,-70.63 270.69,-72.3 279.91,-77.52 281.15,-70.63"/>
</a>
</g>
</g>
<!-- Node12&#45;&gt;Node8 -->
<g id="edge13_Node000012_Node000008" class="edge">
<title>Node12&#45;&gt;Node8</title>
<g id="a_edge13_Node000012_Node000008"><a xlink:title=" ">
<path fill="none" stroke="#63b8ff" d="M570.02,-109.98C551.52,-101.46 522.82,-88.23 501.52,-78.41"/>
<polygon fill="#63b8ff" stroke="#63b8ff" points="502.86,-75.18 492.31,-74.17 499.93,-81.53 502.86,-75.18"/>
</a>
</g>
</g>
<!-- Node12&#45;&gt;Node13 -->
<g id="edge14_Node000012_Node000013" class="edge">
<title>Node12&#45;&gt;Node13</title>
<g id="a_edge14_Node000012_Node000013"><a xlink:title=" ">
<path fill="none" stroke="#63b8ff" d="M588.5,-109.75C588.5,-102.8 588.5,-92.85 588.5,-84.13"/>
<polygon fill="#63b8ff" stroke="#63b8ff" points="592,-84.09 588.5,-74.09 585,-84.09 592,-84.09"/>
</a>
</g>
</g>
<!-- Node14 -->
<g id="Node000014" class="node">
<title>Node14</title>
<g id="a_Node000014"><a xlink:title=" ">
<polygon fill="#e0e0e0" stroke="#999999" points="681,-74 628,-74 628,-55 681,-55 681,-74"/>
<text text-anchor="middle" x="654.5" y="-62" font-family="Helvetica,sans-Serif" font-size="10.00">cstddef</text>
</a>
</g>
</g>
<!-- Node12&#45;&gt;Node14 -->
<g id="edge16_Node000012_Node000014" class="edge">
<title>Node12&#45;&gt;Node14</title>
<g id="a_edge16_Node000012_Node000014"><a xlink:title=" ">
<path fill="none" stroke="#63b8ff" d="M599.1,-109.98C608.96,-102.07 623.85,-90.11 635.72,-80.58"/>
<polygon fill="#63b8ff" stroke="#63b8ff" points="638.1,-83.16 643.7,-74.17 633.71,-77.7 638.1,-83.16"/>
</a>
</g>
</g>
<!-- Node12&#45;&gt;Node15 -->
<g id="edge17_Node000012_Node000015" class="edge">
<title>Node12&#45;&gt;Node15</title>
<g id="a_edge17_Node000012_Node000015"><a xlink:title=" ">
<path fill="none" stroke="#63b8ff" d="M613.89,-109.98C640.3,-101.13 681.85,-87.19 711.39,-77.28"/>
<polygon fill="#63b8ff" stroke="#63b8ff" points="712.55,-80.58 720.92,-74.08 710.32,-73.94 712.55,-80.58"/>
</a>
</g>
</g>
<!-- Node12&#45;&gt;Node16 -->
<g id="edge18_Node000012_Node000016" class="edge">
<title>Node12&#45;&gt;Node16</title>
<g id="a_edge18_Node000012_Node000016"><a xlink:title=" ">
<path fill="none" stroke="#63b8ff" d="M622.74,-111.37C660.87,-103.34 724.55,-89.62 788.89,-74.06"/>
<polygon fill="#63b8ff" stroke="#63b8ff" points="789.91,-77.42 798.8,-71.65 788.26,-70.62 789.91,-77.42"/>
</a>
</g>
</g>
<!-- Node17&#45;&gt;Node5 -->
<g id="edge22_Node000017_Node000005" class="edge">
<title>Node17&#45;&gt;Node5</title>
<g id="a_edge22_Node000017_Node000005"><a xlink:title=" ">
<path fill="none" stroke="#63b8ff" d="M328.63,-109.98C311.89,-101.54 286,-88.47 266.61,-78.68"/>
<polygon fill="#63b8ff" stroke="#63b8ff" points="268.18,-75.55 257.68,-74.17 265.03,-81.8 268.18,-75.55"/>
</a>
</g>
</g>
<!-- Node17&#45;&gt;Node8 -->
<g id="edge20_Node000017_Node000008" class="edge">
<title>Node17&#45;&gt;Node8</title>
<g id="a_edge20_Node000017_Node000008"><a xlink:title=" ">
<path fill="none" stroke="#63b8ff" d="M366.07,-109.98C386.93,-101.34 419.47,-87.87 443.27,-78.02"/>
<polygon fill="#63b8ff" stroke="#63b8ff" points="444.66,-81.23 452.56,-74.17 441.98,-74.76 444.66,-81.23"/>
</a>
</g>
</g>
<!-- Node17&#45;&gt;Node9 -->
<g id="edge23_Node000017_Node000009" class="edge">
<title>Node17&#45;&gt;Node9</title>
<g id="a_edge23_Node000017_Node000009"><a xlink:title=" ">
<path fill="none" stroke="#63b8ff" d="M346.89,-109.66C349.64,-92.17 355.84,-52.8 359.54,-29.27"/>
<polygon fill="#63b8ff" stroke="#63b8ff" points="363.04,-29.58 361.14,-19.16 356.12,-28.49 363.04,-29.58"/>
</a>
</g>
</g>
<!-- Node18 -->
<g id="Node000018" class="node">
<title>Node18</title>
<g id="a_Node000018"><a xlink:title=" ">
<polygon fill="#e0e0e0" stroke="#999999" points="340.5,-74 288.5,-74 288.5,-55 340.5,-55 340.5,-74"/>
<text text-anchor="middle" x="314.5" y="-62" font-family="Helvetica,sans-Serif" font-size="10.00">cassert</text>
</a>
</g>
</g>
<!-- Node17&#45;&gt;Node18 -->
<g id="edge21_Node000017_Node000018" class="edge">
<title>Node17&#45;&gt;Node18</title>
<g id="a_edge21_Node000017_Node000018"><a xlink:title=" ">
<path fill="none" stroke="#63b8ff" d="M340.38,-109.75C336.14,-102.49 329.97,-91.95 324.72,-82.98"/>
<polygon fill="#63b8ff" stroke="#63b8ff" points="327.59,-80.95 319.52,-74.09 321.55,-84.49 327.59,-80.95"/>
</a>
</g>
</g>
<!-- Node19&#45;&gt;Node8 -->
<g id="edge25_Node000019_Node000008" class="edge">
<title>Node19&#45;&gt;Node8</title>
<g id="a_edge25_Node000019_Node000008"><a xlink:title=" ">
<path fill="none" stroke="#63b8ff" d="M618.77,-164.88C598.49,-156.99 568.96,-144.25 545.5,-129 524.24,-115.18 502.82,-95.36 488.94,-81.55"/>
<polygon fill="#63b8ff" stroke="#63b8ff" points="491.21,-78.87 481.7,-74.21 486.23,-83.78 491.21,-78.87"/>
</a>
</g>
</g>
<!-- Node19&#45;&gt;Node12 -->
<g id="edge28_Node000019_Node000012" class="edge">
<title>Node19&#45;&gt;Node12</title>
<g id="a_edge28_Node000019_Node000012"><a xlink:title=" ">
<path fill="none" stroke="#63b8ff" d="M633.58,-164.75C625.72,-157.03 614.07,-145.6 604.58,-136.28"/>
<polygon fill="#63b8ff" stroke="#63b8ff" points="606.84,-133.6 597.25,-129.09 601.94,-138.59 606.84,-133.6"/>
</a>
</g>
</g>
<!-- Node20 -->
<g id="Node000020" class="node">
<title>Node20</title>
<g id="a_Node000020"><a xlink:href="kernel_2cpu_2cpu_8hpp.html" target="_top" xlink:title=" ">
<polygon fill="white" stroke="#666666" points="1000.5,-129 862.5,-129 862.5,-110 1000.5,-110 1000.5,-129"/>
<text text-anchor="middle" x="931.5" y="-117" font-family="Helvetica,sans-Serif" font-size="10.00">uni20/kernel/cpu/cpu.hpp</text>
</a>
</g>
</g>
<!-- Node19&#45;&gt;Node20 -->
<g id="edge26_Node000019_Node000020" class="edge">
<title>Node19&#45;&gt;Node20</title>
<g id="a_edge26_Node000019_Node000020"><a xlink:title=" ">
<path fill="none" stroke="#63b8ff" d="M688.93,-164.98C739.45,-155.72 820.24,-140.9 874.55,-130.94"/>
<polygon fill="#63b8ff" stroke="#63b8ff" points="875.5,-134.33 884.7,-129.08 874.24,-127.44 875.5,-134.33"/>
</a>
</g>
</g>
<!-- Node21 -->
<g id="Node000021" class="node">
<title>Node21</title>
<g id="a_Node000021"><a xlink:title=" ">
<polygon fill="#e0e0e0" stroke="#999999" points="688,-129 641,-129 641,-110 688,-110 688,-129"/>
<text text-anchor="middle" x="664.5" y="-117" font-family="Helvetica,sans-Serif" font-size="10.00">vector</text>
</a>
</g>
</g>
<!-- Node19&#45;&gt;Node21 -->
<g id="edge29_Node000019_Node000021" class="edge">
<title>Node19&#45;&gt;Node21</title>
<g id="a_edge29_Node000019_Node000021"><a xlink:title=" ">
<path fill="none" stroke="#63b8ff" d="M646.13,-164.75C649.08,-157.65 653.33,-147.4 657.01,-138.56"/>
<polygon fill="#63b8ff" stroke="#63b8ff" points="660.33,-139.67 660.93,-129.09 653.87,-136.98 660.33,-139.67"/>
</a>
</g>
</g>
<!-- Node20&#45;&gt;Node6 -->
<g id="edge27_Node000020_Node000006" class="edge">
<title>Node20&#45;&gt;Node6</title>
<g id="a_edge27_Node000020_Node000006"><a xlink:title=" ">
<path fill="none" stroke="#63b8ff" d="M942.26,-109.98C952.27,-102.07 967.39,-90.11 979.43,-80.58"/>
<polygon fill="#63b8ff" stroke="#63b8ff" points="981.87,-83.12 987.54,-74.17 977.53,-77.63 981.87,-83.12"/>
</a>
</g>
</g>
</g>
</svg>

<g id="navigator" transform="translate(0 0)" fill="#404254">
  <rect fill="#f2f5e9" fill-opacity="0.5" stroke="#606060" stroke-width=".5" x="0" y="0" width="60" height="60"/>
  <use id="zoomplus" xlink:href="#zoomPlus" x="17" y="9" onmousedown="handleZoom(evt,'in')"/>
  <use id="zoomminus" xlink:href="#zoomMin" x="42" y="9" onmousedown="handleZoom(evt,'out')"/>
  <use id="reset" xlink:href="#resetDef" x="30" y="36" onmousedown="handleReset()"/>
   <use id="arrowup" xlink:href="#arrowUp" x="0" y="0" onmousedown="handlePan(0,-1)"/>
  <use id="arrowright" xlink:href="#arrowRight" x="0" y="0" onmousedown="handlePan(1,0)"/>
  <use id="arrowdown" xlink:href="#arrowDown" x="0" y="0" onmousedown="handlePan(0,1)"/>
  <use id="arrowleft" xlink:href="#arrowLeft" x="0" y="0" onmousedown="handlePan(-1,0)"/>
</g>
<svg viewBox="0 0 15 15" width="100%" height="30px" preserveAspectRatio="xMaxYMin meet">
 <g id="arrow_out" transform="scale(0.3 0.3)">
  <a xlink:href="matrix__ops__cpu_8hpp__incl_org.svg" target="_base">
   <rect id="button" ry="5" rx="5" y="6" x="6" height="38" width="38"
        fill="#f2f5e9" fill-opacity="0.5" stroke="#606060" stroke-width="1.0"/>
   <path id="arrow"
     d="M 11.500037,31.436501 C 11.940474,20.09759 22.043105,11.32322 32.158766,21.979434 L 37.068811,17.246167 C 37.068811,17.246167 37.088388,32 37.088388,32 L 22.160133,31.978069 C 22.160133,31.978069 26.997745,27.140456 26.997745,27.140456 C 18.528582,18.264221 13.291696,25.230495 11.500037,31.436501 z"
     style="fill:#404040;"/>
  </a>
 </g>
</svg>

<style type='text/css'>
<![CDATA[
[data-mouse-over-selected='false'] { opacity: 0.7; }
[data-mouse-over-selected='true']  { opacity: 1.0; }
]]>
</style>
<script type="application/ecmascript"><![CDATA[
document.addEventListener('DOMContentLoaded', (event) => {
  highlightEdges();
  highlightAdjacentNodes();
});
]]></script>
</svg>
