<?xml version="1.0" encoding="UTF-8" standalone="no"?>
<!DOCTYPE svg PUBLIC "-//W3C//DTD SVG 1.1//EN"
 "http://www.w3.org/Graphics/SVG/1.1/DTD/svg11.dtd">
<!-- Generated by graphviz version 2.43.0 (0)
 -->
<!-- Title: matrix_ops.hpp Pages: 1 -->
<svg width="1669pt" height="511pt"
 viewBox="0.00 0.00 1669.10 511.00" xmlns="http://www.w3.org/2000/svg" xmlns:xlink="http://www.w3.org/1999/xlink">
<g id="graph0" class="graph" transform="scale(1 1) rotate(0) translate(4 507)">
<title>matrix_ops.hpp</title>
<!-- Node1 -->
<g id="Node000001" class="node">
<title>Node1</title>
<g id="a_Node000001"><a xlink:title=" ">
<polygon fill="#999999" stroke="#666666" points="1007.1,-503 915.1,-503 915.1,-484 1007.1,-484 1007.1,-503"/>
<text text-anchor="middle" x="961.1" y="-491" font-family="Helvetica,sans-Serif" font-size="10.00">matrix_ops.hpp</text>
</a>
</g>
</g>
<!-- Node2 -->
<g id="Node000002" class="node">
<title>Node2</title>
<g id="a_Node000002"><a xlink:href="types_8hpp.html" target="_top" xlink:title=" ">
<polygon fill="white" stroke="#666666" points="582.6,-184 463.6,-184 463.6,-165 582.6,-165 582.6,-184"/>
<text text-anchor="middle" x="523.1" y="-172" font-family="Helvetica,sans-Serif" font-size="10.00">uni20/core/types.hpp</text>
</a>
</g>
</g>
<!-- Node1&#45;&gt;Node2 -->
<g id="edge1_Node000001_Node000002" class="edge">
<title>Node1&#45;&gt;Node2</title>
<g id="a_edge1_Node000001_Node000002"><a xlink:title=" ">
<path fill="none" stroke="#63b8ff" d="M953.49,-483.8C946.24,-475.17 935.37,-461.34 928.1,-448 875.95,-352.35 924.92,-285.81 838.1,-220 828.4,-212.65 682.81,-194.34 593,-183.63"/>
<polygon fill="#63b8ff" stroke="#63b8ff" points="593.22,-180.13 582.87,-182.43 592.39,-187.09 593.22,-180.13"/>
</a>
</g>
</g>
<!-- Node6 -->
<g id="Node000006" class="node">
<title>Node6</title>
<g id="a_Node000006"><a xlink:href="backend__manifest_8hpp.html" target="_top" xlink:title=" ">
<polygon fill="white" stroke="#666666" points="533.6,-448 416.6,-448 416.6,-418 533.6,-418 533.6,-448"/>
<text text-anchor="start" x="424.6" y="-436" font-family="Helvetica,sans-Serif" font-size="10.00">uni20/linalg/backend</text>
<text text-anchor="middle" x="475.1" y="-425" font-family="Helvetica,sans-Serif" font-size="10.00">_manifest.hpp</text>
</a>
</g>
</g>
<!-- Node1&#45;&gt;Node6 -->
<g id="edge5_Node000001_Node000006" class="edge">
<title>Node1&#45;&gt;Node6</title>
<g id="a_edge5_Node000001_Node000006"><a xlink:title=" ">
<path fill="none" stroke="#63b8ff" d="M914.94,-486.94C829.03,-476.6 644.25,-454.36 543.69,-442.26"/>
<polygon fill="#63b8ff" stroke="#63b8ff" points="543.98,-438.77 533.63,-441.05 543.14,-445.72 543.98,-438.77"/>
</a>
</g>
</g>
<!-- Node10 -->
<g id="Node000010" class="node">
<title>Node10</title>
<g id="a_Node000010"><a xlink:href="tensor__view_8hpp.html" target="_top" xlink:title="Tensor view abstractions and accessor factories built on std::mdspan.">
<polygon fill="white" stroke="#666666" points="1111.6,-250 1000.6,-250 1000.6,-220 1111.6,-220 1111.6,-250"/>
<text text-anchor="start" x="1008.6" y="-238" font-family="Helvetica,sans-Serif" font-size="10.00">uni20/tensor/tensor</text>
<text text-anchor="middle" x="1056.1" y="-227" font-family="Helvetica,sans-Serif" font-size="10.00">_view.hpp</text>
</a>
</g>
</g>
<!-- Node1&#45;&gt;Node10 -->
<g id="edge65_Node000001_Node000010" class="edge">
<title>Node1&#45;&gt;Node10</title>
<g id="a_edge65_Node000001_Node000010"><a xlink:title=" ">
<path fill="none" stroke="#63b8ff" d="M964.26,-483.97C977.26,-448.85 1026.92,-314.79 1047.29,-259.77"/>
<polygon fill="#63b8ff" stroke="#63b8ff" points="1050.66,-260.76 1050.85,-250.17 1044.09,-258.33 1050.66,-260.76"/>
</a>
</g>
</g>
<!-- Node18 -->
<g id="Node000018" class="node">
<title>Node18</title>
<g id="a_Node000018"><a xlink:title=" ">
<polygon fill="#e0e0e0" stroke="#999999" points="683.6,-74 614.6,-74 614.6,-55 683.6,-55 683.6,-74"/>
<text text-anchor="middle" x="649.1" y="-62" font-family="Helvetica,sans-Serif" font-size="10.00">type_traits</text>
</a>
</g>
</g>
<!-- Node1&#45;&gt;Node18 -->
<g id="edge67_Node000001_Node000018" class="edge">
<title>Node1&#45;&gt;Node18</title>
<g id="a_edge67_Node000001_Node000018"><a xlink:title=" ">
<path fill="none" stroke="#63b8ff" d="M959.69,-483.97C954.77,-455.22 936.94,-359.56 906.1,-286 892.92,-254.58 894.24,-240.59 867.1,-220 817.62,-182.48 787.55,-211.94 732.1,-184 697.08,-166.35 683.84,-162.28 663.1,-129 654.78,-115.66 651.37,-98.05 649.99,-84.76"/>
<polygon fill="#63b8ff" stroke="#63b8ff" points="653.45,-84.12 649.22,-74.41 646.47,-84.64 653.45,-84.12"/>
</a>
</g>
</g>
<!-- Node19 -->
<g id="Node000019" class="node">
<title>Node19</title>
<g id="a_Node000019"><a xlink:title=" ">
<polygon fill="#e0e0e0" stroke="#999999" points="1540.6,-74 1495.6,-74 1495.6,-55 1540.6,-55 1540.6,-74"/>
<text text-anchor="middle" x="1518.1" y="-62" font-family="Helvetica,sans-Serif" font-size="10.00">utility</text>
</a>
</g>
</g>
<!-- Node1&#45;&gt;Node19 -->
<g id="edge68_Node000001_Node000019" class="edge">
<title>Node1&#45;&gt;Node19</title>
<g id="a_edge68_Node000001_Node000019"><a xlink:title=" ">
<path fill="none" stroke="#63b8ff" d="M1007.3,-489.19C1163.33,-477.41 1661.1,-434.62 1661.1,-368 1661.1,-368 1661.1,-368 1661.1,-173.5 1661.1,-118.34 1592.51,-87.79 1550.34,-74.21"/>
<polygon fill="#63b8ff" stroke="#63b8ff" points="1551.34,-70.86 1540.76,-71.27 1549.29,-77.55 1551.34,-70.86"/>
</a>
</g>
</g>
<!-- Node22 -->
<g id="Node000022" class="node">
<title>Node22</title>
<g id="a_Node000022"><a xlink:href="vectorstorage_8hpp.html" target="_top" xlink:title=" ">
<polygon fill="white" stroke="#666666" points="1290.6,-184 1115.6,-184 1115.6,-165 1290.6,-165 1290.6,-184"/>
<text text-anchor="middle" x="1203.1" y="-172" font-family="Helvetica,sans-Serif" font-size="10.00">uni20/storage/vectorstorage.hpp</text>
</a>
</g>
</g>
<!-- Node1&#45;&gt;Node22 -->
<g id="edge56_Node000001_Node000022" class="edge">
<title>Node1&#45;&gt;Node22</title>
<g id="a_edge56_Node000001_Node000022"><a xlink:title=" ">
<path fill="none" stroke="#63b8ff" d="M1007.55,-484.18C1065.51,-470.82 1157.1,-438.55 1157.1,-368 1157.1,-368 1157.1,-368 1157.1,-300 1157.1,-259.68 1178.59,-216.3 1192.2,-192.89"/>
<polygon fill="#63b8ff" stroke="#63b8ff" points="1195.3,-194.52 1197.46,-184.15 1189.3,-190.91 1195.3,-194.52"/>
</a>
</g>
</g>
<!-- Node27 -->
<g id="Node000027" class="node">
<title>Node27</title>
<g id="a_Node000027"><a xlink:title=" ">
<polygon fill="#e0e0e0" stroke="#999999" points="647.6,-244.5 582.6,-244.5 582.6,-225.5 647.6,-225.5 647.6,-244.5"/>
<text text-anchor="middle" x="615.1" y="-232.5" font-family="Helvetica,sans-Serif" font-size="10.00">stdexcept</text>
</a>
</g>
</g>
<!-- Node1&#45;&gt;Node27 -->
<g id="edge66_Node000001_Node000027" class="edge">
<title>Node1&#45;&gt;Node27</title>
<g id="a_edge66_Node000001_Node000027"><a xlink:title=" ">
<path fill="none" stroke="#63b8ff" d="M939.49,-483.98C923.65,-476.68 902.77,-464.68 890.1,-448 844.68,-388.2 897.05,-337.17 842.1,-286 828.67,-273.5 719.74,-253.52 657.79,-243"/>
<polygon fill="#63b8ff" stroke="#63b8ff" points="658.35,-239.55 647.91,-241.34 657.19,-246.45 658.35,-239.55"/>
</a>
</g>
</g>
<!-- Node38 -->
<g id="Node000038" class="node">
<title>Node38</title>
<g id="a_Node000038"><a xlink:href="basic__tensor_8hpp.html" target="_top" xlink:title=" ">
<polygon fill="white" stroke="#666666" points="1486.1,-316 1380.1,-316 1380.1,-286 1486.1,-286 1486.1,-316"/>
<text text-anchor="start" x="1388.1" y="-304" font-family="Helvetica,sans-Serif" font-size="10.00">uni20/tensor/basic</text>
<text text-anchor="middle" x="1433.1" y="-293" font-family="Helvetica,sans-Serif" font-size="10.00">_tensor.hpp</text>
</a>
</g>
</g>
<!-- Node1&#45;&gt;Node38 -->
<g id="edge57_Node000001_Node000038" class="edge">
<title>Node1&#45;&gt;Node38</title>
<g id="a_edge57_Node000001_Node000038"><a xlink:title=" ">
<path fill="none" stroke="#63b8ff" d="M1007.27,-486.77C1050.58,-480.47 1116.66,-468.4 1171.1,-448 1261.11,-414.26 1357.54,-353.26 1404.33,-321.86"/>
<polygon fill="#63b8ff" stroke="#63b8ff" points="1406.42,-324.67 1412.74,-316.17 1402.5,-318.88 1406.42,-324.67"/>
</a>
</g>
</g>
<!-- Node3 -->
<g id="Node000003" class="node">
<title>Node3</title>
<g id="a_Node000003"><a xlink:title=" ">
<polygon fill="#e0e0e0" stroke="#999999" points="582.6,-129 485.6,-129 485.6,-110 582.6,-110 582.6,-129"/>
<text text-anchor="middle" x="534.1" y="-117" font-family="Helvetica,sans-Serif" font-size="10.00">uni20/config.hpp</text>
</a>
</g>
</g>
<!-- Node2&#45;&gt;Node3 -->
<g id="edge2_Node000002_Node000003" class="edge">
<title>Node2&#45;&gt;Node3</title>
<g id="a_edge2_Node000002_Node000003"><a xlink:title=" ">
<path fill="none" stroke="#63b8ff" d="M524.91,-164.75C526.35,-157.8 528.42,-147.85 530.23,-139.13"/>
<polygon fill="#63b8ff" stroke="#63b8ff" points="533.71,-139.59 532.31,-129.09 526.85,-138.17 533.71,-139.59"/>
</a>
</g>
</g>
<!-- Node4 -->
<g id="Node000004" class="node">
<title>Node4</title>
<g id="a_Node000004"><a xlink:title=" ">
<polygon fill="#e0e0e0" stroke="#999999" points="467.6,-129 408.6,-129 408.6,-110 467.6,-110 467.6,-129"/>
<text text-anchor="middle" x="438.1" y="-117" font-family="Helvetica,sans-Serif" font-size="10.00">complex</text>
</a>
</g>
</g>
<!-- Node2&#45;&gt;Node4 -->
<g id="edge3_Node000002_Node000004" class="edge">
<title>Node2&#45;&gt;Node4</title>
<g id="a_edge3_Node000002_Node000004"><a xlink:title=" ">
<path fill="none" stroke="#63b8ff" d="M509.44,-164.98C496.26,-156.77 476.07,-144.18 460.53,-134.49"/>
<polygon fill="#63b8ff" stroke="#63b8ff" points="462.34,-131.49 452,-129.17 458.64,-137.43 462.34,-131.49"/>
</a>
</g>
</g>
<!-- Node5 -->
<g id="Node000005" class="node">
<title>Node5</title>
<g id="a_Node000005"><a xlink:title=" ">
<polygon fill="#e0e0e0" stroke="#999999" points="1106.1,-74 1046.1,-74 1046.1,-55 1106.1,-55 1106.1,-74"/>
<text text-anchor="middle" x="1076.1" y="-62" font-family="Helvetica,sans-Serif" font-size="10.00">concepts</text>
</a>
</g>
</g>
<!-- Node2&#45;&gt;Node5 -->
<g id="edge4_Node000002_Node000005" class="edge">
<title>Node2&#45;&gt;Node5</title>
<g id="a_edge4_Node000002_Node000005"><a xlink:title=" ">
<path fill="none" stroke="#63b8ff" d="M582.97,-171.16C709.39,-165.79 995.07,-151.35 1033.1,-129 1050.44,-118.81 1062.29,-98.52 1069.09,-83.61"/>
<polygon fill="#63b8ff" stroke="#63b8ff" points="1072.34,-84.91 1073,-74.33 1065.89,-82.19 1072.34,-84.91"/>
</a>
</g>
</g>
<!-- Node7 -->
<g id="Node000007" class="node">
<title>Node7</title>
<g id="a_Node000007"><a xlink:href="linalg__cpu_8hpp.html" target="_top" xlink:title=" ">
<polygon fill="white" stroke="#666666" points="294.1,-382 172.1,-382 172.1,-352 294.1,-352 294.1,-382"/>
<text text-anchor="start" x="180.1" y="-370" font-family="Helvetica,sans-Serif" font-size="10.00">uni20/linalg/backends</text>
<text text-anchor="middle" x="233.1" y="-359" font-family="Helvetica,sans-Serif" font-size="10.00">/cpu/linalg_cpu.hpp</text>
</a>
</g>
</g>
<!-- Node6&#45;&gt;Node7 -->
<g id="edge6_Node000006_Node000007" class="edge">
<title>Node6&#45;&gt;Node7</title>
<g id="a_edge6_Node000006_Node000007"><a xlink:title=" ">
<path fill="none" stroke="#63b8ff" d="M421.99,-417.95C384.79,-408.12 334.94,-394.93 295.79,-384.58"/>
<polygon fill="#63b8ff" stroke="#63b8ff" points="296.64,-381.19 286.08,-382.01 294.85,-387.95 296.64,-381.19"/>
</a>
</g>
</g>
<!-- Node9 -->
<g id="Node000009" class="node">
<title>Node9</title>
<g id="a_Node000009"><a xlink:href="tags_2cpu_8hpp.html" target="_top" xlink:title="Tag for selecting CPU&#45;based Uni20 kernels.">
<polygon fill="white" stroke="#666666" points="222.6,-74 113.6,-74 113.6,-55 222.6,-55 222.6,-74"/>
<text text-anchor="middle" x="168.1" y="-62" font-family="Helvetica,sans-Serif" font-size="10.00">uni20/tags/cpu.hpp</text>
</a>
</g>
</g>
<!-- Node6&#45;&gt;Node9 -->
<g id="edge48_Node000006_Node000009" class="edge">
<title>Node6&#45;&gt;Node9</title>
<g id="a_edge48_Node000006_Node000009"><a xlink:title=" ">
<path fill="none" stroke="#63b8ff" d="M416.32,-429.26C300.23,-423.33 50.18,-407.69 21.1,-382 -6.29,-357.8 2.1,-338.54 2.1,-302 2.1,-302 2.1,-302 2.1,-173.5 2.1,-118.82 66.17,-90.4 114.7,-76.71"/>
<polygon fill="#63b8ff" stroke="#63b8ff" points="115.73,-80.06 124.48,-74.09 113.92,-73.3 115.73,-80.06"/>
</a>
</g>
</g>
<!-- Node28 -->
<g id="Node000028" class="node">
<title>Node28</title>
<g id="a_Node000028"><a xlink:href="linalg__cusolver_8hpp.html" target="_top" xlink:title=" ">
<polygon fill="white" stroke="#666666" points="470.1,-382 312.1,-382 312.1,-352 470.1,-352 470.1,-382"/>
<text text-anchor="start" x="320.1" y="-370" font-family="Helvetica,sans-Serif" font-size="10.00">uni20/linalg/backends</text>
<text text-anchor="middle" x="391.1" y="-359" font-family="Helvetica,sans-Serif" font-size="10.00">/cusolver/linalg_cusolver.hpp</text>
</a>
</g>
</g>
<!-- Node6&#45;&gt;Node28 -->
<g id="edge44_Node000006_Node000028" class="edge">
<title>Node6&#45;&gt;Node28</title>
<g id="a_edge44_Node000006_Node000028"><a xlink:title=" ">
<path fill="none" stroke="#63b8ff" d="M456.45,-417.8C445.14,-409.18 430.52,-398.04 417.97,-388.48"/>
<polygon fill="#63b8ff" stroke="#63b8ff" points="419.76,-385.44 409.69,-382.16 415.52,-391.01 419.76,-385.44"/>
</a>
</g>
</g>
<!-- Node30 -->
<g id="Node000030" class="node">
<title>Node30</title>
<g id="a_Node000030"><a xlink:href="linalg__lapack_8hpp.html" target="_top" xlink:title=" ">
<polygon fill="white" stroke="#666666" points="628.1,-382 488.1,-382 488.1,-352 628.1,-352 628.1,-382"/>
<text text-anchor="start" x="496.1" y="-370" font-family="Helvetica,sans-Serif" font-size="10.00">uni20/linalg/backends</text>
<text text-anchor="middle" x="558.1" y="-359" font-family="Helvetica,sans-Serif" font-size="10.00">/lapack/linalg_lapack.hpp</text>
</a>
</g>
</g>
<!-- Node6&#45;&gt;Node30 -->
<g id="edge46_Node000006_Node000030" class="edge">
<title>Node6&#45;&gt;Node30</title>
<g id="a_edge46_Node000006_Node000030"><a xlink:title=" ">
<path fill="none" stroke="#63b8ff" d="M493.52,-417.8C504.69,-409.18 519.14,-398.04 531.54,-388.48"/>
<polygon fill="#63b8ff" stroke="#63b8ff" points="533.95,-391.04 539.73,-382.16 529.67,-385.5 533.95,-391.04"/>
</a>
</g>
</g>
<!-- Node32 -->
<g id="Node000032" class="node">
<title>Node32</title>
<g id="a_Node000032"><a xlink:href="cusolver_8hpp.html" target="_top" xlink:title="Tag for selecting cuSOLVER&#45;backed kernels.">
<polygon fill="white" stroke="#666666" points="838.1,-376.5 706.1,-376.5 706.1,-357.5 838.1,-357.5 838.1,-376.5"/>
<text text-anchor="middle" x="772.1" y="-364.5" font-family="Helvetica,sans-Serif" font-size="10.00">uni20/tags/cusolver.hpp</text>
</a>
</g>
</g>
<!-- Node6&#45;&gt;Node32 -->
<g id="edge49_Node000006_Node000032" class="edge">
<title>Node6&#45;&gt;Node32</title>
<g id="a_edge49_Node000006_Node000032"><a xlink:title=" ">
<path fill="none" stroke="#63b8ff" d="M533.77,-419.36C588.93,-407.47 670.56,-389.88 722.53,-378.68"/>
<polygon fill="#63b8ff" stroke="#63b8ff" points="723.48,-382.06 732.51,-376.53 722,-375.21 723.48,-382.06"/>
</a>
</g>
</g>
<!-- Node35 -->
<g id="Node000035" class="node">
<title>Node35</title>
<g id="a_Node000035"><a xlink:href="lapack_8hpp.html" target="_top" xlink:title="Tag for selecting LAPACK&#45;backed kernels.">
<polygon fill="white" stroke="#666666" points="154.1,-376.5 30.1,-376.5 30.1,-357.5 154.1,-357.5 154.1,-376.5"/>
<text text-anchor="middle" x="92.1" y="-364.5" font-family="Helvetica,sans-Serif" font-size="10.00">uni20/tags/lapack.hpp</text>
</a>
</g>
</g>
<!-- Node6&#45;&gt;Node35 -->
<g id="edge52_Node000006_Node000035" class="edge">
<title>Node6&#45;&gt;Node35</title>
<g id="a_edge52_Node000006_Node000035"><a xlink:title=" ">
<path fill="none" stroke="#63b8ff" d="M416.34,-423.22C353.54,-413.7 251.12,-397.73 163.1,-382 156.93,-380.9 150.47,-379.69 144.06,-378.47"/>
<polygon fill="#63b8ff" stroke="#63b8ff" points="144.58,-375 134.1,-376.54 143.25,-381.88 144.58,-375"/>
</a>
</g>
</g>
<!-- Node37 -->
<g id="Node000037" class="node">
<title>Node37</title>
<g id="a_Node000037"><a xlink:title=" ">
<polygon fill="#e0e0e0" stroke="#999999" points="687.6,-376.5 646.6,-376.5 646.6,-357.5 687.6,-357.5 687.6,-376.5"/>
<text text-anchor="middle" x="667.1" y="-364.5" font-family="Helvetica,sans-Serif" font-size="10.00">tuple</text>
</a>
</g>
</g>
<!-- Node6&#45;&gt;Node37 -->
<g id="edge55_Node000006_Node000037" class="edge">
<title>Node6&#45;&gt;Node37</title>
<g id="a_edge55_Node000006_Node000037"><a xlink:title=" ">
<path fill="none" stroke="#63b8ff" d="M527.15,-417.91C559.22,-408.74 600.98,-395.92 637.1,-382 638.14,-381.6 639.2,-381.17 640.27,-380.74"/>
<polygon fill="#63b8ff" stroke="#63b8ff" points="642.07,-383.77 649.82,-376.55 639.26,-377.36 642.07,-383.77"/>
</a>
</g>
</g>
<!-- Node8 -->
<g id="Node000008" class="node">
<title>Node8</title>
<g id="a_Node000008"><a xlink:href="matrix__ops__cpu_8hpp.html" target="_top" xlink:title=" ">
<polygon fill="white" stroke="#666666" points="386.6,-310.5 271.6,-310.5 271.6,-291.5 386.6,-291.5 386.6,-310.5"/>
<text text-anchor="middle" x="329.1" y="-298.5" font-family="Helvetica,sans-Serif" font-size="10.00">matrix_ops_cpu.hpp</text>
</a>
</g>
</g>
<!-- Node7&#45;&gt;Node8 -->
<g id="edge7_Node000007_Node000008" class="edge">
<title>Node7&#45;&gt;Node8</title>
<g id="a_edge7_Node000007_Node000008"><a xlink:title=" ">
<path fill="none" stroke="#63b8ff" d="M254.4,-351.8C270.19,-341.27 291.64,-326.97 307.5,-316.4"/>
<polygon fill="#63b8ff" stroke="#63b8ff" points="309.73,-319.12 316.11,-310.66 305.85,-313.29 309.73,-319.12"/>
</a>
</g>
</g>
<!-- Node8&#45;&gt;Node2 -->
<g id="edge8_Node000008_Node000002" class="edge">
<title>Node8&#45;&gt;Node2</title>
<g id="a_edge8_Node000008_Node000002"><a xlink:title=" ">
<path fill="none" stroke="#63b8ff" d="M353.58,-291.48C376.84,-282.81 412.29,-268.11 440.1,-250 466.07,-233.08 492.02,-208.19 507.81,-191.91"/>
<polygon fill="#63b8ff" stroke="#63b8ff" points="510.73,-193.92 515.1,-184.27 505.66,-189.09 510.73,-193.92"/>
</a>
</g>
</g>
<!-- Node8&#45;&gt;Node4 -->
<g id="edge40_Node000008_Node000004" class="edge">
<title>Node8&#45;&gt;Node4</title>
<g id="a_edge40_Node000008_Node000004"><a xlink:title=" ">
<path fill="none" stroke="#63b8ff" d="M345.18,-291.34C359.86,-282.68 381.17,-268.06 394.1,-250 418.89,-215.37 430.54,-165.69 435.29,-139.05"/>
<polygon fill="#63b8ff" stroke="#63b8ff" points="438.75,-139.59 436.93,-129.16 431.85,-138.45 438.75,-139.59"/>
</a>
</g>
</g>
<!-- Node8&#45;&gt;Node9 -->
<g id="edge9_Node000008_Node000009" class="edge">
<title>Node8&#45;&gt;Node9</title>
<g id="a_edge9_Node000008_Node000009"><a xlink:title=" ">
<path fill="none" stroke="#63b8ff" d="M286.11,-291.49C261.35,-284.43 231.57,-271.86 213.1,-250 171.82,-201.14 167.26,-120.38 167.47,-84.12"/>
<polygon fill="#63b8ff" stroke="#63b8ff" points="170.97,-84.08 167.67,-74.01 163.98,-83.94 170.97,-84.08"/>
</a>
</g>
</g>
<!-- Node8&#45;&gt;Node10 -->
<g id="edge10_Node000008_Node000010" class="edge">
<title>Node8&#45;&gt;Node10</title>
<g id="a_edge10_Node000008_Node000010"><a xlink:title=" ">
<path fill="none" stroke="#63b8ff" d="M365.81,-291.43C375.6,-289.39 386.21,-287.4 396.1,-286 453.79,-277.82 834.41,-251.21 990,-240.51"/>
<polygon fill="#63b8ff" stroke="#63b8ff" points="990.62,-243.98 1000.36,-239.8 990.14,-237 990.62,-243.98"/>
</a>
</g>
</g>
<!-- Node8&#45;&gt;Node18 -->
<g id="edge42_Node000008_Node000018" class="edge">
<title>Node8&#45;&gt;Node18</title>
<g id="a_edge42_Node000008_Node000018"><a xlink:title=" ">
<path fill="none" stroke="#63b8ff" d="M335.62,-291.21C342.54,-281.55 353.37,-265.34 360.1,-250 386.04,-190.85 351.29,-153.44 399.1,-110 428.53,-83.25 540.69,-72.1 604.32,-67.85"/>
<polygon fill="#63b8ff" stroke="#63b8ff" points="604.72,-71.33 614.48,-67.2 604.27,-64.35 604.72,-71.33"/>
</a>
</g>
</g>
<!-- Node8&#45;&gt;Node19 -->
<g id="edge43_Node000008_Node000019" class="edge">
<title>Node8&#45;&gt;Node19</title>
<g id="a_edge43_Node000008_Node000019"><a xlink:title=" ">
<path fill="none" stroke="#63b8ff" d="M364.74,-291.47C374.82,-289.36 385.84,-287.32 396.1,-286 833.5,-229.78 977.74,-357.69 1383.1,-184 1425.14,-165.98 1436.43,-159.97 1470.1,-129 1484.99,-115.3 1498.55,-96.49 1507.43,-82.91"/>
<polygon fill="#63b8ff" stroke="#63b8ff" points="1510.63,-84.4 1513.02,-74.08 1504.71,-80.66 1510.63,-84.4"/>
</a>
</g>
</g>
<!-- Node25 -->
<g id="Node000025" class="node">
<title>Node25</title>
<g id="a_Node000025"><a xlink:title=" ">
<polygon fill="#e0e0e0" stroke="#999999" points="286.1,-244.5 222.1,-244.5 222.1,-225.5 286.1,-225.5 286.1,-244.5"/>
<text text-anchor="middle" x="254.1" y="-232.5" font-family="Helvetica,sans-Serif" font-size="10.00">algorithm</text>
</a>
</g>
</g>
<!-- Node8&#45;&gt;Node25 -->
<g id="edge38_Node000008_Node000025" class="edge">
<title>Node8&#45;&gt;Node25</title>
<g id="a_edge38_Node000008_Node000025"><a xlink:title=" ">
<path fill="none" stroke="#63b8ff" d="M318.98,-291.37C307.08,-281.21 287.1,-264.16 272.44,-251.65"/>
<polygon fill="#63b8ff" stroke="#63b8ff" points="274.41,-248.73 264.53,-244.91 269.87,-254.06 274.41,-248.73"/>
</a>
</g>
</g>
<!-- Node26 -->
<g id="Node000026" class="node">
<title>Node26</title>
<g id="a_Node000026"><a xlink:title=" ">
<polygon fill="#e0e0e0" stroke="#999999" points="351.6,-244.5 304.6,-244.5 304.6,-225.5 351.6,-225.5 351.6,-244.5"/>
<text text-anchor="middle" x="328.1" y="-232.5" font-family="Helvetica,sans-Serif" font-size="10.00">cmath</text>
</a>
</g>
</g>
<!-- Node8&#45;&gt;Node26 -->
<g id="edge39_Node000008_Node000026" class="edge">
<title>Node8&#45;&gt;Node26</title>
<g id="a_edge39_Node000008_Node000026"><a xlink:title=" ">
<path fill="none" stroke="#63b8ff" d="M328.96,-291.37C328.82,-282.16 328.59,-267.29 328.4,-255.27"/>
<polygon fill="#63b8ff" stroke="#63b8ff" points="331.89,-254.85 328.24,-244.91 324.89,-254.96 331.89,-254.85"/>
</a>
</g>
</g>
<!-- Node8&#45;&gt;Node27 -->
<g id="edge41_Node000008_Node000027" class="edge">
<title>Node8&#45;&gt;Node27</title>
<g id="a_edge41_Node000008_Node000027"><a xlink:title=" ">
<path fill="none" stroke="#63b8ff" d="M367.37,-291.44C420.68,-279.51 516.96,-257.96 572.49,-245.54"/>
<polygon fill="#63b8ff" stroke="#63b8ff" points="573.37,-248.92 582.36,-243.33 571.84,-242.09 573.37,-248.92"/>
</a>
</g>
</g>
<!-- Node10&#45;&gt;Node2 -->
<g id="edge15_Node000010_Node000002" class="edge">
<title>Node10&#45;&gt;Node2</title>
<g id="a_edge15_Node000010_Node000002"><a xlink:title=" ">
<path fill="none" stroke="#63b8ff" d="M1000.56,-227.91C902.8,-217.17 700.18,-194.94 593.03,-183.18"/>
<polygon fill="#63b8ff" stroke="#63b8ff" points="593.29,-179.68 582.97,-182.07 592.53,-186.64 593.29,-179.68"/>
</a>
</g>
</g>
<!-- Node10&#45;&gt;Node5 -->
<g id="edge35_Node000010_Node000005" class="edge">
<title>Node10&#45;&gt;Node5</title>
<g id="a_edge35_Node000010_Node000005"><a xlink:title=" ">
<path fill="none" stroke="#63b8ff" d="M1057.77,-219.92C1061.36,-189.65 1069.82,-118.35 1073.87,-84.27"/>
<polygon fill="#63b8ff" stroke="#63b8ff" points="1077.35,-84.6 1075.06,-74.25 1070.4,-83.77 1077.35,-84.6"/>
</a>
</g>
</g>
<!-- Node11 -->
<g id="Node000011" class="node">
<title>Node11</title>
<g id="a_Node000011"><a xlink:href="mdspan_8hpp.html" target="_top" xlink:title="Wrapper that exposes the mdspan reference implementation and a formatter bridge.">
<polygon fill="white" stroke="#666666" points="1276.1,-74 1124.1,-74 1124.1,-55 1276.1,-55 1276.1,-74"/>
<text text-anchor="middle" x="1200.1" y="-62" font-family="Helvetica,sans-Serif" font-size="10.00">uni20/common/mdspan.hpp</text>
</a>
</g>
</g>
<!-- Node10&#45;&gt;Node11 -->
<g id="edge11_Node000010_Node000011" class="edge">
<title>Node10&#45;&gt;Node11</title>
<g id="a_edge11_Node000010_Node000011"><a xlink:title=" ">
<path fill="none" stroke="#63b8ff" d="M1065.54,-219.86C1075.24,-205.62 1090.99,-183.22 1106.1,-165 1131.82,-133.96 1164.72,-100.37 1184,-81.24"/>
<polygon fill="#63b8ff" stroke="#63b8ff" points="1186.48,-83.71 1191.14,-74.2 1181.56,-78.73 1186.48,-83.71"/>
</a>
</g>
</g>
<!-- Node15 -->
<g id="Node000015" class="node">
<title>Node15</title>
<g id="a_Node000015"><a xlink:href="layout_8hpp.html" target="_top" xlink:title=" ">
<polygon fill="white" stroke="#666666" points="1367.1,-129 1299.1,-129 1299.1,-110 1367.1,-110 1367.1,-129"/>
<text text-anchor="middle" x="1333.1" y="-117" font-family="Helvetica,sans-Serif" font-size="10.00">layout.hpp</text>
</a>
</g>
</g>
<!-- Node10&#45;&gt;Node15 -->
<g id="edge16_Node000010_Node000015" class="edge">
<title>Node10&#45;&gt;Node15</title>
<g id="a_edge16_Node000010_Node000015"><a xlink:title=" ">
<path fill="none" stroke="#63b8ff" d="M1111.66,-228.08C1173.94,-220.5 1270.01,-205.7 1299.1,-184 1313.95,-172.92 1323,-153.38 1327.99,-138.9"/>
<polygon fill="#63b8ff" stroke="#63b8ff" points="1331.43,-139.61 1331.04,-129.03 1324.74,-137.55 1331.43,-139.61"/>
</a>
</g>
</g>
<!-- Node16 -->
<g id="Node000016" class="node">
<title>Node16</title>
<g id="a_Node000016"><a xlink:title=" ">
<polygon fill="#e0e0e0" stroke="#999999" points="1406.1,-74 1364.1,-74 1364.1,-55 1406.1,-55 1406.1,-74"/>
<text text-anchor="middle" x="1385.1" y="-62" font-family="Helvetica,sans-Serif" font-size="10.00">array</text>
</a>
</g>
</g>
<!-- Node10&#45;&gt;Node16 -->
<g id="edge34_Node000010_Node000016" class="edge">
<title>Node10&#45;&gt;Node16</title>
<g id="a_edge34_Node000010_Node000016"><a xlink:title=" ">
<path fill="none" stroke="#63b8ff" d="M1111.75,-233.14C1167.9,-230.14 1255.56,-219.51 1322.1,-184 1352.32,-167.87 1360.93,-159.72 1376.1,-129 1382.96,-115.1 1385.02,-97.54 1385.47,-84.41"/>
<polygon fill="#63b8ff" stroke="#63b8ff" points="1388.97,-84.24 1385.53,-74.21 1381.97,-84.19 1388.97,-84.24"/>
</a>
</g>
</g>
<!-- Node10&#45;&gt;Node18 -->
<g id="edge36_Node000010_Node000018" class="edge">
<title>Node10&#45;&gt;Node18</title>
<g id="a_edge36_Node000010_Node000018"><a xlink:title=" ">
<path fill="none" stroke="#63b8ff" d="M1000.31,-221.17C914.63,-200.83 755.38,-160.27 706.1,-129 687.22,-117.02 670.78,-97.09 660.48,-82.75"/>
<polygon fill="#63b8ff" stroke="#63b8ff" points="663.19,-80.52 654.62,-74.28 657.43,-84.5 663.19,-80.52"/>
</a>
</g>
</g>
<!-- Node10&#45;&gt;Node19 -->
<g id="edge37_Node000010_Node000019" class="edge">
<title>Node10&#45;&gt;Node19</title>
<g id="a_edge37_Node000010_Node000019"><a xlink:title=" ">
<path fill="none" stroke="#63b8ff" d="M1111.68,-231.95C1172.55,-228.04 1272.02,-216.74 1351.1,-184 1412.68,-158.5 1473.64,-106.79 1501.85,-80.94"/>
<polygon fill="#63b8ff" stroke="#63b8ff" points="1504.28,-83.46 1509.22,-74.09 1499.51,-78.34 1504.28,-83.46"/>
</a>
</g>
</g>
<!-- Node20 -->
<g id="Node000020" class="node">
<title>Node20</title>
<g id="a_Node000020"><a xlink:href="concepts_8hpp.html" target="_top" xlink:title="Mdspan concept and accessor extensions for Uni20.">
<polygon fill="white" stroke="#666666" points="1024.6,-129 871.6,-129 871.6,-110 1024.6,-110 1024.6,-129"/>
<text text-anchor="middle" x="948.1" y="-117" font-family="Helvetica,sans-Serif" font-size="10.00">uni20/mdspan/concepts.hpp</text>
</a>
</g>
</g>
<!-- Node10&#45;&gt;Node20 -->
<g id="edge23_Node000010_Node000020" class="edge">
<title>Node10&#45;&gt;Node20</title>
<g id="a_edge23_Node000010_Node000020"><a xlink:title=" ">
<path fill="none" stroke="#63b8ff" d="M1042.42,-219.63C1022.2,-198.37 984.45,-158.71 963.36,-136.54"/>
<polygon fill="#63b8ff" stroke="#63b8ff" points="965.83,-134.06 956.4,-129.23 960.76,-138.89 965.83,-134.06"/>
</a>
</g>
</g>
<!-- Node10&#45;&gt;Node22 -->
<g id="edge28_Node000010_Node000022" class="edge">
<title>Node10&#45;&gt;Node22</title>
<g id="a_edge28_Node000010_Node000022"><a xlink:title=" ">
<path fill="none" stroke="#63b8ff" d="M1091.31,-219.99C1115.83,-210.23 1148.25,-197.33 1171.86,-187.93"/>
<polygon fill="#63b8ff" stroke="#63b8ff" points="1173.39,-191.09 1181.39,-184.14 1170.8,-184.58 1173.39,-191.09"/>
</a>
</g>
</g>
<!-- Node12 -->
<g id="Node000012" class="node">
<title>Node12</title>
<g id="a_Node000012"><a xlink:title=" ">
<polygon fill="#e0e0e0" stroke="#999999" points="1094.6,-19 1015.6,-19 1015.6,0 1094.6,0 1094.6,-19"/>
<text text-anchor="middle" x="1055.1" y="-7" font-family="Helvetica,sans-Serif" font-size="10.00">fmt/format.h</text>
</a>
</g>
</g>
<!-- Node11&#45;&gt;Node12 -->
<g id="edge12_Node000011_Node000012" class="edge">
<title>Node11&#45;&gt;Node12</title>
<g id="a_edge12_Node000011_Node000012"><a xlink:title=" ">
<path fill="none" stroke="#63b8ff" d="M1176.8,-54.98C1152.84,-46.23 1115.32,-32.51 1088.26,-22.62"/>
<polygon fill="#63b8ff" stroke="#63b8ff" points="1089.41,-19.32 1078.82,-19.17 1087.01,-25.89 1089.41,-19.32"/>
</a>
</g>
</g>
<!-- Node13 -->
<g id="Node000013" class="node">
<title>Node13</title>
<g id="a_Node000013"><a xlink:title=" ">
<polygon fill="#e0e0e0" stroke="#999999" points="1321.1,-19 1271.1,-19 1271.1,0 1321.1,0 1321.1,-19"/>
<text text-anchor="middle" x="1296.1" y="-7" font-family="Helvetica,sans-Serif" font-size="10.00">format</text>
</a>
</g>
</g>
<!-- Node11&#45;&gt;Node13 -->
<g id="edge13_Node000011_Node000013" class="edge">
<title>Node11&#45;&gt;Node13</title>
<g id="a_edge13_Node000011_Node000013"><a xlink:title=" ">
<path fill="none" stroke="#63b8ff" d="M1215.52,-54.98C1230.55,-46.69 1253.64,-33.94 1271.25,-24.22"/>
<polygon fill="#63b8ff" stroke="#63b8ff" points="1273.33,-27.07 1280.39,-19.17 1269.95,-20.94 1273.33,-27.07"/>
</a>
</g>
</g>
<!-- Node14 -->
<g id="Node000014" class="node">
<title>Node14</title>
<g id="a_Node000014"><a xlink:title=" ">
<polygon fill="#e0e0e0" stroke="#999999" points="1252.6,-19 1133.6,-19 1133.6,0 1252.6,0 1252.6,-19"/>
<text text-anchor="middle" x="1193.1" y="-7" font-family="Helvetica,sans-Serif" font-size="10.00">mdspan/mdspan.hpp</text>
</a>
</g>
</g>
<!-- Node11&#45;&gt;Node14 -->
<g id="edge14_Node000011_Node000014" class="edge">
<title>Node11&#45;&gt;Node14</title>
<g id="a_edge14_Node000011_Node000014"><a xlink:title=" ">
<path fill="none" stroke="#63b8ff" d="M1198.94,-54.75C1198.02,-47.8 1196.71,-37.85 1195.56,-29.13"/>
<polygon fill="#63b8ff" stroke="#63b8ff" points="1199.01,-28.54 1194.23,-19.09 1192.07,-29.46 1199.01,-28.54"/>
</a>
</g>
</g>
<!-- Node15&#45;&gt;Node5 -->
<g id="edge19_Node000015_Node000005" class="edge">
<title>Node15&#45;&gt;Node5</title>
<g id="a_edge19_Node000015_Node000005"><a xlink:title=" ">
<path fill="none" stroke="#63b8ff" d="M1299.08,-111.7C1258.09,-103.48 1186.87,-89.09 1116.28,-74.23"/>
<polygon fill="#63b8ff" stroke="#63b8ff" points="1116.83,-70.77 1106.32,-72.13 1115.38,-77.62 1116.83,-70.77"/>
</a>
</g>
</g>
<!-- Node15&#45;&gt;Node11 -->
<g id="edge17_Node000015_Node000011" class="edge">
<title>Node15&#45;&gt;Node11</title>
<g id="a_edge17_Node000015_Node000011"><a xlink:title=" ">
<path fill="none" stroke="#63b8ff" d="M1311.73,-109.98C1289.95,-101.3 1255.94,-87.75 1231.18,-77.88"/>
<polygon fill="#63b8ff" stroke="#63b8ff" points="1232.44,-74.62 1221.85,-74.17 1229.85,-81.12 1232.44,-74.62"/>
</a>
</g>
</g>
<!-- Node15&#45;&gt;Node16 -->
<g id="edge18_Node000015_Node000016" class="edge">
<title>Node15&#45;&gt;Node16</title>
<g id="a_edge18_Node000015_Node000016"><a xlink:title=" ">
<path fill="none" stroke="#63b8ff" d="M1341.68,-109.75C1349.26,-102.03 1360.47,-90.6 1369.61,-81.28"/>
<polygon fill="#63b8ff" stroke="#63b8ff" points="1372.16,-83.68 1376.67,-74.09 1367.17,-78.78 1372.16,-83.68"/>
</a>
</g>
</g>
<!-- Node17 -->
<g id="Node000017" class="node">
<title>Node17</title>
<g id="a_Node000017"><a xlink:title=" ">
<polygon fill="#e0e0e0" stroke="#999999" points="1477.6,-74 1424.6,-74 1424.6,-55 1477.6,-55 1477.6,-74"/>
<text text-anchor="middle" x="1451.1" y="-62" font-family="Helvetica,sans-Serif" font-size="10.00">cstddef</text>
</a>
</g>
</g>
<!-- Node15&#45;&gt;Node17 -->
<g id="edge20_Node000015_Node000017" class="edge">
<title>Node15&#45;&gt;Node17</title>
<g id="a_edge20_Node000015_Node000017"><a xlink:title=" ">
<path fill="none" stroke="#63b8ff" d="M1352.06,-109.98C1371.12,-101.42 1400.76,-88.11 1422.64,-78.28"/>
<polygon fill="#63b8ff" stroke="#63b8ff" points="1424.1,-81.46 1431.79,-74.17 1421.24,-75.07 1424.1,-81.46"/>
</a>
</g>
</g>
<!-- Node15&#45;&gt;Node18 -->
<g id="edge21_Node000015_Node000018" class="edge">
<title>Node15&#45;&gt;Node18</title>
<g id="a_edge21_Node000015_Node000018"><a xlink:title=" ">
<path fill="none" stroke="#63b8ff" d="M1299.05,-111.5C1295.7,-110.94 1292.34,-110.42 1289.1,-110 1067.01,-80.94 798.92,-70.07 694.14,-66.75"/>
<polygon fill="#63b8ff" stroke="#63b8ff" points="694.04,-63.25 683.93,-66.44 693.82,-70.24 694.04,-63.25"/>
</a>
</g>
</g>
<!-- Node15&#45;&gt;Node19 -->
<g id="edge22_Node000015_Node000019" class="edge">
<title>Node15&#45;&gt;Node19</title>
<g id="a_edge22_Node000015_Node000019"><a xlink:title=" ">
<path fill="none" stroke="#63b8ff" d="M1362.82,-109.98C1396.47,-100.34 1451.11,-84.69 1485.8,-74.75"/>
<polygon fill="#63b8ff" stroke="#63b8ff" points="1486.79,-78.11 1495.44,-71.99 1484.87,-71.38 1486.79,-78.11"/>
</a>
</g>
</g>
<!-- Node20&#45;&gt;Node5 -->
<g id="edge26_Node000020_Node000005" class="edge">
<title>Node20&#45;&gt;Node5</title>
<g id="a_edge26_Node000020_Node000005"><a xlink:title=" ">
<path fill="none" stroke="#63b8ff" d="M968.66,-109.98C989.53,-101.34 1022.07,-87.87 1045.87,-78.02"/>
<polygon fill="#63b8ff" stroke="#63b8ff" points="1047.26,-81.23 1055.16,-74.17 1044.58,-74.76 1047.26,-81.23"/>
</a>
</g>
</g>
<!-- Node20&#45;&gt;Node11 -->
<g id="edge24_Node000020_Node000011" class="edge">
<title>Node20&#45;&gt;Node11</title>
<g id="a_edge24_Node000020_Node000011"><a xlink:title=" ">
<path fill="none" stroke="#63b8ff" d="M988.58,-109.98C1032.27,-100.8 1101.91,-86.15 1149.25,-76.19"/>
<polygon fill="#63b8ff" stroke="#63b8ff" points="1150.23,-79.57 1159.29,-74.08 1148.78,-72.72 1150.23,-79.57"/>
</a>
</g>
</g>
<!-- Node20&#45;&gt;Node12 -->
<g id="edge27_Node000020_Node000012" class="edge">
<title>Node20&#45;&gt;Node12</title>
<g id="a_edge27_Node000020_Node000012"><a xlink:title=" ">
<path fill="none" stroke="#63b8ff" d="M956.85,-109.66C974.89,-91.46 1016.41,-49.55 1039.28,-26.47"/>
<polygon fill="#63b8ff" stroke="#63b8ff" points="1041.97,-28.73 1046.52,-19.16 1036.99,-23.8 1041.97,-28.73"/>
</a>
</g>
</g>
<!-- Node21 -->
<g id="Node000021" class="node">
<title>Node21</title>
<g id="a_Node000021"><a xlink:title=" ">
<polygon fill="#e0e0e0" stroke="#999999" points="974.1,-74 922.1,-74 922.1,-55 974.1,-55 974.1,-74"/>
<text text-anchor="middle" x="948.1" y="-62" font-family="Helvetica,sans-Serif" font-size="10.00">cassert</text>
</a>
</g>
</g>
<!-- Node20&#45;&gt;Node21 -->
<g id="edge25_Node000020_Node000021" class="edge">
<title>Node20&#45;&gt;Node21</title>
<g id="a_edge25_Node000020_Node000021"><a xlink:title=" ">
<path fill="none" stroke="#63b8ff" d="M948.1,-109.75C948.1,-102.8 948.1,-92.85 948.1,-84.13"/>
<polygon fill="#63b8ff" stroke="#63b8ff" points="951.6,-84.09 948.1,-74.09 944.6,-84.09 951.6,-84.09"/>
</a>
</g>
</g>
<!-- Node22&#45;&gt;Node11 -->
<g id="edge29_Node000022_Node000011" class="edge">
<title>Node22&#45;&gt;Node11</title>
<g id="a_edge29_Node000022_Node000011"><a xlink:title=" ">
<path fill="none" stroke="#63b8ff" d="M1202.85,-164.66C1202.37,-147.17 1201.27,-107.8 1200.62,-84.27"/>
<polygon fill="#63b8ff" stroke="#63b8ff" points="1204.11,-84.06 1200.34,-74.16 1197.12,-84.25 1204.11,-84.06"/>
</a>
</g>
</g>
<!-- Node22&#45;&gt;Node15 -->
<g id="edge32_Node000022_Node000015" class="edge">
<title>Node22&#45;&gt;Node15</title>
<g id="a_edge32_Node000022_Node000015"><a xlink:title=" ">
<path fill="none" stroke="#63b8ff" d="M1223.98,-164.98C1245.18,-156.34 1278.22,-142.87 1302.4,-133.02"/>
<polygon fill="#63b8ff" stroke="#63b8ff" points="1303.89,-136.19 1311.83,-129.17 1301.25,-129.7 1303.89,-136.19"/>
</a>
</g>
</g>
<!-- Node23 -->
<g id="Node000023" class="node">
<title>Node23</title>
<g id="a_Node000023"><a xlink:href="kernel_2cpu_2cpu_8hpp.html" target="_top" xlink:title=" ">
<polygon fill="white" stroke="#666666" points="853.1,-129 715.1,-129 715.1,-110 853.1,-110 853.1,-129"/>
<text text-anchor="middle" x="784.1" y="-117" font-family="Helvetica,sans-Serif" font-size="10.00">uni20/kernel/cpu/cpu.hpp</text>
</a>
</g>
</g>
<!-- Node22&#45;&gt;Node23 -->
<g id="edge30_Node000022_Node000023" class="edge">
<title>Node22&#45;&gt;Node23</title>
<g id="a_edge30_Node000022_Node000023"><a xlink:title=" ">
<path fill="none" stroke="#63b8ff" d="M1135.78,-164.98C1061.06,-155.53 940.65,-140.3 861.94,-130.35"/>
<polygon fill="#63b8ff" stroke="#63b8ff" points="861.96,-126.82 851.6,-129.04 861.08,-133.77 861.96,-126.82"/>
</a>
</g>
</g>
<!-- Node24 -->
<g id="Node000024" class="node">
<title>Node24</title>
<g id="a_Node000024"><a xlink:title=" ">
<polygon fill="#e0e0e0" stroke="#999999" points="1280.6,-129 1233.6,-129 1233.6,-110 1280.6,-110 1280.6,-129"/>
<text text-anchor="middle" x="1257.1" y="-117" font-family="Helvetica,sans-Serif" font-size="10.00">vector</text>
</a>
</g>
</g>
<!-- Node22&#45;&gt;Node24 -->
<g id="edge33_Node000022_Node000024" class="edge">
<title>Node22&#45;&gt;Node24</title>
<g id="a_edge33_Node000022_Node000024"><a xlink:title=" ">
<path fill="none" stroke="#63b8ff" d="M1212.01,-164.75C1219.88,-157.03 1231.53,-145.6 1241.02,-136.28"/>
<polygon fill="#63b8ff" stroke="#63b8ff" points="1243.66,-138.59 1248.35,-129.09 1238.76,-133.6 1243.66,-138.59"/>
</a>
</g>
</g>
<!-- Node23&#45;&gt;Node9 -->
<g id="edge31_Node000023_Node000009" class="edge">
<title>Node23&#45;&gt;Node9</title>
<g id="a_edge31_Node000023_Node000009"><a xlink:title=" ">
<path fill="none" stroke="#63b8ff" d="M714.93,-112.55C595.03,-102.23 350.22,-81.17 233.21,-71.1"/>
<polygon fill="#63b8ff" stroke="#63b8ff" points="233.23,-67.59 222.97,-70.22 232.63,-74.57 233.23,-67.59"/>
</a>
</g>
</g>
<!-- Node29 -->
<g id="Node000029" class="node">
<title>Node29</title>
<g id="a_Node000029"><a xlink:href="matrix__ops__cusolver_8hpp.html" target="_top" xlink:title=" ">
<polygon fill="white" stroke="#666666" points="543.1,-310.5 405.1,-310.5 405.1,-291.5 543.1,-291.5 543.1,-310.5"/>
<text text-anchor="middle" x="474.1" y="-298.5" font-family="Helvetica,sans-Serif" font-size="10.00">matrix_ops_cusolver.hpp</text>
</a>
</g>
</g>
<!-- Node28&#45;&gt;Node29 -->
<g id="edge45_Node000028_Node000029" class="edge">
<title>Node28&#45;&gt;Node29</title>
<g id="a_edge45_Node000028_Node000029"><a xlink:title=" ">
<path fill="none" stroke="#63b8ff" d="M409.52,-351.8C422.84,-341.53 440.81,-327.67 454.41,-317.18"/>
<polygon fill="#63b8ff" stroke="#63b8ff" points="456.84,-319.72 462.63,-310.84 452.57,-314.18 456.84,-319.72"/>
</a>
</g>
</g>
<!-- Node31 -->
<g id="Node000031" class="node">
<title>Node31</title>
<g id="a_Node000031"><a xlink:href="matrix__ops__lapack_8hpp.html" target="_top" xlink:title=" ">
<polygon fill="white" stroke="#666666" points="691.1,-310.5 561.1,-310.5 561.1,-291.5 691.1,-291.5 691.1,-310.5"/>
<text text-anchor="middle" x="626.1" y="-298.5" font-family="Helvetica,sans-Serif" font-size="10.00">matrix_ops_lapack.hpp</text>
</a>
</g>
</g>
<!-- Node30&#45;&gt;Node31 -->
<g id="edge47_Node000030_Node000031" class="edge">
<title>Node30&#45;&gt;Node31</title>
<g id="a_edge47_Node000030_Node000031"><a xlink:title=" ">
<path fill="none" stroke="#63b8ff" d="M573.19,-351.8C583.89,-341.72 598.27,-328.19 609.33,-317.78"/>
<polygon fill="#63b8ff" stroke="#63b8ff" points="611.82,-320.25 616.7,-310.84 607.02,-315.15 611.82,-320.25"/>
</a>
</g>
</g>
<!-- Node33 -->
<g id="Node000033" class="node">
<title>Node33</title>
<g id="a_Node000033"><a xlink:href="cublas_8hpp.html" target="_top" xlink:title="Tag for selecting cuBLAS&#45;backed kernels.">
<polygon fill="white" stroke="#666666" points="833.6,-310.5 710.6,-310.5 710.6,-291.5 833.6,-291.5 833.6,-310.5"/>
<text text-anchor="middle" x="772.1" y="-298.5" font-family="Helvetica,sans-Serif" font-size="10.00">uni20/tags/cublas.hpp</text>
</a>
</g>
</g>
<!-- Node32&#45;&gt;Node33 -->
<g id="edge50_Node000032_Node000033" class="edge">
<title>Node32&#45;&gt;Node33</title>
<g id="a_edge50_Node000032_Node000033"><a xlink:title=" ">
<path fill="none" stroke="#63b8ff" d="M772.1,-357.37C772.1,-348.16 772.1,-333.29 772.1,-321.27"/>
<polygon fill="#63b8ff" stroke="#63b8ff" points="775.6,-320.91 772.1,-310.91 768.6,-320.91 775.6,-320.91"/>
</a>
</g>
</g>
<!-- Node34 -->
<g id="Node000034" class="node">
<title>Node34</title>
<g id="a_Node000034"><a xlink:href="cuda_8hpp.html" target="_top" xlink:title="Tag for selecting CUDA&#45;capable kernels.">
<polygon fill="white" stroke="#666666" points="829.6,-244.5 714.6,-244.5 714.6,-225.5 829.6,-225.5 829.6,-244.5"/>
<text text-anchor="middle" x="772.1" y="-232.5" font-family="Helvetica,sans-Serif" font-size="10.00">uni20/tags/cuda.hpp</text>
</a>
</g>
</g>
<!-- Node33&#45;&gt;Node34 -->
<g id="edge51_Node000033_Node000034" class="edge">
<title>Node33&#45;&gt;Node34</title>
<g id="a_edge51_Node000033_Node000034"><a xlink:title=" ">
<path fill="none" stroke="#63b8ff" d="M772.1,-291.37C772.1,-282.16 772.1,-267.29 772.1,-255.27"/>
<polygon fill="#63b8ff" stroke="#63b8ff" points="775.6,-254.91 772.1,-244.91 768.6,-254.91 775.6,-254.91"/>
</a>
</g>
</g>
<!-- Node36 -->
<g id="Node000036" class="node">
<title>Node36</title>
<g id="a_Node000036"><a xlink:href="tags_2blas_8hpp.html" target="_top" xlink:title="Tag for selecting BLAS&#45;backed kernels.">
<polygon fill="white" stroke="#666666" points="154.1,-184 42.1,-184 42.1,-165 154.1,-165 154.1,-184"/>
<text text-anchor="middle" x="98.1" y="-172" font-family="Helvetica,sans-Serif" font-size="10.00">uni20/tags/blas.hpp</text>
</a>
</g>
</g>
<!-- Node35&#45;&gt;Node36 -->
<g id="edge53_Node000035_Node000036" class="edge">
<title>Node35&#45;&gt;Node36</title>
<g id="a_edge53_Node000035_Node000036"><a xlink:title=" ">
<path fill="none" stroke="#63b8ff" d="M92.37,-357.32C93.28,-328.37 96.23,-234.7 97.5,-194.32"/>
<polygon fill="#63b8ff" stroke="#63b8ff" points="101,-194.34 97.82,-184.23 94.01,-194.12 101,-194.34"/>
</a>
</g>
</g>
<!-- Node36&#45;&gt;Node9 -->
<g id="edge54_Node000036_Node000009" class="edge">
<title>Node36&#45;&gt;Node9</title>
<g id="a_edge54_Node000036_Node000009"><a xlink:title=" ">
<path fill="none" stroke="#63b8ff" d="M103.82,-164.66C115.42,-146.77 141.84,-106 156.95,-82.69"/>
<polygon fill="#63b8ff" stroke="#63b8ff" points="159.98,-84.45 162.48,-74.16 154.11,-80.65 159.98,-84.45"/>
</a>
</g>
</g>
<!-- Node38&#45;&gt;Node5 -->
<g id="edge61_Node000038_Node000005" class="edge">
<title>Node38&#45;&gt;Node5</title>
<g id="a_edge61_Node000038_Node000005"><a xlink:title=" ">
<path fill="none" stroke="#63b8ff" d="M1421.94,-285.66C1400.56,-258.95 1351.27,-201.03 1299.1,-165 1282.19,-153.32 1163.01,-102.27 1106.15,-78.18"/>
<polygon fill="#63b8ff" stroke="#63b8ff" points="1107.19,-74.82 1096.61,-74.14 1104.46,-81.26 1107.19,-74.82"/>
</a>
</g>
</g>
<!-- Node38&#45;&gt;Node10 -->
<g id="edge59_Node000038_Node000010" class="edge">
<title>Node38&#45;&gt;Node10</title>
<g id="a_edge59_Node000038_Node000010"><a xlink:title=" ">
<path fill="none" stroke="#63b8ff" d="M1379.88,-290.97C1312.13,-279.46 1195.1,-259.6 1121.84,-247.16"/>
<polygon fill="#63b8ff" stroke="#63b8ff" points="1122.25,-243.68 1111.8,-245.46 1121.08,-250.58 1122.25,-243.68"/>
</a>
</g>
</g>
<!-- Node38&#45;&gt;Node15 -->
<g id="edge58_Node000038_Node000015" class="edge">
<title>Node38&#45;&gt;Node15</title>
<g id="a_edge58_Node000038_Node000015"><a xlink:title=" ">
<path fill="none" stroke="#63b8ff" d="M1434.74,-285.95C1437.08,-259.22 1438.23,-200.53 1409.1,-165 1397.8,-151.23 1381.05,-140.78 1366.15,-133.47"/>
<polygon fill="#63b8ff" stroke="#63b8ff" points="1367.24,-130.13 1356.7,-129.13 1364.32,-136.49 1367.24,-130.13"/>
</a>
</g>
</g>
<!-- Node38&#45;&gt;Node16 -->
<g id="edge60_Node000038_Node000016" class="edge">
<title>Node38&#45;&gt;Node16</title>
<g id="a_edge60_Node000038_Node000016"><a xlink:title=" ">
<path fill="none" stroke="#63b8ff" d="M1438.56,-285.81C1442.06,-275.94 1446.28,-262.37 1448.1,-250 1450.03,-236.81 1450.3,-233.15 1448.1,-220 1439.3,-167.59 1410.75,-110.95 1395.28,-83.06"/>
<polygon fill="#63b8ff" stroke="#63b8ff" points="1398.21,-81.12 1390.24,-74.14 1392.12,-84.57 1398.21,-81.12"/>
</a>
</g>
</g>
<!-- Node38&#45;&gt;Node17 -->
<g id="edge62_Node000038_Node000017" class="edge">
<title>Node38&#45;&gt;Node17</title>
<g id="a_edge62_Node000038_Node000017"><a xlink:title=" ">
<path fill="none" stroke="#63b8ff" d="M1486.13,-293.47C1513.37,-287.12 1544.28,-274.63 1561.1,-250 1596.19,-198.62 1595.88,-161.59 1561.1,-110 1552.44,-97.16 1516.04,-84.06 1487.45,-75.43"/>
<polygon fill="#63b8ff" stroke="#63b8ff" points="1488.31,-72.04 1477.73,-72.57 1486.33,-78.75 1488.31,-72.04"/>
</a>
</g>
</g>
<!-- Node38&#45;&gt;Node18 -->
<g id="edge63_Node000038_Node000018" class="edge">
<title>Node38&#45;&gt;Node18</title>
<g id="a_edge63_Node000038_Node000018"><a xlink:title=" ">
<path fill="none" stroke="#63b8ff" d="M1379.87,-297.12C1278.45,-291.13 1061.36,-275.68 991.1,-250 968.52,-241.75 968.13,-229.6 946.1,-220 882.85,-192.43 860.1,-207.12 795.1,-184 742.1,-165.15 721.22,-168.43 681.1,-129 668.45,-116.57 659.92,-98.11 654.87,-84.29"/>
<polygon fill="#63b8ff" stroke="#63b8ff" points="658.06,-82.77 651.56,-74.4 651.42,-85 658.06,-82.77"/>
</a>
</g>
</g>
<!-- Node38&#45;&gt;Node19 -->
<g id="edge64_Node000038_Node000019" class="edge">
<title>Node38&#45;&gt;Node19</title>
<g id="a_edge64_Node000038_Node000019"><a xlink:title=" ">
<path fill="none" stroke="#63b8ff" d="M1442.65,-285.59C1448.81,-275.84 1456.65,-262.52 1462.1,-250 1487.52,-191.53 1506.11,-117.93 1513.96,-84.09"/>
<polygon fill="#63b8ff" stroke="#63b8ff" points="1517.41,-84.74 1516.21,-74.21 1510.58,-83.18 1517.41,-84.74"/>
</a>
</g>
</g>
</g>
</svg>
