<?xml version="1.0" encoding="UTF-8" standalone="no"?>
<!DOCTYPE svg PUBLIC "-//W3C//DTD SVG 1.1//EN"
 "http://www.w3.org/Graphics/SVG/1.1/DTD/svg11.dtd">
<!-- Generated by graphviz version 2.43.0 (0)
 -->
<!-- Title: mdspan.hpp Pages: 1 -->
<!--zoomable 467 -->

<svg id="main" version="1.1" xmlns="http://www.w3.org/2000/svg" xmlns:xlink="http://www.w3.org/1999/xlink" xml:space="preserve" onload="init(evt)">
<style type="text/css"><![CDATA[
.node, .edge {opacity: 0.7;}
.node.selected, .edge.selected {opacity: 1;}
.edge:hover path { stroke: red; }
.edge:hover polygon { stroke: red; fill: red; }
]]></style>

<defs>
  <circle id="rim" cx="0" cy="0" r="7"/>
  <circle id="rim2" cx="0" cy="0" r="3.5"/>
  <g id="zoomPlus">
    <use xlink:href="#rim" fill="#404040"><set attributeName="fill" to="#808080" begin="zoomplus.mouseover" end="zoomplus.mouseout"/></use>
    <path d="M-4,0h8M0,-4v8" fill="none" stroke="white" stroke-width="1.5" pointer-events="none"/>
  </g>
  <g id="zoomMin">
    <use xlink:href="#rim" fill="#404040"><set attributeName="fill" to="#808080" begin="zoomminus.mouseover" end="zoomminus.mouseout"/></use>
    <path d="M-4,0h8" fill="none" stroke="white" stroke-width="1.5" pointer-events="none"/>
  </g>
  <g id="arrowUp" transform="translate(30 24)">
    <use xlink:href="#rim"/>
    <path pointer-events="none" fill="none" stroke="white" stroke-width="1.5" d="M0,-3.0v7 M-2.5,-0.5L0,-3.0L2.5,-0.5"/>
  </g>
  <g id="arrowRight" transform="rotate(90) translate(36 -43)">
    <use xlink:href="#rim"/>
    <path pointer-events="none" fill="none" stroke="white" stroke-width="1.5" d="M0,-3.0v7 M-2.5,-0.5L0,-3.0L2.5,-0.5"/>
  </g>
  <g id="arrowDown" transform="rotate(180) translate(-30 -48)">
    <use xlink:href="#rim"/>
    <path pointer-events="none" fill="none" stroke="white" stroke-width="1.5" d="M0,-3.0v7 M-2.5,-0.5L0,-3.0L2.5,-0.5"/>
  </g>
  <g id="arrowLeft" transform="rotate(270) translate(-36 17)">
    <use xlink:href="#rim"/>
    <path pointer-events="none" fill="none" stroke="white" stroke-width="1.5" d="M0,-3.0v7 M-2.5,-0.5L0,-3.0L2.5,-0.5"/>
  </g>
  <g id="resetDef">
    <use xlink:href="#rim2" fill="#404040"><set attributeName="fill" to="#808080" begin="reset.mouseover" end="reset.mouseout"/></use>
  </g>
</defs>
<script type="application/ecmascript">
var viewWidth = 887;
var viewHeight = 467;
var sectionId = 'dynsection-1';
</script>
<script type="application/ecmascript" xlink:href="svg.min.js"/>
<svg id="graph" class="graph">
<g id="viewport">
<title>mdspan.hpp</title>
<!-- Node1 -->
<g id="Node000001" class="node">
<title>Node1</title>
<g id="a_Node000001"><a xlink:title="Wrapper that exposes the mdspan reference implementation and a formatter bridge.">
<polygon fill="#999999" stroke="#666666" points="518.5,-459 441.5,-459 441.5,-440 518.5,-440 518.5,-459"/>
<text text-anchor="middle" x="480" y="-447" font-family="Helvetica,sans-Serif" font-size="10.00">mdspan.hpp</text>
</a>
</g>
</g>
<!-- Node2 -->
<g id="Node000002" class="node">
<title>Node2</title>
<g id="a_Node000002"><a xlink:href="assign_8hpp.html" target="_top" xlink:title=" ">
<polygon fill="white" stroke="#666666" points="335.5,-239 266.5,-239 266.5,-220 335.5,-220 335.5,-239"/>
<text text-anchor="middle" x="301" y="-227" font-family="Helvetica,sans-Serif" font-size="10.00">assign.hpp</text>
</a>
</g>
</g>
<!-- Node1&#45;&gt;Node2 -->
<g id="edge1_Node000001_Node000002" class="edge">
<title>Node1&#45;&gt;Node2</title>
<g id="a_edge1_Node000001_Node000002"><a xlink:title=" ">
<path fill="none" stroke="#63b8ff" d="M431.41,-445.75C353.67,-440.7 205.38,-428.17 159,-404 99.88,-373.19 81.35,-356.07 57,-294 53.92,-286.14 51.59,-281.48 57,-275 83.27,-243.5 205.56,-234.24 266.41,-231.56"/>
<polygon fill="#63b8ff" stroke="#63b8ff" points="431.24,-449.25 441.44,-446.39 431.68,-442.26 431.24,-449.25"/>
</a>
</g>
</g>
<!-- Node3 -->
<g id="Node000003" class="node">
<title>Node3</title>
<g id="a_Node000003"><a xlink:href="concepts_8hpp.html" target="_top" xlink:title="Mdspan concept and accessor extensions for Uni20.">
<polygon fill="white" stroke="#666666" points="357.5,-404 276.5,-404 276.5,-385 357.5,-385 357.5,-404"/>
<text text-anchor="middle" x="317" y="-392" font-family="Helvetica,sans-Serif" font-size="10.00">concepts.hpp</text>
</a>
</g>
</g>
<!-- Node1&#45;&gt;Node3 -->
<g id="edge2_Node000001_Node000003" class="edge">
<title>Node1&#45;&gt;Node3</title>
<g id="a_edge2_Node000001_Node000003"><a xlink:title=" ">
<path fill="none" stroke="#63b8ff" d="M444.01,-436.8C413.59,-426.91 370.72,-412.97 343.39,-404.08"/>
<polygon fill="#63b8ff" stroke="#63b8ff" points="443.22,-440.22 453.81,-439.98 445.38,-433.56 443.22,-440.22"/>
</a>
</g>
</g>
<!-- Node6 -->
<g id="Node000006" class="node">
<title>Node6</title>
<g id="a_Node000006"><a xlink:href="sum_8hpp.html" target="_top" xlink:title=" ">
<polygon fill="white" stroke="#666666" points="248.5,-184 189.5,-184 189.5,-165 248.5,-165 248.5,-184"/>
<text text-anchor="middle" x="219" y="-172" font-family="Helvetica,sans-Serif" font-size="10.00">sum.hpp</text>
</a>
</g>
</g>
<!-- Node1&#45;&gt;Node6 -->
<g id="edge39_Node000001_Node000006" class="edge">
<title>Node1&#45;&gt;Node6</title>
<g id="a_edge39_Node000001_Node000006"><a xlink:title=" ">
<path fill="none" stroke="#63b8ff" d="M430.92,-447.79C308.6,-444.68 0,-428.17 0,-340.5 0,-340.5 0,-340.5 0,-283.5 0,-199.99 129.69,-181.05 189.46,-176.76"/>
<polygon fill="#63b8ff" stroke="#63b8ff" points="431.05,-451.29 441.13,-448.02 431.21,-444.29 431.05,-451.29"/>
</a>
</g>
</g>
<!-- Node7 -->
<g id="Node000007" class="node">
<title>Node7</title>
<g id="a_Node000007"><a xlink:href="strides_8hpp.html" target="_top" xlink:title="Stride utilities for mdspan&#45;like tensors.">
<polygon fill="white" stroke="#666666" points="439.5,-349 368.5,-349 368.5,-330 439.5,-330 439.5,-349"/>
<text text-anchor="middle" x="404" y="-337" font-family="Helvetica,sans-Serif" font-size="10.00">strides.hpp</text>
</a>
</g>
</g>
<!-- Node1&#45;&gt;Node7 -->
<g id="edge38_Node000001_Node000007" class="edge">
<title>Node1&#45;&gt;Node7</title>
<g id="a_edge38_Node000001_Node000007"><a xlink:title=" ">
<path fill="none" stroke="#63b8ff" d="M467.95,-431.38C451.5,-408.01 422.63,-366.97 410.09,-349.16"/>
<polygon fill="#63b8ff" stroke="#63b8ff" points="465.16,-433.5 473.78,-439.66 470.89,-429.47 465.16,-433.5"/>
</a>
</g>
</g>
<!-- Node8 -->
<g id="Node000008" class="node">
<title>Node8</title>
<g id="a_Node000008"><a xlink:href="contract_8hpp.html" target="_top" xlink:title=" ">
<polygon fill="white" stroke="#666666" points="545.5,-239 468.5,-239 468.5,-220 545.5,-220 545.5,-239"/>
<text text-anchor="middle" x="507" y="-227" font-family="Helvetica,sans-Serif" font-size="10.00">contract.hpp</text>
</a>
</g>
</g>
<!-- Node1&#45;&gt;Node8 -->
<g id="edge29_Node000001_Node000008" class="edge">
<title>Node1&#45;&gt;Node8</title>
<g id="a_edge29_Node000001_Node000008"><a xlink:title=" ">
<path fill="none" stroke="#63b8ff" d="M491.26,-431.49C508.69,-403.99 541.43,-347.43 553,-294 554.79,-285.75 556.3,-282.77 553,-275 546.49,-259.65 531.82,-247.01 520.78,-239.18"/>
<polygon fill="#63b8ff" stroke="#63b8ff" points="488.27,-429.66 485.79,-439.96 494.15,-433.46 488.27,-429.66"/>
</a>
</g>
</g>
<!-- Node9 -->
<g id="Node000009" class="node">
<title>Node9</title>
<g id="a_Node000009"><a xlink:href="cpu_2contract_8hpp.html" target="_top" xlink:title=" ">
<polygon fill="white" stroke="#666666" points="544.5,-294 467.5,-294 467.5,-275 544.5,-275 544.5,-294"/>
<text text-anchor="middle" x="506" y="-282" font-family="Helvetica,sans-Serif" font-size="10.00">contract.hpp</text>
</a>
</g>
</g>
<!-- Node1&#45;&gt;Node9 -->
<g id="edge30_Node000001_Node000009" class="edge">
<title>Node1&#45;&gt;Node9</title>
<g id="a_edge30_Node000001_Node000009"><a xlink:title=" ">
<path fill="none" stroke="#63b8ff" d="M482.98,-429.83C488.59,-394.67 500.51,-319.9 504.6,-294.31"/>
<polygon fill="#63b8ff" stroke="#63b8ff" points="479.52,-429.31 481.4,-439.74 486.43,-430.41 479.52,-429.31"/>
</a>
</g>
</g>
<!-- Node10 -->
<g id="Node000010" class="node">
<title>Node10</title>
<g id="a_Node000010"><a xlink:href="tensor__view_8hpp.html" target="_top" xlink:title="Tensor view abstractions and accessor factories built on std::mdspan.">
<polygon fill="white" stroke="#666666" points="737,-294 641,-294 641,-275 737,-275 737,-294"/>
<text text-anchor="middle" x="689" y="-282" font-family="Helvetica,sans-Serif" font-size="10.00">tensor_view.hpp</text>
</a>
</g>
</g>
<!-- Node1&#45;&gt;Node10 -->
<g id="edge40_Node000001_Node000010" class="edge">
<title>Node1&#45;&gt;Node10</title>
<g id="a_edge40_Node000001_Node000010"><a xlink:title=" ">
<path fill="none" stroke="#63b8ff" d="M528.47,-443.29C578.25,-436.9 651.04,-424.35 670,-404 699.11,-372.74 693.78,-315.56 690.5,-294.01"/>
<polygon fill="#63b8ff" stroke="#63b8ff" points="528.03,-439.82 518.54,-444.52 528.89,-446.76 528.03,-439.82"/>
</a>
</g>
</g>
<!-- Node18 -->
<g id="Node000018" class="node">
<title>Node18</title>
<g id="a_Node000018"><a xlink:href="zip__layout_8hpp.html" target="_top" xlink:title="Additional layout helpers and policies for zipped mdspan views.">
<polygon fill="white" stroke="#666666" points="233,-349 145,-349 145,-330 233,-330 233,-349"/>
<text text-anchor="middle" x="189" y="-337" font-family="Helvetica,sans-Serif" font-size="10.00">zip_layout.hpp</text>
</a>
</g>
</g>
<!-- Node1&#45;&gt;Node18 -->
<g id="edge42_Node000001_Node000018" class="edge">
<title>Node1&#45;&gt;Node18</title>
<g id="a_edge42_Node000001_Node000018"><a xlink:title=" ">
<path fill="none" stroke="#63b8ff" d="M431.32,-444.94C386.74,-440.18 319.84,-429.17 267,-404 237.68,-390.03 209.79,-362.84 196.73,-349.01"/>
<polygon fill="#63b8ff" stroke="#63b8ff" points="431.02,-448.43 441.32,-445.94 431.72,-441.46 431.02,-448.43"/>
</a>
</g>
</g>
<!-- Node19 -->
<g id="Node000019" class="node">
<title>Node19</title>
<g id="a_Node000019"><a xlink:href="zip__transform_8hpp.html" target="_top" xlink:title=" ">
<polygon fill="white" stroke="#666666" points="171.5,-294 66.5,-294 66.5,-275 171.5,-275 171.5,-294"/>
<text text-anchor="middle" x="119" y="-282" font-family="Helvetica,sans-Serif" font-size="10.00">zip_transform.hpp</text>
</a>
</g>
</g>
<!-- Node1&#45;&gt;Node19 -->
<g id="edge43_Node000001_Node000019" class="edge">
<title>Node1&#45;&gt;Node19</title>
<g id="a_edge43_Node000001_Node000019"><a xlink:title=" ">
<path fill="none" stroke="#63b8ff" d="M431.1,-443.75C380.54,-437.91 299.81,-425.94 233,-404 180.31,-386.69 151.06,-395.6 121,-349 110.12,-332.13 113.7,-307.15 116.68,-294.12"/>
<polygon fill="#63b8ff" stroke="#63b8ff" points="430.77,-447.24 441.1,-444.87 431.55,-440.28 430.77,-447.24"/>
</a>
</g>
</g>
<!-- Node20 -->
<g id="Node000020" class="node">
<title>Node20</title>
<g id="a_Node000020"><a xlink:href="layout_8hpp.html" target="_top" xlink:title=" ">
<polygon fill="white" stroke="#666666" points="661,-404 593,-404 593,-385 661,-385 661,-404"/>
<text text-anchor="middle" x="627" y="-392" font-family="Helvetica,sans-Serif" font-size="10.00">layout.hpp</text>
</a>
</g>
</g>
<!-- Node1&#45;&gt;Node20 -->
<g id="edge31_Node000001_Node000020" class="edge">
<title>Node1&#45;&gt;Node20</title>
<g id="a_edge31_Node000001_Node000020"><a xlink:title=" ">
<path fill="none" stroke="#63b8ff" d="M513.14,-436.55C540.44,-426.71 578.5,-412.98 602.95,-404.17"/>
<polygon fill="#63b8ff" stroke="#63b8ff" points="511.84,-433.3 503.62,-439.98 514.21,-439.89 511.84,-433.3"/>
</a>
</g>
</g>
<!-- Node21 -->
<g id="Node000021" class="node">
<title>Node21</title>
<g id="a_Node000021"><a xlink:href="vectorstorage_8hpp.html" target="_top" xlink:title=" ">
<polygon fill="white" stroke="#666666" points="822.5,-349 717.5,-349 717.5,-330 822.5,-330 822.5,-349"/>
<text text-anchor="middle" x="770" y="-337" font-family="Helvetica,sans-Serif" font-size="10.00">vectorstorage.hpp</text>
</a>
</g>
</g>
<!-- Node1&#45;&gt;Node21 -->
<g id="edge41_Node000001_Node000021" class="edge">
<title>Node1&#45;&gt;Node21</title>
<g id="a_edge41_Node000001_Node000021"><a xlink:title=" ">
<path fill="none" stroke="#63b8ff" d="M529.04,-446.51C576.03,-442.86 647.76,-432.6 703,-404 729.47,-390.29 752.84,-362.98 763.65,-349.07"/>
<polygon fill="#63b8ff" stroke="#63b8ff" points="528.55,-443.03 518.82,-447.23 529.04,-450.02 528.55,-443.03"/>
</a>
</g>
</g>
<!-- Node22 -->
<g id="Node000022" class="node">
<title>Node22</title>
<g id="a_Node000022"><a xlink:href="mdspan__example_8cpp.html" target="_top" xlink:title=" ">
<polygon fill="white" stroke="#666666" points="879,-404 755,-404 755,-385 879,-385 879,-404"/>
<text text-anchor="middle" x="817" y="-392" font-family="Helvetica,sans-Serif" font-size="10.00">mdspan_example.cpp</text>
</a>
</g>
</g>
<!-- Node1&#45;&gt;Node22 -->
<g id="edge37_Node000001_Node000022" class="edge">
<title>Node1&#45;&gt;Node22</title>
<g id="a_edge37_Node000001_Node000022"><a xlink:title=" ">
<path fill="none" stroke="#63b8ff" d="M528.6,-440.86C590.72,-431.09 697.96,-414.22 762.71,-404.04"/>
<polygon fill="#63b8ff" stroke="#63b8ff" points="527.99,-437.41 518.66,-442.42 529.08,-444.32 527.99,-437.41"/>
</a>
</g>
</g>
<!-- Node3&#45;&gt;Node2 -->
<g id="edge3_Node000003_Node000002" class="edge">
<title>Node3&#45;&gt;Node2</title>
<g id="a_edge3_Node000003_Node000002"><a xlink:title=" ">
<path fill="none" stroke="#63b8ff" d="M311.04,-375.14C304.15,-351.98 293.99,-310.85 296,-275 296.7,-262.43 298.52,-247.95 299.76,-239.01"/>
<polygon fill="#63b8ff" stroke="#63b8ff" points="307.78,-376.45 314.09,-384.96 314.46,-374.37 307.78,-376.45"/>
</a>
</g>
</g>
<!-- Node4 -->
<g id="Node000004" class="node">
<title>Node4</title>
<g id="a_Node000004"><a xlink:href="iteration__plan_8hpp.html" target="_top" xlink:title="Helpers for constructing merged iteration plans over strided tensors.">
<polygon fill="white" stroke="#666666" points="410.5,-294 305.5,-294 305.5,-275 410.5,-275 410.5,-294"/>
<text text-anchor="middle" x="358" y="-282" font-family="Helvetica,sans-Serif" font-size="10.00">iteration_plan.hpp</text>
</a>
</g>
</g>
<!-- Node3&#45;&gt;Node4 -->
<g id="edge4_Node000003_Node000004" class="edge">
<title>Node3&#45;&gt;Node4</title>
<g id="a_edge4_Node000003_Node000004"><a xlink:title=" ">
<path fill="none" stroke="#63b8ff" d="M323.98,-375.12C332.92,-351.56 348.07,-311.66 354.71,-294.16"/>
<polygon fill="#63b8ff" stroke="#63b8ff" points="320.63,-374.07 320.36,-384.66 327.18,-376.56 320.63,-374.07"/>
</a>
</g>
</g>
<!-- Node3&#45;&gt;Node6 -->
<g id="edge13_Node000003_Node000006" class="edge">
<title>Node3&#45;&gt;Node6</title>
<g id="a_edge13_Node000003_Node000006"><a xlink:title=" ">
<path fill="none" stroke="#63b8ff" d="M309,-375.7C289.02,-331.27 237.54,-216.74 222.92,-184.22"/>
<polygon fill="#63b8ff" stroke="#63b8ff" points="305.87,-377.27 313.16,-384.95 312.25,-374.4 305.87,-377.27"/>
</a>
</g>
</g>
<!-- Node3&#45;&gt;Node7 -->
<g id="edge8_Node000003_Node000007" class="edge">
<title>Node3&#45;&gt;Node7</title>
<g id="a_edge8_Node000003_Node000007"><a xlink:title=" ">
<path fill="none" stroke="#63b8ff" d="M339.66,-379.7C355.51,-370.04 376.19,-357.44 389.77,-349.17"/>
<polygon fill="#63b8ff" stroke="#63b8ff" points="337.7,-376.79 330.98,-384.98 341.34,-382.77 337.7,-376.79"/>
</a>
</g>
</g>
<!-- Node3&#45;&gt;Node10 -->
<g id="edge14_Node000003_Node000010" class="edge">
<title>Node3&#45;&gt;Node10</title>
<g id="a_edge14_Node000003_Node000010"><a xlink:title=" ">
<path fill="none" stroke="#63b8ff" d="M356.49,-382.03C431.5,-360.26 593.02,-313.36 659.5,-294.07"/>
<polygon fill="#63b8ff" stroke="#63b8ff" points="355.13,-378.79 346.5,-384.94 357.08,-385.51 355.13,-378.79"/>
</a>
</g>
</g>
<!-- Node3&#45;&gt;Node18 -->
<g id="edge25_Node000003_Node000018" class="edge">
<title>Node3&#45;&gt;Node18</title>
<g id="a_edge25_Node000003_Node000018"><a xlink:title=" ">
<path fill="none" stroke="#63b8ff" d="M286.88,-381.03C263.21,-371.23 230.85,-357.83 209.94,-349.17"/>
<polygon fill="#63b8ff" stroke="#63b8ff" points="285.86,-384.39 296.43,-384.98 288.53,-377.93 285.86,-384.39"/>
</a>
</g>
</g>
<!-- Node3&#45;&gt;Node19 -->
<g id="edge28_Node000003_Node000019" class="edge">
<title>Node3&#45;&gt;Node19</title>
<g id="a_edge28_Node000003_Node000019"><a xlink:title=" ">
<path fill="none" stroke="#63b8ff" d="M266.1,-386.85C219.24,-379.71 154.3,-366.93 136,-349 121,-334.3 118.78,-307.93 118.72,-294.26"/>
<polygon fill="#63b8ff" stroke="#63b8ff" points="265.69,-390.32 276.1,-388.33 266.72,-383.4 265.69,-390.32"/>
</a>
</g>
</g>
<!-- Node4&#45;&gt;Node2 -->
<g id="edge7_Node000004_Node000002" class="edge">
<title>Node4&#45;&gt;Node2</title>
<g id="a_edge7_Node000004_Node000002"><a xlink:title=" ">
<path fill="none" stroke="#63b8ff" d="M341.38,-268.04C331.27,-258.64 318.72,-246.98 310.32,-239.17"/>
<polygon fill="#63b8ff" stroke="#63b8ff" points="339.14,-270.74 348.84,-274.98 343.9,-265.61 339.14,-270.74"/>
</a>
</g>
</g>
<!-- Node5 -->
<g id="Node000005" class="node">
<title>Node5</title>
<g id="a_Node000005"><a xlink:href="apply__unary_8hpp.html" target="_top" xlink:title=" ">
<polygon fill="white" stroke="#666666" points="450,-239 354,-239 354,-220 450,-220 450,-239"/>
<text text-anchor="middle" x="402" y="-227" font-family="Helvetica,sans-Serif" font-size="10.00">apply_unary.hpp</text>
</a>
</g>
</g>
<!-- Node4&#45;&gt;Node5 -->
<g id="edge5_Node000004_Node000005" class="edge">
<title>Node4&#45;&gt;Node5</title>
<g id="a_edge5_Node000004_Node000005"><a xlink:title=" ">
<path fill="none" stroke="#63b8ff" d="M371.73,-266.96C379.4,-257.72 388.63,-246.6 394.87,-239.09"/>
<polygon fill="#63b8ff" stroke="#63b8ff" points="368.96,-264.82 365.27,-274.75 374.35,-269.29 368.96,-264.82"/>
</a>
</g>
</g>
<!-- Node5&#45;&gt;Node6 -->
<g id="edge6_Node000005_Node000006" class="edge">
<title>Node5&#45;&gt;Node6</title>
<g id="a_edge6_Node000005_Node000006"><a xlink:title=" ">
<path fill="none" stroke="#63b8ff" d="M362.93,-217.18C328.7,-207.27 279.71,-193.08 248.63,-184.08"/>
<polygon fill="#63b8ff" stroke="#63b8ff" points="362.02,-220.56 372.6,-219.98 363.97,-213.84 362.02,-220.56"/>
</a>
</g>
</g>
<!-- Node7&#45;&gt;Node4 -->
<g id="edge12_Node000007_Node000004" class="edge">
<title>Node7&#45;&gt;Node4</title>
<g id="a_edge12_Node000007_Node000004"><a xlink:title=" ">
<path fill="none" stroke="#63b8ff" d="M389.64,-321.96C381.63,-312.72 371.97,-301.6 365.45,-294.09"/>
<polygon fill="#63b8ff" stroke="#63b8ff" points="387.21,-324.49 396.4,-329.75 392.49,-319.9 387.21,-324.49"/>
</a>
</g>
</g>
<!-- Node7&#45;&gt;Node8 -->
<g id="edge9_Node000007_Node000008" class="edge">
<title>Node7&#45;&gt;Node8</title>
<g id="a_edge9_Node000007_Node000008"><a xlink:title=" ">
<path fill="none" stroke="#63b8ff" d="M417.15,-321.88C427.75,-308.76 443.28,-290.21 458,-275 470.79,-261.79 486.73,-247.71 496.89,-239.01"/>
<polygon fill="#63b8ff" stroke="#63b8ff" points="414.18,-319.99 410.66,-329.98 419.64,-324.36 414.18,-319.99"/>
</a>
</g>
</g>
<!-- Node7&#45;&gt;Node9 -->
<g id="edge10_Node000007_Node000009" class="edge">
<title>Node7&#45;&gt;Node9</title>
<g id="a_edge10_Node000007_Node000009"><a xlink:title=" ">
<path fill="none" stroke="#63b8ff" d="M429.27,-325.37C448.01,-315.63 473.02,-302.64 489.31,-294.17"/>
<polygon fill="#63b8ff" stroke="#63b8ff" points="427.65,-322.27 420.39,-329.98 430.88,-328.48 427.65,-322.27"/>
</a>
</g>
</g>
<!-- Node9&#45;&gt;Node8 -->
<g id="edge11_Node000009_Node000008" class="edge">
<title>Node9&#45;&gt;Node8</title>
<g id="a_edge11_Node000009_Node000008"><a xlink:title=" ">
<path fill="none" stroke="#63b8ff" d="M506.36,-264.66C506.52,-255.93 506.71,-245.99 506.84,-239.09"/>
<polygon fill="#63b8ff" stroke="#63b8ff" points="502.85,-264.68 506.17,-274.75 509.85,-264.82 502.85,-264.68"/>
</a>
</g>
</g>
<!-- Node11 -->
<g id="Node000011" class="node">
<title>Node11</title>
<g id="a_Node000011"><a xlink:href="basic__tensor_8hpp.html" target="_top" xlink:title=" ">
<polygon fill="white" stroke="#666666" points="662,-239 564,-239 564,-220 662,-220 662,-239"/>
<text text-anchor="middle" x="613" y="-227" font-family="Helvetica,sans-Serif" font-size="10.00">basic_tensor.hpp</text>
</a>
</g>
</g>
<!-- Node10&#45;&gt;Node11 -->
<g id="edge15_Node000010_Node000011" class="edge">
<title>Node10&#45;&gt;Node11</title>
<g id="a_edge15_Node000010_Node000011"><a xlink:title=" ">
<path fill="none" stroke="#63b8ff" d="M668.42,-269.15C654.69,-259.57 637.07,-247.29 625.43,-239.17"/>
<polygon fill="#63b8ff" stroke="#63b8ff" points="666.58,-272.14 676.79,-274.98 670.59,-266.39 666.58,-272.14"/>
</a>
</g>
</g>
<!-- Node12 -->
<g id="Node000012" class="node">
<title>Node12</title>
<g id="a_Node000012"><a xlink:href="matrix__ops_8hpp.html" target="_top" xlink:title=" ">
<polygon fill="white" stroke="#666666" points="754,-74 662,-74 662,-55 754,-55 754,-74"/>
<text text-anchor="middle" x="708" y="-62" font-family="Helvetica,sans-Serif" font-size="10.00">matrix_ops.hpp</text>
</a>
</g>
</g>
<!-- Node10&#45;&gt;Node12 -->
<g id="edge19_Node000010_Node000012" class="edge">
<title>Node10&#45;&gt;Node12</title>
<g id="a_edge19_Node000010_Node000012"><a xlink:title=" ">
<path fill="none" stroke="#63b8ff" d="M690.63,-264.85C694.55,-219.82 704.42,-106.53 707.24,-74.22"/>
<polygon fill="#63b8ff" stroke="#63b8ff" points="687.13,-264.69 689.74,-274.95 694.1,-265.3 687.13,-264.69"/>
</a>
</g>
</g>
<!-- Node15 -->
<g id="Node000015" class="node">
<title>Node15</title>
<g id="a_Node000015"><a xlink:href="matrix__ops__cpu_8hpp.html" target="_top" xlink:title=" ">
<polygon fill="white" stroke="#666666" points="835.5,-239 720.5,-239 720.5,-220 835.5,-220 835.5,-239"/>
<text text-anchor="middle" x="778" y="-227" font-family="Helvetica,sans-Serif" font-size="10.00">matrix_ops_cpu.hpp</text>
</a>
</g>
</g>
<!-- Node10&#45;&gt;Node15 -->
<g id="edge20_Node000010_Node000015" class="edge">
<title>Node10&#45;&gt;Node15</title>
<g id="a_edge20_Node000010_Node000015"><a xlink:title=" ">
<path fill="none" stroke="#63b8ff" d="M712.18,-269.7C728.39,-260.04 749.55,-247.44 763.44,-239.17"/>
<polygon fill="#63b8ff" stroke="#63b8ff" points="710.1,-266.86 703.3,-274.98 713.68,-272.88 710.1,-266.86"/>
</a>
</g>
</g>
<!-- Node11&#45;&gt;Node12 -->
<g id="edge16_Node000011_Node000012" class="edge">
<title>Node11&#45;&gt;Node12</title>
<g id="a_edge16_Node000011_Node000012"><a xlink:title=" ">
<path fill="none" stroke="#63b8ff" d="M597.45,-211.83C587.41,-198.95 577.49,-180.73 585,-165 606.65,-119.64 660.2,-88.29 688.98,-74.09"/>
<polygon fill="#63b8ff" stroke="#63b8ff" points="595.07,-214.44 604.21,-219.8 600.41,-209.91 595.07,-214.44"/>
</a>
</g>
</g>
<!-- Node14 -->
<g id="Node000014" class="node">
<title>Node14</title>
<g id="a_Node000014"><a xlink:href="tensor_8hpp.html" target="_top" xlink:title=" ">
<polygon fill="white" stroke="#666666" points="662,-184 594,-184 594,-165 662,-165 662,-184"/>
<text text-anchor="middle" x="628" y="-172" font-family="Helvetica,sans-Serif" font-size="10.00">tensor.hpp</text>
</a>
</g>
</g>
<!-- Node11&#45;&gt;Node14 -->
<g id="edge18_Node000011_Node000014" class="edge">
<title>Node11&#45;&gt;Node14</title>
<g id="a_edge18_Node000011_Node000014"><a xlink:title=" ">
<path fill="none" stroke="#63b8ff" d="M618.25,-209.95C620.74,-201.15 623.6,-191.06 625.57,-184.09"/>
<polygon fill="#63b8ff" stroke="#63b8ff" points="614.83,-209.17 615.48,-219.75 621.57,-211.08 614.83,-209.17"/>
</a>
</g>
</g>
<!-- Node13 -->
<g id="Node000013" class="node">
<title>Node13</title>
<g id="a_Node000013"><a xlink:href="linalg_8hpp.html" target="_top" xlink:title=" ">
<polygon fill="white" stroke="#666666" points="777.5,-19 712.5,-19 712.5,0 777.5,0 777.5,-19"/>
<text text-anchor="middle" x="745" y="-7" font-family="Helvetica,sans-Serif" font-size="10.00">linalg.hpp</text>
</a>
</g>
</g>
<!-- Node12&#45;&gt;Node13 -->
<g id="edge17_Node000012_Node000013" class="edge">
<title>Node12&#45;&gt;Node13</title>
<g id="a_edge17_Node000012_Node000013"><a xlink:title=" ">
<path fill="none" stroke="#63b8ff" d="M719.95,-46.39C726.31,-37.27 733.87,-26.45 739,-19.09"/>
<polygon fill="#63b8ff" stroke="#63b8ff" points="716.96,-44.55 714.11,-54.75 722.7,-48.55 716.96,-44.55"/>
</a>
</g>
</g>
<!-- Node16 -->
<g id="Node000016" class="node">
<title>Node16</title>
<g id="a_Node000016"><a xlink:href="linalg__cpu_8hpp.html" target="_top" xlink:title=" ">
<polygon fill="white" stroke="#666666" points="822.5,-184 735.5,-184 735.5,-165 822.5,-165 822.5,-184"/>
<text text-anchor="middle" x="779" y="-172" font-family="Helvetica,sans-Serif" font-size="10.00">linalg_cpu.hpp</text>
</a>
</g>
</g>
<!-- Node15&#45;&gt;Node16 -->
<g id="edge21_Node000015_Node000016" class="edge">
<title>Node15&#45;&gt;Node16</title>
<g id="a_edge21_Node000015_Node000016"><a xlink:title=" ">
<path fill="none" stroke="#63b8ff" d="M778.36,-209.66C778.52,-200.93 778.71,-190.99 778.84,-184.09"/>
<polygon fill="#63b8ff" stroke="#63b8ff" points="774.85,-209.68 778.17,-219.75 781.85,-209.82 774.85,-209.68"/>
</a>
</g>
</g>
<!-- Node17 -->
<g id="Node000017" class="node">
<title>Node17</title>
<g id="a_Node000017"><a xlink:href="backend__manifest_8hpp.html" target="_top" xlink:title=" ">
<polygon fill="white" stroke="#666666" points="845.5,-129 718.5,-129 718.5,-110 845.5,-110 845.5,-129"/>
<text text-anchor="middle" x="782" y="-117" font-family="Helvetica,sans-Serif" font-size="10.00">backend_manifest.hpp</text>
</a>
</g>
</g>
<!-- Node16&#45;&gt;Node17 -->
<g id="edge22_Node000016_Node000017" class="edge">
<title>Node16&#45;&gt;Node17</title>
<g id="a_edge22_Node000016_Node000017"><a xlink:title=" ">
<path fill="none" stroke="#63b8ff" d="M780.07,-154.66C780.56,-145.93 781.12,-135.99 781.51,-129.09"/>
<polygon fill="#63b8ff" stroke="#63b8ff" points="776.57,-154.57 779.5,-164.75 783.56,-154.96 776.57,-154.57"/>
</a>
</g>
</g>
<!-- Node17&#45;&gt;Node12 -->
<g id="edge24_Node000017_Node000012" class="edge">
<title>Node17&#45;&gt;Node12</title>
<g id="a_edge24_Node000017_Node000012"><a xlink:title=" ">
<path fill="none" stroke="#63b8ff" d="M761.97,-104.15C748.59,-94.57 731.44,-82.29 720.11,-74.17"/>
<polygon fill="#63b8ff" stroke="#63b8ff" points="759.94,-107.01 770.11,-109.98 764.02,-101.32 759.94,-107.01"/>
</a>
</g>
</g>
<!-- Node17&#45;&gt;Node13 -->
<g id="edge23_Node000017_Node000013" class="edge">
<title>Node17&#45;&gt;Node13</title>
<g id="a_edge23_Node000017_Node000013"><a xlink:title=" ">
<path fill="none" stroke="#63b8ff" d="M776.94,-99.92C773.35,-87.18 768.25,-69.95 763,-55 758.58,-42.42 752.66,-28.18 748.83,-19.27"/>
<polygon fill="#63b8ff" stroke="#63b8ff" points="773.63,-101.09 779.67,-109.79 780.37,-99.22 773.63,-101.09"/>
</a>
</g>
</g>
<!-- Node18&#45;&gt;Node6 -->
<g id="edge26_Node000018_Node000006" class="edge">
<title>Node18&#45;&gt;Node6</title>
<g id="a_edge26_Node000018_Node000006"><a xlink:title=" ">
<path fill="none" stroke="#63b8ff" d="M192.44,-319.83C198.91,-284.67 212.67,-209.9 217.38,-184.31"/>
<polygon fill="#63b8ff" stroke="#63b8ff" points="188.98,-319.27 190.61,-329.74 195.87,-320.54 188.98,-319.27"/>
</a>
</g>
</g>
<!-- Node18&#45;&gt;Node19 -->
<g id="edge27_Node000018_Node000019" class="edge">
<title>Node18&#45;&gt;Node19</title>
<g id="a_edge27_Node000018_Node000019"><a xlink:title=" ">
<path fill="none" stroke="#63b8ff" d="M169.69,-323.88C157.09,-314.34 141.07,-302.21 130.45,-294.17"/>
<polygon fill="#63b8ff" stroke="#63b8ff" points="167.67,-326.74 177.75,-329.98 171.89,-321.16 167.67,-326.74"/>
</a>
</g>
</g>
<!-- Node20&#45;&gt;Node10 -->
<g id="edge33_Node000020_Node000010" class="edge">
<title>Node20&#45;&gt;Node10</title>
<g id="a_edge33_Node000020_Node000010"><a xlink:title=" ">
<path fill="none" stroke="#63b8ff" d="M637.19,-375.76C650.66,-352.28 673.89,-311.81 684.03,-294.16"/>
<polygon fill="#63b8ff" stroke="#63b8ff" points="634.02,-374.25 632.07,-384.66 640.09,-377.73 634.02,-374.25"/>
</a>
</g>
</g>
<!-- Node20&#45;&gt;Node11 -->
<g id="edge32_Node000020_Node000011" class="edge">
<title>Node20&#45;&gt;Node11</title>
<g id="a_edge32_Node000020_Node000011"><a xlink:title=" ">
<path fill="none" stroke="#63b8ff" d="M625.36,-374.37C622.32,-339.03 615.95,-264.79 613.76,-239.31"/>
<polygon fill="#63b8ff" stroke="#63b8ff" points="621.9,-375.07 626.25,-384.74 628.88,-374.47 621.9,-375.07"/>
</a>
</g>
</g>
<!-- Node20&#45;&gt;Node21 -->
<g id="edge34_Node000020_Node000021" class="edge">
<title>Node20&#45;&gt;Node21</title>
<g id="a_edge34_Node000020_Node000021"><a xlink:title=" ">
<path fill="none" stroke="#63b8ff" d="M659.59,-381.42C686.12,-371.59 722.93,-357.95 746.61,-349.17"/>
<polygon fill="#63b8ff" stroke="#63b8ff" points="658.14,-378.23 649.98,-384.98 660.57,-384.79 658.14,-378.23"/>
</a>
</g>
</g>
<!-- Node21&#45;&gt;Node10 -->
<g id="edge36_Node000021_Node000010" class="edge">
<title>Node21&#45;&gt;Node10</title>
<g id="a_edge36_Node000021_Node000010"><a xlink:title=" ">
<path fill="none" stroke="#63b8ff" d="M748.49,-324.42C733.79,-314.81 714.78,-302.37 702.25,-294.17"/>
<polygon fill="#63b8ff" stroke="#63b8ff" points="746.7,-327.44 756.99,-329.98 750.53,-321.58 746.7,-327.44"/>
</a>
</g>
</g>
<!-- Node21&#45;&gt;Node12 -->
<g id="edge35_Node000021_Node000012" class="edge">
<title>Node21&#45;&gt;Node12</title>
<g id="a_edge35_Node000021_Node000012"><a xlink:title=" ">
<path fill="none" stroke="#63b8ff" d="M797.61,-324.94C828.42,-307.65 874,-274.61 874,-230.5 874,-230.5 874,-230.5 874,-173.5 874,-143.91 875.02,-130.83 854,-110 827.55,-83.8 786.16,-72.95 754.19,-68.5"/>
<polygon fill="#63b8ff" stroke="#63b8ff" points="795.74,-321.98 788.59,-329.8 799.06,-328.14 795.74,-321.98"/>
</a>
</g>
</g>
</g>
</svg>

<g id="navigator" transform="translate(0 0)" fill="#404254">
  <rect fill="#f2f5e9" fill-opacity="0.5" stroke="#606060" stroke-width=".5" x="0" y="0" width="60" height="60"/>
  <use id="zoomplus" xlink:href="#zoomPlus" x="17" y="9" onmousedown="handleZoom(evt,'in')"/>
  <use id="zoomminus" xlink:href="#zoomMin" x="42" y="9" onmousedown="handleZoom(evt,'out')"/>
  <use id="reset" xlink:href="#resetDef" x="30" y="36" onmousedown="handleReset()"/>
   <use id="arrowup" xlink:href="#arrowUp" x="0" y="0" onmousedown="handlePan(0,-1)"/>
  <use id="arrowright" xlink:href="#arrowRight" x="0" y="0" onmousedown="handlePan(1,0)"/>
  <use id="arrowdown" xlink:href="#arrowDown" x="0" y="0" onmousedown="handlePan(0,1)"/>
  <use id="arrowleft" xlink:href="#arrowLeft" x="0" y="0" onmousedown="handlePan(-1,0)"/>
</g>
<svg viewBox="0 0 15 15" width="100%" height="30px" preserveAspectRatio="xMaxYMin meet">
 <g id="arrow_out" transform="scale(0.3 0.3)">
  <a xlink:href="mdspan_8hpp__dep__incl_org.svg" target="_base">
   <rect id="button" ry="5" rx="5" y="6" x="6" height="38" width="38"
        fill="#f2f5e9" fill-opacity="0.5" stroke="#606060" stroke-width="1.0"/>
   <path id="arrow"
     d="M 11.500037,31.436501 C 11.940474,20.09759 22.043105,11.32322 32.158766,21.979434 L 37.068811,17.246167 C 37.068811,17.246167 37.088388,32 37.088388,32 L 22.160133,31.978069 C 22.160133,31.978069 26.997745,27.140456 26.997745,27.140456 C 18.528582,18.264221 13.291696,25.230495 11.500037,31.436501 z"
     style="fill:#404040;"/>
  </a>
 </g>
</svg>

<style type='text/css'>
<![CDATA[
[data-mouse-over-selected='false'] { opacity: 0.7; }
[data-mouse-over-selected='true']  { opacity: 1.0; }
]]>
</style>
<script type="application/ecmascript"><![CDATA[
document.addEventListener('DOMContentLoaded', (event) => {
  highlightEdges();
  highlightAdjacentNodes();
});
]]></script>
</svg>
