<?xml version="1.0" encoding="UTF-8" standalone="no"?>
<!DOCTYPE svg PUBLIC "-//W3C//DTD SVG 1.1//EN"
 "http://www.w3.org/Graphics/SVG/1.1/DTD/svg11.dtd">
<!-- Generated by graphviz version 2.43.0 (0)
 -->
<!-- Title: namedenum.hpp Pages: 1 -->
<svg width="1152pt" height="137pt"
 viewBox="0.00 0.00 1152.00 137.00" xmlns="http://www.w3.org/2000/svg" xmlns:xlink="http://www.w3.org/1999/xlink">
<g id="graph0" class="graph" transform="scale(1 1) rotate(0) translate(4 133)">
<title>namedenum.hpp</title>
<!-- Node1 -->
<g id="Node000001" class="node">
<title>Node1</title>
<g id="a_Node000001"><a xlink:title=" ">
<polygon fill="#999999" stroke="#666666" points="858,-129 759,-129 759,-110 858,-110 858,-129"/>
<text text-anchor="middle" x="808.5" y="-117" font-family="Helvetica,sans-Serif" font-size="10.00">namedenum.hpp</text>
</a>
</g>
</g>
<!-- Node2 -->
<g id="Node000002" class="node">
<title>Node2</title>
<g id="a_Node000002"><a xlink:href="string__util_8hpp.html" target="_top" xlink:title=" ">
<polygon fill="white" stroke="#666666" points="507.5,-74 421.5,-74 421.5,-55 507.5,-55 507.5,-74"/>
<text text-anchor="middle" x="464.5" y="-62" font-family="Helvetica,sans-Serif" font-size="10.00">string_util.hpp</text>
</a>
</g>
</g>
<!-- Node1&#45;&gt;Node2 -->
<g id="edge1_Node000001_Node000002" class="edge">
<title>Node1&#45;&gt;Node2</title>
<g id="a_edge1_Node000001_Node000002"><a xlink:title=" ">
<path fill="none" stroke="#63b8ff" d="M758.85,-110.85C694.74,-100.97 583.61,-83.85 517.78,-73.71"/>
<polygon fill="#63b8ff" stroke="#63b8ff" points="518.03,-70.21 507.62,-72.14 516.97,-77.12 518.03,-70.21"/>
</a>
</g>
</g>
<!-- Node8 -->
<g id="Node000008" class="node">
<title>Node8</title>
<g id="a_Node000008"><a xlink:title=" ">
<polygon fill="#e0e0e0" stroke="#999999" points="690,-19 625,-19 625,0 690,0 690,-19"/>
<text text-anchor="middle" x="657.5" y="-7" font-family="Helvetica,sans-Serif" font-size="10.00">stdexcept</text>
</a>
</g>
</g>
<!-- Node1&#45;&gt;Node8 -->
<g id="edge17_Node000001_Node000008" class="edge">
<title>Node1&#45;&gt;Node8</title>
<g id="a_edge17_Node000001_Node000008"><a xlink:title=" ">
<path fill="none" stroke="#63b8ff" d="M796.4,-109.84C770.55,-91.36 709.73,-47.86 677.84,-25.05"/>
<polygon fill="#63b8ff" stroke="#63b8ff" points="679.83,-22.17 669.66,-19.2 675.76,-27.86 679.83,-22.17"/>
</a>
</g>
</g>
<!-- Node9 -->
<g id="Node000009" class="node">
<title>Node9</title>
<g id="a_Node000009"><a xlink:title=" ">
<polygon fill="#e0e0e0" stroke="#999999" points="752.5,-19 708.5,-19 708.5,0 752.5,0 752.5,-19"/>
<text text-anchor="middle" x="730.5" y="-7" font-family="Helvetica,sans-Serif" font-size="10.00">string</text>
</a>
</g>
</g>
<!-- Node1&#45;&gt;Node9 -->
<g id="edge18_Node000001_Node000009" class="edge">
<title>Node1&#45;&gt;Node9</title>
<g id="a_edge18_Node000001_Node000009"><a xlink:title=" ">
<path fill="none" stroke="#63b8ff" d="M801.07,-109.83C793.61,-101 781.9,-86.83 772.5,-74 761.42,-58.88 749.72,-41.02 741.5,-28.1"/>
<polygon fill="#63b8ff" stroke="#63b8ff" points="744.25,-25.9 735.95,-19.31 738.33,-29.63 744.25,-25.9"/>
</a>
</g>
</g>
<!-- Node10 -->
<g id="Node000010" class="node">
<title>Node10</title>
<g id="a_Node000010"><a xlink:title=" ">
<polygon fill="#e0e0e0" stroke="#999999" points="844,-19 771,-19 771,0 844,0 844,-19"/>
<text text-anchor="middle" x="807.5" y="-7" font-family="Helvetica,sans-Serif" font-size="10.00">string_view</text>
</a>
</g>
</g>
<!-- Node1&#45;&gt;Node10 -->
<g id="edge19_Node000001_Node000010" class="edge">
<title>Node1&#45;&gt;Node10</title>
<g id="a_edge19_Node000001_Node000010"><a xlink:title=" ">
<path fill="none" stroke="#63b8ff" d="M800.29,-109.8C792.96,-101.38 782.75,-87.9 778.5,-74 773.43,-57.43 783.08,-39.55 792.58,-27.01"/>
<polygon fill="#63b8ff" stroke="#63b8ff" points="795.3,-29.2 798.95,-19.25 789.9,-24.76 795.3,-29.2"/>
</a>
</g>
</g>
<!-- Node14 -->
<g id="Node000014" class="node">
<title>Node14</title>
<g id="a_Node000014"><a xlink:title=" ">
<polygon fill="#e0e0e0" stroke="#999999" points="829.5,-74 787.5,-74 787.5,-55 829.5,-55 829.5,-74"/>
<text text-anchor="middle" x="808.5" y="-62" font-family="Helvetica,sans-Serif" font-size="10.00">array</text>
</a>
</g>
</g>
<!-- Node1&#45;&gt;Node14 -->
<g id="edge13_Node000001_Node000014" class="edge">
<title>Node1&#45;&gt;Node14</title>
<g id="a_edge13_Node000001_Node000014"><a xlink:title=" ">
<path fill="none" stroke="#63b8ff" d="M808.5,-109.75C808.5,-102.8 808.5,-92.85 808.5,-84.13"/>
<polygon fill="#63b8ff" stroke="#63b8ff" points="812,-84.09 808.5,-74.09 805,-84.09 812,-84.09"/>
</a>
</g>
</g>
<!-- Node15 -->
<g id="Node000015" class="node">
<title>Node15</title>
<g id="a_Node000015"><a xlink:title=" ">
<polygon fill="#e0e0e0" stroke="#999999" points="913,-74 848,-74 848,-55 913,-55 913,-74"/>
<text text-anchor="middle" x="880.5" y="-62" font-family="Helvetica,sans-Serif" font-size="10.00">exception</text>
</a>
</g>
</g>
<!-- Node1&#45;&gt;Node15 -->
<g id="edge14_Node000001_Node000015" class="edge">
<title>Node1&#45;&gt;Node15</title>
<g id="a_edge14_Node000001_Node000015"><a xlink:title=" ">
<path fill="none" stroke="#63b8ff" d="M820.07,-109.98C830.92,-102 847.38,-89.88 860.38,-80.31"/>
<polygon fill="#63b8ff" stroke="#63b8ff" points="862.74,-82.92 868.72,-74.17 858.59,-77.28 862.74,-82.92"/>
</a>
</g>
</g>
<!-- Node16 -->
<g id="Node000016" class="node">
<title>Node16</title>
<g id="a_Node000016"><a xlink:title=" ">
<polygon fill="#e0e0e0" stroke="#999999" points="1010,-74 931,-74 931,-55 1010,-55 1010,-74"/>
<text text-anchor="middle" x="970.5" y="-62" font-family="Helvetica,sans-Serif" font-size="10.00">fmt/format.h</text>
</a>
</g>
</g>
<!-- Node1&#45;&gt;Node16 -->
<g id="edge15_Node000001_Node000016" class="edge">
<title>Node1&#45;&gt;Node16</title>
<g id="a_edge15_Node000001_Node000016"><a xlink:title=" ">
<path fill="none" stroke="#63b8ff" d="M834.53,-109.98C861.61,-101.13 904.21,-87.19 934.51,-77.28"/>
<polygon fill="#63b8ff" stroke="#63b8ff" points="935.85,-80.52 944.27,-74.08 933.68,-73.87 935.85,-80.52"/>
</a>
</g>
</g>
<!-- Node17 -->
<g id="Node000017" class="node">
<title>Node17</title>
<g id="a_Node000017"><a xlink:title=" ">
<polygon fill="#e0e0e0" stroke="#999999" points="1078.5,-74 1028.5,-74 1028.5,-55 1078.5,-55 1078.5,-74"/>
<text text-anchor="middle" x="1053.5" y="-62" font-family="Helvetica,sans-Serif" font-size="10.00">format</text>
</a>
</g>
</g>
<!-- Node1&#45;&gt;Node17 -->
<g id="edge16_Node000001_Node000017" class="edge">
<title>Node1&#45;&gt;Node17</title>
<g id="a_edge16_Node000001_Node000017"><a xlink:title=" ">
<path fill="none" stroke="#63b8ff" d="M851.44,-109.93C892.06,-101.71 954.98,-88.71 1018.49,-74.17"/>
<polygon fill="#63b8ff" stroke="#63b8ff" points="1019.31,-77.57 1028.27,-71.92 1017.74,-70.75 1019.31,-77.57"/>
</a>
</g>
</g>
<!-- Node18 -->
<g id="Node000018" class="node">
<title>Node18</title>
<g id="a_Node000018"><a xlink:title=" ">
<polygon fill="#e0e0e0" stroke="#999999" points="1144,-74 1097,-74 1097,-55 1144,-55 1144,-74"/>
<text text-anchor="middle" x="1120.5" y="-62" font-family="Helvetica,sans-Serif" font-size="10.00">vector</text>
</a>
</g>
</g>
<!-- Node1&#45;&gt;Node18 -->
<g id="edge20_Node000001_Node000018" class="edge">
<title>Node1&#45;&gt;Node18</title>
<g id="a_edge20_Node000001_Node000018"><a xlink:title=" ">
<path fill="none" stroke="#63b8ff" d="M858.15,-112.02C912.06,-104.66 1000.89,-91.6 1086.85,-73.96"/>
<polygon fill="#63b8ff" stroke="#63b8ff" points="1087.69,-77.36 1096.77,-71.9 1086.27,-70.5 1087.69,-77.36"/>
</a>
</g>
</g>
<!-- Node3 -->
<g id="Node000003" class="node">
<title>Node3</title>
<g id="a_Node000003"><a xlink:title=" ">
<polygon fill="#e0e0e0" stroke="#999999" points="606.5,-19 542.5,-19 542.5,0 606.5,0 606.5,-19"/>
<text text-anchor="middle" x="574.5" y="-7" font-family="Helvetica,sans-Serif" font-size="10.00">algorithm</text>
</a>
</g>
</g>
<!-- Node2&#45;&gt;Node3 -->
<g id="edge2_Node000002_Node000003" class="edge">
<title>Node2&#45;&gt;Node3</title>
<g id="a_edge2_Node000002_Node000003"><a xlink:title=" ">
<path fill="none" stroke="#63b8ff" d="M482.17,-54.98C499.79,-46.5 527.08,-33.35 547.43,-23.54"/>
<polygon fill="#63b8ff" stroke="#63b8ff" points="549.02,-26.66 556.51,-19.17 545.98,-20.36 549.02,-26.66"/>
</a>
</g>
</g>
<!-- Node4 -->
<g id="Node000004" class="node">
<title>Node4</title>
<g id="a_Node000004"><a xlink:title=" ">
<polygon fill="#e0e0e0" stroke="#999999" points="49,-19 0,-19 0,0 49,0 49,-19"/>
<text text-anchor="middle" x="24.5" y="-7" font-family="Helvetica,sans-Serif" font-size="10.00">cctype</text>
</a>
</g>
</g>
<!-- Node2&#45;&gt;Node4 -->
<g id="edge3_Node000002_Node000004" class="edge">
<title>Node2&#45;&gt;Node4</title>
<g id="a_edge3_Node000002_Node000004"><a xlink:title=" ">
<path fill="none" stroke="#63b8ff" d="M421.43,-60.83C348.58,-55.86 196.32,-43.58 59.13,-19.07"/>
<polygon fill="#63b8ff" stroke="#63b8ff" points="59.75,-15.63 49.28,-17.29 58.5,-22.52 59.75,-15.63"/>
</a>
</g>
</g>
<!-- Node5 -->
<g id="Node000005" class="node">
<title>Node5</title>
<g id="a_Node000005"><a xlink:title=" ">
<polygon fill="#e0e0e0" stroke="#999999" points="128,-19 67,-19 67,0 128,0 128,-19"/>
<text text-anchor="middle" x="97.5" y="-7" font-family="Helvetica,sans-Serif" font-size="10.00">charconv</text>
</a>
</g>
</g>
<!-- Node2&#45;&gt;Node5 -->
<g id="edge4_Node000002_Node000005" class="edge">
<title>Node2&#45;&gt;Node5</title>
<g id="a_edge4_Node000002_Node000005"><a xlink:title=" ">
<path fill="none" stroke="#63b8ff" d="M421.49,-58.68C360.72,-51.64 246.03,-37.52 138.12,-18.98"/>
<polygon fill="#63b8ff" stroke="#63b8ff" points="138.48,-15.49 128.03,-17.23 137.28,-22.39 138.48,-15.49"/>
</a>
</g>
</g>
<!-- Node6 -->
<g id="Node000006" class="node">
<title>Node6</title>
<g id="a_Node000006"><a xlink:title=" ">
<polygon fill="#e0e0e0" stroke="#999999" points="200.5,-19 146.5,-19 146.5,0 200.5,0 200.5,-19"/>
<text text-anchor="middle" x="173.5" y="-7" font-family="Helvetica,sans-Serif" font-size="10.00">istream</text>
</a>
</g>
</g>
<!-- Node2&#45;&gt;Node6 -->
<g id="edge5_Node000002_Node000006" class="edge">
<title>Node2&#45;&gt;Node6</title>
<g id="a_edge5_Node000002_Node000006"><a xlink:title=" ">
<path fill="none" stroke="#63b8ff" d="M421.49,-56.79C372.77,-49.01 290.76,-35.39 210.83,-19.17"/>
<polygon fill="#63b8ff" stroke="#63b8ff" points="211.09,-15.65 200.59,-17.08 209.68,-22.51 211.09,-15.65"/>
</a>
</g>
</g>
<!-- Node7 -->
<g id="Node000007" class="node">
<title>Node7</title>
<g id="a_Node000007"><a xlink:title=" ">
<polygon fill="#e0e0e0" stroke="#999999" points="274.5,-19 218.5,-19 218.5,0 274.5,0 274.5,-19"/>
<text text-anchor="middle" x="246.5" y="-7" font-family="Helvetica,sans-Serif" font-size="10.00">sstream</text>
</a>
</g>
</g>
<!-- Node2&#45;&gt;Node7 -->
<g id="edge6_Node000002_Node000007" class="edge">
<title>Node2&#45;&gt;Node7</title>
<g id="a_edge6_Node000002_Node000007"><a xlink:title=" ">
<path fill="none" stroke="#63b8ff" d="M429.47,-54.98C389.75,-45.33 325.21,-29.64 284.36,-19.7"/>
<polygon fill="#63b8ff" stroke="#63b8ff" points="285.05,-16.27 274.51,-17.31 283.4,-23.07 285.05,-16.27"/>
</a>
</g>
</g>
<!-- Node2&#45;&gt;Node8 -->
<g id="edge7_Node000002_Node000008" class="edge">
<title>Node2&#45;&gt;Node8</title>
<g id="a_edge7_Node000002_Node000008"><a xlink:title=" ">
<path fill="none" stroke="#63b8ff" d="M495.51,-54.98C528.33,-45.97 580.3,-31.7 616.49,-21.76"/>
<polygon fill="#63b8ff" stroke="#63b8ff" points="617.53,-25.11 626.25,-19.08 615.68,-18.36 617.53,-25.11"/>
</a>
</g>
</g>
<!-- Node2&#45;&gt;Node9 -->
<g id="edge8_Node000002_Node000009" class="edge">
<title>Node2&#45;&gt;Node9</title>
<g id="a_edge8_Node000002_Node000009"><a xlink:title=" ">
<path fill="none" stroke="#63b8ff" d="M507.82,-56.22C552.91,-48.43 625.77,-35.24 698.39,-18.87"/>
<polygon fill="#63b8ff" stroke="#63b8ff" points="699.2,-22.28 708.17,-16.65 697.64,-15.46 699.2,-22.28"/>
</a>
</g>
</g>
<!-- Node2&#45;&gt;Node10 -->
<g id="edge9_Node000002_Node000010" class="edge">
<title>Node2&#45;&gt;Node10</title>
<g id="a_edge9_Node000002_Node000010"><a xlink:title=" ">
<path fill="none" stroke="#63b8ff" d="M507.86,-57.47C563.84,-49.59 664.54,-35.06 760.95,-19.04"/>
<polygon fill="#63b8ff" stroke="#63b8ff" points="761.57,-22.49 770.86,-17.39 760.42,-15.58 761.57,-22.49"/>
</a>
</g>
</g>
<!-- Node11 -->
<g id="Node000011" class="node">
<title>Node11</title>
<g id="a_Node000011"><a xlink:title=" ">
<polygon fill="#e0e0e0" stroke="#999999" points="374,-19 293,-19 293,0 374,0 374,-19"/>
<text text-anchor="middle" x="333.5" y="-7" font-family="Helvetica,sans-Serif" font-size="10.00">system_error</text>
</a>
</g>
</g>
<!-- Node2&#45;&gt;Node11 -->
<g id="edge10_Node000002_Node000011" class="edge">
<title>Node2&#45;&gt;Node11</title>
<g id="a_edge10_Node000002_Node000011"><a xlink:title=" ">
<path fill="none" stroke="#63b8ff" d="M443.45,-54.98C422.09,-46.34 388.8,-32.87 364.44,-23.02"/>
<polygon fill="#63b8ff" stroke="#63b8ff" points="365.51,-19.68 354.93,-19.17 362.89,-26.17 365.51,-19.68"/>
</a>
</g>
</g>
<!-- Node12 -->
<g id="Node000012" class="node">
<title>Node12</title>
<g id="a_Node000012"><a xlink:title=" ">
<polygon fill="#e0e0e0" stroke="#999999" points="461,-19 392,-19 392,0 461,0 461,-19"/>
<text text-anchor="middle" x="426.5" y="-7" font-family="Helvetica,sans-Serif" font-size="10.00">type_traits</text>
</a>
</g>
</g>
<!-- Node2&#45;&gt;Node12 -->
<g id="edge11_Node000002_Node000012" class="edge">
<title>Node2&#45;&gt;Node12</title>
<g id="a_edge11_Node000002_Node000012"><a xlink:title=" ">
<path fill="none" stroke="#63b8ff" d="M458.23,-54.75C452.91,-47.34 445.14,-36.5 438.62,-27.41"/>
<polygon fill="#63b8ff" stroke="#63b8ff" points="441.33,-25.18 432.66,-19.09 435.64,-29.26 441.33,-25.18"/>
</a>
</g>
</g>
<!-- Node13 -->
<g id="Node000013" class="node">
<title>Node13</title>
<g id="a_Node000013"><a xlink:title=" ">
<polygon fill="#e0e0e0" stroke="#999999" points="524,-19 479,-19 479,0 524,0 524,-19"/>
<text text-anchor="middle" x="501.5" y="-7" font-family="Helvetica,sans-Serif" font-size="10.00">utility</text>
</a>
</g>
</g>
<!-- Node2&#45;&gt;Node13 -->
<g id="edge12_Node000002_Node000013" class="edge">
<title>Node2&#45;&gt;Node13</title>
<g id="a_edge12_Node000002_Node000013"><a xlink:title=" ">
<path fill="none" stroke="#63b8ff" d="M470.61,-54.75C475.78,-47.34 483.35,-36.5 489.69,-27.41"/>
<polygon fill="#63b8ff" stroke="#63b8ff" points="492.65,-29.29 495.5,-19.09 486.91,-25.29 492.65,-29.29"/>
</a>
</g>
</g>
</g>
</svg>
