<?xml version="1.0" encoding="UTF-8" standalone="no"?>
<!DOCTYPE svg PUBLIC "-//W3C//DTD SVG 1.1//EN"
 "http://www.w3.org/Graphics/SVG/1.1/DTD/svg11.dtd">
<!-- Generated by graphviz version 2.43.0 (0)
 -->
<!-- Title: shared_storage.hpp Pages: 1 -->
<svg width="1577pt" height="445pt"
 viewBox="0.00 0.00 1576.86 445.00" xmlns="http://www.w3.org/2000/svg" xmlns:xlink="http://www.w3.org/1999/xlink">
<g id="graph0" class="graph" transform="scale(1 1) rotate(0) translate(4 441)">
<title>shared_storage.hpp</title>
<!-- Node1 -->
<g id="Node000001" class="node">
<title>Node1</title>
<g id="a_Node000001"><a xlink:title="Reference&#45;counted optional in&#45;place storage used by async buffers.">
<polygon fill="#999999" stroke="#666666" points="575.86,-437 462.86,-437 462.86,-418 575.86,-418 575.86,-437"/>
<text text-anchor="middle" x="519.36" y="-425" font-family="Helvetica,sans-Serif" font-size="10.00">shared_storage.hpp</text>
</a>
</g>
</g>
<!-- Node2 -->
<g id="Node000002" class="node">
<title>Node2</title>
<g id="a_Node000002"><a xlink:href="buffers_8hpp.html" target="_top" xlink:title="Awaitable gates for Async&lt;T&gt;: snapshot‐reads and in‐place writes.">
<polygon fill="white" stroke="#666666" points="494.86,-327 423.86,-327 423.86,-308 494.86,-308 494.86,-327"/>
<text text-anchor="middle" x="459.36" y="-315" font-family="Helvetica,sans-Serif" font-size="10.00">buffers.hpp</text>
</a>
</g>
</g>
<!-- Node1&#45;&gt;Node2 -->
<g id="edge1_Node000001_Node000002" class="edge">
<title>Node1&#45;&gt;Node2</title>
<g id="a_edge1_Node000001_Node000002"><a xlink:title=" ">
<path fill="none" stroke="#63b8ff" d="M509.5,-408.76C496.46,-385.28 473.97,-344.81 464.17,-327.16"/>
<polygon fill="#63b8ff" stroke="#63b8ff" points="506.53,-410.62 514.45,-417.66 512.65,-407.22 506.53,-410.62"/>
</a>
</g>
</g>
<!-- Node24 -->
<g id="Node000024" class="node">
<title>Node24</title>
<g id="a_Node000024"><a xlink:href="epoch__context_8hpp.html" target="_top" xlink:title="Manages one “generation” of write/read ordering in an Async&lt;T&gt;">
<polygon fill="white" stroke="#666666" points="625.86,-382 516.86,-382 516.86,-363 625.86,-363 625.86,-382"/>
<text text-anchor="middle" x="571.36" y="-370" font-family="Helvetica,sans-Serif" font-size="10.00">epoch_context.hpp</text>
</a>
</g>
</g>
<!-- Node1&#45;&gt;Node24 -->
<g id="edge56_Node000001_Node000024" class="edge">
<title>Node1&#45;&gt;Node24</title>
<g id="a_edge56_Node000001_Node000024"><a xlink:title=" ">
<path fill="none" stroke="#63b8ff" d="M535.04,-410.52C544.2,-401.18 555.41,-389.75 562.93,-382.09"/>
<polygon fill="#63b8ff" stroke="#63b8ff" points="532.45,-408.16 527.94,-417.75 537.44,-413.06 532.45,-408.16"/>
</a>
</g>
</g>
<!-- Node3 -->
<g id="Node000003" class="node">
<title>Node3</title>
<g id="a_Node000003"><a xlink:href="async_8hpp.html" target="_top" xlink:title="The Async&lt;T&gt; container: coroutine‐safe asynchronous read/write.">
<polygon fill="white" stroke="#666666" points="739.36,-272 673.36,-272 673.36,-253 739.36,-253 739.36,-272"/>
<text text-anchor="middle" x="706.36" y="-260" font-family="Helvetica,sans-Serif" font-size="10.00">async.hpp</text>
</a>
</g>
</g>
<!-- Node2&#45;&gt;Node3 -->
<g id="edge2_Node000002_Node000003" class="edge">
<title>Node2&#45;&gt;Node3</title>
<g id="a_edge2_Node000002_Node000003"><a xlink:title=" ">
<path fill="none" stroke="#63b8ff" d="M504.97,-306.71C553.68,-296.26 629.72,-279.94 673.09,-270.64"/>
<polygon fill="#63b8ff" stroke="#63b8ff" points="504.05,-303.33 495.01,-308.85 505.52,-310.17 504.05,-303.33"/>
</a>
</g>
</g>
<!-- Node11 -->
<g id="Node000011" class="node">
<title>Node11</title>
<g id="a_Node000011"><a xlink:href="async__impl_8hpp.html" target="_top" xlink:title="Inline implementation of Async&lt;T&gt; helpers and task await transforms.">
<polygon fill="white" stroke="#666666" points="292.86,-79.5 199.86,-79.5 199.86,-60.5 292.86,-60.5 292.86,-79.5"/>
<text text-anchor="middle" x="246.36" y="-67.5" font-family="Helvetica,sans-Serif" font-size="10.00">async_impl.hpp</text>
</a>
</g>
</g>
<!-- Node2&#45;&gt;Node11 -->
<g id="edge51_Node000002_Node000011" class="edge">
<title>Node2&#45;&gt;Node11</title>
<g id="a_edge51_Node000002_Node000011"><a xlink:title=" ">
<path fill="none" stroke="#63b8ff" d="M413.37,-313.35C309.57,-305.2 62.23,-279.48 12.36,-217 -45.82,-144.12 119.94,-97.63 202.59,-79.56"/>
<polygon fill="#63b8ff" stroke="#63b8ff" points="413.31,-316.86 423.54,-314.13 413.84,-309.88 413.31,-316.86"/>
</a>
</g>
</g>
<!-- Node15 -->
<g id="Node000015" class="node">
<title>Node15</title>
<g id="a_Node000015"><a xlink:href="async__tbb__reduction__example_8cpp.html" target="_top" xlink:title="Example of using uni20 coroutines with the TbbScheduler to parallelize a map–reduce computation.">
<polygon fill="white" stroke="#666666" points="138.86,-217 21.86,-217 21.86,-187 138.86,-187 138.86,-217"/>
<text text-anchor="start" x="29.86" y="-205" font-family="Helvetica,sans-Serif" font-size="10.00">async_tbb_reduction</text>
<text text-anchor="middle" x="80.36" y="-194" font-family="Helvetica,sans-Serif" font-size="10.00">_example.cpp</text>
</a>
</g>
</g>
<!-- Node2&#45;&gt;Node15 -->
<g id="edge52_Node000002_Node000015" class="edge">
<title>Node2&#45;&gt;Node15</title>
<g id="a_edge52_Node000002_Node000015"><a xlink:title=" ">
<path fill="none" stroke="#63b8ff" d="M421.15,-305.06C351.32,-284.15 203.29,-239.82 127.39,-217.09"/>
<polygon fill="#63b8ff" stroke="#63b8ff" points="420.29,-308.45 430.87,-307.97 422.29,-301.75 420.29,-308.45"/>
</a>
</g>
</g>
<!-- Node18 -->
<g id="Node000018" class="node">
<title>Node18</title>
<g id="a_Node000018"><a xlink:href="awaiters_8hpp.html" target="_top" xlink:title="Utilities for awaiting on Async&lt;T&gt;: co_await overload, all(), try_await().">
<polygon fill="white" stroke="#666666" points="561.36,-211.5 481.36,-211.5 481.36,-192.5 561.36,-192.5 561.36,-211.5"/>
<text text-anchor="middle" x="521.36" y="-199.5" font-family="Helvetica,sans-Serif" font-size="10.00">awaiters.hpp</text>
</a>
</g>
</g>
<!-- Node2&#45;&gt;Node18 -->
<g id="edge53_Node000002_Node000018" class="edge">
<title>Node2&#45;&gt;Node18</title>
<g id="a_edge53_Node000002_Node000018"><a xlink:title=" ">
<path fill="none" stroke="#63b8ff" d="M468.92,-298.99C482.41,-274.3 506.49,-230.21 516.64,-211.63"/>
<polygon fill="#63b8ff" stroke="#63b8ff" points="465.74,-297.52 464.02,-307.97 471.88,-300.87 465.74,-297.52"/>
</a>
</g>
</g>
<!-- Node21 -->
<g id="Node000021" class="node">
<title>Node21</title>
<g id="a_Node000021"><a xlink:href="future__value_8hpp.html" target="_top" xlink:title="Write&#45;once async wrappers (FutureValue and Defer) built on Async&lt;T&gt;.">
<polygon fill="white" stroke="#666666" points="255.86,-211.5 156.86,-211.5 156.86,-192.5 255.86,-192.5 255.86,-211.5"/>
<text text-anchor="middle" x="206.36" y="-199.5" font-family="Helvetica,sans-Serif" font-size="10.00">future_value.hpp</text>
</a>
</g>
</g>
<!-- Node2&#45;&gt;Node21 -->
<g id="edge54_Node000002_Node000021" class="edge">
<title>Node2&#45;&gt;Node21</title>
<g id="a_edge54_Node000002_Node000021"><a xlink:title=" ">
<path fill="none" stroke="#63b8ff" d="M431.04,-303.8C379.1,-280.5 269.86,-231.49 225.59,-211.63"/>
<polygon fill="#63b8ff" stroke="#63b8ff" points="429.78,-307.07 440.34,-307.97 432.65,-300.68 429.78,-307.07"/>
</a>
</g>
</g>
<!-- Node22 -->
<g id="Node000022" class="node">
<title>Node22</title>
<g id="a_Node000022"><a xlink:href="reverse__value_8hpp.html" target="_top" xlink:title="Reverse&#45;mode gradient accumulation channel built on reverse epoch queues.">
<polygon fill="white" stroke="#666666" points="1568.86,-211.5 1461.86,-211.5 1461.86,-192.5 1568.86,-192.5 1568.86,-211.5"/>
<text text-anchor="middle" x="1515.36" y="-199.5" font-family="Helvetica,sans-Serif" font-size="10.00">reverse_value.hpp</text>
</a>
</g>
</g>
<!-- Node2&#45;&gt;Node22 -->
<g id="edge55_Node000002_Node000022" class="edge">
<title>Node2&#45;&gt;Node22</title>
<g id="a_edge55_Node000002_Node000022"><a xlink:title=" ">
<path fill="none" stroke="#63b8ff" d="M505.28,-308C917.67,-249.52 1026.73,-272.64 1435.36,-217 1446.67,-215.46 1458.84,-213.49 1470.18,-211.52"/>
<polygon fill="#63b8ff" stroke="#63b8ff" points="504.57,-304.56 495.17,-309.44 505.56,-311.49 504.57,-304.56"/>
</a>
</g>
</g>
<!-- Node4 -->
<g id="Node000004" class="node">
<title>Node4</title>
<g id="a_Node000004"><a xlink:href="ad__example_8cpp.html" target="_top" xlink:title=" ">
<polygon fill="white" stroke="#666666" points="692.86,-145.5 595.86,-145.5 595.86,-126.5 692.86,-126.5 692.86,-145.5"/>
<text text-anchor="middle" x="644.36" y="-133.5" font-family="Helvetica,sans-Serif" font-size="10.00">ad_example.cpp</text>
</a>
</g>
</g>
<!-- Node3&#45;&gt;Node4 -->
<g id="edge3_Node000003_Node000004" class="edge">
<title>Node3&#45;&gt;Node4</title>
<g id="a_edge3_Node000003_Node000004"><a xlink:title=" ">
<path fill="none" stroke="#63b8ff" d="M689.94,-245.62C682.47,-237.63 674.05,-227.44 668.36,-217 655.31,-193.06 648.48,-161.14 645.77,-145.87"/>
<polygon fill="#63b8ff" stroke="#63b8ff" points="687.47,-248.1 696.96,-252.8 692.48,-243.2 687.47,-248.1"/>
</a>
</g>
</g>
<!-- Node5 -->
<g id="Node000005" class="node">
<title>Node5</title>
<g id="a_Node000005"><a xlink:href="async__buffer__semantics__example_8cpp.html" target="_top" xlink:title=" ">
<polygon fill="white" stroke="#666666" points="1291.36,-151 1157.36,-151 1157.36,-121 1291.36,-121 1291.36,-151"/>
<text text-anchor="start" x="1165.36" y="-139" font-family="Helvetica,sans-Serif" font-size="10.00">async_buffer_semantics</text>
<text text-anchor="middle" x="1224.36" y="-128" font-family="Helvetica,sans-Serif" font-size="10.00">_example.cpp</text>
</a>
</g>
</g>
<!-- Node3&#45;&gt;Node5 -->
<g id="edge4_Node000003_Node000005" class="edge">
<title>Node3&#45;&gt;Node5</title>
<g id="a_edge4_Node000003_Node000005"><a xlink:title=" ">
<path fill="none" stroke="#63b8ff" d="M749.44,-255.08C798.6,-247.44 881.25,-233.59 951.36,-217 1033.78,-197.49 1128.29,-168.22 1181.7,-151.02"/>
<polygon fill="#63b8ff" stroke="#63b8ff" points="748.83,-251.64 739.48,-256.62 749.89,-258.56 748.83,-251.64"/>
</a>
</g>
</g>
<!-- Node6 -->
<g id="Node000006" class="node">
<title>Node6</title>
<g id="a_Node000006"><a xlink:href="async__example_8cpp.html" target="_top" xlink:title=" ">
<polygon fill="white" stroke="#666666" points="577.86,-145.5 464.86,-145.5 464.86,-126.5 577.86,-126.5 577.86,-145.5"/>
<text text-anchor="middle" x="521.36" y="-133.5" font-family="Helvetica,sans-Serif" font-size="10.00">async_example.cpp</text>
</a>
</g>
</g>
<!-- Node3&#45;&gt;Node6 -->
<g id="edge5_Node000003_Node000006" class="edge">
<title>Node3&#45;&gt;Node6</title>
<g id="a_edge5_Node000003_Node000006"><a xlink:title=" ">
<path fill="none" stroke="#63b8ff" d="M685.2,-247.27C646.54,-221.24 565.54,-166.74 534.16,-145.62"/>
<polygon fill="#63b8ff" stroke="#63b8ff" points="683.39,-250.26 693.64,-252.94 687.3,-244.46 683.39,-250.26"/>
</a>
</g>
</g>
<!-- Node7 -->
<g id="Node000007" class="node">
<title>Node7</title>
<g id="a_Node000007"><a xlink:href="async__example2_8cpp.html" target="_top" xlink:title=" ">
<polygon fill="white" stroke="#666666" points="900.86,-79.5 781.86,-79.5 781.86,-60.5 900.86,-60.5 900.86,-79.5"/>
<text text-anchor="middle" x="841.36" y="-67.5" font-family="Helvetica,sans-Serif" font-size="10.00">async_example2.cpp</text>
</a>
</g>
</g>
<!-- Node3&#45;&gt;Node7 -->
<g id="edge6_Node000003_Node000007" class="edge">
<title>Node3&#45;&gt;Node7</title>
<g id="a_edge6_Node000003_Node000007"><a xlink:title=" ">
<path fill="none" stroke="#63b8ff" d="M749.44,-256.74C880.2,-241.86 1265.76,-194.6 1300.36,-151 1308.64,-140.56 1309.34,-130.85 1300.36,-121 1271.03,-88.85 953.41,-91.34 910.36,-85 900.32,-83.52 889.54,-81.53 879.55,-79.52"/>
<polygon fill="#63b8ff" stroke="#63b8ff" points="748.93,-253.28 739.39,-257.88 749.72,-260.23 748.93,-253.28"/>
</a>
</g>
</g>
<!-- Node8 -->
<g id="Node000008" class="node">
<title>Node8</title>
<g id="a_Node000008"><a xlink:href="async__fib__example_8cpp.html" target="_top" xlink:title=" ">
<polygon fill="white" stroke="#666666" points="1188.86,-79.5 1057.86,-79.5 1057.86,-60.5 1188.86,-60.5 1188.86,-79.5"/>
<text text-anchor="middle" x="1123.36" y="-67.5" font-family="Helvetica,sans-Serif" font-size="10.00">async_fib_example.cpp</text>
</a>
</g>
</g>
<!-- Node3&#45;&gt;Node8 -->
<g id="edge7_Node000003_Node000008" class="edge">
<title>Node3&#45;&gt;Node8</title>
<g id="a_edge7_Node000003_Node000008"><a xlink:title=" ">
<path fill="none" stroke="#63b8ff" d="M749.72,-258.27C870.23,-249.25 1201.79,-223.93 1224.36,-217 1281.8,-199.37 1311.96,-202.83 1342.36,-151 1349.1,-139.5 1350.67,-131.42 1342.36,-121 1336.85,-114.09 1229.36,-91.9 1167.06,-79.53"/>
<polygon fill="#63b8ff" stroke="#63b8ff" points="749.11,-254.81 739.4,-259.05 749.64,-261.79 749.11,-254.81"/>
</a>
</g>
</g>
<!-- Node9 -->
<g id="Node000009" class="node">
<title>Node9</title>
<g id="a_Node000009"><a xlink:href="async__kernel__shapes__example_8cpp.html" target="_top" xlink:title=" ">
<polygon fill="white" stroke="#666666" points="1039.36,-85 919.36,-85 919.36,-55 1039.36,-55 1039.36,-85"/>
<text text-anchor="start" x="927.36" y="-73" font-family="Helvetica,sans-Serif" font-size="10.00">async_kernel_shapes</text>
<text text-anchor="middle" x="979.36" y="-62" font-family="Helvetica,sans-Serif" font-size="10.00">_example.cpp</text>
</a>
</g>
</g>
<!-- Node3&#45;&gt;Node9 -->
<g id="edge8_Node000003_Node000009" class="edge">
<title>Node3&#45;&gt;Node9</title>
<g id="a_edge8_Node000003_Node000009"><a xlink:title=" ">
<path fill="none" stroke="#63b8ff" d="M749.61,-257.7C851.89,-248.61 1102.92,-225.75 1140.36,-217 1222.11,-197.9 1269.47,-219.96 1317.36,-151 1417.86,-6.26 1584.71,-174.4 1049.36,-85 1046.18,-84.47 1042.92,-83.9 1039.64,-83.31"/>
<polygon fill="#63b8ff" stroke="#63b8ff" points="749.26,-254.21 739.61,-258.58 749.88,-261.19 749.26,-254.21"/>
</a>
</g>
</g>
<!-- Node10 -->
<g id="Node000010" class="node">
<title>Node10</title>
<g id="a_Node000010"><a xlink:href="async__ops_8hpp.html" target="_top" xlink:title="Concepts and helpers for composing Async expressions.">
<polygon fill="white" stroke="#666666" points="838.86,-145.5 749.86,-145.5 749.86,-126.5 838.86,-126.5 838.86,-145.5"/>
<text text-anchor="middle" x="794.36" y="-133.5" font-family="Helvetica,sans-Serif" font-size="10.00">async_ops.hpp</text>
</a>
</g>
</g>
<!-- Node3&#45;&gt;Node10 -->
<g id="edge9_Node000003_Node000010" class="edge">
<title>Node3&#45;&gt;Node10</title>
<g id="a_edge9_Node000003_Node000010"><a xlink:title=" ">
<path fill="none" stroke="#63b8ff" d="M737.06,-248.28C750.7,-240.94 765.79,-230.52 775.36,-217 791.1,-194.74 793.93,-161.16 794.35,-145.55"/>
<polygon fill="#63b8ff" stroke="#63b8ff" points="735.3,-245.25 727.94,-252.87 738.44,-251.5 735.3,-245.25"/>
</a>
</g>
</g>
<!-- Node12 -->
<g id="Node000012" class="node">
<title>Node12</title>
<g id="a_Node000012"><a xlink:href="async__ops__example_8cpp.html" target="_top" xlink:title=" ">
<polygon fill="white" stroke="#666666" points="725.36,-79.5 589.36,-79.5 589.36,-60.5 725.36,-60.5 725.36,-79.5"/>
<text text-anchor="middle" x="657.36" y="-67.5" font-family="Helvetica,sans-Serif" font-size="10.00">async_ops_example.cpp</text>
</a>
</g>
</g>
<!-- Node3&#45;&gt;Node12 -->
<g id="edge18_Node000003_Node000012" class="edge">
<title>Node3&#45;&gt;Node12</title>
<g id="a_edge18_Node000003_Node000012"><a xlink:title=" ">
<path fill="none" stroke="#63b8ff" d="M663.08,-258.23C603.64,-252.93 500.82,-240.58 472.36,-217 448.08,-196.89 452.24,-181.97 446.36,-151 443.87,-137.9 438.09,-131.46 446.36,-121 464.01,-98.67 534.46,-85.27 589.15,-78.05"/>
<polygon fill="#63b8ff" stroke="#63b8ff" points="663.03,-261.74 673.3,-259.11 663.64,-254.77 663.03,-261.74"/>
</a>
</g>
</g>
<!-- Node13 -->
<g id="Node000013" class="node">
<title>Node13</title>
<g id="a_Node000013"><a xlink:href="future__example_8cpp.html" target="_top" xlink:title=" ">
<polygon fill="white" stroke="#666666" points="513.36,-79.5 399.36,-79.5 399.36,-60.5 513.36,-60.5 513.36,-79.5"/>
<text text-anchor="middle" x="456.36" y="-67.5" font-family="Helvetica,sans-Serif" font-size="10.00">future_example.cpp</text>
</a>
</g>
</g>
<!-- Node3&#45;&gt;Node13 -->
<g id="edge43_Node000003_Node000013" class="edge">
<title>Node3&#45;&gt;Node13</title>
<g id="a_edge43_Node000003_Node000013"><a xlink:title=" ">
<path fill="none" stroke="#63b8ff" d="M663.04,-260.02C597.26,-256.81 476.69,-246.92 447.36,-217 410.02,-178.92 439.99,-105.07 451.97,-79.76"/>
<polygon fill="#63b8ff" stroke="#63b8ff" points="662.96,-263.52 673.11,-260.47 663.28,-256.52 662.96,-263.52"/>
</a>
</g>
</g>
<!-- Node3&#45;&gt;Node15 -->
<g id="edge19_Node000003_Node000015" class="edge">
<title>Node3&#45;&gt;Node15</title>
<g id="a_edge19_Node000003_Node000015"><a xlink:title=" ">
<path fill="none" stroke="#63b8ff" d="M663.11,-259.92C568.94,-256.08 338.46,-244.46 147.36,-217 144.65,-216.61 141.89,-216.18 139.11,-215.72"/>
<polygon fill="#63b8ff" stroke="#63b8ff" points="662.98,-263.42 673.12,-260.32 663.26,-256.43 662.98,-263.42"/>
</a>
</g>
</g>
<!-- Node16 -->
<g id="Node000016" class="node">
<title>Node16</title>
<g id="a_Node000016"><a xlink:href="async__toys_8hpp.html" target="_top" xlink:title="Small async helper operations used in tests and examples.">
<polygon fill="white" stroke="#666666" points="987.36,-145.5 895.36,-145.5 895.36,-126.5 987.36,-126.5 987.36,-145.5"/>
<text text-anchor="middle" x="941.36" y="-133.5" font-family="Helvetica,sans-Serif" font-size="10.00">async_toys.hpp</text>
</a>
</g>
</g>
<!-- Node3&#45;&gt;Node16 -->
<g id="edge20_Node000003_Node000016" class="edge">
<title>Node3&#45;&gt;Node16</title>
<g id="a_edge20_Node000003_Node000016"><a xlink:title=" ">
<path fill="none" stroke="#63b8ff" d="M698.99,-242.89C693.79,-226.36 689.76,-202.5 702.36,-187 708.46,-179.48 827.65,-157.22 895.35,-145.09"/>
<polygon fill="#63b8ff" stroke="#63b8ff" points="695.77,-244.27 702.41,-252.52 702.36,-241.93 695.77,-244.27"/>
</a>
</g>
</g>
<!-- Node3&#45;&gt;Node18 -->
<g id="edge25_Node000003_Node000018" class="edge">
<title>Node3&#45;&gt;Node18</title>
<g id="a_edge25_Node000003_Node000018"><a xlink:title=" ">
<path fill="none" stroke="#63b8ff" d="M669.87,-249.96C634.09,-238.65 580.36,-221.66 548.29,-211.52"/>
<polygon fill="#63b8ff" stroke="#63b8ff" points="668.87,-253.32 679.46,-252.99 670.98,-246.64 668.87,-253.32"/>
</a>
</g>
</g>
<!-- Node19 -->
<g id="Node000019" class="node">
<title>Node19</title>
<g id="a_Node000019"><a xlink:href="bug_8cpp.html" target="_top" xlink:title=" ">
<polygon fill="white" stroke="#666666" points="765.86,-211.5 710.86,-211.5 710.86,-192.5 765.86,-192.5 765.86,-211.5"/>
<text text-anchor="middle" x="738.36" y="-199.5" font-family="Helvetica,sans-Serif" font-size="10.00">bug.cpp</text>
</a>
</g>
</g>
<!-- Node3&#45;&gt;Node19 -->
<g id="edge31_Node000003_Node000019" class="edge">
<title>Node3&#45;&gt;Node19</title>
<g id="a_edge31_Node000003_Node000019"><a xlink:title=" ">
<path fill="none" stroke="#63b8ff" d="M715.94,-243.98C721.78,-233.31 728.98,-220.15 733.61,-211.67"/>
<polygon fill="#63b8ff" stroke="#63b8ff" points="712.81,-242.42 711.08,-252.87 718.95,-245.77 712.81,-242.42"/>
</a>
</g>
</g>
<!-- Node20 -->
<g id="Node000020" class="node">
<title>Node20</title>
<g id="a_Node000020"><a xlink:href="debug__scheduler_8hpp.html" target="_top" xlink:title="Coroutine scheduler for AsyncTask.">
<polygon fill="white" stroke="#666666" points="941.86,-211.5 822.86,-211.5 822.86,-192.5 941.86,-192.5 941.86,-211.5"/>
<text text-anchor="middle" x="882.36" y="-199.5" font-family="Helvetica,sans-Serif" font-size="10.00">debug_scheduler.hpp</text>
</a>
</g>
</g>
<!-- Node3&#45;&gt;Node20 -->
<g id="edge32_Node000003_Node000020" class="edge">
<title>Node3&#45;&gt;Node20</title>
<g id="a_edge32_Node000003_Node000020"><a xlink:title=" ">
<path fill="none" stroke="#63b8ff" d="M741.5,-249.82C775.54,-238.5 826.35,-221.62 856.73,-211.52"/>
<polygon fill="#63b8ff" stroke="#63b8ff" points="740.33,-246.52 731.95,-252.99 742.54,-253.16 740.33,-246.52"/>
</a>
</g>
</g>
<!-- Node3&#45;&gt;Node21 -->
<g id="edge44_Node000003_Node000021" class="edge">
<title>Node3&#45;&gt;Node21</title>
<g id="a_edge44_Node000003_Node000021"><a xlink:title=" ">
<path fill="none" stroke="#63b8ff" d="M663.09,-258.72C584.51,-253.31 413.27,-239.85 270.36,-217 261.15,-215.53 251.27,-213.56 242.1,-211.57"/>
<polygon fill="#63b8ff" stroke="#63b8ff" points="662.88,-262.21 673.1,-259.4 663.36,-255.23 662.88,-262.21"/>
</a>
</g>
</g>
<!-- Node3&#45;&gt;Node22 -->
<g id="edge46_Node000003_Node000022" class="edge">
<title>Node3&#45;&gt;Node22</title>
<g id="a_edge46_Node000003_Node000022"><a xlink:title=" ">
<path fill="none" stroke="#63b8ff" d="M749.48,-261.06C863.77,-259.44 1183.77,-251.87 1447.36,-217 1457.63,-215.64 1468.68,-213.61 1478.82,-211.52"/>
<polygon fill="#63b8ff" stroke="#63b8ff" points="749.34,-257.56 739.38,-261.2 749.43,-264.56 749.34,-257.56"/>
</a>
</g>
</g>
<!-- Node23 -->
<g id="Node000023" class="node">
<title>Node23</title>
<g id="a_Node000023"><a xlink:href="var_8hpp.html" target="_top" xlink:title=" ">
<polygon fill="white" stroke="#666666" points="1476.86,-145.5 1423.86,-145.5 1423.86,-126.5 1476.86,-126.5 1476.86,-145.5"/>
<text text-anchor="middle" x="1450.36" y="-133.5" font-family="Helvetica,sans-Serif" font-size="10.00">var.hpp</text>
</a>
</g>
</g>
<!-- Node3&#45;&gt;Node23 -->
<g id="edge50_Node000003_Node000023" class="edge">
<title>Node3&#45;&gt;Node23</title>
<g id="a_edge50_Node000003_Node000023"><a xlink:title=" ">
<path fill="none" stroke="#63b8ff" d="M749.72,-261.22C894.36,-259.95 1354.29,-253.09 1409.36,-217 1434.81,-200.32 1445.27,-162.63 1448.82,-145.62"/>
<polygon fill="#63b8ff" stroke="#63b8ff" points="749.43,-257.72 739.46,-261.31 749.49,-264.72 749.43,-257.72"/>
</a>
</g>
</g>
<!-- Node10&#45;&gt;Node7 -->
<g id="edge10_Node000010_Node000007" class="edge">
<title>Node10&#45;&gt;Node7</title>
<g id="a_edge10_Node000010_Node000007"><a xlink:title=" ">
<path fill="none" stroke="#63b8ff" d="M806.64,-118.27C815.66,-105.99 827.55,-89.8 834.82,-79.91"/>
<polygon fill="#63b8ff" stroke="#63b8ff" points="803.79,-116.24 800.69,-126.37 809.43,-120.38 803.79,-116.24"/>
</a>
</g>
</g>
<!-- Node10&#45;&gt;Node8 -->
<g id="edge11_Node000010_Node000008" class="edge">
<title>Node10&#45;&gt;Node8</title>
<g id="a_edge11_Node000010_Node000008"><a xlink:title=" ">
<path fill="none" stroke="#63b8ff" d="M848.38,-124.49C912.99,-111.92 1019.89,-91.13 1079.59,-79.51"/>
<polygon fill="#63b8ff" stroke="#63b8ff" points="847.53,-121.09 838.38,-126.44 848.87,-127.96 847.53,-121.09"/>
</a>
</g>
</g>
<!-- Node10&#45;&gt;Node9 -->
<g id="edge14_Node000010_Node000009" class="edge">
<title>Node10&#45;&gt;Node9</title>
<g id="a_edge14_Node000010_Node000009"><a xlink:title=" ">
<path fill="none" stroke="#63b8ff" d="M828.85,-123.07C859.93,-112.31 905.66,-96.49 938.55,-85.12"/>
<polygon fill="#63b8ff" stroke="#63b8ff" points="827.61,-119.79 819.31,-126.37 829.9,-126.41 827.61,-119.79"/>
</a>
</g>
</g>
<!-- Node10&#45;&gt;Node11 -->
<g id="edge12_Node000010_Node000011" class="edge">
<title>Node10&#45;&gt;Node11</title>
<g id="a_edge12_Node000010_Node000011"><a xlink:title=" ">
<path fill="none" stroke="#63b8ff" d="M739.44,-126.26C727.24,-124.42 714.37,-122.57 702.36,-121 553.11,-101.47 375.69,-83.52 293.04,-75.47"/>
<polygon fill="#63b8ff" stroke="#63b8ff" points="739.07,-129.74 749.49,-127.79 740.13,-122.82 739.07,-129.74"/>
</a>
</g>
</g>
<!-- Node10&#45;&gt;Node12 -->
<g id="edge15_Node000010_Node000012" class="edge">
<title>Node10&#45;&gt;Node12</title>
<g id="a_edge15_Node000010_Node000012"><a xlink:title=" ">
<path fill="none" stroke="#63b8ff" d="M766.59,-122.03C739.59,-109.42 699.33,-90.61 675.98,-79.7"/>
<polygon fill="#63b8ff" stroke="#63b8ff" points="765.34,-125.31 775.88,-126.37 768.3,-118.97 765.34,-125.31"/>
</a>
</g>
</g>
<!-- Node10&#45;&gt;Node13 -->
<g id="edge16_Node000010_Node000013" class="edge">
<title>Node10&#45;&gt;Node13</title>
<g id="a_edge16_Node000010_Node000013"><a xlink:title=" ">
<path fill="none" stroke="#63b8ff" d="M749.87,-124.16C744.98,-123.06 740.07,-121.98 735.36,-121 656.83,-104.66 565.19,-88.86 508.97,-79.53"/>
<polygon fill="#63b8ff" stroke="#63b8ff" points="749.27,-127.62 759.8,-126.46 750.84,-120.8 749.27,-127.62"/>
</a>
</g>
</g>
<!-- Node14 -->
<g id="Node000014" class="node">
<title>Node14</title>
<g id="a_Node000014"><a xlink:href="gradient__solver_8cpp.html" target="_top" xlink:title=" ">
<polygon fill="white" stroke="#666666" points="1337.36,-19 1225.36,-19 1225.36,0 1337.36,0 1337.36,-19"/>
<text text-anchor="middle" x="1281.36" y="-7" font-family="Helvetica,sans-Serif" font-size="10.00">gradient_solver.cpp</text>
</a>
</g>
</g>
<!-- Node10&#45;&gt;Node14 -->
<g id="edge17_Node000010_Node000014" class="edge">
<title>Node10&#45;&gt;Node14</title>
<g id="a_edge17_Node000010_Node000014"><a xlink:title=" ">
<path fill="none" stroke="#63b8ff" d="M781.9,-117.99C770.46,-100.14 757.5,-72.31 773.36,-55 803.41,-22.2 1099.44,-13.47 1225.25,-11.24"/>
<polygon fill="#63b8ff" stroke="#63b8ff" points="779.05,-120.03 787.58,-126.31 784.83,-116.08 779.05,-120.03"/>
</a>
</g>
</g>
<!-- Node11&#45;&gt;Node3 -->
<g id="edge13_Node000011_Node000003" class="edge">
<title>Node11&#45;&gt;Node3</title>
<g id="a_edge13_Node000011_Node000003"><a xlink:title=" ">
<path fill="none" stroke="#63b8ff" d="M260.97,-87.49C289.53,-118.53 356.21,-185.36 427.36,-217 510.27,-253.87 619.05,-260.69 673.01,-261.64"/>
<polygon fill="#63b8ff" stroke="#63b8ff" points="263.26,-84.8 253.95,-79.74 258.07,-89.5 263.26,-84.8"/>
</a>
</g>
</g>
<!-- Node16&#45;&gt;Node7 -->
<g id="edge21_Node000016_Node000007" class="edge">
<title>Node16&#45;&gt;Node7</title>
<g id="a_edge21_Node000016_Node000007"><a xlink:title=" ">
<path fill="none" stroke="#63b8ff" d="M919.25,-120.85C899.59,-108.27 871.47,-90.28 854.95,-79.7"/>
<polygon fill="#63b8ff" stroke="#63b8ff" points="917.56,-123.93 927.87,-126.37 921.33,-118.03 917.56,-123.93"/>
</a>
</g>
</g>
<!-- Node16&#45;&gt;Node13 -->
<g id="edge22_Node000016_Node000013" class="edge">
<title>Node16&#45;&gt;Node13</title>
<g id="a_edge22_Node000016_Node000013"><a xlink:title=" ">
<path fill="none" stroke="#63b8ff" d="M885.04,-126.31C872.95,-124.51 860.23,-122.65 848.36,-121 729.44,-104.47 589.92,-87.17 513.54,-77.88"/>
<polygon fill="#63b8ff" stroke="#63b8ff" points="884.62,-129.79 895.03,-127.82 885.66,-122.87 884.62,-129.79"/>
</a>
</g>
</g>
<!-- Node17 -->
<g id="Node000017" class="node">
<title>Node17</title>
<g id="a_Node000017"><a xlink:href="var__toys_8hpp.html" target="_top" xlink:title="Demonstration reverse&#45;mode helpers built on Var&lt;T&gt;.">
<polygon fill="white" stroke="#666666" points="1287.36,-79.5 1207.36,-79.5 1207.36,-60.5 1287.36,-60.5 1287.36,-79.5"/>
<text text-anchor="middle" x="1247.36" y="-67.5" font-family="Helvetica,sans-Serif" font-size="10.00">var_toys.hpp</text>
</a>
</g>
</g>
<!-- Node16&#45;&gt;Node17 -->
<g id="edge23_Node000016_Node000017" class="edge">
<title>Node16&#45;&gt;Node17</title>
<g id="a_edge23_Node000016_Node000017"><a xlink:title=" ">
<path fill="none" stroke="#63b8ff" d="M997.65,-125.49C1049.92,-116.32 1129.77,-101.44 1198.36,-85 1205.07,-83.39 1212.24,-81.46 1218.96,-79.56"/>
<polygon fill="#63b8ff" stroke="#63b8ff" points="996.82,-122.08 987.57,-127.25 998.03,-128.98 996.82,-122.08"/>
</a>
</g>
</g>
<!-- Node17&#45;&gt;Node14 -->
<g id="edge24_Node000017_Node000014" class="edge">
<title>Node17&#45;&gt;Node14</title>
<g id="a_edge24_Node000017_Node000014"><a xlink:title=" ">
<path fill="none" stroke="#63b8ff" d="M1257.54,-51.48C1263.74,-40.81 1271.39,-27.65 1276.32,-19.17"/>
<polygon fill="#63b8ff" stroke="#63b8ff" points="1254.37,-49.96 1252.37,-60.37 1260.42,-53.48 1254.37,-49.96"/>
</a>
</g>
</g>
<!-- Node18&#45;&gt;Node4 -->
<g id="edge26_Node000018_Node000004" class="edge">
<title>Node18&#45;&gt;Node4</title>
<g id="a_edge26_Node000018_Node000004"><a xlink:title=" ">
<path fill="none" stroke="#63b8ff" d="M546.93,-187.69C571.16,-175.09 606.85,-156.51 627.64,-145.7"/>
<polygon fill="#63b8ff" stroke="#63b8ff" points="545.2,-184.65 537.94,-192.37 548.43,-190.86 545.2,-184.65"/>
</a>
</g>
</g>
<!-- Node18&#45;&gt;Node6 -->
<g id="edge27_Node000018_Node000006" class="edge">
<title>Node18&#45;&gt;Node6</title>
<g id="a_edge27_Node000018_Node000006"><a xlink:title=" ">
<path fill="none" stroke="#63b8ff" d="M521.36,-182.08C521.36,-170.13 521.36,-155.22 521.36,-145.91"/>
<polygon fill="#63b8ff" stroke="#63b8ff" points="517.86,-182.37 521.36,-192.37 524.86,-182.37 517.86,-182.37"/>
</a>
</g>
</g>
<!-- Node18&#45;&gt;Node7 -->
<g id="edge28_Node000018_Node000007" class="edge">
<title>Node18&#45;&gt;Node7</title>
<g id="a_edge28_Node000018_Node000007"><a xlink:title=" ">
<path fill="none" stroke="#63b8ff" d="M496.64,-187.19C470.77,-171.03 436.49,-143.61 456.36,-121 497.48,-74.21 672.58,-93.04 734.36,-85 749.68,-83 766.24,-80.84 781.65,-78.83"/>
<polygon fill="#63b8ff" stroke="#63b8ff" points="494.96,-190.27 505.33,-192.41 498.56,-184.27 494.96,-190.27"/>
</a>
</g>
</g>
<!-- Node18&#45;&gt;Node10 -->
<g id="edge29_Node000018_Node000010" class="edge">
<title>Node18&#45;&gt;Node10</title>
<g id="a_edge29_Node000018_Node000010"><a xlink:title=" ">
<path fill="none" stroke="#63b8ff" d="M567.85,-190.1C621.62,-177.49 709.01,-157.01 758.04,-145.51"/>
<polygon fill="#63b8ff" stroke="#63b8ff" points="566.83,-186.74 557.89,-192.44 568.43,-193.56 566.83,-186.74"/>
</a>
</g>
</g>
<!-- Node18&#45;&gt;Node13 -->
<g id="edge30_Node000018_Node000013" class="edge">
<title>Node18&#45;&gt;Node13</title>
<g id="a_edge30_Node000018_Node000013"><a xlink:title=" ">
<path fill="none" stroke="#63b8ff" d="M474.09,-189.06C454.54,-181.54 433.8,-169.6 422.36,-151 407.49,-126.84 432.79,-95.02 447.29,-79.82"/>
<polygon fill="#63b8ff" stroke="#63b8ff" points="472.96,-192.37 483.55,-192.41 475.29,-185.77 472.96,-192.37"/>
</a>
</g>
</g>
<!-- Node20&#45;&gt;Node4 -->
<g id="edge33_Node000020_Node000004" class="edge">
<title>Node20&#45;&gt;Node4</title>
<g id="a_edge33_Node000020_Node000004"><a xlink:title=" ">
<path fill="none" stroke="#63b8ff" d="M840.42,-189.72C793.55,-177.12 718.7,-156.99 676.32,-145.6"/>
<polygon fill="#63b8ff" stroke="#63b8ff" points="839.69,-193.15 850.26,-192.37 841.51,-186.39 839.69,-193.15"/>
</a>
</g>
</g>
<!-- Node20&#45;&gt;Node5 -->
<g id="edge34_Node000020_Node000005" class="edge">
<title>Node20&#45;&gt;Node5</title>
<g id="a_edge34_Node000020_Node000005"><a xlink:title=" ">
<path fill="none" stroke="#63b8ff" d="M938.15,-190.56C998.02,-179.35 1093.12,-161.56 1157.09,-149.59"/>
<polygon fill="#63b8ff" stroke="#63b8ff" points="937.31,-187.16 928.12,-192.44 938.6,-194.04 937.31,-187.16"/>
</a>
</g>
</g>
<!-- Node20&#45;&gt;Node6 -->
<g id="edge35_Node000020_Node000006" class="edge">
<title>Node20&#45;&gt;Node6</title>
<g id="a_edge35_Node000020_Node000006"><a xlink:title=" ">
<path fill="none" stroke="#63b8ff" d="M818.08,-190.89C758.22,-181.28 666.58,-166.11 587.36,-151 578.61,-149.33 569.24,-147.42 560.39,-145.56"/>
<polygon fill="#63b8ff" stroke="#63b8ff" points="817.71,-194.37 828.14,-192.5 818.81,-187.46 817.71,-194.37"/>
</a>
</g>
</g>
<!-- Node20&#45;&gt;Node7 -->
<g id="edge36_Node000020_Node000007" class="edge">
<title>Node20&#45;&gt;Node7</title>
<g id="a_edge36_Node000020_Node000007"><a xlink:title=" ">
<path fill="none" stroke="#63b8ff" d="M926.14,-189.48C967.33,-176.43 1019.48,-152.76 996.36,-121 989.01,-110.91 918.12,-90.97 874.79,-79.55"/>
<polygon fill="#63b8ff" stroke="#63b8ff" points="925.04,-186.16 916.49,-192.42 927.08,-192.86 925.04,-186.16"/>
</a>
</g>
</g>
<!-- Node20&#45;&gt;Node8 -->
<g id="edge37_Node000020_Node000008" class="edge">
<title>Node20&#45;&gt;Node8</title>
<g id="a_edge37_Node000020_Node000008"><a xlink:title=" ">
<path fill="none" stroke="#63b8ff" d="M928.73,-189.86C958.39,-181.61 997.04,-168.72 1028.36,-151 1064.39,-130.61 1099.81,-95.81 1115.27,-79.68"/>
<polygon fill="#63b8ff" stroke="#63b8ff" points="927.78,-186.49 919.04,-192.48 929.6,-193.25 927.78,-186.49"/>
</a>
</g>
</g>
<!-- Node20&#45;&gt;Node9 -->
<g id="edge38_Node000020_Node000009" class="edge">
<title>Node20&#45;&gt;Node9</title>
<g id="a_edge38_Node000020_Node000009"><a xlink:title=" ">
<path fill="none" stroke="#63b8ff" d="M951.77,-190.55C974.95,-183.38 998.4,-171.32 1012.36,-151 1026.73,-130.07 1007.74,-101.91 993.18,-85.19"/>
<polygon fill="#63b8ff" stroke="#63b8ff" points="950.56,-187.25 941.88,-193.33 952.46,-193.99 950.56,-187.25"/>
</a>
</g>
</g>
<!-- Node20&#45;&gt;Node10 -->
<g id="edge39_Node000020_Node000010" class="edge">
<title>Node20&#45;&gt;Node10</title>
<g id="a_edge39_Node000020_Node000010"><a xlink:title=" ">
<path fill="none" stroke="#63b8ff" d="M862.19,-186.33C844.93,-173.78 820.66,-156.13 806.32,-145.7"/>
<polygon fill="#63b8ff" stroke="#63b8ff" points="860.34,-189.32 870.49,-192.37 864.46,-183.66 860.34,-189.32"/>
</a>
</g>
</g>
<!-- Node20&#45;&gt;Node12 -->
<g id="edge40_Node000020_Node000012" class="edge">
<title>Node20&#45;&gt;Node12</title>
<g id="a_edge40_Node000020_Node000012"><a xlink:title=" ">
<path fill="none" stroke="#63b8ff" d="M879.23,-182C875.23,-163.75 866.51,-136.69 848.36,-121 827.8,-103.24 759.48,-88.31 710.42,-79.51"/>
<polygon fill="#63b8ff" stroke="#63b8ff" points="875.84,-182.89 881.15,-192.05 882.71,-181.57 875.84,-182.89"/>
</a>
</g>
</g>
<!-- Node20&#45;&gt;Node13 -->
<g id="edge41_Node000020_Node000013" class="edge">
<title>Node20&#45;&gt;Node13</title>
<g id="a_edge41_Node000020_Node000013"><a xlink:title=" ">
<path fill="none" stroke="#63b8ff" d="M839.45,-189.63C810.72,-181.1 772.58,-167.99 741.36,-151 722.15,-140.55 722.25,-130.08 702.36,-121 669.35,-105.94 575.22,-89.32 513.43,-79.54"/>
<polygon fill="#63b8ff" stroke="#63b8ff" points="838.62,-193.03 849.2,-192.45 840.57,-186.31 838.62,-193.03"/>
</a>
</g>
</g>
<!-- Node20&#45;&gt;Node14 -->
<g id="edge42_Node000020_Node000014" class="edge">
<title>Node20&#45;&gt;Node14</title>
<g id="a_edge42_Node000020_Node000014"><a xlink:title=" ">
<path fill="none" stroke="#63b8ff" d="M925.57,-189.84C962.18,-180.18 1015.96,-165.52 1062.36,-151 1100.99,-138.91 1109.53,-132.46 1148.36,-121 1213.28,-101.83 1254.53,-138.23 1296.36,-85 1311.68,-65.5 1296.41,-34.46 1287.21,-19.35"/>
<polygon fill="#63b8ff" stroke="#63b8ff" points="924.5,-186.5 915.72,-192.42 926.28,-193.27 924.5,-186.5"/>
</a>
</g>
</g>
<!-- Node21&#45;&gt;Node13 -->
<g id="edge45_Node000021_Node000013" class="edge">
<title>Node21&#45;&gt;Node13</title>
<g id="a_edge45_Node000021_Node000013"><a xlink:title=" ">
<path fill="none" stroke="#63b8ff" d="M222.69,-185.27C241.86,-167.55 275.24,-138.9 308.36,-121 344.38,-101.53 389.4,-87.63 420.27,-79.51"/>
<polygon fill="#63b8ff" stroke="#63b8ff" points="220.05,-182.95 215.17,-192.35 224.85,-188.05 220.05,-182.95"/>
</a>
</g>
</g>
<!-- Node22&#45;&gt;Node23 -->
<g id="edge47_Node000022_Node000023" class="edge">
<title>Node22&#45;&gt;Node23</title>
<g id="a_edge47_Node000022_Node000023"><a xlink:title=" ">
<path fill="none" stroke="#63b8ff" d="M1499.44,-185.33C1486.86,-172.94 1469.74,-156.09 1459.4,-145.91"/>
<polygon fill="#63b8ff" stroke="#63b8ff" points="1497.01,-187.85 1506.59,-192.37 1501.92,-182.86 1497.01,-187.85"/>
</a>
</g>
</g>
<!-- Node23&#45;&gt;Node14 -->
<g id="edge48_Node000023_Node000014" class="edge">
<title>Node23&#45;&gt;Node14</title>
<g id="a_edge48_Node000023_Node000014"><a xlink:title=" ">
<path fill="none" stroke="#63b8ff" d="M1430.58,-120.43C1395.09,-94.28 1321.6,-40.15 1293.05,-19.12"/>
<polygon fill="#63b8ff" stroke="#63b8ff" points="1428.61,-123.33 1438.74,-126.44 1432.76,-117.69 1428.61,-123.33"/>
</a>
</g>
</g>
<!-- Node23&#45;&gt;Node17 -->
<g id="edge49_Node000023_Node000017" class="edge">
<title>Node23&#45;&gt;Node17</title>
<g id="a_edge49_Node000023_Node000017"><a xlink:title=" ">
<path fill="none" stroke="#63b8ff" d="M1415.94,-123.17C1413.72,-122.43 1411.51,-121.7 1409.36,-121 1362.75,-105.85 1308.24,-89.26 1275.82,-79.51"/>
<polygon fill="#63b8ff" stroke="#63b8ff" points="1415.09,-126.57 1425.68,-126.44 1417.32,-119.94 1415.09,-126.57"/>
</a>
</g>
</g>
<!-- Node24&#45;&gt;Node2 -->
<g id="edge57_Node000024_Node000002" class="edge">
<title>Node24&#45;&gt;Node2</title>
<g id="a_edge57_Node000024_Node000002"><a xlink:title=" ">
<path fill="none" stroke="#63b8ff" d="M544.17,-358.63C523.53,-348.87 495.73,-335.71 477.68,-327.17"/>
<polygon fill="#63b8ff" stroke="#63b8ff" points="542.82,-361.87 553.36,-362.98 545.82,-355.54 542.82,-361.87"/>
</a>
</g>
</g>
<!-- Node25 -->
<g id="Node000025" class="node">
<title>Node25</title>
<g id="a_Node000025"><a xlink:href="epoch__queue_8hpp.html" target="_top" xlink:title="FIFO queue enforcing writer→readers→next&#45;writer ordering.">
<polygon fill="white" stroke="#666666" points="769.36,-327 667.36,-327 667.36,-308 769.36,-308 769.36,-327"/>
<text text-anchor="middle" x="718.36" y="-315" font-family="Helvetica,sans-Serif" font-size="10.00">epoch_queue.hpp</text>
</a>
</g>
</g>
<!-- Node24&#45;&gt;Node25 -->
<g id="edge58_Node000024_Node000025" class="edge">
<title>Node24&#45;&gt;Node25</title>
<g id="a_edge58_Node000024_Node000025"><a xlink:title=" ">
<path fill="none" stroke="#63b8ff" d="M604.5,-359.55C631.8,-349.71 669.86,-335.98 694.31,-327.17"/>
<polygon fill="#63b8ff" stroke="#63b8ff" points="603.19,-356.3 594.97,-362.98 605.57,-362.89 603.19,-356.3"/>
</a>
</g>
</g>
<!-- Node26 -->
<g id="Node000026" class="node">
<title>Node26</title>
<g id="a_Node000026"><a xlink:href="task__registry__debug_8cpp.html" target="_top" xlink:title=" ">
<polygon fill="white" stroke="#666666" points="649.36,-327 513.36,-327 513.36,-308 649.36,-308 649.36,-327"/>
<text text-anchor="middle" x="581.36" y="-315" font-family="Helvetica,sans-Serif" font-size="10.00">task_registry_debug.cpp</text>
</a>
</g>
</g>
<!-- Node24&#45;&gt;Node26 -->
<g id="edge61_Node000024_Node000026" class="edge">
<title>Node24&#45;&gt;Node26</title>
<g id="a_edge61_Node000024_Node000026"><a xlink:title=" ">
<path fill="none" stroke="#63b8ff" d="M574.91,-352.66C576.56,-343.93 578.43,-333.99 579.74,-327.09"/>
<polygon fill="#63b8ff" stroke="#63b8ff" points="571.42,-352.27 573.01,-362.75 578.3,-353.57 571.42,-352.27"/>
</a>
</g>
</g>
<!-- Node25&#45;&gt;Node3 -->
<g id="edge59_Node000025_Node000003" class="edge">
<title>Node25&#45;&gt;Node3</title>
<g id="a_edge59_Node000025_Node000003"><a xlink:title=" ">
<path fill="none" stroke="#63b8ff" d="M714.16,-297.95C712.16,-289.15 709.88,-279.06 708.3,-272.09"/>
<polygon fill="#63b8ff" stroke="#63b8ff" points="710.75,-298.77 716.37,-307.75 717.58,-297.22 710.75,-298.77"/>
</a>
</g>
</g>
<!-- Node25&#45;&gt;Node22 -->
<g id="edge60_Node000025_Node000022" class="edge">
<title>Node25&#45;&gt;Node22</title>
<g id="a_edge60_Node000025_Node000022"><a xlink:title=" ">
<path fill="none" stroke="#63b8ff" d="M779.57,-311.77C863.15,-304.94 1017.53,-291.03 1148.36,-272 1268.33,-254.54 1408.85,-225.77 1475.89,-211.53"/>
<polygon fill="#63b8ff" stroke="#63b8ff" points="779.18,-308.29 769.49,-312.59 779.74,-315.27 779.18,-308.29"/>
</a>
</g>
</g>
</g>
</svg>
