<?xml version="1.0" encoding="UTF-8" standalone="no"?>
<!DOCTYPE svg PUBLIC "-//W3C//DTD SVG 1.1//EN"
 "http://www.w3.org/Graphics/SVG/1.1/DTD/svg11.dtd">
<!-- Generated by graphviz version 2.43.0 (0)
 -->
<!-- Title: static_vector.hpp Pages: 1 -->
<svg width="329pt" height="247pt"
 viewBox="0.00 0.00 328.50 247.00" xmlns="http://www.w3.org/2000/svg" xmlns:xlink="http://www.w3.org/1999/xlink">
<g id="graph0" class="graph" transform="scale(1 1) rotate(0) translate(4 243)">
<title>static_vector.hpp</title>
<!-- Node1 -->
<g id="Node000001" class="node">
<title>Node1</title>
<g id="a_Node000001"><a xlink:title="Defines static_vector, a fixed&#45;capacity, stack&#45;allocated vector with a std::vector&#45;like API.">
<polygon fill="#999999" stroke="#666666" points="224,-239 124,-239 124,-220 224,-220 224,-239"/>
<text text-anchor="middle" x="174" y="-227" font-family="Helvetica,sans-Serif" font-size="10.00">static_vector.hpp</text>
</a>
</g>
</g>
<!-- Node2 -->
<g id="Node000002" class="node">
<title>Node2</title>
<g id="a_Node000002"><a xlink:href="iteration__plan_8hpp.html" target="_top" xlink:title="Helpers for constructing merged iteration plans over strided tensors.">
<polygon fill="white" stroke="#666666" points="186.5,-129 81.5,-129 81.5,-110 186.5,-110 186.5,-129"/>
<text text-anchor="middle" x="134" y="-117" font-family="Helvetica,sans-Serif" font-size="10.00">iteration_plan.hpp</text>
</a>
</g>
</g>
<!-- Node1&#45;&gt;Node2 -->
<g id="edge1_Node000001_Node000002" class="edge">
<title>Node1&#45;&gt;Node2</title>
<g id="a_edge1_Node000001_Node000002"><a xlink:title=" ">
<path fill="none" stroke="#63b8ff" d="M167.19,-210.12C158.47,-186.56 143.69,-146.66 137.21,-129.16"/>
<polygon fill="#63b8ff" stroke="#63b8ff" points="163.97,-211.5 170.73,-219.66 170.54,-209.07 163.97,-211.5"/>
</a>
</g>
</g>
<!-- Node6 -->
<g id="Node000006" class="node">
<title>Node6</title>
<g id="a_Node000006"><a xlink:href="strides_8hpp.html" target="_top" xlink:title="Stride utilities for mdspan&#45;like tensors.">
<polygon fill="white" stroke="#666666" points="245.5,-184 174.5,-184 174.5,-165 245.5,-165 245.5,-184"/>
<text text-anchor="middle" x="210" y="-172" font-family="Helvetica,sans-Serif" font-size="10.00">strides.hpp</text>
</a>
</g>
</g>
<!-- Node1&#45;&gt;Node6 -->
<g id="edge5_Node000001_Node000006" class="edge">
<title>Node1&#45;&gt;Node6</title>
<g id="a_edge5_Node000001_Node000006"><a xlink:title=" ">
<path fill="none" stroke="#63b8ff" d="M185.62,-211.39C191.82,-202.27 199.17,-191.45 204.17,-184.09"/>
<polygon fill="#63b8ff" stroke="#63b8ff" points="182.67,-209.51 179.94,-219.75 188.46,-213.44 182.67,-209.51"/>
</a>
</g>
</g>
<!-- Node3 -->
<g id="Node000003" class="node">
<title>Node3</title>
<g id="a_Node000003"><a xlink:href="apply__unary_8hpp.html" target="_top" xlink:title=" ">
<polygon fill="white" stroke="#666666" points="96,-74 0,-74 0,-55 96,-55 96,-74"/>
<text text-anchor="middle" x="48" y="-62" font-family="Helvetica,sans-Serif" font-size="10.00">apply_unary.hpp</text>
</a>
</g>
</g>
<!-- Node2&#45;&gt;Node3 -->
<g id="edge2_Node000002_Node000003" class="edge">
<title>Node2&#45;&gt;Node3</title>
<g id="a_edge2_Node000002_Node000003"><a xlink:title=" ">
<path fill="none" stroke="#63b8ff" d="M111.6,-104.7C95.93,-95.04 75.49,-82.44 62.07,-74.17"/>
<polygon fill="#63b8ff" stroke="#63b8ff" points="109.83,-107.72 120.18,-109.98 113.51,-101.76 109.83,-107.72"/>
</a>
</g>
</g>
<!-- Node5 -->
<g id="Node000005" class="node">
<title>Node5</title>
<g id="a_Node000005"><a xlink:href="assign_8hpp.html" target="_top" xlink:title=" ">
<polygon fill="white" stroke="#666666" points="183.5,-74 114.5,-74 114.5,-55 183.5,-55 183.5,-74"/>
<text text-anchor="middle" x="149" y="-62" font-family="Helvetica,sans-Serif" font-size="10.00">assign.hpp</text>
</a>
</g>
</g>
<!-- Node2&#45;&gt;Node5 -->
<g id="edge4_Node000002_Node000005" class="edge">
<title>Node2&#45;&gt;Node5</title>
<g id="a_edge4_Node000002_Node000005"><a xlink:title=" ">
<path fill="none" stroke="#63b8ff" d="M139.25,-99.95C141.74,-91.15 144.6,-81.06 146.57,-74.09"/>
<polygon fill="#63b8ff" stroke="#63b8ff" points="135.83,-99.17 136.48,-109.75 142.57,-101.08 135.83,-99.17"/>
</a>
</g>
</g>
<!-- Node4 -->
<g id="Node000004" class="node">
<title>Node4</title>
<g id="a_Node000004"><a xlink:href="sum_8hpp.html" target="_top" xlink:title=" ">
<polygon fill="white" stroke="#666666" points="77.5,-19 18.5,-19 18.5,0 77.5,0 77.5,-19"/>
<text text-anchor="middle" x="48" y="-7" font-family="Helvetica,sans-Serif" font-size="10.00">sum.hpp</text>
</a>
</g>
</g>
<!-- Node3&#45;&gt;Node4 -->
<g id="edge3_Node000003_Node000004" class="edge">
<title>Node3&#45;&gt;Node4</title>
<g id="a_edge3_Node000003_Node000004"><a xlink:title=" ">
<path fill="none" stroke="#63b8ff" d="M48,-44.66C48,-35.93 48,-25.99 48,-19.09"/>
<polygon fill="#63b8ff" stroke="#63b8ff" points="44.5,-44.75 48,-54.75 51.5,-44.75 44.5,-44.75"/>
</a>
</g>
</g>
<!-- Node6&#45;&gt;Node2 -->
<g id="edge9_Node000006_Node000002" class="edge">
<title>Node6&#45;&gt;Node2</title>
<g id="a_edge9_Node000006_Node000002"><a xlink:title=" ">
<path fill="none" stroke="#63b8ff" d="M189.42,-159.15C175.69,-149.57 158.07,-137.29 146.43,-129.17"/>
<polygon fill="#63b8ff" stroke="#63b8ff" points="187.58,-162.14 197.79,-164.98 191.59,-156.39 187.58,-162.14"/>
</a>
</g>
</g>
<!-- Node7 -->
<g id="Node000007" class="node">
<title>Node7</title>
<g id="a_Node000007"><a xlink:href="contract_8hpp.html" target="_top" xlink:title=" ">
<polygon fill="white" stroke="#666666" points="306.5,-74 229.5,-74 229.5,-55 306.5,-55 306.5,-74"/>
<text text-anchor="middle" x="268" y="-62" font-family="Helvetica,sans-Serif" font-size="10.00">contract.hpp</text>
</a>
</g>
</g>
<!-- Node6&#45;&gt;Node7 -->
<g id="edge6_Node000006_Node000007" class="edge">
<title>Node6&#45;&gt;Node7</title>
<g id="a_edge6_Node000006_Node000007"><a xlink:title=" ">
<path fill="none" stroke="#63b8ff" d="M215.73,-155.31C220.17,-142.29 226.92,-124.57 235,-110 242.37,-96.71 253.22,-82.88 260.44,-74.23"/>
<polygon fill="#63b8ff" stroke="#63b8ff" points="212.36,-154.37 212.57,-164.96 219.01,-156.55 212.36,-154.37"/>
</a>
</g>
</g>
<!-- Node8 -->
<g id="Node000008" class="node">
<title>Node8</title>
<g id="a_Node000008"><a xlink:href="cpu_2contract_8hpp.html" target="_top" xlink:title=" ">
<polygon fill="white" stroke="#666666" points="320.5,-129 243.5,-129 243.5,-110 320.5,-110 320.5,-129"/>
<text text-anchor="middle" x="282" y="-117" font-family="Helvetica,sans-Serif" font-size="10.00">contract.hpp</text>
</a>
</g>
</g>
<!-- Node6&#45;&gt;Node8 -->
<g id="edge7_Node000006_Node000008" class="edge">
<title>Node6&#45;&gt;Node8</title>
<g id="a_edge7_Node000006_Node000008"><a xlink:title=" ">
<path fill="none" stroke="#63b8ff" d="M229.87,-158.88C242.82,-149.34 259.3,-137.21 270.22,-129.17"/>
<polygon fill="#63b8ff" stroke="#63b8ff" points="227.55,-156.24 221.57,-164.98 231.7,-161.88 227.55,-156.24"/>
</a>
</g>
</g>
<!-- Node8&#45;&gt;Node7 -->
<g id="edge8_Node000008_Node000007" class="edge">
<title>Node8&#45;&gt;Node7</title>
<g id="a_edge8_Node000008_Node000007"><a xlink:title=" ">
<path fill="none" stroke="#63b8ff" d="M277.1,-99.95C274.78,-91.15 272.11,-81.06 270.27,-74.09"/>
<polygon fill="#63b8ff" stroke="#63b8ff" points="273.75,-100.97 279.69,-109.75 280.52,-99.19 273.75,-100.97"/>
</a>
</g>
</g>
</g>
</svg>
