<?xml version="1.0" encoding="UTF-8" standalone="no"?>
<!DOCTYPE svg PUBLIC "-//W3C//DTD SVG 1.1//EN"
 "http://www.w3.org/Graphics/SVG/1.1/DTD/svg11.dtd">
<!-- Generated by graphviz version 2.43.0 (0)
 -->
<!-- Title: strides.hpp Pages: 1 -->
<svg width="306pt" height="192pt"
 viewBox="0.00 0.00 306.00 192.00" xmlns="http://www.w3.org/2000/svg" xmlns:xlink="http://www.w3.org/1999/xlink">

<svg id="main" version="1.1" xmlns="http://www.w3.org/2000/svg" xmlns:xlink="http://www.w3.org/1999/xlink" xml:space="preserve" onload="init(evt)">
<style type="text/css"><![CDATA[
.node, .edge {opacity: 0.7;}
.node.selected, .edge.selected {opacity: 1;}
.edge:hover path { stroke: red; }
.edge:hover polygon { stroke: red; fill: red; }
]]></style>
<script type="application/ecmascript" xlink:href="svg.min.js"/>
<svg id="graph" class="graph">
<g id="graph0" class="graph" transform="scale(1 1) rotate(0) translate(4 188)">
<title>strides.hpp</title>
<!-- Node1 -->
<g id="Node000001" class="node">
<title>Node1</title>
<g id="a_Node000001"><a xlink:title="Stride utilities for mdspan&#45;like tensors.">
<polygon fill="#999999" stroke="#666666" points="108,-184 37,-184 37,-165 108,-165 108,-184"/>
<text text-anchor="middle" x="72.5" y="-172" font-family="Helvetica,sans-Serif" font-size="10.00">strides.hpp</text>
</a>
</g>
</g>
<!-- Node2 -->
<g id="Node000002" class="node">
<title>Node2</title>
<g id="a_Node000002"><a xlink:href="contract_8hpp.html" target="_top" xlink:title=" ">
<polygon fill="white" stroke="#666666" points="77,-74 0,-74 0,-55 77,-55 77,-74"/>
<text text-anchor="middle" x="38.5" y="-62" font-family="Helvetica,sans-Serif" font-size="10.00">contract.hpp</text>
</a>
</g>
</g>
<!-- Node1&#45;&gt;Node2 -->
<g id="edge1_Node000001_Node000002" class="edge">
<title>Node1&#45;&gt;Node2</title>
<g id="a_edge1_Node000001_Node000002"><a xlink:title=" ">
<path fill="none" stroke="#63b8ff" d="M49.87,-158.97C40.13,-151.35 29.77,-141.08 24.5,-129 16.37,-110.38 26.59,-86.55 33.38,-74.04"/>
<polygon fill="#63b8ff" stroke="#63b8ff" points="47.98,-161.93 58.13,-164.96 52.09,-156.26 47.98,-161.93"/>
</a>
</g>
</g>
<!-- Node3 -->
<g id="Node000003" class="node">
<title>Node3</title>
<g id="a_Node000003"><a xlink:href="cpu_2contract_8hpp.html" target="_top" xlink:title=" ">
<polygon fill="white" stroke="#666666" points="111,-129 34,-129 34,-110 111,-110 111,-129"/>
<text text-anchor="middle" x="72.5" y="-117" font-family="Helvetica,sans-Serif" font-size="10.00">contract.hpp</text>
</a>
</g>
</g>
<!-- Node1&#45;&gt;Node3 -->
<g id="edge2_Node000001_Node000003" class="edge">
<title>Node1&#45;&gt;Node3</title>
<g id="a_edge2_Node000001_Node000003"><a xlink:title=" ">
<path fill="none" stroke="#63b8ff" d="M72.5,-154.66C72.5,-145.93 72.5,-135.99 72.5,-129.09"/>
<polygon fill="#63b8ff" stroke="#63b8ff" points="69,-154.75 72.5,-164.75 76,-154.75 69,-154.75"/>
</a>
</g>
</g>
<!-- Node4 -->
<g id="Node000004" class="node">
<title>Node4</title>
<g id="a_Node000004"><a xlink:href="iteration__plan_8hpp.html" target="_top" xlink:title="Helpers for constructing merged iteration plans over strided tensors.">
<polygon fill="white" stroke="#666666" points="234,-129 129,-129 129,-110 234,-110 234,-129"/>
<text text-anchor="middle" x="181.5" y="-117" font-family="Helvetica,sans-Serif" font-size="10.00">iteration_plan.hpp</text>
</a>
</g>
</g>
<!-- Node1&#45;&gt;Node4 -->
<g id="edge4_Node000001_Node000004" class="edge">
<title>Node1&#45;&gt;Node4</title>
<g id="a_edge4_Node000001_Node000004"><a xlink:title=" ">
<path fill="none" stroke="#63b8ff" d="M99.23,-160.5C119.29,-150.75 146.18,-137.68 163.67,-129.17"/>
<polygon fill="#63b8ff" stroke="#63b8ff" points="97.48,-157.46 90.01,-164.98 100.54,-163.76 97.48,-157.46"/>
</a>
</g>
</g>
<!-- Node3&#45;&gt;Node2 -->
<g id="edge3_Node000003_Node000002" class="edge">
<title>Node3&#45;&gt;Node2</title>
<g id="a_edge3_Node000003_Node000002"><a xlink:title=" ">
<path fill="none" stroke="#63b8ff" d="M61.34,-101.1C55.53,-92.04 48.68,-81.37 44.01,-74.09"/>
<polygon fill="#63b8ff" stroke="#63b8ff" points="58.54,-103.22 66.89,-109.75 64.43,-99.44 58.54,-103.22"/>
</a>
</g>
</g>
<!-- Node5 -->
<g id="Node000005" class="node">
<title>Node5</title>
<g id="a_Node000005"><a xlink:href="apply__unary_8hpp.html" target="_top" xlink:title=" ">
<polygon fill="white" stroke="#666666" points="210.5,-74 114.5,-74 114.5,-55 210.5,-55 210.5,-74"/>
<text text-anchor="middle" x="162.5" y="-62" font-family="Helvetica,sans-Serif" font-size="10.00">apply_unary.hpp</text>
</a>
</g>
</g>
<!-- Node4&#45;&gt;Node5 -->
<g id="edge5_Node000004_Node000005" class="edge">
<title>Node4&#45;&gt;Node5</title>
<g id="a_edge5_Node000004_Node000005"><a xlink:title=" ">
<path fill="none" stroke="#63b8ff" d="M174.95,-100.24C171.78,-91.37 168.11,-81.14 165.58,-74.09"/>
<polygon fill="#63b8ff" stroke="#63b8ff" points="171.69,-101.52 178.36,-109.75 178.28,-99.15 171.69,-101.52"/>
</a>
</g>
</g>
<!-- Node7 -->
<g id="Node000007" class="node">
<title>Node7</title>
<g id="a_Node000007"><a xlink:href="assign_8hpp.html" target="_top" xlink:title=" ">
<polygon fill="white" stroke="#666666" points="298,-74 229,-74 229,-55 298,-55 298,-74"/>
<text text-anchor="middle" x="263.5" y="-62" font-family="Helvetica,sans-Serif" font-size="10.00">assign.hpp</text>
</a>
</g>
</g>
<!-- Node4&#45;&gt;Node7 -->
<g id="edge7_Node000004_Node000007" class="edge">
<title>Node4&#45;&gt;Node7</title>
<g id="a_edge7_Node000004_Node000007"><a xlink:title=" ">
<path fill="none" stroke="#63b8ff" d="M203.28,-104.42C218.16,-94.81 237.41,-82.37 250.09,-74.17"/>
<polygon fill="#63b8ff" stroke="#63b8ff" points="201.17,-101.62 194.67,-109.98 204.97,-107.5 201.17,-101.62"/>
</a>
</g>
</g>
<!-- Node6 -->
<g id="Node000006" class="node">
<title>Node6</title>
<g id="a_Node000006"><a xlink:href="sum_8hpp.html" target="_top" xlink:title=" ">
<polygon fill="white" stroke="#666666" points="192,-19 133,-19 133,0 192,0 192,-19"/>
<text text-anchor="middle" x="162.5" y="-7" font-family="Helvetica,sans-Serif" font-size="10.00">sum.hpp</text>
</a>
</g>
</g>
<!-- Node5&#45;&gt;Node6 -->
<g id="edge6_Node000005_Node000006" class="edge">
<title>Node5&#45;&gt;Node6</title>
<g id="a_edge6_Node000005_Node000006"><a xlink:title=" ">
<path fill="none" stroke="#63b8ff" d="M162.5,-44.66C162.5,-35.93 162.5,-25.99 162.5,-19.09"/>
<polygon fill="#63b8ff" stroke="#63b8ff" points="159,-44.75 162.5,-54.75 166,-44.75 159,-44.75"/>
</a>
</g>
</g>
</g>
</svg>
</svg>

<style type='text/css'>
<![CDATA[
[data-mouse-over-selected='false'] { opacity: 0.7; }
[data-mouse-over-selected='true']  { opacity: 1.0; }
]]>
</style>
<script type="application/ecmascript"><![CDATA[
document.addEventListener('DOMContentLoaded', (event) => {
  highlightEdges();
  highlightAdjacentNodes();
});
]]></script>
</svg>
