<?xml version="1.0" encoding="UTF-8" standalone="no"?>
<!DOCTYPE svg PUBLIC "-//W3C//DTD SVG 1.1//EN"
 "http://www.w3.org/Graphics/SVG/1.1/DTD/svg11.dtd">
<!-- Generated by graphviz version 2.43.0 (0)
 -->
<!-- Title: uni20::async::BasicAsyncTaskPromise::ExceptionSinkNode Pages: 1 -->
<svg width="383pt" height="115pt"
 viewBox="0.00 0.00 383.00 115.00" xmlns="http://www.w3.org/2000/svg" xmlns:xlink="http://www.w3.org/1999/xlink">

<svg id="main" version="1.1" xmlns="http://www.w3.org/2000/svg" xmlns:xlink="http://www.w3.org/1999/xlink" xml:space="preserve" onload="init(evt)">
<style type="text/css"><![CDATA[
.node, .edge {opacity: 0.7;}
.node.selected, .edge.selected {opacity: 1;}
.edge:hover path { stroke: red; }
.edge:hover polygon { stroke: red; fill: red; }
]]></style>
<script type="application/ecmascript" xlink:href="svg.min.js"/>
<svg id="graph" class="graph">
<g id="graph0" class="graph" transform="scale(1 1) rotate(0) translate(4 111)">
<title>uni20::async::BasicAsyncTaskPromise::ExceptionSinkNode</title>
<!-- Node1 -->
<g id="Node000001" class="node">
<title>Node1</title>
<g id="a_Node000001"><a xlink:title="Intrusive node describing one exception propagation sink.">
<polygon fill="#999999" stroke="#666666" points="179,-107 0,-107 0,-77 179,-77 179,-107"/>
<text text-anchor="start" x="8" y="-95" font-family="Helvetica,sans-Serif" font-size="10.00">uni20::async::BasicAsync</text>
<text text-anchor="middle" x="89.5" y="-84" font-family="Helvetica,sans-Serif" font-size="10.00">TaskPromise::ExceptionSinkNode</text>
</a>
</g>
</g>
<!-- Node1&#45;&gt;Node1 -->
<g id="edge4_Node000001_Node000001" class="edge">
<title>Node1&#45;&gt;Node1</title>
<g id="a_edge4_Node000001_Node000001"><a xlink:title=" ">
<path fill="none" stroke="#9a32cd" stroke-dasharray="5,2" d="M189.25,-96.56C194.13,-95.42 197,-93.9 197,-92 197,-89.03 190,-86.99 179.28,-85.88"/>
<polygon fill="#9a32cd" stroke="#9a32cd" points="188.62,-93.12 179.28,-98.12 189.71,-100.03 188.62,-93.12"/>
</a>
</g>
<text text-anchor="middle" x="209.5" y="-95" font-family="Helvetica,sans-Serif" font-size="10.00" fill="grey"> next</text>
<text text-anchor="middle" x="209.5" y="-84" font-family="Helvetica,sans-Serif" font-size="10.00" fill="grey">prev</text>
</g>
<!-- Node2 -->
<g id="Node000002" class="node">
<title>Node2</title>
<g id="a_Node000002"><a xlink:href="structuni20_1_1async_1_1BasicAsyncTaskPromise.html" target="_top" xlink:title="Promise type for AsyncTask.">
<polygon fill="white" stroke="#666666" points="299.5,-30 159.5,-30 159.5,0 299.5,0 299.5,-30"/>
<text text-anchor="start" x="167.5" y="-18" font-family="Helvetica,sans-Serif" font-size="10.00">uni20::async::BasicAsync</text>
<text text-anchor="middle" x="229.5" y="-7" font-family="Helvetica,sans-Serif" font-size="10.00">TaskPromise</text>
</a>
</g>
</g>
<!-- Node1&#45;&gt;Node2 -->
<g id="edge3_Node000002_Node000001" class="edge">
<title>Node1&#45;&gt;Node2</title>
<g id="a_edge3_Node000002_Node000001"><a xlink:title=" ">
<path fill="none" stroke="#9a32cd" stroke-dasharray="5,2" d="M82.03,-66.67C81.43,-60.02 82.32,-53.21 86.5,-48 96.04,-36.09 128.06,-28.31 159.38,-23.41"/>
<polygon fill="#9a32cd" stroke="#9a32cd" points="78.64,-67.58 83.95,-76.75 85.51,-66.27 78.64,-67.58"/>
</a>
</g>
<text text-anchor="middle" x="145" y="-51" font-family="Helvetica,sans-Serif" font-size="10.00" fill="grey"> exception_sinks_head_</text>
</g>
<!-- Node2&#45;&gt;Node1 -->
<g id="edge1_Node000001_Node000002" class="edge">
<title>Node2&#45;&gt;Node1</title>
<g id="a_edge1_Node000001_Node000002"><a xlink:title=" ">
<path fill="none" stroke="#9a32cd" stroke-dasharray="5,2" d="M221.67,-39.7C218.3,-46.79 213.68,-53.99 207.5,-59 198.02,-66.69 186.85,-72.54 175.22,-76.98"/>
<polygon fill="#9a32cd" stroke="#9a32cd" points="224.95,-40.92 225.52,-30.34 218.48,-38.26 224.95,-40.92"/>
</a>
</g>
<text text-anchor="middle" x="233.5" y="-51" font-family="Helvetica,sans-Serif" font-size="10.00" fill="grey"> owner</text>
</g>
<!-- Node3 -->
<g id="Node000003" class="node">
<title>Node3</title>
<g id="a_Node000003"><a xlink:href="classuni20_1_1async_1_1IScheduler.html" target="_top" xlink:title="Minimal abstract interface for scheduling coroutine handles.">
<polygon fill="white" stroke="#666666" points="375,-101.5 240,-101.5 240,-82.5 375,-82.5 375,-101.5"/>
<text text-anchor="middle" x="307.5" y="-89.5" font-family="Helvetica,sans-Serif" font-size="10.00">uni20::async::IScheduler</text>
</a>
</g>
</g>
<!-- Node3&#45;&gt;Node2 -->
<g id="edge2_Node000002_Node000003" class="edge">
<title>Node3&#45;&gt;Node2</title>
<g id="a_edge2_Node000002_Node000003"><a xlink:title=" ">
<path fill="none" stroke="#9a32cd" stroke-dasharray="5,2" d="M293.41,-74.94C285.94,-66.66 276.47,-56.54 267.5,-48 261.13,-41.93 253.8,-35.62 247.29,-30.22"/>
<polygon fill="#9a32cd" stroke="#9a32cd" points="290.86,-77.33 300.12,-82.47 296.08,-72.68 290.86,-77.33"/>
</a>
</g>
<text text-anchor="middle" x="296" y="-51" font-family="Helvetica,sans-Serif" font-size="10.00" fill="grey"> sched_</text>
</g>
</g>
</svg>
</svg>

<style type='text/css'>
<![CDATA[
[data-mouse-over-selected='false'] { opacity: 0.7; }
[data-mouse-over-selected='true']  { opacity: 1.0; }
]]>
</style>
<script type="application/ecmascript"><![CDATA[
document.addEventListener('DOMContentLoaded', (event) => {
  highlightEdges();
  highlightAdjacentNodes();
});
]]></script>
</svg>
