<?xml version="1.0" encoding="UTF-8" standalone="no"?>
<!DOCTYPE svg PUBLIC "-//W3C//DTD SVG 1.1//EN"
 "http://www.w3.org/Graphics/SVG/1.1/DTD/svg11.dtd">
<!-- Generated by graphviz version 2.43.0 (0)
 -->
<!-- Title: uni20::async::BasicAsyncTaskPromise Pages: 1 -->
<svg width="230pt" height="181pt"
 viewBox="0.00 0.00 230.00 181.00" xmlns="http://www.w3.org/2000/svg" xmlns:xlink="http://www.w3.org/1999/xlink">
<g id="graph0" class="graph" transform="scale(1 1) rotate(0) translate(4 177)">
<title>uni20::async::BasicAsyncTaskPromise</title>
<!-- Node1 -->
<g id="Node000001" class="node">
<title>Node1</title>
<g id="a_Node000001"><a xlink:title="Promise type for AsyncTask.">
<polygon fill="#999999" stroke="#666666" points="159.5,-107 19.5,-107 19.5,-77 159.5,-77 159.5,-107"/>
<text text-anchor="start" x="27.5" y="-95" font-family="Helvetica,sans-Serif" font-size="10.00">uni20::async::BasicAsync</text>
<text text-anchor="middle" x="89.5" y="-84" font-family="Helvetica,sans-Serif" font-size="10.00">TaskPromise</text>
</a>
</g>
</g>
<!-- Node3 -->
<g id="Node000003" class="node">
<title>Node3</title>
<g id="a_Node000003"><a xlink:href="structuni20_1_1async_1_1BasicAsyncTaskPromise_1_1ExceptionSinkNode.html" target="_top" xlink:title="Intrusive node describing one exception propagation sink.">
<polygon fill="white" stroke="#666666" points="179,-30 0,-30 0,0 179,0 179,-30"/>
<text text-anchor="start" x="8" y="-18" font-family="Helvetica,sans-Serif" font-size="10.00">uni20::async::BasicAsync</text>
<text text-anchor="middle" x="89.5" y="-7" font-family="Helvetica,sans-Serif" font-size="10.00">TaskPromise::ExceptionSinkNode</text>
</a>
</g>
</g>
<!-- Node1&#45;&gt;Node3 -->
<g id="edge3_Node000003_Node000001" class="edge">
<title>Node1&#45;&gt;Node3</title>
<g id="a_edge3_Node000003_Node000001"><a xlink:title=" ">
<path fill="none" stroke="#9a32cd" stroke-dasharray="5,2" d="M64.4,-69.14C62.01,-65.98 59.95,-62.58 58.5,-59 54.22,-48.42 61.36,-38 69.86,-30.07"/>
<polygon fill="#9a32cd" stroke="#9a32cd" points="62,-71.71 71.25,-76.87 67.24,-67.06 62,-71.71"/>
</a>
</g>
<text text-anchor="middle" x="75.5" y="-51" font-family="Helvetica,sans-Serif" font-size="10.00" fill="grey"> owner</text>
</g>
<!-- Node2 -->
<g id="Node000002" class="node">
<title>Node2</title>
<g id="a_Node000002"><a xlink:href="classuni20_1_1async_1_1IScheduler.html" target="_top" xlink:title="Minimal abstract interface for scheduling coroutine handles.">
<polygon fill="white" stroke="#666666" points="157,-173 22,-173 22,-154 157,-154 157,-173"/>
<text text-anchor="middle" x="89.5" y="-161" font-family="Helvetica,sans-Serif" font-size="10.00">uni20::async::IScheduler</text>
</a>
</g>
</g>
<!-- Node2&#45;&gt;Node1 -->
<g id="edge1_Node000001_Node000002" class="edge">
<title>Node2&#45;&gt;Node1</title>
<g id="a_edge1_Node000001_Node000002"><a xlink:title=" ">
<path fill="none" stroke="#9a32cd" stroke-dasharray="5,2" d="M89.5,-143.71C89.5,-132.19 89.5,-117.68 89.5,-107.14"/>
<polygon fill="#9a32cd" stroke="#9a32cd" points="86,-143.98 89.5,-153.98 93,-143.98 86,-143.98"/>
</a>
</g>
<text text-anchor="middle" x="108" y="-128" font-family="Helvetica,sans-Serif" font-size="10.00" fill="grey"> sched_</text>
</g>
<!-- Node3&#45;&gt;Node1 -->
<g id="edge2_Node000001_Node000003" class="edge">
<title>Node3&#45;&gt;Node1</title>
<g id="a_edge2_Node000001_Node000003"><a xlink:title=" ">
<path fill="none" stroke="#9a32cd" stroke-dasharray="5,2" d="M95.8,-40.5C96.71,-46.53 97.15,-52.98 96.5,-59 95.86,-64.88 94.59,-71.26 93.3,-76.77"/>
<polygon fill="#9a32cd" stroke="#9a32cd" points="99.15,-39.41 93.78,-30.28 92.28,-40.77 99.15,-39.41"/>
</a>
</g>
<text text-anchor="middle" x="155" y="-51" font-family="Helvetica,sans-Serif" font-size="10.00" fill="grey"> exception_sinks_head_</text>
</g>
<!-- Node3&#45;&gt;Node3 -->
<g id="edge4_Node000003_Node000003" class="edge">
<title>Node3&#45;&gt;Node3</title>
<g id="a_edge4_Node000003_Node000003"><a xlink:title=" ">
<path fill="none" stroke="#9a32cd" stroke-dasharray="5,2" d="M189.25,-19.56C194.13,-18.42 197,-16.9 197,-15 197,-12.03 190,-9.99 179.28,-8.88"/>
<polygon fill="#9a32cd" stroke="#9a32cd" points="188.62,-16.12 179.28,-21.12 189.71,-23.03 188.62,-16.12"/>
</a>
</g>
<text text-anchor="middle" x="209.5" y="-18" font-family="Helvetica,sans-Serif" font-size="10.00" fill="grey"> next</text>
<text text-anchor="middle" x="209.5" y="-7" font-family="Helvetica,sans-Serif" font-size="10.00" fill="grey">prev</text>
</g>
</g>
</svg>
