<?xml version="1.0" encoding="UTF-8" standalone="no"?>
<!DOCTYPE svg PUBLIC "-//W3C//DTD SVG 1.1//EN"
 "http://www.w3.org/Graphics/SVG/1.1/DTD/svg11.dtd">
<!-- Generated by graphviz version 2.43.0 (0)
 -->
<!-- Title: trace::FormattingOptions Pages: 1 -->
<svg width="368pt" height="160pt"
 viewBox="0.00 0.00 368.00 160.00" xmlns="http://www.w3.org/2000/svg" xmlns:xlink="http://www.w3.org/1999/xlink">

<svg id="main" version="1.1" xmlns="http://www.w3.org/2000/svg" xmlns:xlink="http://www.w3.org/1999/xlink" xml:space="preserve" onload="init(evt)">
<style type="text/css"><![CDATA[
.node, .edge {opacity: 0.7;}
.node.selected, .edge.selected {opacity: 1;}
.edge:hover path { stroke: red; }
.edge:hover polygon { stroke: red; fill: red; }
]]></style>
<script type="application/ecmascript" xlink:href="svg.min.js"/>
<svg id="graph" class="graph">
<g id="graph0" class="graph" transform="scale(1 1) rotate(0) translate(4 156)">
<title>trace::FormattingOptions</title>
<!-- Node1 -->
<g id="Node000001" class="node">
<title>Node1</title>
<g id="a_Node000001"><a xlink:title="Configuration and formatting options for a trace module.">
<polygon fill="#999999" stroke="#666666" points="254.5,-19 116.5,-19 116.5,0 254.5,0 254.5,-19"/>
<text text-anchor="middle" x="185.5" y="-7" font-family="Helvetica,sans-Serif" font-size="10.00">trace::FormattingOptions</text>
</a>
</g>
</g>
<!-- Node2 -->
<g id="Node000002" class="node">
<title>Node2</title>
<g id="a_Node000002"><a xlink:href="classNamedEnumeration.html" target="_top" xlink:title=" ">
<polygon fill="white" stroke="#666666" points="183,-96 0,-96 0,-66 183,-66 183,-96"/>
<text text-anchor="start" x="8" y="-84" font-family="Helvetica,sans-Serif" font-size="10.00">NamedEnumeration&lt; ColorOption</text>
<text text-anchor="middle" x="91.5" y="-73" font-family="Helvetica,sans-Serif" font-size="10.00">Traits &gt;</text>
</a>
</g>
</g>
<!-- Node2&#45;&gt;Node1 -->
<g id="edge1_Node000001_Node000002" class="edge">
<title>Node2&#45;&gt;Node1</title>
<g id="a_edge1_Node000001_Node000002"><a xlink:title=" ">
<path fill="none" stroke="#9a32cd" stroke-dasharray="5,2" d="M119.04,-59.64C137.3,-46.14 160.31,-29.12 173.91,-19.07"/>
<polygon fill="#9a32cd" stroke="#9a32cd" points="116.48,-57.18 110.52,-65.94 120.64,-62.8 116.48,-57.18"/>
</a>
</g>
<text text-anchor="middle" x="161.5" y="-40" font-family="Helvetica,sans-Serif" font-size="10.00" fill="grey"> color</text>
</g>
<!-- Node3 -->
<g id="Node000003" class="node">
<title>Node3</title>
<g id="a_Node000003"><a xlink:title=" ">
<polygon fill="white" stroke="#666666" points="142,-152 41,-152 41,-133 142,-133 142,-152"/>
<text text-anchor="middle" x="91.5" y="-140" font-family="Helvetica,sans-Serif" font-size="10.00">ColorOptionTraits</text>
</a>
</g>
</g>
<!-- Node3&#45;&gt;Node2 -->
<g id="edge2_Node000002_Node000003" class="edge">
<title>Node3&#45;&gt;Node2</title>
<g id="a_edge2_Node000002_Node000003"><a xlink:title=" ">
<path fill="none" stroke="#63b8ff" d="M91.5,-122.73C91.5,-114.09 91.5,-104 91.5,-96.02"/>
<polygon fill="#63b8ff" stroke="#63b8ff" points="88,-122.98 91.5,-132.98 95,-122.98 88,-122.98"/>
</a>
</g>
</g>
<!-- Node4 -->
<g id="Node000004" class="node">
<title>Node4</title>
<g id="a_Node000004"><a xlink:href="classNamedEnumeration.html" target="_top" xlink:title=" ">
<polygon fill="white" stroke="#666666" points="360,-96 201,-96 201,-66 360,-66 360,-96"/>
<text text-anchor="start" x="209" y="-84" font-family="Helvetica,sans-Serif" font-size="10.00">NamedEnumeration&lt; Thread</text>
<text text-anchor="middle" x="280.5" y="-73" font-family="Helvetica,sans-Serif" font-size="10.00">IdOptionTraits &gt;</text>
</a>
</g>
</g>
<!-- Node4&#45;&gt;Node1 -->
<g id="edge3_Node000001_Node000004" class="edge">
<title>Node4&#45;&gt;Node1</title>
<g id="a_edge3_Node000001_Node000004"><a xlink:title=" ">
<path fill="none" stroke="#9a32cd" stroke-dasharray="5,2" d="M253.17,-60C234.64,-46.45 211.08,-29.21 197.21,-19.07"/>
<polygon fill="#9a32cd" stroke="#9a32cd" points="251.14,-62.86 261.28,-65.94 255.27,-57.21 251.14,-62.86"/>
</a>
</g>
<text text-anchor="middle" x="258.5" y="-40" font-family="Helvetica,sans-Serif" font-size="10.00" fill="grey"> threadId</text>
</g>
<!-- Node5 -->
<g id="Node000005" class="node">
<title>Node5</title>
<g id="a_Node000005"><a xlink:title=" ">
<polygon fill="white" stroke="#666666" points="339.5,-152 221.5,-152 221.5,-133 339.5,-133 339.5,-152"/>
<text text-anchor="middle" x="280.5" y="-140" font-family="Helvetica,sans-Serif" font-size="10.00">ThreadIdOptionTraits</text>
</a>
</g>
</g>
<!-- Node5&#45;&gt;Node4 -->
<g id="edge4_Node000004_Node000005" class="edge">
<title>Node5&#45;&gt;Node4</title>
<g id="a_edge4_Node000004_Node000005"><a xlink:title=" ">
<path fill="none" stroke="#63b8ff" d="M280.5,-122.73C280.5,-114.09 280.5,-104 280.5,-96.02"/>
<polygon fill="#63b8ff" stroke="#63b8ff" points="277,-122.98 280.5,-132.98 284,-122.98 277,-122.98"/>
</a>
</g>
</g>
</g>
</svg>
</svg>

<style type='text/css'>
<![CDATA[
[data-mouse-over-selected='false'] { opacity: 0.7; }
[data-mouse-over-selected='true']  { opacity: 1.0; }
]]>
</style>
<script type="application/ecmascript"><![CDATA[
document.addEventListener('DOMContentLoaded', (event) => {
  highlightEdges();
  highlightAdjacentNodes();
});
]]></script>
</svg>
