<?xml version="1.0" encoding="UTF-8" standalone="no"?>
<!DOCTYPE svg PUBLIC "-//W3C//DTD SVG 1.1//EN"
 "http://www.w3.org/Graphics/SVG/1.1/DTD/svg11.dtd">
<!-- Generated by graphviz version 2.43.0 (0)
 -->
<!-- Title: cpu.hpp Pages: 1 -->
<svg width="640pt" height="467pt"
 viewBox="0.00 0.00 640.00 467.00" xmlns="http://www.w3.org/2000/svg" xmlns:xlink="http://www.w3.org/1999/xlink">
<g id="graph0" class="graph" transform="scale(1 1) rotate(0) translate(4 463)">
<title>cpu.hpp</title>
<!-- Node1 -->
<g id="Node000001" class="node">
<title>Node1</title>
<g id="a_Node000001"><a xlink:title="Tag for selecting CPU&#45;based Uni20 kernels.">
<polygon fill="#999999" stroke="#666666" points="194.5,-459 139.5,-459 139.5,-440 194.5,-440 194.5,-459"/>
<text text-anchor="middle" x="167" y="-447" font-family="Helvetica,sans-Serif" font-size="10.00">cpu.hpp</text>
</a>
</g>
</g>
<!-- Node2 -->
<g id="Node000002" class="node">
<title>Node2</title>
<g id="a_Node000002"><a xlink:href="backend__manifest_8hpp.html" target="_top" xlink:title=" ">
<polygon fill="white" stroke="#666666" points="366.5,-129 239.5,-129 239.5,-110 366.5,-110 366.5,-129"/>
<text text-anchor="middle" x="303" y="-117" font-family="Helvetica,sans-Serif" font-size="10.00">backend_manifest.hpp</text>
</a>
</g>
</g>
<!-- Node1&#45;&gt;Node2 -->
<g id="edge1_Node000001_Node000002" class="edge">
<title>Node1&#45;&gt;Node2</title>
<g id="a_edge1_Node000001_Node000002"><a xlink:title=" ">
<path fill="none" stroke="#63b8ff" d="M129.42,-441.53C80.18,-429.97 0,-401.75 0,-340.5 0,-340.5 0,-340.5 0,-228.5 0,-176.98 157.38,-143.63 245.29,-129.01"/>
<polygon fill="#63b8ff" stroke="#63b8ff" points="128.9,-445 139.42,-443.75 130.42,-438.16 128.9,-445"/>
</a>
</g>
</g>
<!-- Node5 -->
<g id="Node000005" class="node">
<title>Node5</title>
<g id="a_Node000005"><a xlink:href="tags_2blas_8hpp.html" target="_top" xlink:title="Tag for selecting BLAS&#45;backed kernels.">
<polygon fill="white" stroke="#666666" points="157,-404 99,-404 99,-385 157,-385 157,-404"/>
<text text-anchor="middle" x="128" y="-392" font-family="Helvetica,sans-Serif" font-size="10.00">blas.hpp</text>
</a>
</g>
</g>
<!-- Node1&#45;&gt;Node5 -->
<g id="edge5_Node000001_Node000005" class="edge">
<title>Node1&#45;&gt;Node5</title>
<g id="a_edge5_Node000001_Node000005"><a xlink:title=" ">
<path fill="none" stroke="#63b8ff" d="M154.62,-431.67C147.86,-422.5 139.79,-411.52 134.32,-404.09"/>
<polygon fill="#63b8ff" stroke="#63b8ff" points="151.81,-433.77 160.56,-439.75 157.45,-429.62 151.81,-433.77"/>
</a>
</g>
</g>
<!-- Node11 -->
<g id="Node000011" class="node">
<title>Node11</title>
<g id="a_Node000011"><a xlink:href="kernel_2cpu_2cpu_8hpp.html" target="_top" xlink:title=" ">
<polygon fill="white" stroke="#666666" points="387.5,-404 332.5,-404 332.5,-385 387.5,-385 387.5,-404"/>
<text text-anchor="middle" x="360" y="-392" font-family="Helvetica,sans-Serif" font-size="10.00">cpu.hpp</text>
</a>
</g>
</g>
<!-- Node1&#45;&gt;Node11 -->
<g id="edge12_Node000001_Node000011" class="edge">
<title>Node1&#45;&gt;Node11</title>
<g id="a_edge12_Node000001_Node000011"><a xlink:title=" ">
<path fill="none" stroke="#63b8ff" d="M204.69,-438.15C242.2,-427.85 298.89,-412.28 332.4,-403.08"/>
<polygon fill="#63b8ff" stroke="#63b8ff" points="203.37,-434.88 194.65,-440.91 205.22,-441.63 203.37,-434.88"/>
</a>
</g>
</g>
<!-- Node18 -->
<g id="Node000018" class="node">
<title>Node18</title>
<g id="a_Node000018"><a xlink:href="matrix__ops__cpu_8hpp.html" target="_top" xlink:title=" ">
<polygon fill="white" stroke="#666666" points="360.5,-239 245.5,-239 245.5,-220 360.5,-220 360.5,-239"/>
<text text-anchor="middle" x="303" y="-227" font-family="Helvetica,sans-Serif" font-size="10.00">matrix_ops_cpu.hpp</text>
</a>
</g>
</g>
<!-- Node1&#45;&gt;Node18 -->
<g id="edge26_Node000001_Node000018" class="edge">
<title>Node1&#45;&gt;Node18</title>
<g id="a_edge26_Node000001_Node000018"><a xlink:title=" ">
<path fill="none" stroke="#63b8ff" d="M168.93,-429.66C173.53,-385.05 184.82,-276.52 186,-275 200.56,-256.17 224.07,-245.31 246.21,-239.05"/>
<polygon fill="#63b8ff" stroke="#63b8ff" points="165.44,-429.44 167.9,-439.75 172.4,-430.16 165.44,-429.44"/>
</a>
</g>
</g>
<!-- Node3 -->
<g id="Node000003" class="node">
<title>Node3</title>
<g id="a_Node000003"><a xlink:href="linalg_8hpp.html" target="_top" xlink:title=" ">
<polygon fill="white" stroke="#666666" points="411.5,-19 346.5,-19 346.5,0 411.5,0 411.5,-19"/>
<text text-anchor="middle" x="379" y="-7" font-family="Helvetica,sans-Serif" font-size="10.00">linalg.hpp</text>
</a>
</g>
</g>
<!-- Node2&#45;&gt;Node3 -->
<g id="edge2_Node000002_Node000003" class="edge">
<title>Node2&#45;&gt;Node3</title>
<g id="a_edge2_Node000002_Node000003"><a xlink:title=" ">
<path fill="none" stroke="#63b8ff" d="M315.05,-101.38C331.5,-78.01 360.37,-36.97 372.91,-19.16"/>
<polygon fill="#63b8ff" stroke="#63b8ff" points="312.11,-99.47 309.22,-109.66 317.84,-103.5 312.11,-99.47"/>
</a>
</g>
</g>
<!-- Node4 -->
<g id="Node000004" class="node">
<title>Node4</title>
<g id="a_Node000004"><a xlink:href="matrix__ops_8hpp.html" target="_top" xlink:title=" ">
<polygon fill="white" stroke="#666666" points="471,-74 379,-74 379,-55 471,-55 471,-74"/>
<text text-anchor="middle" x="425" y="-62" font-family="Helvetica,sans-Serif" font-size="10.00">matrix_ops.hpp</text>
</a>
</g>
</g>
<!-- Node2&#45;&gt;Node4 -->
<g id="edge3_Node000002_Node000004" class="edge">
<title>Node2&#45;&gt;Node4</title>
<g id="a_edge3_Node000002_Node000004"><a xlink:title=" ">
<path fill="none" stroke="#63b8ff" d="M332.01,-105.9C354.54,-96.11 385.2,-82.79 405.04,-74.17"/>
<polygon fill="#63b8ff" stroke="#63b8ff" points="330.38,-102.79 322.6,-109.98 333.17,-109.21 330.38,-102.79"/>
</a>
</g>
</g>
<!-- Node4&#45;&gt;Node3 -->
<g id="edge4_Node000004_Node000003" class="edge">
<title>Node4&#45;&gt;Node3</title>
<g id="a_edge4_Node000004_Node000003"><a xlink:title=" ">
<path fill="none" stroke="#63b8ff" d="M410.64,-46.96C402.63,-37.72 392.97,-26.6 386.45,-19.09"/>
<polygon fill="#63b8ff" stroke="#63b8ff" points="408.21,-49.49 417.4,-54.75 413.49,-44.9 408.21,-49.49"/>
</a>
</g>
</g>
<!-- Node6 -->
<g id="Node000006" class="node">
<title>Node6</title>
<g id="a_Node000006"><a xlink:href="backend__mkl_8hpp.html" target="_top" xlink:title=" ">
<polygon fill="white" stroke="#666666" points="168,-349 66,-349 66,-330 168,-330 168,-349"/>
<text text-anchor="middle" x="117" y="-337" font-family="Helvetica,sans-Serif" font-size="10.00">backend_mkl.hpp</text>
</a>
</g>
</g>
<!-- Node5&#45;&gt;Node6 -->
<g id="edge6_Node000005_Node000006" class="edge">
<title>Node5&#45;&gt;Node6</title>
<g id="a_edge6_Node000005_Node000006"><a xlink:title=" ">
<path fill="none" stroke="#63b8ff" d="M124.15,-374.95C122.32,-366.15 120.23,-356.06 118.78,-349.09"/>
<polygon fill="#63b8ff" stroke="#63b8ff" points="120.72,-375.67 126.18,-384.75 127.58,-374.25 120.72,-375.67"/>
</a>
</g>
</g>
<!-- Node7 -->
<g id="Node000007" class="node">
<title>Node7</title>
<g id="a_Node000007"><a xlink:href="kernel_2blas_2blas_8hpp.html" target="_top" xlink:title=" ">
<polygon fill="white" stroke="#666666" points="341,-349 283,-349 283,-330 341,-330 341,-349"/>
<text text-anchor="middle" x="312" y="-337" font-family="Helvetica,sans-Serif" font-size="10.00">blas.hpp</text>
</a>
</g>
</g>
<!-- Node5&#45;&gt;Node7 -->
<g id="edge7_Node000005_Node000007" class="edge">
<title>Node5&#45;&gt;Node7</title>
<g id="a_edge7_Node000005_Node000007"><a xlink:title=" ">
<path fill="none" stroke="#63b8ff" d="M166.95,-382.28C201.66,-372.28 251.68,-357.88 282.98,-348.86"/>
<polygon fill="#63b8ff" stroke="#63b8ff" points="165.8,-378.97 157.16,-385.1 167.73,-385.7 165.8,-378.97"/>
</a>
</g>
</g>
<!-- Node10 -->
<g id="Node000010" class="node">
<title>Node10</title>
<g id="a_Node000010"><a xlink:href="lapack_8hpp.html" target="_top" xlink:title="Tag for selecting LAPACK&#45;backed kernels.">
<polygon fill="white" stroke="#666666" points="159,-239 89,-239 89,-220 159,-220 159,-239"/>
<text text-anchor="middle" x="124" y="-227" font-family="Helvetica,sans-Serif" font-size="10.00">lapack.hpp</text>
</a>
</g>
</g>
<!-- Node5&#45;&gt;Node10 -->
<g id="edge10_Node000005_Node000010" class="edge">
<title>Node5&#45;&gt;Node10</title>
<g id="a_edge10_Node000005_Node000010"><a xlink:title=" ">
<path fill="none" stroke="#63b8ff" d="M93.11,-380.5C79.29,-373.43 64.84,-363.17 57,-349 34.11,-307.64 87.88,-258.58 112.5,-239.09"/>
<polygon fill="#63b8ff" stroke="#63b8ff" points="91.95,-383.82 102.49,-384.9 94.92,-377.48 91.95,-383.82"/>
</a>
</g>
</g>
<!-- Node8 -->
<g id="Node000008" class="node">
<title>Node8</title>
<g id="a_Node000008"><a xlink:href="kernel_2blas_2backend__blas_8hpp.html" target="_top" xlink:title=" ">
<polygon fill="white" stroke="#666666" points="394,-294 290,-294 290,-275 394,-275 394,-294"/>
<text text-anchor="middle" x="342" y="-282" font-family="Helvetica,sans-Serif" font-size="10.00">backend_blas.hpp</text>
</a>
</g>
</g>
<!-- Node7&#45;&gt;Node8 -->
<g id="edge8_Node000007_Node000008" class="edge">
<title>Node7&#45;&gt;Node8</title>
<g id="a_edge8_Node000007_Node000008"><a xlink:title=" ">
<path fill="none" stroke="#63b8ff" d="M322.01,-320.82C327.1,-311.82 333.06,-301.29 337.14,-294.09"/>
<polygon fill="#63b8ff" stroke="#63b8ff" points="318.83,-319.32 316.95,-329.75 324.93,-322.77 318.83,-319.32"/>
</a>
</g>
</g>
<!-- Node9 -->
<g id="Node000009" class="node">
<title>Node9</title>
<g id="a_Node000009"><a xlink:href="blas_2contract_8hpp.html" target="_top" xlink:title=" ">
<polygon fill="white" stroke="#666666" points="271.5,-294 194.5,-294 194.5,-275 271.5,-275 271.5,-294"/>
<text text-anchor="middle" x="233" y="-282" font-family="Helvetica,sans-Serif" font-size="10.00">contract.hpp</text>
</a>
</g>
</g>
<!-- Node7&#45;&gt;Node9 -->
<g id="edge9_Node000007_Node000009" class="edge">
<title>Node7&#45;&gt;Node9</title>
<g id="a_edge9_Node000007_Node000009"><a xlink:title=" ">
<path fill="none" stroke="#63b8ff" d="M290.61,-324.15C276.33,-314.57 258.03,-302.29 245.92,-294.17"/>
<polygon fill="#63b8ff" stroke="#63b8ff" points="289.05,-327.32 299.31,-329.98 292.95,-321.51 289.05,-327.32"/>
</a>
</g>
</g>
<!-- Node10&#45;&gt;Node2 -->
<g id="edge11_Node000010_Node000002" class="edge">
<title>Node10&#45;&gt;Node2</title>
<g id="a_edge11_Node000010_Node000002"><a xlink:title=" ">
<path fill="none" stroke="#63b8ff" d="M147.06,-214.59C184.55,-191.97 257.63,-147.88 288.59,-129.2"/>
<polygon fill="#63b8ff" stroke="#63b8ff" points="145.1,-211.68 138.35,-219.84 148.72,-217.68 145.1,-211.68"/>
</a>
</g>
</g>
<!-- Node11&#45;&gt;Node7 -->
<g id="edge13_Node000011_Node000007" class="edge">
<title>Node11&#45;&gt;Node7</title>
<g id="a_edge13_Node000011_Node000007"><a xlink:title=" ">
<path fill="none" stroke="#63b8ff" d="M345.27,-377.24C336.86,-367.95 326.65,-356.68 319.78,-349.09"/>
<polygon fill="#63b8ff" stroke="#63b8ff" points="342.77,-379.69 352.07,-384.75 347.96,-374.99 342.77,-379.69"/>
</a>
</g>
</g>
<!-- Node12 -->
<g id="Node000012" class="node">
<title>Node12</title>
<g id="a_Node000012"><a xlink:href="cpu_2contract_8hpp.html" target="_top" xlink:title=" ">
<polygon fill="white" stroke="#666666" points="476.5,-349 399.5,-349 399.5,-330 476.5,-330 476.5,-349"/>
<text text-anchor="middle" x="438" y="-337" font-family="Helvetica,sans-Serif" font-size="10.00">contract.hpp</text>
</a>
</g>
</g>
<!-- Node11&#45;&gt;Node12 -->
<g id="edge14_Node000011_Node000012" class="edge">
<title>Node11&#45;&gt;Node12</title>
<g id="a_edge14_Node000011_Node000012"><a xlink:title=" ">
<path fill="none" stroke="#63b8ff" d="M381.12,-379.15C395.21,-369.57 413.29,-357.29 425.24,-349.17"/>
<polygon fill="#63b8ff" stroke="#63b8ff" points="378.84,-376.47 372.53,-384.98 382.77,-382.26 378.84,-376.47"/>
</a>
</g>
</g>
<!-- Node14 -->
<g id="Node000014" class="node">
<title>Node14</title>
<g id="a_Node000014"><a xlink:href="vectorstorage_8hpp.html" target="_top" xlink:title=" ">
<polygon fill="white" stroke="#666666" points="608.5,-349 503.5,-349 503.5,-330 608.5,-330 608.5,-349"/>
<text text-anchor="middle" x="556" y="-337" font-family="Helvetica,sans-Serif" font-size="10.00">vectorstorage.hpp</text>
</a>
</g>
</g>
<!-- Node11&#45;&gt;Node14 -->
<g id="edge16_Node000011_Node000014" class="edge">
<title>Node11&#45;&gt;Node14</title>
<g id="a_edge16_Node000011_Node000014"><a xlink:title=" ">
<path fill="none" stroke="#63b8ff" d="M397.5,-383.36C434.25,-373.42 489.63,-358.45 524.25,-349.08"/>
<polygon fill="#63b8ff" stroke="#63b8ff" points="396.41,-380.03 387.67,-386.02 398.23,-386.79 396.41,-380.03"/>
</a>
</g>
</g>
<!-- Node13 -->
<g id="Node000013" class="node">
<title>Node13</title>
<g id="a_Node000013"><a xlink:href="contract_8hpp.html" target="_top" xlink:title=" ">
<polygon fill="white" stroke="#666666" points="489.5,-294 412.5,-294 412.5,-275 489.5,-275 489.5,-294"/>
<text text-anchor="middle" x="451" y="-282" font-family="Helvetica,sans-Serif" font-size="10.00">contract.hpp</text>
</a>
</g>
</g>
<!-- Node12&#45;&gt;Node13 -->
<g id="edge15_Node000012_Node000013" class="edge">
<title>Node12&#45;&gt;Node13</title>
<g id="a_edge15_Node000012_Node000013"><a xlink:title=" ">
<path fill="none" stroke="#63b8ff" d="M442.55,-319.95C444.71,-311.15 447.18,-301.06 448.89,-294.09"/>
<polygon fill="#63b8ff" stroke="#63b8ff" points="439.13,-319.2 440.15,-329.75 445.93,-320.87 439.13,-319.2"/>
</a>
</g>
</g>
<!-- Node14&#45;&gt;Node4 -->
<g id="edge17_Node000014_Node000004" class="edge">
<title>Node14&#45;&gt;Node4</title>
<g id="a_edge17_Node000014_Node000004"><a xlink:title=" ">
<path fill="none" stroke="#63b8ff" d="M580.44,-324.38C591.8,-316.71 604.62,-306.27 613,-294 629.62,-269.68 632,-259.96 632,-230.5 632,-230.5 632,-230.5 632,-173.5 632,-101.45 532.2,-77.39 471.2,-69.41"/>
<polygon fill="#63b8ff" stroke="#63b8ff" points="578.3,-321.6 571.76,-329.93 582.07,-327.49 578.3,-321.6"/>
</a>
</g>
</g>
<!-- Node15 -->
<g id="Node000015" class="node">
<title>Node15</title>
<g id="a_Node000015"><a xlink:href="tensor__view_8hpp.html" target="_top" xlink:title="Tensor view abstractions and accessor factories built on std::mdspan.">
<polygon fill="white" stroke="#666666" points="604,-294 508,-294 508,-275 604,-275 604,-294"/>
<text text-anchor="middle" x="556" y="-282" font-family="Helvetica,sans-Serif" font-size="10.00">tensor_view.hpp</text>
</a>
</g>
</g>
<!-- Node14&#45;&gt;Node15 -->
<g id="edge18_Node000014_Node000015" class="edge">
<title>Node14&#45;&gt;Node15</title>
<g id="a_edge18_Node000014_Node000015"><a xlink:title=" ">
<path fill="none" stroke="#63b8ff" d="M556,-319.66C556,-310.93 556,-300.99 556,-294.09"/>
<polygon fill="#63b8ff" stroke="#63b8ff" points="552.5,-319.75 556,-329.75 559.5,-319.75 552.5,-319.75"/>
</a>
</g>
</g>
<!-- Node15&#45;&gt;Node4 -->
<g id="edge22_Node000015_Node000004" class="edge">
<title>Node15&#45;&gt;Node4</title>
<g id="a_edge22_Node000015_Node000004"><a xlink:title=" ">
<path fill="none" stroke="#63b8ff" d="M555.26,-264.8C553.58,-240.38 548.06,-196.98 530,-165 506.78,-123.89 461.04,-89.5 438.37,-74.13"/>
<polygon fill="#63b8ff" stroke="#63b8ff" points="551.77,-265.06 555.81,-274.85 558.76,-264.68 551.77,-265.06"/>
</a>
</g>
</g>
<!-- Node16 -->
<g id="Node000016" class="node">
<title>Node16</title>
<g id="a_Node000016"><a xlink:href="basic__tensor_8hpp.html" target="_top" xlink:title=" ">
<polygon fill="white" stroke="#666666" points="528,-239 430,-239 430,-220 528,-220 528,-239"/>
<text text-anchor="middle" x="479" y="-227" font-family="Helvetica,sans-Serif" font-size="10.00">basic_tensor.hpp</text>
</a>
</g>
</g>
<!-- Node15&#45;&gt;Node16 -->
<g id="edge19_Node000015_Node000016" class="edge">
<title>Node15&#45;&gt;Node16</title>
<g id="a_edge19_Node000015_Node000016"><a xlink:title=" ">
<path fill="none" stroke="#63b8ff" d="M535.15,-269.15C521.24,-259.57 503.39,-247.29 491.6,-239.17"/>
<polygon fill="#63b8ff" stroke="#63b8ff" points="533.41,-272.2 543.63,-274.98 537.38,-266.43 533.41,-272.2"/>
</a>
</g>
</g>
<!-- Node15&#45;&gt;Node18 -->
<g id="edge23_Node000015_Node000018" class="edge">
<title>Node15&#45;&gt;Node18</title>
<g id="a_edge23_Node000015_Node000018"><a xlink:title=" ">
<path fill="none" stroke="#63b8ff" d="M505.3,-272.88C457.88,-262.94 387.95,-248.3 343.97,-239.08"/>
<polygon fill="#63b8ff" stroke="#63b8ff" points="504.85,-276.36 515.35,-274.98 506.28,-269.51 504.85,-276.36"/>
</a>
</g>
</g>
<!-- Node16&#45;&gt;Node4 -->
<g id="edge20_Node000016_Node000004" class="edge">
<title>Node16&#45;&gt;Node4</title>
<g id="a_edge20_Node000016_Node000004"><a xlink:title=" ">
<path fill="none" stroke="#63b8ff" d="M463.11,-212.46C456.16,-204.52 448.56,-194.42 444,-184 427.2,-145.64 425.07,-94.46 424.93,-74.25"/>
<polygon fill="#63b8ff" stroke="#63b8ff" points="460.6,-214.9 469.97,-219.86 465.74,-210.15 460.6,-214.9"/>
</a>
</g>
</g>
<!-- Node17 -->
<g id="Node000017" class="node">
<title>Node17</title>
<g id="a_Node000017"><a xlink:href="tensor_8hpp.html" target="_top" xlink:title=" ">
<polygon fill="white" stroke="#666666" points="521,-184 453,-184 453,-165 521,-165 521,-184"/>
<text text-anchor="middle" x="487" y="-172" font-family="Helvetica,sans-Serif" font-size="10.00">tensor.hpp</text>
</a>
</g>
</g>
<!-- Node16&#45;&gt;Node17 -->
<g id="edge21_Node000016_Node000017" class="edge">
<title>Node16&#45;&gt;Node17</title>
<g id="a_edge21_Node000016_Node000017"><a xlink:title=" ">
<path fill="none" stroke="#63b8ff" d="M481.84,-209.66C483.16,-200.93 484.66,-190.99 485.7,-184.09"/>
<polygon fill="#63b8ff" stroke="#63b8ff" points="478.35,-209.34 480.32,-219.75 485.27,-210.38 478.35,-209.34"/>
</a>
</g>
</g>
<!-- Node19 -->
<g id="Node000019" class="node">
<title>Node19</title>
<g id="a_Node000019"><a xlink:href="linalg__cpu_8hpp.html" target="_top" xlink:title=" ">
<polygon fill="white" stroke="#666666" points="346.5,-184 259.5,-184 259.5,-165 346.5,-165 346.5,-184"/>
<text text-anchor="middle" x="303" y="-172" font-family="Helvetica,sans-Serif" font-size="10.00">linalg_cpu.hpp</text>
</a>
</g>
</g>
<!-- Node18&#45;&gt;Node19 -->
<g id="edge24_Node000018_Node000019" class="edge">
<title>Node18&#45;&gt;Node19</title>
<g id="a_edge24_Node000018_Node000019"><a xlink:title=" ">
<path fill="none" stroke="#63b8ff" d="M303,-209.66C303,-200.93 303,-190.99 303,-184.09"/>
<polygon fill="#63b8ff" stroke="#63b8ff" points="299.5,-209.75 303,-219.75 306.5,-209.75 299.5,-209.75"/>
</a>
</g>
</g>
<!-- Node19&#45;&gt;Node2 -->
<g id="edge25_Node000019_Node000002" class="edge">
<title>Node19&#45;&gt;Node2</title>
<g id="a_edge25_Node000019_Node000002"><a xlink:title=" ">
<path fill="none" stroke="#63b8ff" d="M303,-154.66C303,-145.93 303,-135.99 303,-129.09"/>
<polygon fill="#63b8ff" stroke="#63b8ff" points="299.5,-154.75 303,-164.75 306.5,-154.75 299.5,-154.75"/>
</a>
</g>
</g>
</g>
</svg>
