<?xml version="1.0" encoding="UTF-8" standalone="no"?>
<!DOCTYPE svg PUBLIC "-//W3C//DTD SVG 1.1//EN"
 "http://www.w3.org/Graphics/SVG/1.1/DTD/svg11.dtd">
<!-- Generated by graphviz version 2.43.0 (0)
 -->
<!-- Title: blas.hpp Pages: 1 -->
<svg width="372pt" height="247pt"
 viewBox="0.00 0.00 372.00 247.00" xmlns="http://www.w3.org/2000/svg" xmlns:xlink="http://www.w3.org/1999/xlink">

<svg id="main" version="1.1" xmlns="http://www.w3.org/2000/svg" xmlns:xlink="http://www.w3.org/1999/xlink" xml:space="preserve" onload="init(evt)">
<style type="text/css"><![CDATA[
.node, .edge {opacity: 0.7;}
.node.selected, .edge.selected {opacity: 1;}
.edge:hover path { stroke: red; }
.edge:hover polygon { stroke: red; fill: red; }
]]></style>
<script type="application/ecmascript" xlink:href="svg.min.js"/>
<svg id="graph" class="graph">
<g id="graph0" class="graph" transform="scale(1 1) rotate(0) translate(4 243)">
<title>blas.hpp</title>
<!-- Node1 -->
<g id="Node000001" class="node">
<title>Node1</title>
<g id="a_Node000001"><a xlink:title="Tag for selecting BLAS&#45;backed kernels.">
<polygon fill="#999999" stroke="#666666" points="190,-239 132,-239 132,-220 190,-220 190,-239"/>
<text text-anchor="middle" x="161" y="-227" font-family="Helvetica,sans-Serif" font-size="10.00">blas.hpp</text>
</a>
</g>
</g>
<!-- Node2 -->
<g id="Node000002" class="node">
<title>Node2</title>
<g id="a_Node000002"><a xlink:href="backend__mkl_8hpp.html" target="_top" xlink:title=" ">
<polygon fill="white" stroke="#666666" points="114,-184 12,-184 12,-165 114,-165 114,-184"/>
<text text-anchor="middle" x="63" y="-172" font-family="Helvetica,sans-Serif" font-size="10.00">backend_mkl.hpp</text>
</a>
</g>
</g>
<!-- Node1&#45;&gt;Node2 -->
<g id="edge1_Node000001_Node000002" class="edge">
<title>Node1&#45;&gt;Node2</title>
<g id="a_edge1_Node000001_Node000002"><a xlink:title=" ">
<path fill="none" stroke="#63b8ff" d="M135.97,-214.97C118.06,-205.28 94.47,-192.52 79.03,-184.17"/>
<polygon fill="#63b8ff" stroke="#63b8ff" points="134.79,-218.31 145.25,-219.98 138.12,-212.15 134.79,-218.31"/>
</a>
</g>
</g>
<!-- Node3 -->
<g id="Node000003" class="node">
<title>Node3</title>
<g id="a_Node000003"><a xlink:href="kernel_2blas_2blas_8hpp.html" target="_top" xlink:title=" ">
<polygon fill="white" stroke="#666666" points="190,-184 132,-184 132,-165 190,-165 190,-184"/>
<text text-anchor="middle" x="161" y="-172" font-family="Helvetica,sans-Serif" font-size="10.00">blas.hpp</text>
</a>
</g>
</g>
<!-- Node1&#45;&gt;Node3 -->
<g id="edge2_Node000001_Node000003" class="edge">
<title>Node1&#45;&gt;Node3</title>
<g id="a_edge2_Node000001_Node000003"><a xlink:title=" ">
<path fill="none" stroke="#63b8ff" d="M161,-209.66C161,-200.93 161,-190.99 161,-184.09"/>
<polygon fill="#63b8ff" stroke="#63b8ff" points="157.5,-209.75 161,-219.75 164.5,-209.75 157.5,-209.75"/>
</a>
</g>
</g>
<!-- Node6 -->
<g id="Node000006" class="node">
<title>Node6</title>
<g id="a_Node000006"><a xlink:href="lapack_8hpp.html" target="_top" xlink:title="Tag for selecting LAPACK&#45;backed kernels.">
<polygon fill="white" stroke="#666666" points="297,-184 227,-184 227,-165 297,-165 297,-184"/>
<text text-anchor="middle" x="262" y="-172" font-family="Helvetica,sans-Serif" font-size="10.00">lapack.hpp</text>
</a>
</g>
</g>
<!-- Node1&#45;&gt;Node6 -->
<g id="edge5_Node000001_Node000006" class="edge">
<title>Node1&#45;&gt;Node6</title>
<g id="a_edge5_Node000001_Node000006"><a xlink:title=" ">
<path fill="none" stroke="#63b8ff" d="M186.28,-215.23C204.8,-205.51 229.42,-192.6 245.48,-184.17"/>
<polygon fill="#63b8ff" stroke="#63b8ff" points="184.46,-212.24 177.23,-219.98 187.71,-218.44 184.46,-212.24"/>
</a>
</g>
</g>
<!-- Node4 -->
<g id="Node000004" class="node">
<title>Node4</title>
<g id="a_Node000004"><a xlink:href="kernel_2blas_2backend__blas_8hpp.html" target="_top" xlink:title=" ">
<polygon fill="white" stroke="#666666" points="104,-129 0,-129 0,-110 104,-110 104,-129"/>
<text text-anchor="middle" x="52" y="-117" font-family="Helvetica,sans-Serif" font-size="10.00">backend_blas.hpp</text>
</a>
</g>
</g>
<!-- Node3&#45;&gt;Node4 -->
<g id="edge3_Node000003_Node000004" class="edge">
<title>Node3&#45;&gt;Node4</title>
<g id="a_edge3_Node000003_Node000004"><a xlink:title=" ">
<path fill="none" stroke="#63b8ff" d="M134.27,-160.5C114.21,-150.75 87.32,-137.68 69.83,-129.17"/>
<polygon fill="#63b8ff" stroke="#63b8ff" points="132.96,-163.76 143.49,-164.98 136.02,-157.46 132.96,-163.76"/>
</a>
</g>
</g>
<!-- Node5 -->
<g id="Node000005" class="node">
<title>Node5</title>
<g id="a_Node000005"><a xlink:href="blas_2contract_8hpp.html" target="_top" xlink:title=" ">
<polygon fill="white" stroke="#666666" points="199.5,-129 122.5,-129 122.5,-110 199.5,-110 199.5,-129"/>
<text text-anchor="middle" x="161" y="-117" font-family="Helvetica,sans-Serif" font-size="10.00">contract.hpp</text>
</a>
</g>
</g>
<!-- Node3&#45;&gt;Node5 -->
<g id="edge4_Node000003_Node000005" class="edge">
<title>Node3&#45;&gt;Node5</title>
<g id="a_edge4_Node000003_Node000005"><a xlink:title=" ">
<path fill="none" stroke="#63b8ff" d="M161,-154.66C161,-145.93 161,-135.99 161,-129.09"/>
<polygon fill="#63b8ff" stroke="#63b8ff" points="157.5,-154.75 161,-164.75 164.5,-154.75 157.5,-154.75"/>
</a>
</g>
</g>
<!-- Node7 -->
<g id="Node000007" class="node">
<title>Node7</title>
<g id="a_Node000007"><a xlink:href="backend__manifest_8hpp.html" target="_top" xlink:title=" ">
<polygon fill="white" stroke="#666666" points="344.5,-129 217.5,-129 217.5,-110 344.5,-110 344.5,-129"/>
<text text-anchor="middle" x="281" y="-117" font-family="Helvetica,sans-Serif" font-size="10.00">backend_manifest.hpp</text>
</a>
</g>
</g>
<!-- Node6&#45;&gt;Node7 -->
<g id="edge6_Node000006_Node000007" class="edge">
<title>Node6&#45;&gt;Node7</title>
<g id="a_edge6_Node000006_Node000007"><a xlink:title=" ">
<path fill="none" stroke="#63b8ff" d="M268.55,-155.24C271.72,-146.37 275.39,-136.14 277.92,-129.09"/>
<polygon fill="#63b8ff" stroke="#63b8ff" points="265.22,-154.15 265.14,-164.75 271.81,-156.52 265.22,-154.15"/>
</a>
</g>
</g>
<!-- Node8 -->
<g id="Node000008" class="node">
<title>Node8</title>
<g id="a_Node000008"><a xlink:href="linalg_8hpp.html" target="_top" xlink:title=" ">
<polygon fill="white" stroke="#666666" points="313.5,-19 248.5,-19 248.5,0 313.5,0 313.5,-19"/>
<text text-anchor="middle" x="281" y="-7" font-family="Helvetica,sans-Serif" font-size="10.00">linalg.hpp</text>
</a>
</g>
</g>
<!-- Node7&#45;&gt;Node8 -->
<g id="edge7_Node000007_Node000008" class="edge">
<title>Node7&#45;&gt;Node8</title>
<g id="a_edge7_Node000007_Node000008"><a xlink:title=" ">
<path fill="none" stroke="#63b8ff" d="M272.06,-100.9C268.48,-92.91 264.79,-83.2 263,-74 259.1,-53.98 269.33,-31.1 275.92,-19.02"/>
<polygon fill="#63b8ff" stroke="#63b8ff" points="268.91,-102.43 276.38,-109.94 275.23,-99.41 268.91,-102.43"/>
</a>
</g>
</g>
<!-- Node9 -->
<g id="Node000009" class="node">
<title>Node9</title>
<g id="a_Node000009"><a xlink:href="matrix__ops_8hpp.html" target="_top" xlink:title=" ">
<polygon fill="white" stroke="#666666" points="364,-74 272,-74 272,-55 364,-55 364,-74"/>
<text text-anchor="middle" x="318" y="-62" font-family="Helvetica,sans-Serif" font-size="10.00">matrix_ops.hpp</text>
</a>
</g>
</g>
<!-- Node7&#45;&gt;Node9 -->
<g id="edge8_Node000007_Node000009" class="edge">
<title>Node7&#45;&gt;Node9</title>
<g id="a_edge8_Node000007_Node000009"><a xlink:title=" ">
<path fill="none" stroke="#63b8ff" d="M292.95,-101.39C299.31,-92.27 306.87,-81.45 312,-74.09"/>
<polygon fill="#63b8ff" stroke="#63b8ff" points="289.96,-99.55 287.11,-109.75 295.7,-103.55 289.96,-99.55"/>
</a>
</g>
</g>
<!-- Node9&#45;&gt;Node8 -->
<g id="edge9_Node000009_Node000008" class="edge">
<title>Node9&#45;&gt;Node8</title>
<g id="a_edge9_Node000009_Node000008"><a xlink:title=" ">
<path fill="none" stroke="#63b8ff" d="M306.05,-46.39C299.69,-37.27 292.13,-26.45 287,-19.09"/>
<polygon fill="#63b8ff" stroke="#63b8ff" points="303.3,-48.55 311.89,-54.75 309.04,-44.55 303.3,-48.55"/>
</a>
</g>
</g>
</g>
</svg>
</svg>

<style type='text/css'>
<![CDATA[
[data-mouse-over-selected='false'] { opacity: 0.7; }
[data-mouse-over-selected='true']  { opacity: 1.0; }
]]>
</style>
<script type="application/ecmascript"><![CDATA[
document.addEventListener('DOMContentLoaded', (event) => {
  highlightEdges();
  highlightAdjacentNodes();
});
]]></script>
</svg>
