<?xml version="1.0" encoding="UTF-8" standalone="no"?>
<!DOCTYPE svg PUBLIC "-//W3C//DTD SVG 1.1//EN"
 "http://www.w3.org/Graphics/SVG/1.1/DTD/svg11.dtd">
<!-- Generated by graphviz version 2.43.0 (0)
 -->
<!-- Title: tbb_scheduler.hpp Pages: 1 -->
<svg width="504pt" height="93pt"
 viewBox="0.00 0.00 503.50 93.00" xmlns="http://www.w3.org/2000/svg" xmlns:xlink="http://www.w3.org/1999/xlink">
<g id="graph0" class="graph" transform="scale(1 1) rotate(0) translate(4 89)">
<title>tbb_scheduler.hpp</title>
<!-- Node1 -->
<g id="Node000001" class="node">
<title>Node1</title>
<g id="a_Node000001"><a xlink:title="Scheduler implementation using oneAPI oneTBB task_arena + task_group.">
<polygon fill="#999999" stroke="#666666" points="312,-85 207,-85 207,-66 312,-66 312,-85"/>
<text text-anchor="middle" x="259.5" y="-73" font-family="Helvetica,sans-Serif" font-size="10.00">tbb_scheduler.hpp</text>
</a>
</g>
</g>
<!-- Node2 -->
<g id="Node000002" class="node">
<title>Node2</title>
<g id="a_Node000002"><a xlink:href="async__fib__example_8cpp.html" target="_top" xlink:title=" ">
<polygon fill="white" stroke="#666666" points="131,-24.5 0,-24.5 0,-5.5 131,-5.5 131,-24.5"/>
<text text-anchor="middle" x="65.5" y="-12.5" font-family="Helvetica,sans-Serif" font-size="10.00">async_fib_example.cpp</text>
</a>
</g>
</g>
<!-- Node1&#45;&gt;Node2 -->
<g id="edge1_Node000001_Node000002" class="edge">
<title>Node1&#45;&gt;Node2</title>
<g id="a_edge1_Node000001_Node000002"><a xlink:title=" ">
<path fill="none" stroke="#63b8ff" d="M221.24,-62.96C183.72,-51.65 127.38,-34.66 93.74,-24.52"/>
<polygon fill="#63b8ff" stroke="#63b8ff" points="220.71,-66.46 231.29,-65.99 222.73,-59.76 220.71,-66.46"/>
</a>
</g>
</g>
<!-- Node3 -->
<g id="Node000003" class="node">
<title>Node3</title>
<g id="a_Node000003"><a xlink:href="async__tbb__reduction__example_8cpp.html" target="_top" xlink:title="Example of using uni20 coroutines with the TbbScheduler to parallelize a map–reduce computation.">
<polygon fill="white" stroke="#666666" points="266,-30 149,-30 149,0 266,0 266,-30"/>
<text text-anchor="start" x="157" y="-18" font-family="Helvetica,sans-Serif" font-size="10.00">async_tbb_reduction</text>
<text text-anchor="middle" x="207.5" y="-7" font-family="Helvetica,sans-Serif" font-size="10.00">_example.cpp</text>
</a>
</g>
</g>
<!-- Node1&#45;&gt;Node3 -->
<g id="edge2_Node000001_Node000003" class="edge">
<title>Node1&#45;&gt;Node3</title>
<g id="a_edge2_Node000001_Node000003"><a xlink:title=" ">
<path fill="none" stroke="#63b8ff" d="M244.97,-58.15C237.13,-49.34 227.56,-38.56 220.05,-30.11"/>
<polygon fill="#63b8ff" stroke="#63b8ff" points="242.57,-60.72 251.83,-65.87 247.8,-56.07 242.57,-60.72"/>
</a>
</g>
</g>
<!-- Node4 -->
<g id="Node000004" class="node">
<title>Node4</title>
<g id="a_Node000004"><a xlink:href="bug_8cpp.html" target="_top" xlink:title=" ">
<polygon fill="white" stroke="#666666" points="339,-24.5 284,-24.5 284,-5.5 339,-5.5 339,-24.5"/>
<text text-anchor="middle" x="311.5" y="-12.5" font-family="Helvetica,sans-Serif" font-size="10.00">bug.cpp</text>
</a>
</g>
</g>
<!-- Node1&#45;&gt;Node4 -->
<g id="edge3_Node000001_Node000004" class="edge">
<title>Node1&#45;&gt;Node4</title>
<g id="a_edge3_Node000001_Node000004"><a xlink:title=" ">
<path fill="none" stroke="#63b8ff" d="M273.93,-58.27C283.6,-47.39 295.95,-33.49 303.8,-24.67"/>
<polygon fill="#63b8ff" stroke="#63b8ff" points="271.2,-56.07 267.17,-65.87 276.43,-60.72 271.2,-56.07"/>
</a>
</g>
</g>
<!-- Node5 -->
<g id="Node000005" class="node">
<title>Node5</title>
<g id="a_Node000005"><a xlink:href="tbb__numa__scheduler_8hpp.html" target="_top" xlink:title="Scheduler that dispatches work across NUMA&#45;aware TbbScheduler arenas.">
<polygon fill="white" stroke="#666666" points="495.5,-24.5 357.5,-24.5 357.5,-5.5 495.5,-5.5 495.5,-24.5"/>
<text text-anchor="middle" x="426.5" y="-12.5" font-family="Helvetica,sans-Serif" font-size="10.00">tbb_numa_scheduler.hpp</text>
</a>
</g>
</g>
<!-- Node1&#45;&gt;Node5 -->
<g id="edge4_Node000001_Node000005" class="edge">
<title>Node1&#45;&gt;Node5</title>
<g id="a_edge4_Node000001_Node000005"><a xlink:title=" ">
<path fill="none" stroke="#63b8ff" d="M293.27,-62.67C325.56,-51.36 373.48,-34.57 402.19,-24.52"/>
<polygon fill="#63b8ff" stroke="#63b8ff" points="292.06,-59.38 283.78,-65.99 294.38,-65.99 292.06,-59.38"/>
</a>
</g>
</g>
</g>
</svg>
