<?xml version="1.0" encoding="UTF-8" standalone="no"?>
<!DOCTYPE svg PUBLIC "-//W3C//DTD SVG 1.1//EN"
 "http://www.w3.org/Graphics/SVG/1.1/DTD/svg11.dtd">
<!-- Generated by graphviz version 2.43.0 (0)
 -->
<!-- Title: tensor_view.hpp Pages: 1 -->
<!--zoomable 247 -->

<svg id="main" version="1.1" xmlns="http://www.w3.org/2000/svg" xmlns:xlink="http://www.w3.org/1999/xlink" xml:space="preserve" onload="init(evt)">
<style type="text/css"><![CDATA[
.node, .edge {opacity: 0.7;}
.node.selected, .edge.selected {opacity: 1;}
.edge:hover path { stroke: red; }
.edge:hover polygon { stroke: red; fill: red; }
]]></style>

<defs>
  <circle id="rim" cx="0" cy="0" r="7"/>
  <circle id="rim2" cx="0" cy="0" r="3.5"/>
  <g id="zoomPlus">
    <use xlink:href="#rim" fill="#404040"><set attributeName="fill" to="#808080" begin="zoomplus.mouseover" end="zoomplus.mouseout"/></use>
    <path d="M-4,0h8M0,-4v8" fill="none" stroke="white" stroke-width="1.5" pointer-events="none"/>
  </g>
  <g id="zoomMin">
    <use xlink:href="#rim" fill="#404040"><set attributeName="fill" to="#808080" begin="zoomminus.mouseover" end="zoomminus.mouseout"/></use>
    <path d="M-4,0h8" fill="none" stroke="white" stroke-width="1.5" pointer-events="none"/>
  </g>
  <g id="arrowUp" transform="translate(30 24)">
    <use xlink:href="#rim"/>
    <path pointer-events="none" fill="none" stroke="white" stroke-width="1.5" d="M0,-3.0v7 M-2.5,-0.5L0,-3.0L2.5,-0.5"/>
  </g>
  <g id="arrowRight" transform="rotate(90) translate(36 -43)">
    <use xlink:href="#rim"/>
    <path pointer-events="none" fill="none" stroke="white" stroke-width="1.5" d="M0,-3.0v7 M-2.5,-0.5L0,-3.0L2.5,-0.5"/>
  </g>
  <g id="arrowDown" transform="rotate(180) translate(-30 -48)">
    <use xlink:href="#rim"/>
    <path pointer-events="none" fill="none" stroke="white" stroke-width="1.5" d="M0,-3.0v7 M-2.5,-0.5L0,-3.0L2.5,-0.5"/>
  </g>
  <g id="arrowLeft" transform="rotate(270) translate(-36 17)">
    <use xlink:href="#rim"/>
    <path pointer-events="none" fill="none" stroke="white" stroke-width="1.5" d="M0,-3.0v7 M-2.5,-0.5L0,-3.0L2.5,-0.5"/>
  </g>
  <g id="resetDef">
    <use xlink:href="#rim2" fill="#404040"><set attributeName="fill" to="#808080" begin="reset.mouseover" end="reset.mouseout"/></use>
  </g>
</defs>
<script type="application/ecmascript">
var viewWidth = 952;
var viewHeight = 247;
var sectionId = 'dynsection-0';
</script>
<script type="application/ecmascript" xlink:href="svg.min.js"/>
<svg id="graph" class="graph">
<g id="viewport">
<title>tensor_view.hpp</title>
<!-- Node1 -->
<g id="Node000001" class="node">
<title>Node1</title>
<g id="a_Node000001"><a xlink:title="Tensor view abstractions and accessor factories built on std::mdspan.">
<polygon fill="#999999" stroke="#666666" points="705.5,-239 609.5,-239 609.5,-220 705.5,-220 705.5,-239"/>
<text text-anchor="middle" x="657.5" y="-227" font-family="Helvetica,sans-Serif" font-size="10.00">tensor_view.hpp</text>
</a>
</g>
</g>
<!-- Node2 -->
<g id="Node000002" class="node">
<title>Node2</title>
<g id="a_Node000002"><a xlink:href="mdspan_8hpp.html" target="_top" xlink:title="Wrapper that exposes the mdspan reference implementation and a formatter bridge.">
<polygon fill="white" stroke="#666666" points="500.5,-74 348.5,-74 348.5,-55 500.5,-55 500.5,-74"/>
<text text-anchor="middle" x="424.5" y="-62" font-family="Helvetica,sans-Serif" font-size="10.00">uni20/common/mdspan.hpp</text>
</a>
</g>
</g>
<!-- Node1&#45;&gt;Node2 -->
<g id="edge1_Node000001_Node000002" class="edge">
<title>Node1&#45;&gt;Node2</title>
<g id="a_edge1_Node000001_Node000002"><a xlink:title=" ">
<path fill="none" stroke="#63b8ff" d="M632.14,-219.92C593.45,-205.85 518.97,-174.77 469.5,-129 454.97,-115.56 442.34,-96.72 434.19,-83.05"/>
<polygon fill="#63b8ff" stroke="#63b8ff" points="437.1,-81.09 429.08,-74.16 431.03,-84.58 437.1,-81.09"/>
</a>
</g>
</g>
<!-- Node6 -->
<g id="Node000006" class="node">
<title>Node6</title>
<g id="a_Node000006"><a xlink:href="types_8hpp.html" target="_top" xlink:title=" ">
<polygon fill="white" stroke="#666666" points="351,-184 232,-184 232,-165 351,-165 351,-184"/>
<text text-anchor="middle" x="291.5" y="-172" font-family="Helvetica,sans-Serif" font-size="10.00">uni20/core/types.hpp</text>
</a>
</g>
</g>
<!-- Node1&#45;&gt;Node6 -->
<g id="edge5_Node000001_Node000006" class="edge">
<title>Node1&#45;&gt;Node6</title>
<g id="a_edge5_Node000001_Node000006"><a xlink:title=" ">
<path fill="none" stroke="#63b8ff" d="M609.28,-221.52C545.59,-212.29 433.05,-196 360.41,-185.48"/>
<polygon fill="#63b8ff" stroke="#63b8ff" points="360.83,-182 350.43,-184.03 359.83,-188.93 360.83,-182"/>
</a>
</g>
</g>
<!-- Node9 -->
<g id="Node000009" class="node">
<title>Node9</title>
<g id="a_Node000009"><a xlink:title=" ">
<polygon fill="#e0e0e0" stroke="#999999" points="321.5,-74 261.5,-74 261.5,-55 321.5,-55 321.5,-74"/>
<text text-anchor="middle" x="291.5" y="-62" font-family="Helvetica,sans-Serif" font-size="10.00">concepts</text>
</a>
</g>
</g>
<!-- Node1&#45;&gt;Node9 -->
<g id="edge28_Node000001_Node000009" class="edge">
<title>Node1&#45;&gt;Node9</title>
<g id="a_edge28_Node000001_Node000009"><a xlink:title=" ">
<path fill="none" stroke="#63b8ff" d="M621.65,-219.94C592.18,-212.3 549.7,-199.87 514.5,-184 456.68,-157.94 448.75,-139.29 392.5,-110 369.57,-98.06 342.76,-86.34 322.52,-77.93"/>
<polygon fill="#63b8ff" stroke="#63b8ff" points="323.74,-74.65 313.16,-74.08 321.08,-81.12 323.74,-74.65"/>
</a>
</g>
</g>
<!-- Node10 -->
<g id="Node000010" class="node">
<title>Node10</title>
<g id="a_Node000010"><a xlink:href="layout_8hpp.html" target="_top" xlink:title=" ">
<polygon fill="white" stroke="#666666" points="806.5,-129 738.5,-129 738.5,-110 806.5,-110 806.5,-129"/>
<text text-anchor="middle" x="772.5" y="-117" font-family="Helvetica,sans-Serif" font-size="10.00">layout.hpp</text>
</a>
</g>
</g>
<!-- Node1&#45;&gt;Node10 -->
<g id="edge9_Node000001_Node000010" class="edge">
<title>Node1&#45;&gt;Node10</title>
<g id="a_edge9_Node000001_Node000010"><a xlink:title=" ">
<path fill="none" stroke="#63b8ff" d="M693.95,-219.91C714.44,-213.31 738.95,-202.15 754.5,-184 765.1,-171.63 769.48,-153.41 771.28,-139.66"/>
<polygon fill="#63b8ff" stroke="#63b8ff" points="774.79,-139.67 772.26,-129.38 767.82,-139 774.79,-139.67"/>
</a>
</g>
</g>
<!-- Node11 -->
<g id="Node000011" class="node">
<title>Node11</title>
<g id="a_Node000011"><a xlink:title=" ">
<polygon fill="#e0e0e0" stroke="#999999" points="793.5,-74 751.5,-74 751.5,-55 793.5,-55 793.5,-74"/>
<text text-anchor="middle" x="772.5" y="-62" font-family="Helvetica,sans-Serif" font-size="10.00">array</text>
</a>
</g>
</g>
<!-- Node1&#45;&gt;Node11 -->
<g id="edge27_Node000001_Node000011" class="edge">
<title>Node1&#45;&gt;Node11</title>
<g id="a_edge27_Node000001_Node000011"><a xlink:title=" ">
<path fill="none" stroke="#63b8ff" d="M694.32,-220C718.51,-213.12 749.93,-201.64 773.5,-184 798.12,-165.57 805.65,-158.14 815.5,-129 818.21,-121 818.66,-117.83 815.5,-110 810.81,-98.41 801.5,-88.16 792.74,-80.43"/>
<polygon fill="#63b8ff" stroke="#63b8ff" points="794.94,-77.71 784.99,-74.07 790.5,-83.12 794.94,-77.71"/>
</a>
</g>
</g>
<!-- Node13 -->
<g id="Node000013" class="node">
<title>Node13</title>
<g id="a_Node000013"><a xlink:title=" ">
<polygon fill="#e0e0e0" stroke="#999999" points="881,-74 812,-74 812,-55 881,-55 881,-74"/>
<text text-anchor="middle" x="846.5" y="-62" font-family="Helvetica,sans-Serif" font-size="10.00">type_traits</text>
</a>
</g>
</g>
<!-- Node1&#45;&gt;Node13 -->
<g id="edge29_Node000001_Node000013" class="edge">
<title>Node1&#45;&gt;Node13</title>
<g id="a_edge29_Node000001_Node000013"><a xlink:title=" ">
<path fill="none" stroke="#63b8ff" d="M705.74,-222.26C735.1,-216.42 771.94,-205.25 798.5,-184 829.6,-159.12 840.69,-110.89 844.53,-84.28"/>
<polygon fill="#63b8ff" stroke="#63b8ff" points="848.05,-84.38 845.81,-74.03 841.1,-83.52 848.05,-84.38"/>
</a>
</g>
</g>
<!-- Node14 -->
<g id="Node000014" class="node">
<title>Node14</title>
<g id="a_Node000014"><a xlink:title=" ">
<polygon fill="#e0e0e0" stroke="#999999" points="944,-74 899,-74 899,-55 944,-55 944,-74"/>
<text text-anchor="middle" x="921.5" y="-62" font-family="Helvetica,sans-Serif" font-size="10.00">utility</text>
</a>
</g>
</g>
<!-- Node1&#45;&gt;Node14 -->
<g id="edge30_Node000001_Node000014" class="edge">
<title>Node1&#45;&gt;Node14</title>
<g id="a_edge30_Node000001_Node000014"><a xlink:title=" ">
<path fill="none" stroke="#63b8ff" d="M705.85,-222.99C740.01,-217.34 785.71,-206.09 820.5,-184 861.98,-157.66 895.48,-108.98 911.41,-82.97"/>
<polygon fill="#63b8ff" stroke="#63b8ff" points="914.53,-84.58 916.64,-74.2 908.51,-80.99 914.53,-84.58"/>
</a>
</g>
</g>
<!-- Node15 -->
<g id="Node000015" class="node">
<title>Node15</title>
<g id="a_Node000015"><a xlink:href="concepts_8hpp.html" target="_top" xlink:title="Mdspan concept and accessor extensions for Uni20.">
<polygon fill="white" stroke="#666666" points="153,-129 0,-129 0,-110 153,-110 153,-129"/>
<text text-anchor="middle" x="76.5" y="-117" font-family="Helvetica,sans-Serif" font-size="10.00">uni20/mdspan/concepts.hpp</text>
</a>
</g>
</g>
<!-- Node1&#45;&gt;Node15 -->
<g id="edge16_Node000001_Node000015" class="edge">
<title>Node1&#45;&gt;Node15</title>
<g id="a_edge16_Node000001_Node000015"><a xlink:title=" ">
<path fill="none" stroke="#63b8ff" d="M609.34,-228.38C528.19,-227.11 359.65,-219.91 222.5,-184 178.01,-172.35 129.68,-149.02 101.29,-134.11"/>
<polygon fill="#63b8ff" stroke="#63b8ff" points="102.59,-130.84 92.12,-129.23 99.3,-137.02 102.59,-130.84"/>
</a>
</g>
</g>
<!-- Node17 -->
<g id="Node000017" class="node">
<title>Node17</title>
<g id="a_Node000017"><a xlink:href="vectorstorage_8hpp.html" target="_top" xlink:title=" ">
<polygon fill="white" stroke="#666666" points="745,-184 570,-184 570,-165 745,-165 745,-184"/>
<text text-anchor="middle" x="657.5" y="-172" font-family="Helvetica,sans-Serif" font-size="10.00">uni20/storage/vectorstorage.hpp</text>
</a>
</g>
</g>
<!-- Node1&#45;&gt;Node17 -->
<g id="edge21_Node000001_Node000017" class="edge">
<title>Node1&#45;&gt;Node17</title>
<g id="a_edge21_Node000001_Node000017"><a xlink:title=" ">
<path fill="none" stroke="#63b8ff" d="M657.5,-219.75C657.5,-212.8 657.5,-202.85 657.5,-194.13"/>
<polygon fill="#63b8ff" stroke="#63b8ff" points="661,-194.09 657.5,-184.09 654,-194.09 661,-194.09"/>
</a>
</g>
</g>
<!-- Node3 -->
<g id="Node000003" class="node">
<title>Node3</title>
<g id="a_Node000003"><a xlink:title=" ">
<polygon fill="#e0e0e0" stroke="#999999" points="300,-19 221,-19 221,0 300,0 300,-19"/>
<text text-anchor="middle" x="260.5" y="-7" font-family="Helvetica,sans-Serif" font-size="10.00">fmt/format.h</text>
</a>
</g>
</g>
<!-- Node2&#45;&gt;Node3 -->
<g id="edge2_Node000002_Node000003" class="edge">
<title>Node2&#45;&gt;Node3</title>
<g id="a_edge2_Node000002_Node000003"><a xlink:title=" ">
<path fill="none" stroke="#63b8ff" d="M398.15,-54.98C370.74,-46.13 327.61,-32.19 296.94,-22.28"/>
<polygon fill="#63b8ff" stroke="#63b8ff" points="297.65,-18.83 287.06,-19.08 295.5,-25.49 297.65,-18.83"/>
</a>
</g>
</g>
<!-- Node4 -->
<g id="Node000004" class="node">
<title>Node4</title>
<g id="a_Node000004"><a xlink:title=" ">
<polygon fill="#e0e0e0" stroke="#999999" points="528.5,-19 478.5,-19 478.5,0 528.5,0 528.5,-19"/>
<text text-anchor="middle" x="503.5" y="-7" font-family="Helvetica,sans-Serif" font-size="10.00">format</text>
</a>
</g>
</g>
<!-- Node2&#45;&gt;Node4 -->
<g id="edge3_Node000002_Node000004" class="edge">
<title>Node2&#45;&gt;Node4</title>
<g id="a_edge3_Node000002_Node000004"><a xlink:title=" ">
<path fill="none" stroke="#63b8ff" d="M437.19,-54.98C449.33,-46.84 467.86,-34.41 482.25,-24.76"/>
<polygon fill="#63b8ff" stroke="#63b8ff" points="484.22,-27.65 490.58,-19.17 480.32,-21.84 484.22,-27.65"/>
</a>
</g>
</g>
<!-- Node5 -->
<g id="Node000005" class="node">
<title>Node5</title>
<g id="a_Node000005"><a xlink:title=" ">
<polygon fill="#e0e0e0" stroke="#999999" points="460,-19 341,-19 341,0 460,0 460,-19"/>
<text text-anchor="middle" x="400.5" y="-7" font-family="Helvetica,sans-Serif" font-size="10.00">mdspan/mdspan.hpp</text>
</a>
</g>
</g>
<!-- Node2&#45;&gt;Node5 -->
<g id="edge4_Node000002_Node000005" class="edge">
<title>Node2&#45;&gt;Node5</title>
<g id="a_edge4_Node000002_Node000005"><a xlink:title=" ">
<path fill="none" stroke="#63b8ff" d="M420.54,-54.75C417.29,-47.57 412.58,-37.18 408.55,-28.27"/>
<polygon fill="#63b8ff" stroke="#63b8ff" points="411.7,-26.75 404.39,-19.09 405.33,-29.64 411.7,-26.75"/>
</a>
</g>
</g>
<!-- Node7 -->
<g id="Node000007" class="node">
<title>Node7</title>
<g id="a_Node000007"><a xlink:title=" ">
<polygon fill="#e0e0e0" stroke="#999999" points="307,-129 210,-129 210,-110 307,-110 307,-129"/>
<text text-anchor="middle" x="258.5" y="-117" font-family="Helvetica,sans-Serif" font-size="10.00">uni20/config.hpp</text>
</a>
</g>
</g>
<!-- Node6&#45;&gt;Node7 -->
<g id="edge6_Node000006_Node000007" class="edge">
<title>Node6&#45;&gt;Node7</title>
<g id="a_edge6_Node000006_Node000007"><a xlink:title=" ">
<path fill="none" stroke="#63b8ff" d="M286.05,-164.75C281.49,-157.42 274.83,-146.73 269.21,-137.7"/>
<polygon fill="#63b8ff" stroke="#63b8ff" points="272.1,-135.73 263.85,-129.09 266.16,-139.43 272.1,-135.73"/>
</a>
</g>
</g>
<!-- Node8 -->
<g id="Node000008" class="node">
<title>Node8</title>
<g id="a_Node000008"><a xlink:title=" ">
<polygon fill="#e0e0e0" stroke="#999999" points="384,-129 325,-129 325,-110 384,-110 384,-129"/>
<text text-anchor="middle" x="354.5" y="-117" font-family="Helvetica,sans-Serif" font-size="10.00">complex</text>
</a>
</g>
</g>
<!-- Node6&#45;&gt;Node8 -->
<g id="edge7_Node000006_Node000008" class="edge">
<title>Node6&#45;&gt;Node8</title>
<g id="a_edge7_Node000006_Node000008"><a xlink:title=" ">
<path fill="none" stroke="#63b8ff" d="M301.62,-164.98C310.94,-157.15 324.97,-145.34 336.24,-135.86"/>
<polygon fill="#63b8ff" stroke="#63b8ff" points="338.79,-138.29 344.19,-129.17 334.29,-132.93 338.79,-138.29"/>
</a>
</g>
</g>
<!-- Node6&#45;&gt;Node9 -->
<g id="edge8_Node000006_Node000009" class="edge">
<title>Node6&#45;&gt;Node9</title>
<g id="a_edge8_Node000006_Node000009"><a xlink:title=" ">
<path fill="none" stroke="#63b8ff" d="M253.08,-164.96C233.76,-158.52 212.05,-147.5 200.5,-129 184.9,-104 220.42,-86.21 251.55,-75.93"/>
<polygon fill="#63b8ff" stroke="#63b8ff" points="252.92,-79.17 261.43,-72.86 250.84,-72.49 252.92,-79.17"/>
</a>
</g>
</g>
<!-- Node10&#45;&gt;Node2 -->
<g id="edge10_Node000010_Node000002" class="edge">
<title>Node10&#45;&gt;Node2</title>
<g id="a_edge10_Node000010_Node000002"><a xlink:title=" ">
<path fill="none" stroke="#63b8ff" d="M738.43,-112.35C733.75,-111.54 729.01,-110.73 724.5,-110 646.39,-97.29 556.58,-84.17 495.74,-75.49"/>
<polygon fill="#63b8ff" stroke="#63b8ff" points="495.88,-71.98 485.48,-74.04 494.89,-78.91 495.88,-71.98"/>
</a>
</g>
</g>
<!-- Node10&#45;&gt;Node9 -->
<g id="edge12_Node000010_Node000009" class="edge">
<title>Node10&#45;&gt;Node9</title>
<g id="a_edge12_Node000010_Node000009"><a xlink:title=" ">
<path fill="none" stroke="#63b8ff" d="M738.21,-114.88C723.79,-113.37 706.83,-111.59 691.5,-110 535.08,-93.79 495.25,-95.73 339.5,-74 336.97,-73.65 334.37,-73.26 331.75,-72.85"/>
<polygon fill="#63b8ff" stroke="#63b8ff" points="332.1,-69.36 321.66,-71.19 330.96,-76.27 332.1,-69.36"/>
</a>
</g>
</g>
<!-- Node10&#45;&gt;Node11 -->
<g id="edge11_Node000010_Node000011" class="edge">
<title>Node10&#45;&gt;Node11</title>
<g id="a_edge11_Node000010_Node000011"><a xlink:title=" ">
<path fill="none" stroke="#63b8ff" d="M772.5,-109.75C772.5,-102.8 772.5,-92.85 772.5,-84.13"/>
<polygon fill="#63b8ff" stroke="#63b8ff" points="776,-84.09 772.5,-74.09 769,-84.09 776,-84.09"/>
</a>
</g>
</g>
<!-- Node12 -->
<g id="Node000012" class="node">
<title>Node12</title>
<g id="a_Node000012"><a xlink:title=" ">
<polygon fill="#e0e0e0" stroke="#999999" points="733,-74 680,-74 680,-55 733,-55 733,-74"/>
<text text-anchor="middle" x="706.5" y="-62" font-family="Helvetica,sans-Serif" font-size="10.00">cstddef</text>
</a>
</g>
</g>
<!-- Node10&#45;&gt;Node12 -->
<g id="edge13_Node000010_Node000012" class="edge">
<title>Node10&#45;&gt;Node12</title>
<g id="a_edge13_Node000010_Node000012"><a xlink:title=" ">
<path fill="none" stroke="#63b8ff" d="M761.9,-109.98C752.04,-102.07 737.15,-90.11 725.28,-80.58"/>
<polygon fill="#63b8ff" stroke="#63b8ff" points="727.29,-77.7 717.3,-74.17 722.9,-83.16 727.29,-77.7"/>
</a>
</g>
</g>
<!-- Node10&#45;&gt;Node13 -->
<g id="edge14_Node000010_Node000013" class="edge">
<title>Node10&#45;&gt;Node13</title>
<g id="a_edge14_Node000010_Node000013"><a xlink:title=" ">
<path fill="none" stroke="#63b8ff" d="M784.39,-109.98C795.65,-101.92 812.79,-89.65 826.21,-80.03"/>
<polygon fill="#63b8ff" stroke="#63b8ff" points="828.3,-82.84 834.39,-74.17 824.23,-77.15 828.3,-82.84"/>
</a>
</g>
</g>
<!-- Node10&#45;&gt;Node14 -->
<g id="edge15_Node000010_Node000014" class="edge">
<title>Node10&#45;&gt;Node14</title>
<g id="a_edge15_Node000010_Node000014"><a xlink:title=" ">
<path fill="none" stroke="#63b8ff" d="M796.44,-109.98C821.5,-101.07 861,-87.02 888.9,-77.1"/>
<polygon fill="#63b8ff" stroke="#63b8ff" points="890.35,-80.3 898.6,-73.65 888,-73.7 890.35,-80.3"/>
</a>
</g>
</g>
<!-- Node15&#45;&gt;Node2 -->
<g id="edge17_Node000015_Node000002" class="edge">
<title>Node15&#45;&gt;Node2</title>
<g id="a_edge17_Node000015_Node000002"><a xlink:title=" ">
<path fill="none" stroke="#63b8ff" d="M132.41,-109.98C193.96,-100.61 292.84,-85.55 358.24,-75.59"/>
<polygon fill="#63b8ff" stroke="#63b8ff" points="359.08,-79 368.44,-74.04 358.03,-72.08 359.08,-79"/>
</a>
</g>
</g>
<!-- Node15&#45;&gt;Node3 -->
<g id="edge20_Node000015_Node000003" class="edge">
<title>Node15&#45;&gt;Node3</title>
<g id="a_edge20_Node000015_Node000003"><a xlink:title=" ">
<path fill="none" stroke="#63b8ff" d="M91.25,-109.84C123.09,-91.16 198.49,-46.9 236.99,-24.3"/>
<polygon fill="#63b8ff" stroke="#63b8ff" points="239.09,-27.13 245.94,-19.05 235.54,-21.09 239.09,-27.13"/>
</a>
</g>
</g>
<!-- Node15&#45;&gt;Node9 -->
<g id="edge19_Node000015_Node000009" class="edge">
<title>Node15&#45;&gt;Node9</title>
<g id="a_edge19_Node000015_Node000009"><a xlink:title=" ">
<path fill="none" stroke="#63b8ff" d="M111.04,-109.98C149.34,-100.54 211.04,-85.34 251.43,-75.38"/>
<polygon fill="#63b8ff" stroke="#63b8ff" points="252.34,-78.76 261.21,-72.97 250.67,-71.96 252.34,-78.76"/>
</a>
</g>
</g>
<!-- Node16 -->
<g id="Node000016" class="node">
<title>Node16</title>
<g id="a_Node000016"><a xlink:title=" ">
<polygon fill="#e0e0e0" stroke="#999999" points="102.5,-74 50.5,-74 50.5,-55 102.5,-55 102.5,-74"/>
<text text-anchor="middle" x="76.5" y="-62" font-family="Helvetica,sans-Serif" font-size="10.00">cassert</text>
</a>
</g>
</g>
<!-- Node15&#45;&gt;Node16 -->
<g id="edge18_Node000015_Node000016" class="edge">
<title>Node15&#45;&gt;Node16</title>
<g id="a_edge18_Node000015_Node000016"><a xlink:title=" ">
<path fill="none" stroke="#63b8ff" d="M76.5,-109.75C76.5,-102.8 76.5,-92.85 76.5,-84.13"/>
<polygon fill="#63b8ff" stroke="#63b8ff" points="80,-84.09 76.5,-74.09 73,-84.09 80,-84.09"/>
</a>
</g>
</g>
<!-- Node17&#45;&gt;Node2 -->
<g id="edge22_Node000017_Node000002" class="edge">
<title>Node17&#45;&gt;Node2</title>
<g id="a_edge22_Node000017_Node000002"><a xlink:title=" ">
<path fill="none" stroke="#63b8ff" d="M668.56,-164.57C683.33,-151.59 706.05,-127.17 691.5,-110 679.73,-96.11 584.38,-82.73 510.94,-74.33"/>
<polygon fill="#63b8ff" stroke="#63b8ff" points="511.07,-70.82 500.74,-73.18 510.28,-77.78 511.07,-70.82"/>
</a>
</g>
</g>
<!-- Node17&#45;&gt;Node10 -->
<g id="edge25_Node000017_Node000010" class="edge">
<title>Node17&#45;&gt;Node10</title>
<g id="a_edge25_Node000017_Node000010"><a xlink:title=" ">
<path fill="none" stroke="#63b8ff" d="M675.98,-164.98C694.48,-156.46 723.18,-143.23 744.48,-133.41"/>
<polygon fill="#63b8ff" stroke="#63b8ff" points="746.07,-136.53 753.69,-129.17 743.14,-130.18 746.07,-136.53"/>
</a>
</g>
</g>
<!-- Node18 -->
<g id="Node000018" class="node">
<title>Node18</title>
<g id="a_Node000018"><a xlink:href="kernel_2cpu_2cpu_8hpp.html" target="_top" xlink:title=" ">
<polygon fill="white" stroke="#666666" points="616.5,-129 478.5,-129 478.5,-110 616.5,-110 616.5,-129"/>
<text text-anchor="middle" x="547.5" y="-117" font-family="Helvetica,sans-Serif" font-size="10.00">uni20/kernel/cpu/cpu.hpp</text>
</a>
</g>
</g>
<!-- Node17&#45;&gt;Node18 -->
<g id="edge23_Node000017_Node000018" class="edge">
<title>Node17&#45;&gt;Node18</title>
<g id="a_edge23_Node000017_Node000018"><a xlink:title=" ">
<path fill="none" stroke="#63b8ff" d="M639.83,-164.98C622.21,-156.5 594.92,-143.35 574.57,-133.54"/>
<polygon fill="#63b8ff" stroke="#63b8ff" points="576.02,-130.36 565.49,-129.17 572.98,-136.66 576.02,-130.36"/>
</a>
</g>
</g>
<!-- Node20 -->
<g id="Node000020" class="node">
<title>Node20</title>
<g id="a_Node000020"><a xlink:title=" ">
<polygon fill="#e0e0e0" stroke="#999999" points="682,-129 635,-129 635,-110 682,-110 682,-129"/>
<text text-anchor="middle" x="658.5" y="-117" font-family="Helvetica,sans-Serif" font-size="10.00">vector</text>
</a>
</g>
</g>
<!-- Node17&#45;&gt;Node20 -->
<g id="edge26_Node000017_Node000020" class="edge">
<title>Node17&#45;&gt;Node20</title>
<g id="a_edge26_Node000017_Node000020"><a xlink:title=" ">
<path fill="none" stroke="#63b8ff" d="M657.67,-164.75C657.8,-157.8 657.98,-147.85 658.15,-139.13"/>
<polygon fill="#63b8ff" stroke="#63b8ff" points="661.65,-139.15 658.34,-129.09 654.65,-139.02 661.65,-139.15"/>
</a>
</g>
</g>
<!-- Node19 -->
<g id="Node000019" class="node">
<title>Node19</title>
<g id="a_Node000019"><a xlink:href="tags_2cpu_8hpp.html" target="_top" xlink:title="Tag for selecting CPU&#45;based Uni20 kernels.">
<polygon fill="white" stroke="#666666" points="628,-74 519,-74 519,-55 628,-55 628,-74"/>
<text text-anchor="middle" x="573.5" y="-62" font-family="Helvetica,sans-Serif" font-size="10.00">uni20/tags/cpu.hpp</text>
</a>
</g>
</g>
<!-- Node18&#45;&gt;Node19 -->
<g id="edge24_Node000018_Node000019" class="edge">
<title>Node18&#45;&gt;Node19</title>
<g id="a_edge24_Node000018_Node000019"><a xlink:title=" ">
<path fill="none" stroke="#63b8ff" d="M551.79,-109.75C555.31,-102.57 560.41,-92.18 564.78,-83.27"/>
<polygon fill="#63b8ff" stroke="#63b8ff" points="568.02,-84.61 569.29,-74.09 561.74,-81.53 568.02,-84.61"/>
</a>
</g>
</g>
</g>
</svg>

<g id="navigator" transform="translate(0 0)" fill="#404254">
  <rect fill="#f2f5e9" fill-opacity="0.5" stroke="#606060" stroke-width=".5" x="0" y="0" width="60" height="60"/>
  <use id="zoomplus" xlink:href="#zoomPlus" x="17" y="9" onmousedown="handleZoom(evt,'in')"/>
  <use id="zoomminus" xlink:href="#zoomMin" x="42" y="9" onmousedown="handleZoom(evt,'out')"/>
  <use id="reset" xlink:href="#resetDef" x="30" y="36" onmousedown="handleReset()"/>
   <use id="arrowup" xlink:href="#arrowUp" x="0" y="0" onmousedown="handlePan(0,-1)"/>
  <use id="arrowright" xlink:href="#arrowRight" x="0" y="0" onmousedown="handlePan(1,0)"/>
  <use id="arrowdown" xlink:href="#arrowDown" x="0" y="0" onmousedown="handlePan(0,1)"/>
  <use id="arrowleft" xlink:href="#arrowLeft" x="0" y="0" onmousedown="handlePan(-1,0)"/>
</g>
<svg viewBox="0 0 15 15" width="100%" height="30px" preserveAspectRatio="xMaxYMin meet">
 <g id="arrow_out" transform="scale(0.3 0.3)">
  <a xlink:href="tensor__view_8hpp__incl_org.svg" target="_base">
   <rect id="button" ry="5" rx="5" y="6" x="6" height="38" width="38"
        fill="#f2f5e9" fill-opacity="0.5" stroke="#606060" stroke-width="1.0"/>
   <path id="arrow"
     d="M 11.500037,31.436501 C 11.940474,20.09759 22.043105,11.32322 32.158766,21.979434 L 37.068811,17.246167 C 37.068811,17.246167 37.088388,32 37.088388,32 L 22.160133,31.978069 C 22.160133,31.978069 26.997745,27.140456 26.997745,27.140456 C 18.528582,18.264221 13.291696,25.230495 11.500037,31.436501 z"
     style="fill:#404040;"/>
  </a>
 </g>
</svg>

<style type='text/css'>
<![CDATA[
[data-mouse-over-selected='false'] { opacity: 0.7; }
[data-mouse-over-selected='true']  { opacity: 1.0; }
]]>
</style>
<script type="application/ecmascript"><![CDATA[
document.addEventListener('DOMContentLoaded', (event) => {
  highlightEdges();
  highlightAdjacentNodes();
});
]]></script>
</svg>
