<?xml version="1.0" encoding="UTF-8" standalone="no"?>
<!DOCTYPE svg PUBLIC "-//W3C//DTD SVG 1.1//EN"
 "http://www.w3.org/Graphics/SVG/1.1/DTD/svg11.dtd">
<!-- Generated by graphviz version 2.43.0 (0)
 -->
<!-- Title: tensor.hpp Pages: 1 -->
<svg width="1030pt" height="357pt"
 viewBox="0.00 0.00 1030.31 357.00" xmlns="http://www.w3.org/2000/svg" xmlns:xlink="http://www.w3.org/1999/xlink">
<g id="graph0" class="graph" transform="scale(1 1) rotate(0) translate(4 353)">
<title>tensor.hpp</title>
<!-- Node1 -->
<g id="Node000001" class="node">
<title>Node1</title>
<g id="a_Node000001"><a xlink:title=" ">
<polygon fill="#999999" stroke="#666666" points="919.81,-349 851.81,-349 851.81,-330 919.81,-330 919.81,-349"/>
<text text-anchor="middle" x="885.81" y="-337" font-family="Helvetica,sans-Serif" font-size="10.00">tensor.hpp</text>
</a>
</g>
</g>
<!-- Node2 -->
<g id="Node000002" class="node">
<title>Node2</title>
<g id="a_Node000002"><a xlink:href="basic__tensor_8hpp.html" target="_top" xlink:title=" ">
<polygon fill="white" stroke="#666666" points="934.81,-294 836.81,-294 836.81,-275 934.81,-275 934.81,-294"/>
<text text-anchor="middle" x="885.81" y="-282" font-family="Helvetica,sans-Serif" font-size="10.00">basic_tensor.hpp</text>
</a>
</g>
</g>
<!-- Node1&#45;&gt;Node2 -->
<g id="edge1_Node000001_Node000002" class="edge">
<title>Node1&#45;&gt;Node2</title>
<g id="a_edge1_Node000001_Node000002"><a xlink:title=" ">
<path fill="none" stroke="#63b8ff" d="M885.81,-329.75C885.81,-322.8 885.81,-312.85 885.81,-304.13"/>
<polygon fill="#63b8ff" stroke="#63b8ff" points="889.31,-304.09 885.81,-294.09 882.31,-304.09 889.31,-304.09"/>
</a>
</g>
</g>
<!-- Node3 -->
<g id="Node000003" class="node">
<title>Node3</title>
<g id="a_Node000003"><a xlink:href="layout_8hpp.html" target="_top" xlink:title=" ">
<polygon fill="white" stroke="#666666" points="857.81,-129 789.81,-129 789.81,-110 857.81,-110 857.81,-129"/>
<text text-anchor="middle" x="823.81" y="-117" font-family="Helvetica,sans-Serif" font-size="10.00">layout.hpp</text>
</a>
</g>
</g>
<!-- Node2&#45;&gt;Node3 -->
<g id="edge2_Node000002_Node000003" class="edge">
<title>Node2&#45;&gt;Node3</title>
<g id="a_edge2_Node000002_Node000003"><a xlink:title=" ">
<path fill="none" stroke="#63b8ff" d="M882.48,-274.74C872.72,-249.09 844.08,-173.78 830.76,-138.78"/>
<polygon fill="#63b8ff" stroke="#63b8ff" points="833.99,-137.41 827.16,-129.31 827.44,-139.9 833.99,-137.41"/>
</a>
</g>
</g>
<!-- Node8 -->
<g id="Node000008" class="node">
<title>Node8</title>
<g id="a_Node000008"><a xlink:title=" ">
<polygon fill="#e0e0e0" stroke="#999999" points="870.81,-74 828.81,-74 828.81,-55 870.81,-55 870.81,-74"/>
<text text-anchor="middle" x="849.81" y="-62" font-family="Helvetica,sans-Serif" font-size="10.00">array</text>
</a>
</g>
</g>
<!-- Node2&#45;&gt;Node8 -->
<g id="edge34_Node000002_Node000008" class="edge">
<title>Node2&#45;&gt;Node8</title>
<g id="a_edge34_Node000002_Node000008"><a xlink:title=" ">
<path fill="none" stroke="#63b8ff" d="M887.35,-274.89C891.63,-249.06 902,-170.28 881.81,-110 878.35,-99.66 871.57,-89.67 865.15,-81.77"/>
<polygon fill="#63b8ff" stroke="#63b8ff" points="867.69,-79.37 858.48,-74.12 862.41,-83.96 867.69,-79.37"/>
</a>
</g>
</g>
<!-- Node9 -->
<g id="Node000009" class="node">
<title>Node9</title>
<g id="a_Node000009"><a xlink:title=" ">
<polygon fill="#e0e0e0" stroke="#999999" points="224.81,-74 164.81,-74 164.81,-55 224.81,-55 224.81,-74"/>
<text text-anchor="middle" x="194.81" y="-62" font-family="Helvetica,sans-Serif" font-size="10.00">concepts</text>
</a>
</g>
</g>
<!-- Node2&#45;&gt;Node9 -->
<g id="edge35_Node000002_Node000009" class="edge">
<title>Node2&#45;&gt;Node9</title>
<g id="a_edge35_Node000002_Node000009"><a xlink:title=" ">
<path fill="none" stroke="#63b8ff" d="M836.63,-283.55C665.08,-282.52 98.35,-268.45 3.81,-129 -0.93,-122.01 -1.44,-116.61 3.81,-110 13.19,-98.19 101.08,-81.41 154.31,-72.2"/>
<polygon fill="#63b8ff" stroke="#63b8ff" points="155.2,-75.6 164.46,-70.46 154.02,-68.7 155.2,-75.6"/>
</a>
</g>
</g>
<!-- Node10 -->
<g id="Node000010" class="node">
<title>Node10</title>
<g id="a_Node000010"><a xlink:title=" ">
<polygon fill="#e0e0e0" stroke="#999999" points="786.31,-74 733.31,-74 733.31,-55 786.31,-55 786.31,-74"/>
<text text-anchor="middle" x="759.81" y="-62" font-family="Helvetica,sans-Serif" font-size="10.00">cstddef</text>
</a>
</g>
</g>
<!-- Node2&#45;&gt;Node10 -->
<g id="edge36_Node000002_Node000010" class="edge">
<title>Node2&#45;&gt;Node10</title>
<g id="a_edge36_Node000002_Node000010"><a xlink:title=" ">
<path fill="none" stroke="#63b8ff" d="M836.62,-280.47C754.26,-272.27 594,-241.84 558.81,-129 556.3,-120.94 553.52,-116.58 558.81,-110 569.08,-97.2 668.07,-79.86 723.19,-71.09"/>
<polygon fill="#63b8ff" stroke="#63b8ff" points="723.94,-74.51 733.27,-69.5 722.85,-67.6 723.94,-74.51"/>
</a>
</g>
</g>
<!-- Node11 -->
<g id="Node000011" class="node">
<title>Node11</title>
<g id="a_Node000011"><a xlink:title=" ">
<polygon fill="#e0e0e0" stroke="#999999" points="958.31,-74 889.31,-74 889.31,-55 958.31,-55 958.31,-74"/>
<text text-anchor="middle" x="923.81" y="-62" font-family="Helvetica,sans-Serif" font-size="10.00">type_traits</text>
</a>
</g>
</g>
<!-- Node2&#45;&gt;Node11 -->
<g id="edge37_Node000002_Node000011" class="edge">
<title>Node2&#45;&gt;Node11</title>
<g id="a_edge37_Node000002_Node000011"><a xlink:title=" ">
<path fill="none" stroke="#63b8ff" d="M890.65,-274.94C895.36,-266.2 902.29,-252.09 905.81,-239 920.53,-184.31 923.35,-116.92 923.8,-84.58"/>
<polygon fill="#63b8ff" stroke="#63b8ff" points="927.3,-84.37 923.88,-74.34 920.3,-84.32 927.3,-84.37"/>
</a>
</g>
</g>
<!-- Node12 -->
<g id="Node000012" class="node">
<title>Node12</title>
<g id="a_Node000012"><a xlink:title=" ">
<polygon fill="#e0e0e0" stroke="#999999" points="1022.31,-74 977.31,-74 977.31,-55 1022.31,-55 1022.31,-74"/>
<text text-anchor="middle" x="999.81" y="-62" font-family="Helvetica,sans-Serif" font-size="10.00">utility</text>
</a>
</g>
</g>
<!-- Node2&#45;&gt;Node12 -->
<g id="edge38_Node000002_Node000012" class="edge">
<title>Node2&#45;&gt;Node12</title>
<g id="a_edge38_Node000002_Node000012"><a xlink:title=" ">
<path fill="none" stroke="#63b8ff" d="M893.98,-274.81C901.8,-266.19 913.59,-252.37 921.81,-239 954.61,-185.67 981.6,-116.18 993.4,-83.71"/>
<polygon fill="#63b8ff" stroke="#63b8ff" points="996.74,-84.79 996.81,-74.2 990.14,-82.43 996.74,-84.79"/>
</a>
</g>
</g>
<!-- Node13 -->
<g id="Node000013" class="node">
<title>Node13</title>
<g id="a_Node000013"><a xlink:href="tensor__view_8hpp.html" target="_top" xlink:title="Tensor view abstractions and accessor factories built on std::mdspan.">
<polygon fill="white" stroke="#666666" points="799.81,-239 703.81,-239 703.81,-220 799.81,-220 799.81,-239"/>
<text text-anchor="middle" x="751.81" y="-227" font-family="Helvetica,sans-Serif" font-size="10.00">tensor_view.hpp</text>
</a>
</g>
</g>
<!-- Node2&#45;&gt;Node13 -->
<g id="edge12_Node000002_Node000013" class="edge">
<title>Node2&#45;&gt;Node13</title>
<g id="a_edge12_Node000002_Node000013"><a xlink:title=" ">
<path fill="none" stroke="#63b8ff" d="M864.28,-274.98C842.34,-266.3 808.07,-252.75 783.12,-242.88"/>
<polygon fill="#63b8ff" stroke="#63b8ff" points="784.32,-239.59 773.73,-239.17 781.74,-246.1 784.32,-239.59"/>
</a>
</g>
</g>
<!-- Node4 -->
<g id="Node000004" class="node">
<title>Node4</title>
<g id="a_Node000004"><a xlink:href="mdspan_8hpp.html" target="_top" xlink:title="Wrapper that exposes the mdspan reference implementation and a formatter bridge.">
<polygon fill="white" stroke="#666666" points="394.81,-74 242.81,-74 242.81,-55 394.81,-55 394.81,-74"/>
<text text-anchor="middle" x="318.81" y="-62" font-family="Helvetica,sans-Serif" font-size="10.00">uni20/common/mdspan.hpp</text>
</a>
</g>
</g>
<!-- Node3&#45;&gt;Node4 -->
<g id="edge3_Node000003_Node000004" class="edge">
<title>Node3&#45;&gt;Node4</title>
<g id="a_edge3_Node000003_Node000004"><a xlink:title=" ">
<path fill="none" stroke="#63b8ff" d="M789.6,-111.42C786.63,-110.9 783.67,-110.42 780.81,-110 650.56,-90.9 498.39,-78.06 405.33,-71.26"/>
<polygon fill="#63b8ff" stroke="#63b8ff" points="405.34,-67.75 395.12,-70.52 404.84,-74.73 405.34,-67.75"/>
</a>
</g>
</g>
<!-- Node3&#45;&gt;Node8 -->
<g id="edge7_Node000003_Node000008" class="edge">
<title>Node3&#45;&gt;Node8</title>
<g id="a_edge7_Node000003_Node000008"><a xlink:title=" ">
<path fill="none" stroke="#63b8ff" d="M828.1,-109.75C831.62,-102.57 836.72,-92.18 841.09,-83.27"/>
<polygon fill="#63b8ff" stroke="#63b8ff" points="844.33,-84.61 845.6,-74.09 838.05,-81.53 844.33,-84.61"/>
</a>
</g>
</g>
<!-- Node3&#45;&gt;Node9 -->
<g id="edge8_Node000003_Node000009" class="edge">
<title>Node3&#45;&gt;Node9</title>
<g id="a_edge8_Node000003_Node000009"><a xlink:title=" ">
<path fill="none" stroke="#63b8ff" d="M789.61,-111.32C786.64,-110.83 783.68,-110.38 780.81,-110 542.55,-78.74 476.85,-107.23 235.12,-73.96"/>
<polygon fill="#63b8ff" stroke="#63b8ff" points="235.35,-70.45 224.96,-72.54 234.38,-77.39 235.35,-70.45"/>
</a>
</g>
</g>
<!-- Node3&#45;&gt;Node10 -->
<g id="edge9_Node000003_Node000010" class="edge">
<title>Node3&#45;&gt;Node10</title>
<g id="a_edge9_Node000003_Node000010"><a xlink:title=" ">
<path fill="none" stroke="#63b8ff" d="M813.53,-109.98C803.97,-102.07 789.53,-90.11 778.03,-80.58"/>
<polygon fill="#63b8ff" stroke="#63b8ff" points="780.21,-77.85 770.28,-74.17 775.75,-83.24 780.21,-77.85"/>
</a>
</g>
</g>
<!-- Node3&#45;&gt;Node11 -->
<g id="edge10_Node000003_Node000011" class="edge">
<title>Node3&#45;&gt;Node11</title>
<g id="a_edge10_Node000003_Node000011"><a xlink:title=" ">
<path fill="none" stroke="#63b8ff" d="M839.88,-109.98C855.67,-101.61 880.03,-88.7 898.44,-78.95"/>
<polygon fill="#63b8ff" stroke="#63b8ff" points="900.25,-81.95 907.45,-74.17 896.98,-75.76 900.25,-81.95"/>
</a>
</g>
</g>
<!-- Node3&#45;&gt;Node12 -->
<g id="edge11_Node000003_Node000012" class="edge">
<title>Node3&#45;&gt;Node12</title>
<g id="a_edge11_Node000003_Node000012"><a xlink:title=" ">
<path fill="none" stroke="#63b8ff" d="M852.09,-109.98C883.61,-100.49 934.5,-85.17 967.55,-75.21"/>
<polygon fill="#63b8ff" stroke="#63b8ff" points="968.63,-78.54 977.2,-72.31 966.61,-71.84 968.63,-78.54"/>
</a>
</g>
</g>
<!-- Node5 -->
<g id="Node000005" class="node">
<title>Node5</title>
<g id="a_Node000005"><a xlink:title=" ">
<polygon fill="#e0e0e0" stroke="#999999" points="208.31,-19 129.31,-19 129.31,0 208.31,0 208.31,-19"/>
<text text-anchor="middle" x="168.81" y="-7" font-family="Helvetica,sans-Serif" font-size="10.00">fmt/format.h</text>
</a>
</g>
</g>
<!-- Node4&#45;&gt;Node5 -->
<g id="edge4_Node000004_Node000005" class="edge">
<title>Node4&#45;&gt;Node5</title>
<g id="a_edge4_Node000004_Node000005"><a xlink:title=" ">
<path fill="none" stroke="#63b8ff" d="M294.71,-54.98C269.93,-46.23 231.11,-32.51 203.12,-22.62"/>
<polygon fill="#63b8ff" stroke="#63b8ff" points="203.94,-19.2 193.35,-19.17 201.61,-25.8 203.94,-19.2"/>
</a>
</g>
</g>
<!-- Node6 -->
<g id="Node000006" class="node">
<title>Node6</title>
<g id="a_Node000006"><a xlink:title=" ">
<polygon fill="#e0e0e0" stroke="#999999" points="429.81,-19 379.81,-19 379.81,0 429.81,0 429.81,-19"/>
<text text-anchor="middle" x="404.81" y="-7" font-family="Helvetica,sans-Serif" font-size="10.00">format</text>
</a>
</g>
</g>
<!-- Node4&#45;&gt;Node6 -->
<g id="edge5_Node000004_Node000006" class="edge">
<title>Node4&#45;&gt;Node6</title>
<g id="a_edge5_Node000004_Node000006"><a xlink:title=" ">
<path fill="none" stroke="#63b8ff" d="M332.63,-54.98C345.96,-46.77 366.39,-34.18 382.12,-24.49"/>
<polygon fill="#63b8ff" stroke="#63b8ff" points="384.06,-27.4 390.74,-19.17 380.39,-21.44 384.06,-27.4"/>
</a>
</g>
</g>
<!-- Node7 -->
<g id="Node000007" class="node">
<title>Node7</title>
<g id="a_Node000007"><a xlink:title=" ">
<polygon fill="#e0e0e0" stroke="#999999" points="361.31,-19 242.31,-19 242.31,0 361.31,0 361.31,-19"/>
<text text-anchor="middle" x="301.81" y="-7" font-family="Helvetica,sans-Serif" font-size="10.00">mdspan/mdspan.hpp</text>
</a>
</g>
</g>
<!-- Node4&#45;&gt;Node7 -->
<g id="edge6_Node000004_Node000007" class="edge">
<title>Node4&#45;&gt;Node7</title>
<g id="a_edge6_Node000004_Node000007"><a xlink:title=" ">
<path fill="none" stroke="#63b8ff" d="M316,-54.75C313.75,-47.72 310.51,-37.62 307.69,-28.84"/>
<polygon fill="#63b8ff" stroke="#63b8ff" points="310.95,-27.54 304.56,-19.09 304.29,-29.68 310.95,-27.54"/>
</a>
</g>
</g>
<!-- Node13&#45;&gt;Node3 -->
<g id="edge18_Node000013_Node000003" class="edge">
<title>Node13&#45;&gt;Node3</title>
<g id="a_edge18_Node000013_Node000003"><a xlink:title=" ">
<path fill="none" stroke="#63b8ff" d="M760.55,-219.82C768.94,-211.21 781.65,-197.4 790.81,-184 800.77,-169.43 809.83,-151.48 815.93,-138.39"/>
<polygon fill="#63b8ff" stroke="#63b8ff" points="819.21,-139.64 820.15,-129.08 812.83,-136.75 819.21,-139.64"/>
</a>
</g>
</g>
<!-- Node13&#45;&gt;Node4 -->
<g id="edge13_Node000013_Node000004" class="edge">
<title>Node13&#45;&gt;Node4</title>
<g id="a_edge13_Node000013_Node000004"><a xlink:title=" ">
<path fill="none" stroke="#63b8ff" d="M703.47,-226.42C595.67,-221.37 342.59,-207.18 311.81,-184 284.4,-163.36 280.04,-142.89 289.81,-110 292.79,-99.98 298.81,-90.11 304.6,-82.22"/>
<polygon fill="#63b8ff" stroke="#63b8ff" points="307.44,-84.28 310.87,-74.25 301.94,-79.95 307.44,-84.28"/>
</a>
</g>
</g>
<!-- Node13&#45;&gt;Node8 -->
<g id="edge30_Node000013_Node000008" class="edge">
<title>Node13&#45;&gt;Node8</title>
<g id="a_edge30_Node000013_Node000008"><a xlink:title=" ">
<path fill="none" stroke="#63b8ff" d="M769.48,-219.93C796.72,-205.55 847.82,-173.71 866.81,-129 873.14,-114.1 867.23,-96.22 860.71,-83.23"/>
<polygon fill="#63b8ff" stroke="#63b8ff" points="863.71,-81.43 855.79,-74.39 857.59,-84.83 863.71,-81.43"/>
</a>
</g>
</g>
<!-- Node13&#45;&gt;Node9 -->
<g id="edge31_Node000013_Node000009" class="edge">
<title>Node13&#45;&gt;Node9</title>
<g id="a_edge31_Node000013_Node000009"><a xlink:title=" ">
<path fill="none" stroke="#63b8ff" d="M703.79,-228.53C600.39,-227.87 360.34,-222.12 289.81,-184 247.23,-160.99 216.87,-110.06 203.1,-83.07"/>
<polygon fill="#63b8ff" stroke="#63b8ff" points="206.2,-81.44 198.64,-74.01 199.92,-84.53 206.2,-81.44"/>
</a>
</g>
</g>
<!-- Node13&#45;&gt;Node11 -->
<g id="edge32_Node000013_Node000011" class="edge">
<title>Node13&#45;&gt;Node11</title>
<g id="a_edge32_Node000013_Node000011"><a xlink:title=" ">
<path fill="none" stroke="#63b8ff" d="M779.94,-219.99C800.21,-212.82 827.3,-200.98 846.81,-184 879.99,-155.12 904.46,-108.56 916.15,-83.26"/>
<polygon fill="#63b8ff" stroke="#63b8ff" points="919.35,-84.67 920.24,-74.11 912.96,-81.81 919.35,-84.67"/>
</a>
</g>
</g>
<!-- Node13&#45;&gt;Node12 -->
<g id="edge33_Node000013_Node000012" class="edge">
<title>Node13&#45;&gt;Node12</title>
<g id="a_edge33_Node000013_Node000012"><a xlink:title=" ">
<path fill="none" stroke="#63b8ff" d="M783.57,-219.94C807.97,-212.55 841.94,-200.45 868.81,-184 916.75,-154.65 963.19,-106.59 985.71,-81.65"/>
<polygon fill="#63b8ff" stroke="#63b8ff" points="988.36,-83.93 992.39,-74.14 983.13,-79.28 988.36,-83.93"/>
</a>
</g>
</g>
<!-- Node14 -->
<g id="Node000014" class="node">
<title>Node14</title>
<g id="a_Node000014"><a xlink:href="types_8hpp.html" target="_top" xlink:title=" ">
<polygon fill="white" stroke="#666666" points="440.31,-184 321.31,-184 321.31,-165 440.31,-165 440.31,-184"/>
<text text-anchor="middle" x="380.81" y="-172" font-family="Helvetica,sans-Serif" font-size="10.00">uni20/core/types.hpp</text>
</a>
</g>
</g>
<!-- Node13&#45;&gt;Node14 -->
<g id="edge14_Node000013_Node000014" class="edge">
<title>Node13&#45;&gt;Node14</title>
<g id="a_edge14_Node000013_Node000014"><a xlink:title=" ">
<path fill="none" stroke="#63b8ff" d="M703.69,-221.63C639.27,-212.42 524.58,-196.04 450.65,-185.48"/>
<polygon fill="#63b8ff" stroke="#63b8ff" points="450.9,-181.98 440.5,-184.03 449.91,-188.91 450.9,-181.98"/>
</a>
</g>
</g>
<!-- Node17 -->
<g id="Node000017" class="node">
<title>Node17</title>
<g id="a_Node000017"><a xlink:href="concepts_8hpp.html" target="_top" xlink:title="Mdspan concept and accessor extensions for Uni20.">
<polygon fill="white" stroke="#666666" points="166.31,-129 13.31,-129 13.31,-110 166.31,-110 166.31,-129"/>
<text text-anchor="middle" x="89.81" y="-117" font-family="Helvetica,sans-Serif" font-size="10.00">uni20/mdspan/concepts.hpp</text>
</a>
</g>
</g>
<!-- Node13&#45;&gt;Node17 -->
<g id="edge19_Node000013_Node000017" class="edge">
<title>Node13&#45;&gt;Node17</title>
<g id="a_edge19_Node000013_Node000017"><a xlink:title=" ">
<path fill="none" stroke="#63b8ff" d="M703.4,-227.98C583.7,-226.17 276.54,-218.24 180.81,-184 151.82,-173.63 123.55,-151.45 106.41,-136.26"/>
<polygon fill="#63b8ff" stroke="#63b8ff" points="108.68,-133.59 98.93,-129.44 103.96,-138.76 108.68,-133.59"/>
</a>
</g>
</g>
<!-- Node19 -->
<g id="Node000019" class="node">
<title>Node19</title>
<g id="a_Node000019"><a xlink:href="vectorstorage_8hpp.html" target="_top" xlink:title=" ">
<polygon fill="white" stroke="#666666" points="781.31,-184 606.31,-184 606.31,-165 781.31,-165 781.31,-184"/>
<text text-anchor="middle" x="693.81" y="-172" font-family="Helvetica,sans-Serif" font-size="10.00">uni20/storage/vectorstorage.hpp</text>
</a>
</g>
</g>
<!-- Node13&#45;&gt;Node19 -->
<g id="edge24_Node000013_Node000019" class="edge">
<title>Node13&#45;&gt;Node19</title>
<g id="a_edge24_Node000013_Node000019"><a xlink:title=" ">
<path fill="none" stroke="#63b8ff" d="M742.49,-219.98C734,-212.23 721.25,-200.58 710.93,-191.14"/>
<polygon fill="#63b8ff" stroke="#63b8ff" points="713.04,-188.33 703.3,-184.17 708.32,-193.5 713.04,-188.33"/>
</a>
</g>
</g>
<!-- Node14&#45;&gt;Node9 -->
<g id="edge17_Node000014_Node000009" class="edge">
<title>Node14&#45;&gt;Node9</title>
<g id="a_edge17_Node000014_Node000009"><a xlink:title=" ">
<path fill="none" stroke="#63b8ff" d="M361.25,-164.86C342.55,-156.39 313.74,-142.77 289.81,-129 263.06,-113.61 233.75,-93.48 214.86,-80.05"/>
<polygon fill="#63b8ff" stroke="#63b8ff" points="216.65,-77.03 206.48,-74.05 212.57,-82.72 216.65,-77.03"/>
</a>
</g>
</g>
<!-- Node15 -->
<g id="Node000015" class="node">
<title>Node15</title>
<g id="a_Node000015"><a xlink:title=" ">
<polygon fill="#e0e0e0" stroke="#999999" points="396.31,-129 299.31,-129 299.31,-110 396.31,-110 396.31,-129"/>
<text text-anchor="middle" x="347.81" y="-117" font-family="Helvetica,sans-Serif" font-size="10.00">uni20/config.hpp</text>
</a>
</g>
</g>
<!-- Node14&#45;&gt;Node15 -->
<g id="edge15_Node000014_Node000015" class="edge">
<title>Node14&#45;&gt;Node15</title>
<g id="a_edge15_Node000014_Node000015"><a xlink:title=" ">
<path fill="none" stroke="#63b8ff" d="M375.36,-164.75C370.8,-157.42 364.14,-146.73 358.52,-137.7"/>
<polygon fill="#63b8ff" stroke="#63b8ff" points="361.41,-135.73 353.16,-129.09 355.47,-139.43 361.41,-135.73"/>
</a>
</g>
</g>
<!-- Node16 -->
<g id="Node000016" class="node">
<title>Node16</title>
<g id="a_Node000016"><a xlink:title=" ">
<polygon fill="#e0e0e0" stroke="#999999" points="473.31,-129 414.31,-129 414.31,-110 473.31,-110 473.31,-129"/>
<text text-anchor="middle" x="443.81" y="-117" font-family="Helvetica,sans-Serif" font-size="10.00">complex</text>
</a>
</g>
</g>
<!-- Node14&#45;&gt;Node16 -->
<g id="edge16_Node000014_Node000016" class="edge">
<title>Node14&#45;&gt;Node16</title>
<g id="a_edge16_Node000014_Node000016"><a xlink:title=" ">
<path fill="none" stroke="#63b8ff" d="M390.93,-164.98C400.24,-157.15 414.28,-145.34 425.55,-135.86"/>
<polygon fill="#63b8ff" stroke="#63b8ff" points="428.1,-138.29 433.5,-129.17 423.6,-132.93 428.1,-138.29"/>
</a>
</g>
</g>
<!-- Node17&#45;&gt;Node4 -->
<g id="edge20_Node000017_Node000004" class="edge">
<title>Node17&#45;&gt;Node4</title>
<g id="a_edge20_Node000017_Node000004"><a xlink:title=" ">
<path fill="none" stroke="#63b8ff" d="M126.6,-109.98C166.05,-100.86 228.79,-86.33 271.79,-76.38"/>
<polygon fill="#63b8ff" stroke="#63b8ff" points="272.78,-79.75 281.73,-74.08 271.2,-72.93 272.78,-79.75"/>
</a>
</g>
</g>
<!-- Node17&#45;&gt;Node5 -->
<g id="edge23_Node000017_Node000005" class="edge">
<title>Node17&#45;&gt;Node5</title>
<g id="a_edge23_Node000017_Node000005"><a xlink:title=" ">
<path fill="none" stroke="#63b8ff" d="M96.27,-109.66C109.42,-91.69 139.45,-50.64 156.46,-27.38"/>
<polygon fill="#63b8ff" stroke="#63b8ff" points="159.4,-29.3 162.48,-19.16 153.75,-25.16 159.4,-29.3"/>
</a>
</g>
</g>
<!-- Node17&#45;&gt;Node9 -->
<g id="edge22_Node000017_Node000009" class="edge">
<title>Node17&#45;&gt;Node9</title>
<g id="a_edge22_Node000017_Node000009"><a xlink:title=" ">
<path fill="none" stroke="#63b8ff" d="M106.68,-109.98C123.42,-101.54 149.31,-88.47 168.7,-78.68"/>
<polygon fill="#63b8ff" stroke="#63b8ff" points="170.28,-81.8 177.63,-74.17 167.13,-75.55 170.28,-81.8"/>
</a>
</g>
</g>
<!-- Node18 -->
<g id="Node000018" class="node">
<title>Node18</title>
<g id="a_Node000018"><a xlink:title=" ">
<polygon fill="#e0e0e0" stroke="#999999" points="108.81,-74 56.81,-74 56.81,-55 108.81,-55 108.81,-74"/>
<text text-anchor="middle" x="82.81" y="-62" font-family="Helvetica,sans-Serif" font-size="10.00">cassert</text>
</a>
</g>
</g>
<!-- Node17&#45;&gt;Node18 -->
<g id="edge21_Node000017_Node000018" class="edge">
<title>Node17&#45;&gt;Node18</title>
<g id="a_edge21_Node000017_Node000018"><a xlink:title=" ">
<path fill="none" stroke="#63b8ff" d="M88.65,-109.75C87.74,-102.8 86.42,-92.85 85.27,-84.13"/>
<polygon fill="#63b8ff" stroke="#63b8ff" points="88.72,-83.54 83.94,-74.09 81.78,-84.46 88.72,-83.54"/>
</a>
</g>
</g>
<!-- Node19&#45;&gt;Node3 -->
<g id="edge28_Node000019_Node000003" class="edge">
<title>Node19&#45;&gt;Node3</title>
<g id="a_edge28_Node000019_Node000003"><a xlink:title=" ">
<path fill="none" stroke="#63b8ff" d="M714.7,-164.98C735.89,-156.34 768.94,-142.87 793.11,-133.02"/>
<polygon fill="#63b8ff" stroke="#63b8ff" points="794.6,-136.19 802.54,-129.17 791.96,-129.7 794.6,-136.19"/>
</a>
</g>
</g>
<!-- Node19&#45;&gt;Node4 -->
<g id="edge25_Node000019_Node000004" class="edge">
<title>Node19&#45;&gt;Node4</title>
<g id="a_edge25_Node000019_Node000004"><a xlink:title=" ">
<path fill="none" stroke="#63b8ff" d="M666.09,-164.96C625.66,-152.56 548.11,-128.98 481.81,-110 440.79,-98.26 393.76,-85.49 360.8,-76.66"/>
<polygon fill="#63b8ff" stroke="#63b8ff" points="361.6,-73.25 351.04,-74.05 359.8,-80.01 361.6,-73.25"/>
</a>
</g>
</g>
<!-- Node20 -->
<g id="Node000020" class="node">
<title>Node20</title>
<g id="a_Node000020"><a xlink:href="kernel_2cpu_2cpu_8hpp.html" target="_top" xlink:title=" ">
<polygon fill="white" stroke="#666666" points="705.81,-129 567.81,-129 567.81,-110 705.81,-110 705.81,-129"/>
<text text-anchor="middle" x="636.81" y="-117" font-family="Helvetica,sans-Serif" font-size="10.00">uni20/kernel/cpu/cpu.hpp</text>
</a>
</g>
</g>
<!-- Node19&#45;&gt;Node20 -->
<g id="edge26_Node000019_Node000020" class="edge">
<title>Node19&#45;&gt;Node20</title>
<g id="a_edge26_Node000019_Node000020"><a xlink:title=" ">
<path fill="none" stroke="#63b8ff" d="M684.65,-164.98C676.31,-157.23 663.78,-145.58 653.63,-136.14"/>
<polygon fill="#63b8ff" stroke="#63b8ff" points="655.84,-133.42 646.13,-129.17 651.07,-138.54 655.84,-133.42"/>
</a>
</g>
</g>
<!-- Node22 -->
<g id="Node000022" class="node">
<title>Node22</title>
<g id="a_Node000022"><a xlink:title=" ">
<polygon fill="#e0e0e0" stroke="#999999" points="771.31,-129 724.31,-129 724.31,-110 771.31,-110 771.31,-129"/>
<text text-anchor="middle" x="747.81" y="-117" font-family="Helvetica,sans-Serif" font-size="10.00">vector</text>
</a>
</g>
</g>
<!-- Node19&#45;&gt;Node22 -->
<g id="edge29_Node000019_Node000022" class="edge">
<title>Node19&#45;&gt;Node22</title>
<g id="a_edge29_Node000019_Node000022"><a xlink:title=" ">
<path fill="none" stroke="#63b8ff" d="M702.73,-164.75C710.59,-157.03 722.24,-145.6 731.73,-136.28"/>
<polygon fill="#63b8ff" stroke="#63b8ff" points="734.37,-138.59 739.06,-129.09 729.47,-133.6 734.37,-138.59"/>
</a>
</g>
</g>
<!-- Node21 -->
<g id="Node000021" class="node">
<title>Node21</title>
<g id="a_Node000021"><a xlink:href="tags_2cpu_8hpp.html" target="_top" xlink:title="Tag for selecting CPU&#45;based Uni20 kernels.">
<polygon fill="white" stroke="#666666" points="691.31,-74 582.31,-74 582.31,-55 691.31,-55 691.31,-74"/>
<text text-anchor="middle" x="636.81" y="-62" font-family="Helvetica,sans-Serif" font-size="10.00">uni20/tags/cpu.hpp</text>
</a>
</g>
</g>
<!-- Node20&#45;&gt;Node21 -->
<g id="edge27_Node000020_Node000021" class="edge">
<title>Node20&#45;&gt;Node21</title>
<g id="a_edge27_Node000020_Node000021"><a xlink:title=" ">
<path fill="none" stroke="#63b8ff" d="M636.81,-109.75C636.81,-102.8 636.81,-92.85 636.81,-84.13"/>
<polygon fill="#63b8ff" stroke="#63b8ff" points="640.31,-84.09 636.81,-74.09 633.31,-84.09 640.31,-84.09"/>
</a>
</g>
</g>
</g>
</svg>
