<?xml version="1.0" encoding="UTF-8" standalone="no"?>
<!DOCTYPE svg PUBLIC "-//W3C//DTD SVG 1.1//EN"
 "http://www.w3.org/Graphics/SVG/1.1/DTD/svg11.dtd">
<!-- Generated by graphviz version 2.43.0 (0)
 -->
<!-- Title: tensor_view.hpp Pages: 1 -->
<svg width="290pt" height="302pt"
 viewBox="0.00 0.00 289.50 302.00" xmlns="http://www.w3.org/2000/svg" xmlns:xlink="http://www.w3.org/1999/xlink">

<svg id="main" version="1.1" xmlns="http://www.w3.org/2000/svg" xmlns:xlink="http://www.w3.org/1999/xlink" xml:space="preserve" onload="init(evt)">
<style type="text/css"><![CDATA[
.node, .edge {opacity: 0.7;}
.node.selected, .edge.selected {opacity: 1;}
.edge:hover path { stroke: red; }
.edge:hover polygon { stroke: red; fill: red; }
]]></style>
<script type="application/ecmascript" xlink:href="svg.min.js"/>
<svg id="graph" class="graph">
<g id="graph0" class="graph" transform="scale(1 1) rotate(0) translate(4 298)">
<title>tensor_view.hpp</title>
<!-- Node1 -->
<g id="Node000001" class="node">
<title>Node1</title>
<g id="a_Node000001"><a xlink:title="Tensor view abstractions and accessor factories built on std::mdspan.">
<polygon fill="#999999" stroke="#666666" points="174,-294 78,-294 78,-275 174,-275 174,-294"/>
<text text-anchor="middle" x="126" y="-282" font-family="Helvetica,sans-Serif" font-size="10.00">tensor_view.hpp</text>
</a>
</g>
</g>
<!-- Node2 -->
<g id="Node000002" class="node">
<title>Node2</title>
<g id="a_Node000002"><a xlink:href="basic__tensor_8hpp.html" target="_top" xlink:title=" ">
<polygon fill="white" stroke="#666666" points="98,-239 0,-239 0,-220 98,-220 98,-239"/>
<text text-anchor="middle" x="49" y="-227" font-family="Helvetica,sans-Serif" font-size="10.00">basic_tensor.hpp</text>
</a>
</g>
</g>
<!-- Node1&#45;&gt;Node2 -->
<g id="edge1_Node000001_Node000002" class="edge">
<title>Node1&#45;&gt;Node2</title>
<g id="a_edge1_Node000001_Node000002"><a xlink:title=" ">
<path fill="none" stroke="#63b8ff" d="M105.15,-269.15C91.24,-259.57 73.39,-247.29 61.6,-239.17"/>
<polygon fill="#63b8ff" stroke="#63b8ff" points="103.41,-272.2 113.63,-274.98 107.38,-266.43 103.41,-272.2"/>
</a>
</g>
</g>
<!-- Node3 -->
<g id="Node000003" class="node">
<title>Node3</title>
<g id="a_Node000003"><a xlink:href="matrix__ops_8hpp.html" target="_top" xlink:title=" ">
<polygon fill="white" stroke="#666666" points="181,-74 89,-74 89,-55 181,-55 181,-74"/>
<text text-anchor="middle" x="135" y="-62" font-family="Helvetica,sans-Serif" font-size="10.00">matrix_ops.hpp</text>
</a>
</g>
</g>
<!-- Node1&#45;&gt;Node3 -->
<g id="edge5_Node000001_Node000003" class="edge">
<title>Node1&#45;&gt;Node3</title>
<g id="a_edge5_Node000001_Node000003"><a xlink:title=" ">
<path fill="none" stroke="#63b8ff" d="M126.77,-264.85C128.63,-219.82 133.31,-106.53 134.64,-74.22"/>
<polygon fill="#63b8ff" stroke="#63b8ff" points="123.27,-264.82 126.35,-274.95 130.26,-265.11 123.27,-264.82"/>
</a>
</g>
</g>
<!-- Node6 -->
<g id="Node000006" class="node">
<title>Node6</title>
<g id="a_Node000006"><a xlink:href="matrix__ops__cpu_8hpp.html" target="_top" xlink:title=" ">
<polygon fill="white" stroke="#666666" points="272.5,-239 157.5,-239 157.5,-220 272.5,-220 272.5,-239"/>
<text text-anchor="middle" x="215" y="-227" font-family="Helvetica,sans-Serif" font-size="10.00">matrix_ops_cpu.hpp</text>
</a>
</g>
</g>
<!-- Node1&#45;&gt;Node6 -->
<g id="edge6_Node000001_Node000006" class="edge">
<title>Node1&#45;&gt;Node6</title>
<g id="a_edge6_Node000001_Node000006"><a xlink:title=" ">
<path fill="none" stroke="#63b8ff" d="M149.18,-269.7C165.39,-260.04 186.55,-247.44 200.44,-239.17"/>
<polygon fill="#63b8ff" stroke="#63b8ff" points="147.1,-266.86 140.3,-274.98 150.68,-272.88 147.1,-266.86"/>
</a>
</g>
</g>
<!-- Node2&#45;&gt;Node3 -->
<g id="edge2_Node000002_Node000003" class="edge">
<title>Node2&#45;&gt;Node3</title>
<g id="a_edge2_Node000002_Node000003"><a xlink:title=" ">
<path fill="none" stroke="#63b8ff" d="M33.62,-211.91C23.66,-199.07 13.79,-180.86 21,-165 41.11,-120.76 91.69,-88.5 118.2,-74.01"/>
<polygon fill="#63b8ff" stroke="#63b8ff" points="31.19,-214.46 40.31,-219.84 36.54,-209.94 31.19,-214.46"/>
</a>
</g>
</g>
<!-- Node5 -->
<g id="Node000005" class="node">
<title>Node5</title>
<g id="a_Node000005"><a xlink:href="tensor_8hpp.html" target="_top" xlink:title=" ">
<polygon fill="white" stroke="#666666" points="98,-184 30,-184 30,-165 98,-165 98,-184"/>
<text text-anchor="middle" x="64" y="-172" font-family="Helvetica,sans-Serif" font-size="10.00">tensor.hpp</text>
</a>
</g>
</g>
<!-- Node2&#45;&gt;Node5 -->
<g id="edge4_Node000002_Node000005" class="edge">
<title>Node2&#45;&gt;Node5</title>
<g id="a_edge4_Node000002_Node000005"><a xlink:title=" ">
<path fill="none" stroke="#63b8ff" d="M54.25,-209.95C56.74,-201.15 59.6,-191.06 61.57,-184.09"/>
<polygon fill="#63b8ff" stroke="#63b8ff" points="50.83,-209.17 51.48,-219.75 57.57,-211.08 50.83,-209.17"/>
</a>
</g>
</g>
<!-- Node4 -->
<g id="Node000004" class="node">
<title>Node4</title>
<g id="a_Node000004"><a xlink:href="linalg_8hpp.html" target="_top" xlink:title=" ">
<polygon fill="white" stroke="#666666" points="204.5,-19 139.5,-19 139.5,0 204.5,0 204.5,-19"/>
<text text-anchor="middle" x="172" y="-7" font-family="Helvetica,sans-Serif" font-size="10.00">linalg.hpp</text>
</a>
</g>
</g>
<!-- Node3&#45;&gt;Node4 -->
<g id="edge3_Node000003_Node000004" class="edge">
<title>Node3&#45;&gt;Node4</title>
<g id="a_edge3_Node000003_Node000004"><a xlink:title=" ">
<path fill="none" stroke="#63b8ff" d="M146.95,-46.39C153.31,-37.27 160.87,-26.45 166,-19.09"/>
<polygon fill="#63b8ff" stroke="#63b8ff" points="143.96,-44.55 141.11,-54.75 149.7,-48.55 143.96,-44.55"/>
</a>
</g>
</g>
<!-- Node7 -->
<g id="Node000007" class="node">
<title>Node7</title>
<g id="a_Node000007"><a xlink:href="linalg__cpu_8hpp.html" target="_top" xlink:title=" ">
<polygon fill="white" stroke="#666666" points="260.5,-184 173.5,-184 173.5,-165 260.5,-165 260.5,-184"/>
<text text-anchor="middle" x="217" y="-172" font-family="Helvetica,sans-Serif" font-size="10.00">linalg_cpu.hpp</text>
</a>
</g>
</g>
<!-- Node6&#45;&gt;Node7 -->
<g id="edge7_Node000006_Node000007" class="edge">
<title>Node6&#45;&gt;Node7</title>
<g id="a_edge7_Node000006_Node000007"><a xlink:title=" ">
<path fill="none" stroke="#63b8ff" d="M215.71,-209.66C216.04,-200.93 216.42,-190.99 216.68,-184.09"/>
<polygon fill="#63b8ff" stroke="#63b8ff" points="212.21,-209.62 215.33,-219.75 219.2,-209.89 212.21,-209.62"/>
</a>
</g>
</g>
<!-- Node8 -->
<g id="Node000008" class="node">
<title>Node8</title>
<g id="a_Node000008"><a xlink:href="backend__manifest_8hpp.html" target="_top" xlink:title=" ">
<polygon fill="white" stroke="#666666" points="281.5,-129 154.5,-129 154.5,-110 281.5,-110 281.5,-129"/>
<text text-anchor="middle" x="218" y="-117" font-family="Helvetica,sans-Serif" font-size="10.00">backend_manifest.hpp</text>
</a>
</g>
</g>
<!-- Node7&#45;&gt;Node8 -->
<g id="edge8_Node000007_Node000008" class="edge">
<title>Node7&#45;&gt;Node8</title>
<g id="a_edge8_Node000007_Node000008"><a xlink:title=" ">
<path fill="none" stroke="#63b8ff" d="M217.36,-154.66C217.52,-145.93 217.71,-135.99 217.84,-129.09"/>
<polygon fill="#63b8ff" stroke="#63b8ff" points="213.85,-154.68 217.17,-164.75 220.85,-154.82 213.85,-154.68"/>
</a>
</g>
</g>
<!-- Node8&#45;&gt;Node3 -->
<g id="edge10_Node000008_Node000003" class="edge">
<title>Node8&#45;&gt;Node3</title>
<g id="a_edge10_Node000008_Node000003"><a xlink:title=" ">
<path fill="none" stroke="#63b8ff" d="M195.96,-104.42C180.89,-94.81 161.41,-82.37 148.58,-74.17"/>
<polygon fill="#63b8ff" stroke="#63b8ff" points="194.35,-107.55 204.66,-109.98 198.12,-101.65 194.35,-107.55"/>
</a>
</g>
</g>
<!-- Node8&#45;&gt;Node4 -->
<g id="edge9_Node000008_Node000004" class="edge">
<title>Node8&#45;&gt;Node4</title>
<g id="a_edge9_Node000008_Node000004"><a xlink:title=" ">
<path fill="none" stroke="#63b8ff" d="M210.31,-100.44C200.29,-76.92 183.17,-36.73 175.69,-19.16"/>
<polygon fill="#63b8ff" stroke="#63b8ff" points="207.1,-101.83 214.24,-109.66 213.54,-99.09 207.1,-101.83"/>
</a>
</g>
</g>
</g>
</svg>
</svg>

<style type='text/css'>
<![CDATA[
[data-mouse-over-selected='false'] { opacity: 0.7; }
[data-mouse-over-selected='true']  { opacity: 1.0; }
]]>
</style>
<script type="application/ecmascript"><![CDATA[
document.addEventListener('DOMContentLoaded', (event) => {
  highlightEdges();
  highlightAdjacentNodes();
});
]]></script>
</svg>
