<?xml version="1.0" encoding="UTF-8" standalone="no"?>
<!DOCTYPE svg PUBLIC "-//W3C//DTD SVG 1.1//EN"
 "http://www.w3.org/Graphics/SVG/1.1/DTD/svg11.dtd">
<!-- Generated by graphviz version 2.43.0 (0)
 -->
<!-- Title: terminal.hpp Pages: 1 -->
<svg width="1103pt" height="137pt"
 viewBox="0.00 0.00 1102.50 137.00" xmlns="http://www.w3.org/2000/svg" xmlns:xlink="http://www.w3.org/1999/xlink">
<g id="graph0" class="graph" transform="scale(1 1) rotate(0) translate(4 133)">
<title>terminal.hpp</title>
<!-- Node1 -->
<g id="Node000001" class="node">
<title>Node1</title>
<g id="a_Node000001"><a xlink:title=" ">
<polygon fill="#999999" stroke="#666666" points="807.5,-129 728.5,-129 728.5,-110 807.5,-110 807.5,-129"/>
<text text-anchor="middle" x="768" y="-117" font-family="Helvetica,sans-Serif" font-size="10.00">terminal.hpp</text>
</a>
</g>
</g>
<!-- Node2 -->
<g id="Node000002" class="node">
<title>Node2</title>
<g id="a_Node000002"><a xlink:href="string__util_8hpp.html" target="_top" xlink:title=" ">
<polygon fill="white" stroke="#666666" points="521,-74 435,-74 435,-55 521,-55 521,-74"/>
<text text-anchor="middle" x="478" y="-62" font-family="Helvetica,sans-Serif" font-size="10.00">string_util.hpp</text>
</a>
</g>
</g>
<!-- Node1&#45;&gt;Node2 -->
<g id="edge1_Node000001_Node000002" class="edge">
<title>Node1&#45;&gt;Node2</title>
<g id="a_edge1_Node000001_Node000002"><a xlink:title=" ">
<path fill="none" stroke="#63b8ff" d="M728.28,-111.24C677.07,-101.88 587.82,-85.57 530.9,-75.17"/>
<polygon fill="#63b8ff" stroke="#63b8ff" points="531.47,-71.71 521.01,-73.36 530.22,-78.6 531.47,-71.71"/>
</a>
</g>
</g>
<!-- Node3 -->
<g id="Node000003" class="node">
<title>Node3</title>
<g id="a_Node000003"><a xlink:title=" ">
<polygon fill="#e0e0e0" stroke="#999999" points="64,-19 0,-19 0,0 64,0 64,-19"/>
<text text-anchor="middle" x="32" y="-7" font-family="Helvetica,sans-Serif" font-size="10.00">algorithm</text>
</a>
</g>
</g>
<!-- Node1&#45;&gt;Node3 -->
<g id="edge13_Node000001_Node000003" class="edge">
<title>Node1&#45;&gt;Node3</title>
<g id="a_edge13_Node000001_Node000003"><a xlink:title=" ">
<path fill="none" stroke="#63b8ff" d="M728.26,-113.86C623.12,-101.38 328.86,-64.97 74.38,-19.17"/>
<polygon fill="#63b8ff" stroke="#63b8ff" points="74.66,-15.67 64.2,-17.33 73.42,-22.56 74.66,-15.67"/>
</a>
</g>
</g>
<!-- Node9 -->
<g id="Node000009" class="node">
<title>Node9</title>
<g id="a_Node000009"><a xlink:title=" ">
<polygon fill="#e0e0e0" stroke="#999999" points="689,-19 645,-19 645,0 689,0 689,-19"/>
<text text-anchor="middle" x="667" y="-7" font-family="Helvetica,sans-Serif" font-size="10.00">string</text>
</a>
</g>
</g>
<!-- Node1&#45;&gt;Node9 -->
<g id="edge18_Node000001_Node000009" class="edge">
<title>Node1&#45;&gt;Node9</title>
<g id="a_edge18_Node000001_Node000009"><a xlink:title=" ">
<path fill="none" stroke="#63b8ff" d="M758.6,-109.87C749.13,-101.07 734.22,-86.91 722,-74 707.5,-58.68 691.83,-40.4 680.94,-27.4"/>
<polygon fill="#63b8ff" stroke="#63b8ff" points="683.32,-24.79 674.24,-19.34 677.94,-29.27 683.32,-24.79"/>
</a>
</g>
</g>
<!-- Node10 -->
<g id="Node000010" class="node">
<title>Node10</title>
<g id="a_Node000010"><a xlink:title=" ">
<polygon fill="#e0e0e0" stroke="#999999" points="780.5,-19 707.5,-19 707.5,0 780.5,0 780.5,-19"/>
<text text-anchor="middle" x="744" y="-7" font-family="Helvetica,sans-Serif" font-size="10.00">string_view</text>
</a>
</g>
</g>
<!-- Node1&#45;&gt;Node10 -->
<g id="edge19_Node000001_Node000010" class="edge">
<title>Node1&#45;&gt;Node10</title>
<g id="a_edge19_Node000001_Node000010"><a xlink:title=" ">
<path fill="none" stroke="#63b8ff" d="M757.01,-109.99C747.55,-101.9 734.57,-88.81 729,-74 723.4,-59.11 728.46,-41.44 734.17,-28.53"/>
<polygon fill="#63b8ff" stroke="#63b8ff" points="737.42,-29.85 738.69,-19.34 731.14,-26.76 737.42,-29.85"/>
</a>
</g>
</g>
<!-- Node13 -->
<g id="Node000013" class="node">
<title>Node13</title>
<g id="a_Node000013"><a xlink:title=" ">
<polygon fill="#e0e0e0" stroke="#999999" points="843.5,-19 798.5,-19 798.5,0 843.5,0 843.5,-19"/>
<text text-anchor="middle" x="821" y="-7" font-family="Helvetica,sans-Serif" font-size="10.00">utility</text>
</a>
</g>
</g>
<!-- Node1&#45;&gt;Node13 -->
<g id="edge20_Node000001_Node000013" class="edge">
<title>Node1&#45;&gt;Node13</title>
<g id="a_edge20_Node000001_Node000013"><a xlink:title=" ">
<path fill="none" stroke="#63b8ff" d="M764.38,-109.75C759.69,-96.99 753.11,-72.84 762,-55 768.57,-41.82 781.1,-31.52 792.93,-24.16"/>
<polygon fill="#63b8ff" stroke="#63b8ff" points="794.8,-27.12 801.73,-19.1 791.32,-21.05 794.8,-27.12"/>
</a>
</g>
</g>
<!-- Node14 -->
<g id="Node000014" class="node">
<title>Node14</title>
<g id="a_Node000014"><a xlink:title=" ">
<polygon fill="#e0e0e0" stroke="#999999" points="817,-74 771,-74 771,-55 817,-55 817,-74"/>
<text text-anchor="middle" x="794" y="-62" font-family="Helvetica,sans-Serif" font-size="10.00">cstdio</text>
</a>
</g>
</g>
<!-- Node1&#45;&gt;Node14 -->
<g id="edge14_Node000001_Node000014" class="edge">
<title>Node1&#45;&gt;Node14</title>
<g id="a_edge14_Node000001_Node000014"><a xlink:title=" ">
<path fill="none" stroke="#63b8ff" d="M772.29,-109.75C775.81,-102.57 780.91,-92.18 785.28,-83.27"/>
<polygon fill="#63b8ff" stroke="#63b8ff" points="788.52,-84.61 789.79,-74.09 782.24,-81.53 788.52,-84.61"/>
</a>
</g>
</g>
<!-- Node15 -->
<g id="Node000015" class="node">
<title>Node15</title>
<g id="a_Node000015"><a xlink:title=" ">
<polygon fill="#e0e0e0" stroke="#999999" points="883,-74 835,-74 835,-55 883,-55 883,-74"/>
<text text-anchor="middle" x="859" y="-62" font-family="Helvetica,sans-Serif" font-size="10.00">mutex</text>
</a>
</g>
</g>
<!-- Node1&#45;&gt;Node15 -->
<g id="edge15_Node000001_Node000015" class="edge">
<title>Node1&#45;&gt;Node15</title>
<g id="a_edge15_Node000001_Node000015"><a xlink:title=" ">
<path fill="none" stroke="#63b8ff" d="M782.62,-109.98C796.86,-101.69 818.75,-88.94 835.45,-79.22"/>
<polygon fill="#63b8ff" stroke="#63b8ff" points="837.23,-82.23 844.11,-74.17 833.71,-76.18 837.23,-82.23"/>
</a>
</g>
</g>
<!-- Node16 -->
<g id="Node000016" class="node">
<title>Node16</title>
<g id="a_Node000016"><a xlink:title=" ">
<polygon fill="#e0e0e0" stroke="#999999" points="957,-74 901,-74 901,-55 957,-55 957,-74"/>
<text text-anchor="middle" x="929" y="-62" font-family="Helvetica,sans-Serif" font-size="10.00">optional</text>
</a>
</g>
</g>
<!-- Node1&#45;&gt;Node16 -->
<g id="edge16_Node000001_Node000016" class="edge">
<title>Node1&#45;&gt;Node16</title>
<g id="a_edge16_Node000001_Node000016"><a xlink:title=" ">
<path fill="none" stroke="#63b8ff" d="M793.87,-109.98C820.78,-101.13 863.12,-87.19 893.23,-77.28"/>
<polygon fill="#63b8ff" stroke="#63b8ff" points="894.53,-80.53 902.93,-74.08 892.34,-73.88 894.53,-80.53"/>
</a>
</g>
</g>
<!-- Node17 -->
<g id="Node000017" class="node">
<title>Node17</title>
<g id="a_Node000017"><a xlink:title=" ">
<polygon fill="#e0e0e0" stroke="#999999" points="1025,-74 975,-74 975,-55 1025,-55 1025,-74"/>
<text text-anchor="middle" x="1000" y="-62" font-family="Helvetica,sans-Serif" font-size="10.00">ranges</text>
</a>
</g>
</g>
<!-- Node1&#45;&gt;Node17 -->
<g id="edge17_Node000001_Node000017" class="edge">
<title>Node1&#45;&gt;Node17</title>
<g id="a_edge17_Node000001_Node000017"><a xlink:title=" ">
<path fill="none" stroke="#63b8ff" d="M807.13,-109.99C845.01,-101.7 904.31,-88.54 964.68,-74.27"/>
<polygon fill="#63b8ff" stroke="#63b8ff" points="965.84,-77.59 974.77,-71.88 964.23,-70.78 965.84,-77.59"/>
</a>
</g>
</g>
<!-- Node18 -->
<g id="Node000018" class="node">
<title>Node18</title>
<g id="a_Node000018"><a xlink:title=" ">
<polygon fill="#e0e0e0" stroke="#999999" points="1094.5,-74 1043.5,-74 1043.5,-55 1094.5,-55 1094.5,-74"/>
<text text-anchor="middle" x="1069" y="-62" font-family="Helvetica,sans-Serif" font-size="10.00">variant</text>
</a>
</g>
</g>
<!-- Node1&#45;&gt;Node18 -->
<g id="edge21_Node000001_Node000018" class="edge">
<title>Node1&#45;&gt;Node18</title>
<g id="a_edge21_Node000001_Node000018"><a xlink:title=" ">
<path fill="none" stroke="#63b8ff" d="M807.82,-112.76C858.05,-105.32 947.25,-91.43 1033.48,-73.97"/>
<polygon fill="#63b8ff" stroke="#63b8ff" points="1034.34,-77.37 1043.43,-71.94 1032.94,-70.51 1034.34,-77.37"/>
</a>
</g>
</g>
<!-- Node2&#45;&gt;Node3 -->
<g id="edge2_Node000002_Node000003" class="edge">
<title>Node2&#45;&gt;Node3</title>
<g id="a_edge2_Node000002_Node000003"><a xlink:title=" ">
<path fill="none" stroke="#63b8ff" d="M434.96,-60.12C362.59,-54.15 211.77,-40.45 74.46,-19.09"/>
<polygon fill="#63b8ff" stroke="#63b8ff" points="74.6,-15.57 64.18,-17.47 73.51,-22.48 74.6,-15.57"/>
</a>
</g>
</g>
<!-- Node4 -->
<g id="Node000004" class="node">
<title>Node4</title>
<g id="a_Node000004"><a xlink:title=" ">
<polygon fill="#e0e0e0" stroke="#999999" points="317.5,-19 268.5,-19 268.5,0 317.5,0 317.5,-19"/>
<text text-anchor="middle" x="293" y="-7" font-family="Helvetica,sans-Serif" font-size="10.00">cctype</text>
</a>
</g>
</g>
<!-- Node2&#45;&gt;Node4 -->
<g id="edge3_Node000002_Node000004" class="edge">
<title>Node2&#45;&gt;Node4</title>
<g id="a_edge3_Node000002_Node000004"><a xlink:title=" ">
<path fill="none" stroke="#63b8ff" d="M448.28,-54.98C415.27,-45.53 362.09,-30.29 327.33,-20.34"/>
<polygon fill="#63b8ff" stroke="#63b8ff" points="328.2,-16.94 317.62,-17.55 326.27,-23.67 328.2,-16.94"/>
</a>
</g>
</g>
<!-- Node5 -->
<g id="Node000005" class="node">
<title>Node5</title>
<g id="a_Node000005"><a xlink:title=" ">
<polygon fill="#e0e0e0" stroke="#999999" points="396.5,-19 335.5,-19 335.5,0 396.5,0 396.5,-19"/>
<text text-anchor="middle" x="366" y="-7" font-family="Helvetica,sans-Serif" font-size="10.00">charconv</text>
</a>
</g>
</g>
<!-- Node2&#45;&gt;Node5 -->
<g id="edge4_Node000002_Node000005" class="edge">
<title>Node2&#45;&gt;Node5</title>
<g id="a_edge4_Node000002_Node000005"><a xlink:title=" ">
<path fill="none" stroke="#63b8ff" d="M460.01,-54.98C442.07,-46.5 414.28,-33.35 393.57,-23.54"/>
<polygon fill="#63b8ff" stroke="#63b8ff" points="394.86,-20.28 384.32,-19.17 391.86,-26.61 394.86,-20.28"/>
</a>
</g>
</g>
<!-- Node6 -->
<g id="Node000006" class="node">
<title>Node6</title>
<g id="a_Node000006"><a xlink:title=" ">
<polygon fill="#e0e0e0" stroke="#999999" points="469,-19 415,-19 415,0 469,0 469,-19"/>
<text text-anchor="middle" x="442" y="-7" font-family="Helvetica,sans-Serif" font-size="10.00">istream</text>
</a>
</g>
</g>
<!-- Node2&#45;&gt;Node6 -->
<g id="edge5_Node000002_Node000006" class="edge">
<title>Node2&#45;&gt;Node6</title>
<g id="a_edge5_Node000002_Node000006"><a xlink:title=" ">
<path fill="none" stroke="#63b8ff" d="M472.06,-54.75C467.02,-47.34 459.66,-36.5 453.49,-27.41"/>
<polygon fill="#63b8ff" stroke="#63b8ff" points="456.35,-25.39 447.83,-19.09 450.56,-29.33 456.35,-25.39"/>
</a>
</g>
</g>
<!-- Node7 -->
<g id="Node000007" class="node">
<title>Node7</title>
<g id="a_Node000007"><a xlink:title=" ">
<polygon fill="#e0e0e0" stroke="#999999" points="543,-19 487,-19 487,0 543,0 543,-19"/>
<text text-anchor="middle" x="515" y="-7" font-family="Helvetica,sans-Serif" font-size="10.00">sstream</text>
</a>
</g>
</g>
<!-- Node2&#45;&gt;Node7 -->
<g id="edge6_Node000002_Node000007" class="edge">
<title>Node2&#45;&gt;Node7</title>
<g id="a_edge6_Node000002_Node000007"><a xlink:title=" ">
<path fill="none" stroke="#63b8ff" d="M484.11,-54.75C489.28,-47.34 496.85,-36.5 503.19,-27.41"/>
<polygon fill="#63b8ff" stroke="#63b8ff" points="506.15,-29.29 509,-19.09 500.41,-25.29 506.15,-29.29"/>
</a>
</g>
</g>
<!-- Node8 -->
<g id="Node000008" class="node">
<title>Node8</title>
<g id="a_Node000008"><a xlink:title=" ">
<polygon fill="#e0e0e0" stroke="#999999" points="626.5,-19 561.5,-19 561.5,0 626.5,0 626.5,-19"/>
<text text-anchor="middle" x="594" y="-7" font-family="Helvetica,sans-Serif" font-size="10.00">stdexcept</text>
</a>
</g>
</g>
<!-- Node2&#45;&gt;Node8 -->
<g id="edge7_Node000002_Node000008" class="edge">
<title>Node2&#45;&gt;Node8</title>
<g id="a_edge7_Node000002_Node000008"><a xlink:title=" ">
<path fill="none" stroke="#63b8ff" d="M496.64,-54.98C515.3,-46.46 544.25,-33.23 565.74,-23.41"/>
<polygon fill="#63b8ff" stroke="#63b8ff" points="567.38,-26.51 575.02,-19.17 564.47,-20.14 567.38,-26.51"/>
</a>
</g>
</g>
<!-- Node2&#45;&gt;Node9 -->
<g id="edge8_Node000002_Node000009" class="edge">
<title>Node2&#45;&gt;Node9</title>
<g id="a_edge8_Node000002_Node000009"><a xlink:title=" ">
<path fill="none" stroke="#63b8ff" d="M508.37,-54.98C543.13,-45.24 599.81,-29.34 635.17,-19.43"/>
<polygon fill="#63b8ff" stroke="#63b8ff" points="636.29,-22.75 644.98,-16.68 634.4,-16.01 636.29,-22.75"/>
</a>
</g>
</g>
<!-- Node2&#45;&gt;Node10 -->
<g id="edge9_Node000002_Node000010" class="edge">
<title>Node2&#45;&gt;Node10</title>
<g id="a_edge9_Node000002_Node000010"><a xlink:title=" ">
<path fill="none" stroke="#63b8ff" d="M520.74,-54.98C569.1,-45.35 647.61,-29.71 697.48,-19.77"/>
<polygon fill="#63b8ff" stroke="#63b8ff" points="698.24,-23.19 707.36,-17.8 696.87,-16.32 698.24,-23.19"/>
</a>
</g>
</g>
<!-- Node11 -->
<g id="Node000011" class="node">
<title>Node11</title>
<g id="a_Node000011"><a xlink:title=" ">
<polygon fill="#e0e0e0" stroke="#999999" points="163.5,-19 82.5,-19 82.5,0 163.5,0 163.5,-19"/>
<text text-anchor="middle" x="123" y="-7" font-family="Helvetica,sans-Serif" font-size="10.00">system_error</text>
</a>
</g>
</g>
<!-- Node2&#45;&gt;Node11 -->
<g id="edge10_Node000002_Node000011" class="edge">
<title>Node2&#45;&gt;Node11</title>
<g id="a_edge10_Node000002_Node000011"><a xlink:title=" ">
<path fill="none" stroke="#63b8ff" d="M434.87,-57.61C377.48,-49.68 272.61,-34.91 173.51,-19.21"/>
<polygon fill="#63b8ff" stroke="#63b8ff" points="174.05,-15.75 163.63,-17.64 172.95,-22.66 174.05,-15.75"/>
</a>
</g>
</g>
<!-- Node12 -->
<g id="Node000012" class="node">
<title>Node12</title>
<g id="a_Node000012"><a xlink:title=" ">
<polygon fill="#e0e0e0" stroke="#999999" points="250.5,-19 181.5,-19 181.5,0 250.5,0 250.5,-19"/>
<text text-anchor="middle" x="216" y="-7" font-family="Helvetica,sans-Serif" font-size="10.00">type_traits</text>
</a>
</g>
</g>
<!-- Node2&#45;&gt;Node12 -->
<g id="edge11_Node000002_Node000012" class="edge">
<title>Node2&#45;&gt;Node12</title>
<g id="a_edge11_Node000002_Node000012"><a xlink:title=" ">
<path fill="none" stroke="#63b8ff" d="M435.91,-54.98C387.96,-45.29 309.94,-29.5 260.88,-19.58"/>
<polygon fill="#63b8ff" stroke="#63b8ff" points="261.36,-16.11 250.87,-17.55 259.97,-22.97 261.36,-16.11"/>
</a>
</g>
</g>
<!-- Node2&#45;&gt;Node13 -->
<g id="edge12_Node000002_Node000013" class="edge">
<title>Node2&#45;&gt;Node13</title>
<g id="a_edge12_Node000002_Node000013"><a xlink:title=" ">
<path fill="none" stroke="#63b8ff" d="M521.19,-59.08C579.74,-52.71 687.67,-39.62 788.36,-19.12"/>
<polygon fill="#63b8ff" stroke="#63b8ff" points="789.31,-22.5 798.39,-17.05 787.89,-15.65 789.31,-22.5"/>
</a>
</g>
</g>
</g>
</svg>
