<?xml version="1.0" encoding="UTF-8" standalone="no"?>
<!DOCTYPE svg PUBLIC "-//W3C//DTD SVG 1.1//EN"
 "http://www.w3.org/Graphics/SVG/1.1/DTD/svg11.dtd">
<!-- Generated by graphviz version 2.43.0 (0)
 -->
<!-- Title: var.hpp Pages: 1 -->
<svg width="138pt" height="137pt"
 viewBox="0.00 0.00 138.00 137.00" xmlns="http://www.w3.org/2000/svg" xmlns:xlink="http://www.w3.org/1999/xlink">
<g id="graph0" class="graph" transform="scale(1 1) rotate(0) translate(4 133)">
<title>var.hpp</title>
<!-- Node1 -->
<g id="Node000001" class="node">
<title>Node1</title>
<g id="a_Node000001"><a xlink:title=" ">
<polygon fill="#999999" stroke="#666666" points="82.5,-129 29.5,-129 29.5,-110 82.5,-110 82.5,-129"/>
<text text-anchor="middle" x="56" y="-117" font-family="Helvetica,sans-Serif" font-size="10.00">var.hpp</text>
</a>
</g>
</g>
<!-- Node2 -->
<g id="Node000002" class="node">
<title>Node2</title>
<g id="a_Node000002"><a xlink:href="gradient__solver_8cpp.html" target="_top" xlink:title=" ">
<polygon fill="white" stroke="#666666" points="112,-19 0,-19 0,0 112,0 112,-19"/>
<text text-anchor="middle" x="56" y="-7" font-family="Helvetica,sans-Serif" font-size="10.00">gradient_solver.cpp</text>
</a>
</g>
</g>
<!-- Node1&#45;&gt;Node2 -->
<g id="edge1_Node000001_Node000002" class="edge">
<title>Node1&#45;&gt;Node2</title>
<g id="a_edge1_Node000001_Node000002"><a xlink:title=" ">
<path fill="none" stroke="#63b8ff" d="M48.44,-100.49C45.49,-92.53 42.47,-82.95 41,-74 37.74,-54.1 46.26,-31.18 51.76,-19.05"/>
<polygon fill="#63b8ff" stroke="#63b8ff" points="45.21,-101.84 52.14,-109.85 51.72,-99.26 45.21,-101.84"/>
</a>
</g>
</g>
<!-- Node3 -->
<g id="Node000003" class="node">
<title>Node3</title>
<g id="a_Node000003"><a xlink:href="var__toys_8hpp.html" target="_top" xlink:title="Demonstration reverse&#45;mode helpers built on Var&lt;T&gt;.">
<polygon fill="white" stroke="#666666" points="130,-74 50,-74 50,-55 130,-55 130,-74"/>
<text text-anchor="middle" x="90" y="-62" font-family="Helvetica,sans-Serif" font-size="10.00">var_toys.hpp</text>
</a>
</g>
</g>
<!-- Node1&#45;&gt;Node3 -->
<g id="edge2_Node000001_Node000003" class="edge">
<title>Node1&#45;&gt;Node3</title>
<g id="a_edge2_Node000001_Node000003"><a xlink:title=" ">
<path fill="none" stroke="#63b8ff" d="M67.16,-101.1C72.97,-92.04 79.82,-81.37 84.49,-74.09"/>
<polygon fill="#63b8ff" stroke="#63b8ff" points="64.07,-99.44 61.61,-109.75 69.96,-103.22 64.07,-99.44"/>
</a>
</g>
</g>
<!-- Node3&#45;&gt;Node2 -->
<g id="edge3_Node000003_Node000002" class="edge">
<title>Node3&#45;&gt;Node2</title>
<g id="a_edge3_Node000003_Node000002"><a xlink:title=" ">
<path fill="none" stroke="#63b8ff" d="M78.84,-46.1C73.03,-37.04 66.18,-26.37 61.51,-19.09"/>
<polygon fill="#63b8ff" stroke="#63b8ff" points="76.04,-48.22 84.39,-54.75 81.93,-44.44 76.04,-48.22"/>
</a>
</g>
</g>
</g>
</svg>
